<svg width="501" height="153" viewBox="0 0 501 153" fill="none" xmlns="http://www.w3.org/2000/svg">
<path d="M75.6167 13.3483C75.0064 15.1333 75.0423 33.6758 75.6526 34.4044C75.868 34.6958 76.7655 35.2058 77.6629 35.5701L79.2425 36.2258V41.5081C79.2066 54.9869 75.9757 65.8428 69.3344 74.6587C67.1445 77.573 61.8674 82.6002 58.8878 84.6038C53.826 88.0282 45.2462 91.8533 38.8562 93.6019C32.2149 95.4233 26.3993 96.1155 15.5219 96.4798C8.41389 96.7348 7.04973 96.8805 5.64967 97.4998C-1.85321 100.888 -1.88911 109.011 5.57787 116.989C14.3731 126.352 32.4662 135.24 47.7591 137.681C62.2623 139.976 77.0885 137.208 88.4326 129.995C104.3 119.94 115.465 103.838 118.408 86.6803C118.839 84.1667 119.234 79.9773 119.342 76.298C119.736 63.5842 117.367 51.599 111.875 38.5937L109.936 34.0401L109.828 23.5849C109.685 13.3483 109.685 13.0933 108.931 12.5468C108.285 12.0732 105.808 12.0004 92.1302 12.0004H76.0834L75.6167 13.3483ZM105.449 19.1041V21.472H92.7046H79.9605V19.1041V16.7362H92.7046H105.449V19.1041ZM105.449 28.3935V30.5793H92.7046H79.9605V28.3935V26.2078H92.7046H105.449V28.3935ZM96.6894 39.5773C97.1919 45.9889 96.9766 57.5734 96.2945 62.8192C95.2534 70.87 92.7046 79.8316 89.725 85.806C86.7095 91.8897 81.0733 98.6291 75.6885 102.563C70.8062 106.134 62.9803 109.376 55.7646 110.76C52.6773 111.379 49.949 111.598 43.523 111.707C36.5946 111.853 29.9891 111.525 29.5225 111.015C29.4507 110.979 29.0558 109.011 28.6609 106.716C28.2301 104.421 27.7993 102.09 27.6916 101.543C27.4762 100.633 27.5839 100.56 28.8404 100.341C47.4001 97.3176 59.7853 91.5618 69.6934 81.2888C76.1193 74.6587 80.463 66.0249 82.4734 56.0433C83.4427 51.344 84.017 43.9853 83.8375 39.3952L83.6581 35.6794H90.0481H96.4022L96.6894 39.5773ZM107.315 39.6866C115.249 57.5734 117.116 77.4273 112.234 92.6183C106.777 109.594 93.5662 123.802 77.1244 130.286C65.0983 135.058 50.272 134.84 35.2663 129.594C32.6457 128.683 26.2557 125.915 25.8967 125.55C25.8249 125.514 26.3275 124.057 27.0095 122.381C27.6916 120.669 28.4096 118.519 28.6609 117.536L29.0558 115.751L30.5994 116.006C33.1483 116.37 50.1284 116.261 52.9645 115.86C73.0679 112.873 86.7454 103.037 94.679 85.8424C100.71 72.8008 103.295 52.5461 100.89 37.0273L100.674 35.643L103.151 35.7522L105.628 35.8615L107.315 39.6866ZM23.3478 103.146C25.3223 110.286 25.1069 115.642 22.6299 120.997C22.0914 122.162 21.517 123.11 21.3375 123.11C21.158 123.11 19.1477 121.871 16.8501 120.304C7.22922 113.929 2.45466 106.571 5.57787 103.037C6.90613 101.507 8.019 101.361 16.1322 101.288L22.8453 101.252L23.3478 103.146Z" fill="#5EB3DC"/>
<path d="M118.553 31.7447C118.05 32.1454 117.655 32.7647 117.655 33.1654C117.655 33.5297 119.091 36.7719 120.85 40.3055C127.527 53.8208 130.291 66.2796 129.753 80.5598C128.676 108.465 110.368 134.002 84.8434 143.109C76.4072 146.132 69.3351 147.298 59.4988 147.298C51.601 147.298 47.1136 146.825 40.1851 145.149C35.5183 144.02 34.908 144.02 34.1541 145.112C32.6823 147.444 34.6208 148.901 40.939 150.249C47.688 151.67 51.7087 152.034 59.8578 151.998C72.6737 151.961 82.5818 149.885 92.9207 145.04C116.578 134.002 133.558 107.627 134.779 80.0863C135.317 67.7003 131.799 51.89 125.732 39.5041C121.963 31.7811 120.491 30.1782 118.553 31.7447Z" fill="#5EB3DC"/>
<path d="M8.05549 131.379C7.9119 131.488 7.8042 132.216 7.8042 132.981C7.8042 134.147 8.01959 134.512 9.52735 135.787C13.1531 138.883 20.9073 143.437 24.3895 144.566C27.405 145.55 29.0205 142.307 26.364 140.595C25.9332 140.34 23.6356 139.065 21.2663 137.754C18.897 136.479 15.9174 134.621 14.625 133.674C13.3326 132.726 11.9326 131.779 11.5018 131.524C10.6402 131.087 8.41448 130.978 8.05549 131.379Z" fill="#5EB3DC"/>
<path d="M158.814 76C157.61 76 156.607 75.6273 155.804 74.882C155.001 74.0793 154.6 73.1047 154.6 71.958V12.876C154.6 11.672 154.973 10.6973 155.718 9.952C156.521 9.20667 157.495 8.834 158.642 8.834H179.368C183.037 8.834 186.305 9.57933 189.172 11.07C192.096 12.5607 194.389 14.6247 196.052 17.262C197.715 19.8993 198.546 22.938 198.546 26.378C198.546 29.302 197.743 31.9393 196.138 34.29C194.59 36.5833 192.497 38.3607 189.86 39.622C193.644 40.5967 196.683 42.46 198.976 45.212C201.327 47.964 202.502 51.5187 202.502 55.876C202.502 59.832 201.585 63.3293 199.75 66.368C197.915 69.3493 195.364 71.7 192.096 73.42C188.885 75.14 185.187 76 181.002 76H158.814ZM162.684 68.432H181.002C183.697 68.432 186.047 67.9447 188.054 66.97C190.118 65.9953 191.723 64.5907 192.87 62.756C194.074 60.864 194.676 58.5707 194.676 55.876C194.676 53.3533 194.074 51.232 192.87 49.512C191.723 47.792 190.118 46.4733 188.054 45.556C186.047 44.6387 183.697 44.18 181.002 44.18H162.684V68.432ZM162.684 36.612H179.368C182.693 36.612 185.417 35.752 187.538 34.032C189.717 32.2547 190.806 29.7033 190.806 26.378C190.806 23.0527 189.717 20.5587 187.538 18.896C185.417 17.2333 182.693 16.402 179.368 16.402H162.684V36.612ZM235.003 76.344C230.703 76.344 226.861 75.312 223.479 73.248C220.096 71.184 217.43 68.346 215.481 64.734C213.531 61.122 212.557 57.0513 212.557 52.522C212.557 47.9353 213.589 43.8647 215.653 40.31C217.774 36.698 220.612 33.86 224.167 31.796C227.779 29.6747 231.821 28.614 236.293 28.614C240.822 28.614 244.864 29.6747 248.419 31.796C251.973 33.86 254.783 36.698 256.847 40.31C258.968 43.922 260.057 47.9927 260.115 52.522L257.019 53.296C257.019 57.6533 256.044 61.5807 254.095 65.078C252.145 68.5753 249.508 71.3273 246.183 73.334C242.915 75.3407 239.188 76.344 235.003 76.344ZM236.293 69.292C239.389 69.292 242.141 68.5753 244.549 67.142C246.957 65.6513 248.849 63.6447 250.225 61.122C251.658 58.542 252.375 55.6753 252.375 52.522C252.375 49.3113 251.658 46.4447 250.225 43.922C248.849 41.342 246.957 39.3353 244.549 37.902C242.141 36.4113 239.389 35.666 236.293 35.666C233.311 35.666 230.588 36.4113 228.123 37.902C225.657 39.3353 223.708 41.342 222.275 43.922C220.899 46.4447 220.211 49.3113 220.211 52.522C220.211 55.6753 220.899 58.542 222.275 61.122C223.708 63.6447 225.657 65.6513 228.123 67.142C230.588 68.5753 233.311 69.292 236.293 69.292ZM256.073 76.086C254.926 76.086 253.98 75.7133 253.235 74.968C252.489 74.2227 252.117 73.2767 252.117 72.13V58.37L253.751 50.114L260.115 52.522V72.13C260.115 73.2767 259.713 74.2227 258.911 74.968C258.165 75.7133 257.219 76.086 256.073 76.086ZM313.072 76.086C311.925 76.086 310.95 75.7133 310.148 74.968C309.402 74.1653 309.03 73.2193 309.03 72.13V50.458C309.03 47.0753 308.399 44.3233 307.138 42.202C305.876 40.0233 304.185 38.418 302.064 37.386C299.942 36.2967 297.506 35.752 294.754 35.752C292.174 35.752 289.852 36.268 287.788 37.3C285.724 38.332 284.061 39.708 282.8 41.428C281.596 43.148 280.994 45.126 280.994 47.362H275.834C275.891 43.75 276.808 40.5393 278.586 37.73C280.363 34.8633 282.771 32.6273 285.81 31.022C288.848 29.3593 292.26 28.528 296.044 28.528C300.057 28.528 303.64 29.388 306.794 31.108C309.947 32.7707 312.441 35.236 314.276 38.504C316.11 41.772 317.028 45.7567 317.028 50.458V72.13C317.028 73.2193 316.626 74.1653 315.824 74.968C315.078 75.7133 314.161 76.086 313.072 76.086ZM277.038 76.086C275.891 76.086 274.945 75.7133 274.2 74.968C273.454 74.2227 273.082 73.2767 273.082 72.13V32.914C273.082 31.71 273.454 30.764 274.2 30.076C274.945 29.3307 275.891 28.958 277.038 28.958C278.242 28.958 279.188 29.3307 279.876 30.076C280.621 30.764 280.994 31.71 280.994 32.914V72.13C280.994 73.2767 280.621 74.2227 279.876 74.968C279.188 75.7133 278.242 76.086 277.038 76.086ZM351.573 76.344C347.273 76.344 343.432 75.312 340.049 73.248C336.666 71.184 334 68.346 332.051 64.734C330.102 61.122 329.127 57.0513 329.127 52.522C329.127 47.9353 330.159 43.8647 332.223 40.31C334.344 36.698 337.182 33.86 340.737 31.796C344.349 29.6747 348.391 28.614 352.863 28.614C357.392 28.614 361.434 29.6747 364.989 31.796C368.544 33.86 371.353 36.698 373.417 40.31C375.538 43.922 376.628 47.9927 376.685 52.522L373.589 53.296C373.589 57.6533 372.614 61.5807 370.665 65.078C368.716 68.5753 366.078 71.3273 362.753 73.334C359.485 75.3407 355.758 76.344 351.573 76.344ZM352.863 69.292C355.959 69.292 358.711 68.5753 361.119 67.142C363.527 65.6513 365.419 63.6447 366.795 61.122C368.228 58.542 368.945 55.6753 368.945 52.522C368.945 49.3113 368.228 46.4447 366.795 43.922C365.419 41.342 363.527 39.3353 361.119 37.902C358.711 36.4113 355.959 35.666 352.863 35.666C349.882 35.666 347.158 36.4113 344.693 37.902C342.228 39.3353 340.278 41.342 338.845 43.922C337.469 46.4447 336.781 49.3113 336.781 52.522C336.781 55.6753 337.469 58.542 338.845 61.122C340.278 63.6447 342.228 65.6513 344.693 67.142C347.158 68.5753 349.882 69.292 352.863 69.292ZM372.643 76.086C371.496 76.086 370.55 75.7133 369.805 74.968C369.06 74.2227 368.687 73.2767 368.687 72.13V58.37L370.321 50.114L376.685 52.522V72.13C376.685 73.2767 376.284 74.2227 375.481 74.968C374.736 75.7133 373.79 76.086 372.643 76.086ZM429.642 76.086C428.495 76.086 427.521 75.7133 426.718 74.968C425.973 74.1653 425.6 73.2193 425.6 72.13V50.458C425.6 47.0753 424.969 44.3233 423.708 42.202C422.447 40.0233 420.755 38.418 418.634 37.386C416.513 36.2967 414.076 35.752 411.324 35.752C408.744 35.752 406.422 36.268 404.358 37.3C402.294 38.332 400.631 39.708 399.37 41.428C398.166 43.148 397.564 45.126 397.564 47.362H392.404C392.461 43.75 393.379 40.5393 395.156 37.73C396.933 34.8633 399.341 32.6273 402.38 31.022C405.419 29.3593 408.83 28.528 412.614 28.528C416.627 28.528 420.211 29.388 423.364 31.108C426.517 32.7707 429.011 35.236 430.846 38.504C432.681 41.772 433.598 45.7567 433.598 50.458V72.13C433.598 73.2193 433.197 74.1653 432.394 74.968C431.649 75.7133 430.731 76.086 429.642 76.086ZM393.608 76.086C392.461 76.086 391.515 75.7133 390.77 74.968C390.025 74.2227 389.652 73.2767 389.652 72.13V32.914C389.652 31.71 390.025 30.764 390.77 30.076C391.515 29.3307 392.461 28.958 393.608 28.958C394.812 28.958 395.758 29.3307 396.446 30.076C397.191 30.764 397.564 31.71 397.564 32.914V72.13C397.564 73.2767 397.191 74.2227 396.446 74.968C395.758 75.7133 394.812 76.086 393.608 76.086ZM468.143 76.344C463.843 76.344 460.002 75.312 456.619 73.248C453.237 71.184 450.571 68.346 448.621 64.734C446.672 61.122 445.697 57.0513 445.697 52.522C445.697 47.9353 446.729 43.8647 448.793 40.31C450.915 36.698 453.753 33.86 457.307 31.796C460.919 29.6747 464.961 28.614 469.433 28.614C473.963 28.614 478.005 29.6747 481.559 31.796C485.114 33.86 487.923 36.698 489.987 40.31C492.109 43.922 493.198 47.9927 493.255 52.522L490.159 53.296C490.159 57.6533 489.185 61.5807 487.235 65.078C485.286 68.5753 482.649 71.3273 479.323 73.334C476.055 75.3407 472.329 76.344 468.143 76.344ZM469.433 69.292C472.529 69.292 475.281 68.5753 477.689 67.142C480.097 65.6513 481.989 63.6447 483.365 61.122C484.799 58.542 485.515 55.6753 485.515 52.522C485.515 49.3113 484.799 46.4447 483.365 43.922C481.989 41.342 480.097 39.3353 477.689 37.902C475.281 36.4113 472.529 35.666 469.433 35.666C466.452 35.666 463.729 36.4113 461.263 37.902C458.798 39.3353 456.849 41.342 455.415 43.922C454.039 46.4447 453.351 49.3113 453.351 52.522C453.351 55.6753 454.039 58.542 455.415 61.122C456.849 63.6447 458.798 65.6513 461.263 67.142C463.729 68.5753 466.452 69.292 469.433 69.292ZM489.213 76.086C488.067 76.086 487.121 75.7133 486.375 74.968C485.63 74.2227 485.257 73.2767 485.257 72.13V58.37L486.891 50.114L493.255 52.522V72.13C493.255 73.2767 492.854 74.2227 492.051 74.968C491.306 75.7133 490.36 76.086 489.213 76.086Z" fill="white"/>
<path d="M158.642 152C157.495 152 156.521 151.627 155.718 150.882C154.973 150.079 154.6 149.105 154.6 147.958V88.876C154.6 87.672 154.973 86.6973 155.718 85.952C156.521 85.2067 157.495 84.834 158.642 84.834C159.846 84.834 160.821 85.2067 161.566 85.952C162.311 86.6973 162.684 87.672 162.684 88.876V114.418H203.362V88.876C203.362 87.672 203.735 86.6973 204.48 85.952C205.283 85.2067 206.257 84.834 207.404 84.834C208.608 84.834 209.583 85.2067 210.328 85.952C211.073 86.6973 211.446 87.672 211.446 88.876V147.958C211.446 149.105 211.073 150.079 210.328 150.882C209.583 151.627 208.608 152 207.404 152C206.257 152 205.283 151.627 204.48 150.882C203.735 150.079 203.362 149.105 203.362 147.958V121.556H162.684V147.958C162.684 149.105 162.311 150.079 161.566 150.882C160.821 151.627 159.846 152 158.642 152ZM247.852 152.43C243.839 152.43 240.256 151.599 237.102 149.936C233.949 148.216 231.455 145.722 229.62 142.454C227.786 139.186 226.868 135.201 226.868 130.5V108.828C226.868 107.739 227.241 106.821 227.986 106.076C228.789 105.273 229.735 104.872 230.824 104.872C231.971 104.872 232.917 105.273 233.662 106.076C234.465 106.821 234.866 107.739 234.866 108.828V130.5C234.866 133.825 235.497 136.577 236.758 138.756C238.02 140.935 239.711 142.569 241.832 143.658C244.011 144.69 246.448 145.206 249.142 145.206C251.78 145.206 254.102 144.69 256.108 143.658C258.172 142.626 259.806 141.25 261.01 139.53C262.272 137.753 262.902 135.775 262.902 133.596H268.062C267.948 137.151 267.002 140.361 265.224 143.228C263.504 146.095 261.125 148.359 258.086 150.022C255.048 151.627 251.636 152.43 247.852 152.43ZM266.858 152C265.712 152 264.766 151.627 264.02 150.882C263.275 150.137 262.902 149.191 262.902 148.044V108.828C262.902 107.681 263.275 106.735 264.02 105.99C264.766 105.245 265.712 104.872 266.858 104.872C268.005 104.872 268.951 105.245 269.696 105.99C270.442 106.735 270.814 107.681 270.814 108.828V148.044C270.814 149.191 270.442 150.137 269.696 150.882C268.951 151.627 268.005 152 266.858 152ZM310.003 152.344C305.531 152.344 301.489 151.312 297.877 149.248C294.323 147.184 291.513 144.346 289.449 140.734C287.385 137.122 286.325 133.08 286.267 128.608V88.79C286.267 87.586 286.64 86.64 287.385 85.952C288.131 85.2067 289.077 84.834 290.223 84.834C291.427 84.834 292.373 85.2067 293.061 85.952C293.807 86.64 294.179 87.586 294.179 88.79V112.87C296.186 110.347 298.651 108.341 301.575 106.85C304.499 105.359 307.767 104.614 311.379 104.614C315.622 104.614 319.435 105.675 322.817 107.796C326.2 109.86 328.866 112.698 330.815 116.31C332.822 119.865 333.825 123.907 333.825 128.436C333.825 132.965 332.765 137.036 330.643 140.648C328.579 144.26 325.741 147.127 322.129 149.248C318.575 151.312 314.533 152.344 310.003 152.344ZM310.003 145.292C313.042 145.292 315.765 144.575 318.173 143.142C320.639 141.651 322.559 139.645 323.935 137.122C325.369 134.542 326.085 131.647 326.085 128.436C326.085 125.225 325.369 122.359 323.935 119.836C322.559 117.313 320.639 115.335 318.173 113.902C315.765 112.411 313.042 111.666 310.003 111.666C306.965 111.666 304.213 112.411 301.747 113.902C299.339 115.335 297.447 117.313 296.071 119.836C294.695 122.359 294.007 125.225 294.007 128.436C294.007 131.647 294.695 134.542 296.071 137.122C297.447 139.645 299.339 141.651 301.747 143.142C304.213 144.575 306.965 145.292 310.003 145.292Z" fill="white"/>
</svg>
