<svg width="440" height="132" viewBox="0 0 440 132" fill="none" xmlns="http://www.w3.org/2000/svg">
<path fill-rule="evenodd" clip-rule="evenodd" d="M353.519 61.3542L358.035 61.3705C359.713 58.0047 358.604 44.0119 358.849 38.8793C359.179 31.957 361.569 25.5209 367.284 25.4241C381.198 25.1888 373.356 55.1746 376.847 61.316L380.474 61.3604C383.266 60.8782 382.105 54.586 382.105 50.3222C382.105 42.5896 380.68 25.6115 390.587 25.4092C404.659 25.1215 396.869 57.7442 400.117 60.9926C400.694 61.4818 399.849 61.1409 400.989 61.3327C401.273 61.3802 401.901 61.386 402.209 61.3899C403.194 61.4035 403.956 61.4973 404.763 61.1237C406.096 58.8709 405.471 45.6168 405.441 41.7533C405.394 35.7263 404.078 29.9189 401.846 25.8077C397.987 18.6994 389.632 17.1623 383.8 21.0838C381.106 22.8954 381.223 24.085 379.24 26.0273C378.052 25.2275 376.633 22.6829 374.802 21.3029C372.979 19.929 370.826 19.1886 368.224 19.061C362.15 18.7637 358.721 21.679 356.456 25.6102C353.972 29.9233 352.828 35.2776 352.746 41.7401C352.692 46.0496 352.146 58.6139 353.519 61.3542Z" fill="#059351"/>
<path fill-rule="evenodd" clip-rule="evenodd" d="M416.797 55.033L416.64 25.3943C424.493 25.3965 433.841 22.9316 433.846 40.266C433.851 56.9806 424.875 55.2657 416.797 55.033ZM410.351 77.7112L411.28 79.3311C418.444 79.4569 416.443 80.7128 416.652 61.3856C423.36 61.1423 428.254 62.5598 433.191 58.288C439.825 52.5483 438.412 47.1914 440 43.5184V36.6978C439.18 34.8197 439.616 31.698 437.259 27.1232C431.954 16.8267 421.755 18.8249 411.295 19.0017C409.073 24.8738 411.973 71.7137 410.351 77.7112Z" fill="#059351"/>
<path fill-rule="evenodd" clip-rule="evenodd" d="M254.929 52.4541C253.053 51.4286 245.102 52.2988 242.29 52.1092C238.482 51.8518 236.546 48.6069 236.04 44.4131C239.241 44.271 253.305 44.9961 254.9 44.0546C256.529 42.6455 256.344 38.6285 255.062 36.7153C253.04 35.9405 239.353 36.4223 236.102 36.3919C236.14 34.0317 237.572 31.5145 238.637 30.3513C241.038 27.7263 248.692 28.8331 253.339 28.7139C257.062 28.6184 256.053 23.2227 255.687 22.188C254.871 19.8771 251.476 20.6883 249.219 20.6883C242.585 20.6883 235.436 19.5335 230.992 28.0144C226.427 36.7263 227.993 51.576 233.991 56.79C238.311 60.5448 241.117 60.0587 247.33 60.0587C253.745 60.0591 256.138 61.5522 256.044 55.9225C256.009 53.8487 255.751 53.1725 254.929 52.4541Z" fill="#194C36"/>
<path fill-rule="evenodd" clip-rule="evenodd" d="M142.995 36.3293C143.147 34.307 144.529 31.3881 145.466 30.3745C146.978 28.7379 149.027 28.6724 151.625 28.6838C160.69 28.723 163.275 29.9979 163.042 24.2441C162.879 20.1911 161.566 20.6605 158.555 20.6829C150.734 20.7423 145.124 19.5268 139.905 25.2775C132.047 33.9361 133.831 57.7942 146.999 59.9081C149.549 60.3176 159.437 60.3234 161.994 59.9327C163.326 57.7221 163.423 54.4714 161.969 52.2951C158.348 51.5903 153.004 52.4077 149.129 52.1051C145.657 51.8337 143.49 48.4233 142.997 44.3835L161.929 44.2035C163.513 41.7628 163.407 39.2183 162.026 36.4217L142.995 36.3293Z" fill="#194C36"/>
<path fill-rule="evenodd" clip-rule="evenodd" d="M341.58 54.9856C333.47 55.0067 324.283 57.4848 324.375 39.8921C324.465 22.6198 333.815 25.4713 341.592 25.379L341.58 54.9856ZM323.087 23.6149C322.286 25.4234 321.021 26.8127 320.094 29.135C319.289 31.1512 318.68 33.6474 318.44 36.1246C317.743 43.2994 318.772 45.847 320.056 51.6813C320.931 52.6936 321.677 55.4194 324.024 57.542C325.615 58.9823 327.387 60.361 329.932 60.9906C332.088 61.5238 344.574 61.6804 346.946 61.2699C348.398 58.1399 347.674 44.8061 347.674 40.2656C347.674 35.1805 348.291 22.9761 347.014 19.1628C344.006 18.6199 336.308 18.9147 332.95 19.0317C326.75 19.2477 325.327 22.6651 323.087 23.6149Z" fill="#059351"/>
<path fill-rule="evenodd" clip-rule="evenodd" d="M168.073 59.8773L173.369 60.0532C175.299 56.9944 174.471 46.2184 174.483 41.3827C174.498 35.5023 175.752 28.7133 180.905 28.6983C186.122 28.683 187.317 35.4591 187.338 41.3827C187.356 46.273 186.519 56.8959 188.453 59.945L193.744 60.0198C195.5 56.954 194.801 51.084 194.8 46.9698C194.798 42.853 194.836 37.5356 193.951 33.7764C192.186 26.2818 188.455 20.6974 180.903 20.6987C173.386 20.7001 169.596 26.2458 167.893 33.8063C166.935 38.0586 167.017 42.483 167.018 46.9698C167.019 51.1614 166.373 56.8633 168.073 59.8773Z" fill="#194C36"/>
<path fill-rule="evenodd" clip-rule="evenodd" d="M205.605 4.88086H200.82C198.859 8.28232 199.444 9.68266 199.445 14.5649C199.445 18.2898 199.445 22.0142 199.445 25.7391C199.445 38.6162 197.387 53.4083 208.48 59.0345C211.154 60.3912 222.902 60.5707 226.15 59.8893C227.579 57.6562 227.721 54.5573 226.121 52.3454C220.557 50.8501 212.1 54.4645 208.978 49.507C206.061 44.8777 206.794 35.1148 206.914 28.7029L213.825 28.5339C215.563 26.4394 215.234 23.1589 214.052 20.7503L206.898 20.6676C206.89 17.7637 207.28 8.11957 206.34 6.08181C206.231 5.84518 206.054 5.57548 205.925 5.35902L205.605 4.88086Z" fill="#194C36"/>
<path fill-rule="evenodd" clip-rule="evenodd" d="M133.673 59.947C135.113 57.1315 135.322 55.1056 133.651 52.2874C126.973 51.035 120.123 54.2262 116.644 49.6245C113.485 45.4448 113.73 36.1703 116.282 31.595C119.308 26.1708 127.511 29.9488 133.008 28.6255C135.381 28.0545 135.295 21.7846 133.436 20.8604C132.387 20.3382 125.603 20.6892 123.921 20.6884C116.621 20.6835 113.632 22.2246 110.257 27.0796C105.391 34.0802 104.876 52.9209 115.312 58.6453C118.861 60.591 129.227 60.5238 133.673 59.947Z" fill="#194C36"/>
<path fill-rule="evenodd" clip-rule="evenodd" d="M301.257 52.7225C296.458 49.2105 296.281 35.8939 299.361 29.9342C303.46 22.0037 312.02 26.9057 320.079 25.2992L320.61 22.3886L319.999 19.1076C313.922 18.5111 303.07 18.2969 298.811 21.4626C288.933 28.8063 288.155 50.7529 298.829 59.0613C302.838 62.1813 314.1 61.7378 319.923 61.334C320.785 59.4797 320.629 57.1319 320.072 55.1258C314.193 54.629 304.5 56.3008 301.69 53.4413C301.213 52.9565 301.386 53.2019 301.257 52.7225Z" fill="#059351"/>
<path fill-rule="evenodd" clip-rule="evenodd" d="M268.158 41.0103C268.159 27.1976 274.097 28.6854 280.387 28.6854C285.959 28.6849 288.377 29.852 288.519 24.9917C288.698 18.912 284.42 20.6822 275.979 20.6897C265.381 20.699 260.778 28.8644 260.778 41.7556C260.778 47.2969 260.056 56.7897 261.831 60.0064C266.927 60.0979 268.15 60.9052 268.155 55.1641L268.158 41.0103Z" fill="#194C36"/>
<path fill-rule="evenodd" clip-rule="evenodd" d="M135.001 93.8954L142.057 72.1329H144.733L152.222 93.8954H149.452L147.324 87.2998H139.578L137.583 93.8954H135.001ZM140.293 84.9594H146.561L144.643 78.9262C144.065 77.0923 143.629 75.5778 143.325 74.3822C143.072 75.8005 142.734 77.1937 142.31 78.5716L140.293 84.9594ZM152.971 89.1842L155.206 88.7588C155.33 89.8174 155.681 90.6281 156.255 91.1953C156.829 91.7577 157.634 92.0413 158.661 92.0413C159.702 92.0413 160.472 91.7932 160.978 91.2916C161.479 90.7952 161.731 90.2076 161.731 89.5338C161.731 88.9309 161.504 88.4548 161.055 88.1102C160.738 87.8722 159.967 87.5733 158.743 87.2035C157.09 86.7122 155.947 86.2866 155.305 85.9269C154.667 85.5623 154.183 85.0658 153.853 84.4276C153.524 83.7943 153.357 83.0902 153.357 82.3202C153.357 81.6162 153.493 80.9676 153.763 80.3698C154.037 79.772 154.405 79.2756 154.872 78.8805C155.223 78.5767 155.703 78.3183 156.307 78.1054C156.915 77.8927 157.561 77.7863 158.255 77.7863C159.299 77.7863 160.216 77.9636 161.003 78.3233C161.796 78.678 162.378 79.1642 162.755 79.772C163.127 80.3852 163.388 81.2006 163.53 82.2239L161.32 82.5888C161.222 81.7681 160.931 81.1247 160.451 80.6636C159.972 80.2028 159.295 79.9747 158.417 79.9747C157.385 79.9747 156.645 80.1774 156.204 80.5827C155.763 80.9879 155.54 81.464 155.54 82.0062C155.54 82.3507 155.63 82.6647 155.814 82.9433C155.998 83.2269 156.285 83.4649 156.679 83.6524C156.906 83.7538 157.565 83.9817 158.67 84.3363C160.263 84.8378 161.376 85.2532 162.01 85.5723C162.643 85.8915 163.14 86.3626 163.5 86.9706C163.864 87.5835 164.044 88.3434 164.044 89.2552C164.044 90.1417 163.825 90.9775 163.384 91.7627C162.943 92.5479 162.309 93.1557 161.483 93.5864C160.652 94.0169 159.715 94.2297 158.67 94.2297C156.94 94.2297 155.617 93.8043 154.709 92.9582C153.802 92.1072 153.224 90.8508 152.971 89.1842ZM165.816 89.1842L168.051 88.7588C168.175 89.8174 168.526 90.6281 169.1 91.1953C169.674 91.7577 170.479 92.0413 171.506 92.0413C172.547 92.0413 173.317 91.7932 173.823 91.2916C174.324 90.7952 174.576 90.2076 174.576 89.5338C174.576 88.9309 174.349 88.4548 173.9 88.1102C173.583 87.8722 172.812 87.5733 171.588 87.2035C169.935 86.7122 168.792 86.2866 168.15 85.9269C167.512 85.5623 167.028 85.0658 166.698 84.4276C166.369 83.7943 166.202 83.0902 166.202 82.3202C166.202 81.6162 166.338 80.9676 166.608 80.3698C166.882 79.772 167.25 79.2756 167.717 78.8805C168.068 78.5767 168.548 78.3183 169.152 78.1054C169.76 77.8927 170.406 77.7863 171.1 77.7863C172.144 77.7863 173.061 77.9636 173.849 78.3233C174.641 78.678 175.223 79.1642 175.6 79.772C175.972 80.3852 176.233 81.2006 176.375 82.2239L174.165 82.5888C174.067 81.7681 173.776 81.1247 173.296 80.6636C172.817 80.2028 172.14 79.9747 171.262 79.9747C170.23 79.9747 169.49 80.1774 169.049 80.5827C168.608 80.9879 168.385 81.464 168.385 82.0062C168.385 82.3507 168.475 82.6647 168.659 82.9433C168.843 83.2269 169.13 83.4649 169.524 83.6524C169.751 83.7538 170.41 83.9817 171.515 84.3363C173.108 84.8378 174.221 85.2532 174.855 85.5723C175.488 85.8915 175.985 86.3626 176.345 86.9706C176.709 87.5835 176.889 88.3434 176.889 89.2552C176.889 90.1417 176.67 90.9775 176.229 91.7627C175.788 92.5479 175.154 93.1557 174.328 93.5864C173.497 94.0169 172.56 94.2297 171.515 94.2297C169.785 94.2297 168.462 93.8043 167.554 92.9582C166.647 92.1072 166.069 90.8508 165.816 89.1842ZM188.655 88.7891L190.992 89.1539C190.628 90.7597 189.948 92.0109 188.954 92.8974C187.961 93.784 186.694 94.2297 185.148 94.2297C183.204 94.2297 181.663 93.5205 180.524 92.102C179.385 90.6888 178.815 88.6979 178.815 86.1398C178.815 83.4954 179.389 81.4387 180.541 79.9798C181.693 78.5159 183.187 77.7863 185.024 77.7863C186.8 77.7863 188.252 78.5006 189.378 79.9342C190.504 81.3678 191.069 83.3839 191.069 85.9828C191.069 86.1398 191.065 86.3779 191.057 86.6919H181.127C181.213 88.4193 181.624 89.7465 182.369 90.6634C183.11 91.5804 184.039 92.0413 185.148 92.0413C185.974 92.0413 186.681 91.7829 187.263 91.2662C187.85 90.7494 188.312 89.9238 188.655 88.7891ZM181.256 84.5035H188.68C188.582 83.1763 188.295 82.1834 187.828 81.5197C187.113 80.4914 186.18 79.9747 185.037 79.9747C184 79.9747 183.131 80.3852 182.425 81.2057C181.723 82.0264 181.333 83.1256 181.256 84.5035ZM192.949 89.1842L195.184 88.7588C195.308 89.8174 195.659 90.6281 196.233 91.1953C196.807 91.7577 197.612 92.0413 198.639 92.0413C199.68 92.0413 200.45 91.7932 200.956 91.2916C201.457 90.7952 201.709 90.2076 201.709 89.5338C201.709 88.9309 201.482 88.4548 201.033 88.1102C200.716 87.8722 199.945 87.5733 198.721 87.2035C197.068 86.7122 195.925 86.2866 195.283 85.9269C194.645 85.5623 194.161 85.0658 193.831 84.4276C193.502 83.7943 193.334 83.0902 193.334 82.3202C193.334 81.6162 193.471 80.9676 193.741 80.3698C194.015 79.772 194.383 79.2756 194.85 78.8805C195.201 78.5767 195.681 78.3183 196.285 78.1054C196.893 77.8927 197.539 77.7863 198.233 77.7863C199.277 77.7863 200.194 77.9636 200.981 78.3233C201.774 78.678 202.356 79.1642 202.733 79.772C203.105 80.3852 203.366 81.2006 203.508 82.2239L201.298 82.5888C201.2 81.7681 200.909 81.1247 200.429 80.6636C199.95 80.2028 199.273 79.9747 198.395 79.9747C197.363 79.9747 196.623 80.1774 196.182 80.5827C195.741 80.9879 195.518 81.464 195.518 82.0062C195.518 82.3507 195.608 82.6647 195.792 82.9433C195.976 83.2269 196.263 83.4649 196.657 83.6524C196.884 83.7538 197.543 83.9817 198.648 84.3363C200.241 84.8378 201.354 85.2532 201.988 85.5723C202.621 85.8915 203.118 86.3626 203.478 86.9706C203.842 87.5835 204.021 88.3434 204.021 89.2552C204.021 90.1417 203.803 90.9775 203.362 91.7627C202.921 92.5479 202.287 93.1557 201.461 93.5864C200.63 94.0169 199.693 94.2297 198.648 94.2297C196.918 94.2297 195.595 93.8043 194.687 92.9582C193.78 92.1072 193.202 90.8508 192.949 89.1842ZM205.794 89.1842L208.029 88.7588C208.153 89.8174 208.504 90.6281 209.078 91.1953C209.652 91.7577 210.457 92.0413 211.484 92.0413C212.525 92.0413 213.295 91.7932 213.801 91.2916C214.302 90.7952 214.554 90.2076 214.554 89.5338C214.554 88.9309 214.327 88.4548 213.878 88.1102C213.561 87.8722 212.79 87.5733 211.566 87.2035C209.913 86.7122 208.77 86.2866 208.128 85.9269C207.49 85.5623 207.006 85.0658 206.676 84.4276C206.347 83.7943 206.18 83.0902 206.18 82.3202C206.18 81.6162 206.316 80.9676 206.586 80.3698C206.86 79.772 207.228 79.2756 207.695 78.8805C208.046 78.5767 208.526 78.3183 209.13 78.1054C209.738 77.8927 210.384 77.7863 211.078 77.7863C212.122 77.7863 213.039 77.9636 213.826 78.3233C214.619 78.678 215.201 79.1642 215.578 79.772C215.95 80.3852 216.211 81.2006 216.353 82.2239L214.143 82.5888C214.045 81.7681 213.754 81.1247 213.274 80.6636C212.795 80.2028 212.118 79.9747 211.24 79.9747C210.208 79.9747 209.468 80.1774 209.027 80.5827C208.586 80.9879 208.363 81.464 208.363 82.0062C208.363 82.3507 208.453 82.6647 208.637 82.9433C208.821 83.2269 209.108 83.4649 209.502 83.6524C209.729 83.7538 210.388 83.9817 211.493 84.3363C213.086 84.8378 214.199 85.2532 214.833 85.5723C215.466 85.8915 215.963 86.3626 216.323 86.9706C216.687 87.5835 216.866 88.3434 216.866 89.2552C216.866 90.1417 216.648 90.9775 216.207 91.7627C215.766 92.5479 215.132 93.1557 214.306 93.5864C213.475 94.0169 212.538 94.2297 211.493 94.2297C209.763 94.2297 208.44 93.8043 207.532 92.9582C206.625 92.1072 206.047 90.8508 205.794 89.1842ZM218.69 86.0079C218.69 83.0953 219.376 80.9373 220.75 79.5339C221.893 78.3689 223.293 77.7863 224.942 77.7863C226.77 77.7863 228.269 78.4957 229.433 79.9139C230.593 81.3273 231.176 83.2877 231.176 85.7852C231.176 87.8113 230.919 89.402 230.405 90.5622C229.891 91.7221 229.142 92.6239 228.157 93.2673C227.177 93.9105 226.102 94.2297 224.942 94.2297C223.075 94.2297 221.568 93.5257 220.416 92.1123C219.264 90.6989 218.69 88.6626 218.69 86.0079ZM221.003 86.0134C221.003 88.0295 221.375 89.5391 222.12 90.5371C222.869 91.5402 223.807 92.0416 224.942 92.0416C226.063 92.0416 226.997 91.5402 227.746 90.532C228.491 89.5239 228.864 87.9891 228.864 85.9272C228.864 83.982 228.487 82.508 227.738 81.51C226.988 80.5069 226.055 80.0055 224.942 80.0055C223.807 80.0055 222.869 80.502 222.12 81.4998C221.375 82.4978 221.003 84.0022 221.003 86.0134ZM233.8 93.8957V78.1211H235.83V80.5374C236.348 79.4178 236.828 78.6783 237.269 78.3236C237.71 77.9639 238.194 77.7866 238.72 77.7866C239.482 77.7866 240.257 78.0703 241.045 78.6327L240.24 81.0997C239.692 80.735 239.144 80.5525 238.596 80.5525C238.104 80.5525 237.662 80.7298 237.273 81.0795C236.883 81.429 236.605 81.9151 236.438 82.5383C236.185 83.4855 236.061 84.5241 236.061 85.6537V93.8957H233.8ZM242.381 75.1727V72.1333H244.642V75.1727H242.381ZM242.381 93.8957V78.1211H244.642V93.8957H242.381ZM256.797 91.9201C255.958 92.766 255.149 93.3587 254.374 93.7081C253.599 94.0578 252.768 94.23 251.878 94.23C250.413 94.23 249.287 93.8095 248.499 92.9636C247.711 92.1226 247.318 91.0437 247.318 89.7317C247.318 88.9618 247.468 88.2575 247.763 87.6192C248.063 86.9809 248.452 86.4745 248.932 86.0894C249.416 85.7045 249.955 85.4105 250.559 85.213C251.004 85.0762 251.676 84.9446 252.571 84.813C254.395 84.5595 255.744 84.2506 256.604 83.896C256.613 83.5312 256.617 83.2982 256.617 83.202C256.617 82.1178 256.403 81.353 255.975 80.9071C255.397 80.3044 254.537 80.0055 253.398 80.0055C252.331 80.0055 251.544 80.2282 251.038 80.669C250.529 81.1098 250.156 81.89 249.912 83.0145L247.703 82.6497C247.904 81.5303 248.234 80.6236 248.696 79.9345C249.159 79.2456 249.827 78.7186 250.7 78.3439C251.569 77.9741 252.584 77.7866 253.732 77.7866C254.87 77.7866 255.799 77.9438 256.515 78.2627C257.225 78.5819 257.752 78.977 258.086 79.4583C258.42 79.9396 258.655 80.5474 258.792 81.282C258.865 81.7379 258.904 82.5586 258.904 83.739V87.2849C258.904 89.762 258.951 91.3273 259.045 91.991C259.135 92.6546 259.323 93.2879 259.597 93.8957H257.234C257.007 93.3333 256.861 92.6747 256.797 91.9201ZM256.617 85.9931C255.795 86.3882 254.562 86.7226 252.918 86.9962C251.985 87.1532 251.325 87.3306 250.94 87.5281C250.555 87.7256 250.259 88.0144 250.049 88.3891C249.84 88.7691 249.732 89.1896 249.732 89.6558C249.732 90.3598 249.959 90.9525 250.418 91.4237C250.876 91.8948 251.544 92.1329 252.421 92.1329C253.291 92.1329 254.066 91.9099 254.746 91.4591C255.423 91.0132 255.924 90.4003 256.241 89.6252C256.485 89.0224 256.604 88.136 256.604 86.9657L256.617 85.9931ZM278.608 88.7894L280.946 89.1542C280.582 90.76 279.901 92.0112 278.908 92.8977C277.914 93.7844 276.647 94.23 275.101 94.23C273.158 94.23 271.616 93.5209 270.477 92.1024C269.338 90.6891 268.769 88.6983 268.769 86.1401C268.769 83.4958 269.343 81.439 270.494 79.9801C271.646 78.5162 273.14 77.7866 274.977 77.7866C276.754 77.7866 278.206 78.5009 279.332 79.9345C280.458 81.3681 281.023 83.3842 281.023 85.9831C281.023 86.1401 281.019 86.3782 281.01 86.6922H271.081C271.166 88.4196 271.578 89.7469 272.323 90.6638C273.063 91.5807 273.992 92.0416 275.101 92.0416C275.928 92.0416 276.634 91.7832 277.216 91.2665C277.803 90.7498 278.265 89.9241 278.608 88.7894ZM271.209 84.5038H278.634C278.535 83.1766 278.248 82.1837 277.782 81.52C277.067 80.4917 276.133 79.975 274.99 79.975C273.954 79.975 273.085 80.3855 272.378 81.206C271.676 82.0267 271.286 83.1259 271.209 84.5038ZM283.802 93.8957V78.1211H285.831V80.3499C286.247 79.5799 286.803 78.9567 287.497 78.4908C288.19 78.0197 288.978 77.7866 289.865 77.7866C290.849 77.7866 291.659 78.0298 292.288 78.5111C292.917 78.9973 293.363 79.6712 293.62 80.5425C294.681 78.7035 296.056 77.7866 297.751 77.7866C299.079 77.7866 300.102 78.2173 300.813 79.0835C301.528 79.9496 301.887 81.282 301.887 83.0804V93.8957H299.627V83.9669C299.627 82.9031 299.55 82.133 299.404 81.6619C299.258 81.1909 298.993 80.816 298.603 80.5271C298.218 80.2385 297.764 80.0966 297.246 80.0966C296.304 80.0966 295.525 80.4664 294.904 81.2009C294.283 81.9405 293.975 83.121 293.975 84.7419V93.8957H291.714V83.6579C291.714 82.4724 291.53 81.5809 291.162 80.9882C290.794 80.3955 290.19 80.0966 289.355 80.0966C288.721 80.0966 288.135 80.2942 287.595 80.6893C287.056 81.0844 286.666 81.6619 286.422 82.427C286.182 83.1866 286.062 84.286 286.062 85.7196V93.8957H283.802ZM316.835 93.8957V74.6865H310.772V72.1333H325.338V74.6865H319.275V93.8957H316.835ZM326.588 93.8957V78.1211H328.618V80.5374C329.136 79.4178 329.615 78.6783 330.056 78.3236C330.498 77.9639 330.981 77.7866 331.508 77.7866C332.27 77.7866 333.045 78.0703 333.833 78.6327L333.028 81.0997C332.48 80.735 331.932 80.5525 331.384 80.5525C330.891 80.5525 330.45 80.7298 330.061 81.0795C329.671 81.429 329.393 81.9151 329.226 82.5383C328.973 83.4855 328.849 84.5241 328.849 85.6537V93.8957H326.588ZM343.878 91.9201C343.038 92.766 342.229 93.3587 341.454 93.7081C340.679 94.0578 339.848 94.23 338.958 94.23C337.494 94.23 336.368 93.8095 335.58 92.9636C334.792 92.1226 334.398 91.0437 334.398 89.7317C334.398 88.9618 334.548 88.2575 334.843 87.6192C335.143 86.9809 335.533 86.4745 336.012 86.0894C336.496 85.7045 337.035 85.4105 337.639 85.213C338.084 85.0762 338.757 84.9446 339.652 84.813C341.476 84.5595 342.824 84.2506 343.685 83.896C343.693 83.5312 343.698 83.2982 343.698 83.202C343.698 82.1178 343.484 81.353 343.055 80.9071C342.477 80.3044 341.617 80.0055 340.478 80.0055C339.412 80.0055 338.624 80.2282 338.119 80.669C337.609 81.1098 337.237 81.89 336.993 83.0145L334.783 82.6497C334.985 81.5303 335.314 80.6236 335.777 79.9345C336.239 79.2456 336.907 78.7186 337.78 78.3439C338.65 77.9741 339.664 77.7866 340.812 77.7866C341.951 77.7866 342.88 77.9438 343.595 78.2627C344.306 78.5819 344.832 78.977 345.166 79.4583C345.5 79.9396 345.736 80.5474 345.873 81.282C345.946 81.7379 345.984 82.5586 345.984 83.739V87.2849C345.984 89.762 346.031 91.3273 346.125 91.991C346.215 92.6546 346.404 93.2879 346.678 93.8957H344.314C344.087 93.3333 343.942 92.6747 343.878 91.9201ZM343.698 85.9931C342.876 86.3882 341.642 86.7226 339.998 86.9962C339.065 87.1532 338.406 87.3306 338.02 87.5281C337.635 87.7256 337.34 88.0144 337.13 88.3891C336.92 88.7691 336.813 89.1896 336.813 89.6558C336.813 90.3598 337.04 90.9525 337.498 91.4237C337.956 91.8948 338.624 92.1329 339.502 92.1329C340.371 92.1329 341.146 91.9099 341.827 91.4591C342.503 91.0132 343.004 90.4003 343.321 89.6252C343.565 89.0224 343.685 88.136 343.685 86.9657L343.698 85.9931ZM340.563 73.6531L339.163 76.1759H336.594L339.279 72.0117H341.668L344.533 76.1759H341.964L340.563 73.6531ZM349.457 93.8957V78.1211H351.486V80.3601C352.462 78.6427 353.875 77.7866 355.721 77.7866C356.526 77.7866 357.262 77.959 357.934 78.2984C358.607 78.6378 359.112 79.0886 359.446 79.6407C359.78 80.1929 360.015 80.8515 360.148 81.6114C360.229 82.1078 360.272 82.974 360.272 84.21V93.8957H358.011V84.3114C358.011 83.2222 357.926 82.4066 357.75 81.8697C357.575 81.3327 357.262 80.9022 356.817 80.5779C356.371 80.2587 355.845 80.0966 355.245 80.0966C354.286 80.0966 353.46 80.4563 352.762 81.1806C352.064 81.9 351.717 83.2729 351.717 85.2891V93.8957H349.457ZM362.845 89.1845L365.08 88.7591C365.205 89.8177 365.556 90.6284 366.129 91.1956C366.703 91.758 367.508 92.0416 368.536 92.0416C369.576 92.0416 370.347 91.7935 370.852 91.2919C371.353 90.7955 371.606 90.2079 371.606 89.5341C371.606 88.9312 371.379 88.4551 370.929 88.1105C370.612 87.8725 369.842 87.5736 368.617 87.2039C366.964 86.7125 365.821 86.2869 365.179 85.9272C364.541 85.5626 364.057 85.0661 363.727 84.4279C363.398 83.7946 363.231 83.0905 363.231 82.3205C363.231 81.6165 363.368 80.9679 363.637 80.3701C363.912 79.7724 364.28 79.2759 364.746 78.8808C365.097 78.577 365.577 78.3186 366.181 78.1057C366.789 77.893 367.435 77.7866 368.129 77.7866C369.174 77.7866 370.09 77.9639 370.878 78.3236C371.67 78.6783 372.252 79.1645 372.629 79.7724C373.001 80.3855 373.263 81.2009 373.404 82.2243L371.195 82.5891C371.096 81.7684 370.805 81.125 370.325 80.6639C369.846 80.2031 369.169 79.975 368.292 79.975C367.26 79.975 366.519 80.1777 366.078 80.583C365.637 80.9882 365.414 81.4644 365.414 82.0065C365.414 82.351 365.504 82.665 365.688 82.9436C365.872 83.2272 366.159 83.4652 366.553 83.6528C366.78 83.7541 367.44 83.982 368.544 84.3366C370.137 84.8381 371.25 85.2535 371.884 85.5726C372.518 85.8918 373.014 86.3629 373.374 86.9709C373.738 87.5838 373.918 88.3437 373.918 89.2555C373.918 90.142 373.699 90.9778 373.258 91.763C372.817 92.5482 372.184 93.156 371.357 93.5867C370.527 94.0173 369.589 94.23 368.544 94.23C366.814 94.23 365.491 93.8046 364.584 92.9585C363.676 92.1075 363.098 90.8511 362.845 89.1845ZM376.589 75.1727V72.1333H378.85V75.1727H376.589ZM376.589 93.8957V78.1211H378.85V93.8957H376.589ZM387.204 91.5097L387.512 93.8703C386.878 94.0273 386.309 94.1084 385.812 94.1084C384.994 94.1084 384.361 93.9565 383.907 93.6476C383.457 93.3385 383.141 92.9382 382.956 92.4366C382.772 91.9353 382.682 90.8816 382.682 89.2758V80.1877H381.013V78.1211H382.682V74.2204L384.943 72.6146V78.1211H387.204V80.1877H384.943V89.4277C384.943 90.1927 384.982 90.6841 385.063 90.9019C385.14 91.1197 385.268 91.2919 385.448 91.4237C385.628 91.5502 385.885 91.6161 386.219 91.6161C386.467 91.6161 386.797 91.5807 387.204 91.5097ZM388.587 86.0083C388.587 83.0956 389.272 80.9376 390.646 79.5343C391.789 78.3692 393.189 77.7866 394.838 77.7866C396.666 77.7866 398.165 78.496 399.329 79.9142C400.49 81.3276 401.072 83.288 401.072 85.7855C401.072 87.8116 400.815 89.4023 400.301 90.5625C399.788 91.7224 399.038 92.6242 398.053 93.2676C397.073 93.9109 395.998 94.23 394.838 94.23C392.971 94.23 391.464 93.526 390.312 92.1126C389.16 90.6992 388.587 88.6629 388.587 86.0083ZM390.899 86.0137C390.899 88.0298 391.271 89.5394 392.016 90.5374C392.766 91.5405 393.703 92.0419 394.838 92.0419C395.96 92.0419 396.893 91.5405 397.642 90.5323C398.387 89.5242 398.76 87.9894 398.76 85.9275C398.76 83.9823 398.383 82.5083 397.634 81.5103C396.885 80.5072 395.951 80.0058 394.838 80.0058C393.703 80.0058 392.766 80.5023 392.016 81.5001C391.271 82.4981 390.899 84.0026 390.899 86.0137Z" fill="#004229" stroke="#004229" stroke-width="0.16764"/>
<path fill-rule="evenodd" clip-rule="evenodd" d="M10.1261 92.8645C-20.0915 52.1779 41.6906 4.98969 71.513 0.0743501C79.5901 -1.56006 82.3862 24.2763 80.626 25.9802C75.0324 27.5826 69.7668 29.2664 64.826 31.0311C63.3841 20.5713 60.7827 15.3179 57.0199 15.2705C36.9309 20.4851 12.2319 40.3221 14.9417 64.4973C9.81218 73.0208 8.19027 82.4641 10.1261 92.8645Z" fill="#206347"/>
<path fill-rule="evenodd" clip-rule="evenodd" d="M20.0621 79.3633C17.5166 63.3534 32.7051 49.8757 65.6276 38.9313C64.5034 23.2151 61.6346 15.3287 57.0206 15.271C32.9338 21.5223 2.21047 48.7946 20.0621 79.3633Z" fill="#059351"/>
<path fill-rule="evenodd" clip-rule="evenodd" d="M64.8265 31.0311C39.6718 40.0168 22.9888 51.1252 14.9423 64.4973C12.2324 40.3221 36.9315 20.485 57.0205 15.2705C60.7832 15.3179 63.3847 20.5713 64.8265 31.0311Z" fill="#194C36" stroke="#194C36" stroke-width="0.16764"/>
<path fill-rule="evenodd" clip-rule="evenodd" d="M66.3232 93.4403C80.2173 93.4623 94.3509 84.2776 108.725 65.886C112.687 65.4021 114.544 74.2868 114.801 89.2469C109.22 97.3331 75.9214 129.303 69.8499 111.508C68.641 107.964 66.3357 96.3477 66.3232 93.4403Z" fill="#059351"/>
<path fill-rule="evenodd" clip-rule="evenodd" d="M0 80.8613C18.497 111.011 54.4021 116.252 95.8148 91.6433C99.8327 101.26 102.005 110.014 100.395 114.513C96.3238 125.889 5.14926 160.981 0 80.8613Z" fill="#206347"/>
<path fill-rule="evenodd" clip-rule="evenodd" d="M61.007 120.096C32.3546 125.382 16.2797 111.256 12.7832 77.7168C20.974 93.6979 35.5301 99.588 56.4505 95.3873C61.5442 111.947 63.0631 120.183 61.007 120.096Z" fill="#059351"/>
<path fill-rule="evenodd" clip-rule="evenodd" d="M17.7705 99.248C29.3381 106.534 43.5818 108.921 59.5382 106.014C62.0719 115.467 62.5619 120.162 61.0072 120.096C39.5244 124.059 25.1114 117.11 17.7705 99.248Z" fill="#194C36" stroke="#194C36" stroke-width="0.16764"/>
<path fill-rule="evenodd" clip-rule="evenodd" d="M67.998 104.019C76.8739 101.462 86.1951 97.3591 95.8146 91.6436C97.7001 96.1561 99.1787 100.479 100.052 104.261C88.3444 114.155 73.6796 122.734 69.8498 111.508C69.3422 110.02 68.6411 107.11 67.998 104.019Z" fill="#194C36"/>
</svg>
