<svg width="500" height="114" viewBox="0 0 500 114" fill="none" xmlns="http://www.w3.org/2000/svg">
<path fill-rule="evenodd" clip-rule="evenodd" d="M124.747 112.867C123.002 112.865 121.329 112.159 120.095 110.904C118.862 109.648 118.168 107.947 118.167 106.172V38.7776C118.167 37.0028 118.86 35.3006 120.094 34.0453C121.328 32.7899 123.001 32.0841 124.747 32.083H144.045C144.499 32.083 177.757 31.9686 177.757 72.475C177.757 112.981 144.499 112.867 144.045 112.867H124.747ZM131.443 99.3635H144.041C147.796 99.167 151.435 97.9734 154.596 95.9018C161.18 91.6308 164.468 83.6694 164.468 72.475C164.468 61.0349 161.063 53.0862 154.142 48.8194C151.084 46.9219 147.616 45.8121 144.041 45.5865H131.443V99.3635Z" fill="white"/>
<path fill-rule="evenodd" clip-rule="evenodd" d="M245.519 103.636C245.908 104.656 246.049 105.757 245.93 106.844C245.81 107.932 245.433 108.974 244.831 109.881C244.229 110.788 243.42 111.534 242.473 112.054C241.526 112.574 240.469 112.853 239.393 112.868C238.068 112.864 236.774 112.455 235.681 111.693C234.588 110.931 233.745 109.853 233.263 108.597L228.263 96.0174H197.505L192.505 108.597C191.951 110.054 190.913 111.268 189.572 112.029C188.23 112.789 186.668 113.048 185.159 112.76C183.649 112.472 182.286 111.655 181.306 110.452C180.326 109.249 179.792 107.736 179.795 106.174C179.768 105.304 179.922 104.437 180.245 103.631L206.694 36.3509C207.19 35.0957 208.044 34.0202 209.147 33.2628C210.249 32.5053 211.549 32.1006 212.88 32.1006C214.21 32.1006 215.51 32.5053 216.613 33.2628C217.715 34.0202 218.57 35.0957 219.066 36.3509L245.511 103.631L245.519 103.636ZM222.933 82.6324L212.932 56.8965L202.831 82.6324H222.933Z" fill="white"/>
<path fill-rule="evenodd" clip-rule="evenodd" d="M305.333 102.596C305.996 103.668 306.35 104.907 306.354 106.172C306.343 107.313 306.046 108.431 305.49 109.421C304.934 110.411 304.138 111.24 303.178 111.829C302.164 112.501 300.98 112.861 299.769 112.867C298.644 112.869 297.536 112.585 296.545 112.042C295.555 111.498 294.714 110.711 294.098 109.753L279.455 85.9785H268.329V106.177C268.307 107.965 267.59 109.672 266.336 110.926C265.082 112.18 263.391 112.879 261.632 112.871C259.886 112.87 258.212 112.164 256.978 110.909C255.743 109.654 255.049 107.952 255.048 106.177V38.7776C255.049 37.0024 255.743 35.3003 256.978 34.045C258.212 32.7898 259.886 32.0841 261.632 32.083H279.676C284.165 32.2234 288.575 33.3235 292.619 35.3116C296.936 37.4548 300.54 40.8388 302.985 45.0444C305.429 49.2499 306.606 54.0922 306.37 58.9714C306.238 63.5289 305.156 68.006 303.195 72.1064C301.01 76.6043 297.519 80.311 293.194 82.7245L305.337 102.575L305.333 102.596ZM268.329 72.475H279.68C281.972 72.7331 284.288 72.2889 286.331 71.1995C288.373 70.1101 290.049 68.4253 291.144 66.3609C292.297 64.0672 292.955 61.5492 293.073 58.9757C293.314 56.6051 292.833 54.2165 291.697 52.1322C290.561 50.0478 288.823 48.368 286.718 47.3195C284.515 46.2536 282.118 45.6635 279.68 45.5865H268.329V72.475Z" fill="white"/>
<path fill-rule="evenodd" clip-rule="evenodd" d="M409.078 38.8937C409.093 39.7633 408.939 40.6275 408.624 41.436L380.929 108.716C380.438 109.945 379.598 110.997 378.516 111.738C377.434 112.479 376.16 112.875 374.855 112.875C373.551 112.875 372.276 112.479 371.194 111.738C370.112 110.997 369.272 109.945 368.782 108.716L360.031 87.3659L351.18 108.716C350.688 109.944 349.848 110.995 348.767 111.734C347.685 112.474 346.412 112.869 345.108 112.869C343.805 112.869 342.531 112.474 341.449 111.734C340.368 110.995 339.528 109.944 339.037 108.716L311.342 41.436C311.027 40.6274 310.873 39.7633 310.888 38.8937C310.89 37.0886 311.596 35.358 312.851 34.0816C314.107 32.8051 315.809 32.087 317.584 32.0848C318.879 32.0912 320.143 32.4901 321.214 33.2305C322.286 33.9709 323.115 35.0191 323.597 36.2413L345.162 88.6327L352.763 69.8201L341.187 41.4317C340.827 40.5945 340.634 39.6929 340.62 38.7793C340.623 37.8915 340.8 37.013 341.139 36.1948C341.478 35.3766 341.973 34.6348 342.596 34.0123C343.218 33.3898 343.956 32.899 344.766 32.5682C345.577 32.2373 346.444 32.073 347.317 32.0848C348.629 32.0099 349.93 32.3763 351.017 33.1275C352.105 33.8787 352.919 34.9729 353.334 36.2413L360.026 52.3973L366.611 36.2413C367.092 35.0188 367.922 33.9702 368.993 33.2297C370.064 32.4892 371.328 32.0906 372.624 32.0848C374.399 32.087 376.101 32.8051 377.356 34.0816C378.612 35.358 379.318 37.0886 379.32 38.8937C379.335 39.7632 379.18 40.6271 378.866 41.436L367.173 69.8244L374.891 88.637L396.343 36.2455C396.825 35.0227 397.656 33.974 398.728 33.2335C399.8 32.4931 401.064 32.0946 402.36 32.089C403.259 32.1022 404.146 32.2981 404.969 32.6652C406.194 33.1574 407.243 34.0167 407.977 35.1291C408.711 36.2414 409.095 37.5544 409.078 38.8937V38.8937Z" fill="white"/>
<path fill-rule="evenodd" clip-rule="evenodd" d="M418.161 106.174V38.779C418.139 37.886 418.293 36.9974 418.614 36.1658C418.935 35.3342 419.416 34.5763 420.029 33.9367C420.643 33.2972 421.376 32.7889 422.185 32.4418C422.995 32.0948 423.865 31.916 424.743 31.916C425.622 31.916 426.492 32.0948 427.301 32.4418C428.111 32.7889 428.844 33.2972 429.457 33.9367C430.07 34.5763 430.552 35.3342 430.873 36.1658C431.193 36.9974 431.347 37.886 431.325 38.779V106.174C431.347 107.067 431.193 107.955 430.873 108.787C430.552 109.619 430.07 110.377 429.457 111.016C428.844 111.656 428.111 112.164 427.301 112.511C426.492 112.858 425.622 113.037 424.743 113.037C423.865 113.037 422.995 112.858 422.185 112.511C421.376 112.164 420.643 111.656 420.029 111.016C419.416 110.377 418.935 109.619 418.614 108.787C418.293 107.955 418.139 107.067 418.161 106.174V106.174Z" fill="white"/>
<path fill-rule="evenodd" clip-rule="evenodd" d="M487.965 109.982L453.687 60.1245V106.173C453.665 107.961 452.949 109.669 451.694 110.922C450.44 112.176 448.749 112.876 446.99 112.868C445.245 112.865 443.572 112.159 442.338 110.904C441.105 109.649 440.411 107.948 440.41 106.173V38.7782C440.413 37.8903 440.59 37.0118 440.929 36.1936C441.268 35.3754 441.763 34.6336 442.386 34.0111C443.008 33.3886 443.746 32.8978 444.557 32.567C445.367 32.2361 446.234 32.0718 447.107 32.0836C448.159 32.0914 449.193 32.3579 450.122 32.8604C451.051 33.3628 451.846 34.0863 452.441 34.969L486.719 84.8267V38.7782C486.719 36.9875 487.419 35.2702 488.664 34.004C489.91 32.7378 491.599 32.0264 493.36 32.0264C495.121 32.0264 496.81 32.7378 498.055 34.004C499.3 35.2702 500 36.9875 500 38.7782V106.173C499.978 107.942 499.278 109.632 498.048 110.882C496.818 112.133 495.155 112.846 493.416 112.868C492.345 112.874 491.289 112.615 490.339 112.112C489.389 111.609 488.574 110.878 487.965 109.982V109.982Z" fill="white"/>
<path fill-rule="evenodd" clip-rule="evenodd" d="M78.6048 112.867H6.84274C5.00993 112.848 3.25956 112.09 1.97646 110.759C0.693357 109.428 -0.0174471 107.633 0.000325436 105.77V43.2094C-0.0174471 41.3458 0.693357 39.5514 1.97646 38.2205C3.25956 36.8896 5.00993 36.1313 6.84274 36.1123H12.5267C14.0135 36.1235 15.4565 36.6253 16.6387 37.5423C17.8208 38.4592 18.6781 39.7417 19.0816 41.1968L20.0025 43.6755C20.5264 45.056 21.4163 46.262 22.5734 47.1595C23.7305 48.057 25.1095 48.611 26.5574 48.76H57.7817C59.2687 48.7495 60.712 48.2479 61.8942 47.3308C63.0765 46.4138 63.9337 45.1309 64.3366 43.6755L65.5867 41.1968C65.9902 39.7417 66.8475 38.4592 68.0296 37.5423C69.2118 36.6253 70.6548 36.1235 72.1416 36.1123H78.6006C80.4335 36.1313 82.1838 36.8896 83.4669 38.2205C84.7501 39.5514 85.4608 41.3458 85.4431 43.2094V105.774C85.4597 107.636 84.749 109.429 83.4669 110.759C82.1848 112.089 80.4361 112.847 78.6048 112.867Z" fill="white"/>
<path fill-rule="evenodd" clip-rule="evenodd" d="M31.1333 6.17927e-08H54.815C56.0947 -1.59482e-05 57.3579 0.293455 58.5106 0.858522C59.6633 1.42359 60.6758 2.24572 61.4727 3.26373C62.2697 4.28173 62.8306 5.46937 63.1137 6.73829C63.3967 8.0072 63.3947 9.32469 63.1076 10.5927L60.0657 24.0285C59.6346 25.9363 58.5796 27.6391 57.0733 28.8582C55.5669 30.0773 53.6983 30.7408 51.7731 30.74H34.7879C32.9252 30.7393 31.1142 30.1172 29.6328 28.9691C28.1514 27.821 27.0814 26.2104 26.587 24.3844L22.9283 10.9487C22.5805 9.66423 22.5291 8.31549 22.7782 7.00756C23.0272 5.69964 23.57 4.4678 24.3641 3.40816C25.1582 2.34852 26.1822 1.4897 27.3564 0.898542C28.5306 0.307381 29.8231 -0.000159159 31.1333 6.17927e-08V6.17927e-08Z" fill="white"/>
</svg>
