<svg width="29" height="22" viewBox="0 0 29 22" fill="none" xmlns="http://www.w3.org/2000/svg">
<g clip-path="url(#clip0_1_9970)">
<path d="M24.2849 2.25872C22.4645 1.42527 20.5427 0.833999 18.5686 0.5C18.2984 0.982913 18.054 1.47977 17.8363 1.98848C15.7335 1.67161 13.5951 1.67161 11.4923 1.98848C11.2745 1.47982 11.0301 0.982972 10.76 0.5C8.78466 0.836819 6.86157 1.4295 5.03929 2.26308C1.42161 7.6155 0.440913 12.835 0.931261 17.9804C3.04987 19.5457 5.42119 20.7362 7.94216 21.5C8.5098 20.7365 9.0121 19.9266 9.44372 19.0788C8.62393 18.7726 7.83268 18.3948 7.07914 17.9499C7.27746 17.806 7.47142 17.6578 7.65885 17.514C9.85146 18.5451 12.2446 19.0798 14.6676 19.0798C17.0905 19.0798 19.4837 18.5451 21.6763 17.514C21.8659 17.6687 22.0598 17.8169 22.256 17.9499C21.501 18.3955 20.7083 18.774 19.8871 19.0809C20.3181 19.9284 20.8205 20.7376 21.3886 21.5C23.9117 20.7392 26.2849 19.5493 28.4039 17.9826C28.9792 12.0156 27.421 6.84402 24.2849 2.25872ZM10.0648 14.816C8.69839 14.816 7.56949 13.576 7.56949 12.0504C7.56949 10.5249 8.65916 9.27397 10.0605 9.27397C11.4618 9.27397 12.5819 10.5249 12.558 12.0504C12.534 13.576 11.4574 14.816 10.0648 14.816ZM19.2703 14.816C17.9017 14.816 16.7772 13.576 16.7772 12.0504C16.7772 10.5249 17.8668 9.27397 19.2703 9.27397C20.6738 9.27397 21.7852 10.5249 21.7613 12.0504C21.7373 13.576 20.6629 14.816 19.2703 14.816Z" fill="#181818"/>
</g>
<defs>
<clipPath id="clip0_1_9970">
<rect width="27.708" height="21" fill="white" transform="translate(0.813599 0.5)"/>
</clipPath>
</defs>
</svg>
