<svg width="120" height="164" viewBox="0 0 120 164" fill="none" xmlns="http://www.w3.org/2000/svg">
<path d="M21.0182 158V146.8H25.5782C26.7729 146.8 27.8182 147.04 28.7142 147.52C29.6209 147.989 30.3249 148.645 30.8262 149.488C31.3275 150.331 31.5782 151.301 31.5782 152.4C31.5782 153.499 31.3275 154.469 30.8262 155.312C30.3249 156.155 29.6209 156.816 28.7142 157.296C27.8182 157.765 26.7729 158 25.5782 158H21.0182ZM22.2022 156.976H25.5142C26.5062 156.976 27.3649 156.784 28.0902 156.4C28.8262 156.005 29.3969 155.467 29.8022 154.784C30.2075 154.091 30.4102 153.296 30.4102 152.4C30.4102 151.493 30.2075 150.699 29.8022 150.016C29.3969 149.333 28.8262 148.8 28.0902 148.416C27.3649 148.021 26.5062 147.824 25.5142 147.824H22.2022V156.976ZM41.299 158.096C40.4563 158.096 39.6723 157.957 38.947 157.68C38.2323 157.392 37.6083 156.992 37.075 156.48C36.5523 155.957 36.1417 155.355 35.843 154.672C35.555 153.979 35.411 153.221 35.411 152.4C35.411 151.579 35.555 150.827 35.843 150.144C36.1417 149.451 36.5523 148.848 37.075 148.336C37.6083 147.813 38.2323 147.413 38.947 147.136C39.6617 146.848 40.4457 146.704 41.299 146.704C42.1417 146.704 42.9203 146.848 43.635 147.136C44.3497 147.413 44.9683 147.808 45.491 148.32C46.0243 148.832 46.435 149.435 46.723 150.128C47.0217 150.821 47.171 151.579 47.171 152.4C47.171 153.221 47.0217 153.979 46.723 154.672C46.435 155.365 46.0243 155.968 45.491 156.48C44.9683 156.992 44.3497 157.392 43.635 157.68C42.9203 157.957 42.1417 158.096 41.299 158.096ZM41.299 157.04C41.971 157.04 42.5897 156.928 43.155 156.704C43.731 156.469 44.227 156.144 44.643 155.728C45.0697 155.301 45.4003 154.811 45.635 154.256C45.8697 153.691 45.987 153.072 45.987 152.4C45.987 151.728 45.8697 151.115 45.635 150.56C45.4003 149.995 45.0697 149.504 44.643 149.088C44.227 148.661 43.731 148.336 43.155 148.112C42.5897 147.877 41.971 147.76 41.299 147.76C40.627 147.76 40.003 147.877 39.427 148.112C38.851 148.336 38.3497 148.661 37.923 149.088C37.507 149.504 37.1763 149.995 36.931 150.56C36.6963 151.115 36.579 151.728 36.579 152.4C36.579 153.061 36.6963 153.675 36.931 154.24C37.1763 154.805 37.507 155.301 37.923 155.728C38.3497 156.144 38.851 156.469 39.427 156.704C40.003 156.928 40.627 157.04 41.299 157.04ZM56.855 158.096C56.0123 158.096 55.2336 157.957 54.519 157.68C53.8043 157.392 53.1856 156.992 52.663 156.48C52.1403 155.968 51.7296 155.365 51.431 154.672C51.143 153.979 50.999 153.221 50.999 152.4C50.999 151.579 51.143 150.821 51.431 150.128C51.7296 149.435 52.1403 148.832 52.663 148.32C53.1963 147.808 53.8203 147.413 54.535 147.136C55.2496 146.848 56.0283 146.704 56.871 146.704C57.6816 146.704 58.4443 146.843 59.159 147.12C59.8736 147.387 60.4763 147.792 60.967 148.336L60.215 149.088C59.7563 148.619 59.2496 148.283 58.695 148.08C58.1403 147.867 57.543 147.76 56.903 147.76C56.231 147.76 55.607 147.877 55.031 148.112C54.455 148.336 53.9536 148.661 53.527 149.088C53.1003 149.504 52.7643 149.995 52.519 150.56C52.2843 151.115 52.167 151.728 52.167 152.4C52.167 153.072 52.2843 153.691 52.519 154.256C52.7643 154.811 53.1003 155.301 53.527 155.728C53.9536 156.144 54.455 156.469 55.031 156.704C55.607 156.928 56.231 157.04 56.903 157.04C57.543 157.04 58.1403 156.933 58.695 156.72C59.2496 156.507 59.7563 156.165 60.215 155.696L60.967 156.448C60.4763 156.992 59.8736 157.403 59.159 157.68C58.4443 157.957 57.6763 158.096 56.855 158.096ZM66.681 155.216L66.633 153.776L73.417 146.8H74.777L69.833 151.984L69.161 152.704L66.681 155.216ZM65.657 158V146.8H66.841V158H65.657ZM73.705 158L68.873 152.432L69.673 151.568L75.113 158H73.705ZM80.2541 151.808H86.1741V152.816H80.2541V151.808ZM80.3821 156.976H87.1181V158H79.1981V146.8H86.8781V147.824H80.3821V156.976ZM92.0673 158V146.8H96.2593C97.2087 146.8 98.0247 146.955 98.7073 147.264C99.39 147.563 99.9127 148 100.275 148.576C100.649 149.141 100.835 149.829 100.835 150.64C100.835 151.429 100.649 152.112 100.275 152.688C99.9127 153.253 99.39 153.691 98.7073 154C98.0247 154.299 97.2087 154.448 96.2593 154.448H92.7233L93.2513 153.904V158H92.0673ZM99.7153 158L96.8353 153.936H98.1153L101.011 158H99.7153ZM93.2513 154L92.7233 153.44H96.2273C97.3473 153.44 98.1953 153.195 98.7713 152.704C99.358 152.213 99.6513 151.525 99.6513 150.64C99.6513 149.744 99.358 149.051 98.7713 148.56C98.1953 148.069 97.3473 147.824 96.2273 147.824H92.7233L93.2513 147.264V154Z" fill="#1F2626"/>
<path d="M117.523 49.7462C114.821 47.8712 108.628 47.168 103.787 48.1055C103.224 43.418 100.634 39.3169 96.1307 35.6841L93.5413 33.8091L91.7395 36.5044C89.4881 40.0201 88.3621 44.9419 88.6996 49.6294C88.8121 51.2696 89.3751 54.1993 91.064 56.7774C89.4881 57.7149 86.2227 58.8868 81.9445 58.8868H0.54134L0.31634 59.8243C-0.472098 64.5113 -0.472098 79.1593 8.7604 90.4088C15.741 98.963 26.0995 103.299 39.7227 103.299C69.2212 103.299 91.064 89.1193 101.31 63.4566C105.363 63.5738 114.033 63.4566 118.424 54.6676C118.536 54.4332 118.761 53.9644 119.549 52.2071L120 51.2696L117.523 49.7462ZM65.6184 16.7007H53.234V28.419H65.6184V16.7007ZM65.6184 30.7627H53.234V42.481H65.6184V30.7622V30.7627ZM50.9817 30.7627H38.5973V42.481H50.9817V30.7622V30.7627ZM36.3449 30.7627H23.9601V42.481H36.3449V30.7622V30.7627ZM21.7082 44.8247H9.32337V56.543H21.7077V44.8243L21.7082 44.8247ZM36.3449 44.8247H23.9601V56.543H36.3449V44.8243V44.8247ZM50.9817 44.8247H38.5973V56.543H50.9817V44.8243V44.8247ZM65.6188 44.8247H53.2335V56.543H65.6188V44.8243V44.8247ZM80.2556 44.8247H67.8702V56.543H80.2556V44.8243V44.8247Z" fill="#2396ED"/>
</svg>
