<svg width="145" height="96" viewBox="0 0 145 96" fill="none" xmlns="http://www.w3.org/2000/svg">
<path d="M39.3019 19.5465C47.8286 15.8176 57.2806 14.5547 66.6784 15.8757C68.6191 16.1376 68.9915 13.4529 67.0508 13.191C57.16 11.7695 47.0902 13.0999 38.1269 17.0527C36.3492 17.8086 37.5241 20.3024 39.3019 19.5465Z" fill="#161616"/>
<path d="M62.7145 36.7925C64.723 22.311 53.455 9.13287 37.5468 7.35822C21.6385 5.58358 7.11419 15.8845 5.10573 30.3659C3.09727 44.8473 14.3653 58.0255 30.2735 59.8002C46.1817 61.5748 60.7061 51.2739 62.7145 36.7925Z" fill="#3F64E9" fill-opacity="0.43"/>
<path d="M6.92106 46.8823C1.423 45.5874 4.7625 39.0534 6.59497 36.4406C8.42744 33.8279 10.5907 31.3884 12.9289 29.1501C18.1228 24.2315 24.5029 20.2632 31.3455 17.346C38.6747 14.2105 46.5538 12.2269 54.6145 11.1268C58.2831 10.6273 80.3189 7.45123 76.9241 15.115C76.1953 16.7149 78.9914 17.7539 79.7202 16.154C80.829 13.6423 79.8286 10.9861 77.5312 9.27583C74.7717 7.24136 70.9157 7.2656 67.5526 7.39025C59.2542 7.6459 50.9063 8.62302 42.915 10.685C28.1549 14.4001 14.1901 21.8844 5.35097 33.3484C3.1194 36.2801 0.613697 39.7265 0.959678 43.4456C1.19906 46.4712 3.3473 48.8918 6.59244 49.6174C8.46461 50.008 8.78702 47.3177 6.92106 46.8823Z" fill="#161616"/>
<path d="M41.674 3.1856C41.674 3.1856 42.3666 3.30829 43.6085 3.49226C43.908 3.52567 44.2575 3.56465 44.6506 3.65394C45.0438 3.74324 45.4369 3.83255 45.8738 3.97216C46.3107 4.11177 46.8099 4.16746 47.3404 4.36296C47.8272 4.50814 48.3577 4.70366 48.9381 4.90472C51.1538 5.74258 53.8377 6.85984 56.4536 8.83285C57.0966 9.31353 57.7335 9.83895 58.414 10.4147C58.7824 10.683 59.0446 10.9849 59.3568 11.2923C59.669 11.5998 59.9813 11.9072 60.2935 12.2147C60.4746 12.3712 60.6057 12.5221 60.7306 12.7178C60.8618 12.8688 61.0366 13.07 61.1678 13.221C61.4738 13.5732 61.7798 13.9254 62.0858 14.2776C62.6417 15.0212 63.1352 15.8487 63.6787 16.6817C65.6467 20.0365 66.8041 24.1188 66.7076 28.47C66.7329 29.0181 66.6085 29.5495 66.584 30.092C66.5468 30.3605 66.5095 30.629 66.5222 30.903L66.4663 31.3057L66.4539 31.3952L66.4477 31.4399L66.4353 31.5294L66.4105 31.7084C66.1617 32.7712 66.0128 33.8451 65.5581 34.9303C64.8922 37.1733 63.7456 39.2264 62.3994 41.2573C62.0254 41.7608 61.6576 42.2196 61.2836 42.7232C61.0966 42.9749 60.9158 43.182 60.6789 43.4282L60.0243 44.1276L59.3696 44.827C59.1389 45.0284 58.902 45.2747 58.6713 45.4761C58.2099 45.879 57.7422 46.3267 57.2808 46.7296C55.2854 48.3245 53.0651 49.7125 50.6762 50.8546C50.0836 51.1066 49.4411 51.353 48.7986 51.5994L48.3183 51.773C48.1561 51.8457 48.0002 51.8738 47.838 51.9466L46.8836 52.2491L45.9291 52.5515C45.611 52.6524 45.2491 52.7029 44.931 52.8037C44.251 52.955 43.6209 53.1119 42.9471 53.2185C40.2457 53.6896 37.4442 53.786 34.6362 53.5637L32.5957 53.2906C32.2462 53.2516 31.9467 53.2182 31.6035 53.1345L30.5738 52.8833L29.544 52.6321L29.051 52.5316L28.5642 52.3865L26.5795 51.7107C24.033 50.6996 21.6298 49.3864 19.4697 47.7823C17.3657 46.139 15.5486 44.2551 14.0558 42.2256C13.6685 41.7281 13.3936 41.1521 13.0063 40.6546C12.8377 40.4086 12.6752 40.1178 12.5066 39.8718L12.0629 39.0498L11.6692 38.2335C11.5567 37.9483 11.388 37.7023 11.2755 37.4171C11.0504 36.8467 10.8254 36.2764 10.6503 35.7116C9.90603 33.4021 9.41756 31.0757 9.42833 28.805C9.33387 27.6585 9.48903 26.5399 9.59426 25.4157L9.62529 25.192L9.63769 25.1025L9.6439 25.0577C9.6439 25.0577 9.66252 24.9235 9.65631 24.9682L9.76207 24.5711C9.79931 24.3026 9.88648 24.0397 9.92372 23.7713C9.96095 23.5028 10.0481 23.2398 10.0853 22.9714C10.1226 22.7029 10.1598 22.4345 10.2969 22.1771C10.4712 21.6513 10.6455 21.1255 10.8198 20.5997C10.907 20.3368 10.9941 20.0739 11.0813 19.811C11.1685 19.5481 11.2993 19.3355 11.3865 19.0726C11.6045 18.5971 11.8287 18.0768 12.0468 17.6013C12.2648 17.1258 12.5827 16.6615 12.8444 16.2363C13.91 14.4013 15.2441 12.8235 16.6095 11.3855C17.314 10.6916 18.0623 10.0481 18.8043 9.44935C19.1972 9.17512 19.5901 8.90084 19.983 8.6266C20.1576 8.46432 20.3759 8.35236 20.5443 8.23484C20.7189 8.07256 20.9372 7.9606 21.1056 7.84307C21.4922 7.61357 21.8789 7.38411 22.2656 7.15462C22.6523 6.92513 23.0389 6.69561 23.4194 6.51086C24.2303 6.14694 24.9975 5.7327 25.7522 5.40796C28.8211 4.11454 31.7346 3.57625 34.1054 3.29548C34.7231 3.22807 35.2846 3.19981 35.8025 3.12127C36.3141 3.08747 36.8195 3.09841 37.3311 3.0646C37.7866 3.06998 38.2483 3.03065 38.6039 3.02489C39.0095 3.02469 39.359 3.06364 39.6585 3.09705C41.025 3.11318 41.674 3.1856 41.674 3.1856ZM41.6491 3.3646C41.6491 3.3646 40.944 3.33136 39.6898 3.23688C39.3841 3.24821 39.0409 3.16446 38.6291 3.2094C38.2235 3.20959 37.8117 3.25454 37.3562 3.24917C36.8945 3.28854 36.3891 3.2776 35.8775 3.3114C35.3596 3.38994 34.7919 3.46293 34.2241 3.53591C33.9122 3.59199 33.6065 3.60333 33.3445 3.66497C33.0325 3.72105 32.7144 3.82185 32.4024 3.87793C32.0905 3.934 31.7724 4.03485 31.4043 4.1301C31.0862 4.23093 30.7243 4.28145 30.3999 4.42702C29.7075 4.66784 29.0213 4.86391 28.3227 5.14948C27.6241 5.43505 26.9193 5.76535 26.2144 6.09566C23.3328 7.50085 20.408 9.58279 17.8893 12.3916C16.6799 13.8016 15.5018 15.3513 14.6046 17.0688C14.3928 17.4995 14.131 17.9247 13.9192 18.3555C13.7074 18.7862 13.5393 19.2673 13.3212 19.7428C13.2403 19.961 13.1032 20.2183 13.0223 20.4364C12.9413 20.6546 12.8542 20.9175 12.8231 21.1412C12.655 21.6223 12.5369 22.1089 12.3687 22.59C12.2878 22.8082 12.2505 23.0766 12.2133 23.3451C12.1761 23.6136 12.1388 23.8821 12.0517 24.145C12.0145 24.4134 11.9772 24.6819 11.8901 24.9448L11.8342 25.3475L11.7846 25.7055C11.7417 26.7458 11.549 27.7694 11.6497 28.8711C11.6751 29.4192 11.6567 29.917 11.732 30.4706C11.8073 31.0243 11.8888 31.5332 11.9641 32.0868C11.9895 32.6349 12.1708 33.155 12.296 33.7142L12.49 34.5083C12.5527 34.7879 12.6153 35.0675 12.734 35.3079C12.9153 35.828 13.0967 36.348 13.3217 36.9184C13.3843 37.198 13.553 37.444 13.6717 37.6844L14.0217 38.4505L14.3717 39.2166C14.4904 39.457 14.6591 39.703 14.8277 39.949C15.1151 40.4354 15.4462 40.9722 15.7336 41.4586C17.0891 43.3819 18.7689 45.1596 20.6794 46.7359C22.646 48.273 24.8433 49.6086 27.2339 50.6477L29.0626 51.3516L29.5432 51.5415L30.03 51.6867L30.9599 51.9267L31.8836 52.2115C32.1769 52.2896 32.5263 52.3287 32.8696 52.4124L34.8478 52.7693C37.4936 53.0645 40.2266 53.0967 42.8594 52.7543C45.5047 52.3224 48.0873 51.6109 50.47 50.5136C51.0688 50.2169 51.6177 49.9146 52.2164 49.6179C52.4909 49.4667 52.8152 49.3212 53.0397 49.1645L53.8193 48.6607L54.5989 48.157C54.7111 48.0786 54.8733 48.0059 54.9918 47.8828L55.3347 47.603C55.8461 47.2057 56.3075 46.8027 56.8126 46.4501C57.2741 46.0472 57.6918 45.594 58.1532 45.1911C58.3839 44.9897 58.6146 44.7882 58.8016 44.5364L59.3564 43.8259L59.9112 43.1153C60.0982 42.8636 60.279 42.6565 60.466 42.4048C60.7901 41.8956 61.1079 41.4313 61.4258 40.9669C61.6128 40.7152 61.7499 40.4578 61.8807 40.2453L62.292 39.4732C62.5661 38.9585 62.8341 38.4886 63.0084 37.9628C63.2326 37.4426 63.4069 36.9168 63.6312 36.3965C63.8055 35.8707 63.9299 35.3393 64.098 34.8583C64.4404 33.8514 64.5456 32.7272 64.7445 31.6589L64.7693 31.4799L64.7817 31.3904L64.7879 31.3456C64.7817 31.3904 64.7941 31.3009 64.7879 31.3456L64.7939 30.9374C64.8311 30.6689 64.8184 30.3948 64.8494 30.1711C64.8678 29.6733 64.9423 29.1364 64.9107 28.633C64.9201 24.5447 63.8253 20.7421 62.2005 17.4711C60.5258 14.1945 58.2527 11.5781 55.8489 9.53787C55.2058 9.0572 54.6127 8.5821 54.0633 8.15731C53.4079 7.76612 52.8023 7.38046 52.2467 7.00042C51.972 6.78802 51.635 6.65959 51.3541 6.49194C51.0732 6.32429 50.786 6.20136 50.4552 6.02814C50.1681 5.90524 49.8872 5.73761 49.6001 5.6147C49.313 5.4918 49.0196 5.41364 48.7824 5.2963C48.2519 5.10081 47.7214 4.9053 47.2408 4.71537C46.7602 4.52545 46.2672 4.42502 45.8242 4.33015C45.3811 4.23528 44.9941 4.10123 44.601 4.01193C44.2078 3.92263 43.8583 3.88367 43.565 3.80551C42.348 3.44256 41.6491 3.3646 41.6491 3.3646Z" fill="#161616"/>
<path d="M4.41477 90.0137H1.11861V79.8319H4.51918C5.51681 79.8319 6.37358 80.0357 7.08949 80.4434C7.8054 80.8477 8.35393 81.4294 8.73509 82.1884C9.11956 82.9441 9.31179 83.8506 9.31179 84.9078C9.31179 85.9685 9.1179 86.8799 8.73011 87.6422C8.34564 88.4045 7.78883 88.9912 7.05966 89.4022C6.33049 89.8098 5.44886 90.0137 4.41477 90.0137ZM2.65483 88.6713H4.33026C5.10582 88.6713 5.75047 88.5255 6.2642 88.2338C6.77794 87.9389 7.16241 87.513 7.41761 86.9561C7.67282 86.396 7.80043 85.7132 7.80043 84.9078C7.80043 84.1091 7.67282 83.4313 7.41761 82.8745C7.16572 82.3176 6.78954 81.8951 6.28906 81.6067C5.78859 81.3184 5.16714 81.1742 4.42472 81.1742H2.65483V88.6713ZM14.3194 90.1678C13.6035 90.1678 12.9788 90.0037 12.4451 89.6756C11.9115 89.3475 11.4972 88.8884 11.2022 88.2985C10.9073 87.7085 10.7598 87.0191 10.7598 86.2303C10.7598 85.4382 10.9073 84.7454 11.2022 84.1522C11.4972 83.5589 11.9115 83.0982 12.4451 82.7701C12.9788 82.4419 13.6035 82.2779 14.3194 82.2779C15.0353 82.2779 15.6601 82.4419 16.1937 82.7701C16.7273 83.0982 17.1416 83.5589 17.4366 84.1522C17.7316 84.7454 17.8791 85.4382 17.8791 86.2303C17.8791 87.0191 17.7316 87.7085 17.4366 88.2985C17.1416 88.8884 16.7273 89.3475 16.1937 89.6756C15.6601 90.0037 15.0353 90.1678 14.3194 90.1678ZM14.3244 88.9199C14.7884 88.9199 15.1729 88.7973 15.4778 88.552C15.7827 88.3068 16.0081 87.9803 16.1539 87.5726C16.3031 87.165 16.3777 86.7158 16.3777 86.2253C16.3777 85.7381 16.3031 85.2907 16.1539 84.883C16.0081 84.472 15.7827 84.1422 15.4778 83.8936C15.1729 83.6451 14.7884 83.5208 14.3244 83.5208C13.8571 83.5208 13.4693 83.6451 13.161 83.8936C12.8561 84.1422 12.6291 84.472 12.4799 84.883C12.3341 85.2907 12.2612 85.7381 12.2612 86.2253C12.2612 86.7158 12.3341 87.165 12.4799 87.5726C12.6291 87.9803 12.8561 88.3068 13.161 88.552C13.4693 88.7973 13.8571 88.9199 14.3244 88.9199ZM21.0249 85.4796V90.0137H19.5384V82.3773H20.9652V83.6202H21.0597C21.2353 83.2158 21.5104 82.891 21.8849 82.6458C22.2628 82.4005 22.7384 82.2779 23.3118 82.2779C23.8321 82.2779 24.2879 82.3873 24.679 82.606C25.0701 82.8214 25.3733 83.1429 25.5888 83.5705C25.8042 83.998 25.9119 84.5267 25.9119 85.1564V90.0137H24.4254V85.3354C24.4254 84.7819 24.2813 84.3494 23.9929 84.0378C23.7045 83.723 23.3085 83.5655 22.8047 83.5655C22.46 83.5655 22.1534 83.6401 21.8849 83.7892C21.6198 83.9384 21.4093 84.1571 21.2536 84.4455C21.1011 84.7305 21.0249 85.0752 21.0249 85.4796ZM30.1278 90.1827C29.6439 90.1827 29.2064 90.0932 28.8153 89.9142C28.4242 89.7319 28.1143 89.4685 27.8857 89.1238C27.6603 88.7791 27.5476 88.3565 27.5476 87.856C27.5476 87.4251 27.6304 87.0705 27.7962 86.7921C27.9619 86.5137 28.1856 86.2933 28.4673 86.1309C28.7491 85.9685 29.0639 85.8458 29.4119 85.763C29.7599 85.6801 30.1146 85.6171 30.4759 85.574C30.9332 85.521 31.3045 85.4779 31.5895 85.4448C31.8745 85.4083 32.0817 85.3503 32.2109 85.2708C32.3402 85.1912 32.4048 85.062 32.4048 84.883V84.8482C32.4048 84.414 32.2822 84.0776 32.0369 83.839C31.795 83.6003 31.4337 83.481 30.9531 83.481C30.4527 83.481 30.0582 83.592 29.7699 83.8141C29.4848 84.0328 29.2876 84.2765 29.1783 84.5449L27.7812 84.2267C27.947 83.7627 28.1889 83.3882 28.5071 83.1032C28.8286 82.8148 29.1982 82.606 29.6158 82.4767C30.0334 82.3442 30.4725 82.2779 30.9332 82.2779C31.2382 82.2779 31.5613 82.3143 31.9027 82.3873C32.2474 82.4569 32.5689 82.5861 32.8672 82.775C33.1688 82.964 33.4157 83.2341 33.608 83.5854C33.8002 83.9334 33.8963 84.3858 33.8963 84.9426V90.0137H32.4446V88.9696H32.3849C32.2888 89.1619 32.1446 89.3508 31.9524 89.5364C31.7602 89.722 31.5133 89.8761 31.2116 89.9988C30.91 90.1214 30.5488 90.1827 30.1278 90.1827ZM30.451 88.9895C30.862 88.9895 31.2133 88.9083 31.505 88.7459C31.8 88.5835 32.0237 88.3714 32.1761 88.1096C32.3319 87.8444 32.4098 87.561 32.4098 87.2594V86.275C32.3568 86.3281 32.254 86.3778 32.1016 86.4242C31.9524 86.4673 31.7817 86.5054 31.5895 86.5385C31.3973 86.5684 31.21 86.5965 31.0277 86.623C30.8454 86.6462 30.6929 86.6661 30.5703 86.6827C30.282 86.7192 30.0185 86.7805 29.7798 86.8667C29.5445 86.9528 29.3556 87.0771 29.2131 87.2395C29.0739 87.3986 29.0043 87.6107 29.0043 87.8759C29.0043 88.2438 29.1402 88.5222 29.4119 88.7111C29.6837 88.8967 30.0301 88.9895 30.451 88.9895ZM42.1355 82.3773L39.3663 90.0137H37.7754L35.0012 82.3773H36.5971L38.5311 88.2537H38.6106L40.5396 82.3773H42.1355ZM45.536 90.1827C45.0521 90.1827 44.6146 90.0932 44.2235 89.9142C43.8324 89.7319 43.5225 89.4685 43.2939 89.1238C43.0685 88.7791 42.9558 88.3565 42.9558 87.856C42.9558 87.4251 43.0386 87.0705 43.2044 86.7921C43.3701 86.5137 43.5938 86.2933 43.8755 86.1309C44.1573 85.9685 44.4721 85.8458 44.8201 85.763C45.1681 85.6801 45.5228 85.6171 45.8841 85.574C46.3414 85.521 46.7127 85.4779 46.9977 85.4448C47.2827 85.4083 47.4899 85.3503 47.6191 85.2708C47.7484 85.1912 47.813 85.062 47.813 84.883V84.8482C47.813 84.414 47.6904 84.0776 47.4451 83.839C47.2032 83.6003 46.8419 83.481 46.3613 83.481C45.8609 83.481 45.4664 83.592 45.1781 83.8141C44.8931 84.0328 44.6958 84.2765 44.5865 84.5449L43.1895 84.2267C43.3552 83.7627 43.5971 83.3882 43.9153 83.1032C44.2368 82.8148 44.6064 82.606 45.024 82.4767C45.4416 82.3442 45.8807 82.2779 46.3414 82.2779C46.6464 82.2779 46.9695 82.3143 47.3109 82.3873C47.6556 82.4569 47.9771 82.5861 48.2754 82.775C48.577 82.964 48.8239 83.2341 49.0162 83.5854C49.2084 83.9334 49.3045 84.3858 49.3045 84.9426V90.0137H47.8528V88.9696H47.7931C47.697 89.1619 47.5529 89.3508 47.3606 89.5364C47.1684 89.722 46.9215 89.8761 46.6199 89.9988C46.3182 90.1214 45.957 90.1827 45.536 90.1827ZM45.8592 88.9895C46.2702 88.9895 46.6215 88.9083 46.9132 88.7459C47.2082 88.5835 47.4319 88.3714 47.5843 88.1096C47.7401 87.8444 47.818 87.561 47.818 87.2594V86.275C47.765 86.3281 47.6622 86.3778 47.5098 86.4242C47.3606 86.4673 47.1899 86.5054 46.9977 86.5385C46.8055 86.5684 46.6182 86.5965 46.4359 86.623C46.2536 86.6462 46.1011 86.6661 45.9785 86.6827C45.6902 86.7192 45.4267 86.7805 45.188 86.8667C44.9527 86.9528 44.7638 87.0771 44.6213 87.2395C44.4821 87.3986 44.4125 87.6107 44.4125 87.8759C44.4125 88.2438 44.5484 88.5222 44.8201 88.7111C45.0919 88.8967 45.4383 88.9895 45.8592 88.9895ZM52.771 85.4796V90.0137H51.2844V82.3773H52.7113V83.6202H52.8058C52.9814 83.2158 53.2565 82.891 53.631 82.6458C54.0089 82.4005 54.4845 82.2779 55.0579 82.2779C55.5782 82.2779 56.034 82.3873 56.4251 82.606C56.8162 82.8214 57.1194 83.1429 57.3349 83.5705C57.5503 83.998 57.658 84.5267 57.658 85.1564V90.0137H56.1715V85.3354C56.1715 84.7819 56.0273 84.3494 55.739 84.0378C55.4506 83.723 55.0546 83.5655 54.5508 83.5655C54.2061 83.5655 53.8995 83.6401 53.631 83.7892C53.3659 83.9384 53.1554 84.1571 52.9996 84.4455C52.8472 84.7305 52.771 85.0752 52.771 85.4796ZM63.476 79.8319H65.3404L68.5819 87.7466H68.7012L71.9426 79.8319H73.807V90.0137H72.3453V82.6458H72.2509L69.248 89.9988H68.035L65.0321 82.6408H64.9377V90.0137H63.476V79.8319ZM78.1435 90.1827C77.6596 90.1827 77.2221 90.0932 76.831 89.9142C76.4399 89.7319 76.13 89.4685 75.9013 89.1238C75.6759 88.7791 75.5632 88.3565 75.5632 87.856C75.5632 87.4251 75.6461 87.0705 75.8118 86.7921C75.9775 86.5137 76.2012 86.2933 76.483 86.1309C76.7647 85.9685 77.0795 85.8458 77.4276 85.763C77.7756 85.6801 78.1302 85.6171 78.4915 85.574C78.9489 85.521 79.3201 85.4779 79.6051 85.4448C79.8902 85.4083 80.0973 85.3503 80.2266 85.2708C80.3558 85.1912 80.4205 85.062 80.4205 84.883V84.8482C80.4205 84.414 80.2978 84.0776 80.0526 83.839C79.8106 83.6003 79.4493 83.481 78.9688 83.481C78.4683 83.481 78.0739 83.592 77.7855 83.8141C77.5005 84.0328 77.3033 84.2765 77.1939 84.5449L75.7969 84.2267C75.9626 83.7627 76.2045 83.3882 76.5227 83.1032C76.8442 82.8148 77.2138 82.606 77.6314 82.4767C78.049 82.3442 78.4882 82.2779 78.9489 82.2779C79.2538 82.2779 79.5769 82.3143 79.9183 82.3873C80.263 82.4569 80.5845 82.5861 80.8828 82.775C81.1844 82.964 81.4313 83.2341 81.6236 83.5854C81.8158 83.9334 81.9119 84.3858 81.9119 84.9426V90.0137H80.4602V88.9696H80.4006C80.3045 89.1619 80.1603 89.3508 79.968 89.5364C79.7758 89.722 79.5289 89.8761 79.2273 89.9988C78.9257 90.1214 78.5644 90.1827 78.1435 90.1827ZM78.4666 88.9895C78.8776 88.9895 79.2289 88.9083 79.5206 88.7459C79.8156 88.5835 80.0393 88.3714 80.1918 88.1096C80.3475 87.8444 80.4254 87.561 80.4254 87.2594V86.275C80.3724 86.3281 80.2696 86.3778 80.1172 86.4242C79.968 86.4673 79.7973 86.5054 79.6051 86.5385C79.4129 86.5684 79.2256 86.5965 79.0433 86.623C78.861 86.6462 78.7086 86.6661 78.5859 86.6827C78.2976 86.7192 78.0341 86.7805 77.7955 86.8667C77.5601 86.9528 77.3712 87.0771 77.2287 87.2395C77.0895 87.3986 77.0199 87.6107 77.0199 87.8759C77.0199 88.2438 77.1558 88.5222 77.4276 88.7111C77.6993 88.8967 78.0457 88.9895 78.4666 88.9895ZM83.8919 90.0137V82.3773H85.3287V83.5904H85.4082C85.5474 83.1794 85.7927 82.8562 86.144 82.6209C86.4986 82.3823 86.8997 82.263 87.3471 82.263C87.4399 82.263 87.5493 82.2663 87.6752 82.2729C87.8045 82.2795 87.9056 82.2878 87.9785 82.2978V83.7196C87.9189 83.7031 87.8128 83.6848 87.6603 83.665C87.5079 83.6417 87.3554 83.6301 87.2029 83.6301C86.8516 83.6301 86.5384 83.7047 86.2633 83.8539C85.9915 83.9997 85.7761 84.2035 85.617 84.4654C85.4579 84.7239 85.3784 85.0189 85.3784 85.3503V90.0137H83.8919ZM94.147 92.8773V88.8255H94.0575C93.968 88.9879 93.8388 89.1735 93.6697 89.3823C93.504 89.5911 93.2753 89.7734 92.9837 89.9292C92.692 90.0849 92.3142 90.1628 91.8501 90.1628C91.2337 90.1628 90.6835 90.0054 90.1996 89.6905C89.719 89.3723 89.3411 88.9199 89.0661 88.3333C88.7943 87.7433 88.6584 87.0357 88.6584 86.2104C88.6584 85.3851 88.7959 84.6792 89.071 84.0925C89.3494 83.5059 89.7306 83.0568 90.2145 82.7452C90.6984 82.4337 91.2469 82.2779 91.8601 82.2779C92.334 82.2779 92.7152 82.3574 93.0036 82.5165C93.2952 82.6723 93.5206 82.8546 93.6797 83.0634C93.8421 83.2722 93.968 83.4561 94.0575 83.6152H94.1818V82.3773H95.6335V92.8773H94.147ZM92.1783 88.8951C92.6058 88.8951 92.9671 88.7824 93.2621 88.557C93.5604 88.3283 93.7857 88.0118 93.9382 87.6074C94.094 87.2031 94.1719 86.7324 94.1719 86.1955C94.1719 85.6652 94.0956 85.2012 93.9432 84.8034C93.7907 84.4057 93.567 84.0958 93.272 83.8738C92.977 83.6517 92.6125 83.5407 92.1783 83.5407C91.7308 83.5407 91.358 83.6567 91.0597 83.8887C90.7614 84.1207 90.536 84.4372 90.3835 84.8382C90.2344 85.2393 90.1598 85.6917 90.1598 86.1955C90.1598 86.7059 90.236 87.165 90.3885 87.5726C90.541 87.9803 90.7663 88.3034 91.0646 88.5421C91.3662 88.7774 91.7375 88.8951 92.1783 88.8951ZM102.469 86.8468V82.3773H103.961V90.0137H102.499V88.6912H102.42C102.244 89.0989 101.962 89.4386 101.575 89.7104C101.19 89.9789 100.711 90.1131 100.138 90.1131C99.6473 90.1131 99.2131 90.0054 98.8352 89.79C98.4607 89.5712 98.1657 89.248 97.9503 88.8205C97.7382 88.3929 97.6321 87.8643 97.6321 87.2346V82.3773H99.1186V87.0556C99.1186 87.5759 99.2628 87.9902 99.5511 88.2985C99.8395 88.6067 100.214 88.7608 100.675 88.7608C100.953 88.7608 101.23 88.6912 101.505 88.552C101.783 88.4128 102.014 88.2024 102.196 87.9206C102.382 87.6389 102.473 87.281 102.469 86.8468ZM109.249 90.1678C108.497 90.1678 107.849 90.007 107.306 89.6855C106.765 89.3607 106.348 88.905 106.053 88.3184C105.761 87.7284 105.615 87.0373 105.615 86.2452C105.615 85.463 105.761 84.7736 106.053 84.177C106.348 83.5804 106.759 83.1148 107.286 82.78C107.816 82.4453 108.436 82.2779 109.145 82.2779C109.576 82.2779 109.994 82.3491 110.398 82.4917C110.802 82.6342 111.165 82.8579 111.487 83.1628C111.808 83.4677 112.062 83.8638 112.247 84.351C112.433 84.8349 112.526 85.4232 112.526 86.1159V86.6429H106.455V85.5293H111.069C111.069 85.1382 110.99 84.7918 110.83 84.4902C110.671 84.1853 110.448 83.945 110.159 83.7694C109.874 83.5937 109.539 83.5059 109.155 83.5059C108.737 83.5059 108.373 83.6086 108.061 83.8141C107.753 84.0163 107.514 84.2814 107.345 84.6096C107.18 84.9344 107.097 85.2873 107.097 85.6685V86.5385C107.097 87.0489 107.186 87.4831 107.365 87.8411C107.548 88.199 107.801 88.4725 108.126 88.6614C108.451 88.847 108.83 88.9398 109.264 88.9398C109.546 88.9398 109.803 88.9 110.035 88.8205C110.267 88.7376 110.468 88.615 110.637 88.4526C110.806 88.2902 110.935 88.0897 111.024 87.851L112.431 88.1046C112.319 88.5189 112.116 88.8818 111.825 89.1934C111.536 89.5016 111.173 89.7419 110.736 89.9142C110.302 90.0833 109.806 90.1678 109.249 90.1678ZM119.897 84.2417L118.55 84.4803C118.494 84.3079 118.404 84.1439 118.282 83.9881C118.162 83.8323 118 83.7047 117.794 83.6053C117.589 83.5059 117.332 83.4561 117.024 83.4561C116.603 83.4561 116.252 83.5506 115.97 83.7395C115.688 83.9251 115.547 84.1654 115.547 84.4604C115.547 84.7156 115.642 84.9211 115.831 85.0769C116.02 85.2327 116.324 85.3603 116.745 85.4597L117.958 85.7381C118.661 85.9005 119.185 86.1507 119.529 86.4888C119.874 86.8269 120.047 87.266 120.047 87.8063C120.047 88.2637 119.914 88.6713 119.649 89.0293C119.387 89.3839 119.021 89.6623 118.55 89.8645C118.083 90.0667 117.541 90.1678 116.924 90.1678C116.069 90.1678 115.372 89.9855 114.831 89.6209C114.291 89.253 113.96 88.731 113.837 88.0549L115.274 87.8361C115.363 88.2106 115.547 88.494 115.826 88.6863C116.104 88.8752 116.467 88.9696 116.914 88.9696C117.402 88.9696 117.791 88.8685 118.083 88.6664C118.374 88.4609 118.52 88.2106 118.52 87.9157C118.52 87.677 118.431 87.4765 118.252 87.3141C118.076 87.1517 117.806 87.0291 117.441 86.9462L116.149 86.6628C115.436 86.5004 114.909 86.2419 114.568 85.8873C114.23 85.5326 114.061 85.0835 114.061 84.54C114.061 84.0892 114.187 83.6948 114.439 83.3567C114.69 83.0186 115.038 82.7551 115.483 82.5662C115.927 82.374 116.435 82.2779 117.009 82.2779C117.834 82.2779 118.484 82.4569 118.958 82.8148C119.432 83.1694 119.745 83.6451 119.897 84.2417ZM134.047 78.5137C134.387 79.3137 135.367 81.9537 135.607 82.8137L134.127 83.3537C133.907 82.4337 132.987 79.8937 132.567 79.0137L134.047 78.5137ZM141.287 79.6337C141.147 80.0337 141.047 80.3537 140.967 80.6137C140.447 82.8137 139.567 84.9737 138.147 86.7737C136.287 89.1137 133.847 90.6737 131.627 91.5137L130.307 90.1737C132.607 89.4937 135.167 87.9737 136.807 85.9337C138.227 84.1937 139.247 81.6337 139.567 79.0737L141.287 79.6337ZM129.387 79.5137C129.787 80.3537 130.847 82.9737 131.207 84.0337L129.707 84.5937C129.387 83.5537 128.307 80.7737 127.907 80.0737L129.387 79.5137Z" fill="#181818"/>
</svg>
