<svg width="577" height="433" viewBox="0 0 577 433" fill="none" xmlns="http://www.w3.org/2000/svg">
<path d="M125.029 363.106C137.831 363.106 150.633 363.106 163.435 363.106C164.12 363.106 164.12 362.023 163.435 362.023C150.633 362.023 137.831 362.023 125.029 362.023C124.343 362.023 124.343 363.106 125.029 363.106Z" fill="#161616"/>
<path d="M165.743 373.57C192.898 373.57 220.017 373.57 247.172 373.57C247.858 373.57 247.858 372.487 247.172 372.487C220.017 372.487 192.898 372.487 165.743 372.487C165.058 372.487 165.058 373.57 165.743 373.57Z" fill="#161616"/>
<path d="M269.279 363.683C295.785 363.683 322.254 363.683 348.76 363.683C375.122 363.683 401.52 363.683 427.882 363.683C442.884 363.683 457.849 363.683 472.851 363.683C473.537 363.683 473.537 362.601 472.851 362.601C446.346 362.601 419.876 362.601 393.37 362.601C367.008 362.601 340.61 362.601 314.249 362.601C299.247 362.601 284.281 362.601 269.279 362.601C268.593 362.601 268.593 363.683 269.279 363.683Z" fill="#161616"/>
<path d="M386.77 356.106C417.568 356.106 448.365 356.106 479.162 356.106C487.926 356.106 496.653 356.106 505.416 356.106C506.101 356.106 506.101 355.023 505.416 355.023C474.618 355.023 443.821 355.023 413.024 355.023C404.261 355.023 395.533 355.023 386.77 355.023C386.085 355.023 386.085 356.106 386.77 356.106Z" fill="#161616"/>
<path d="M447.86 375.302C475.123 375.302 502.423 375.302 529.686 375.302C537.512 375.302 545.301 375.302 553.127 375.302C553.812 375.302 553.812 374.22 553.127 374.22C525.863 374.22 498.564 374.22 471.301 374.22C463.475 374.22 455.686 374.22 447.86 374.22C447.139 374.22 447.139 375.302 447.86 375.302Z" fill="#161616"/>
<path d="M454.027 28.182C461.348 31.7542 463.656 40.1977 464.485 47.667C465.603 57.6982 465.351 68.0541 465.278 78.1213C465.134 100.132 463.836 122.143 462.646 144.118C460.302 188.031 457.922 231.945 455.578 275.858C454.243 300.575 452.909 325.292 451.611 350.009C451.575 350.695 452.657 350.695 452.693 350.009C455.109 305.122 457.525 260.234 459.905 215.382C461.095 193.047 462.285 170.747 463.511 148.412C464.701 126.184 466.072 103.957 466.36 81.6936C466.432 75.4872 466.432 69.2809 466.288 63.0385C466.18 57.7342 466.144 52.3939 465.531 47.1257C464.593 39.44 462.105 30.8522 454.604 27.2077C453.955 26.9552 453.414 27.8933 454.027 28.182Z" fill="#E8E8E8"/>
<path d="M435.094 21.0366C443.316 22.4078 451.034 25.5831 457.85 30.3461C458.427 30.743 458.968 29.8049 458.391 29.4079C451.503 24.6089 443.641 21.3974 435.383 19.9902C434.698 19.8459 434.409 20.8923 435.094 21.0366Z" fill="#E8E8E8"/>
<path d="M403.179 10.501C414.394 11.6557 426.475 13.1351 435.094 21.1817C435.599 21.6507 436.356 20.893 435.851 20.4239C427.016 12.1608 414.719 10.6092 403.179 9.41849C402.457 9.34632 402.494 10.4288 403.179 10.501Z" fill="#E8E8E8"/>
<path d="M434.842 21.2173C433.291 32.764 426.908 43.4086 417.423 50.1561C416.846 50.5531 417.387 51.4912 417.964 51.0943C427.809 44.0581 434.337 33.197 435.924 21.2173C436.032 20.5317 434.95 20.5317 434.842 21.2173Z" fill="#E8E8E8"/>
<path d="M402.494 9.88731C411.942 21.3618 417.027 36.0477 416.738 50.9141C416.738 51.5996 417.82 51.5996 417.82 50.9141C418.073 35.7591 412.88 20.8206 403.251 9.12956C402.818 8.58831 402.061 9.34606 402.494 9.88731Z" fill="#E8E8E8"/>
<path d="M408.155 22.4807C403.828 22.1921 399.825 27.6407 401.917 31.682C403.467 34.6769 409.346 36.2646 411.401 33.0171C411.762 32.4397 410.824 31.8985 410.463 32.4758C408.841 35.0738 403.792 33.3057 402.818 30.9603C401.376 27.5685 404.693 23.3107 408.192 23.5632C408.841 23.5993 408.841 22.5168 408.155 22.4807Z" fill="#E8E8E8"/>
<path d="M402.205 9.67044C402.602 14.7221 403.395 19.7377 404.621 24.645C404.802 25.3306 405.847 25.0419 405.667 24.3564C404.477 19.5212 403.684 14.6139 403.287 9.67044C403.215 8.98485 402.133 8.98485 402.205 9.67044Z" fill="#E8E8E8"/>
<path d="M408.949 34.9654C411.329 40.3779 413.709 45.7904 416.053 51.2029C416.342 51.8524 417.279 51.275 416.991 50.6616C414.611 45.2491 412.23 39.8366 409.886 34.4241C409.634 33.8107 408.696 34.352 408.949 34.9654Z" fill="#E8E8E8"/>
<path d="M409.237 34.4962C410.644 38.5376 412.086 42.5789 414.286 46.2955C414.647 46.9089 415.548 46.3677 415.224 45.7542C413.276 42.1098 411.87 38.285 410.968 34.2797C410.68 34.4602 410.355 34.6406 410.067 34.821C410.103 34.8571 410.103 34.8571 410.139 34.8932C410.103 34.6767 410.067 34.4602 410.067 34.2437C410.031 34.2797 410.031 34.3158 409.995 34.3519C410.283 34.3158 410.572 34.2797 410.86 34.2437C410.824 34.1715 414.034 31.2487 414.25 31.0683C413.961 30.9962 413.637 30.924 413.348 30.8157C414.106 34.0993 414.611 37.419 414.935 40.7747C415.296 40.7387 415.656 40.6665 415.981 40.6304C415.368 38.285 414.575 35.9757 413.637 33.7385C413.384 33.1251 412.447 33.3416 412.591 34.0272C413.204 36.9499 413.781 39.8727 414.394 42.8315C414.755 42.7232 415.079 42.6511 415.44 42.5428C414.647 40.0892 413.781 37.7077 412.807 35.3262C412.555 34.6767 411.581 34.9292 411.762 35.6148C412.483 38.3211 413.204 41.0634 413.925 43.7697C414.25 43.6253 414.575 43.481 414.899 43.3367C413.889 40.9912 412.916 38.6458 411.906 36.2643C411.653 35.7231 410.716 36.12 410.932 36.6973C412.375 40.5943 413.817 44.4913 415.188 48.4244C415.404 49.0739 416.414 48.8213 416.233 48.1357C415.692 46.2233 415.296 44.2748 415.115 42.2902C414.755 42.3263 414.394 42.3985 414.07 42.4346C414.719 44.6717 415.368 46.9089 416.017 49.1461C416.197 49.8317 417.207 49.543 417.063 48.8574C416.486 46.3316 416.089 43.7697 415.837 41.1717C415.476 41.2077 415.115 41.2799 414.791 41.316C415.26 43.9501 415.692 46.5842 416.342 49.1822C416.486 49.7595 417.46 49.6512 417.387 49.0378C417.099 45.7903 416.558 42.5789 415.765 39.4036C415.584 38.718 414.575 39.0067 414.719 39.6922C414.971 40.8108 414.971 41.8933 414.827 43.048C415.152 42.9397 415.512 42.8676 415.837 42.7593C414.935 41.2077 414.358 39.6201 414.142 37.852C414.07 37.3107 413.457 37.0942 413.132 37.5633C412.88 37.9242 412.663 38.285 412.411 38.6458C412.735 38.6458 413.024 38.6458 413.348 38.6458C412.88 37.5633 412.699 36.553 412.735 35.3622C412.375 35.3622 412.014 35.3622 411.653 35.3622C411.581 35.6148 411.509 35.8674 411.437 36.12C411.726 36.1922 412.05 36.2643 412.339 36.3726C412.158 35.4344 412.158 34.7127 412.23 33.8107C411.87 33.8467 411.509 33.9189 411.185 33.955C411.113 34.3519 411.076 34.7488 411.004 35.1457C411.329 35.1457 411.617 35.1457 411.942 35.1457C412.086 34.6406 412.267 34.1354 412.411 33.6302C412.158 33.522 411.87 33.4137 411.617 33.3055C411.437 33.8828 411.257 34.4602 411.077 35.0375C411.365 35.2179 411.69 35.3983 411.978 35.5787C412.231 34.4241 412.735 33.5942 413.601 32.7642C413.312 32.6921 412.988 32.6199 412.699 32.5117C412.844 33.4859 412.735 34.2797 412.411 35.2179C412.771 35.254 413.132 35.3262 413.457 35.3622C413.457 34.5684 413.565 33.8828 413.853 33.1251C413.493 33.089 413.132 33.0168 412.807 32.9807C412.807 33.6302 412.844 34.2797 412.844 34.9292C412.844 35.5066 413.817 35.687 413.889 35.0736C413.998 34.4241 414.106 33.7746 414.214 33.1251C413.853 33.1251 413.529 33.1251 413.168 33.1251C413.168 33.4859 413.132 33.8467 413.132 34.2437C412.844 34.8932 413.781 35.4344 414.07 34.7849C414.394 34.0632 414.466 33.6302 414.214 32.8364C414.07 32.3673 413.276 32.2952 413.168 32.8364C413.06 33.4859 412.952 34.1354 412.844 34.7849C413.204 34.821 413.565 34.8932 413.889 34.9292C413.889 34.2797 413.853 33.6302 413.853 32.9807C413.853 32.3673 412.988 32.2591 412.807 32.8364C412.483 33.7024 412.375 34.4602 412.375 35.3622C412.375 35.9757 413.24 36.0839 413.421 35.5066C413.817 34.388 413.889 33.4137 413.709 32.223C413.637 31.79 413.06 31.7539 412.807 31.9704C411.834 32.8725 411.221 33.955 410.896 35.254C410.788 35.7592 411.401 36.1922 411.798 35.7952C412.555 34.9653 412.807 34.1354 412.591 33.0168C412.519 32.6921 412.05 32.5117 411.798 32.6921C410.716 33.4137 410.427 34.4962 410.932 35.687C411.113 36.0839 411.653 35.9757 411.87 35.687C412.339 35.0014 412.411 34.4241 412.158 33.6663C411.942 33.0529 411.149 33.1972 411.113 33.8107C411.004 34.7849 411.077 35.687 411.257 36.6612C411.329 37.0582 411.906 37.1664 412.158 36.9138C412.591 36.4447 412.771 36.0839 412.699 35.3983C412.627 34.7127 411.617 34.6767 411.617 35.3983C411.581 36.7695 411.834 37.9602 412.375 39.2232C412.555 39.6201 413.096 39.5118 413.312 39.2232C413.565 38.8623 413.781 38.5015 414.034 38.1407C413.709 38.0324 413.348 37.9602 413.024 37.852C413.276 39.8366 413.853 41.6047 414.863 43.3006C415.152 43.8057 415.801 43.5171 415.873 43.0119C416.053 41.749 415.981 40.6304 415.729 39.3675C415.368 39.4757 415.043 39.5479 414.683 39.6562C415.476 42.7232 415.981 45.8625 416.27 49.0017C416.63 48.9657 416.991 48.8935 417.315 48.8574C416.702 46.2594 416.233 43.6253 415.765 40.9912C415.656 40.3778 414.647 40.5222 414.719 41.1356C414.971 43.8418 415.368 46.4759 415.981 49.11C416.342 49.0017 416.666 48.9296 417.027 48.8213C416.378 46.5842 415.729 44.347 415.079 42.1098C414.899 41.5325 413.961 41.6407 414.034 42.2542C414.25 44.347 414.611 46.3677 415.188 48.3883C415.548 48.2801 415.873 48.2079 416.233 48.0997C414.827 44.1666 413.421 40.2696 411.978 36.3726C411.654 36.5169 411.329 36.6612 411.004 36.8056C412.014 39.151 412.988 41.4964 413.998 43.8779C414.25 44.4552 415.152 44.0222 414.971 43.4449C414.25 40.7387 413.529 37.9963 412.807 35.2901C412.447 35.3983 412.122 35.4705 411.762 35.5787C412.699 37.9602 413.565 40.3778 414.394 42.7954C414.611 43.4449 415.584 43.1923 415.44 42.5067C414.827 39.584 414.25 36.6612 413.637 33.7024C413.276 33.8107 412.952 33.8828 412.591 33.9911C413.529 36.2282 414.322 38.5376 414.935 40.883C415.079 41.4603 416.053 41.3521 415.981 40.7387C415.656 37.2747 415.115 33.8828 414.358 30.491C414.25 30.0941 413.745 29.9858 413.457 30.2384C412.447 31.1766 410.68 32.2952 409.995 33.522C409.67 34.1354 409.67 34.4602 410.067 34.9292C410.319 35.2179 410.716 35.0736 410.932 34.821C410.968 34.7849 410.968 34.7488 411.004 34.7127C411.149 34.5323 411.076 34.2076 410.932 34.0632C410.896 34.0272 410.896 34.0272 410.86 33.9911C410.463 33.5942 409.85 33.9911 409.959 34.5323C410.86 38.6458 412.303 42.5789 414.322 46.2594C414.647 46.079 414.935 45.8986 415.26 45.7182C413.132 42.0737 411.69 38.1407 410.319 34.1715C410.031 33.5581 408.985 33.8467 409.237 34.4962Z" fill="#E8E8E8"/>
<path d="M402.782 11.2225C403.828 15.0834 404.585 18.9804 405.09 22.9135C405.126 23.3104 405.523 23.599 405.919 23.3825C407.11 22.733 408.3 22.264 409.634 21.9392C409.958 21.867 410.139 21.434 409.959 21.1454C408.3 18.6556 406.749 16.0937 405.306 13.4957C404.982 12.8823 404.08 13.4235 404.369 14.037C405.343 16.1659 406.1 18.367 406.713 20.6041C407.037 20.4598 407.362 20.3155 407.687 20.1711C406.857 18.5835 406.28 16.9597 405.919 15.1916C405.595 15.336 405.27 15.4803 404.946 15.6246C406.28 17.5731 407.001 19.702 407.11 22.0475C407.434 21.9031 407.723 21.7949 408.047 21.6505C407.218 20.8928 406.749 20.0629 406.496 18.9443C406.244 19.1608 405.956 19.3412 405.703 19.5577C406.46 20.135 406.713 20.7845 406.533 21.5423C406.857 21.434 407.218 21.3619 407.542 21.2536C406.641 20.0629 405.92 18.8 405.27 17.4649C405.018 17.7175 404.765 17.97 404.513 18.2226C405.523 18.8721 406.857 25.331 409.418 22.4083C410.355 21.3258 409.814 19.9546 409.201 18.836C408.191 16.9597 406.929 15.2277 405.631 13.5679C405.234 13.0627 404.477 13.7122 404.765 14.2174C406.172 16.635 407.218 19.1608 407.903 21.867C408.227 21.7227 408.552 21.5784 408.877 21.434C408.732 21.1093 408.588 20.8206 408.444 20.4959C408.191 20.7485 407.939 21.001 407.687 21.2536C407.687 21.2175 407.687 21.2175 407.687 21.1815C407.47 21.3619 407.218 21.5423 407.001 21.6866C407.47 21.867 407.975 22.0475 408.444 22.2279C409.093 22.4805 409.381 21.434 408.732 21.1815C408.264 21.001 407.759 20.8206 407.29 20.6402C406.965 20.4959 406.605 20.8567 406.605 21.1454C406.569 23.996 410.608 21.7227 408.227 20.2794C407.723 19.9907 407.254 20.568 407.47 21.0371C407.614 21.3619 407.759 21.6505 407.903 21.9753C408.155 22.5526 409.021 22.1196 408.877 21.5423C408.155 18.7278 407.11 16.1298 405.631 13.64C405.343 13.8565 405.054 14.073 404.765 14.2895C405.559 15.336 406.316 16.3824 407.037 17.4649C407.326 17.8979 407.614 18.3309 407.867 18.8C408.083 19.1247 408.264 19.4855 408.408 19.8464C408.985 20.6041 408.552 21.0371 407.074 21.1093C406.569 20.7124 406.496 19.3773 406.28 18.8C405.992 18.0783 405.631 17.6092 404.982 17.2123C404.477 16.9236 404.044 17.501 404.225 17.97C404.874 19.3412 405.595 20.568 406.496 21.7588C406.821 22.1918 407.434 22.0475 407.506 21.4701C407.65 20.2072 407.182 19.269 406.136 18.5474C405.739 18.2587 405.234 18.7278 405.342 19.1608C405.631 20.4237 406.244 21.4701 407.182 22.3361C407.506 22.6248 408.119 22.4444 408.119 21.9392C408.011 19.3773 407.218 17.068 405.811 14.9751C405.451 14.47 404.693 14.7947 404.838 15.4081C405.234 17.2484 405.847 18.9804 406.713 20.6402C407.001 21.1815 407.867 20.8206 407.687 20.2072C407.073 17.8618 406.244 15.5885 405.234 13.3875C404.91 13.5679 404.621 13.7483 404.297 13.9287C405.739 16.5628 407.29 19.0886 408.949 21.5784C409.057 21.3258 409.165 21.0371 409.273 20.7845C407.867 21.1093 406.569 21.6145 405.306 22.3361C405.595 22.4805 405.847 22.6609 406.136 22.8052C405.631 18.7639 404.874 14.7586 403.792 10.8255C403.648 10.2482 402.602 10.5369 402.782 11.2225Z" fill="#E8E8E8"/>
<path d="M402.818 29.6251C401.989 27.5683 403.972 25.6559 405.559 24.7178C407.11 23.7796 408.841 23.4548 410.644 23.5631C411.149 23.5992 411.293 22.9858 411.04 22.6249C410.716 22.228 410.427 21.8311 410.103 21.4342C409.814 21.0733 409.129 21.362 409.165 21.8311C409.057 21.1094 408.047 21.5424 407.578 21.5424C405.847 21.5063 406.533 21.1816 406.46 20.2073C406.316 19.0166 405.631 17.7898 405.343 16.6351C404.91 14.9392 404.693 13.2433 404.549 11.5113C404.513 10.8257 403.431 10.8257 403.467 11.5113C403.612 13.568 403.9 15.5887 404.441 17.5733C404.693 18.4393 405.306 19.5218 405.198 20.4238C405.162 20.8208 404.874 21.1094 404.874 21.5063C404.91 22.3363 405.739 22.8414 406.497 22.8414C407.326 22.8414 408.155 22.661 409.021 22.6971C409.49 22.7332 409.562 22.8414 409.995 22.5528C410.139 22.4445 410.283 22.2641 410.247 22.0837C410.247 22.0115 410.211 21.9033 410.211 21.8311C409.886 21.9754 409.598 22.0837 409.273 22.228C409.598 22.6249 409.886 23.0218 410.211 23.4188C410.355 23.094 410.463 22.8053 410.608 22.4806C407.074 22.2641 399.825 25.1868 401.736 29.9138C402.025 30.5633 403.071 30.2746 402.818 29.6251Z" fill="#E8E8E8"/>
<path d="M404.874 23.5629C403.287 24.8619 402.061 26.7021 401.808 28.795C401.592 30.6352 402.71 32.259 404.08 33.4136C407.759 36.5529 411.69 33.0528 413.998 30.094C414.43 29.5527 413.673 28.795 413.24 29.3362C411.365 31.7538 408.083 35.29 404.874 32.6559C403.467 31.5012 402.602 29.9135 403.071 28.0733C403.467 26.5578 404.441 25.2949 405.667 24.3206C406.208 23.8876 405.415 23.1299 404.874 23.5629Z" fill="#E8E8E8"/>
<path d="M415.656 36.9137C415.656 36.8776 415.656 36.8415 415.62 36.8054C415.548 37.0219 415.44 37.2024 415.368 37.4189C415.404 37.3828 415.44 37.3828 415.476 37.3467C415.224 37.2745 414.971 37.2024 414.719 37.1663C415.224 37.9601 415.224 39.4034 415.368 40.3055C415.548 41.4963 415.729 42.7231 415.873 43.9139C416.089 45.9706 416.197 48.0274 416.27 50.1202C416.27 50.8058 417.351 50.8058 417.351 50.1202C417.279 47.5944 417.135 45.0685 416.81 42.5427C416.702 41.5684 416.558 40.6303 416.378 39.656C416.233 38.6818 416.197 37.4189 415.656 36.5889C415.512 36.3364 415.188 36.2642 414.899 36.4085C414.863 36.4446 414.827 36.4446 414.791 36.4807C414.575 36.5889 414.466 36.8776 414.538 37.0941C414.538 37.1302 414.538 37.1663 414.575 37.2024C414.791 37.8879 415.837 37.5993 415.656 36.9137Z" fill="#E8E8E8"/>
<path d="M403.143 11.4386C404.405 13.0262 405.343 14.7943 405.956 16.7428C406.172 17.3923 407.218 17.1036 407.001 16.4541C406.316 14.3252 405.306 12.4128 403.9 10.6808C403.503 10.1035 402.71 10.8973 403.143 11.4386Z" fill="#E8E8E8"/>
<path d="M374.04 16.9957C378.981 18.4029 383.957 19.6297 389.006 20.6401C389.691 20.7844 389.98 19.738 389.295 19.5937C384.246 18.5833 379.269 17.3565 374.329 15.9492C373.68 15.7327 373.391 16.7792 374.04 16.9957Z" fill="#E8E8E8"/>
<path d="M361.418 33.8468C370.867 33.0891 380.207 31.321 389.331 28.5787C389.98 28.3622 389.728 27.3157 389.042 27.5322C380.027 30.2385 370.795 32.0066 361.418 32.7282C360.733 32.8004 360.733 33.8829 361.418 33.8468Z" fill="#E8E8E8"/>
<path d="M395.75 34.3878C393.586 35.7229 391.567 37.2384 389.655 38.8982C389.114 39.3673 389.908 40.125 390.413 39.656C392.252 38.0683 394.235 36.625 396.291 35.326C396.904 34.9651 396.363 34.027 395.75 34.3878Z" fill="#E8E8E8"/>
<path d="M396.435 45.9707C388.718 52.6461 380.964 59.3215 373.247 65.997C372.706 66.466 373.499 67.2238 374.004 66.7547C381.722 60.0793 389.475 53.4039 397.192 46.7285C397.733 46.2955 396.976 45.5016 396.435 45.9707Z" fill="#E8E8E8"/>
<path d="M399.356 54.1976C397.012 58.6719 394.632 63.1823 392.288 67.6567C391.963 68.2701 392.901 68.8113 393.225 68.1979C395.57 63.7236 397.95 59.2132 400.294 54.7388C400.618 54.1254 399.681 53.5842 399.356 54.1976Z" fill="#E8E8E8"/>
<path d="M405.703 56.7231C404.513 63.7593 403.792 70.8677 403.503 78.0122C403.467 78.6978 404.549 78.6978 404.585 78.0122C404.874 70.976 405.595 63.9397 406.749 57.0117C406.857 56.3262 405.811 56.0375 405.703 56.7231Z" fill="#E8E8E8"/>
<path d="M438.015 22.1195C447.247 20.8927 455.578 26.9186 460.121 34.5683C465.495 43.5891 465.675 54.7388 465.423 64.9504C464.882 88.0798 463.908 111.173 462.97 134.267C461.095 180.778 458.751 227.289 456.01 273.801C454.46 299.925 452.765 326.013 450.926 352.138C450.817 353.545 452.981 353.509 453.089 352.138C456.443 304.472 459.328 256.806 461.744 209.103C464.16 161.509 466.288 113.879 467.586 66.2494C467.875 55.0997 467.803 42.8674 461.744 33.0528C456.804 25.0423 447.824 18.6916 438.051 19.9906C436.645 20.1349 436.645 22.2999 438.015 22.1195Z" fill="#E8E8E8"/>
<path d="M436.068 21.6508C438.664 21.723 441.261 21.7591 443.785 22.3364C446.418 22.9498 448.437 24.4292 450.781 25.62C451.394 25.9447 451.935 25.0066 451.322 24.6818C448.87 23.455 446.778 21.9395 444.074 21.29C441.441 20.6766 438.736 20.6044 436.068 20.5322C435.383 20.5322 435.383 21.6147 436.068 21.6508Z" fill="#E8E8E8"/>
<path d="M436.068 22.3721C443.785 23.1298 451.106 25.9443 457.381 30.5269C457.958 30.9238 458.499 29.9857 457.922 29.5888C451.466 24.934 443.965 22.0834 436.068 21.2896C435.383 21.2174 435.383 22.2999 436.068 22.3721Z" fill="#E8E8E8"/>
<path d="M434.517 19.8462C437.907 20.4957 441.225 21.3617 444.47 22.372C445.12 22.5885 445.408 21.5421 444.759 21.3256C441.477 20.2792 438.159 19.4493 434.806 18.7998C434.12 18.6554 433.832 19.7018 434.517 19.8462Z" fill="#E8E8E8"/>
<path d="M435.311 19.7383C439.53 20.2074 443.641 21.1095 447.644 22.4085C448.293 22.625 448.582 21.5785 447.932 21.362C443.821 20.027 439.602 19.1249 435.311 18.6558C434.625 18.5836 434.625 19.6661 435.311 19.7383Z" fill="#E8E8E8"/>
<path d="M422.04 13.4957C427.593 15.4442 432.894 17.8978 437.943 20.8567C438.556 21.2175 439.097 20.2793 438.484 19.9185C433.327 16.8875 427.918 14.3977 422.292 12.4492C421.679 12.2327 421.39 13.2792 422.04 13.4957Z" fill="#E8E8E8"/>
<path d="M420.525 13.1343C426.187 15.2272 431.632 17.753 436.861 20.7479C437.474 21.1087 438.015 20.1706 437.402 19.8097C432.065 16.7787 426.547 14.2168 420.777 12.0879C420.164 11.8714 419.876 12.9178 420.525 13.1343Z" fill="#E8E8E8"/>
<path d="M428.891 40.0169C432.173 34.2435 435.022 28.2537 437.438 22.0474C437.691 21.3979 436.645 21.1092 436.392 21.7587C434.012 27.8568 431.199 33.7744 427.954 39.4756C427.629 40.0529 428.567 40.5942 428.891 40.0169Z" fill="#E8E8E8"/>
<path d="M435.96 21.6146C435.311 22.6971 434.842 23.8156 434.517 25.0425C434.337 25.7281 435.383 26.0167 435.563 25.3311C435.851 24.2126 436.284 23.1661 436.897 22.1558C437.258 21.5424 436.32 21.0011 435.96 21.6146Z" fill="#E8E8E8"/>
<path d="M155.97 207.227C155.97 208.959 155.97 210.691 155.97 212.423C155.97 213.109 157.052 213.109 157.052 212.423C157.052 210.691 157.052 208.959 157.052 207.227C157.052 206.541 155.97 206.541 155.97 207.227Z" fill="#E8E8E8"/>
<path d="M156.511 213.181C181.791 213.181 207.071 213.181 232.351 213.181C233.036 213.181 233.036 212.099 232.351 212.099C207.071 212.099 181.791 212.099 156.511 212.099C155.826 212.099 155.826 213.181 156.511 213.181Z" fill="#E8E8E8"/>
<path d="M157.088 207.588C182.044 207.588 207.035 207.588 231.99 207.588C232.675 207.588 232.675 206.506 231.99 206.506C207.035 206.506 182.044 206.506 157.088 206.506C156.403 206.506 156.403 207.588 157.088 207.588Z" fill="#E8E8E8"/>
<path d="M231.413 207.444C231.485 209.176 231.449 210.908 231.233 212.64C231.161 213.325 232.243 213.325 232.315 212.64C232.531 210.908 232.603 209.176 232.495 207.444C232.459 206.722 231.377 206.722 231.413 207.444Z" fill="#E8E8E8"/>
<path d="M199.462 183.123C197.406 190.917 198.56 198.964 200.435 206.65C200.616 207.335 201.626 207.047 201.481 206.361C199.642 198.82 198.488 191.026 200.508 183.412C200.688 182.727 199.642 182.438 199.462 183.123Z" fill="#E8E8E8"/>
<path d="M216.664 184.566C216.916 186.19 217.168 187.778 217.421 189.402C217.529 190.087 218.575 189.798 218.467 189.113C218.214 187.489 217.962 185.902 217.709 184.278C217.601 183.592 216.555 183.881 216.664 184.566Z" fill="#E8E8E8"/>
<path d="M218.034 189.582C220.955 187.381 222.614 191.675 222.65 193.912C222.686 196.727 221.352 199.252 218.286 199.469C217.601 199.505 217.601 200.587 218.286 200.551C222.47 200.299 224.056 196.618 223.66 192.866C223.371 189.979 220.594 186.335 217.493 188.68C216.916 189.077 217.457 190.015 218.034 189.582Z" fill="#E8E8E8"/>
<path d="M217.818 199.83C217.601 201.995 217.205 204.087 216.7 206.216C216.519 206.902 217.565 207.191 217.745 206.505C218.286 204.304 218.683 202.103 218.935 199.83C218.972 199.108 217.89 199.144 217.818 199.83Z" fill="#E8E8E8"/>
<path d="M218.791 191.278C219.945 190.34 220.414 193.299 220.45 193.696C220.486 194.165 220.414 194.67 220.306 195.139C220.017 196.258 219.404 197.16 218.539 197.881C217.998 198.314 218.755 199.072 219.296 198.639C220.955 197.268 221.82 195.067 221.46 192.938C221.207 191.35 219.801 189.041 218.034 190.52C217.493 190.953 218.25 191.711 218.791 191.278Z" fill="#E8E8E8"/>
<path d="M217.89 190.376C217.745 192.902 217.781 195.428 217.962 197.99C217.998 198.675 219.08 198.675 219.044 197.99C218.863 195.464 218.827 192.938 218.972 190.376C219.008 189.655 217.926 189.655 217.89 190.376Z" fill="#E8E8E8"/>
<path d="M201.265 184.35C205.628 185.757 210.172 186.118 214.716 185.433C215.401 185.324 215.113 184.278 214.428 184.386C210.064 185.036 205.737 184.675 201.553 183.304C200.904 183.087 200.616 184.134 201.265 184.35Z" fill="#E8E8E8"/>
<path d="M203.753 181.608C201.625 180.273 204.114 177.35 204.474 175.654C204.835 173.958 203.861 173.128 203.212 171.685C202.275 169.592 204.438 168.04 204.763 166.02C205.051 164.252 203.609 162.772 205.556 161.329C206.097 160.932 205.592 159.994 205.015 160.391C203.825 161.257 203.104 162.592 203.357 164.107C203.537 165.226 203.825 165.803 203.284 166.958C203.032 167.535 202.671 168.04 202.383 168.618C202.022 169.412 201.698 170.242 201.806 171.144C201.878 172.046 202.347 172.443 202.779 173.164C204.042 175.293 202.888 176.376 202.166 178.396C201.625 179.912 201.77 181.572 203.212 182.474C203.789 182.907 204.33 181.969 203.753 181.608Z" fill="#E8E8E8"/>
<path d="M210.172 155.736C209.631 157.143 208.946 158.731 208.838 160.247C208.73 161.618 209.74 162.376 210.064 163.602C210.461 165.082 209.054 166.309 208.91 167.752C208.73 169.628 210.389 170.855 208.766 172.659C208.297 173.164 209.054 173.958 209.523 173.417C210.353 172.515 210.785 171.432 210.641 170.206C210.533 169.304 209.884 168.546 210.028 167.572C210.136 166.814 210.713 166.128 210.966 165.407C211.398 164.252 211.218 163.35 210.641 162.303C209.487 160.138 210.425 158.154 211.218 156.025C211.471 155.375 210.425 155.087 210.172 155.736Z" fill="#E8E8E8"/>
<path d="M215.51 166.489C213.815 168.257 213.021 170.675 213.49 173.128C213.634 173.922 214.031 174.716 214.067 175.546C214.139 176.592 213.49 177.097 213.202 177.999C212.805 179.154 214.211 180.814 213.346 181.716C212.877 182.221 213.634 182.979 214.103 182.474C214.644 181.896 214.788 181.247 214.644 180.453C214.5 179.587 213.995 178.974 214.356 178.072C214.572 177.53 215.005 177.242 215.149 176.628C215.437 175.257 214.716 173.958 214.5 172.623C214.175 170.638 214.896 168.69 216.267 167.247C216.772 166.741 215.978 165.984 215.51 166.489Z" fill="#E8E8E8"/>
<path d="M162.498 206.505C162.389 205.098 162.353 203.727 162.389 202.319C162.209 202.5 162.029 202.68 161.849 202.861C167.655 202.283 173.497 201.995 179.339 201.922C182.152 201.886 184.965 201.922 187.741 202.031C188.427 202.067 189.148 202.067 189.833 202.103C190.302 202.139 191.492 201.958 191.925 202.211C192.97 202.824 192.538 206.144 192.574 207.191C192.61 207.876 193.692 207.876 193.656 207.191C193.62 205.711 193.872 203.763 193.475 202.355C193.295 201.742 193.079 201.417 192.43 201.165C191.131 200.696 189.076 200.948 187.705 200.912C186.083 200.84 184.424 200.804 182.801 200.804C175.805 200.732 168.773 201.056 161.812 201.742C161.524 201.778 161.272 201.958 161.272 202.283C161.199 203.69 161.235 205.062 161.38 206.469C161.452 207.191 162.534 207.191 162.498 206.505Z" fill="#E8E8E8"/>
<path d="M171.513 201.31C171.513 200.66 171.261 199.289 171.549 198.712C172.018 197.665 173.966 197.954 174.903 197.918C176.959 197.846 178.978 197.738 181.034 197.665C182.945 197.593 184.856 197.521 186.804 197.449C188.03 197.413 189.4 197.052 189.905 198.423C190.194 199.217 190.085 200.444 190.158 201.274C190.23 201.959 191.312 201.959 191.239 201.274C191.095 199.83 191.528 196.799 189.653 196.294C188.607 196.006 187.164 196.33 186.046 196.366C184.352 196.439 182.693 196.511 180.998 196.583C178.041 196.691 174.795 196.439 171.91 196.98C169.854 197.341 170.431 199.758 170.395 201.31C170.431 201.995 171.513 201.995 171.513 201.31Z" fill="#E8E8E8"/>
<path d="M183.27 201.995C183.883 203.654 184.099 205.314 183.883 207.046C183.811 207.732 184.893 207.732 184.965 207.046C185.217 205.206 185.001 203.438 184.316 201.706C184.063 201.056 183.017 201.345 183.27 201.995Z" fill="#E8E8E8"/>
<path d="M183.342 197.304C183.991 198.784 184.135 200.335 183.847 201.923C183.702 202.608 184.748 202.897 184.893 202.212C185.253 200.335 185.037 198.531 184.279 196.763C183.991 196.113 183.089 196.655 183.342 197.304Z" fill="#E8E8E8"/>
<path d="M187.417 196.98C187.669 198.279 187.922 199.614 188.066 200.913C188.138 201.598 189.22 201.598 189.148 200.913C188.968 199.505 188.751 198.062 188.463 196.691C188.318 196.005 187.273 196.294 187.417 196.98Z" fill="#E8E8E8"/>
<path d="M189.256 202.175C189.797 203.619 189.905 205.062 189.581 206.541C189.436 207.227 190.446 207.516 190.626 206.83C191.023 205.17 190.915 203.474 190.302 201.887C190.049 201.237 189.004 201.526 189.256 202.175Z" fill="#E8E8E8"/>
<path d="M150.164 109.189C150.164 110.668 150.236 112.148 150.345 113.591C150.417 114.277 151.499 114.277 151.426 113.591C151.282 112.112 151.21 110.668 151.246 109.189C151.246 108.503 150.164 108.503 150.164 109.189Z" fill="#E8E8E8"/>
<path d="M151.174 114.782C177.175 114.782 203.14 114.782 229.141 114.782C229.826 114.782 229.826 113.699 229.141 113.699C203.14 113.699 177.175 113.699 151.174 113.699C150.489 113.699 150.489 114.782 151.174 114.782Z" fill="#E8E8E8"/>
<path d="M151.03 109.585C177.031 109.585 202.996 109.585 228.997 109.585C229.682 109.585 229.682 108.503 228.997 108.503C202.996 108.503 177.031 108.503 151.03 108.503C150.309 108.503 150.309 109.585 151.03 109.585Z" fill="#E8E8E8"/>
<path d="M228.781 109.189C228.781 110.885 228.781 112.545 228.781 114.241C228.781 114.926 229.862 114.926 229.862 114.241C229.862 112.545 229.862 110.885 229.862 109.189C229.862 108.503 228.781 108.503 228.781 109.189Z" fill="#E8E8E8"/>
<path d="M154.131 93.6006C155.321 98.6523 156.511 103.704 157.773 108.72C157.954 109.405 159 109.116 158.819 108.431C157.557 103.415 156.367 98.3636 155.177 93.3119C155.033 92.6264 153.987 92.915 154.131 93.6006Z" fill="#E8E8E8"/>
<path d="M154.636 93.5284C157.305 93.4563 159.937 93.348 162.57 93.1676C163.832 93.0954 165.094 92.9872 166.356 92.8789C167.799 92.7346 169.386 92.4099 170.756 93.0594C171.369 93.348 171.946 92.4099 171.297 92.1212C169.061 91.0387 166.284 91.7964 163.904 91.9769C160.803 92.1934 157.701 92.3738 154.564 92.4459C153.915 92.4459 153.915 93.5284 154.636 93.5284Z" fill="#E8E8E8"/>
<path d="M170.395 92.6626C169.963 98.003 169.025 103.271 167.655 108.467C167.474 109.153 168.52 109.441 168.7 108.756C170.107 103.488 171.044 98.1112 171.477 92.6626C171.513 91.977 170.431 91.977 170.395 92.6626Z" fill="#E8E8E8"/>
<path d="M157.918 92.2293C155.826 89.7396 154.167 87.1776 153.121 84.0745C152.22 81.4404 151.715 78.6981 151.21 75.9557C150.994 76.1722 150.777 76.3887 150.561 76.6052C157.197 78.8785 160.514 85.3374 161.813 91.8324C161.957 92.518 163.003 92.2293 162.858 91.5437C161.488 84.6518 157.846 77.9764 150.849 75.5949C150.417 75.4506 150.128 75.8836 150.2 76.2444C150.777 79.3836 151.354 82.5229 152.508 85.4817C153.59 88.2601 155.249 90.6777 157.16 92.951C157.593 93.5283 158.35 92.7706 157.918 92.2293Z" fill="#E8E8E8"/>
<path d="M161.127 85.374C160.19 82.0183 163.327 79.5646 165.13 77.1831C166.861 74.9099 168.268 72.4201 169.422 69.786C169.097 69.75 168.773 69.7139 168.448 69.6417C170.215 76.8945 171.91 85.5905 166.284 91.6525C165.815 92.1577 166.573 92.9155 167.042 92.4103C172.92 86.0235 171.333 77.0027 169.458 69.353C169.35 68.92 168.664 68.7757 168.484 69.2087C167.042 72.6005 165.094 75.6315 162.714 78.446C160.947 80.5028 159.324 82.8121 160.118 85.6627C160.262 86.3122 161.308 86.0596 161.127 85.374Z" fill="#E8E8E8"/>
<path d="M186.515 108.72C186.515 106.663 186.515 104.606 186.515 102.585C186.515 101.9 185.433 101.9 185.433 102.585C185.433 104.642 185.433 106.699 185.433 108.72C185.433 109.441 186.515 109.441 186.515 108.72Z" fill="#E8E8E8"/>
<path d="M185.974 102.982C199.065 102.982 212.12 102.982 225.21 102.982C225.896 102.982 225.896 101.899 225.21 101.899C212.12 101.899 199.065 101.899 185.974 101.899C185.289 101.899 185.289 102.982 185.974 102.982Z" fill="#E8E8E8"/>
<path d="M224.814 102.91C224.814 104.895 224.814 106.916 224.814 108.9C224.814 109.586 225.896 109.586 225.896 108.9C225.896 106.916 225.896 104.895 225.896 102.91C225.896 102.189 224.814 102.189 224.814 102.91Z" fill="#E8E8E8"/>
<path d="M193.764 102.26C193.764 101.069 193.764 99.8426 193.764 98.6519C193.764 97.9663 192.682 97.9663 192.682 98.6519C192.682 99.8426 192.682 101.069 192.682 102.26C192.682 102.982 193.764 102.982 193.764 102.26Z" fill="#E8E8E8"/>
<path d="M193.223 98.7241C203.501 98.7241 213.815 98.7241 224.092 98.7241C224.778 98.7241 224.778 97.6416 224.092 97.6416C213.815 97.6416 203.501 97.6416 193.223 97.6416C192.538 97.6416 192.538 98.7241 193.223 98.7241Z" fill="#E8E8E8"/>
<path d="M223.732 98.1829C223.732 99.554 223.732 100.925 223.732 102.296C223.732 102.982 224.814 102.982 224.814 102.296C224.814 100.925 224.814 99.554 224.814 98.1829C224.814 97.4612 223.732 97.4612 223.732 98.1829Z" fill="#E8E8E8"/>
<path d="M202.13 97.7144C202.13 95.8381 202.13 93.9257 202.13 92.0493C202.13 91.3638 201.048 91.3638 201.048 92.0493C201.048 93.9257 201.048 95.8381 201.048 97.7144C201.048 98.4 202.13 98.4 202.13 97.7144Z" fill="#E8E8E8"/>
<path d="M202.058 92.2651C208.946 92.2651 215.798 92.2651 222.686 92.2651C223.371 92.2651 223.371 91.1826 222.686 91.1826C215.798 91.1826 208.946 91.1826 202.058 91.1826C201.373 91.1826 201.373 92.2651 202.058 92.2651Z" fill="#E8E8E8"/>
<path d="M222.47 91.5435C222.47 93.6002 222.47 95.657 222.47 97.6777C222.47 98.3632 223.551 98.3632 223.551 97.6777C223.551 95.6209 223.551 93.5642 223.551 91.5435C223.551 90.8579 222.47 90.8579 222.47 91.5435Z" fill="#E8E8E8"/>
<path d="M215.257 92.0127C215.762 93.9612 215.87 95.8736 215.69 97.8582C215.618 98.5438 216.7 98.5438 216.772 97.8582C216.988 95.7654 216.844 93.7447 216.303 91.724C216.123 91.0385 215.077 91.3271 215.257 92.0127Z" fill="#E8E8E8"/>
<path d="M218.503 92.3374C218.683 93.9251 218.755 95.4767 218.683 97.0643C218.647 97.7499 219.729 97.7499 219.765 97.0643C219.837 95.4767 219.801 93.9251 219.585 92.3374C219.512 91.6518 218.431 91.6518 218.503 92.3374Z" fill="#E8E8E8"/>
<path d="M214.103 98.4717C214.283 99.6624 214.247 100.889 214.103 102.116C214.031 102.802 215.113 102.802 215.185 102.116C215.365 100.817 215.329 99.5181 215.149 98.183C215.041 97.4974 213.995 97.7861 214.103 98.4717Z" fill="#E8E8E8"/>
<path d="M216.844 98.2915C217.06 99.2657 216.988 100.204 216.664 101.178C216.447 101.828 217.493 102.116 217.709 101.467C218.106 100.348 218.142 99.1936 217.89 98.0028C217.745 97.3533 216.7 97.642 216.844 98.2915Z" fill="#E8E8E8"/>
<path d="M208.694 102.441C208.91 104.606 208.946 106.735 208.802 108.9C208.766 109.585 209.848 109.585 209.884 108.9C210.028 106.735 209.992 104.606 209.776 102.441C209.704 101.755 208.622 101.755 208.694 102.441Z" fill="#E8E8E8"/>
<path d="M219.801 102.585C220.053 104.606 220.053 106.591 219.729 108.611C219.621 109.297 220.667 109.586 220.775 108.9C221.099 106.807 221.171 104.714 220.883 102.585C220.811 101.9 219.729 101.9 219.801 102.585Z" fill="#E8E8E8"/>
<path d="M258.857 43.0842C258.857 49.3627 258.857 55.6412 258.857 61.9197C258.857 62.6053 259.939 62.6053 259.939 61.9197C259.939 55.6412 259.939 49.3627 259.939 43.0842C259.939 42.3626 258.857 42.3626 258.857 43.0842Z" fill="#E8E8E8"/>
<path d="M243.71 62.7134C253.628 62.7134 263.581 62.7134 273.498 62.7134C274.183 62.7134 274.183 61.6309 273.498 61.6309C263.581 61.6309 253.628 61.6309 243.71 61.6309C243.025 61.6309 243.025 62.7134 243.71 62.7134Z" fill="#E8E8E8"/>
<path d="M268.269 62.9302C268.269 69.1005 268.269 75.3068 268.269 81.477C268.269 82.1626 269.351 82.1626 269.351 81.477C269.351 75.3068 269.351 69.1005 269.351 62.9302C269.351 62.2446 268.269 62.2446 268.269 62.9302Z" fill="#E8E8E8"/>
<path d="M428.422 346.616C427.485 348.168 428.819 349.972 431.884 356.756C436.573 367.112 436.356 369.493 435.599 371.081C434.337 373.679 431.632 374.004 431.884 375.267C432.245 377.107 438.195 378.514 440.287 376.241C441.225 375.23 441.08 373.823 440.792 371.045C439.494 359.534 439.241 358.704 438.808 355.204C438.051 348.998 438.448 347.41 436.825 346.039C434.409 344.127 429.721 344.524 428.422 346.616Z" fill="#161616" stroke="#161616" stroke-width="3" stroke-miterlimit="10"/>
<path d="M484.536 345.029C487.24 343.117 491.965 345.138 494.417 347.519C496.473 349.468 496.004 350.767 498.384 352.463C498.925 352.859 501.413 354.628 504.55 354.447C506.967 354.303 507.435 353.112 509.239 353.473C510.501 353.689 511.042 354.411 513.458 356.684C517.245 360.293 518.651 361.123 518.399 361.628C518.146 362.097 516.956 361.844 511.727 361.123C507.904 360.581 505.921 360.329 504.55 360.257C501.413 360.112 501.269 360.509 496.653 360.617C491.893 360.762 489.476 360.762 487.745 359.86C483.887 357.839 482.877 353.365 482.805 352.932C482.697 352.354 481.651 347.05 484.536 345.029Z" fill="#161616" stroke="#161616" stroke-width="3" stroke-miterlimit="10"/>
<path d="M432.137 331.281C434.481 331.354 435.491 334.096 437.582 336.477C443.028 342.756 452.512 342.972 460.302 343.153C475.015 343.478 478.982 337.885 486.014 341.673C489.873 343.766 493.515 348.06 493.443 352.787C493.335 358.957 486.88 363.323 482.336 364.911C478.297 366.318 476.097 365.452 465.026 363.432C447.211 360.148 443.677 360.653 436.861 356.756C432.966 354.519 429.468 351.669 427.233 347.375C426.295 345.57 424.816 342.576 425.502 338.967C426.187 335.178 429.216 331.173 432.137 331.281Z" fill="#161616" stroke="#161616" stroke-width="3" stroke-miterlimit="10"/>
<path d="M484.031 341.926C484.788 340.879 487.781 343.513 490.955 342.178C493.66 341.024 494.886 337.668 495.643 335.503C497.049 331.642 496.112 330.271 497.626 328.828C499.069 327.42 500.331 328.322 504.55 327.096C507.399 326.266 509.707 325.616 510.97 323.632C511.979 322.044 511.258 321.25 511.943 317.209C512.16 315.982 512.989 311.075 514.179 311.038C515.045 311.002 516.09 313.6 516.163 315.982C516.199 316.956 516.054 317.642 514.684 322.152C513.818 324.967 513.386 326.374 513.205 326.59C511.438 328.791 509.094 327.709 504.55 329.802C502.351 330.812 500.223 331.786 499.105 333.987C498.095 336.008 498.961 336.91 497.879 339.905C496.869 342.647 495.246 344.271 494.922 344.596C493.732 345.787 491.315 348.132 488.503 347.555C485.329 346.977 483.274 342.972 484.031 341.926Z" fill="#161616" stroke="#161616" stroke-width="3" stroke-miterlimit="10"/>
<path d="M475.628 358.993C475.196 359.859 473.97 362.349 474.402 365.416C474.835 368.555 476.782 371.261 478.117 373.066C479.956 375.628 481.038 376.169 480.821 377.251C480.425 379.633 475.087 379.813 475.124 380.968C475.196 382.123 480.605 382.7 484.752 382.447C487.854 382.267 488.575 381.726 488.972 381.22C489.837 379.994 488.863 378.55 488.467 375.303C488.178 372.993 488.394 371.37 488.719 368.627C489.26 364.117 490.126 363.828 490.45 360.473C490.703 357.802 491.135 353.364 488.972 351.812C486.014 349.72 478.477 353.364 475.628 358.993Z" fill="#161616" stroke="#161616" stroke-width="3" stroke-miterlimit="10"/>
<path d="M402.241 336.225C402.818 339.147 405.992 340.988 410.644 342.9C415.584 344.957 429.577 350.73 432.137 346.869C432.786 345.895 432.57 344.524 432.137 343.658C431.055 341.601 428.098 341.818 422.977 340.952C418.505 340.194 414.358 339.508 410.139 337.235C406.244 335.178 403.936 332.688 402.71 333.518C401.844 334.132 402.205 336.044 402.241 336.225Z" fill="#161616" stroke="#161616" stroke-width="3" stroke-miterlimit="10"/>
<path d="M396.615 323.487C397.733 325.363 399.104 327.059 400.727 328.575C401.231 329.044 401.989 328.286 401.484 327.817C399.933 326.374 398.635 324.75 397.553 322.946C397.192 322.332 396.255 322.873 396.615 323.487Z" fill="#161616"/>
<path d="M391.963 326.193C393.081 327.564 394.524 328.538 396.147 329.116C396.796 329.368 397.084 328.322 396.435 328.069C394.957 327.528 393.694 326.626 392.721 325.435C392.288 324.894 391.531 325.652 391.963 326.193Z" fill="#161616"/>
<path d="M392.144 333.302C393.153 333.41 394.163 333.482 395.209 333.59C395.894 333.663 395.894 332.58 395.209 332.508C394.199 332.4 393.189 332.328 392.144 332.219C391.458 332.147 391.458 333.23 392.144 333.302Z" fill="#161616"/>
<path d="M421.751 326.085C420.489 326.591 418.505 327.529 416.558 329.297C414.899 330.812 413.312 332.256 413.096 334.24C412.699 337.849 417.099 341.276 420.525 342.648C421.138 342.9 428.386 345.643 432.389 341.421C435.094 338.534 434.481 334.421 434.373 333.771C433.543 328.395 428.711 325.869 428.206 325.616C426.98 323.956 425.718 322.333 424.492 320.673C423.59 322.477 422.689 324.281 421.751 326.085Z" fill="#161616" stroke="#161616" stroke-width="3" stroke-miterlimit="10"/>
<path d="M418.397 330.957C418.938 332.508 420.381 333.555 422.039 333.518C422.725 333.482 422.725 332.4 422.039 332.436C420.885 332.472 419.803 331.75 419.443 330.668C419.19 330.018 418.145 330.307 418.397 330.957Z" fill="white"/>
<path d="M413.132 333.518C413.457 333.518 413.601 333.627 413.637 333.879C413.529 333.988 413.457 334.132 413.348 334.24C413.132 334.312 413.096 334.204 413.024 334.132C412.988 334.096 413.024 334.06 412.988 334.096C412.952 334.132 412.952 334.24 412.916 334.312C413.132 334.204 413.348 334.06 413.565 333.951C413.601 333.988 413.601 333.988 413.565 333.951C413.601 333.951 413.601 333.988 413.601 333.988C413.637 334.024 413.601 334.024 413.601 333.951C413.637 333.988 413.637 333.988 413.601 333.951C413.565 333.663 413.204 333.518 412.952 333.591C412.663 333.663 412.519 333.951 412.591 334.24C412.663 334.601 412.952 334.89 413.312 334.998C413.601 335.106 413.853 334.89 413.961 334.637C414.106 334.312 414.142 333.951 413.961 333.663C413.781 333.338 413.384 333.158 413.024 333.266C412.663 333.374 412.483 333.771 412.555 334.132C412.663 334.493 413.024 334.745 413.384 334.637C413.673 334.565 413.853 334.276 413.745 333.988C413.709 333.627 413.42 333.446 413.132 333.518Z" fill="white"/>
<path d="M412.916 334.457C413.457 336.297 415.62 337.199 417.279 336.333C417.892 336.009 417.351 335.07 416.738 335.395C415.656 335.936 414.286 335.287 413.961 334.168C413.781 333.483 412.735 333.771 412.916 334.457Z" fill="white"/>
<path d="M169.818 304.001C170.612 304.146 171.766 304.362 173.208 304.543C180.096 305.553 185.001 305.517 191.059 305.589C194.701 305.625 200.075 305.733 206.818 305.986C213.995 305.481 221.207 304.976 228.384 304.434C218.467 303.424 208.549 302.378 198.632 301.367C189.003 302.233 179.411 303.099 169.818 304.001Z" fill="#3F64E9"/>
<path d="M191.023 326.409C193.079 326.842 195.134 327.275 197.19 327.708C204.33 327.275 212.156 326.193 220.414 324.028C222.001 323.631 223.551 323.198 225.03 322.729C213.706 323.955 202.383 325.182 191.023 326.409Z" fill="#3F64E9"/>
<path d="M170.287 354.879C170.323 357.91 170.359 360.977 170.395 364.008C187.056 366.137 203.753 368.266 220.414 370.395C220.414 367.364 220.414 364.297 220.414 361.266C230.62 356.719 240.789 352.173 250.995 347.626C248.146 347.193 245.297 346.76 242.448 346.327C242.124 346.832 241.799 347.337 241.511 347.879C229.141 351.704 216.772 355.564 204.402 359.389C193.043 357.874 181.647 356.358 170.287 354.879Z" fill="#3F64E9"/>
<path d="M151.751 313.636C164.229 315.152 176.742 316.667 189.22 318.183C203.14 317.209 217.06 316.198 230.98 315.224C227.951 314.25 224.922 313.312 221.893 312.337C215.618 312.806 209.307 313.276 203.032 313.745C191.167 312.915 179.339 312.049 167.474 311.219C162.245 312.013 156.98 312.806 151.751 313.636Z" fill="#FFB800"/>
<path d="M198.596 335.755C202.455 336.333 206.35 336.91 210.208 337.487C220.883 334.709 231.521 331.967 242.196 329.188C238.662 328.647 235.164 328.142 231.629 327.601C220.594 330.343 209.595 333.049 198.596 335.755Z" fill="#FFB800"/>
<path d="M154.203 344.92C170.648 347.266 187.056 349.647 203.501 351.993C208.585 350.91 213.887 349.647 219.404 348.132C226.977 346.075 234.01 343.802 240.537 341.492C238.085 341.059 235.632 340.626 233.18 340.193C225.499 342.322 217.817 344.451 210.1 346.58C196.468 344.704 182.837 342.864 169.205 340.987C164.229 342.322 159.216 343.621 154.203 344.92Z" fill="#FFB800"/>
<path d="M167.546 305.048C167.546 307.213 167.546 309.414 167.546 311.579C167.546 312.265 168.628 312.265 168.628 311.579C168.628 309.414 168.628 307.213 168.628 305.048C168.628 304.363 167.546 304.363 167.546 305.048Z" fill="#161616"/>
<path d="M168.268 305.265C181.034 305.698 193.836 306.095 206.602 306.528C207.287 306.564 207.287 305.482 206.602 305.445C193.836 305.012 181.034 304.616 168.268 304.183C167.546 304.146 167.546 305.229 168.268 305.265Z" fill="#161616"/>
<path d="M168.268 312.409C179.88 312.625 191.492 313.166 203.068 314.032C203.753 314.069 203.753 312.986 203.068 312.95C191.492 312.12 179.88 311.579 168.268 311.326C167.546 311.326 167.546 312.409 168.268 312.409Z" fill="#161616"/>
<path d="M206.963 306.671C214.355 306.022 221.784 305.589 229.177 305.336C229.862 305.3 229.862 304.218 229.177 304.254C221.748 304.47 214.355 304.939 206.963 305.589C206.277 305.625 206.241 306.707 206.963 306.671Z" fill="#161616"/>
<path d="M203.248 314.069C211.939 313.203 220.666 312.373 229.358 311.507C230.043 311.435 230.043 310.352 229.358 310.424C220.666 311.29 211.939 312.12 203.248 312.986C202.563 313.058 202.563 314.141 203.248 314.069Z" fill="#161616"/>
<path d="M206.422 306.527C206.169 306.924 205.989 307.321 205.917 307.79C205.809 308.584 206.133 309.198 205.736 309.991C205.268 311.002 204.979 311.796 205.159 312.914C205.268 313.6 206.313 313.311 206.205 312.625C206.025 311.435 206.638 310.893 206.999 309.919C207.323 308.909 206.71 308.043 207.359 307.069C207.72 306.491 206.782 305.914 206.422 306.527Z" fill="#161616"/>
<path d="M168.412 304.94C178.149 303.605 187.922 302.667 197.767 302.053C198.452 302.017 198.452 300.935 197.767 300.971C187.85 301.584 177.968 302.558 168.159 303.893C167.438 304.002 167.727 305.012 168.412 304.94Z" fill="#161616"/>
<path d="M197.046 302.089C207.54 302.161 217.998 303.1 228.312 304.904C228.997 305.012 229.285 303.966 228.6 303.857C218.178 302.017 207.612 301.043 197.046 300.971C196.36 301.007 196.36 302.089 197.046 302.089Z" fill="#161616"/>
<path d="M170.395 308.62C173.497 309.342 176.742 308.584 179.916 308.62C183.45 308.656 186.984 309.053 190.518 309.486C191.203 309.558 191.203 308.476 190.518 308.404C187.237 308.043 183.919 307.646 180.601 307.574C177.391 307.502 173.857 308.332 170.684 307.61C169.999 307.393 169.71 308.44 170.395 308.62Z" fill="#161616"/>
<path d="M184.676 310.966C190.194 311.147 195.747 311.399 201.265 311.724C201.95 311.76 201.95 310.678 201.265 310.641C195.747 310.317 190.194 310.064 184.676 309.884C183.991 309.848 183.991 310.93 184.676 310.966Z" fill="#161616"/>
<path d="M193.692 309.054C196.865 309.306 200.075 309.631 203.248 310.028C203.933 310.1 203.933 309.018 203.248 308.945C200.075 308.549 196.901 308.224 193.692 307.971C192.97 307.899 193.006 308.982 193.692 309.054Z" fill="#161616"/>
<path d="M209.09 309.595C211.615 309.956 214.067 309.342 216.555 308.981C219.512 308.512 222.506 308.151 225.499 307.971C226.184 307.935 226.184 306.852 225.499 306.889C223.083 307.033 220.666 307.322 218.286 307.646C215.401 308.043 212.336 308.981 209.415 308.584C208.694 308.44 208.405 309.487 209.09 309.595Z" fill="#161616"/>
<path d="M213.634 311.471C215.87 311.723 217.926 310.929 220.089 310.496C222.614 309.955 225.21 309.739 227.771 309.703C228.456 309.703 228.456 308.62 227.771 308.62C225.535 308.656 223.335 308.837 221.135 309.197C218.683 309.63 216.159 310.713 213.634 310.424C212.949 310.316 212.949 311.399 213.634 311.471Z" fill="#161616"/>
<path d="M228.24 305.77C228.276 307.61 228.312 309.414 228.384 311.254C228.384 311.94 229.466 311.94 229.466 311.254C229.43 309.414 229.394 307.61 229.321 305.77C229.321 305.048 228.24 305.048 228.24 305.77Z" fill="#161616"/>
<path d="M150.958 313.889C150.994 316.306 150.922 318.724 150.741 321.142C150.705 321.827 151.787 321.827 151.823 321.142C152.003 318.724 152.076 316.306 152.039 313.889C152.003 313.167 150.922 313.167 150.958 313.889Z" fill="#161616"/>
<path d="M151.499 322.188C164.12 323.775 176.778 325.146 189.472 326.373C190.158 326.445 190.158 325.363 189.472 325.291C176.778 324.064 164.12 322.693 151.499 321.105C150.777 321.033 150.813 322.115 151.499 322.188Z" fill="#161616"/>
<path d="M189.256 318.652C189.148 320.961 189.004 323.234 188.895 325.544C188.859 326.229 189.941 326.229 189.977 325.544C190.085 323.234 190.23 320.961 190.338 318.652C190.374 317.966 189.292 317.966 189.256 318.652Z" fill="#161616"/>
<path d="M189.797 318.868C203.717 318.327 217.637 317.28 231.485 315.801C232.17 315.729 232.17 314.646 231.485 314.718C217.637 316.198 203.717 317.208 189.797 317.785C189.112 317.821 189.112 318.904 189.797 318.868Z" fill="#161616"/>
<path d="M189.977 326.662C203.717 325.038 217.493 323.631 231.305 322.368C231.99 322.296 231.99 321.214 231.305 321.286C217.529 322.549 203.753 323.992 189.977 325.58C189.292 325.652 189.292 326.734 189.977 326.662Z" fill="#161616"/>
<path d="M231.016 315.656C231.016 317.605 231.052 319.553 231.052 321.502C231.052 322.188 232.134 322.188 232.134 321.502C232.134 319.553 232.098 317.605 232.098 315.656C232.098 314.935 231.016 314.935 231.016 315.656Z" fill="#161616"/>
<path d="M151.643 313.816C157.052 313.094 162.462 312.445 167.907 311.939C168.592 311.867 168.592 310.785 167.907 310.857C162.389 311.362 156.872 312.012 151.354 312.769C150.669 312.842 150.958 313.888 151.643 313.816Z" fill="#161616"/>
<path d="M152.184 314.537C164.661 315.44 177.103 316.739 189.508 318.434C190.194 318.543 190.482 317.496 189.797 317.388C177.319 315.692 164.77 314.357 152.184 313.455C151.499 313.419 151.499 314.501 152.184 314.537Z" fill="#161616"/>
<path d="M221.676 312.698C224.922 313.311 228.131 314.141 231.269 315.224C231.918 315.44 232.206 314.394 231.557 314.177C228.42 313.131 225.246 312.265 221.965 311.651C221.28 311.507 220.991 312.553 221.676 312.698Z" fill="#161616"/>
<path d="M157.521 319.518C164.012 319.193 170.215 321.466 176.67 321.574C177.355 321.574 177.355 320.492 176.67 320.492C170.215 320.384 163.976 318.11 157.521 318.435C156.836 318.471 156.836 319.554 157.521 319.518Z" fill="#161616"/>
<path d="M169.926 318.11C174.687 319.878 179.844 318.795 184.748 319.878C185.433 320.022 185.722 318.976 185.037 318.832C180.132 317.749 174.975 318.832 170.215 317.063C169.566 316.811 169.277 317.857 169.926 318.11Z" fill="#161616"/>
<path d="M192.105 322.837C204.078 320.131 216.519 319.842 228.708 319.12C229.394 319.084 229.394 318.002 228.708 318.038C216.375 318.796 203.897 319.048 191.816 321.791C191.131 321.935 191.42 322.981 192.105 322.837Z" fill="#161616"/>
<path d="M212.12 321.935C216.375 322.044 220.63 321.647 224.778 320.745C225.463 320.6 225.174 319.554 224.489 319.698C220.414 320.564 216.267 320.961 212.12 320.853C211.434 320.817 211.434 321.899 212.12 321.935Z" fill="#161616"/>
<path d="M158.603 322.765C158.603 325.471 158.603 328.142 158.603 330.848C158.603 331.533 159.685 331.533 159.685 330.848C159.685 328.142 159.685 325.471 159.685 322.765C159.685 322.08 158.603 322.08 158.603 322.765Z" fill="#161616"/>
<path d="M159 331.533C164.842 333.265 171.297 333.301 177.355 333.878C183.774 334.492 190.23 335.141 196.649 335.755C197.334 335.827 197.334 334.744 196.649 334.672C190.446 334.059 184.243 333.482 178.041 332.868C171.874 332.255 165.238 332.255 159.288 330.487C158.639 330.306 158.35 331.353 159 331.533Z" fill="#161616"/>
<path d="M196.613 327.384C196.649 329.874 196.649 332.327 196.577 334.817C196.577 335.503 197.659 335.503 197.659 334.817C197.731 332.327 197.731 329.874 197.695 327.384C197.695 326.662 196.613 326.662 196.613 327.384Z" fill="#161616"/>
<path d="M190.843 327.203C192.826 327.384 194.81 327.709 196.757 328.178C197.442 328.358 197.731 327.312 197.045 327.131C194.99 326.626 192.934 326.301 190.843 326.121C190.121 326.085 190.121 327.167 190.843 327.203Z" fill="#161616"/>
<path d="M197.298 327.961C207.395 327.131 217.421 325.616 227.338 323.342C228.023 323.198 227.735 322.152 227.05 322.296C217.241 324.533 207.323 326.049 197.298 326.878C196.613 326.915 196.613 327.997 197.298 327.961Z" fill="#161616"/>
<path d="M197.298 335.899C208.766 333.698 220.162 330.992 231.377 327.78C232.062 327.6 231.774 326.553 231.089 326.734C219.837 329.945 208.477 332.687 197.009 334.852C196.36 334.997 196.649 336.043 197.298 335.899Z" fill="#161616"/>
<path d="M230.836 321.971C230.872 323.775 230.836 325.58 230.692 327.348C230.62 328.033 231.702 328.033 231.774 327.348C231.918 325.543 231.954 323.739 231.918 321.971C231.918 321.286 230.836 321.286 230.836 321.971Z" fill="#161616"/>
<path d="M227.338 323.342C228.564 323.342 229.79 323.162 230.98 322.873C231.665 322.692 231.377 321.646 230.692 321.826C229.574 322.115 228.492 322.259 227.338 322.259C226.653 322.259 226.653 323.342 227.338 323.342Z" fill="#161616"/>
<path d="M165.058 329.079C173.785 330.126 182.476 331.136 191.203 332.038C191.889 332.11 191.889 331.028 191.203 330.955C182.476 330.053 173.749 329.079 165.058 327.997C164.373 327.924 164.373 329.007 165.058 329.079Z" fill="#161616"/>
<path d="M161.704 326.084C165.383 326.445 169.061 326.734 172.739 326.914C173.425 326.95 173.425 325.868 172.739 325.832C169.061 325.651 165.383 325.363 161.704 325.002C161.019 324.966 161.019 326.048 161.704 326.084Z" fill="#161616"/>
<path d="M177.355 328.069C182.007 328.069 186.623 328.394 191.239 329.115C191.925 329.223 192.213 328.177 191.528 328.069C186.84 327.347 182.116 326.986 177.355 326.986C176.67 326.986 176.634 328.069 177.355 328.069Z" fill="#161616"/>
<path d="M199.065 331.569C204.258 330.739 209.415 329.801 214.572 328.754C215.257 328.61 214.968 327.564 214.283 327.708C209.126 328.754 203.969 329.693 198.776 330.522C198.091 330.631 198.38 331.677 199.065 331.569Z" fill="#161616"/>
<path d="M208.874 332.002C215.113 329.909 221.532 328.358 228.023 327.42C228.708 327.311 228.42 326.265 227.735 326.373C221.207 327.311 214.824 328.827 208.586 330.956C207.936 331.208 208.225 332.255 208.874 332.002Z" fill="#161616"/>
<path d="M224.669 326.445C226.436 325.904 228.203 325.579 230.043 325.435C230.728 325.399 230.728 324.316 230.043 324.352C228.131 324.497 226.22 324.822 224.381 325.399C223.732 325.615 224.02 326.662 224.669 326.445Z" fill="#161616"/>
<path d="M166.825 332.941C166.789 335.503 166.717 338.065 166.681 340.627C166.681 341.312 167.763 341.312 167.763 340.627C167.799 338.065 167.871 335.503 167.907 332.941C167.943 332.255 166.861 332.255 166.825 332.941Z" fill="#161616"/>
<path d="M167.33 341.348C181.322 343.224 195.35 345.101 209.343 346.941C210.028 347.049 210.028 345.967 209.343 345.858C195.35 343.982 181.322 342.106 167.33 340.265C166.645 340.157 166.645 341.24 167.33 341.348Z" fill="#161616"/>
<path d="M198.163 336.116C202.347 336.765 206.53 337.307 210.749 337.703C211.434 337.776 211.434 336.693 210.749 336.621C206.638 336.224 202.527 335.719 198.452 335.069C197.767 334.961 197.478 336.008 198.163 336.116Z" fill="#161616"/>
<path d="M210.894 337.595C221.64 336.585 231.485 331.678 242.052 329.874C242.737 329.765 242.448 328.719 241.763 328.827C231.269 330.595 221.532 335.467 210.894 336.477C210.208 336.585 210.208 337.668 210.894 337.595Z" fill="#161616"/>
<path d="M231.305 327.961C234.947 328.502 238.626 328.899 242.304 329.115C242.989 329.151 242.989 328.069 242.304 328.033C238.698 327.816 235.127 327.455 231.593 326.914C230.908 326.806 230.62 327.852 231.305 327.961Z" fill="#161616"/>
<path d="M209.631 337.487C209.523 340.301 209.451 343.152 209.343 345.966C209.307 346.652 210.389 346.652 210.425 345.966C210.533 343.152 210.605 340.301 210.713 337.487C210.749 336.765 209.667 336.765 209.631 337.487Z" fill="#161616"/>
<path d="M209.92 346.977C220.702 344.379 231.341 341.312 241.871 337.812C242.52 337.596 242.232 336.549 241.583 336.766C231.052 340.266 220.414 343.297 209.631 345.931C208.946 346.075 209.235 347.122 209.92 346.977Z" fill="#161616"/>
<path d="M241.583 329.369C241.871 332.003 241.943 334.637 241.799 337.271C241.763 337.957 242.845 337.957 242.881 337.271C242.989 334.637 242.917 332.003 242.665 329.369C242.592 328.683 241.511 328.683 241.583 329.369Z" fill="#161616"/>
<path d="M170.107 338.317C169.854 338.353 169.638 338.389 169.386 338.389C168.7 338.461 168.7 339.399 169.386 339.472C178.545 340.446 187.633 341.925 196.757 343.369C197.442 343.477 197.731 342.43 197.046 342.322C187.85 340.843 178.654 339.363 169.386 338.389C169.386 338.75 169.386 339.111 169.386 339.472C169.638 339.436 169.854 339.399 170.107 339.399C170.792 339.327 170.792 338.245 170.107 338.317Z" fill="#161616"/>
<path d="M172.92 336.729C175.66 337.415 178.401 338.064 181.178 338.605C181.863 338.75 182.152 337.703 181.467 337.559C178.69 337.018 175.949 336.404 173.208 335.683C172.559 335.538 172.271 336.585 172.92 336.729Z" fill="#161616"/>
<path d="M184.352 338.137C191.6 339.255 198.813 340.374 206.061 341.493C206.746 341.601 207.035 340.554 206.35 340.446C199.101 339.328 191.889 338.209 184.64 337.09C183.955 337.018 183.666 338.065 184.352 338.137Z" fill="#161616"/>
<path d="M215.618 339.76C221.64 339.615 227.086 336.693 233 335.791C233.685 335.682 233.396 334.636 232.711 334.744C226.905 335.646 221.568 338.533 215.618 338.677C214.932 338.713 214.932 339.796 215.618 339.76Z" fill="#161616"/>
<path d="M213.67 343.404C216.303 342.755 218.935 342.105 221.568 341.42C222.253 341.239 221.965 340.193 221.279 340.373C218.647 341.023 216.014 341.672 213.382 342.358C212.697 342.502 212.985 343.549 213.67 343.404Z" fill="#161616"/>
<path d="M231.593 338.57C234.695 337.74 237.796 336.91 240.897 336.044C241.583 335.863 241.294 334.817 240.609 334.997C237.508 335.827 234.406 336.657 231.305 337.523C230.62 337.704 230.908 338.75 231.593 338.57Z" fill="#161616"/>
<path d="M152.941 345.281C158.675 344.667 164.337 343.477 169.818 341.672C170.467 341.456 170.179 340.409 169.53 340.626C164.12 342.394 158.603 343.585 152.941 344.198C152.256 344.27 152.256 345.353 152.941 345.281Z" fill="#161616"/>
<path d="M152.508 345.172C152.617 347.626 152.761 350.044 152.869 352.497C152.905 353.183 153.987 353.183 153.951 352.497C153.843 350.044 153.698 347.626 153.59 345.172C153.554 344.487 152.472 344.487 152.508 345.172Z" fill="#161616"/>
<path d="M153.482 353.219C170.143 355.42 186.768 357.621 203.429 359.786C204.114 359.894 204.114 358.776 203.429 358.704C186.768 356.503 170.143 354.302 153.482 352.137C152.797 352.028 152.833 353.111 153.482 353.219Z" fill="#161616"/>
<path d="M153.157 345.75C169.241 348.023 185.325 350.08 201.445 351.957C202.13 352.029 202.13 350.946 201.445 350.874C185.433 349.034 169.422 346.977 153.446 344.704C152.797 344.632 152.472 345.678 153.157 345.75Z" fill="#161616"/>
<path d="M203.465 360.003C216.339 356.286 229.141 352.317 241.835 348.059C242.484 347.843 242.196 346.796 241.547 347.013C228.817 351.234 216.05 355.24 203.176 358.956C202.491 359.137 202.779 360.183 203.465 360.003Z" fill="#161616"/>
<path d="M207.756 351.523C219.188 348.961 230.439 345.714 241.475 341.745C242.124 341.528 241.835 340.482 241.186 340.698C230.151 344.667 218.899 347.915 207.468 350.477C206.782 350.621 207.071 351.668 207.756 351.523Z" fill="#161616"/>
<path d="M240.825 341.42C240.861 343.477 240.897 345.498 240.934 347.555C240.934 348.24 242.015 348.24 242.015 347.555C241.979 345.498 241.943 343.477 241.907 341.42C241.871 340.735 240.789 340.735 240.825 341.42Z" fill="#161616"/>
<path d="M232.639 340.807C235.416 341.095 238.157 341.384 240.934 341.637C241.619 341.709 241.619 340.626 240.934 340.554C238.157 340.265 235.416 339.977 232.639 339.724C231.954 339.652 231.954 340.734 232.639 340.807Z" fill="#161616"/>
<path d="M157.088 351.162C165.058 351.632 172.956 352.606 180.817 354.013C181.503 354.121 181.791 353.075 181.106 352.967C173.172 351.523 165.166 350.585 157.088 350.08C156.367 350.044 156.403 351.126 157.088 351.162Z" fill="#161616"/>
<path d="M178.041 351.054C184.424 351.992 190.807 353.075 197.154 354.266C197.839 354.41 198.127 353.364 197.442 353.219C191.095 352.029 184.712 350.946 178.329 350.008C177.644 349.9 177.355 350.946 178.041 351.054Z" fill="#161616"/>
<path d="M202.924 353.652C202.996 355.24 203.104 356.827 203.176 358.379C203.212 359.064 204.294 359.064 204.258 358.379C204.186 356.791 204.078 355.203 204.006 353.652C203.97 352.966 202.888 352.966 202.924 353.652Z" fill="#161616"/>
<path d="M208.946 353.977C214.283 352.786 219.585 351.451 224.886 350.008C225.571 349.827 225.282 348.781 224.597 348.961C219.332 350.405 213.995 351.74 208.658 352.93C207.972 353.075 208.261 354.121 208.946 353.977Z" fill="#161616"/>
<path d="M208.766 355.962C210.172 355.817 211.543 355.601 212.877 355.204C213.562 355.024 213.274 353.977 212.588 354.158C211.326 354.518 210.064 354.735 208.766 354.879C208.081 354.951 208.081 356.034 208.766 355.962Z" fill="#161616"/>
<path d="M228.24 350.225C231.593 349.142 234.947 348.06 238.265 347.013C238.914 346.797 238.626 345.75 237.976 345.967C234.623 347.049 231.269 348.132 227.951 349.178C227.302 349.395 227.59 350.441 228.24 350.225Z" fill="#161616"/>
<path d="M234.731 346.436C236.173 346.003 237.652 345.606 239.094 345.173C239.78 344.992 239.491 343.946 238.806 344.126C237.363 344.559 235.885 344.956 234.442 345.389C233.793 345.57 234.046 346.616 234.731 346.436Z" fill="#161616"/>
<path d="M169.53 355.24C169.89 358.054 170.035 360.869 169.927 363.719C169.89 364.405 170.972 364.405 171.008 363.719C171.117 360.869 170.972 358.054 170.612 355.24C170.54 354.554 169.458 354.554 169.53 355.24Z" fill="#161616"/>
<path d="M170.864 364.477C187.525 366.642 204.15 368.771 220.811 370.936C221.496 371.008 221.496 369.925 220.811 369.853C204.15 367.688 187.525 365.559 170.864 363.394C170.179 363.286 170.179 364.369 170.864 364.477Z" fill="#161616"/>
<path d="M219.981 361.771C220.162 364.585 220.306 367.436 220.486 370.251C220.522 370.936 221.604 370.936 221.568 370.251C221.388 367.436 221.243 364.585 221.063 361.771C221.027 361.085 219.945 361.049 219.981 361.771Z" fill="#161616"/>
<path d="M220.666 370.865C231.089 365.813 241.547 360.797 251.969 355.746C252.582 355.457 252.041 354.519 251.428 354.807C241.006 359.859 230.548 364.875 220.126 369.926C219.476 370.251 220.053 371.189 220.666 370.865Z" fill="#161616"/>
<path d="M220.522 361.626C231.197 357.802 241.583 353.255 251.644 347.987C252.257 347.662 251.716 346.724 251.103 347.049C241.15 352.245 230.836 356.755 220.234 360.58C219.585 360.833 219.873 361.879 220.522 361.626Z" fill="#161616"/>
<path d="M250.67 347.554C250.743 350.26 250.815 352.966 250.887 355.637C250.923 356.322 252.005 356.322 251.969 355.637C251.897 352.93 251.824 350.224 251.752 347.554C251.752 346.832 250.67 346.832 250.67 347.554Z" fill="#161616"/>
<path d="M241.907 346.977C244.9 347.013 247.894 347.23 250.851 347.663C251.536 347.771 251.824 346.724 251.139 346.616C248.074 346.183 245.009 345.931 241.907 345.895C241.222 345.895 241.222 346.977 241.907 346.977Z" fill="#161616"/>
<path d="M204.042 360.111C207.684 360.76 211.362 361.157 215.077 361.302C215.762 361.338 215.762 360.255 215.077 360.219C211.47 360.075 207.9 359.714 204.33 359.064C203.645 358.92 203.356 359.967 204.042 360.111Z" fill="#161616"/>
<path d="M223.696 363.251C227.663 362.276 231.449 360.905 235.128 359.137C235.741 358.849 235.2 357.91 234.587 358.199C231.016 359.931 227.302 361.23 223.443 362.204C222.722 362.349 223.011 363.395 223.696 363.251Z" fill="#161616"/>
<path d="M224.128 366.065C227.302 364.874 230.367 363.467 233.324 361.843C233.937 361.519 233.397 360.58 232.783 360.905C229.898 362.493 226.941 363.864 223.84 365.019C223.191 365.271 223.443 366.318 224.128 366.065Z" fill="#161616"/>
<path d="M237.075 357.044C241.078 355.636 245.045 354.013 248.939 352.245C249.588 351.956 249.011 351.018 248.398 351.306C244.612 353.038 240.753 354.59 236.786 355.961C236.137 356.214 236.426 357.26 237.075 357.044Z" fill="#161616"/>
<path d="M238.626 359.425C242.556 357.729 246.307 355.709 249.913 353.363C250.49 352.966 249.949 352.064 249.372 352.425C245.802 354.771 242.015 356.791 238.085 358.487C237.436 358.776 237.976 359.678 238.626 359.425Z" fill="#161616"/>
<path d="M371.732 259.764C379.125 287.043 386.518 314.322 393.875 341.601C395.966 349.395 398.094 357.153 400.186 364.947C400.546 366.282 402.638 365.705 402.277 364.37C394.884 337.091 387.492 309.812 380.135 282.533C378.043 274.739 375.916 266.981 373.824 259.187C373.463 257.852 371.372 258.429 371.732 259.764Z" fill="#161616"/>
<path d="M350.419 260.919C350.744 290.94 351.068 320.998 351.357 351.019C351.429 359.499 351.537 368.014 351.609 376.494C351.609 377.901 353.773 377.901 353.773 376.494C353.449 346.473 353.124 316.415 352.836 286.394C352.763 277.914 352.655 269.399 352.583 260.919C352.583 259.548 350.419 259.548 350.419 260.919Z" fill="#161616"/>
<path d="M320.235 257.058C313.816 286.394 307.613 315.766 301.627 345.21C299.932 353.545 298.273 361.881 296.614 370.18C296.326 371.551 298.417 372.128 298.706 370.757C304.584 341.313 310.642 311.905 316.953 282.533C318.72 274.234 320.523 265.935 322.363 257.636C322.615 256.265 320.523 255.687 320.235 257.058Z" fill="#161616"/>
<path d="M305.233 334.349C320.848 334.493 336.427 334.854 352.006 335.467C353.412 335.539 353.412 333.374 352.006 333.302C336.427 332.689 320.812 332.328 305.233 332.184C303.863 332.184 303.863 334.349 305.233 334.349Z" fill="#161616"/>
<path d="M352.799 334.998C354.242 335.215 355.36 334.638 356.694 334.096C358.317 333.447 359.94 332.761 361.563 332.076C364.448 330.849 367.333 329.622 370.218 328.359C376.456 325.617 382.623 322.766 388.718 319.843C389.98 319.23 388.862 317.39 387.636 317.967C382.046 320.673 376.42 323.271 370.722 325.797C367.874 327.06 365.025 328.287 362.14 329.514C360.661 330.127 359.219 330.741 357.74 331.354C356.586 331.823 354.603 333.086 353.34 332.906C352.006 332.725 351.393 334.818 352.799 334.998Z" fill="#161616"/>
<path d="M342.449 261.532C339.564 287.151 336.679 312.771 333.794 338.426C332.965 345.679 332.172 352.967 331.342 360.22C331.198 361.591 333.362 361.591 333.506 360.22C336.391 334.601 339.276 308.982 342.161 283.327C342.99 276.074 343.784 268.785 344.613 261.532C344.794 260.161 342.63 260.161 342.449 261.532Z" fill="#161616"/>
<path d="M336.499 322.621C353.629 322.224 370.686 321.142 387.78 320.023C389.15 319.951 389.187 317.75 387.78 317.858C370.686 318.977 353.629 320.023 336.499 320.456C335.093 320.492 335.093 322.657 336.499 322.621Z" fill="#161616"/>
<path d="M305.63 334.24C316.412 331.101 326.798 326.843 337.22 322.657C338.483 322.152 337.942 320.059 336.643 320.564C326.221 324.75 315.835 329.008 305.053 332.147C303.718 332.508 304.295 334.601 305.63 334.24Z" fill="#161616"/>
<path d="M359.146 232.197C368.414 233.424 376.096 235.985 381.974 238.511C382.082 245.042 382.154 251.537 382.262 258.068C375.483 261.099 365.097 264.744 352.006 265.79C335.237 267.125 321.786 263.553 314.032 260.847C313.708 253.522 313.419 246.197 313.095 238.872C321.605 235.192 338.374 229.454 359.146 232.197Z" fill="white" stroke="#161616" stroke-width="3" stroke-miterlimit="10"/>
<path d="M316.052 240.568C318.865 243.707 322.904 244.826 326.979 245.331C332.244 246.017 337.653 246.233 342.99 246.414C353.953 246.774 365.061 246.161 375.483 242.408C376.132 242.192 375.843 241.145 375.194 241.362C365.277 244.934 354.747 245.656 344.325 245.367C339.348 245.223 334.372 244.934 329.395 244.501C324.887 244.104 320.019 243.347 316.845 239.81C316.34 239.269 315.583 240.063 316.052 240.568Z" fill="#161616"/>
<path d="M310.714 115.791C308.262 116.044 306.748 117.92 303.754 121.817C295.676 132.281 289.834 141.482 289.329 142.276C288.284 143.9 284.713 148.807 277.537 158.622C264.302 176.772 261.237 180.128 262.391 184.855C263.725 190.375 269.747 195.283 274.183 194.489C276.78 194.02 278.33 191.674 280.674 187.741C283.704 182.617 287.598 175.689 291.746 167.066C302.564 159.705 309.669 151.983 314.104 146.39C323.12 135.024 322.831 130.116 322.507 128.096C321.497 121.673 315.655 115.322 310.714 115.791Z" fill="white" stroke="#161616" stroke-width="3" stroke-miterlimit="10"/>
<path opacity="0.09" d="M318.288 120.337C316.521 120.554 316.124 125.678 315.439 128.853C313.059 139.822 304.44 140.941 290.159 157.214C284.172 164.07 279.917 170.421 275.986 176.375C272.164 182.148 269.17 187.2 267.007 191.025C267.367 191.71 268.305 193.153 270.072 193.875C272.452 194.813 274.76 193.767 275.517 193.406C278.366 192.071 278.871 190.014 283.559 182.076C286.553 176.988 286.517 177.529 287.815 174.967C290.195 170.241 290.015 168.833 292.07 166.452C293.873 164.323 295.172 164.431 298.67 161.725C300.473 160.354 303.646 157.9 307.18 154.4C308.226 153.39 312.445 149.132 316.881 142.565C320.379 137.405 321.209 134.951 321.605 133.58C323.048 128.6 322.146 125.678 321.858 124.848C321.209 123.007 319.658 120.157 318.288 120.337Z" fill="#3D3D3D"/>
<path opacity="0.18" d="M292.07 165.947C291.601 165.658 289.726 168.653 285.471 173.524C274.832 185.612 266.826 189.365 267.98 192.432C268.666 194.2 271.983 194.814 274.363 194.308C277.753 193.587 279.556 190.267 283.091 183.664C291.746 167.462 292.359 166.127 292.07 165.947Z" fill="#3D3D3D"/>
<path d="M260.876 325.687C261.886 336.945 262.86 348.203 263.869 359.461C248.182 367.328 240.681 372.307 241.438 374.436C242.34 377.034 255.755 375.266 281.612 369.096C281.107 353.436 280.602 337.739 280.134 322.079C273.714 323.27 267.295 324.461 260.876 325.687Z" fill="#161616" stroke="#161616" stroke-width="3" stroke-miterlimit="10"/>
<path d="M312.337 196.87C306.82 200.948 299.066 206.685 289.834 213.685C260.768 235.732 257.126 239.088 253.916 245.258C250.743 251.32 249.661 261.531 247.461 281.991C245.946 296.027 245.838 306.852 245.91 313.022C245.982 319.914 246.343 325.796 246.704 330.342C248.399 331.858 254.818 337.162 264.555 337.343C276.058 337.523 283.415 330.378 284.713 329.079C283.596 322.44 282.694 315.26 282.117 307.61C281.071 293.61 281.396 280.908 282.369 269.831C290.087 263.733 300.906 254.928 313.383 243.706C340.033 219.747 341.8 214.082 340.791 210.077C338.483 201.128 321.389 197.989 312.337 196.87Z" fill="white" stroke="#161616" stroke-width="3" stroke-miterlimit="10"/>
<path opacity="0.12" d="M324.346 199.612C320.488 200.911 322.543 209.644 319.947 217.762C316.989 227.036 310.174 229.526 293.296 242.371C287.815 246.521 279.989 252.908 271.046 261.712C271.19 277.913 270.685 295.125 269.279 313.275C268.63 321.502 267.836 329.549 266.935 337.306C269.315 336.982 272.344 336.296 275.734 334.961C279.52 333.446 282.478 331.533 284.533 329.982C283.379 323.126 282.478 315.693 281.901 307.718C280.891 293.718 281.252 281.016 282.189 269.903C288.608 264.49 293.837 260.232 297.408 257.31C302.24 253.377 304.692 251.464 308.839 247.928C311.219 245.907 313.636 243.778 319.658 238.258C335.165 224.113 339.42 219.639 340.466 213.36C340.971 210.149 340.322 208.417 339.889 207.515C338.555 204.881 335.778 203.69 330.224 201.344C326.907 200.009 325.248 199.288 324.346 199.612Z" fill="#3D3D3D"/>
<path opacity="0.15" d="M281.864 269.65C280.206 276.831 278.727 284.445 277.465 292.491C275.049 307.935 273.967 322.296 273.642 335.286C277.357 333.446 281.071 331.569 284.786 329.729C283.451 320.853 282.405 311.038 281.864 300.429C281.324 289.28 281.396 278.996 281.864 269.65Z" fill="#3D3D3D"/>
<path opacity="0.09" d="M337.509 205.458C334.949 205.241 332.641 211.123 331.054 214.551C327.628 222.056 318.324 231.871 299.715 251.464C295.244 256.191 289.221 262.325 281.865 269.325C283.812 267.918 286.444 266.042 289.474 263.769C296.326 258.609 300.401 255.145 313.491 243.851C313.491 243.851 318.216 239.773 337.509 219.53C338.519 218.484 340.971 215.814 341.007 212.206C341.079 209.175 339.42 205.638 337.509 205.458Z" fill="#3D3D3D"/>
<path d="M323.769 112.074C323.625 112.074 323.048 112.111 322.255 112.183C320.632 112.327 318.071 112.616 315.042 113.41C312.59 114.023 310.642 114.745 309.488 115.214C307.433 119.435 304.836 125.967 303.863 134.23C302.456 145.993 305.269 153.57 307.18 165.297C308.479 173.344 309.561 184.999 308.082 199.757C311.183 202.644 319.261 209.391 331.595 211.123C349.013 213.613 361.815 204.231 364.448 202.211C365.241 197.231 365.998 192.179 366.756 187.056C366.756 187.056 367.874 179.334 368.955 170.854C371.516 151.117 374.148 124.523 374.473 121.204C365.205 111.822 357.524 109.657 352.186 109.476C345.262 109.224 329.395 111.786 323.769 112.074Z" fill="#E93F3F"/>
<path opacity="0.17" d="M337.401 119.905C339.312 121.89 341.873 124.921 344.181 129.034C355.288 148.736 348.4 171.721 345.335 181.932C343.207 189.077 339.168 199.577 331.162 210.871C334.227 211.412 338.05 211.701 342.413 211.268C352.836 210.222 360.373 205.386 364.159 202.536C366.756 185.324 369.172 167.679 371.336 149.638C372.454 140.328 373.463 131.163 374.437 122.034C372.814 120.013 370.146 117.09 366.143 114.601C362.969 112.616 358.389 109.729 352.691 110.018C343.748 110.523 338.23 118.678 337.401 119.905Z" fill="#3D3D3D"/>
<path d="M255.575 140.256C255.936 140.256 256.332 140.256 256.693 140.256C256.801 139.859 256.909 139.426 257.017 139.029C257.45 139.931 258.171 141.411 259.073 143.251C263.04 151.298 263.833 152.633 264.555 155.05C265.132 157.035 265.817 159.885 266.033 163.53C266.718 163.061 267.728 162.411 269.026 161.69C276.022 157.865 281.865 157.829 287.13 156.891C291.06 156.169 296.578 154.581 303.033 150.72C302.637 151.262 302.24 151.839 301.843 152.38C302.456 152.597 303.105 152.849 303.718 153.066C304.079 153.535 304.548 154.293 304.945 155.267C307.036 160.427 303.935 166.092 300.942 171.288C288.716 192.793 287.454 193.912 285.254 194.995C284.353 195.464 275.265 199.902 268.81 195.788C267.476 194.958 265.059 192.974 261.958 178.937C259.83 169.375 259.578 164.035 257.558 151.478C256.765 146.715 256.044 142.818 255.575 140.256Z" fill="white" stroke="#191919" stroke-width="2" stroke-miterlimit="10"/>
<path d="M257.631 142.241C260.696 148.808 263.725 155.483 264.663 162.7C264.699 162.88 264.951 162.88 264.951 162.7C264.014 155.411 260.984 148.699 257.883 142.096C257.775 141.952 257.558 142.06 257.631 142.241Z" fill="#191919"/>
<path d="M256.441 141.086C258.244 144.911 259.722 148.844 260.948 152.885C260.984 153.066 261.273 152.994 261.201 152.813C259.975 148.736 258.46 144.803 256.657 140.942C256.621 140.798 256.368 140.906 256.441 141.086Z" fill="#191919"/>
<path d="M261.381 152.669C262.571 155.916 263.365 159.272 263.833 162.7C263.869 162.88 264.122 162.88 264.122 162.7C263.653 159.236 262.86 155.88 261.67 152.597C261.597 152.416 261.345 152.488 261.381 152.669Z" fill="#191919"/>
<path d="M258.28 147.509C259.939 151.587 261.381 155.772 262.571 160.03C262.607 160.211 262.896 160.138 262.824 159.958C261.633 155.7 260.191 151.514 258.532 147.437C258.46 147.293 258.208 147.365 258.28 147.509Z" fill="#191919"/>
<path d="M266.646 164.432C271.154 161.437 276.203 159.488 281.576 158.731C281.756 158.695 281.684 158.442 281.504 158.478C276.095 159.236 271.046 161.184 266.502 164.179C266.394 164.288 266.502 164.54 266.646 164.432Z" fill="#191919"/>
<path d="M268.918 163.963C273.606 161.113 278.907 160.03 284.173 158.839C289.762 157.577 295.208 155.881 300.509 153.716C300.653 153.643 300.581 153.391 300.437 153.463C294.955 155.736 289.293 157.432 283.487 158.731C278.403 159.886 273.282 161.004 268.774 163.747C268.63 163.819 268.774 164.072 268.918 163.963Z" fill="#191919"/>
<path d="M268.053 165.262C273.606 162.628 279.268 161.004 285.218 159.56C291.06 158.117 296.722 155.88 302.42 153.931C302.6 153.859 302.528 153.607 302.348 153.679C296.47 155.7 290.592 158.045 284.533 159.452C278.799 160.823 273.282 162.519 267.908 165.045C267.728 165.081 267.872 165.334 268.053 165.262Z" fill="#191919"/>
<path d="M255.359 140.184C257.991 148.519 260.66 156.818 263.292 165.153C264.591 165.586 265.889 166.019 267.187 166.452C279.52 162.375 291.818 158.334 304.151 154.256C304.584 154.617 305.017 154.978 305.449 155.375C306.856 172.514 308.298 189.618 309.705 206.757C309.2 207.082 308.731 207.371 308.226 207.695C295.713 209.608 283.235 211.52 270.721 213.433C268.918 213 267.151 212.567 265.348 212.134C263.761 205.098 262.138 198.097 260.552 191.061C258.208 174.427 255.863 157.792 253.519 141.158C254.132 140.797 254.746 140.472 255.359 140.184Z" fill="white" stroke="#191919" stroke-width="2" stroke-miterlimit="10"/>
<path d="M262.715 165.37C263.292 180.994 264.41 196.654 265.276 212.278C265.312 212.783 266.105 212.783 266.105 212.278C265.24 196.654 264.122 181.03 263.545 165.37C263.509 164.829 262.679 164.829 262.715 165.37Z" fill="#191919"/>
<path d="M266.466 166.345C266.971 170.783 267.187 175.221 267.187 179.696C267.187 180.201 267.98 180.201 268.016 179.696C268.016 175.221 267.8 170.783 267.295 166.345C267.187 165.84 266.394 165.84 266.466 166.345Z" fill="#191919"/>
<path opacity="0.16" d="M288.897 159.669C289.041 163.278 288.933 171.36 284.317 180.056C279.412 189.294 272.236 194.057 269.134 195.861C268.99 192.902 268.81 189.943 268.666 187.02C267.439 189.077 266.249 191.134 265.023 193.191C265.276 199.614 265.564 206.036 265.817 212.495C267.548 212.856 269.279 213.217 271.046 213.614C283.199 211.665 295.388 209.717 307.541 207.768C308.19 207.516 308.803 207.227 309.452 206.975C308.082 189.618 306.712 172.298 305.341 154.942C299.86 156.494 294.378 158.082 288.897 159.669Z" fill="#6C6D6D"/>
<path opacity="0.1" d="M266.646 166.705C266.394 166.705 266.105 173.38 266.286 180.633C266.502 190.953 267.476 195.463 267.187 205.314C267.079 208.526 266.899 211.16 266.754 212.856C268.089 213.036 269.459 213.217 270.793 213.397C270.541 211.629 270.18 209.067 269.82 206C266.971 183.051 267.043 166.705 266.646 166.705Z" fill="#6C6D6D"/>
<path d="M276.347 168.725C284.93 166.705 293.368 164.179 301.663 161.148C302.312 160.895 302.023 159.849 301.374 160.102C293.08 163.096 284.641 165.622 276.058 167.679C275.409 167.859 275.698 168.906 276.347 168.725Z" fill="#191919"/>
<path d="M256.873 169.807C256.476 169.952 256.513 170.673 256.188 174.029C255.972 176.302 255.899 176.338 255.972 176.88C256.152 178.395 256.693 178.684 256.873 180.416C256.981 181.534 256.765 181.679 256.945 182.617C257.162 183.772 257.667 184.638 258.063 185.179C258.063 185.54 258.135 186.153 258.424 186.767C259.001 187.885 260.335 188.859 261.056 188.499C261.453 188.318 261.561 187.56 261.742 186.081C261.922 184.71 261.814 184.638 261.958 183.05C262.102 181.751 262.21 181.498 262.102 180.849C261.994 180.055 261.706 179.802 261.417 178.973C261.02 177.818 261.201 177.385 260.948 176.194C260.588 174.21 259.65 172.802 259.145 172.045C258.64 171.251 257.558 169.591 256.873 169.807Z" fill="white"/>
<path d="M256.621 169.483C254.673 173.705 256.621 178.431 261.02 179.983C261.525 180.163 261.742 179.37 261.237 179.189C257.342 177.818 255.611 173.632 257.342 169.88C257.522 169.411 256.837 169.014 256.621 169.483Z" fill="#191919"/>
<path d="M256.765 170.132C259.362 172.55 260.876 175.725 261.093 179.261C261.129 179.766 261.922 179.766 261.922 179.261C261.706 175.508 260.119 172.117 257.342 169.555C256.945 169.194 256.368 169.771 256.765 170.132Z" fill="#191919"/>
<path d="M255.683 174.535C254.746 178.756 257.234 182.762 261.525 183.664C262.03 183.772 262.247 182.978 261.742 182.87C257.919 182.076 255.611 178.576 256.477 174.715C256.585 174.21 255.791 173.993 255.683 174.535Z" fill="#191919"/>
<path d="M256.477 179.838C255.719 183.05 257.667 186.117 260.912 186.73C261.417 186.838 261.634 186.045 261.129 185.936C258.316 185.431 256.585 182.869 257.234 180.055C257.378 179.55 256.621 179.333 256.477 179.838Z" fill="#191919"/>
<path d="M257.522 184.999C257.378 186.551 258.28 188.102 259.722 188.679C260.335 188.932 261.129 188.968 261.597 188.427C262.102 187.85 261.886 186.984 261.597 186.37C261.417 185.901 260.624 186.118 260.804 186.587C260.984 186.984 261.345 187.777 260.768 188.03C260.335 188.21 259.65 187.777 259.325 187.525C258.568 186.911 258.207 185.973 258.316 184.999C258.388 184.458 257.558 184.494 257.522 184.999Z" fill="#191919"/>
<path d="M261.237 186.695C262.03 186.695 262.355 185.901 262.463 185.215C262.607 184.385 262.463 183.519 262.03 182.798C261.778 182.329 261.056 182.762 261.345 183.195C261.597 183.628 261.742 184.097 261.742 184.566C261.742 184.818 261.67 185.865 261.237 185.865C260.732 185.865 260.732 186.695 261.237 186.695Z" fill="#191919"/>
<path d="M262.247 183.375C262.751 182.906 262.751 182.004 262.643 181.354C262.535 180.524 262.174 179.802 261.597 179.189C261.237 178.792 260.66 179.369 261.02 179.766C261.381 180.163 261.67 180.632 261.778 181.21C261.85 181.607 261.958 182.473 261.633 182.797C261.273 183.158 261.85 183.736 262.247 183.375Z" fill="#191919"/>
<path d="M299.788 299.6C301.122 307.683 302.42 315.801 303.754 323.884C288.933 334.42 282.045 340.627 283.091 342.575C284.317 344.849 296.434 341.204 319.442 331.642C318.612 318.435 317.783 305.265 316.917 292.059C311.219 294.584 305.485 297.074 299.788 299.6Z" fill="#161616" stroke="#161616" stroke-width="3" stroke-miterlimit="10"/>
<path d="M364.628 201.958C365.205 206.757 365.421 214.443 362.572 223.103C361.346 226.783 359.291 232.809 353.881 238.474C350.419 242.083 344.361 248.433 335.526 248.181C328.385 247.964 323.336 243.598 321.497 241.83C320.956 248.614 320.668 255.975 320.812 263.877C321.028 276.037 322.218 287.043 323.805 296.641C319.478 304.651 311.183 309.595 302.42 309.342C291.169 309.017 284.786 300.321 284.064 299.311C281.468 274.883 281.251 254.568 281.72 239.485C282.117 227.18 282.982 217.005 290.411 208.742C297.66 200.659 307.252 198.819 309.777 198.386C328.241 195.102 342.197 208.128 343.856 209.752C346.525 209.933 351.754 209.86 357.379 207.154C360.697 205.53 363.077 203.51 364.628 201.958Z" fill="white" stroke="#161616" stroke-width="3" stroke-miterlimit="10"/>
<path d="M322.074 231.33C321.064 235.84 320.523 240.423 320.415 245.041C320.415 245.727 321.497 245.727 321.497 245.041C321.605 240.495 322.11 236.02 323.084 231.618C323.264 230.933 322.218 230.644 322.074 231.33Z" fill="#161616"/>
<path d="M322.327 237.103C322.831 235.985 323.3 234.866 323.805 233.711C324.094 233.062 323.156 232.521 322.867 233.17C322.363 234.289 321.894 235.407 321.389 236.562C321.1 237.175 322.038 237.717 322.327 237.103Z" fill="#161616"/>
<path d="M342.522 209.21C344.938 211.52 346.597 214.839 348.4 217.654C348.76 218.231 349.698 217.69 349.337 217.113C347.462 214.226 345.767 210.87 343.279 208.453C342.774 207.948 342.017 208.705 342.522 209.21Z" fill="#161616"/>
<path opacity="0.09" d="M353.124 208.454C353.196 210.186 353.196 212.567 352.908 215.418C352.222 222.093 351.645 227.758 347.967 230.212C343.676 233.098 337.148 230.356 334.732 229.31C326.366 225.773 325.392 219.856 320.596 219.423C314.934 218.918 309.056 226.495 306.243 232.449C299.283 247.063 307.18 258.501 308.046 284.734C308.37 295.27 307.433 303.786 306.712 308.982C308.587 308.765 311.039 308.224 313.672 306.961C319.766 304.038 322.832 299.023 323.986 296.858C323.733 294.873 323.372 291.806 322.868 288.089C321.641 279.033 321.245 278.058 320.848 274.161C320.668 272.393 320.524 270.409 320.848 257.563C320.956 253.774 321.064 248.542 321.281 242.3C322.255 242.985 323.589 243.851 325.32 244.753C326.51 245.367 330.693 247.568 334.516 248.109C340.61 248.975 345.803 245.547 348.436 243.851C355.612 239.124 358.714 232.485 360.769 227.902C365.349 217.763 365.493 208.237 365.025 202.319C363.762 203.691 361.418 205.892 357.848 207.263C356.045 207.984 354.422 208.309 353.124 208.454Z" fill="#3D3D3D"/>
<path opacity="0.11" d="M363.654 209.789C362.825 209.5 360.337 214.371 360.048 214.949C357.704 219.603 357.776 222.598 356.911 225.485C355.216 231.258 349.734 237.068 344.144 238.511C334.732 240.929 326.834 230.501 322.615 233.784C320.632 235.336 320.74 238.872 321.497 240.965C323.661 246.991 333.47 247.424 334.732 247.46C343.279 247.748 349.554 242.444 351.537 240.712C364.231 229.743 365.169 210.33 363.654 209.789Z" fill="#3D3D3D"/>
<path opacity="0.11" d="M322.146 233.351C321.533 233.243 319.622 239.305 318.324 245.259C315.691 257.383 316.016 266.728 316.088 271.275C316.196 279.718 315.475 291.806 311.832 307.178C313.311 306.817 315.583 306.023 317.891 304.255C321.425 301.549 322.94 298.157 323.481 296.641C322.759 288.739 322.254 282.027 321.894 276.904C321.028 264.527 320.596 258.212 320.776 252.439C321.173 240.929 322.831 233.495 322.146 233.351Z" fill="#3D3D3D"/>
<path d="M305.918 174.319C306.243 173.381 308.407 173.381 308.984 173.381C311.508 173.381 313.527 175.041 314.177 176.448C314.357 176.845 314.393 177.17 314.393 177.35C314.465 178.324 313.888 179.299 313.383 179.623C311.508 180.814 305.269 176.159 305.918 174.319Z" fill="white" stroke="#161616" stroke-width="3" stroke-miterlimit="10"/>
<path d="M371.696 118.75C377.43 122.287 376.745 132.282 375.879 144.803C374.906 158.622 371.588 168.329 370.326 171.865C368.09 177.963 365.602 182.907 363.546 186.443C356.117 189.618 344.289 193.371 329.647 192.721C324.346 192.469 319.622 191.711 315.547 190.737C310.678 194.092 306.748 194.056 305.053 193.876C302.42 193.623 298.958 192.433 298.994 191.278C298.994 190.484 300.689 189.835 301.446 189.546C303.286 188.824 304.908 188.896 304.908 188.824C304.908 188.752 303.574 188.824 302.168 188.68C301.23 188.572 299.391 188.427 297.804 187.597C297.227 187.309 294.378 185.901 293.837 183.159C293.332 180.669 294.847 177.855 297.624 176.195C300.184 175.509 304.692 174.68 310.138 175.654C314.177 176.375 317.278 177.819 319.333 178.937C329.034 176.556 338.735 174.138 348.4 171.757C348.58 169.736 348.905 166.777 349.301 163.133C350.564 151.622 351.177 145.849 352.15 140.978C354.53 128.998 356.081 121.168 362.14 118.426C364.844 117.235 368.775 116.946 371.696 118.75Z" fill="white" stroke="#161616" stroke-width="3" stroke-miterlimit="10"/>
<path opacity="0.18" d="M366.034 117.921C367.224 125.318 368.306 136.251 367.333 149.385C366.251 163.855 365.638 171.071 360.517 177.061C352.836 186.046 336.283 190.556 323.409 186.912C318.432 185.505 311.255 182.293 302.456 184.097C299.932 184.603 296.073 185.793 296.145 186.732C296.217 187.453 298.814 188.175 300.653 188.391C302.06 188.536 302.961 188.427 303.033 188.716C303.25 189.402 299.175 190.556 299.283 191.747C299.355 192.757 302.564 193.551 305.197 193.623C307.216 193.696 310.787 193.443 315.114 190.953C318.937 191.855 323.3 192.613 328.097 192.902C343.423 193.84 355.973 189.835 363.799 186.443C365.385 183.592 367.405 179.587 369.352 174.608C375.375 159.308 376.06 146.571 376.168 143.107C376.384 137.911 376.204 130.622 374.509 121.998C374.257 121.457 373.175 119.4 370.686 118.318C368.595 117.415 366.684 117.776 366.034 117.921Z" fill="#3D3D3D"/>
<path opacity="0.21" d="M356.406 186.623C350.816 187.489 347.57 188.391 345.046 188.896C334.804 191.061 326.51 190.087 323.589 189.726C320.596 189.402 318.143 188.896 316.448 188.536C314.393 189.366 311.328 190.412 307.505 190.845C302.6 191.386 299.102 190.665 298.994 191.278C298.886 191.855 301.879 193.371 305.053 193.732C309.885 194.273 313.816 191.927 315.583 190.701C317.819 191.314 321.028 192.108 324.959 192.577C345.839 195.139 364.195 186.479 363.979 185.685C363.943 185.432 361.418 185.829 356.406 186.623Z" fill="#3D3D3D"/>
<path d="M296.001 186.695C299.391 185.252 303.069 184.963 306.639 185.793C307.325 185.937 307.613 184.891 306.928 184.747C303.033 183.845 299.138 184.169 295.46 185.757C294.811 186.046 295.388 186.984 296.001 186.695Z" fill="#161616"/>
<path d="M294.09 183.232C298.093 181.788 302.276 181.319 306.495 181.861C307.18 181.933 307.18 180.85 306.495 180.778C302.204 180.237 297.876 180.706 293.801 182.185C293.152 182.438 293.441 183.484 294.09 183.232Z" fill="#161616"/>
<path d="M295.099 179.55C299.066 178.396 303.105 177.963 307.216 178.251C307.902 178.288 307.902 177.205 307.216 177.169C303.033 176.88 298.85 177.349 294.811 178.504C294.126 178.684 294.414 179.731 295.099 179.55Z" fill="#161616"/>
<path d="M314.176 61.0532C304.115 69.208 304.512 85.8064 308.479 96.5231C310.967 103.307 315.006 107.962 317.602 110.523C318.251 113.266 318.865 116.044 319.514 118.787C322.687 119.472 326.87 120.013 331.739 119.58C342.702 118.57 350.419 113.23 353.845 110.451C351.429 104.461 349.013 98.4716 346.597 92.4457C346.272 90.2446 345.803 86.8528 345.226 82.7393C343.748 71.9504 343.82 71.373 343.171 69.641C342.882 68.9194 338.807 58.5995 329.251 56.7593C321.497 55.2799 315.114 60.2594 314.176 61.0532Z" fill="white" stroke="#161616" stroke-width="3" stroke-miterlimit="10"/>
<path d="M305.882 88.6568C305.305 90.9301 304.692 94.4663 305.125 98.7602C305.413 101.611 305.882 106.554 309.452 111.317C313.311 116.477 318.54 118.426 320.74 119.147C320.56 118.57 320.379 117.848 320.271 117.018C320.163 116.116 320.199 115.322 320.271 114.709C322.651 115.972 325.031 117.271 327.375 118.534C333.362 113.049 335.345 108.07 336.03 104.425C336.571 101.575 336.896 96.3426 338.194 86.8166C338.41 85.1207 338.879 82.0536 340.827 81.2958C341.728 80.935 342.954 81.0794 343.784 81.7649C346.164 83.7495 343.748 89.4146 344.253 89.595C344.757 89.7393 348.905 84.0382 347.498 77.471C346.777 74.0792 344.794 71.7338 343.64 70.5791C341.043 74.6565 338.158 78.8422 334.985 83.1361C332.965 85.8784 330.946 88.4764 328.962 90.9662C328.205 91.3631 327.087 91.8322 325.789 91.7239C324.779 91.6518 324.418 91.2909 323.661 91.0744C320.848 90.2806 319.333 93.5642 316.593 93.1312C314.321 92.7704 314.104 90.3528 311.616 90.2806C310.426 90.2445 309.921 90.7858 308.695 90.5332C307.397 90.2445 306.495 89.3785 305.882 88.6568Z" fill="#161616" stroke="#161616" stroke-width="3" stroke-miterlimit="10"/>
<path d="M317.494 79.0219C316.629 82.955 316.088 86.9241 315.871 90.9294C315.835 91.3624 316.34 91.5789 316.701 91.3985C318.107 90.6768 319.514 89.9551 320.956 89.2335C321.569 88.9087 321.028 87.9706 320.415 88.2953C319.009 89.017 317.602 89.7386 316.16 90.4603C316.448 90.6046 316.701 90.7851 316.989 90.9294C317.242 86.9963 317.747 83.1354 318.576 79.3106C318.684 78.625 317.639 78.3363 317.494 79.0219Z" fill="#161616"/>
<path d="M311.832 81.2231C312.229 81.8365 312.301 82.7747 311.977 82.9551C311.58 83.1716 310.462 82.3417 310.318 81.4035C310.282 81.1148 310.318 80.6097 310.57 80.4653C310.931 80.2849 311.544 80.754 311.832 81.2231Z" fill="#161616" stroke="#161616" stroke-width="3" stroke-miterlimit="10"/>
<path d="M309.957 77.5067C311.219 76.8572 312.734 76.9655 313.888 77.8676C314.429 78.3006 315.186 77.5428 314.645 77.1098C313.131 75.883 311.147 75.6665 309.416 76.5686C308.803 76.8933 309.344 77.8315 309.957 77.5067Z" fill="#161616"/>
<path d="M322.543 78.0483C324.346 76.8576 326.798 77.2545 328.024 79.0587C328.421 79.636 329.359 79.0948 328.962 78.5174C327.411 76.2803 324.31 75.5947 322.002 77.1102C321.425 77.5071 321.966 78.4453 322.543 78.0483Z" fill="#161616"/>
<path d="M297.948 71.1564C312.337 71.9863 326.726 73.2131 341.043 74.7647C343.135 74.9812 343.099 71.7337 341.043 71.5172C326.726 69.9656 312.337 68.7388 297.948 67.9089C295.857 67.8006 295.857 71.0481 297.948 71.1564Z" fill="#161616"/>
<path d="M307.289 68.9551C307.505 66.754 308.407 61.0889 312.806 56.5063C318.54 50.5165 329.106 47.9907 337.329 53.0784C343.784 57.0837 347.21 64.8055 346.056 72.6717C333.109 71.4448 320.199 70.1819 307.289 68.9551Z" fill="#161616"/>
<path opacity="0.69" d="M325.464 51.4907C323.769 52.8979 323.769 55.8206 324.382 58.9599C325.031 62.3878 326.69 66.5735 329.215 70.8313C334.804 71.4808 340.43 72.1303 346.02 72.7798C346.272 71.5891 346.489 69.821 346.272 67.6921C346.272 67.6921 345.912 63.8312 343.856 60.3311C339.745 53.4031 328.998 48.5318 325.464 51.4907Z" fill="black"/>
<path opacity="0.24" d="M343.026 91.2904C341.764 91.9759 340.502 91.7955 340.069 91.7234C340.61 92.7698 341.728 95.0069 342.522 98.1462C343.243 101.105 344.289 105.146 342.918 109.801C341.692 113.951 339.096 116.693 337.329 118.209C339.492 117.812 342.341 117.054 345.479 115.502C349.121 113.698 351.718 111.533 353.412 109.873C350.744 102.332 348.111 94.7904 345.443 87.249C345.443 87.3934 345.298 90.0996 343.026 91.2904Z" fill="#3D3D3D"/>
<path opacity="0.19" d="M330.405 73.5381C330.801 75.2701 331.162 77.8681 330.729 80.9352C330.008 86.0951 327.52 89.6673 326.185 91.2911C326.979 91.0385 327.772 90.7859 328.565 90.5333C330.152 88.6209 331.739 86.6003 333.326 84.5074C335.922 81.0795 338.338 77.7238 340.502 74.4402C337.148 74.1876 333.758 73.8628 330.405 73.5381Z" fill="#3D3D3D"/>
<path d="M325.5 81.5483C325.897 82.1617 325.969 83.0999 325.644 83.2803C325.248 83.4968 324.13 82.6669 323.985 81.7287C323.949 81.44 323.985 80.9348 324.238 80.7905C324.599 80.6101 325.176 81.0792 325.5 81.5483Z" fill="#161616" stroke="#161616" stroke-width="3" stroke-miterlimit="10"/>
<path d="M309.705 90.569C313.31 90.569 316.232 87.6449 316.232 84.0379C316.232 80.4309 313.31 77.5068 309.705 77.5068C306.1 77.5068 303.177 80.4309 303.177 84.0379C303.177 87.6449 306.1 90.569 309.705 90.569Z" stroke="#161616" stroke-width="2" stroke-miterlimit="10"/>
<path d="M324.887 90.569C328.492 90.569 331.414 87.6449 331.414 84.0379C331.414 80.4309 328.492 77.5068 324.887 77.5068C321.282 77.5068 318.36 80.4309 318.36 84.0379C318.36 87.6449 321.282 90.569 324.887 90.569Z" stroke="#161616" stroke-width="2" stroke-miterlimit="10"/>
<path d="M316.989 84.2544C317.134 84.074 317.422 84.0019 317.602 84.1462C317.819 84.3266 318.143 84.3627 318.36 84.1462C318.54 83.9658 318.576 83.5689 318.36 83.3884C317.747 82.8472 316.773 82.8472 316.232 83.4967C316.052 83.7132 316.016 84.0379 316.232 84.2544C316.412 84.4709 316.809 84.4709 316.989 84.2544Z" fill="#161616"/>
<path d="M303.718 84.4708C304.404 84.11 305.089 83.7131 305.738 83.2801C306.315 82.9192 305.774 81.9811 305.197 82.3419C304.548 82.7749 303.863 83.1718 303.177 83.5327C302.528 83.8574 303.105 84.7956 303.718 84.4708Z" fill="#161616"/>
<path d="M331.811 84.363C334.804 83.6052 337.833 82.8836 340.827 82.1258C341.512 81.9454 341.223 80.899 340.538 81.0794C337.545 81.8372 334.516 82.5588 331.523 83.3166C330.837 83.497 331.126 84.5434 331.811 84.363Z" fill="#161616"/>
</svg>
