<svg width="29" height="24" viewBox="0 0 29 24" fill="none" xmlns="http://www.w3.org/2000/svg">
<path d="M2.04688 7.28564V17.5001C2.04688 18.4473 2.42315 19.3557 3.09294 20.0255C3.76272 20.6953 4.67114 21.0715 5.61835 21.0715H23.4757C24.4229 21.0715 25.3314 20.6953 26.0011 20.0255C26.6709 19.3557 27.0472 18.4473 27.0472 17.5001V7.28564L16.4185 13.825C15.8557 14.1713 15.2078 14.3546 14.547 14.3546C13.8862 14.3546 13.2384 14.1713 12.6756 13.825L2.04688 7.28564Z" fill="#181818"/>
<path d="M27.0472 5.18828V5.00019C27.0472 4.05297 26.6709 3.14455 26.0011 2.47477C25.3314 1.80499 24.4229 1.42871 23.4757 1.42871H5.61835C4.67114 1.42871 3.76272 1.80499 3.09294 2.47477C2.42315 3.14455 2.04688 4.05297 2.04688 5.00019V5.18828L13.6113 12.305C13.8927 12.4782 14.2166 12.5698 14.547 12.5698C14.8774 12.5698 15.2014 12.4782 15.4828 12.305L27.0472 5.18828Z" fill="#181818"/>
</svg>
