<svg width="90" height="143" viewBox="0 0 90 143" fill="none" xmlns="http://www.w3.org/2000/svg">
<path d="M16.0088 131.224H21.9288V132.248H16.0088V131.224ZM16.1368 137H14.9528V125.8H22.6328V126.824H16.1368V137ZM27.2439 137V125.8H28.4279V137H27.2439ZM39.1501 137.096C38.2967 137.096 37.5074 136.957 36.7821 136.68C36.0674 136.392 35.4434 135.992 34.9101 135.48C34.3874 134.968 33.9767 134.365 33.6781 133.672C33.3901 132.979 33.2461 132.221 33.2461 131.4C33.2461 130.579 33.3901 129.821 33.6781 129.128C33.9767 128.435 34.3927 127.832 34.9261 127.32C35.4594 126.808 36.0834 126.413 36.7981 126.136C37.5234 125.848 38.3127 125.704 39.1661 125.704C40.0194 125.704 40.7981 125.837 41.5021 126.104C42.2167 126.371 42.8247 126.776 43.3261 127.32L42.5901 128.072C42.1207 127.603 41.6034 127.267 41.0381 127.064C40.4727 126.861 39.8647 126.76 39.2141 126.76C38.5207 126.76 37.8807 126.877 37.2941 127.112C36.7181 127.336 36.2114 127.661 35.7741 128.088C35.3474 128.504 35.0114 128.995 34.7661 129.56C34.5314 130.115 34.4141 130.728 34.4141 131.4C34.4141 132.061 34.5314 132.675 34.7661 133.24C35.0114 133.805 35.3474 134.301 35.7741 134.728C36.2114 135.144 36.7181 135.469 37.2941 135.704C37.8807 135.928 38.5154 136.04 39.1981 136.04C39.8381 136.04 40.4407 135.944 41.0061 135.752C41.5821 135.56 42.1101 135.235 42.5901 134.776L43.2621 135.672C42.7287 136.141 42.1047 136.499 41.3901 136.744C40.6754 136.979 39.9287 137.096 39.1501 137.096ZM42.1261 135.528V131.4H43.2621V135.672L42.1261 135.528ZM48.7791 137V125.8H49.7551L54.8751 134.536H54.3631L59.4351 125.8H60.4111V137H59.2751V127.576H59.5471L54.8751 135.576H54.3151L49.6111 127.576H49.9151V137H48.7791ZM64.4345 137L69.5545 125.8H70.7225L75.8425 137H74.5945L69.8905 126.488H70.3705L65.6665 137H64.4345ZM66.4505 134.008L66.8025 133.048H73.3145L73.6665 134.008H66.4505Z" fill="#1F2626"/>
<rect width="90" height="90" fill="#1E1E1E"/>
<g clip-path="url(#clip0_99_1386)">
<path d="M45 45.5C45 42.9804 46.0009 40.5641 47.7825 38.7825C49.5641 37.0009 51.9804 36 54.5 36C57.0196 36 59.4359 37.0009 61.2175 38.7825C62.9991 40.5641 64 42.9804 64 45.5C64 48.0196 62.9991 50.4359 61.2175 52.2175C59.4359 53.9991 57.0196 55 54.5 55C51.9804 55 49.5641 53.9991 47.7825 52.2175C46.0009 50.4359 45 48.0196 45 45.5V45.5Z" fill="#1ABCFE"/>
<path d="M26 64.5C26 61.9804 27.0009 59.5641 28.7825 57.7825C30.5641 56.0009 32.9804 55 35.5 55H45V64.5C45 67.0196 43.9991 69.4359 42.2175 71.2175C40.4359 72.9991 38.0196 74 35.5 74C32.9804 74 30.5641 72.9991 28.7825 71.2175C27.0009 69.4359 26 67.0196 26 64.5V64.5Z" fill="#0ACF83"/>
<path d="M45 17V36H54.5C57.0196 36 59.4359 34.9991 61.2175 33.2175C62.9991 31.4359 64 29.0196 64 26.5C64 23.9804 62.9991 21.5641 61.2175 19.7825C59.4359 18.0009 57.0196 17 54.5 17H45Z" fill="#FF7262"/>
<path d="M26 26.5C26 29.0196 27.0009 31.4359 28.7825 33.2175C30.5641 34.9991 32.9804 36 35.5 36H45V17H35.5C32.9804 17 30.5641 18.0009 28.7825 19.7825C27.0009 21.5641 26 23.9804 26 26.5V26.5Z" fill="#F24E1E"/>
<path d="M26 45.5C26 48.0196 27.0009 50.4359 28.7825 52.2175C30.5641 53.9991 32.9804 55 35.5 55H45V36H35.5C32.9804 36 30.5641 37.0009 28.7825 38.7825C27.0009 40.5641 26 42.9804 26 45.5V45.5Z" fill="#A259FF"/>
</g>
<defs>
<clipPath id="clip0_99_1386">
<rect width="38" height="57" fill="white" transform="translate(26 17)"/>
</clipPath>
</defs>
</svg>
