<svg width="577" height="433" viewBox="0 0 577 433" fill="none" xmlns="http://www.w3.org/2000/svg">
<path d="M179.303 353.112C212.336 353.112 245.369 353.112 278.403 353.112C311.328 353.112 344.253 353.112 377.142 353.112C395.75 353.112 414.394 353.112 433.003 353.112C433.688 353.112 433.688 352.029 433.003 352.029C399.969 352.029 366.936 352.029 333.903 352.029C300.978 352.029 268.053 352.029 235.164 352.029C216.555 352.029 197.911 352.029 179.303 352.029C178.618 352.029 178.618 353.112 179.303 353.112Z" fill="#919B9B"/>
<path d="M439.674 330.668C439.385 341.06 440.431 351.451 442.811 361.591C442.956 362.276 444.001 361.988 443.857 361.302C441.513 351.271 440.467 340.987 440.792 330.668C440.756 329.982 439.674 329.982 439.674 330.668Z" fill="#919B9B"/>
<path d="M482.624 331.498C483.634 341.096 483.021 350.802 480.821 360.184C480.677 360.869 481.687 361.158 481.867 360.472C484.103 350.983 484.752 341.204 483.706 331.498C483.634 330.812 482.552 330.812 482.624 331.498Z" fill="#919B9B"/>
<path d="M443.244 362.602C455.722 365.778 468.92 365.345 481.146 361.303C481.795 361.087 481.506 360.04 480.857 360.257C468.776 364.226 455.83 364.695 443.532 361.556C442.847 361.412 442.559 362.458 443.244 362.602Z" fill="#919B9B"/>
<path d="M440.179 331.173C454.207 334.168 468.74 334.096 482.732 330.993C483.417 330.848 483.129 329.802 482.444 329.946C468.632 333.013 454.279 333.049 440.467 330.127C439.782 329.982 439.493 331.029 440.179 331.173Z" fill="#919B9B"/>
<path d="M448.726 331.57C446.851 327.348 448.546 322.188 449.952 318.039C451.394 313.745 453.45 309.667 455.974 305.915C455.686 305.951 455.397 305.987 455.109 306.023C455.938 306.961 456.84 307.611 457.958 308.152C458.391 308.332 458.859 308.044 458.751 307.539C458.319 305.59 457.561 303.678 458.427 301.729C459.04 300.358 459.905 298.987 460.627 297.688C460.374 297.76 460.122 297.832 459.869 297.868C460.626 298.337 461.384 298.77 462.141 299.239C462.646 299.564 463.079 298.951 462.898 298.482C462.141 296.822 461.636 295.162 462.682 293.502C463.295 292.492 464.089 291.59 464.774 290.652C466.288 288.631 467.875 286.61 469.462 284.626C472.491 280.837 475.629 277.156 478.874 273.548C478.586 273.512 478.297 273.476 478.009 273.44C482.625 279.502 485.546 286.755 486.339 294.332C486.736 297.976 486.628 301.729 485.978 305.337C485.654 307.178 485.185 308.982 484.608 310.75C484.5 311.111 484.356 311.472 484.247 311.796C483.851 312.807 483.202 313.24 482.156 313.456C481.435 313.601 481.038 313.492 480.425 313.961C480.136 314.178 480.064 314.539 480.317 314.827C481.11 315.657 481.435 315.802 481.146 316.92C480.966 317.642 480.533 318.4 480.208 319.121C479.559 320.565 478.838 321.972 478.081 323.343C476.53 326.158 474.763 328.828 472.78 331.354C472.347 331.895 473.104 332.653 473.537 332.111C477.36 327.204 480.389 321.828 482.661 316.054C482.733 315.874 482.661 315.657 482.516 315.513C482.048 315.044 481.579 314.539 481.074 314.07C481.038 314.358 481.002 314.647 480.966 314.936C481.795 314.358 482.733 314.755 483.598 314.394C484.284 314.142 484.644 313.637 484.933 312.987C485.726 311.291 486.231 309.343 486.664 307.539C487.565 303.569 487.854 299.492 487.565 295.451C486.952 287.296 483.959 279.394 478.982 272.899C478.802 272.646 478.405 272.502 478.117 272.79C474.114 277.229 470.255 281.811 466.577 286.502C464.918 288.595 463.151 290.688 461.708 292.961C460.41 295.018 461.023 296.966 461.925 299.059C462.177 298.806 462.43 298.554 462.682 298.301C461.925 297.832 461.167 297.399 460.41 296.93C460.158 296.786 459.797 296.858 459.653 297.11C458.751 298.77 457.345 300.611 456.84 302.451C456.407 304.075 457.309 306.203 457.669 307.791C457.922 307.575 458.21 307.394 458.463 307.178C457.417 306.709 456.588 306.095 455.83 305.229C455.578 304.941 455.145 305.049 454.965 305.337C452.152 309.523 449.952 314.106 448.437 318.941C447.139 323.127 445.877 327.89 447.716 332.075C448.077 332.725 449.014 332.183 448.726 331.57Z" fill="#919B9B"/>
<path d="M478.081 281.739C476.638 298.084 465.459 311.183 460.807 326.554C460.59 327.24 461.636 327.492 461.852 326.843C466.504 311.363 477.72 298.229 479.162 281.739C479.235 281.017 478.117 281.053 478.081 281.739Z" fill="#919B9B"/>
<path d="M464.449 290.435C465.603 296.388 466.937 302.27 468.452 308.115C468.632 308.801 469.678 308.512 469.498 307.827C467.983 301.981 466.649 296.064 465.495 290.146C465.387 289.46 464.341 289.749 464.449 290.435Z" fill="#919B9B"/>
<path d="M476.638 294.26C479.775 291.987 482.48 289.281 484.824 286.141C485.257 285.6 484.319 285.059 483.887 285.6C481.687 288.559 479.09 291.157 476.097 293.322C475.556 293.755 476.097 294.693 476.638 294.26Z" fill="#919B9B"/>
<path d="M473.285 278.816C474.258 281.919 474.835 285.708 477.215 288.053C477.72 288.558 478.478 287.765 477.973 287.295C475.773 285.094 475.196 281.378 474.294 278.527C474.114 277.878 473.068 278.166 473.285 278.816Z" fill="#919B9B"/>
<path d="M446.562 331.281C444.362 329.549 443.028 327.132 441.91 324.606C440.647 321.647 439.566 318.616 438.592 315.549C436.753 309.667 435.418 303.605 434.625 297.507C433.002 284.734 434.3 271.816 432.75 259.006C432.425 259.114 432.065 259.187 431.74 259.295C435.779 268.388 445.227 273.836 453.089 279.249C453.017 278.996 452.945 278.744 452.909 278.491C451.827 280.043 450.745 281.594 449.663 283.146C449.411 283.507 449.735 283.976 450.132 283.976C451.538 283.976 452.764 283.795 454.099 283.326C453.882 283.254 453.702 283.146 453.486 283.074C454.82 285.131 456.154 287.187 457.489 289.244C457.525 289.028 457.561 288.811 457.561 288.595C456.912 289.208 456.371 289.894 455.83 290.651C455.649 290.904 455.83 291.409 456.154 291.445C459.111 291.878 460.157 294.693 460.915 297.218C461.131 297.868 462.177 297.615 461.96 296.93C461.059 294.079 459.761 290.868 456.443 290.399C456.551 290.651 456.659 290.94 456.767 291.193C457.236 290.471 457.705 289.966 458.318 289.388C458.498 289.244 458.534 288.919 458.39 288.739C457.056 286.682 455.722 284.625 454.387 282.569C454.279 282.388 454.027 282.244 453.774 282.316C452.548 282.713 451.358 282.929 450.096 282.893C450.24 283.182 450.42 283.435 450.565 283.723C451.646 282.172 452.728 280.62 453.81 279.069C453.991 278.816 453.846 278.491 453.63 278.311C445.913 273.007 436.644 267.702 432.678 258.754C432.461 258.285 431.596 258.501 431.668 259.042C433.255 272.321 431.848 285.744 433.723 298.987C434.625 305.373 436.104 311.652 438.159 317.75C439.818 322.693 441.549 328.719 445.768 332.075C446.345 332.472 447.103 331.714 446.562 331.281Z" fill="#919B9B"/>
<path d="M431.957 260.089C434.878 268.172 437.33 276.688 441.261 284.373C443.208 288.162 445.336 291.879 447.175 295.74C449.158 299.925 450.926 304.183 452.729 308.405C452.981 309.054 453.919 308.477 453.666 307.864C451.971 303.822 450.24 299.781 448.401 295.812C446.598 291.915 444.506 288.198 442.487 284.409C438.448 276.688 435.96 268.028 432.966 259.837C432.75 259.151 431.704 259.44 431.957 260.089Z" fill="#919B9B"/>
<path d="M433.327 287.512C437.222 287.981 441.477 288.198 444.434 291.12C444.939 291.626 445.696 290.832 445.191 290.363C442.018 287.259 437.51 286.971 433.327 286.466C432.642 286.357 432.642 287.44 433.327 287.512Z" fill="#919B9B"/>
<path d="M443.749 272.898C443.1 275.244 442.667 277.661 442.487 280.115C442.343 282.208 442.09 284.661 442.812 286.682C443.028 287.332 444.074 287.043 443.857 286.393C443.172 284.481 443.425 282.1 443.569 280.079C443.749 277.733 444.182 275.424 444.795 273.151C444.975 272.501 443.93 272.213 443.749 272.898Z" fill="#919B9B"/>
<path d="M435.779 307.178C438.592 307.25 441.297 307.286 444.038 308.044C446.742 308.802 449.411 309.595 452.116 310.389C452.801 310.57 453.09 309.523 452.404 309.343C449.519 308.513 446.67 307.611 443.749 306.853C441.117 306.167 438.484 306.204 435.779 306.131C435.094 306.059 435.094 307.142 435.779 307.178Z" fill="#919B9B"/>
<path d="M475.232 330.271C477.648 329.946 480.028 329.946 482.444 330.271C482.336 330.018 482.228 329.73 482.12 329.477C481.903 329.802 479.739 329.838 479.307 329.874C478.333 330.018 477.323 330.163 476.349 330.379C476.205 330.415 475.232 330.524 475.195 330.632C475.268 330.451 476.71 330.487 476.926 330.487C477.972 330.487 479.018 330.596 480.064 330.668C480.064 330.307 480.064 329.946 480.064 329.585C479.162 329.549 478.369 329.658 477.467 329.91C476.89 330.054 476.999 330.957 477.612 330.957C479.018 330.957 480.28 330.668 481.651 330.307C482.336 330.127 482.047 329.08 481.362 329.261C480.136 329.585 478.91 329.874 477.612 329.874C477.648 330.235 477.72 330.596 477.756 330.92C478.513 330.704 479.271 330.632 480.064 330.632C480.749 330.632 480.749 329.585 480.064 329.549C478.477 329.477 476.169 328.9 474.727 329.802C474.15 330.163 473.32 331.101 474.078 331.678C474.402 331.931 474.763 331.786 475.159 331.75C476.241 331.534 477.287 331.281 478.369 331.101C479.631 330.884 482.156 331.209 483.021 330.018C483.201 329.766 483.021 329.261 482.696 329.225C480.172 328.864 477.72 328.864 475.195 329.188C474.546 329.261 474.546 330.343 475.232 330.271Z" fill="#919B9B"/>
<path d="M440.648 330.956C441.152 330.812 441.657 330.704 442.162 330.668C442.415 330.668 442.631 330.632 442.883 330.668C442.992 330.668 443.496 330.632 443.533 330.668C443.496 330.487 443.424 330.307 443.388 330.126C443.388 330.163 443.352 330.199 443.352 330.199C443.569 330.09 443.785 329.946 444.001 329.838C443.965 329.838 443.929 329.838 443.929 329.838C444.037 329.946 444.182 330.09 444.29 330.199C444.29 330.163 444.29 330.126 444.254 330.126C444.073 329.441 443.064 329.73 443.208 330.415C443.208 330.451 443.208 330.487 443.244 330.487C443.28 330.668 443.46 330.812 443.605 330.848C443.641 330.848 443.677 330.848 443.677 330.848C443.965 330.92 444.218 330.776 444.326 330.487C444.326 330.451 444.362 330.415 444.362 330.415C444.434 330.235 444.362 330.018 444.218 329.874C443.821 329.477 442.956 329.549 442.451 329.549C441.729 329.549 440.972 329.693 440.287 329.874C439.71 330.09 439.998 331.137 440.648 330.956Z" fill="#919B9B"/>
<path d="M441.477 338.21C454.64 340.483 468.307 341.566 481.29 337.668C481.939 337.452 481.687 336.442 481.001 336.622C468.235 340.447 454.748 339.4 441.765 337.163C441.08 337.055 440.792 338.101 441.477 338.21Z" fill="#919B9B"/>
<path d="M486.651 353.04C503.06 353.04 519.494 353.04 535.902 353.04C536.389 353.04 536.389 351.957 535.902 351.957C519.494 351.957 503.06 351.957 486.651 351.957C486.139 351.957 486.139 353.04 486.651 353.04Z" fill="#919B9B"/>
<path d="M469.318 376.242C491.099 376.242 512.917 376.242 534.699 376.242C535.384 376.242 535.384 375.159 534.699 375.159C512.917 375.159 491.099 375.159 469.318 375.159C468.632 375.159 468.632 376.242 469.318 376.242Z" fill="#919B9B"/>
<path d="M479.235 376.133C476.638 378.298 474.042 380.427 471.481 382.592C470.94 383.025 471.698 383.782 472.239 383.349C474.835 381.184 477.432 379.056 479.992 376.891C480.533 376.458 479.74 375.664 479.235 376.133Z" fill="#919B9B"/>
<path d="M471.806 383.747C472.491 383.747 472.491 382.664 471.806 382.664C471.12 382.664 471.12 383.747 471.806 383.747Z" fill="#919B9B"/>
<path d="M482.805 382.664C460.843 382.664 438.881 382.664 416.919 382.664C416.233 382.664 416.233 383.747 416.919 383.747C438.881 383.747 460.843 383.747 482.805 383.747C483.49 383.747 483.49 382.664 482.805 382.664Z" fill="#919B9B"/>
<path d="M416.811 393.85C420.705 390.603 424.708 387.5 428.819 384.505C429.36 384.108 428.855 383.17 428.278 383.567C424.095 386.598 420.02 389.773 416.053 393.057C415.512 393.526 416.27 394.283 416.811 393.85Z" fill="#919B9B"/>
<path d="M88.4974 374.148C113.958 374.148 139.418 374.148 164.878 374.148C172.09 374.148 179.303 374.148 186.515 374.148C187.2 374.148 187.2 373.065 186.515 373.065C161.055 373.065 135.595 373.065 110.135 373.065C102.922 373.065 95.7099 373.065 88.4974 373.065C87.8122 373.065 87.8122 374.148 88.4974 374.148Z" fill="#919B9B"/>
<path d="M101.805 383.566C105.231 380.643 108.693 377.721 112.119 374.798C112.66 374.329 111.866 373.571 111.361 374.04C107.935 376.963 104.473 379.886 101.047 382.808C100.506 383.241 101.3 384.035 101.805 383.566Z" fill="#919B9B"/>
<path d="M89.3989 384.613C113.056 384.613 136.713 384.613 160.37 384.613C161.055 384.613 161.055 383.53 160.37 383.53C136.713 383.53 113.056 383.53 89.3989 383.53C88.7137 383.53 88.7137 384.613 89.3989 384.613Z" fill="#919B9B"/>
<path d="M152.112 384.396C149.407 387.427 146.63 390.386 143.817 393.345C143.349 393.85 144.106 394.608 144.575 394.102C147.388 391.144 150.128 388.185 152.869 385.154C153.374 384.649 152.581 383.891 152.112 384.396Z" fill="#919B9B"/>
<path d="M133.648 395.077C154.456 395.077 175.228 395.077 196.036 395.077C196.721 395.077 196.721 393.994 196.036 393.994C175.228 393.994 154.456 393.994 133.648 393.994C132.963 393.994 132.963 395.077 133.648 395.077Z" fill="#919B9B"/>
<path d="M118.898 355.999C127.698 355.999 136.497 355.999 145.332 355.999C146.017 355.999 146.017 354.916 145.332 354.916C136.533 354.916 127.734 354.916 118.898 354.916C118.213 354.916 118.213 355.999 118.898 355.999Z" fill="#919B9B"/>
<path d="M152.003 359.535C154.708 359.535 157.449 359.535 160.154 359.535C160.839 359.535 160.839 358.452 160.154 358.452C157.449 358.452 154.708 358.452 152.003 358.452C151.282 358.452 151.282 359.535 152.003 359.535Z" fill="#919B9B"/>
<path d="M132.422 166.597C132.422 172.479 132.422 178.396 132.422 184.278C132.422 184.964 133.503 184.964 133.503 184.278C133.503 178.396 133.503 172.479 133.503 166.597C133.503 165.912 132.422 165.912 132.422 166.597Z" fill="#919B9B"/>
<path d="M114.282 185.144C128.779 185.144 143.277 185.144 157.774 185.144C158.459 185.144 158.459 184.062 157.774 184.062C143.277 184.062 128.779 184.062 114.282 184.062C113.597 184.062 113.597 185.144 114.282 185.144Z" fill="#919B9B"/>
<path d="M144.647 185.649C144.647 190.195 144.647 194.706 144.647 199.252C144.647 199.938 145.729 199.938 145.729 199.252C145.729 194.706 145.729 190.195 145.729 185.649C145.729 184.927 144.647 184.927 144.647 185.649Z" fill="#919B9B"/>
<path d="M132.638 201.128C144.178 201.128 155.754 201.128 167.294 201.128C167.979 201.128 167.979 200.046 167.294 200.046C155.754 200.046 144.178 200.046 132.638 200.046C131.917 200.046 131.917 201.128 132.638 201.128Z" fill="#919B9B"/>
<path d="M423.662 153.932C423.662 155.375 423.662 156.783 423.662 158.226C423.662 158.912 424.744 158.912 424.744 158.226C424.744 156.783 424.744 155.375 424.744 153.932C424.744 153.247 423.662 153.247 423.662 153.932Z" fill="#919B9B"/>
<path d="M424.528 154.798C449.339 154.798 474.15 154.798 498.961 154.798C499.646 154.798 499.646 153.716 498.961 153.716C474.15 153.716 449.339 153.716 424.528 153.716C423.842 153.716 423.842 154.798 424.528 154.798Z" fill="#919B9B"/>
<path d="M425.177 158.767C449.771 158.767 474.366 158.767 498.925 158.767C499.61 158.767 499.61 157.685 498.925 157.685C474.33 157.685 449.735 157.685 425.177 157.685C424.492 157.685 424.492 158.767 425.177 158.767Z" fill="#919B9B"/>
<path d="M498.78 153.932C498.636 155.412 498.708 156.891 498.961 158.37C499.069 159.056 500.115 158.767 500.007 158.082C499.754 156.711 499.718 155.303 499.862 153.932C499.934 153.247 498.853 153.247 498.78 153.932Z" fill="#919B9B"/>
<path d="M429.612 153.968C429.612 143.901 429.612 133.833 429.612 123.766C429.612 123.081 428.531 123.081 428.531 123.766C428.531 133.833 428.531 143.901 428.531 153.968C428.531 154.69 429.612 154.69 429.612 153.968Z" fill="#919B9B"/>
<path d="M429.613 123.947C432.678 122.72 435.924 122.9 438.772 124.596C439.386 124.957 439.926 124.019 439.313 123.658C436.248 121.854 432.606 121.565 429.324 122.9C428.675 123.153 428.964 124.199 429.613 123.947Z" fill="#919B9B"/>
<path d="M438.592 124.343C438.592 134.014 438.592 143.72 438.592 153.39C438.592 154.076 439.674 154.076 439.674 153.39C439.674 143.72 439.674 134.014 439.674 124.343C439.674 123.658 438.592 123.658 438.592 124.343Z" fill="#919B9B"/>
<path d="M439.818 132.426C442.018 131.524 444.326 131.668 446.382 132.931C446.995 133.292 447.536 132.354 446.923 131.993C444.651 130.622 441.982 130.369 439.53 131.379C438.881 131.632 439.169 132.678 439.818 132.426Z" fill="#919B9B"/>
<path d="M446.166 132.895C446.166 139.679 446.166 146.426 446.166 153.21C446.166 153.896 447.247 153.896 447.247 153.21C447.247 146.426 447.247 139.679 447.247 132.895C447.247 132.209 446.166 132.209 446.166 132.895Z" fill="#919B9B"/>
<path d="M429.757 132.246C432.822 131.56 435.851 131.777 438.809 132.823C439.458 133.04 439.746 131.993 439.097 131.777C435.96 130.658 432.714 130.514 429.468 131.199C428.819 131.344 429.108 132.39 429.757 132.246Z" fill="#919B9B"/>
<path d="M439.061 144.766C441.369 144.153 443.677 144.081 446.021 144.586C446.706 144.73 446.995 143.684 446.31 143.539C443.785 142.998 441.297 143.034 438.772 143.72C438.123 143.9 438.376 144.947 439.061 144.766Z" fill="#919B9B"/>
<path d="M459.797 153.607C459.797 151.587 459.797 149.566 459.797 147.545C459.797 146.86 458.715 146.86 458.715 147.545C458.715 149.566 458.715 151.587 458.715 153.607C458.715 154.293 459.797 154.293 459.797 153.607Z" fill="#919B9B"/>
<path d="M459.256 147.87C470.976 147.87 482.66 147.87 494.381 147.87C495.066 147.87 495.066 146.787 494.381 146.787C482.66 146.787 470.976 146.787 459.256 146.787C458.534 146.787 458.534 147.87 459.256 147.87Z" fill="#919B9B"/>
<path d="M494.742 148.447C495.427 148.447 495.427 147.364 494.742 147.364C494.02 147.364 494.02 148.447 494.742 148.447Z" fill="#919B9B"/>
<path d="M494.201 147.906C494.201 149.746 494.201 151.586 494.201 153.427C494.201 154.112 495.283 154.112 495.283 153.427C495.283 151.586 495.283 149.746 495.283 147.906C495.283 147.22 494.201 147.22 494.201 147.906Z" fill="#919B9B"/>
<path d="M466.613 147.148C466.613 145.236 466.613 143.359 466.613 141.447C466.613 140.761 465.531 140.761 465.531 141.447C465.531 143.359 465.531 145.236 465.531 147.148C465.531 147.834 466.613 147.834 466.613 147.148Z" fill="#919B9B"/>
<path d="M466.072 141.808C477.576 141.808 489.08 141.808 500.62 141.808C501.305 141.808 501.305 140.726 500.62 140.726C489.116 140.726 477.612 140.726 466.072 140.726C465.387 140.726 465.387 141.808 466.072 141.808Z" fill="#919B9B"/>
<path d="M500.259 141.267C500.259 142.855 500.259 144.442 500.259 146.03C500.259 146.715 501.341 146.715 501.341 146.03C501.341 144.442 501.341 142.855 501.341 141.267C501.341 140.545 500.259 140.545 500.259 141.267Z" fill="#919B9B"/>
<path d="M493.984 148.05C496.076 148.05 498.168 148.05 500.259 148.05C500.944 148.05 500.944 146.968 500.259 146.968C498.168 146.968 496.076 146.968 493.984 146.968C493.263 146.968 493.263 148.05 493.984 148.05Z" fill="#919B9B"/>
<path d="M500.187 146.066C500.115 146.463 500.115 146.823 500.223 147.184C500.295 147.473 500.62 147.653 500.872 147.545C501.161 147.473 501.341 147.148 501.233 146.896C501.197 146.715 501.161 146.499 501.197 146.354C501.233 146.066 501.125 145.741 500.836 145.705C500.584 145.633 500.223 145.777 500.187 146.066Z" fill="#919B9B"/>
<path d="M474.294 141.519C474.763 143.359 474.871 145.236 474.618 147.148C474.546 147.834 475.628 147.834 475.7 147.148C475.953 145.163 475.809 143.179 475.34 141.23C475.159 140.581 474.114 140.87 474.294 141.519Z" fill="#919B9B"/>
<path d="M482.444 147.798C482.697 149.602 482.553 151.37 482.12 153.102C481.939 153.788 482.985 154.076 483.166 153.391C483.671 151.442 483.779 149.494 483.49 147.509C483.418 146.824 482.372 147.112 482.444 147.798Z" fill="#919B9B"/>
<path d="M475.376 191.711C475.376 194.562 475.376 197.376 475.376 200.227C475.376 200.912 476.458 200.912 476.458 200.227C476.458 197.376 476.458 194.562 476.458 191.711C476.458 190.99 475.376 190.99 475.376 191.711Z" fill="#919B9B"/>
<path d="M467.01 200.371C474.222 200.371 481.435 200.371 488.647 200.371C489.332 200.371 489.332 199.288 488.647 199.288C481.435 199.288 474.222 199.288 467.01 199.288C466.324 199.288 466.324 200.371 467.01 200.371Z" fill="#919B9B"/>
<path d="M454.712 78.9868C454.712 85.4818 454.712 92.0129 454.712 98.5079C454.712 99.1935 455.794 99.1935 455.794 98.5079C455.794 92.0129 455.794 85.4818 455.794 78.9868C455.794 78.3013 454.712 78.3013 454.712 78.9868Z" fill="#919B9B"/>
<path d="M456.082 78.9506C464.305 78.9506 472.491 78.9506 480.713 78.9506C481.398 78.9506 481.398 77.8682 480.713 77.8682C472.491 77.8682 464.305 77.8682 456.082 77.8682C455.397 77.8682 455.397 78.9506 456.082 78.9506Z" fill="#919B9B"/>
<path d="M480.749 78.8062C480.749 85.0847 480.749 91.3632 480.749 97.6056C480.749 98.2912 481.831 98.2912 481.831 97.6056C481.831 91.3271 481.831 85.0486 481.831 78.8062C481.831 78.1206 480.749 78.1206 480.749 78.8062Z" fill="#919B9B"/>
<path d="M455.109 99.1216C463.836 99.1216 472.563 99.1216 481.29 99.1216C481.976 99.1216 481.976 98.0391 481.29 98.0391C472.563 98.0391 463.836 98.0391 455.109 98.0391C454.424 98.0391 454.424 99.1216 455.109 99.1216Z" fill="#919B9B"/>
<path d="M457.128 81.2241C457.128 86.1676 457.128 91.0749 457.128 96.0183C457.128 96.7039 458.21 96.7039 458.21 96.0183C458.21 91.0749 458.21 86.1676 458.21 81.2241C458.21 80.5386 457.128 80.5386 457.128 81.2241Z" fill="#919B9B"/>
<path d="M457.922 81.6567C464.665 81.6567 471.445 81.6567 478.189 81.6567C478.874 81.6567 478.874 80.5742 478.189 80.5742C471.445 80.5742 464.665 80.5742 457.922 80.5742C457.236 80.5742 457.236 81.6567 457.922 81.6567Z" fill="#919B9B"/>
<path d="M477.792 81.2241C477.792 85.8067 477.792 90.3532 477.792 94.9358C477.792 95.6214 478.874 95.6214 478.874 94.9358C478.874 90.3532 478.874 85.8067 478.874 81.2241C478.874 80.5386 477.792 80.5386 477.792 81.2241Z" fill="#919B9B"/>
<path d="M457.922 96.5591C464.629 96.5591 471.337 96.5591 478.081 96.5591C478.766 96.5591 478.766 95.4766 478.081 95.4766C471.373 95.4766 464.665 95.4766 457.922 95.4766C457.236 95.4766 457.236 96.5591 457.922 96.5591Z" fill="#919B9B"/>
<path d="M470.688 90.0645C467.839 87.8995 472.094 83.3891 474.078 86.0953C475.917 88.549 472.924 91.5079 470.363 90.1367C469.75 89.8119 469.209 90.7501 469.822 91.0749C471.481 91.9769 473.681 91.7244 474.871 90.1728C476.097 88.6212 475.953 86.1675 474.402 84.8685C472.78 83.5334 470.472 84.4355 469.354 85.951C468.164 87.6108 468.524 89.7758 470.147 91.0027C470.724 91.3996 471.229 90.4614 470.688 90.0645Z" fill="#919B9B"/>
<path d="M467.262 95.4046C467.117 92.554 470.615 91.4715 472.815 91.4715C475.52 91.4715 476.385 93.8891 477.503 95.9458C477.828 96.5593 478.765 96.018 478.441 95.4046C477.684 94.0334 476.962 92.2293 475.7 91.2189C474.546 90.3168 473.104 90.3529 471.733 90.4973C469.209 90.7859 465.999 92.3375 466.18 95.4046C466.216 96.0902 467.298 96.0902 467.262 95.4046Z" fill="#919B9B"/>
<path d="M458.391 92.8068C459.184 91.3274 462.105 91.9047 463.187 92.482C464.305 93.0955 464.954 94.1058 465.242 95.3326C465.387 96.0182 466.432 95.7295 466.288 95.044C465.855 93.1676 464.557 91.6882 462.682 91.0748C461.095 90.5696 458.391 90.5336 457.489 92.2295C457.128 92.879 458.066 93.4202 458.391 92.8068Z" fill="#919B9B"/>
<path d="M460.482 90.1368C459.292 90.1007 459.581 88.3327 460.086 87.7192C460.735 86.9254 462.033 86.8172 462.79 87.5749C463.403 88.1522 463.584 89.2347 463.079 89.9203C462.718 90.4255 462.177 90.5337 461.6 90.5337C461.384 90.5337 460.482 90.5698 460.338 90.3894C459.941 89.8121 459.004 90.3533 459.4 90.9307C459.833 91.5802 460.735 91.6162 461.456 91.6162C462.321 91.6523 463.151 91.4358 463.764 90.7863C464.918 89.5234 464.521 87.3945 463.151 86.4563C461.672 85.4821 459.617 86.0233 458.86 87.611C458.21 89.0182 458.679 91.1472 460.482 91.1832C461.204 91.2554 461.204 90.1729 460.482 90.1368Z" fill="#919B9B"/>
<path d="M239.779 174.896C241.474 176.267 243.566 175.69 245.153 174.355C247.389 172.514 248.506 169.375 248.939 166.597C250.057 159.524 247.208 152.813 246.09 145.957C244.071 133.22 249.624 119.58 259.938 111.93C264.951 108.178 273.209 104.172 271.262 96.4867C271.082 95.8012 270.036 96.0898 270.216 96.7754C272.055 104.1 263.545 107.817 258.892 111.353C254.709 114.564 251.319 118.714 248.903 123.369C246.523 127.879 245.081 132.895 244.684 137.983C244.215 144.153 245.838 149.89 247.172 155.844C247.966 159.452 248.47 163.241 247.785 166.921C247.461 168.617 246.884 170.277 245.982 171.757C244.972 173.344 242.556 175.798 240.537 174.174C240.032 173.705 239.238 174.463 239.779 174.896Z" fill="#919B9B"/>
<path d="M270.866 96.0545C266.79 96.2349 263.22 93.0596 263.437 88.8739C263.653 84.5078 268.81 80.4665 273.174 81.6212C277.068 82.6676 280.061 86.9615 279.088 90.9668C278.114 94.972 273.606 95.838 270.144 96.4154C269.459 96.5236 269.748 97.57 270.433 97.4618C274.905 96.7401 280.098 95.1524 280.386 89.7399C280.602 85.3378 276.672 80.5748 272.164 80.3943C267.404 80.1778 262.607 84.0748 262.355 88.91C262.138 93.673 266.213 97.3535 270.866 97.1731C271.551 97.1009 271.551 96.0184 270.866 96.0545Z" fill="#E93F3F" fill-opacity="0.43"/>
<path d="M265.528 93.2396C267.259 88.8735 276.491 88.1518 277.573 93.3478C277.717 94.0334 278.763 93.7447 278.619 93.0592C277.285 86.7085 266.574 87.6467 264.482 92.9509C264.23 93.6004 265.276 93.853 265.528 93.2396Z" fill="#E93F3F" fill-opacity="0.43"/>
<path d="M270.937 88.3686C270.18 87.8273 269.891 86.7809 270.396 85.9871C270.973 85.0128 272.199 84.9046 273.137 85.4097C273.858 85.8066 274.003 86.7087 273.57 87.3943C273.029 88.2242 271.875 88.3325 270.973 88.116C270.288 87.9716 270 89.0181 270.685 89.1624C272.127 89.4871 273.858 89.1624 274.58 87.7551C275.229 86.4922 274.76 84.9767 273.462 84.3633C272.019 83.7138 270.288 84.0025 269.459 85.4097C268.629 86.7448 269.17 88.4046 270.396 89.2706C270.973 89.7397 271.514 88.8016 270.937 88.3686Z" fill="#E93F3F" fill-opacity="0.43"/>
<path d="M286.228 77.2548C290.014 67.2236 300.905 62.0998 311.039 61.4142C317.746 60.9451 324.454 61.9915 331.017 63.2545C337.22 64.4813 343.675 66.4298 350.022 66.2133C355.251 66.0329 360.625 63.8679 363.077 58.9966C363.402 58.3832 362.464 57.842 362.139 58.4554C359.291 64.0844 352.727 65.5277 346.921 65.0586C340.141 64.5174 333.47 62.4967 326.798 61.3781C315.979 59.574 304.439 59.3214 294.811 65.4195C290.447 68.1979 286.985 72.0949 285.146 76.9661C284.93 77.6156 285.975 77.9043 286.228 77.2548Z" fill="#919B9B"/>
<path d="M367.44 58.3833C376.961 58.3833 386.518 58.3833 396.038 58.3833C396.723 58.3833 396.723 57.3008 396.038 57.3008C386.518 57.3008 376.961 57.3008 367.44 57.3008C366.719 57.3008 366.719 58.3833 367.44 58.3833Z" fill="#3F64E9" fill-opacity="0.46"/>
<path d="M367.044 57.2282C365.349 55.5684 367.188 52.7539 368.523 51.491C370.146 49.9033 372.381 49.2899 374.545 50.1559C374.726 50.2281 375.086 50.1198 375.158 49.9033C376.457 46.8723 379.522 44.6712 382.876 44.8156C386.374 44.9599 389.331 47.594 390.196 50.9136C390.268 51.2384 390.701 51.4188 390.99 51.2384C392.576 50.2641 394.199 51.4188 394.848 52.8982C395.425 54.2694 395.281 55.821 395.137 57.3004C395.065 57.986 396.147 57.986 396.219 57.3004C396.435 55.1354 396.579 52.5735 394.848 50.9136C393.622 49.759 391.927 49.3981 390.485 50.3002C390.737 50.4085 391.026 50.5167 391.278 50.625C390.305 47.0166 387.203 44.13 383.417 43.7691C379.522 43.3722 375.771 45.7898 374.257 49.3621C374.473 49.2899 374.653 49.1816 374.87 49.1095C371.985 47.9548 368.956 49.1816 367.08 51.5631C365.674 53.3312 364.448 56.1818 366.359 58.0221C366.792 58.4911 367.549 57.7334 367.044 57.2282Z" fill="#3F64E9" fill-opacity="0.46"/>
<path d="M387.564 62.5327C391.999 62.0275 394.596 66.6823 395.281 70.4349C396.002 74.2959 395.317 78.1568 394.92 82.0177C394.307 87.8271 394.704 94.8273 400.222 98.2191C400.799 98.58 401.376 97.6418 400.762 97.2809C393.225 92.6623 396.363 82.3785 396.651 75.3062C396.868 69.9298 394.74 60.6564 387.564 61.4502C386.878 61.5224 386.878 62.6049 387.564 62.5327Z" fill="#919B9B"/>
<path d="M406.208 92.121C402.962 100.312 399.753 108.503 396.507 116.658C396.255 117.307 397.301 117.596 397.553 116.946C400.799 108.755 404.008 100.564 407.254 92.4096C407.506 91.7601 406.461 91.5076 406.208 92.121Z" fill="#919B9B"/>
<path d="M406.713 92.8063C412.339 92.5176 417.928 92.662 423.518 93.3115C423.338 93.095 423.157 92.8424 423.013 92.6259C420.345 101.178 418.181 109.838 416.45 118.606C416.306 119.291 417.351 119.58 417.496 118.895C419.227 110.126 421.427 101.466 424.059 92.9145C424.167 92.5537 423.879 92.2651 423.554 92.229C417.965 91.5795 412.375 91.4351 406.749 91.7238C406.028 91.7599 406.028 92.8424 406.713 92.8063Z" fill="#919B9B"/>
<path d="M396.76 117.704C400.077 117.849 403.359 118.029 406.677 118.245C409.886 118.426 413.312 118.354 416.342 119.581C416.991 119.833 417.279 118.787 416.63 118.534C413.745 117.343 410.463 117.416 407.398 117.235C403.864 117.019 400.33 116.838 396.76 116.658C396.074 116.586 396.074 117.668 396.76 117.704Z" fill="#919B9B"/>
<path d="M407.218 96.4145C410.68 96.4867 414.142 96.7392 417.568 97.2083C418.253 97.3166 418.541 96.2702 417.856 96.1619C414.322 95.6567 410.788 95.3681 407.218 95.2959C406.496 95.2959 406.496 96.3784 407.218 96.4145Z" fill="#919B9B"/>
<path d="M406.172 98.8687C408.12 98.7966 410.067 98.8326 412.014 99.0131C412.699 99.0852 412.699 98.0027 412.014 97.9305C410.067 97.7501 408.12 97.678 406.172 97.7862C405.487 97.8223 405.487 98.9048 406.172 98.8687Z" fill="#919B9B"/>
<path d="M403.792 103.74C407.939 103.487 411.87 103.126 415.945 104.137C416.63 104.317 416.918 103.271 416.233 103.09C412.05 102.08 408.047 102.405 403.792 102.657C403.07 102.693 403.07 103.776 403.792 103.74Z" fill="#919B9B"/>
<path d="M403.972 106.915C406.352 106.734 408.732 106.734 411.112 106.951C411.798 107.023 411.798 105.941 411.112 105.868C408.732 105.652 406.352 105.652 403.972 105.832C403.287 105.904 403.251 106.987 403.972 106.915Z" fill="#919B9B"/>
<path d="M402.097 111.101C405.342 110.884 408.516 110.993 411.725 111.426C412.411 111.534 412.411 110.451 411.725 110.343C408.516 109.91 405.306 109.802 402.097 110.018C401.411 110.054 401.411 111.137 402.097 111.101Z" fill="#919B9B"/>
<path d="M222.65 62.6766C224.092 64.6251 226.184 65.4189 228.312 66.3932C230.836 67.5478 233.144 69.0994 235.019 71.1562C239.275 75.7387 240.681 81.909 240.789 88.0071C241.042 99.4455 237.183 111.425 242.376 122.25C242.664 122.864 243.602 122.322 243.314 121.709C237.868 110.307 242.7 97.5331 241.763 85.5534C241.366 80.3574 239.888 75.2697 236.534 71.2283C234.947 69.3159 233 67.6561 230.836 66.4292C228.42 65.0581 225.282 64.4447 223.587 62.1353C223.191 61.5941 222.253 62.1353 222.65 62.6766Z" fill="#919B9B"/>
<path d="M210.316 47.4138C209.379 46.223 209.451 45.3931 210.533 44.924C211.001 44.6714 211.47 44.491 212.011 44.3828C212.696 44.2384 213.454 44.2024 214.175 44.2384C216.339 44.3467 218.538 44.924 218.43 47.5581C218.322 50.6613 217.745 53.7284 216.988 56.7233C216.194 59.7904 215.221 62.7853 214.175 65.7802C213.958 66.4297 213.778 67.1874 213.454 67.8009C212.804 68.9194 211.795 68.8834 210.713 68.8834C209.379 68.8834 207.684 69.0638 206.385 68.7029C204.943 68.306 204.618 66.8627 206.025 65.9245C206.674 65.4915 207.575 65.4194 208.333 65.4194C209.306 65.4194 210.172 65.6359 211.001 64.9864C212.588 63.7595 212.841 60.4399 213.201 58.6718C213.742 56.1099 214.644 52.9706 214.463 50.3726C214.319 48.388 212.372 48.3159 210.965 47.4859C210.352 47.1251 209.811 48.0633 210.424 48.4241C211.542 49.0736 213.165 49.1458 213.381 50.6252C213.634 52.3572 212.913 54.7026 212.588 56.4346C212.264 58.0944 211.903 59.7543 211.47 61.378C211.146 62.6049 211.001 64.0843 209.379 64.409C208.729 64.5534 207.936 64.3369 207.251 64.4451C205.52 64.6977 203.825 65.9245 204.077 67.873C204.402 70.3267 207.323 69.8937 209.126 69.9659C211.362 70.038 213.598 70.3628 214.608 67.9813C215.87 65.0224 216.771 61.7749 217.637 58.7079C218.538 55.5325 219.224 52.2489 219.476 48.9654C219.692 46.4034 219.801 44.3467 216.952 43.6611C214.463 43.0477 211.037 42.759 209.09 44.7797C207.792 46.1148 208.116 48.7489 210.352 48.5684C211.001 48.4241 211.001 47.3416 210.316 47.4138Z" fill="#919B9B"/>
<path d="M205.953 51.2744C205.917 51.2383 205.881 51.2022 205.845 51.1661C205.7 51.0218 205.484 50.9857 205.304 51.0218C204.258 51.3826 203.861 53.0786 203.573 54.0167C203.068 55.7487 202.96 57.5168 203.212 59.321C203.284 60.0066 204.366 60.0066 204.294 59.321C204.15 58.0581 204.114 56.8312 204.33 55.5683C204.438 54.9188 205.556 52.393 205.159 52.0321C205.664 52.5373 206.422 51.7796 205.953 51.2744Z" fill="#919B9B"/>
<path d="M202.31 47.3053C198.993 51.5271 196.865 56.6148 198.271 62.0273C198.452 62.7129 199.498 62.4243 199.317 61.7387C198.019 56.7592 200.038 51.9601 203.068 48.0631C203.5 47.5218 202.743 46.7641 202.31 47.3053Z" fill="#919B9B"/>
<path d="M197.767 42.4342C192.249 49.6869 189.653 58.8521 190.59 67.9451C190.663 68.6307 191.744 68.6307 191.672 67.9451C190.771 59.0325 193.259 50.1199 198.705 42.9754C199.101 42.4342 198.164 41.8929 197.767 42.4342Z" fill="#919B9B"/>
<path d="M190.085 79.3114C187.309 80.6465 184.712 82.4868 182.656 84.7961C180.565 87.1776 179.916 89.7395 179.591 92.8427C178.87 99.9511 176.237 107.745 169.097 110.74C168.448 110.993 168.736 112.039 169.385 111.786C175.083 109.405 178.401 103.992 179.808 98.1469C180.637 94.6468 180.24 90.4973 182.079 87.358C183.955 84.1466 187.345 81.8012 190.626 80.2135C191.275 79.9609 190.734 79.0228 190.085 79.3114Z" fill="#919B9B"/>
<path d="M153.843 129.9C151.462 129.972 148.758 128.962 147.892 126.508C146.882 123.622 149.046 120.807 151.354 119.328C155.826 116.441 161.848 115.322 167.041 115.25C169.674 115.214 172.667 115.25 174.975 116.658C177.932 118.462 178.437 121.854 176.129 124.415C172.631 128.312 166.609 128.709 161.776 129.07C161.091 129.106 161.091 130.189 161.776 130.153C166.609 129.792 172.018 129.359 175.913 126.111C179.483 123.153 179.735 118.245 175.552 115.683C171.225 113.049 164.625 113.915 159.937 114.926C155.429 115.9 149.263 117.668 147.243 122.323C145.151 127.086 149.154 131.055 153.915 130.91C154.564 130.947 154.564 129.864 153.843 129.9Z" fill="#FFB800" fill-opacity="0.43"/>
<path d="M153.662 130.333C152.761 131.776 151.895 133.22 150.994 134.627C150.705 135.096 151.282 135.601 151.751 135.385C153.951 134.194 156.331 133.436 158.567 132.39C159.793 131.848 160.983 131.199 162.137 130.477C162.534 130.225 163.002 130.08 163.111 129.575C163.183 129.323 163.038 128.962 162.75 128.926C162.714 128.926 162.678 128.926 162.642 128.89C162.389 128.853 162.029 128.962 161.993 129.25C161.993 129.286 161.993 129.286 161.993 129.323C161.848 130.008 162.894 130.297 163.039 129.611C163.039 129.575 163.039 129.575 163.039 129.539C162.822 129.647 162.606 129.792 162.389 129.9C162.425 129.9 162.462 129.9 162.498 129.936C162.389 129.719 162.245 129.503 162.137 129.286C162.029 129.647 160.009 130.477 159.577 130.73C158.495 131.307 157.377 131.776 156.223 132.245C154.528 132.931 152.869 133.58 151.282 134.446C151.535 134.699 151.787 134.952 152.039 135.204C152.941 133.761 153.807 132.317 154.708 130.91C154.961 130.297 154.023 129.756 153.662 130.333Z" fill="#FFB800" fill-opacity="0.43"/>
<path d="M154.852 124.091C154.816 124.018 154.816 123.874 154.924 123.874C155.213 123.874 154.888 124.235 154.852 124.271C154.672 124.379 154.059 124.524 154.095 124.163C154.131 123.73 154.96 123.261 155.105 123.91C155.141 124.091 154.996 124.307 154.816 124.343C154.708 124.379 154.636 124.379 154.564 124.307C154.528 124.271 154.455 124.235 154.528 124.235C155.213 124.271 155.213 123.189 154.528 123.152C153.806 123.08 153.265 123.838 153.446 124.524C153.626 125.209 154.419 125.57 155.068 125.39C155.718 125.209 156.222 124.632 156.222 123.946C156.222 123.261 155.682 122.683 155.068 122.539C153.734 122.214 152.328 124.163 153.482 125.137C154.419 125.931 156.295 125.209 156.186 123.874C156.114 123.152 155.321 122.575 154.6 122.828C153.878 123.08 153.59 123.982 153.951 124.632C154.239 125.245 155.177 124.704 154.852 124.091Z" fill="#FFB800" fill-opacity="0.43"/>
<path d="M162.822 123.117C162.786 122.9 162.678 122.612 162.894 122.431C163.003 122.323 163.183 122.323 163.327 122.323C163.688 122.395 163.616 122.792 163.363 122.973C163.219 123.081 163.075 123.081 162.966 122.936C162.858 122.792 162.894 122.756 163.003 122.684C163.075 122.648 162.858 122.684 163.039 122.648C163.471 122.576 162.75 123.081 162.858 122.72C162.642 123.406 163.688 123.658 163.904 123.009C164.084 122.359 163.471 121.71 162.822 121.818C162.065 121.962 161.885 122.864 162.353 123.406C162.786 123.911 163.58 123.802 163.904 123.225C164.229 122.648 164.012 121.89 163.363 121.674C162.714 121.457 161.993 121.854 161.849 122.503C161.668 123.225 162.173 123.947 162.894 124.127C164.193 124.416 165.274 122.648 164.337 121.674C163.868 121.204 163.111 121.168 162.534 121.421C161.74 121.818 161.704 122.648 161.849 123.406C161.885 124.091 162.93 123.802 162.822 123.117Z" fill="#FFB800" fill-opacity="0.43"/>
<path d="M170.828 120.698C170.972 120.698 171.116 120.734 171.297 120.734V120.698C171.333 120.662 171.333 120.59 171.369 120.554C171.405 120.482 171.513 120.41 171.585 120.374C171.766 120.301 171.946 120.301 172.054 120.482C172.198 120.771 171.946 121.312 171.585 121.095C171.369 120.951 171.333 120.59 171.657 120.662C171.73 120.662 171.766 120.698 171.802 120.734C171.802 120.734 171.802 120.807 171.802 120.734C171.802 120.662 171.802 120.771 171.766 120.771C171.657 120.843 171.621 120.915 171.513 120.843C171.261 120.662 170.9 120.807 170.756 121.023C170.612 121.312 170.72 121.6 170.936 121.781C171.982 122.539 173.388 121.023 172.559 120.013C171.802 119.111 170.179 119.688 170.251 120.879C170.287 121.492 170.756 122.033 171.333 122.178C171.91 122.322 172.523 122.033 172.847 121.528C173.569 120.41 172.559 118.858 171.225 119.291C170.612 119.508 170.071 120.121 170.143 120.807C170.215 121.564 171.297 121.961 171.693 121.204C172.054 120.626 171.153 120.085 170.828 120.698Z" fill="#FFB800" fill-opacity="0.43"/>
<path d="M192.61 89.2344C197.045 86.7808 200.904 83.5333 204.114 79.6002C204.546 79.059 203.789 78.3012 203.356 78.8425C200.219 82.7034 196.432 85.8787 192.069 88.2963C191.456 88.621 191.997 89.5592 192.61 89.2344Z" fill="#919B9B"/>
<path d="M246.559 90.1723C245.766 94.7188 245.441 99.3014 245.657 103.92C245.694 104.606 246.775 104.606 246.739 103.92C246.523 99.4096 246.811 94.8992 247.605 90.461C247.713 89.7754 246.667 89.4867 246.559 90.1723Z" fill="#919B9B"/>
<path d="M241.042 195.644C241.042 190.123 243.638 184.891 248.074 181.571C248.615 181.174 248.074 180.236 247.533 180.633C242.773 184.169 239.996 189.69 239.996 195.644C239.96 196.329 241.042 196.329 241.042 195.644Z" fill="#919B9B"/>
<path d="M301.447 341.348C302.024 346.544 302.925 352.245 304.368 358.415C306.315 366.751 308.803 374.039 311.292 380.174C310.607 380.787 308.551 382.411 305.522 382.627C303.61 382.772 302.096 382.303 301.23 381.978C299.932 377.467 298.67 372.777 297.516 367.905C295.136 357.874 293.405 348.312 292.142 339.399C295.28 340.049 298.381 340.698 301.447 341.348Z" fill="#191919"/>
<path d="M382.407 337.956C381.938 343.116 381.145 348.854 379.811 355.024C377.935 363.756 375.447 371.334 372.923 377.72C373.283 378.045 375.339 379.993 378.512 379.849C381.253 379.741 383.02 378.117 383.453 377.72C384.282 373.354 385.076 368.952 385.869 364.55C387.6 354.916 389.151 345.426 390.629 336.044C387.889 336.657 385.148 337.307 382.407 337.956Z" fill="#191919"/>
<path d="M317.927 323.559C318.756 329.08 319.73 334.781 320.848 340.626C322.471 349.106 324.31 357.189 326.257 364.838C325.428 365.343 323.769 366.173 321.497 366.318C319.586 366.426 318.071 365.993 317.206 365.668C316.124 360.544 315.078 355.348 314.032 350.152C312.121 340.518 310.354 331.028 308.659 321.646C311.76 322.26 314.826 322.909 317.927 323.559Z" fill="#191919"/>
<path d="M368.811 322.477C367.837 327.925 366.972 333.627 366.215 339.544C365.169 347.699 364.447 355.493 364.015 362.926C364.628 363.323 366.07 364.153 368.126 364.261C370.326 364.334 371.948 363.468 372.562 363.107C372.201 358.849 372.057 354.122 372.273 349.07C372.706 337.848 374.761 328.178 377.033 320.564C374.293 321.178 371.552 321.827 368.811 322.477Z" fill="#191919"/>
<path d="M432.894 201.742C439.205 213 434.337 225.449 422.508 256.372C416.81 271.238 406.388 298.554 391.675 337.487C377.214 342.756 353.268 349.251 323.661 347.194C306.459 346.003 292.034 342.287 281.107 338.462C279.484 335.539 273.858 324.606 278.078 313.997C280.422 308.116 285.146 303.894 295.171 298.914C305.053 294.007 322.471 287.115 347.787 285.852C337.869 236.454 354.855 195.969 381.289 186.623C398.635 180.525 424.203 186.262 432.894 201.742Z" fill="#FFB800" stroke="#191919" stroke-width="1.77266" stroke-miterlimit="10"/>
<path d="M430.587 205.819C420.128 219.062 417.748 236.851 413.745 252.764C409.454 269.795 404.513 286.79 397.121 302.775C393.046 311.544 388.249 319.987 382.515 327.781C382.119 328.358 383.056 328.9 383.453 328.322C393.514 314.611 400.619 299.059 406.1 283.038C411.654 266.728 415.332 249.913 419.66 233.279C422.112 223.825 425.249 214.371 431.38 206.613C431.777 206.036 431.019 205.278 430.587 205.819Z" fill="#191919"/>
<path d="M281.324 330.631C305.377 339.472 331.595 342.07 356.911 338.137C364.159 337.018 371.336 335.358 378.368 333.193C379.017 332.977 378.765 331.93 378.079 332.147C353.557 339.724 327.231 340.879 302.132 335.539C295.172 334.059 288.284 332.039 281.612 329.585C280.963 329.332 280.675 330.379 281.324 330.631Z" fill="#191919"/>
<path d="M365.998 302.27C372.057 304.255 377.214 308.26 380.676 313.672C381.036 314.25 381.974 313.708 381.613 313.131C378.007 307.502 372.634 303.316 366.287 301.224C365.602 301.007 365.313 302.054 365.998 302.27Z" fill="#191919"/>
<path d="M257.523 348.997C260.408 353.327 263.293 357.693 266.142 362.023C247.678 378.622 245.298 383.349 246.668 384.503C249.409 386.777 269.063 376.673 271.082 375.627C278.403 371.874 283.921 368.23 287.599 365.632C286.301 362.096 284.57 358.126 282.189 353.941C279.052 348.42 275.59 343.765 272.308 339.977C267.368 342.935 262.427 345.966 257.523 348.997Z" fill="#191919"/>
<path d="M365.421 263.949C366.72 266.764 368.09 270.769 368.306 275.604C368.631 282.893 366.251 288.702 364.448 292.058C363.474 293.321 361.743 295.414 359.183 297.687C359.183 297.687 353.377 302.811 344.145 306.744C334.732 310.785 307.361 315.657 270.18 316.595C271.262 321.213 273.21 326.879 276.672 332.977C278.583 336.332 280.675 339.291 282.73 341.853C281.36 343.657 277.465 348.24 269.712 351.127C262.247 353.905 255.395 353.58 252.69 353.364C248.795 349.791 244.792 345.534 241.078 340.446C230.151 325.399 227.591 310.858 227.122 301.512C229.826 299.563 233.793 296.893 238.986 294.043C249.805 288.089 259.722 284.841 267.872 282.424C281.901 278.31 295.316 275.46 326.185 270.228C335.85 268.604 349.229 266.367 365.421 263.949Z" fill="white" stroke="#191919" stroke-width="1.77266" stroke-miterlimit="10"/>
<path opacity="0.19" d="M331.162 270.156C330.117 277.048 327.159 285.996 318 291.553C309.092 296.966 301.627 294.765 283.776 299.095C270.938 302.198 253.953 306.311 249.228 315.44C244.288 325.038 253.628 338.57 269.964 349.683C271.335 349.503 273.066 349.142 274.905 348.42C279.629 346.544 281.937 343.477 282.803 342.142C280.711 339.616 278.547 336.693 276.564 333.338C272.813 327.059 270.794 321.214 269.64 316.487C288.753 315.693 304.801 314.033 316.99 312.445C331.667 310.533 341.837 308.621 351.538 303.136C359.652 298.553 362.897 294.043 364.051 292.311C367.549 287.007 367.838 282.171 367.982 279.465C368.343 272.862 366.179 267.486 364.376 264.094C353.305 266.114 342.234 268.135 331.162 270.156Z" fill="#6C6D6D"/>
<path opacity="0.19" d="M364.737 264.852C364.015 271.563 361.455 282.172 351.249 290.543C344.974 295.703 338.231 298.012 311.761 305.157C300.076 308.296 285.94 312.012 269.856 316.054C290.304 315.837 306.928 314.141 318.865 312.518C331.234 310.822 337.293 309.342 343.568 306.636C349.518 304.074 361.527 298.878 366.431 287.945C371.156 277.336 366.395 267.81 364.737 264.852Z" fill="#6C6D6D"/>
<path opacity="0.22" d="M269.964 316.595C269.82 321.358 270.036 326.806 270.938 332.796C271.803 338.714 273.21 344.018 274.724 348.637C275.95 347.915 277.357 346.941 278.727 345.75C280.386 344.307 281.612 342.936 282.514 341.745C280.422 339.002 278.295 335.827 276.311 332.255C273.102 326.482 271.19 321.141 269.964 316.595Z" fill="#6C6D6D"/>
<path d="M268.305 369.71C271.082 375.159 273.822 380.607 276.599 386.092C258.857 406.948 256.549 412.866 257.883 414.309C260.515 417.196 279.412 404.458 281.359 403.159C288.392 398.432 293.729 393.85 297.263 390.602C296.001 386.164 294.342 381.184 292.034 375.88C289.041 368.952 285.687 363.107 282.55 358.308C277.789 362.132 273.029 365.921 268.305 369.71Z" fill="#191919"/>
<path d="M372.021 262.831C373.283 266.403 374.581 271.383 374.797 277.481C375.122 286.646 372.814 293.935 371.083 298.157C370.145 299.744 368.487 302.378 366.034 305.265C366.034 305.265 360.481 311.724 351.609 316.667C342.558 321.719 316.232 327.889 280.53 329.044C281.576 334.853 283.415 341.962 286.769 349.611C288.608 353.833 290.628 357.55 292.611 360.761C291.313 363.034 287.562 368.772 280.097 372.416C272.921 375.916 266.358 375.519 263.725 375.195C259.974 370.72 256.116 365.344 252.582 358.957C242.051 340.049 239.599 321.755 239.166 310.028C241.763 307.61 245.585 304.219 250.562 300.646C260.984 293.177 270.469 289.064 278.33 286.033C291.782 280.873 304.728 277.3 334.407 270.697C343.567 268.64 356.478 265.862 372.021 262.831Z" fill="white" stroke="#191919" stroke-width="1.77266" stroke-miterlimit="10"/>
<path opacity="0.19" d="M339.096 270.625C338.086 279.285 335.237 290.507 326.438 297.507C317.891 304.327 310.678 301.549 293.549 306.997C281.215 310.894 264.879 316.09 260.335 327.565C255.575 339.617 264.554 356.648 280.241 370.576C281.576 370.36 283.235 369.891 285.002 368.988C289.546 366.643 291.745 362.782 292.575 361.086C290.555 357.911 288.464 354.23 286.552 350.009C282.946 342.106 280.999 334.782 279.917 328.828C298.309 327.817 313.708 325.761 325.464 323.776C339.6 321.395 349.337 318.977 358.677 312.085C366.467 306.312 369.604 300.647 370.686 298.482C374.04 291.806 374.329 285.744 374.473 282.352C374.797 274.053 372.742 267.306 371.011 263.048C360.372 265.538 349.734 268.063 339.096 270.625Z" fill="#6C6D6D"/>
<path opacity="0.19" d="M371.335 263.949C370.65 272.357 368.198 285.707 358.389 296.244C352.33 302.739 345.875 305.625 320.451 314.61C309.2 318.579 295.64 323.234 280.169 328.322C299.823 328.033 315.835 325.94 327.303 323.884C339.204 321.755 345.046 319.914 351.032 316.523C356.766 313.275 368.27 306.78 373.03 292.996C377.538 279.645 372.958 267.702 371.335 263.949Z" fill="#6C6D6D"/>
<path opacity="0.22" d="M280.278 329.008C280.133 334.998 280.35 341.853 281.215 349.359C282.081 356.828 283.379 363.467 284.858 369.241C286.048 368.303 287.382 367.112 288.716 365.596C290.303 363.792 291.493 362.06 292.359 360.581C290.339 357.117 288.284 353.148 286.408 348.637C283.307 341.42 281.432 334.673 280.278 329.008Z" fill="#6C6D6D"/>
<path d="M266.249 206.757C265.564 206.432 264.194 205.819 264.23 205.133C264.302 204.015 268.016 203.257 270.793 203.293C272.668 203.293 276.13 203.69 280.169 206.505C276.383 207.695 270.793 208.778 266.249 206.757Z" fill="white" stroke="#191919" stroke-width="1.77266" stroke-miterlimit="10"/>
<path d="M352.98 159.957C346.128 159.055 339.961 169.339 339.384 170.277C337.293 173.849 337.04 176.231 335.598 182.762C332.1 198.675 330.225 206.757 325.032 211.629C320.343 215.995 314.862 217.041 313.419 217.258C307.253 218.232 301.663 215.923 290.772 211.268C281.576 207.335 280.458 205.891 275.446 205.314C272.885 205.025 265.42 204.196 260.48 208.995C257.306 212.062 255.9 216.969 257.054 217.979C258.532 219.278 264.591 214.696 264.663 214.804C264.699 214.876 262.86 215.742 261.345 217.619C260.588 218.521 259.29 220.469 259.758 220.974C260.588 221.985 265.673 215.85 271.262 216.933C275.085 217.655 275.806 221.119 280.242 221.768C282.838 222.165 285.11 221.371 286.553 220.686C289.077 223.428 293.188 227.325 299.139 230.5C302.673 232.377 315.15 238.836 330.405 235.083C346.597 231.114 354.747 218.448 357.307 214.479C358.75 212.206 369.352 195.247 364.231 176.231C363.33 173.164 360.048 160.896 352.98 159.957Z" fill="white" stroke="#191919" stroke-width="1.77266" stroke-miterlimit="10"/>
<path opacity="0.25" d="M352.258 160.065C349.914 161.292 354.458 169.808 353.881 182.004C353.34 193.731 348.327 202.391 346.092 206.36C343.062 211.664 339.059 218.592 331.09 223.103C320.379 229.165 307.108 228.263 297.66 224.149C294.847 222.922 291.998 218.953 285.795 216.536C283.09 215.489 280.963 215.056 278.474 214.551C272.38 213.36 266.97 212.278 261.958 214.804C259.578 216.03 257.594 217.907 257.738 218.159C257.883 218.412 260.659 217.005 263.112 215.67C260.155 219.603 259.686 220.721 259.902 220.938C260.155 221.154 261.056 220.324 263.364 219.025C265.852 217.654 267.656 216.68 269.855 216.86C270.973 216.969 271.839 217.329 272.344 217.546C274.327 218.412 274.796 219.422 276.779 220.433C278.006 221.046 279.015 221.299 279.556 221.407C280.71 221.659 283.09 221.984 286.228 220.866C288.969 223.752 301.554 236.526 319.982 236.273C329.467 236.129 336.427 232.593 339.168 231.185C354.206 223.355 360.192 209.463 361.707 205.638C366.395 193.803 368.054 176.267 359.471 165.261C357.415 162.591 353.881 159.235 352.258 160.065Z" fill="#6C6D6D"/>
<path d="M257.703 217.98C259.109 215.887 260.948 214.227 263.148 213.036C263.617 212.784 263.184 212.098 262.751 212.351C260.443 213.614 258.496 215.382 257.017 217.583C256.693 218.016 257.414 218.413 257.703 217.98Z" fill="#191919"/>
<path d="M258.135 213.325C259.542 211.124 261.814 209.969 264.086 208.851C264.554 208.634 264.158 207.913 263.689 208.165C261.273 209.32 258.893 210.583 257.414 212.928C257.162 213.361 257.847 213.758 258.135 213.325Z" fill="#191919"/>
<path opacity="0.29" d="M362.609 173.056C362.068 176.7 361.094 181.968 359.363 188.175C355.973 200.443 352.908 211.484 344.902 220.253C334.985 231.078 321.533 234.036 313.816 234.939C319.55 236.274 324.058 236.021 326.907 235.624C348.544 232.593 360.228 209.319 363.402 199.144C363.943 197.34 365.097 193.623 365.241 188.535C365.494 181.752 363.835 176.303 362.609 173.056Z" fill="#6C6D6D"/>
<path opacity="0.26" d="M271.984 216.5C274.039 217.51 276.852 218.629 280.314 219.278C283.055 219.784 285.507 219.892 287.454 219.82C282.514 222.454 279.953 222.129 278.511 221.263C277.609 220.722 276.6 219.639 273.823 217.727C273.066 217.186 272.416 216.753 271.984 216.5Z" fill="#6C6D6D"/>
<path d="M199.065 275.821C199.065 293.141 199.065 310.497 199.065 327.817C199.065 329.91 202.311 329.91 202.311 327.817C202.311 310.497 202.311 293.141 202.311 275.821C202.311 273.764 199.065 273.728 199.065 275.821Z" fill="#161616"/>
<path d="M258.063 275.135C258.063 277.913 258.063 280.692 258.063 283.47C258.063 285.563 261.309 285.563 261.309 283.47C261.309 280.692 261.309 277.913 261.309 275.135C261.309 273.042 258.063 273.042 258.063 275.135Z" fill="#161616"/>
<path d="M154.276 273.692C171.766 257.202 189.256 240.676 206.783 224.186C235.092 224.691 263.365 225.196 291.674 225.701C287.058 241.722 282.442 257.707 277.826 273.728C236.642 273.692 195.459 273.692 154.276 273.692Z" fill="white" stroke="#191919" stroke-width="1.77266" stroke-miterlimit="10"/>
<path d="M155.321 275.568C186.948 275.568 218.539 275.568 250.166 275.568C259.037 275.568 267.872 275.568 276.744 275.568C278.835 275.568 278.835 272.32 276.744 272.32C245.117 272.32 213.526 272.32 181.899 272.32C173.028 272.32 164.193 272.32 155.321 272.32C153.23 272.32 153.23 275.568 155.321 275.568Z" fill="#161616"/>
<path d="M164.589 275.027C164.589 310.93 164.589 346.832 164.589 382.699C164.589 392.767 164.589 402.798 164.589 412.865C164.589 414.958 167.835 414.958 167.835 412.865C167.835 376.962 167.835 341.059 167.835 305.192C167.835 295.125 167.835 285.094 167.835 275.027C167.835 272.934 164.589 272.934 164.589 275.027Z" fill="#161616"/>
<path d="M263.509 275.027C263.509 310.93 263.509 346.832 263.509 382.699C263.509 392.767 263.509 402.798 263.509 412.865C263.509 414.958 266.754 414.958 266.754 412.865C266.754 376.962 266.754 341.059 266.754 305.192C266.754 295.125 266.754 285.094 266.754 275.027C266.754 272.934 263.509 272.934 263.509 275.027Z" fill="#161616"/>
<path d="M166.212 342.034C191.672 342.034 217.132 342.034 242.592 342.034C249.805 342.034 257.017 342.034 264.23 342.034C266.321 342.034 266.321 338.786 264.23 338.786C238.77 338.786 213.309 338.786 187.849 338.786C180.637 338.786 173.424 338.786 166.212 338.786C164.12 338.786 164.12 342.034 166.212 342.034Z" fill="#161616"/>
<path d="M291.241 225.7C287.13 241.758 282.406 257.67 276.996 273.331C276.527 274.666 278.619 275.207 279.088 273.908C284.497 258.212 289.221 242.335 293.333 226.278C293.657 224.943 291.601 224.365 291.241 225.7Z" fill="#161616"/>
<path d="M118.573 416.402C137.722 416.402 156.836 416.402 175.985 416.402C178.076 416.402 178.076 413.154 175.985 413.154C156.836 413.154 137.722 413.154 118.573 413.154C116.482 413.154 116.482 416.402 118.573 416.402Z" fill="#161616"/>
<path d="M184.027 415.68C188.426 415.68 192.862 415.68 197.261 415.68C199.353 415.68 199.353 412.433 197.261 412.433C192.862 412.433 188.426 412.433 184.027 412.433C181.935 412.433 181.935 415.68 184.027 415.68Z" fill="#161616"/>
<path d="M241.438 416.149C258.676 416.149 275.914 416.149 293.188 416.149C295.279 416.149 295.279 412.901 293.188 412.901C275.95 412.901 258.712 412.901 241.438 412.901C239.346 412.901 239.346 416.149 241.438 416.149Z" fill="#161616"/>
<path d="M304.981 414.995C308.046 414.995 311.111 414.995 314.213 414.995C316.304 414.995 316.304 411.747 314.213 411.747C311.147 411.747 308.082 411.747 304.981 411.747C302.889 411.747 302.889 414.995 304.981 414.995Z" fill="#161616"/>
<path d="M101.191 404.963C108.656 404.963 116.121 404.963 123.55 404.963C125.642 404.963 125.642 401.716 123.55 401.716C116.085 401.716 108.62 401.716 101.191 401.716C99.0997 401.716 99.0997 404.963 101.191 404.963Z" fill="#161616"/>
<path d="M258.929 266.872C236.678 266.295 214.392 265.754 192.141 265.176C205.34 252.547 218.503 239.882 231.702 227.253C246.92 228.047 262.174 228.841 277.393 229.634C271.226 242.083 265.096 254.46 258.929 266.872Z" fill="white" stroke="#191919" stroke-width="1.77266" stroke-miterlimit="10"/>
<path d="M230.944 227C217.998 239.521 205.051 252.078 192.105 264.599C191.528 244.537 190.915 224.438 190.338 204.376C203.465 196.077 216.591 187.778 229.718 179.479C230.079 195.319 230.511 211.16 230.944 227Z" fill="white" stroke="#191919" stroke-width="1.77266" stroke-miterlimit="10"/>
<path d="M191.528 206.288C192.574 224.15 193.259 242.047 193.62 259.944C193.62 260.305 194.16 260.305 194.16 259.944C193.8 242.047 193.115 224.15 192.069 206.288C192.033 205.964 191.492 205.964 191.528 206.288Z" fill="#191919"/>
<path d="M191.816 206.36C203.897 198.494 215.978 190.628 228.059 182.762C228.348 182.581 228.095 182.112 227.771 182.293C215.69 190.159 203.609 198.025 191.528 205.891C191.239 206.108 191.492 206.577 191.816 206.36Z" fill="#191919"/>
<path d="M227.915 182.726C227.879 197.123 228.312 211.557 229.249 225.918C229.285 226.279 229.826 226.279 229.79 225.918C228.889 211.52 228.42 197.123 228.456 182.726C228.456 182.401 227.915 182.401 227.915 182.726Z" fill="#191919"/>
<path d="M193.98 260.702C205.808 249.264 217.673 237.826 229.501 226.423C229.754 226.171 229.357 225.81 229.105 226.026C217.276 237.465 205.412 248.903 193.583 260.306C193.367 260.558 193.727 260.955 193.98 260.702Z" fill="#191919"/>
<path d="M248.759 254.568C250.959 251.067 253.158 247.531 255.286 243.959C255.466 243.67 254.998 243.382 254.817 243.67C252.69 247.243 250.49 250.779 248.29 254.279C248.074 254.568 248.542 254.856 248.759 254.568Z" fill="#191919"/>
<path d="M255.142 243.851C257.991 243.959 260.84 243.959 263.689 243.815C264.049 243.815 264.049 243.273 263.689 243.273C260.84 243.382 257.991 243.382 255.142 243.31C254.781 243.31 254.781 243.851 255.142 243.851Z" fill="#191919"/>
<path d="M263.328 243.67C261.705 247.206 260.047 250.743 258.388 254.279C258.243 254.604 258.712 254.856 258.856 254.567C260.515 251.031 262.174 247.495 263.797 243.959C263.941 243.598 263.472 243.346 263.328 243.67Z" fill="#191919"/>
<path d="M248.579 254.857C251.752 255.326 255.106 255.109 258.315 254.965C258.676 254.965 258.676 254.423 258.315 254.423C255.178 254.568 251.86 254.784 248.723 254.351C248.362 254.279 248.218 254.82 248.579 254.857Z" fill="#191919"/>
<path d="M260.407 243.706C258.965 247.315 257.306 250.815 255.43 254.207C255.25 254.495 255.719 254.784 255.899 254.495C257.774 251.031 259.469 247.495 260.948 243.851C261.056 243.526 260.551 243.382 260.407 243.706Z" fill="#191919"/>
<path d="M208.153 260.053C216.086 250.238 224.309 240.64 232.783 231.258C233 231.006 232.639 230.609 232.387 230.861C223.912 240.207 215.69 249.805 207.756 259.656C207.54 259.944 207.936 260.305 208.153 260.053Z" fill="#191919"/>
<path d="M217.745 260.666C224.849 250.743 232.35 241.145 240.212 231.835C240.428 231.583 240.068 231.186 239.815 231.438C231.918 240.784 224.417 250.418 217.276 260.377C217.06 260.666 217.529 260.954 217.745 260.666Z" fill="#191919"/>
<path d="M228.059 262.145C234.226 251.826 240.969 241.867 248.254 232.305C248.47 232.016 248.002 231.763 247.785 232.016C240.501 241.578 233.757 251.537 227.59 261.857C227.41 262.145 227.879 262.434 228.059 262.145Z" fill="#191919"/>
<path d="M236.714 263.048C242.772 251.753 249.949 241.109 258.171 231.294C258.387 231.042 258.027 230.645 257.774 230.897C249.516 240.748 242.304 251.429 236.209 262.759C236.065 263.084 236.534 263.372 236.714 263.048Z" fill="#191919"/>
<path d="M212.768 254.207C222 253.233 231.232 254.388 240.428 255.614C240.789 255.651 240.753 255.109 240.428 255.073C231.268 253.846 222.036 252.656 212.768 253.666C212.444 253.702 212.444 254.243 212.768 254.207Z" fill="#191919"/>
<path d="M217.421 248.939C226.148 248.614 234.875 249.263 243.458 250.923C243.782 250.995 243.927 250.454 243.602 250.418C234.983 248.758 226.184 248.109 217.421 248.434C217.096 248.397 217.096 248.939 217.421 248.939Z" fill="#191919"/>
<path d="M221.604 243.851C230.006 243.31 238.409 244.068 246.595 246.088C246.92 246.16 247.064 245.655 246.739 245.583C238.517 243.526 230.078 242.769 221.604 243.31C221.243 243.346 221.243 243.887 221.604 243.851Z" fill="#191919"/>
<path d="M225.931 238.764C234.009 238.8 242.015 239.63 249.913 241.253C250.237 241.326 250.382 240.784 250.057 240.748C242.123 239.125 234.045 238.295 225.931 238.259C225.607 238.222 225.607 238.764 225.931 238.764Z" fill="#191919"/>
<path d="M230.223 234.036C237.904 234.181 245.549 235.083 253.014 236.779C253.339 236.851 253.483 236.346 253.159 236.273C245.622 234.577 237.94 233.639 230.223 233.531C229.862 233.495 229.862 234.036 230.223 234.036Z" fill="#191919"/>
<path d="M254.962 239.521C251.428 244.717 247.93 249.913 244.395 255.109C244.215 255.398 244.684 255.686 244.864 255.398C248.398 250.202 251.896 245.006 255.431 239.81C255.647 239.485 255.178 239.232 254.962 239.521Z" fill="#191919"/>
<path d="M195.242 231.654C199.75 229.742 204.618 230.825 209.379 230.752C213.382 230.716 217.204 229.598 220.63 227.577C220.919 227.397 220.666 226.928 220.342 227.108C216.122 229.598 211.651 230.392 206.818 230.175C202.779 229.995 198.776 229.598 194.954 231.221C194.665 231.33 194.918 231.799 195.242 231.654Z" fill="#191919"/>
<path d="M207.395 229.418C215.113 225.052 218.683 215.85 226.725 211.989C227.05 211.845 226.761 211.376 226.436 211.52C218.358 215.417 214.824 224.583 207.107 228.949C206.818 229.129 207.071 229.598 207.395 229.418Z" fill="#191919"/>
<path d="M217.204 203.691C215.87 202.644 216.086 200.948 216.843 199.613C217.204 198.964 217.745 198.278 218.358 197.881C219.476 197.16 220.522 197.737 221.387 198.495C221.64 198.711 222.036 198.35 221.784 198.098C219.981 196.582 218.286 196.727 216.807 198.675C215.617 200.263 215.004 202.644 216.807 204.088C217.096 204.304 217.493 203.907 217.204 203.691Z" fill="#191919"/>
<path d="M328.277 177.313C318.396 188.282 315.727 200.334 314.285 207.154C311.652 219.783 314.429 224.835 314.61 248.83C314.682 259.042 314.249 267.305 313.924 272.501C316.16 274.233 330.008 284.553 348.508 281.161C362.212 278.671 370.47 270.083 373.067 267.161C373.68 263.733 374.545 258.681 375.555 252.547C380.892 219.458 383.525 202.68 380.207 190.664C378.224 183.375 373.319 171.828 359.399 159.885C353.557 161.112 339.529 164.864 328.277 177.313Z" fill="#E93F3F"/>
<path opacity="0.19" d="M338.339 170.674C341.765 180.921 343.604 189.69 344.686 196.112C347.535 213.108 351.826 238.582 339.745 263.263C335.886 271.13 331.379 276.903 328.205 280.475C332.388 281.449 340.683 282.785 350.564 280.223C362.32 277.192 369.677 270.372 372.706 267.269C375.05 253.846 376.926 242.335 378.368 233.35C380.856 217.546 381.433 212.747 381.181 205.999C380.892 197.339 380.496 188.246 375.303 178.432C370.326 169.05 363.33 163.421 359.039 160.534C355.54 161.148 350.6 162.447 345.371 165.478C342.486 167.21 340.142 169.05 338.339 170.674Z" fill="#6C6D6D"/>
<path opacity="0.18" d="M379.306 187.886C378.657 187.922 380.027 197.917 377.899 211.701C373.968 237.212 361.346 254.892 356.478 261.171C352.403 266.403 346.02 273.62 336.68 280.728C340.034 281.233 344.505 281.45 349.626 280.476C361.779 278.202 369.497 270.733 372.454 267.522C373.211 263.119 374.437 256.228 375.988 247.712C379.63 227.794 380.351 225.412 380.928 219.206C382.515 202.283 380.063 187.886 379.306 187.886Z" fill="#6C6D6D"/>
<path d="M264.735 214.696C264.05 214.227 262.679 213.361 262.824 212.639C263.112 211.484 267.259 211.304 270.253 211.809C272.272 212.134 275.95 213.18 279.809 216.825C275.482 217.438 269.243 217.619 264.735 214.696Z" fill="white" stroke="#191919" stroke-width="1.77266" stroke-miterlimit="10"/>
<path d="M366.539 180.128C359.291 177.999 350.816 187.777 350.059 188.715C347.174 192.143 346.488 194.597 343.784 201.236C337.22 217.474 333.794 225.665 327.303 229.923C321.497 233.747 315.402 233.892 313.78 233.892C306.964 233.856 301.338 230.464 290.375 223.68C281.143 217.943 280.206 216.211 274.868 214.768C272.164 214.046 264.23 211.881 258.063 216.103C254.132 218.773 251.716 223.752 252.798 225.015C254.168 226.639 261.525 222.814 261.561 222.958C261.597 223.031 259.433 223.644 257.486 225.376C256.512 226.206 254.781 228.01 255.178 228.66C255.899 229.886 262.463 224.257 268.305 226.35C272.272 227.758 272.488 231.546 277.14 233.026C279.881 233.892 282.477 233.423 284.136 232.954C286.372 236.309 290.159 241.108 296.001 245.474C299.499 248.072 311.832 257.021 328.962 255.686C347.137 254.279 358.173 242.263 361.599 238.546C363.582 236.418 377.971 220.288 375.771 199.288C375.447 195.86 374.04 182.365 366.539 180.128Z" fill="white" stroke="#191919" stroke-width="1.77266" stroke-miterlimit="10"/>
<path opacity="0.25" d="M365.746 180.127C363.005 181.029 366.431 190.808 363.654 203.618C361.021 215.922 354.097 224.221 350.96 228.01C346.741 233.098 341.223 239.737 331.811 243.129C319.189 247.675 305.016 244.464 295.532 238.51C292.719 236.706 290.339 232.051 284.028 228.407C281.287 226.819 279.087 226.025 276.455 225.051C270.108 222.742 264.41 220.649 258.604 222.489C255.827 223.355 253.339 225.015 253.483 225.304C253.627 225.628 256.837 224.582 259.722 223.608C255.863 227.252 255.142 228.371 255.322 228.659C255.539 228.948 256.693 228.19 259.397 227.252C262.354 226.206 264.41 225.52 266.79 226.097C267.98 226.386 268.846 226.927 269.387 227.252C271.37 228.479 271.695 229.67 273.642 231.077C274.832 231.943 275.914 232.376 276.491 232.592C277.681 233.062 280.205 233.819 283.776 233.17C286.228 236.706 297.588 252.366 317.53 255.253C327.808 256.732 335.922 254.206 339.132 253.16C356.73 247.459 365.637 233.819 367.945 230.031C375.086 218.34 379.954 200.081 372.598 186.947C370.867 183.663 367.621 179.514 365.746 180.127Z" fill="#6C6D6D"/>
<path d="M253.447 225.124C255.359 223.139 257.594 221.696 260.191 220.83C260.696 220.649 260.479 219.891 259.975 220.036C257.27 220.974 254.854 222.489 252.87 224.546C252.51 224.943 253.087 225.52 253.447 225.124Z" fill="#191919"/>
<path d="M254.745 220.289C256.657 218.16 259.325 217.33 261.994 216.572C262.499 216.428 262.282 215.634 261.777 215.778C259.001 216.608 256.188 217.51 254.204 219.711C253.808 220.108 254.385 220.649 254.745 220.289Z" fill="#191919"/>
<path opacity="0.29" d="M374.653 195.644C373.427 199.396 371.444 204.809 368.523 211.087C362.717 223.464 357.488 234.614 347.282 242.516C334.696 252.258 319.622 253.088 311.147 252.691C317.098 255.109 322.038 255.614 325.176 255.686C349.049 256.191 365.782 233.567 370.975 223.392C371.877 221.587 373.752 217.835 374.834 212.494C376.24 205.314 375.411 199.288 374.653 195.644Z" fill="#6C6D6D"/>
<path opacity="0.26" d="M269.171 225.989C271.19 227.397 274.039 229.056 277.681 230.355C280.566 231.366 283.199 231.871 285.29 232.123C279.484 234.036 276.78 233.278 275.373 232.123C274.508 231.402 273.606 230.067 270.902 227.577C270.216 226.891 269.603 226.35 269.171 225.989Z" fill="#6C6D6D"/>
<path d="M310.642 107.349C310.246 109.658 309.849 111.967 309.524 114.385C308.118 124.2 307.541 133.473 307.505 142.097C309.488 141.88 311.436 141.664 313.419 141.484C313.203 143.396 312.59 150.396 317.062 157.324C321.281 163.855 327.339 166.237 329.215 166.886C328.998 170.422 328.818 173.922 328.602 177.459C332.496 173.995 337.798 169.917 344.541 166.273C349.698 163.494 354.567 161.582 358.714 160.283C354.062 154.51 352.295 149.061 351.537 145.922C350.239 140.509 350.491 135.855 350.744 131.741C350.996 127.519 351.609 124.019 352.15 121.566C353.845 113.844 349.41 101.611 340.574 97.2093C331.847 92.8432 318.829 96.5237 310.642 107.349Z" fill="white" stroke="#161616" stroke-width="1.77266" stroke-miterlimit="10"/>
<path d="M312.59 141.736C313.599 141.592 314.645 141.483 315.655 141.375C316.016 141.339 316.016 140.798 315.655 140.834C314.573 140.942 313.527 141.086 312.445 141.231C312.121 141.231 312.265 141.772 312.59 141.736Z" fill="#161616"/>
<path d="M345.118 112.941C340.755 114.059 339.961 117.848 334.444 125.75C328.854 133.761 325.32 138.776 319.009 141.699C314.934 143.575 312.914 143.07 311.111 145.488C308.01 149.673 310.101 156.565 311.941 160.101C314.068 164.179 317.314 166.633 319.983 168.653C322.543 170.566 324.887 171.829 326.546 172.586C324.779 169.88 324.671 169.05 324.887 168.798C325.464 168.22 327.916 171.323 330.801 170.926C331.631 170.818 333.109 170.349 336.391 165.189C338.627 161.689 340.142 159.272 341.151 155.808C343.351 148.374 340.25 146.354 341.151 136.575C341.296 135.096 342.305 123.513 346.416 122.755C347.895 122.467 349.41 123.693 350.131 124.632C351.645 126.616 351.465 129.791 349.59 132.534C350.203 132.101 356.081 128.132 356.009 121.673C356.009 120.662 355.973 116.946 353.16 114.528C349.951 111.786 345.479 112.868 345.118 112.941Z" fill="#161616" stroke="#161616" stroke-width="1.77266" stroke-miterlimit="10"/>
<path d="M316.052 129.359C316.888 129.359 317.566 128.147 317.566 126.653C317.566 125.158 316.888 123.946 316.052 123.946C315.215 123.946 314.537 125.158 314.537 126.653C314.537 128.147 315.215 129.359 316.052 129.359Z" fill="#161616"/>
<path d="M304.512 130.622C305.348 130.622 306.026 129.411 306.026 127.916C306.026 126.422 305.348 125.21 304.512 125.21C303.675 125.21 302.997 126.422 302.997 127.916C302.997 129.411 303.675 130.622 304.512 130.622Z" fill="#161616"/>
<path d="M302.24 123.477C303.213 122.359 304.728 122.251 305.81 123.333C306.315 123.838 307.072 123.044 306.567 122.575C305.089 121.132 302.817 121.168 301.446 122.72C301.05 123.261 301.807 124.019 302.24 123.477Z" fill="#161616"/>
<path d="M314.068 121.601C315.331 120.554 316.989 120.699 318.071 121.889C318.54 122.395 319.297 121.637 318.829 121.132C317.314 119.508 314.97 119.436 313.275 120.843C312.77 121.276 313.527 122.034 314.068 121.601Z" fill="#161616"/>
<path d="M309.416 111.642C309.813 109.044 310.823 104.786 313.599 100.384C314.573 98.8325 316.665 95.5489 319.982 93.3117C326.329 89.09 336.102 89.4147 343.207 94.6108C350.167 99.6985 353.629 108.791 352.114 117.812C337.869 115.792 323.661 113.735 309.416 111.642Z" fill="#161616"/>
<path d="M286.12 111.967C308.01 114.781 329.936 117.596 351.826 120.374C353.881 120.627 353.881 117.379 351.826 117.127C329.936 114.312 308.01 111.498 286.12 108.719C284.064 108.431 284.064 111.678 286.12 111.967Z" fill="#161616"/>
<path d="M327.952 90.6778C333.578 91.9046 337.833 96.4511 338.554 101.9C339.204 106.663 337.112 111.498 333.145 114.457C339.384 115.287 345.659 116.153 351.898 116.983C352.222 115.323 352.511 112.797 352.114 109.838C351.176 102.91 347.173 98.4718 345.875 97.1367C344.469 95.6934 339.492 90.8582 332.099 90.4252C330.404 90.3531 328.962 90.4974 327.952 90.6778Z" fill="#161616"/>
</svg>
