<svg width="24" height="24" viewBox="0 0 24 24" fill="none" xmlns="http://www.w3.org/2000/svg">
<g clip-path="url(#clip0_1_9968)">
<path d="M8.31735 21.1472C6.97883 21.2996 6.05583 20.9696 5.44259 20.5023C5.09619 20.2384 4.87025 19.9467 4.72973 19.7174C4.65939 19.6027 4.60978 19.5025 4.57657 19.4274C4.55994 19.3898 4.54733 19.3583 4.53821 19.3342C4.53386 19.3226 4.5303 19.3127 4.52747 19.3046C4.30279 18.7216 4.03354 18.3752 3.83954 18.1816C3.74123 18.0835 3.65998 18.0225 3.60999 17.9889C3.58495 17.9721 3.56765 17.9621 3.55986 17.9578C3.55916 17.9574 3.55853 17.9571 3.55799 17.9568L3.52255 17.9407L3.48226 17.9134C3.21778 17.7342 2.96339 17.5228 2.85159 17.2567C2.78398 17.0957 2.75991 16.8921 2.8462 16.6885C2.92529 16.502 3.0645 16.3941 3.16137 16.3368C3.34251 16.2296 3.54898 16.1975 3.64969 16.185C3.71124 16.1773 3.76538 16.1736 3.80434 16.1717C3.82408 16.1707 3.84058 16.1702 3.85296 16.17L3.86852 16.1697L3.87389 16.1697L3.87595 16.1697L3.87682 16.1697H3.87721C3.87739 16.1697 3.87757 16.1697 3.87757 16.7398V16.1697H3.89639L3.91516 16.1709C4.67096 16.2208 5.22908 16.607 5.57989 16.9462C5.75721 17.1177 5.89058 17.2855 5.98036 17.4113C6.02551 17.4746 6.06038 17.5283 6.08493 17.5679C6.09723 17.5878 6.10699 17.6042 6.11422 17.6166L6.12319 17.6323L6.12338 17.6326C6.5371 18.3403 7.03429 18.5496 7.47098 18.5898C7.81883 18.6218 8.16176 18.5476 8.4333 18.4538C8.48831 18.2002 8.56601 17.9686 8.66107 17.7603C7.64006 17.5686 6.60253 17.2068 5.75371 16.4873C4.61643 15.5233 3.90992 13.999 3.90992 11.6765C3.90992 10.4066 4.32853 9.33636 5.00571 8.48082C4.84261 7.89534 4.67653 6.76219 5.22972 5.36098L5.32939 5.10852L5.5882 5.02671L5.76005 5.57036C5.5882 5.02671 5.58874 5.02653 5.58929 5.02636L5.59042 5.02601L5.59273 5.02529L5.59765 5.0238L5.60861 5.02063C5.61641 5.01844 5.62522 5.0161 5.63503 5.01368C5.65466 5.00885 5.67827 5.00372 5.7059 4.99881C5.76121 4.98899 5.83225 4.98017 5.91931 4.97641C6.09382 4.96889 6.32973 4.98187 6.62968 5.04592C7.18971 5.16552 7.96826 5.462 8.98928 6.13016C9.88466 5.90967 10.8036 5.79759 11.7264 5.79656L11.727 5.79656C12.6484 5.79656 13.585 5.91263 14.4649 6.12992C15.4859 5.46193 16.2644 5.1655 16.8243 5.04592C17.1243 4.98187 17.3602 4.96889 17.5347 4.97641C17.6218 4.98017 17.6928 4.98899 17.7481 4.99881C17.7758 5.00371 17.7994 5.00885 17.819 5.01368C17.8288 5.0161 17.8376 5.01844 17.8454 5.02063L17.8564 5.0238L17.8613 5.02529L17.8636 5.02601L17.8648 5.02636C17.8653 5.02653 17.8659 5.02671 17.694 5.57036L8.31735 21.1472ZM8.31735 21.1472C8.31913 21.3814 8.32156 21.6027 8.32399 21.8005C8.32546 21.9211 8.32693 22.0319 8.32824 22.1313C8.33111 22.349 8.33325 22.5115 8.33325 22.5995C8.33325 22.5999 8.33325 22.6002 8.33325 22.6006C8.31904 22.6006 8.29971 22.5994 8.27461 22.5956C4.00407 21.1436 0.927833 17.0817 0.927833 12.2834C0.927833 6.26038 5.75892 1.39976 11.727 1.39976C17.6772 1.39976 22.5251 6.26093 22.5074 12.2818V12.2834C22.5074 17.0816 19.4312 21.1433 15.1607 22.5958C15.1355 22.5996 15.1162 22.6008 15.102 22.6008C15.102 22.6003 15.1019 22.5998 15.1019 22.5993C15.1019 22.4762 15.104 22.261 15.1067 21.97C15.1081 21.8206 15.1096 21.6512 15.1112 21.464C15.1159 20.9156 15.1206 20.2217 15.1206 19.4515C15.1206 18.7746 14.994 18.2082 14.7831 17.7545L8.31735 21.1472Z" fill="#181818" stroke="#181818" stroke-width="1.14033"/>
</g>
<defs>
<clipPath id="clip0_1_9968">
<rect width="22.8067" height="22.3412" fill="white" transform="translate(0.357666 0.82959)"/>
</clipPath>
</defs>
</svg>
