<svg width="46" height="60" viewBox="0 0 46 60" fill="none" xmlns="http://www.w3.org/2000/svg">
<circle cx="23.248" cy="18.8683" r="18.8683" fill="#090E16"/>
<g clip-path="url(#clip0_1_8755)">
<path d="M35.0406 11.4977V26.2385C35.0406 27.0751 34.4031 27.7126 33.5665 27.7126H32.0924V14.3346L23.2479 20.6879L14.4035 14.3346V27.7126H12.9294C12.0928 27.7126 11.4553 27.0751 11.4553 26.2385V11.4977C11.4553 11.0791 11.613 10.7105 11.8776 10.4496C12.0154 10.3118 12.1795 10.203 12.3602 10.1298C12.5409 10.0566 12.7345 10.0205 12.9294 10.0236H13.421L23.2479 17.1486L33.0749 10.0236H33.5665C33.9852 10.0236 34.3537 10.1813 34.6183 10.4496C34.8829 10.7105 35.0406 11.0791 35.0406 11.4977Z" fill="#FBFBFB"/>
</g>
<path d="M7.38837 53.0178H8.24037V56.2218C7.84837 56.5658 7.38437 56.8298 6.84837 57.0138C6.31237 57.1978 5.74837 57.2898 5.15637 57.2898C4.31637 57.2898 3.56037 57.1058 2.88837 56.7378C2.21637 56.3698 1.68837 55.8618 1.30437 55.2138C0.920374 54.5578 0.728374 53.8258 0.728374 53.0178C0.728374 52.2098 0.920374 51.4818 1.30437 50.8338C1.68837 50.1778 2.21637 49.6658 2.88837 49.2978C3.56037 48.9298 4.32037 48.7458 5.16837 48.7458C5.80837 48.7458 6.39637 48.8498 6.93237 49.0578C7.46837 49.2578 7.92037 49.5578 8.28837 49.9578L7.73637 50.5218C7.07237 49.8658 6.22837 49.5378 5.20437 49.5378C4.52437 49.5378 3.90837 49.6898 3.35637 49.9938C2.81237 50.2898 2.38437 50.7058 2.07237 51.2418C1.76037 51.7698 1.60437 52.3618 1.60437 53.0178C1.60437 53.6738 1.76037 54.2658 2.07237 54.7938C2.38437 55.3218 2.81237 55.7378 3.35637 56.0418C3.90037 56.3458 4.51237 56.4978 5.19237 56.4978C6.05637 56.4978 6.78837 56.2818 7.38837 55.8498V53.0178ZM20.9176 48.8178V57.2178H20.0656V50.4978L16.7656 56.1498H16.3456L13.0456 50.5338V57.2178H12.1936V48.8178H12.9256L16.5736 55.0458L20.1856 48.8178H20.9176ZM30.3626 54.9738H25.6826L24.6746 57.2178H23.7506L27.5906 48.8178H28.4666L32.3066 57.2178H31.3706L30.3626 54.9738ZM30.0386 54.2538L28.0226 49.7418L26.0066 54.2538H30.0386ZM35.1361 48.8178H36.0241V57.2178H35.1361V48.8178ZM40.1972 48.8178H41.0852V56.4498H45.7892V57.2178H40.1972V48.8178Z" fill="#1F2626"/>
<defs>
<clipPath id="clip0_1_8755">
<rect width="23.5853" height="23.5853" fill="white" transform="translate(11.4551 7.07568)"/>
</clipPath>
</defs>
</svg>
