<svg width="24" height="24" viewBox="0 0 24 24" fill="none" xmlns="http://www.w3.org/2000/svg">
<path d="M11.47 3.84011C11.6106 3.69966 11.8012 3.62077 12 3.62077C12.1987 3.62077 12.3894 3.69966 12.53 3.84011L21.22 12.5301C21.2886 12.6038 21.3715 12.6629 21.4634 12.7039C21.5554 12.7449 21.6548 12.7669 21.7555 12.7687C21.8562 12.7705 21.9562 12.752 22.0496 12.7142C22.143 12.6765 22.2278 12.6204 22.299 12.5492C22.3702 12.4779 22.4264 12.3931 22.4641 12.2997C22.5018 12.2063 22.5204 12.1063 22.5186 12.0056C22.5168 11.9049 22.4948 11.8056 22.4538 11.7136C22.4128 11.6216 22.3537 11.5388 22.28 11.4701L13.591 2.78011C13.3821 2.57118 13.134 2.40544 12.861 2.29237C12.588 2.17929 12.2955 2.12109 12 2.12109C11.7045 2.12109 11.4119 2.17929 11.1389 2.29237C10.866 2.40544 10.6179 2.57118 10.409 2.78011L1.71899 11.4701C1.58244 11.6116 1.50693 11.8011 1.50873 11.9978C1.51053 12.1944 1.5895 12.3825 1.72862 12.5215C1.86774 12.6605 2.05589 12.7393 2.25254 12.7409C2.44919 12.7425 2.6386 12.6668 2.77999 12.5301L11.47 3.84011Z" fill="#181818"/>
<path d="M12 5.43169L20.159 13.5907C20.189 13.6207 20.219 13.6487 20.25 13.6767V19.8747C20.25 20.9097 19.41 21.7497 18.375 21.7497H15C14.8011 21.7497 14.6103 21.6707 14.4697 21.53C14.329 21.3894 14.25 21.1986 14.25 20.9997V16.4997C14.25 16.3008 14.171 16.11 14.0303 15.9694C13.8897 15.8287 13.6989 15.7497 13.5 15.7497H10.5C10.3011 15.7497 10.1103 15.8287 9.96967 15.9694C9.82902 16.11 9.75 16.3008 9.75 16.4997V20.9997C9.75 21.1986 9.67098 21.3894 9.53033 21.53C9.38968 21.6707 9.19891 21.7497 9 21.7497H5.625C5.12772 21.7497 4.65081 21.5521 4.29917 21.2005C3.94754 20.8489 3.75 20.372 3.75 19.8747V13.6767C3.78111 13.6489 3.81146 13.6202 3.841 13.5907L12 5.42969V5.43169Z" fill="#181818"/>
</svg>
