<svg width="1061" height="241" viewBox="0 0 1061 241" fill="none" xmlns="http://www.w3.org/2000/svg">
<path fill-rule="evenodd" clip-rule="evenodd" d="M211.864 197.402H229.918V190.036H217.653V183.781H228.571V177.155H217.653V171.393H229.603V164.521H211.864V197.402ZM233.156 197.402H238.63V176.908H238.687L246.425 197.402H252.385V164.479H246.912V184.768H246.855L239.117 164.479H233.156V197.402ZM273.964 164.479H254.879V171.846H261.527V197.402H267.316V171.846H273.964V164.479ZM276.515 197.402H282.304V185.427H286.688C287.347 185.427 287.863 185.632 288.264 186.003C288.694 186.373 289.01 186.867 289.239 187.484C289.468 188.102 289.611 188.801 289.726 189.501C289.812 190.2 289.869 191.106 289.927 192.135C289.927 192.176 289.927 192.341 289.955 192.67C290.013 193.699 290.099 194.645 290.156 195.509C290.242 196.332 290.385 196.991 290.557 197.361H296.289C296.117 197.114 295.973 196.703 295.887 196.168C295.773 195.633 295.687 194.974 295.629 194.316C295.543 193.616 295.515 193.081 295.486 192.629C295.457 192.217 295.429 191.517 295.4 190.53L295.372 189.954C295.343 189.089 295.257 188.225 295.114 187.402C294.97 186.579 294.798 185.797 294.54 185.056C294.311 184.316 293.967 183.698 293.566 183.163C293.165 182.628 292.678 182.258 292.133 182.093V182.011C293.251 181.353 294.111 180.282 294.712 178.76C295.314 177.278 295.629 175.591 295.629 173.739C295.629 172.134 295.429 170.735 294.97 169.582C294.54 168.389 293.967 167.443 293.222 166.661C292.477 165.92 291.646 165.344 290.729 165.014C289.812 164.644 288.838 164.479 287.806 164.479H276.458V197.402H276.515ZM282.304 171.352H286.918C287.777 171.352 288.465 171.64 289.01 172.257C289.554 172.875 289.841 173.739 289.841 174.891C289.841 177.484 288.952 178.76 287.147 178.76H282.304V171.352ZM299.011 197.402H317.065V190.036H304.8V183.781H315.718V177.155H304.8V171.393H316.75V164.521H299.011V197.402ZM340.908 179.377H331.537V185.715H335.578C335.435 187.237 334.89 188.431 333.973 189.336C333.056 190.242 331.91 190.694 330.477 190.694C329.589 190.694 328.786 190.406 328.127 189.871C327.468 189.336 326.923 188.595 326.493 187.69C326.092 186.744 325.777 185.715 325.576 184.562C325.376 183.369 325.29 182.175 325.29 180.9C325.29 179.665 325.376 178.43 325.576 177.278C325.777 176.085 326.092 175.056 326.493 174.151C326.895 173.204 327.468 172.504 328.127 171.969C328.786 171.434 329.56 171.146 330.477 171.146C331.681 171.146 332.684 171.558 333.515 172.381C334.346 173.204 334.804 174.274 334.861 175.673H340.65C340.536 173.698 340.163 171.969 339.533 170.447C338.931 168.924 338.157 167.648 337.211 166.702C336.266 165.714 335.205 165.014 334.088 164.521C332.941 164.027 331.795 163.821 330.591 163.821C328.958 163.821 327.439 164.274 326.064 165.138C324.688 166.002 323.513 167.237 322.539 168.801C321.564 170.364 320.791 172.216 320.275 174.315C319.759 176.373 319.501 178.636 319.501 180.982C319.501 183.328 319.759 185.591 320.275 187.649C320.791 189.748 321.536 191.559 322.539 193.122C323.513 194.686 324.717 195.921 326.064 196.785C327.439 197.649 328.929 198.102 330.591 198.102C331.766 198.102 332.884 197.732 334.03 197.073C335.177 196.373 336.094 195.304 336.782 193.822L337.125 197.444H340.851V179.377H340.908ZM353.575 173.616H353.632L356.097 185.139H351.053L353.575 173.616ZM342.341 197.402H348.302L349.706 191.517H357.472L358.848 197.402H364.895L356.584 164.479H350.68L342.341 197.402ZM366.499 197.402H371.944V176.908H372.001L379.71 197.402H385.671V164.479H380.226V184.768H380.169L372.431 164.479H366.471V197.402H366.499ZM389.654 197.402H399.226C402.665 197.402 405.33 195.962 407.25 193.122C409.17 190.242 410.116 186.167 410.116 180.817C410.116 175.714 409.141 171.722 407.221 168.842C405.301 165.961 402.608 164.521 399.226 164.521H389.654V197.402ZM395.472 171.846H398.223C400.229 171.846 401.748 172.587 402.78 174.068C403.84 175.55 404.356 177.772 404.356 180.735C404.356 184.027 403.868 186.373 402.923 187.772C401.977 189.172 400.401 189.912 398.194 189.995H395.443V171.846H395.472ZM412.494 180.941C412.494 183.328 412.752 185.55 413.24 187.649C413.727 189.707 414.443 191.559 415.389 193.122C416.335 194.686 417.481 195.921 418.856 196.785C420.232 197.649 421.78 198.102 423.47 198.102C425.19 198.102 426.709 197.649 428.084 196.785C429.46 195.921 430.606 194.686 431.552 193.122C432.497 191.559 433.214 189.748 433.701 187.649C434.188 185.591 434.446 183.328 434.446 180.941C434.446 178.554 434.188 176.332 433.701 174.233C433.214 172.175 432.497 170.364 431.552 168.759C430.606 167.196 429.46 165.961 428.084 165.097C426.709 164.233 425.161 163.78 423.47 163.78C421.78 163.78 420.232 164.233 418.856 165.097C417.481 165.961 416.335 167.196 415.389 168.759C414.443 170.323 413.727 172.134 413.24 174.233C412.724 176.291 412.494 178.513 412.494 180.941ZM418.283 180.941C418.283 179.706 418.398 178.472 418.599 177.319C418.799 176.126 419.086 175.097 419.516 174.192C419.917 173.245 420.461 172.546 421.149 172.011C421.808 171.476 422.582 171.188 423.47 171.188C424.359 171.188 425.161 171.476 425.82 172.011C426.479 172.546 427.024 173.245 427.454 174.192C427.855 175.097 428.17 176.167 428.371 177.319C428.571 178.472 428.686 179.706 428.686 180.941C428.686 182.217 428.571 183.41 428.371 184.604C428.17 185.756 427.855 186.826 427.454 187.731C427.024 188.637 426.508 189.377 425.82 189.912C425.161 190.447 424.387 190.736 423.47 190.736C422.582 190.736 421.808 190.447 421.149 189.912C420.49 189.377 419.945 188.637 419.516 187.731C419.086 186.785 418.799 185.756 418.599 184.604C418.369 183.41 418.283 182.217 418.283 180.941ZM446.11 186.332C446.11 188.349 446.368 190.118 446.883 191.6C447.399 193.122 448.087 194.357 449.004 195.304C449.921 196.25 450.953 196.95 452.07 197.402C453.217 197.855 454.449 198.061 455.767 198.061C457.085 198.061 458.318 197.855 459.464 197.485C460.61 197.114 461.613 196.456 462.53 195.633C463.447 194.769 464.164 193.616 464.68 192.176C465.195 190.736 465.482 189.048 465.482 187.032C465.482 185.632 465.31 184.357 464.966 183.328C464.622 182.258 464.135 181.352 463.533 180.612C462.932 179.871 462.244 179.295 461.527 178.801C460.811 178.348 459.98 177.937 459.034 177.525C458.49 177.319 457.802 177.031 456.999 176.743C455.452 176.249 454.334 175.714 453.618 175.262C452.901 174.768 452.557 174.109 452.557 173.204C452.557 172.216 452.844 171.517 453.417 171.064C453.99 170.611 454.621 170.406 455.366 170.406C456.369 170.406 457.229 170.694 457.916 171.311C458.604 171.928 458.948 172.916 458.948 174.356H464.737C464.737 172.587 464.479 171.023 463.992 169.665C463.505 168.307 462.817 167.196 461.986 166.331C461.126 165.467 460.209 164.809 459.12 164.397C458.06 163.986 456.971 163.78 455.824 163.78C454.707 163.78 453.618 163.986 452.557 164.356C451.469 164.726 450.494 165.344 449.634 166.126C448.775 166.949 448.058 167.978 447.542 169.253C447.027 170.529 446.74 172.052 446.74 173.739C446.74 175.179 446.941 176.455 447.285 177.484C447.657 178.513 448.144 179.418 448.746 180.159C449.376 180.859 450.036 181.476 450.752 181.929C451.468 182.381 452.3 182.834 453.245 183.204C453.589 183.369 454.162 183.575 454.965 183.863C456.57 184.48 457.773 185.056 458.518 185.591C459.263 186.126 459.636 186.949 459.636 188.019C459.636 189.131 459.292 189.995 458.604 190.53C457.916 191.106 457.057 191.353 456.082 191.353C454.764 191.353 453.761 190.982 453.045 190.159C452.328 189.377 451.927 188.061 451.87 186.209H446.11V186.332ZM468.176 197.402H486.23V190.036H473.965V183.781H484.883V177.155H473.965V171.393H485.915V164.521H468.176V197.402ZM510.073 179.377H500.731V185.715H504.771C504.599 187.237 504.055 188.431 503.167 189.336C502.25 190.242 501.103 190.694 499.67 190.694C498.782 190.694 497.98 190.406 497.32 189.871C496.661 189.336 496.117 188.595 495.687 187.69C495.286 186.744 494.97 185.715 494.77 184.562C494.569 183.369 494.483 182.175 494.483 180.9C494.483 179.665 494.569 178.43 494.77 177.278C494.97 176.085 495.286 175.056 495.687 174.151C496.088 173.204 496.661 172.504 497.32 171.969C497.98 171.434 498.753 171.146 499.67 171.146C500.874 171.146 501.877 171.558 502.708 172.381C503.539 173.204 503.998 174.274 504.083 175.673H509.872C509.758 173.698 509.385 171.969 508.783 170.447C508.182 168.924 507.379 167.648 506.433 166.702C505.488 165.714 504.427 165.014 503.31 164.521C502.164 164.027 501.017 163.821 499.814 163.821C498.18 163.821 496.661 164.274 495.286 165.138C493.91 166.002 492.735 167.237 491.761 168.801C490.786 170.364 490.041 172.216 489.497 174.315C488.981 176.373 488.723 178.636 488.723 180.982C488.723 183.328 488.981 185.591 489.497 187.649C490.013 189.748 490.786 191.559 491.761 193.122C492.735 194.686 493.939 195.921 495.286 196.785C496.661 197.649 498.151 198.102 499.814 198.102C500.989 198.102 502.135 197.732 503.252 197.073C504.37 196.373 505.287 195.304 506.004 193.822L506.348 197.444H510.073V179.377ZM533.028 164.479H527.239V184.316C527.239 186.497 526.952 188.102 526.35 189.172C525.749 190.201 524.746 190.736 523.341 190.736C521.966 190.736 520.963 190.242 520.361 189.172C519.759 188.143 519.444 186.497 519.444 184.316V164.479H513.655V183.781C513.655 188.596 514.429 192.176 516.005 194.522C517.581 196.867 520.017 198.061 523.341 198.061C526.666 198.061 529.13 196.867 530.678 194.522C532.254 192.176 533.028 188.596 533.028 183.781V164.479ZM536.896 197.402H542.685V185.427H547.07C547.729 185.427 548.245 185.632 548.646 186.003C549.076 186.373 549.391 186.867 549.62 187.484C549.849 188.102 549.993 188.801 550.107 189.501C550.193 190.2 550.279 191.106 550.308 192.135C550.308 192.176 550.308 192.341 550.337 192.67C550.394 193.699 550.48 194.645 550.537 195.509C550.623 196.332 550.767 196.991 550.938 197.361H556.67C556.498 197.114 556.355 196.703 556.269 196.168C556.154 195.633 556.068 194.974 556.011 194.316C555.925 193.616 555.896 193.081 555.867 192.629C555.839 192.217 555.81 191.517 555.782 190.53L555.753 189.954C555.696 189.089 555.638 188.225 555.495 187.402C555.352 186.579 555.18 185.797 554.922 185.056C554.693 184.316 554.349 183.698 553.947 183.163C553.546 182.628 553.059 182.258 552.515 182.093V182.011C553.632 181.353 554.492 180.282 555.094 178.76C555.696 177.278 555.982 175.591 555.982 173.739C555.982 172.134 555.753 170.735 555.352 169.582C554.922 168.389 554.349 167.443 553.604 166.661C552.887 165.92 552.027 165.344 551.11 165.014C550.193 164.644 549.219 164.479 548.187 164.479H536.839V197.402H536.896ZM542.685 171.352H547.299C548.159 171.352 548.847 171.64 549.391 172.257C549.936 172.875 550.222 173.739 550.222 174.891C550.222 177.484 549.334 178.76 547.528 178.76H542.656V171.352H542.685ZM568.334 173.616H568.391L570.855 185.139H565.812L568.334 173.616ZM557.128 197.402H563.089L564.493 191.517H572.26L573.635 197.402H579.682L571.371 164.479H565.468L557.128 197.402ZM581.287 197.402H586.732V176.908H586.789L594.527 197.402H600.487V164.479H595.042V184.768H594.985L587.247 164.479H581.287V197.402ZM619.229 184.604C619.143 186.497 618.685 187.978 617.911 189.089C617.137 190.159 616.077 190.694 614.73 190.694C613.842 190.694 613.039 190.406 612.38 189.871C611.721 189.336 611.176 188.595 610.747 187.69C610.345 186.785 610.03 185.715 609.829 184.562C609.629 183.41 609.543 182.217 609.543 180.941C609.543 179.706 609.629 178.472 609.829 177.319C610.03 176.167 610.345 175.097 610.747 174.192C611.176 173.286 611.721 172.546 612.38 172.011C613.039 171.476 613.813 171.188 614.73 171.188C615.962 171.188 616.994 171.64 617.796 172.504C618.599 173.369 619.086 174.644 619.229 176.249H625.018C624.961 174.356 624.645 172.628 624.072 171.064C623.471 169.5 622.697 168.224 621.722 167.113C620.748 166.002 619.659 165.22 618.484 164.644C617.309 164.109 616.105 163.821 614.873 163.821C613.24 163.821 611.721 164.274 610.345 165.138C608.97 166.002 607.795 167.237 606.82 168.801C605.846 170.364 605.101 172.216 604.557 174.315C604.041 176.373 603.783 178.636 603.783 180.982C603.783 183.204 604.012 185.303 604.471 187.237C604.929 189.213 605.588 190.941 606.448 192.505C607.308 194.069 608.339 195.304 609.543 196.25C610.747 197.197 612.093 197.814 613.555 198.02L612.036 201.682L612.724 202.547C613.211 202.341 613.612 202.217 613.956 202.217C614.845 202.217 615.303 202.794 615.303 203.987C615.303 205.057 614.787 205.592 613.727 205.592C612.953 205.468 612.094 205.18 611.176 204.728L610.575 206.785C611.205 207.197 611.807 207.526 612.409 207.814C613.039 208.102 613.641 208.226 614.243 208.226C615.446 208.226 616.421 207.897 617.137 207.156C617.854 206.415 618.226 205.304 618.226 203.74C618.226 202.464 617.968 201.518 617.424 200.942C616.879 200.365 616.277 200.036 615.561 200.036C615.074 200.036 614.644 200.118 614.329 200.283L614.271 200.201L615.246 198.02C616.593 197.979 617.854 197.649 619.029 197.032C620.204 196.415 621.207 195.509 622.095 194.357C622.955 193.205 623.671 191.805 624.158 190.159C624.674 188.513 624.961 186.702 625.047 184.645H619.229V184.604ZM637.054 173.616H637.111L639.576 185.139H634.532L637.054 173.616ZM625.82 197.402H631.781L633.185 191.517H640.951L642.327 197.402H648.374L640.034 164.479H634.131L625.82 197.402ZM659.865 197.402H669.437C672.876 197.402 675.541 195.962 677.461 193.122C679.381 190.242 680.327 186.167 680.327 180.817C680.327 175.714 679.381 171.722 677.432 168.842C675.484 165.961 672.818 164.521 669.408 164.521H659.837V197.402H659.865ZM665.654 171.846H668.405C670.411 171.846 671.93 172.587 672.962 174.068C674.022 175.55 674.538 177.772 674.538 180.735C674.538 184.027 674.051 186.373 673.105 187.772C672.159 189.172 670.583 189.912 668.377 189.995H665.626V171.846H665.654ZM683.536 197.402H701.591V190.036H689.325V183.781H700.244V177.155H689.325V171.393H701.275V164.521H683.536V197.402ZM733.228 164.479H727.182L722.826 188.966H722.769L718.413 164.479H712.366L719.387 197.402H726.064L733.228 164.479ZM734.891 197.402H752.945V190.036H740.679V183.781H751.598V177.155H740.679V171.393H752.629V164.521H734.891V197.402ZM756.24 197.402H762.029V185.427H766.414C767.044 185.427 767.589 185.632 768.019 186.003C768.42 186.373 768.735 186.867 768.993 187.484C769.222 188.102 769.394 188.801 769.48 189.501C769.566 190.2 769.623 191.106 769.681 192.135C769.681 192.176 769.681 192.341 769.709 192.67C769.767 193.699 769.853 194.645 769.91 195.509C769.996 196.332 770.139 196.991 770.34 197.361H776.071C775.899 197.114 775.756 196.703 775.67 196.168C775.555 195.633 775.469 194.974 775.412 194.316C775.355 193.616 775.297 193.081 775.269 192.629C775.24 192.217 775.212 191.517 775.183 190.53L775.154 189.954C775.097 189.089 775.011 188.225 774.896 187.402C774.753 186.579 774.581 185.797 774.323 185.056C774.065 184.316 773.75 183.698 773.349 183.163C772.948 182.628 772.46 182.258 771.916 182.093V182.011C773.034 181.353 773.893 180.282 774.495 178.76C775.097 177.278 775.412 175.591 775.412 173.739C775.412 172.134 775.211 170.735 774.782 169.582C774.352 168.389 773.779 167.443 773.034 166.661C772.288 165.92 771.457 165.344 770.54 165.014C769.623 164.644 768.649 164.479 767.617 164.479H756.269V197.402H756.24ZM762.058 171.352H766.672C767.531 171.352 768.219 171.64 768.764 172.257C769.308 172.875 769.595 173.739 769.595 174.891C769.595 177.484 768.706 178.76 766.901 178.76H762.029V171.352H762.058ZM778.765 197.402H788.337C791.775 197.402 794.441 195.962 796.361 193.122C798.281 190.242 799.255 186.167 799.255 180.817C799.255 175.714 798.281 171.722 796.361 168.842C794.412 165.961 791.775 164.521 788.337 164.521H778.765V197.402ZM784.554 171.846H787.305C789.311 171.846 790.83 172.587 791.862 174.068C792.922 175.55 793.438 177.772 793.438 180.735C793.438 184.027 792.979 186.373 792.005 187.772C791.059 189.172 789.483 189.912 787.276 189.995H784.525V171.846H784.554ZM811.349 173.616H811.406L813.87 185.139H808.827L811.349 173.616ZM800.144 197.402H806.104L807.508 191.517H815.275L816.65 197.402H822.697L814.386 164.479H808.483L800.144 197.402ZM824.359 197.402H833.931C837.369 197.402 840.035 195.962 841.955 193.122C843.875 190.242 844.849 186.167 844.849 180.817C844.849 175.714 843.875 171.722 841.955 168.842C840.006 165.961 837.369 164.521 833.931 164.521H824.359V197.402ZM830.148 171.846H832.899C834.905 171.846 836.424 172.587 837.455 174.068C838.516 175.55 839.032 177.772 839.032 180.735C839.032 184.027 838.573 186.373 837.599 187.772C836.653 189.172 835.077 189.912 832.87 189.995H830.119V171.846H830.148ZM848.03 197.402H866.084V190.036H853.848V183.781H864.737V177.155H853.848V171.393H865.769V164.521H848.03V197.402Z" fill="#000200"/>
<path d="M752.63 239.339C752.917 239.38 753.032 239.01 753.118 238.804C753.376 237.94 753.691 237.117 753.977 236.294C754.178 235.635 754.436 235.059 754.665 234.4C754.694 234.318 754.751 234.236 754.751 234.154C754.751 233.289 755.21 232.672 755.41 231.89C755.582 231.273 755.84 230.697 756.041 230.079C756.27 229.38 756.528 228.721 756.757 228.022C756.786 227.939 756.814 227.898 756.814 227.816C756.843 226.91 757.273 226.211 757.531 225.429C757.731 224.812 757.932 224.194 758.133 223.618C758.362 223.001 758.591 222.384 758.792 221.766C758.935 221.314 759.107 220.861 759.222 220.367C759.336 219.791 759.422 219.05 759.967 218.803C759.995 218.803 760.024 218.762 760.053 218.762C760.597 218.844 761.142 218.515 761.629 218.309C762.087 218.104 762.546 218.145 762.947 217.939C763.32 217.774 763.692 217.816 764.007 217.569C764.351 217.281 764.753 217.445 765.039 217.198C765.383 216.91 765.813 217.075 766.099 216.828C766.529 216.499 766.988 216.704 767.36 216.458C767.79 216.169 768.306 216.375 768.707 215.881C768.793 215.758 768.965 215.799 769.08 215.799C769.682 215.84 770.169 215.388 770.771 215.388C770.799 215.388 770.885 215.387 770.885 215.346C771.172 214.811 771.544 215.017 771.917 215.017C772.089 215.017 772.232 215.017 772.347 214.811C772.404 214.688 772.547 214.647 772.633 214.647C773.149 214.77 773.608 214.359 774.095 214.317C774.754 214.276 775.327 213.7 775.986 213.865C776.043 213.865 776.129 213.865 776.158 213.824C776.387 213.412 776.703 213.536 776.989 213.494C777.219 213.494 777.419 213.536 777.62 213.248C777.82 212.959 778.107 213.165 778.365 213.124C778.565 213.124 778.737 213.124 778.881 212.877C779.081 212.589 779.368 212.754 779.626 212.754C779.826 212.754 780.027 212.795 780.17 212.507C780.228 212.383 780.371 212.383 780.514 212.383C780.801 212.383 781.087 212.383 781.374 212.383C781.517 212.383 781.603 212.342 781.718 212.219C781.976 211.889 782.319 212.054 782.635 212.013C782.778 212.013 782.921 212.054 783.036 211.807C783.122 211.643 783.294 211.643 783.437 211.643C783.81 211.601 784.154 211.725 784.498 211.354C784.727 211.107 785.099 211.313 785.386 211.272C785.586 211.272 785.816 211.354 785.959 211.025C786.016 210.902 786.16 210.902 786.246 210.902C786.503 210.902 786.79 210.902 787.048 210.902C787.191 210.902 787.335 210.943 787.449 210.696C787.535 210.531 787.678 210.49 787.793 210.531C788.108 210.573 788.424 210.449 788.739 210.531C788.767 210.531 788.796 210.531 788.796 210.531C789.226 209.914 789.742 210.243 790.229 210.161C790.315 210.161 790.372 210.161 790.458 210.038C790.573 209.832 790.773 209.75 790.945 209.791C791.261 209.832 791.547 209.708 791.862 209.791C791.891 209.791 791.977 209.791 791.977 209.749C792.235 209.214 792.636 209.461 792.951 209.42C793.324 209.379 793.668 209.42 794.04 209.132C794.298 208.926 794.728 209.05 795.072 209.05C795.215 209.05 795.359 209.091 795.473 208.844C795.559 208.679 795.703 208.679 795.817 208.679C796.132 208.679 796.448 208.679 796.763 208.679C796.963 208.679 797.164 208.721 797.307 208.433C797.336 208.35 797.451 208.309 797.479 208.35C797.823 208.556 798.138 208.268 798.454 208.309C798.712 208.35 798.969 208.391 799.17 208.021C799.227 207.898 799.342 207.939 799.457 207.939C799.743 207.939 800.03 207.939 800.316 207.939C800.546 207.939 800.804 208.021 801.004 207.692C801.09 207.568 801.205 207.568 801.319 207.568C801.721 207.568 802.093 207.568 802.494 207.568C802.724 207.568 802.982 207.651 803.125 207.28C803.182 207.157 803.297 207.198 803.411 207.198C803.755 207.198 804.099 207.198 804.443 207.198C804.615 207.198 804.816 207.28 804.93 206.951C804.988 206.786 805.131 206.828 805.217 206.828C805.589 206.828 805.962 206.828 806.334 206.828C806.592 206.828 806.879 206.951 807.051 206.539C807.108 206.416 807.251 206.457 807.366 206.457C807.911 206.457 808.455 206.457 809 206.457C809.143 206.457 809.257 206.457 809.315 206.251C809.372 206.087 809.515 206.087 809.63 206.087C809.974 206.087 810.318 206.087 810.662 206.087C810.948 206.087 811.235 206.128 811.435 205.799C811.521 205.675 811.636 205.716 811.751 205.716C812.209 205.716 812.668 205.716 813.126 205.716C813.384 205.716 813.642 205.799 813.814 205.428C813.871 205.305 814.015 205.346 814.129 205.346C814.76 205.346 815.39 205.346 816.021 205.346C816.135 205.346 816.279 205.387 816.336 205.14C816.422 204.935 816.565 204.976 816.708 204.976C817.339 204.976 817.941 204.976 818.571 204.976C818.715 204.976 818.858 205.017 818.944 204.77C819.001 204.564 819.173 204.605 819.288 204.605C820.004 204.605 820.749 204.605 821.465 204.605C821.609 204.605 821.724 204.605 821.781 204.399C821.838 204.194 822.01 204.235 822.125 204.235C822.841 204.235 823.558 204.235 824.274 204.235C824.417 204.235 824.561 204.276 824.647 204.029C824.704 203.823 824.876 203.865 824.99 203.865C825.879 203.865 826.767 203.865 827.656 203.865C827.799 203.865 827.913 203.906 827.999 203.659C828.057 203.453 828.229 203.494 828.372 203.494C829.346 203.494 830.321 203.494 831.324 203.494C831.438 203.494 831.582 203.535 831.639 203.288C831.696 203.083 831.868 203.124 832.012 203.124C833.244 203.124 834.505 203.124 835.737 203.124C835.88 203.124 835.995 203.165 836.081 202.918C836.138 202.712 836.339 202.753 836.453 202.753C837.858 202.753 839.233 202.753 840.637 202.753C840.809 202.753 840.953 202.753 841.067 202.506C841.153 202.301 841.354 202.342 841.497 202.342C843.99 202.342 846.455 202.342 848.948 202.342C849.12 202.342 849.292 202.342 849.435 202.095C849.521 201.93 849.693 201.971 849.836 201.971C855.453 201.971 861.099 201.971 866.716 201.971C867.088 201.971 867.375 202.342 867.375 202.877C867.375 205.181 867.375 207.486 867.375 209.749C864.05 209.749 860.755 209.749 857.431 209.749C857.259 209.749 857.087 209.75 856.972 209.914C856.829 210.12 856.686 210.12 856.485 210.12C854.765 210.12 853.046 210.12 851.327 210.12C851.183 210.12 851.011 210.079 850.925 210.243C850.811 210.49 850.639 210.49 850.467 210.49C849.435 210.49 848.404 210.49 847.372 210.49C847.229 210.49 847.085 210.449 846.999 210.614C846.885 210.861 846.713 210.861 846.541 210.861C845.681 210.861 844.821 210.861 843.962 210.861C843.818 210.861 843.675 210.819 843.589 210.984C843.474 211.231 843.331 211.231 843.159 211.231C842.471 211.231 841.755 211.231 841.067 211.231C840.924 211.231 840.781 211.231 840.695 211.396C840.609 211.601 840.465 211.601 840.322 211.601C839.606 211.601 838.918 211.601 838.201 211.601C838.058 211.601 837.915 211.601 837.829 211.766C837.743 211.972 837.628 211.972 837.485 211.972C836.941 211.972 836.396 211.972 835.852 211.972C835.737 211.972 835.622 211.931 835.536 212.054C835.393 212.424 835.135 212.342 834.935 212.342C834.533 212.342 834.161 212.342 833.76 212.342C833.645 212.342 833.502 212.301 833.444 212.424C833.272 212.754 833.043 212.713 832.843 212.713C832.47 212.713 832.069 212.713 831.696 212.713C831.582 212.713 831.467 212.671 831.381 212.795C831.18 213.165 830.922 213.083 830.665 213.083C830.292 213.083 829.948 213.083 829.576 213.083C829.461 213.083 829.318 213.042 829.26 213.165C829.088 213.494 828.831 213.453 828.601 213.453C828.315 213.453 828 213.453 827.713 213.453C827.598 213.453 827.455 213.453 827.369 213.577C827.226 213.865 827.054 213.782 826.882 213.824C826.366 213.906 825.822 213.536 825.363 214.153C825.334 214.194 825.22 214.194 825.134 214.194C824.876 214.194 824.589 214.194 824.303 214.194C824.188 214.194 824.045 214.153 823.987 214.276C823.815 214.647 823.586 214.564 823.328 214.564C823.042 214.564 822.726 214.564 822.44 214.564C822.354 214.564 822.211 214.523 822.153 214.647C821.953 215.017 821.666 214.935 821.408 214.935C821.036 214.976 820.635 214.77 820.348 215.305C820.291 215.388 820.205 215.387 820.119 215.346C819.775 215.305 819.402 215.141 819.087 215.429C818.657 215.799 818.227 215.634 817.769 215.676C817.654 215.676 817.511 215.634 817.454 215.758C817.196 216.211 816.852 216.046 816.508 216.046C816.365 216.046 816.164 216.005 816.078 216.169C815.935 216.458 815.734 216.416 815.562 216.416C815.104 216.416 814.645 216.293 814.273 216.787C814.215 216.869 814.129 216.787 814.072 216.787C813.728 216.787 813.384 216.663 813.098 217.075C813.069 217.116 813.012 217.157 812.954 217.157C812.61 217.157 812.238 217.157 811.894 217.157C811.779 217.157 811.665 217.157 811.579 217.281C811.436 217.527 811.263 217.527 811.092 217.527C810.891 217.527 810.69 217.445 810.547 217.692C810.404 217.898 810.26 217.939 810.06 217.898C809.401 217.816 808.799 218.474 808.111 218.309C808.083 218.309 807.997 218.351 807.968 218.433C807.825 218.68 807.653 218.68 807.481 218.68C807.194 218.68 806.879 218.597 806.65 218.844C806.478 219.05 806.306 219.05 806.105 219.05C805.876 219.05 805.589 218.927 805.446 219.133C805.131 219.544 804.787 219.421 804.443 219.421C804.3 219.421 804.128 219.379 804.013 219.585C803.899 219.791 803.755 219.791 803.612 219.791C803.44 219.791 803.211 219.667 803.067 219.873C802.781 220.285 802.437 220.12 802.122 220.161C801.978 220.161 801.778 220.12 801.692 220.285C801.549 220.573 801.348 220.532 801.176 220.532C801.004 220.532 800.775 220.449 800.66 220.655C800.517 220.902 800.345 220.902 800.173 220.902C799.543 220.779 798.998 221.396 798.368 221.396C798.339 221.396 798.282 221.478 798.253 221.519C798.167 221.643 798.081 221.643 797.995 221.643C797.68 221.643 797.365 221.561 797.135 221.972C797.107 222.013 796.992 222.013 796.906 222.013C796.505 222.054 796.161 222.013 795.76 222.301C795.445 222.548 794.986 222.466 794.613 222.713C794.327 222.877 794.012 222.836 793.697 223.042C793.353 223.248 792.894 223.248 792.522 223.454C792.235 223.618 791.92 223.618 791.604 223.783C791.261 223.989 790.831 224.03 790.458 224.153C790.057 224.277 789.656 224.441 789.255 224.524C789.083 224.565 788.853 224.482 788.796 224.606C788.51 225.1 788.051 224.894 787.678 225.223C787.392 225.47 786.933 225.429 786.532 225.635C786.246 225.799 785.873 225.552 785.615 226.005C785.587 226.046 785.5 226.046 785.472 226.046C785.157 226.046 784.841 225.964 784.583 226.376C784.555 226.417 784.44 226.417 784.354 226.417C783.896 226.54 783.494 226.911 783.007 226.828C782.979 226.828 782.921 226.869 782.893 226.91C782.778 227.157 782.606 227.199 782.434 227.116C781.976 226.993 781.632 227.651 781.173 227.569C781.173 227.569 781.173 227.61 781.145 227.61C781.001 227.898 780.772 227.939 780.543 227.898C780.084 227.816 779.712 228.433 779.253 228.31C779.224 228.31 779.196 228.351 779.196 228.392C779.081 228.598 778.909 228.639 778.737 228.639C778.479 228.639 778.222 228.557 778.021 228.927C777.992 228.968 777.935 229.009 777.878 229.009C777.419 229.092 776.989 229.421 776.502 229.462C776.273 229.462 775.986 229.791 775.671 229.791C775.614 229.791 775.556 229.874 775.556 229.915C775.47 230.121 775.356 230.162 775.213 230.12C774.697 229.956 774.324 230.532 773.837 230.614C773.636 230.656 773.378 230.902 773.12 230.902C773.034 230.902 772.977 230.985 772.92 231.108C772.805 231.314 772.633 231.438 772.461 231.396C771.946 231.191 771.544 231.726 771.086 231.89C770.971 231.931 770.885 232.055 770.771 232.014C770.57 232.014 770.398 232.014 770.283 232.261C770.226 232.384 770.14 232.384 770.054 232.384C769.825 232.384 769.624 232.343 769.481 232.672C769.452 232.713 769.366 232.754 769.309 232.754C768.994 232.754 768.65 232.672 768.392 233.084C768.363 233.125 768.277 233.125 768.191 233.125C767.962 233.084 767.762 233.125 767.618 233.454C767.561 233.578 767.504 233.577 767.389 233.577C766.959 233.536 766.615 233.907 766.185 234.03C766.042 234.071 765.87 234.277 765.67 234.236C765.555 234.236 765.44 234.236 765.383 234.4C765.297 234.647 765.125 234.647 764.982 234.606C764.495 234.483 764.122 235.1 763.635 235.059C763.606 235.059 763.549 235.1 763.52 235.182C763.434 235.388 763.32 235.388 763.176 235.388C762.976 235.388 762.804 235.388 762.689 235.635C762.632 235.759 762.546 235.759 762.46 235.759C762.231 235.759 762.03 235.759 761.887 236.047C761.829 236.129 761.743 236.129 761.686 236.129C761.256 236.088 760.941 236.664 760.511 236.582C760.483 236.582 760.454 236.623 760.425 236.664C760.339 236.87 760.196 236.87 760.053 236.87C759.651 236.87 759.336 237.405 758.906 237.322C758.878 237.322 758.849 237.364 758.82 237.405C758.734 237.611 758.62 237.61 758.477 237.61C758.047 237.569 757.76 238.063 757.33 238.104C757.158 238.104 756.958 238.351 756.728 238.351C756.614 238.351 756.528 238.392 756.47 238.516C756.384 238.722 756.27 238.722 756.127 238.722C755.697 238.681 755.382 239.092 754.98 239.257C754.751 239.339 754.465 239.339 754.264 239.545C754.035 239.75 753.805 239.915 753.519 239.874C753.462 239.874 753.404 239.915 753.376 239.956C753.29 240.285 753.089 240.45 752.888 240.574C752.831 240.574 752.802 240.574 752.745 240.574C752.688 240.45 752.602 240.409 752.544 240.574C752.258 240.656 752.172 240.491 752.201 240.121C752.659 239.997 752.63 239.668 752.63 239.339Z" fill="#F5C500"/>
<path d="M753.291 240.739C753.492 240.616 753.664 240.451 753.778 240.122C753.807 240.081 753.864 239.998 753.922 240.039C754.208 240.081 754.437 239.916 754.667 239.71C754.867 239.546 755.154 239.504 755.383 239.422C755.784 239.299 756.099 238.887 756.529 238.887C756.673 238.887 756.787 238.887 756.873 238.681C756.931 238.558 757.017 238.517 757.131 238.517C757.36 238.517 757.59 238.27 757.733 238.27C758.163 238.229 758.449 237.735 758.879 237.776C759.023 237.776 759.137 237.776 759.223 237.57C759.252 237.529 759.281 237.488 759.309 237.488C759.739 237.57 760.054 237.035 760.455 237.035C760.599 237.035 760.742 237.035 760.828 236.829C760.857 236.788 760.885 236.747 760.914 236.747C761.344 236.829 761.659 236.253 762.089 236.294C762.175 236.294 762.261 236.294 762.289 236.212C762.433 235.924 762.662 235.883 762.863 235.924C762.949 235.924 763.034 235.924 763.092 235.801C763.206 235.513 763.407 235.554 763.579 235.554C763.722 235.554 763.837 235.554 763.923 235.348C763.952 235.307 763.98 235.225 764.038 235.225C764.525 235.307 764.897 234.648 765.385 234.772C765.528 234.813 765.671 234.772 765.786 234.566C765.843 234.443 765.958 234.401 766.072 234.401C766.273 234.401 766.445 234.237 766.588 234.196C766.989 234.072 767.362 233.702 767.792 233.743C767.906 233.743 767.964 233.743 768.021 233.619C768.164 233.29 768.365 233.29 768.594 233.29C768.651 233.29 768.737 233.29 768.795 233.249C769.053 232.838 769.368 232.92 769.712 232.92C769.769 232.92 769.855 232.92 769.884 232.838C770.027 232.508 770.228 232.55 770.457 232.55C770.543 232.55 770.629 232.55 770.686 232.426C770.801 232.179 771.001 232.179 771.173 232.179C771.288 232.179 771.403 232.056 771.489 232.056C771.947 231.891 772.348 231.356 772.864 231.562C773.007 231.603 773.208 231.48 773.323 231.274C773.38 231.192 773.437 231.068 773.523 231.068C773.781 231.068 774.039 230.821 774.24 230.78C774.727 230.698 775.099 230.121 775.615 230.286C775.73 230.327 775.873 230.286 775.959 230.08C775.988 230.039 776.045 229.957 776.074 229.957C776.36 229.957 776.647 229.628 776.905 229.628C777.392 229.586 777.822 229.257 778.28 229.175C778.338 229.175 778.395 229.134 778.424 229.093C778.624 228.722 778.882 228.805 779.14 228.805C779.312 228.805 779.484 228.763 779.599 228.558C779.627 228.516 779.656 228.475 779.656 228.475C780.143 228.599 780.487 227.981 780.946 228.064C781.175 228.105 781.375 228.064 781.547 227.776L781.576 227.735C782.034 227.817 782.35 227.158 782.837 227.282C783.009 227.323 783.181 227.323 783.295 227.076C783.324 227.035 783.381 226.953 783.41 226.994C783.897 227.076 784.298 226.706 784.757 226.582C784.843 226.582 784.929 226.582 784.986 226.541C785.215 226.129 785.559 226.212 785.874 226.212C785.932 226.212 786.018 226.212 786.018 226.171C786.276 225.718 786.648 225.965 786.935 225.8C787.307 225.553 787.795 225.636 788.081 225.389C788.454 225.06 788.912 225.306 789.199 224.771C789.285 224.648 789.514 224.73 789.657 224.689C790.059 224.566 790.46 224.442 790.861 224.319C791.233 224.195 791.663 224.113 792.007 223.948C792.322 223.784 792.638 223.784 792.924 223.619C793.325 223.413 793.755 223.413 794.099 223.208C794.414 223.002 794.73 223.043 795.016 222.878C795.389 222.632 795.847 222.714 796.163 222.467C796.564 222.138 796.908 222.22 797.309 222.179C797.395 222.179 797.509 222.22 797.538 222.138C797.767 221.685 798.111 221.808 798.398 221.808C798.512 221.808 798.598 221.767 798.656 221.685C798.684 221.644 798.742 221.561 798.77 221.561C799.401 221.603 799.945 220.944 800.576 221.068C800.748 221.109 800.92 221.109 801.063 220.821C801.178 220.615 801.407 220.697 801.579 220.697C801.779 220.697 801.951 220.738 802.095 220.45C802.181 220.286 802.381 220.327 802.524 220.327C802.84 220.286 803.184 220.45 803.47 220.039C803.585 219.833 803.814 219.957 804.015 219.957C804.158 219.957 804.301 219.956 804.416 219.751C804.502 219.545 804.702 219.586 804.846 219.586C805.19 219.545 805.534 219.71 805.849 219.298C805.992 219.092 806.279 219.257 806.508 219.216C806.708 219.216 806.88 219.216 807.052 219.01C807.282 218.763 807.597 218.845 807.883 218.845C808.084 218.845 808.256 218.845 808.371 218.598C808.399 218.557 808.457 218.475 808.514 218.475C809.202 218.64 809.775 217.981 810.463 218.063C810.635 218.063 810.806 218.063 810.95 217.858C811.093 217.611 811.322 217.693 811.494 217.693C811.695 217.693 811.867 217.693 811.981 217.446C812.039 217.323 812.182 217.323 812.297 217.323C812.641 217.323 813.013 217.323 813.357 217.323C813.414 217.323 813.472 217.323 813.5 217.24C813.787 216.829 814.131 216.952 814.475 216.952C814.532 216.952 814.618 217.035 814.675 216.952C815.048 216.417 815.506 216.582 815.965 216.582C816.165 216.582 816.337 216.623 816.481 216.335C816.567 216.129 816.767 216.212 816.911 216.212C817.226 216.17 817.598 216.376 817.856 215.923C817.914 215.8 818.057 215.882 818.171 215.841C818.601 215.8 819.06 215.965 819.49 215.594C819.776 215.347 820.178 215.471 820.521 215.512C820.607 215.512 820.722 215.553 820.751 215.471C821.037 214.977 821.438 215.141 821.811 215.1C822.069 215.1 822.355 215.183 822.556 214.812C822.613 214.689 822.728 214.73 822.843 214.73C823.129 214.73 823.444 214.73 823.731 214.73C823.96 214.73 824.218 214.812 824.39 214.442C824.447 214.318 824.591 214.36 824.705 214.36C824.992 214.36 825.25 214.36 825.536 214.36C825.622 214.36 825.708 214.401 825.766 214.318C826.224 213.701 826.769 214.072 827.285 213.989C827.456 213.948 827.657 214.03 827.772 213.742C827.829 213.578 827.972 213.619 828.116 213.619C828.402 213.619 828.717 213.619 829.004 213.619C829.233 213.619 829.491 213.701 829.663 213.331C829.72 213.207 829.864 213.248 829.978 213.248C830.351 213.248 830.695 213.248 831.067 213.248C831.325 213.248 831.583 213.331 831.784 212.96C831.841 212.837 831.984 212.878 832.099 212.878C832.471 212.878 832.873 212.878 833.245 212.878C833.475 212.878 833.704 212.96 833.847 212.59C833.904 212.467 834.048 212.508 834.162 212.508C834.564 212.508 834.936 212.508 835.337 212.508C835.567 212.508 835.796 212.59 835.939 212.22C835.996 212.096 836.14 212.137 836.254 212.137C836.799 212.137 837.343 212.137 837.888 212.137C838.031 212.137 838.146 212.137 838.232 211.932C838.318 211.726 838.461 211.767 838.604 211.767C839.321 211.767 840.008 211.767 840.725 211.767C840.868 211.767 841.011 211.808 841.097 211.561C841.183 211.355 841.327 211.397 841.47 211.397C842.158 211.397 842.874 211.397 843.562 211.397C843.734 211.397 843.877 211.397 843.992 211.15C844.078 210.985 844.221 211.026 844.364 211.026C845.224 211.026 846.084 211.026 846.943 211.026C847.115 211.026 847.287 211.067 847.402 210.779C847.488 210.615 847.631 210.656 847.775 210.656C848.806 210.656 849.838 210.656 850.87 210.656C851.041 210.656 851.214 210.697 851.328 210.409C851.414 210.244 851.586 210.285 851.729 210.285C853.449 210.285 855.168 210.285 856.888 210.285C857.06 210.285 857.232 210.285 857.375 210.08C857.489 209.915 857.661 209.915 857.833 209.915C861.158 209.915 864.453 209.915 867.777 209.915C867.777 211.932 867.778 213.989 867.806 216.006C867.806 216.253 867.72 216.253 867.577 216.253C867.032 216.253 866.488 216.253 865.943 216.253C865.829 216.253 865.714 216.17 865.686 216.458C865.686 216.705 865.514 216.623 865.428 216.623C864.482 216.623 863.536 216.623 862.59 216.623C862.476 216.623 862.304 216.541 862.304 216.87C862.304 217.076 862.161 216.993 862.075 216.993C861.301 216.993 860.499 216.993 859.725 216.993C859.61 216.993 859.467 216.911 859.438 217.199C859.409 217.405 859.266 217.364 859.152 217.364C858.55 217.364 857.977 217.364 857.375 217.364C857.26 217.364 857.088 217.282 857.06 217.611C857.06 217.817 856.916 217.734 856.802 217.734C856.2 217.734 855.569 217.734 854.968 217.734C854.853 217.734 854.71 217.652 854.681 217.981C854.681 218.187 854.538 218.105 854.452 218.105C853.907 218.105 853.391 218.105 852.847 218.105C852.732 218.105 852.618 218.063 852.589 218.351C852.589 218.557 852.446 218.475 852.36 218.475C851.901 218.475 851.471 218.475 851.013 218.475C850.898 218.475 850.755 218.393 850.755 218.681C850.755 218.886 850.612 218.845 850.526 218.845C850.067 218.845 849.609 218.845 849.15 218.845C849.036 218.845 848.921 218.804 848.921 219.051C848.921 219.257 848.778 219.216 848.692 219.216C848.233 219.216 847.803 219.216 847.345 219.216C847.23 219.216 847.087 219.133 847.058 219.463C847.058 219.668 846.915 219.586 846.829 219.586C846.37 219.586 845.912 219.586 845.453 219.586C845.367 219.586 845.224 219.504 845.281 219.792C845.31 219.915 845.167 219.957 845.052 219.957C844.794 219.957 844.565 219.957 844.307 219.957C844.164 219.957 843.934 219.833 843.934 220.245C843.934 220.368 843.82 220.327 843.734 220.327C843.419 220.327 843.132 220.327 842.817 220.327C842.645 220.327 842.387 220.162 842.358 220.615C842.358 220.697 842.215 220.656 842.158 220.656C841.814 220.656 841.47 220.656 841.126 220.656C841.04 220.656 840.811 220.45 840.868 220.903C840.897 220.985 840.725 221.026 840.61 221.026C840.324 221.026 840.008 221.026 839.722 221.026C839.521 221.026 839.292 220.862 839.206 221.315C839.177 221.438 839.063 221.397 839.005 221.397C838.748 221.397 838.518 221.397 838.26 221.397C838.117 221.397 837.974 221.356 837.888 221.644C837.859 221.767 837.716 221.808 837.601 221.808C837.372 221.808 837.171 221.808 836.942 221.808C836.799 221.808 836.684 221.767 836.598 222.014C836.57 222.138 836.398 222.179 836.283 222.179C836.054 222.179 835.825 222.179 835.595 222.179C835.509 222.179 835.366 222.138 835.366 222.385C835.366 222.549 835.251 222.549 835.137 222.549C834.907 222.549 834.707 222.549 834.478 222.549C834.277 222.549 834.105 222.508 833.933 222.796C833.761 223.084 833.446 222.878 833.217 222.919C833.045 222.961 832.758 222.714 832.701 223.249C832.701 223.331 832.558 223.29 832.5 223.29C832.242 223.29 832.013 223.29 831.755 223.29C831.612 223.29 831.44 223.208 831.44 223.578C831.44 223.743 831.297 223.66 831.211 223.66C830.953 223.66 830.695 223.66 830.437 223.66C830.293 223.66 830.122 223.578 830.093 223.907C830.093 224.072 829.978 223.99 829.921 223.99C829.72 223.99 829.52 223.99 829.319 223.99C829.262 223.99 829.147 223.99 829.147 224.031C829.09 224.525 828.832 224.319 828.631 224.36C828.373 224.36 828.144 224.36 827.915 224.648C827.714 224.895 827.428 224.689 827.17 224.73C826.998 224.771 826.797 224.648 826.74 225.018C826.711 225.183 826.625 225.101 826.539 225.101C826.367 225.101 826.167 225.101 825.995 225.101C825.938 225.101 825.852 225.101 825.852 225.101C825.594 225.8 825.135 225.307 824.791 225.471C824.648 225.512 824.419 225.389 824.39 225.759C824.39 225.883 824.275 225.841 824.189 225.841C824.018 225.841 823.817 225.841 823.645 225.841C823.588 225.841 823.473 225.841 823.473 225.883C823.358 226.418 823.043 226.171 822.785 226.212C822.613 226.253 822.355 226.047 822.298 226.541C822.298 226.623 822.126 226.582 822.011 226.582C821.754 226.665 821.41 226.376 821.238 226.911C821.209 227.035 820.922 226.953 820.751 226.953C820.55 226.953 820.292 226.829 820.235 227.282C820.206 227.364 820.12 227.323 820.063 227.323C819.748 227.405 819.375 227.076 819.146 227.652C819.088 227.776 818.802 227.652 818.601 227.693C818.429 227.734 818.2 227.529 818.143 227.981C818.143 228.105 817.999 228.023 817.942 228.064C817.656 228.146 817.283 227.817 817.054 228.393C817.025 228.475 816.739 228.393 816.595 228.434C816.395 228.434 816.165 228.311 816.051 228.722C816.022 228.887 815.793 228.763 815.65 228.763C815.506 228.763 815.334 228.722 815.277 229.01C815.248 229.175 815.162 229.134 815.105 229.134C814.905 229.134 814.704 229.134 814.503 229.134C814.446 229.134 814.331 229.134 814.331 229.175C814.217 229.71 813.873 229.463 813.644 229.504C813.472 229.545 813.271 229.422 813.156 229.792C813.099 229.957 812.898 229.874 812.755 229.874C812.612 229.874 812.44 229.833 812.383 230.121C812.354 230.286 812.239 230.245 812.182 230.245C812.01 230.245 811.809 230.245 811.637 230.245C811.58 230.245 811.466 230.245 811.466 230.286C811.351 230.78 811.064 230.574 810.806 230.615C810.749 230.615 810.663 230.615 810.663 230.656C810.491 231.233 810.147 230.903 809.889 230.986C809.775 231.027 809.603 230.903 809.574 231.233C809.574 231.356 809.431 231.356 809.345 231.356C809.144 231.356 808.944 231.356 808.743 231.356C808.629 231.356 808.543 231.315 808.514 231.562C808.485 231.768 808.342 231.726 808.256 231.726C808.055 231.768 807.769 231.562 807.654 232.056C807.626 232.179 807.425 232.097 807.282 232.097C807.138 232.097 806.966 232.014 806.938 232.344C806.909 232.467 806.794 232.467 806.709 232.467C806.508 232.467 806.307 232.467 806.107 232.467C806.049 232.467 805.935 232.467 805.935 232.508C805.877 233.043 805.591 232.796 805.39 232.838C805.276 232.879 805.132 232.796 805.075 233.043C805.018 233.29 804.846 233.167 804.731 233.208C804.559 233.249 804.33 233.126 804.244 233.496C804.215 233.661 804.101 233.578 804.015 233.578C803.728 233.661 803.384 233.331 803.155 233.908C803.126 233.99 802.868 233.949 802.725 233.949C802.61 233.949 802.496 233.908 802.467 234.154C802.467 234.278 802.353 234.319 802.267 234.319C802.095 234.319 801.894 234.319 801.722 234.319C801.608 234.319 801.464 234.278 801.435 234.566C801.407 234.813 801.235 234.69 801.12 234.69C800.92 234.731 800.69 234.566 800.576 234.978C800.518 235.142 800.318 235.019 800.175 235.06C800.031 235.06 799.888 235.019 799.802 235.307C799.745 235.554 799.573 235.389 799.458 235.43C799.286 235.471 799.057 235.307 799 235.718C798.971 235.842 798.799 235.759 798.713 235.801C798.541 235.801 798.34 235.718 798.226 236.089C798.169 236.294 797.968 236.171 797.825 236.171C797.681 236.171 797.51 236.13 797.452 236.418C797.395 236.665 797.251 236.5 797.137 236.541C796.879 236.624 796.535 236.294 796.335 236.871C796.306 236.953 796.048 236.912 795.905 236.912C795.761 236.912 795.647 236.871 795.589 237.159C795.561 237.406 795.417 237.282 795.331 237.282C795.131 237.323 794.902 237.159 794.787 237.611C794.758 237.776 794.558 237.653 794.415 237.653C794.271 237.653 794.099 237.611 794.013 237.899C793.956 238.146 793.784 237.982 793.669 238.023C793.497 238.064 793.325 237.982 793.211 238.311C793.153 238.517 792.982 238.393 792.867 238.393C792.695 238.393 792.523 238.352 792.437 238.681C792.38 238.887 792.208 238.764 792.093 238.805C791.95 238.846 791.749 238.64 791.721 239.052C791.692 239.216 791.491 239.134 791.377 239.175C791.205 239.216 791.004 239.052 790.918 239.463C790.861 239.669 790.66 239.546 790.517 239.546C790.345 239.546 790.173 239.504 790.116 239.793C790.116 239.834 790.059 239.875 790.059 239.875C789.6 239.71 789.285 240.369 788.826 240.286C788.597 240.245 788.568 240.41 788.597 240.657C776.733 240.739 765.012 240.739 753.291 240.739Z" fill="#449320"/>
<path d="M752.977 240.738C753.033 240.575 753.118 240.616 753.174 240.738C753.09 240.738 753.033 240.738 752.977 240.738Z" fill="#449320"/>
<path fill-rule="evenodd" clip-rule="evenodd" d="M189 49.7765V145H211.075V54.8476C211.075 51.8315 214.301 49.3456 216.367 49.3456H221.961C223.307 49.3456 223.075 50.2074 224.445 50.2074H226V32.3758L212.003 31.1495C200.49 29.9894 189 35.5245 189 49.7765Z" fill="#000200"/>
<path d="M189 49.7765V145H211.075V54.8476C211.075 51.8315 214.301 49.3456 216.367 49.3456H221.961C223.307 49.3456 223.075 50.2074 224.445 50.2074H226V32.3758L212.003 31.1495C200.49 29.9894 189 35.5245 189 49.7765Z" stroke="#000200" stroke-width="0.162"/>
<path fill-rule="evenodd" clip-rule="evenodd" d="M389 56.6549V145H411.075V55.364C411.075 51.6567 414.487 49.439 417.295 49.439L420.731 49.3066L426 50.2996V32.5909L412.955 31.2669C397.24 29.5125 389 36.2319 389 56.6549Z" fill="#000200"/>
<path d="M389 56.6549V145H411.075V55.364C411.075 51.6567 414.487 49.439 417.295 49.439L420.731 49.3066L426 50.2996V32.5909L412.955 31.2669C397.24 29.5125 389 36.2319 389 56.6549Z" stroke="#000200" stroke-width="0.162"/>
<path fill-rule="evenodd" clip-rule="evenodd" d="M490.541 62.9954C490.541 59.0881 492.534 53.3422 494.8 53.3422H496.929C499.987 53.3422 501.482 58.9241 501.482 63.3895V75.538H490.564V62.9954H490.541ZM523 113.724V107.847H501.164V119.175C501.164 122.491 499.352 126.726 496.906 126.726H495.683C491.402 126.726 490.518 120.554 490.518 114.578V98.6533H522.977V64.276C522.955 64.2431 521.007 53.9004 520.146 51.405C518.606 46.9067 517.315 44.7069 514.846 41.522C511.244 36.8267 503.837 32 496.883 32H494.165C481.254 32 469 47.8261 469 65.5237V113.724C469 131.29 482.002 146 495.683 146H497.495C505.128 146 510.61 141.469 514.959 136.609C516.658 134.705 519.285 129.846 520.214 127.12C521.21 124.362 522.728 114.348 523 113.724Z" fill="#000200"/>
<path d="M490.541 62.9954C490.541 59.0881 492.534 53.3422 494.8 53.3422H496.929C499.987 53.3422 501.482 58.8912 501.482 63.3895V75.538H490.564V62.9954H490.541ZM523 113.724V107.847H501.164V119.175C501.164 122.491 499.352 126.726 496.906 126.726H495.683C491.402 126.726 490.518 120.554 490.518 114.578V98.6533H522.977V64.276C522.955 64.2103 521.007 53.9004 520.146 51.405C518.606 46.9067 517.315 44.7069 514.846 41.522C511.244 36.8267 503.837 32 496.883 32H494.165C481.254 32 469 47.8261 469 65.5237V113.724C469 131.29 482.002 146 495.683 146H497.495C505.128 146 510.61 141.469 514.959 136.609C516.658 134.705 519.285 129.878 520.214 127.12C521.21 124.362 522.728 114.348 523 113.724Z" stroke="#000200" stroke-width="0.162"/>
<path fill-rule="evenodd" clip-rule="evenodd" d="M291 26.1496V144H312.296V51.785H320.996V33.591H312.296V27.7887C312.296 24.8056 314.788 22.4126 316.782 22.4126L318.277 22.3142L320.973 22.8386C320.973 18.577 320.928 14.2499 320.996 9.98826C321.086 4.02199 319.704 5.071 314.992 5.071H306.904C296.822 5.071 291 12.1846 291 26.1496Z" fill="#000200"/>
<path d="M291 26.1218V144H312.296V51.7632H320.996V33.565H312.296V27.7941C312.296 24.8103 314.788 22.4166 316.782 22.4166L318.277 22.3182L320.973 22.8429C320.973 18.5802 320.928 14.2521 320.996 9.98944C321.086 4.02176 319.704 5.07102 314.992 5.07102H306.904C296.822 5.03823 291 12.1535 291 26.1218Z" stroke="#000200" stroke-width="0.162"/>
<path fill-rule="evenodd" clip-rule="evenodd" d="M254.283 126.878H252.784C249.944 126.878 248.289 124.252 248.289 120.182V110.138C248.289 100.849 253.455 95.9248 258.755 94.218C258.755 103.671 260.343 126.878 254.283 126.878ZM230.31 68.1881H249.475V61.9185C249.475 58.3078 250.951 53.9422 253.366 53.9422H255.155C259.739 53.9422 258.733 65.2338 258.733 71.9629C255.423 72.3568 240.239 81.8103 237.533 84.1736C231.405 89.524 227 98.1241 227 111.779V123.53C227 134.231 234.916 147 243.168 147H244.957C253.254 147 254.283 142.798 258.733 138.63V145.326H280V59.3911C280 44.9154 268.863 33 258.442 33H252.762C240.373 32.9672 230.31 49.5437 230.31 68.1881Z" fill="#000200"/>
<path d="M254.283 126.878H252.784C249.944 126.878 248.289 124.252 248.289 120.182V110.138C248.289 100.849 253.455 95.9248 258.755 94.218C258.755 103.671 260.343 126.878 254.283 126.878ZM230.31 68.1881H249.475V61.9185C249.475 58.3078 250.951 53.9422 253.366 53.9422H255.155C259.739 53.9422 258.733 65.2338 258.733 71.9629C255.423 72.3568 240.239 81.8103 237.533 84.1736C231.405 89.524 227 98.1241 227 111.779V123.53C227 134.231 234.916 147 243.168 147H244.957C253.254 147 254.283 142.798 258.733 138.63V145.326H280V59.3911C280 44.9154 268.863 33 258.442 33H252.762C240.373 32.9672 230.31 49.5765 230.31 68.1881Z" stroke="#000200" stroke-width="0.162"/>
<path fill-rule="evenodd" clip-rule="evenodd" d="M434 124.326C434 140.714 438.186 144.901 450.063 144.901L455.833 145L464 144.472V126.008H461.285C457.937 126.008 455.516 124.755 455.516 120.106V48.6882H464V29.7952H455.516V5H434V124.326Z" fill="#000200"/>
<path d="M434 124.331C434 140.715 438.186 144.901 450.063 144.901L455.833 145L464 144.473V125.979H461.285C457.937 125.979 455.516 124.727 455.516 120.079V48.6779H464V29.7892H455.516V5H434V124.331Z" stroke="#000200" stroke-width="0.162"/>
<path fill-rule="evenodd" clip-rule="evenodd" d="M348.668 67.8106C348.668 60.561 348.6 52.5832 353.863 52.5832H354.775C358.808 52.5832 359.354 61.5541 359.354 67.3802V114.287C359.354 119.915 358.648 126.535 354.775 126.535H352.952C348.942 126.535 348.668 116.836 348.668 110.911V67.8106ZM327 67.8106V113.029C327 131.865 339.509 146 353.248 146H356.894C370.086 146 381 129.879 381 110.48V66.5196C381 45.3337 369.357 31 354.137 31C337.777 31.0331 327 44.9033 327 67.8106Z" fill="#000200"/>
<path d="M348.668 67.8106C348.668 60.561 348.6 52.5832 353.863 52.5832H354.775C358.808 52.5832 359.354 61.5541 359.354 67.3802V114.287C359.354 119.915 358.648 126.535 354.775 126.535H352.952C348.942 126.535 348.668 116.836 348.668 110.911V67.8106ZM327 67.8106V113.029C327 131.865 339.509 146 353.248 146H356.894C370.086 146 381 129.879 381 110.48V66.5196C381 45.3337 369.357 31 354.137 31C337.777 31.0662 327 44.9033 327 67.8106Z" stroke="#000200" stroke-width="0.162"/>
<path fill-rule="evenodd" clip-rule="evenodd" d="M31 33.6119L31.023 145H52.8418V51.2673C54.3331 51.102 54.769 50.4408 56.5356 50.4408H59.3117C61.7666 50.4408 63.9233 54.8051 63.9233 58.8718V144.57H85.4439V52.5237C86.9352 52.0608 88.174 50.4078 90.3536 50.4078H92.2119C94.1162 50.4078 95.8829 54.5406 95.8829 58.0121V144.967H118V59.2685C118 40.0922 105.381 31 91.2713 31C85.5356 31 76.3584 35.1328 75.3948 35.0336C70.9668 34.5377 66.1258 31 59.0135 31C49.8592 31 40.4984 32.4216 31 33.6119Z" fill="#000200"/>
<path d="M31 33.6119L31.023 145H52.8418V51.2673C54.3331 51.102 54.769 50.4408 56.5356 50.4408H59.3117C61.7666 50.4408 63.9233 54.8051 63.9233 58.8718V144.57H85.4439V52.5237C86.9352 52.0278 88.174 50.4078 90.3536 50.4078H92.2119C94.1162 50.4078 95.8829 54.5406 95.8829 58.0121V144.967H118V59.2685C118 40.0922 105.381 31 91.2713 31C85.5356 31 76.3584 35.1328 75.3948 35.0336C70.9668 34.5377 66.1258 31 59.0135 31C49.8592 31 40.4984 32.4216 31 33.6119Z" stroke="#000200" stroke-width="0.162"/>
<path fill-rule="evenodd" clip-rule="evenodd" d="M147.659 64.3875C147.659 59.2662 148.365 50.7307 151.622 50.7307H154.674C157.316 50.7307 158.637 58.9379 158.637 63.1071V72.0694C158.637 82.4105 158.318 92.6531 158.341 102.403C158.341 112.482 160.163 125.449 153.148 125.449C149.458 125.449 147.659 119.835 147.659 114.78V64.3875ZM126 144.72H147.659V137.464C149.823 138.285 152.26 146 159.252 146H160.778C171.824 146 180 131.982 180 116.946V58.8394C180 45.1498 171.778 29.7858 162.326 29.7858H159.275C152.351 29.7858 150.529 36.6143 147.978 37.8946V5H126.023V144.72H126Z" fill="#000200"/>
<path d="M147.659 64.3875C147.659 59.2662 148.365 50.7307 151.622 50.7307H154.674C157.316 50.7307 158.637 58.9379 158.637 63.1071V72.0694C158.637 82.4105 158.318 92.6531 158.341 102.403C158.341 112.482 160.163 125.449 153.148 125.449C149.458 125.449 147.659 119.835 147.659 114.78V64.3875ZM126 144.72H147.659V137.464C149.823 138.285 152.26 146 159.252 146H160.778C171.824 146 180 131.982 180 116.946V58.8394C180 45.1498 171.778 29.7858 162.326 29.7858H159.275C152.351 29.7858 150.529 36.6143 147.978 37.8946V5H126.023V144.72H126Z" stroke="#000200" stroke-width="0.162"/>
<path d="M22 5H1V145H22V5Z" fill="#000200"/>
<path d="M22 5H1V145H22V5Z" stroke="#000200" stroke-width="0.162"/>
<path fill-rule="evenodd" clip-rule="evenodd" d="M189 49.7765V145H211.075V54.8476C211.075 51.8315 214.301 49.3456 216.367 49.3456H221.961C223.307 49.3456 223.075 50.2074 224.445 50.2074H226V32.3758L212.003 31.1495C200.49 29.9894 189 35.5245 189 49.7765Z" fill="#000200"/>
<path d="M189 49.7765V145H211.075V54.8476C211.075 51.8315 214.301 49.3456 216.367 49.3456H221.961C223.307 49.3456 223.075 50.2074 224.445 50.2074H226V32.3758L212.003 31.1495C200.49 29.9894 189 35.5245 189 49.7765Z" stroke="#000200" stroke-width="0.162"/>
<path fill-rule="evenodd" clip-rule="evenodd" d="M389 56.6549V145H411.075V55.364C411.075 51.6567 414.487 49.439 417.295 49.439L420.731 49.3066L426 50.2996V32.5909L412.955 31.2669C397.24 29.5125 389 36.2319 389 56.6549Z" fill="#000200"/>
<path d="M389 56.6549V145H411.075V55.364C411.075 51.6567 414.487 49.439 417.295 49.439L420.731 49.3066L426 50.2996V32.5909L412.955 31.2669C397.24 29.5125 389 36.2319 389 56.6549Z" stroke="#000200" stroke-width="0.162"/>
<path fill-rule="evenodd" clip-rule="evenodd" d="M490.541 62.9954C490.541 59.0881 492.534 53.3422 494.8 53.3422H496.929C499.987 53.3422 501.482 58.9241 501.482 63.3895V75.538H490.564V62.9954H490.541ZM523 113.724V107.847H501.164V119.175C501.164 122.491 499.352 126.726 496.906 126.726H495.683C491.402 126.726 490.518 120.554 490.518 114.578V98.6533H522.977V64.276C522.955 64.2431 521.007 53.9004 520.146 51.405C518.606 46.9067 517.315 44.7069 514.846 41.522C511.244 36.8267 503.837 32 496.883 32H494.165C481.254 32 469 47.8261 469 65.5237V113.724C469 131.29 482.002 146 495.683 146H497.495C505.128 146 510.61 141.469 514.959 136.609C516.658 134.705 519.285 129.846 520.214 127.12C521.21 124.362 522.728 114.348 523 113.724Z" fill="#000200"/>
<path d="M490.541 62.9954C490.541 59.0881 492.534 53.3422 494.8 53.3422H496.929C499.987 53.3422 501.482 58.8912 501.482 63.3895V75.538H490.564V62.9954H490.541ZM523 113.724V107.847H501.164V119.175C501.164 122.491 499.352 126.726 496.906 126.726H495.683C491.402 126.726 490.518 120.554 490.518 114.578V98.6533H522.977V64.276C522.955 64.2103 521.007 53.9004 520.146 51.405C518.606 46.9067 517.315 44.7069 514.846 41.522C511.244 36.8267 503.837 32 496.883 32H494.165C481.254 32 469 47.8261 469 65.5237V113.724C469 131.29 482.002 146 495.683 146H497.495C505.128 146 510.61 141.469 514.959 136.609C516.658 134.705 519.285 129.878 520.214 127.12C521.21 124.362 522.728 114.348 523 113.724Z" stroke="#000200" stroke-width="0.162"/>
<path fill-rule="evenodd" clip-rule="evenodd" d="M291 26.1496V144H312.296V51.785H320.996V33.591H312.296V27.7887C312.296 24.8056 314.788 22.4126 316.782 22.4126L318.277 22.3142L320.973 22.8386C320.973 18.577 320.928 14.2499 320.996 9.98826C321.086 4.02199 319.704 5.071 314.992 5.071H306.904C296.822 5.071 291 12.1846 291 26.1496Z" fill="#000200"/>
<path d="M291 26.1218V144H312.296V51.7632H320.996V33.565H312.296V27.7941C312.296 24.8103 314.788 22.4166 316.782 22.4166L318.277 22.3182L320.973 22.8429C320.973 18.5802 320.928 14.2521 320.996 9.98944C321.086 4.02176 319.704 5.07102 314.992 5.07102H306.904C296.822 5.03823 291 12.1535 291 26.1218Z" stroke="#000200" stroke-width="0.162"/>
<path fill-rule="evenodd" clip-rule="evenodd" d="M254.283 126.878H252.784C249.944 126.878 248.289 124.252 248.289 120.182V110.138C248.289 100.849 253.455 95.9248 258.755 94.218C258.755 103.671 260.343 126.878 254.283 126.878ZM230.31 68.1881H249.475V61.9185C249.475 58.3078 250.951 53.9422 253.366 53.9422H255.155C259.739 53.9422 258.733 65.2338 258.733 71.9629C255.423 72.3568 240.239 81.8103 237.533 84.1736C231.405 89.524 227 98.1241 227 111.779V123.53C227 134.231 234.916 147 243.168 147H244.957C253.254 147 254.283 142.798 258.733 138.63V145.326H280V59.3911C280 44.9154 268.863 33 258.442 33H252.762C240.373 32.9672 230.31 49.5437 230.31 68.1881Z" fill="#000200"/>
<path d="M254.283 126.878H252.784C249.944 126.878 248.289 124.252 248.289 120.182V110.138C248.289 100.849 253.455 95.9248 258.755 94.218C258.755 103.671 260.343 126.878 254.283 126.878ZM230.31 68.1881H249.475V61.9185C249.475 58.3078 250.951 53.9422 253.366 53.9422H255.155C259.739 53.9422 258.733 65.2338 258.733 71.9629C255.423 72.3568 240.239 81.8103 237.533 84.1736C231.405 89.524 227 98.1241 227 111.779V123.53C227 134.231 234.916 147 243.168 147H244.957C253.254 147 254.283 142.798 258.733 138.63V145.326H280V59.3911C280 44.9154 268.863 33 258.442 33H252.762C240.373 32.9672 230.31 49.5765 230.31 68.1881Z" stroke="#000200" stroke-width="0.162"/>
<path fill-rule="evenodd" clip-rule="evenodd" d="M434 124.326C434 140.714 438.186 144.901 450.063 144.901L455.833 145L464 144.472V126.008H461.285C457.937 126.008 455.516 124.755 455.516 120.106V48.6882H464V29.7952H455.516V5H434V124.326Z" fill="#000200"/>
<path d="M434 124.331C434 140.715 438.186 144.901 450.063 144.901L455.833 145L464 144.473V125.979H461.285C457.937 125.979 455.516 124.727 455.516 120.079V48.6779H464V29.7892H455.516V5H434V124.331Z" stroke="#000200" stroke-width="0.162"/>
<path fill-rule="evenodd" clip-rule="evenodd" d="M348.668 67.8106C348.668 60.561 348.6 52.5832 353.863 52.5832H354.775C358.808 52.5832 359.354 61.5541 359.354 67.3802V114.287C359.354 119.915 358.648 126.535 354.775 126.535H352.952C348.942 126.535 348.668 116.836 348.668 110.911V67.8106ZM327 67.8106V113.029C327 131.865 339.509 146 353.248 146H356.894C370.086 146 381 129.879 381 110.48V66.5196C381 45.3337 369.357 31 354.137 31C337.777 31.0331 327 44.9033 327 67.8106Z" fill="#000200"/>
<path d="M348.668 67.8106C348.668 60.561 348.6 52.5832 353.863 52.5832H354.775C358.808 52.5832 359.354 61.5541 359.354 67.3802V114.287C359.354 119.915 358.648 126.535 354.775 126.535H352.952C348.942 126.535 348.668 116.836 348.668 110.911V67.8106ZM327 67.8106V113.029C327 131.865 339.509 146 353.248 146H356.894C370.086 146 381 129.879 381 110.48V66.5196C381 45.3337 369.357 31 354.137 31C337.777 31.0662 327 44.9033 327 67.8106Z" stroke="#000200" stroke-width="0.162"/>
<path fill-rule="evenodd" clip-rule="evenodd" d="M31 33.6119L31.023 145H52.8418V51.2673C54.3331 51.102 54.769 50.4408 56.5356 50.4408H59.3117C61.7666 50.4408 63.9233 54.8051 63.9233 58.8718V144.57H85.4439V52.5237C86.9352 52.0608 88.174 50.4078 90.3536 50.4078H92.2119C94.1162 50.4078 95.8829 54.5406 95.8829 58.0121V144.967H118V59.2685C118 40.0922 105.381 31 91.2713 31C85.5356 31 76.3584 35.1328 75.3948 35.0336C70.9668 34.5377 66.1258 31 59.0135 31C49.8592 31 40.4984 32.4216 31 33.6119Z" fill="#000200"/>
<path d="M31 33.6119L31.023 145H52.8418V51.2673C54.3331 51.102 54.769 50.4408 56.5356 50.4408H59.3117C61.7666 50.4408 63.9233 54.8051 63.9233 58.8718V144.57H85.4439V52.5237C86.9352 52.0278 88.174 50.4078 90.3536 50.4078H92.2119C94.1162 50.4078 95.8829 54.5406 95.8829 58.0121V144.967H118V59.2685C118 40.0922 105.381 31 91.2713 31C85.5356 31 76.3584 35.1328 75.3948 35.0336C70.9668 34.5377 66.1258 31 59.0135 31C49.8592 31 40.4984 32.4216 31 33.6119Z" stroke="#000200" stroke-width="0.162"/>
<path fill-rule="evenodd" clip-rule="evenodd" d="M147.659 64.3875C147.659 59.2662 148.365 50.7307 151.622 50.7307H154.674C157.316 50.7307 158.637 58.9379 158.637 63.1071V72.0694C158.637 82.4105 158.318 92.6531 158.341 102.403C158.341 112.482 160.163 125.449 153.148 125.449C149.458 125.449 147.659 119.835 147.659 114.78V64.3875ZM126 144.72H147.659V137.464C149.823 138.285 152.26 146 159.252 146H160.778C171.824 146 180 131.982 180 116.946V58.8394C180 45.1498 171.778 29.7858 162.326 29.7858H159.275C152.351 29.7858 150.529 36.6143 147.978 37.8946V5H126.023V144.72H126Z" fill="#000200"/>
<path d="M147.659 64.3875C147.659 59.2662 148.365 50.7307 151.622 50.7307H154.674C157.316 50.7307 158.637 58.9379 158.637 63.1071V72.0694C158.637 82.4105 158.318 92.6531 158.341 102.403C158.341 112.482 160.163 125.449 153.148 125.449C149.458 125.449 147.659 119.835 147.659 114.78V64.3875ZM126 144.72H147.659V137.464C149.823 138.285 152.26 146 159.252 146H160.778C171.824 146 180 131.982 180 116.946V58.8394C180 45.1498 171.778 29.7858 162.326 29.7858H159.275C152.351 29.7858 150.529 36.6143 147.978 37.8946V5H126.023V144.72H126Z" stroke="#000200" stroke-width="0.162"/>
<path d="M22 5H1V145H22V5Z" fill="#000200"/>
<path d="M22 5H1V145H22V5Z" stroke="#000200" stroke-width="0.162"/>
<path fill-rule="evenodd" clip-rule="evenodd" d="M843.471 123.947H841.911C838.975 123.947 837.255 121.279 837.255 117.162V106.952C837.255 97.5325 842.622 92.5592 848.104 90.8136C848.127 100.431 849.755 123.947 843.471 123.947ZM818.655 64.4649H838.517V58.1083C838.517 54.4524 840.053 50.039 842.553 50.039H844.411C849.159 50.039 848.126 61.5007 848.126 68.2855C844.709 68.6807 828.976 78.2651 826.155 80.6694C819.802 86.0709 815.261 94.7989 815.261 108.632V120.522C815.261 131.358 823.448 144.302 832.003 144.302H833.861C842.462 144.302 843.494 140.053 848.126 135.804V142.589H870.144V55.5393C870.144 40.8499 858.608 28.7954 847.828 28.7954H841.934C829.068 28.7954 818.655 45.5927 818.655 64.4649Z" fill="#000200"/>
<path d="M843.471 123.947H841.911C838.975 123.947 837.255 121.312 837.255 117.162V106.952C837.255 97.5655 842.622 92.5592 848.104 90.8136C848.127 100.431 849.755 123.947 843.471 123.947ZM818.655 64.4649H838.517V58.1083C838.517 54.4524 840.053 50.039 842.553 50.039H844.411C849.159 50.039 848.126 61.5007 848.126 68.2855C844.709 68.6807 828.976 78.2651 826.155 80.6694C819.802 86.0709 815.261 94.7989 815.261 108.632V120.522C815.261 131.358 823.448 144.302 832.003 144.302H833.861C842.462 144.302 843.494 140.053 848.126 135.804V142.589H870.144V55.5393C870.144 40.8499 858.608 28.7954 847.828 28.7954H841.934C829.068 28.7954 818.655 45.5927 818.655 64.4649Z" stroke="#000200" stroke-width="0.162"/>
<path fill-rule="evenodd" clip-rule="evenodd" d="M676.641 22.8993H654.738L654.509 0.272379L676.641 0.206543V22.8993Z" fill="#000200"/>
<path d="M676.641 22.8993H654.738L654.509 0.272379L676.641 0.206543V22.8993Z" stroke="#000200" stroke-width="0.162"/>
<path fill-rule="evenodd" clip-rule="evenodd" d="M676.801 142.458L654.669 142.293L654.577 33.2427H676.847L676.801 142.458Z" fill="#000200"/>
<path d="M676.801 142.458L654.669 142.293L654.577 33.2427H676.847L676.801 142.458Z" stroke="#000200" stroke-width="0.162"/>
<path fill-rule="evenodd" clip-rule="evenodd" d="M643.799 142.589L622.011 142.293V0.536621L643.799 0.602557V142.589Z" fill="#000200"/>
<path d="M643.799 142.589L622.011 142.293V0.536621L643.799 0.602557V142.589Z" stroke="#000200" stroke-width="0.162"/>
<path fill-rule="evenodd" clip-rule="evenodd" d="M687.283 56.0998V142.326H709.003V49.7431C710.516 49.282 711.755 47.6353 713.957 47.6353H715.814C717.741 47.6353 719.53 51.7852 719.53 55.2764V142.787H741.869V56.5279C741.869 37.2275 729.529 27.8737 715.035 27.9725C707.994 27.6432 687.604 26.688 687.559 31.3649C687.536 32.5177 687.536 32.353 687.536 33.374C687.352 54.0906 687.742 48.1623 687.283 56.0998Z" fill="#000200"/>
<path d="M687.283 56.0998V142.326H709.003V49.7431C710.516 49.282 711.755 47.6353 713.957 47.6353H715.814C717.741 47.6353 719.53 51.7852 719.53 55.2764V142.787H741.869V56.5279C741.869 37.2275 729.529 27.8737 715.035 27.9725C707.994 27.6432 687.604 26.688 687.559 31.3649C687.536 32.5177 687.536 32.353 687.536 33.374C687.352 54.0906 687.742 48.1623 687.283 56.0998Z" stroke="#000200" stroke-width="0.162"/>
<path fill-rule="evenodd" clip-rule="evenodd" d="M783.404 60.9741C783.404 55.8032 782.67 47.2069 779.344 47.2069H776.225C773.519 47.2069 772.166 55.5068 772.166 59.6897V68.747C772.166 79.1877 772.487 89.5295 772.487 99.3444C772.487 109.522 770.606 122.597 777.808 122.597C781.592 122.597 783.45 116.965 783.45 111.827V60.9741H783.404ZM805.605 141.963H783.404V134.652C781.179 135.475 778.679 143.248 771.523 143.248H769.964C758.611 143.248 750.263 129.118 750.263 113.968V55.3751C750.263 41.5749 758.703 26.095 768.404 26.095H771.523C778.633 26.095 780.491 32.9786 783.106 34.2631V1.09668H805.628V141.963H805.605Z" fill="#000200"/>
<path d="M783.404 60.9741C783.404 55.8032 782.67 47.2069 779.344 47.2069H776.225C773.519 47.2069 772.166 55.5068 772.166 59.6897V68.747C772.166 79.1877 772.487 89.5295 772.487 99.3444C772.487 109.522 770.606 122.597 777.808 122.597C781.592 122.597 783.45 116.965 783.45 111.827V60.9741H783.404ZM805.605 141.963H783.404V134.652C781.179 135.475 778.679 143.248 771.523 143.248H769.964C758.611 143.248 750.263 129.118 750.263 113.968V55.3751C750.263 41.5749 758.703 26.095 768.404 26.095H771.523C778.633 26.095 780.491 32.9786 783.106 34.2631V1.09668H805.628V141.963H805.605Z" stroke="#000200" stroke-width="0.162"/>
<path fill-rule="evenodd" clip-rule="evenodd" d="M555.889 0.570312L586.759 0.603281L592.332 0.965527L595.016 1.36074L596.942 1.78892L599.236 2.54649L602.057 4.06151L603.502 5.14845L604.694 6.13649L605.703 7.12452L606.437 8.07969L607.171 9.49591L607.768 11.1427L608.524 13.7447L609.006 16.0502L609.579 20.4636L609.832 23.7572L609.923 25.2722L610.015 27.3802L610.107 36.1082L609.809 42.3989L609.212 47.8663L608.341 52.7407L607.24 56.7919L606.506 58.7351L605.681 60.4807L604.488 62.4239L603.593 63.4779L602.951 64.0377L602.974 64.6307L604.098 65.3881L605.359 66.7056L606.735 68.8464L607.469 70.4603L608.891 75.0384L609.946 80.5716L610.703 88.8056L610.887 95.0304L610.749 102.803L610.52 107.085L610.199 111.498L609.465 118.25L608.8 122.96L608.02 127.406L607.217 131.062L606.827 132.248L606.277 133.763L605.038 136.069L604.373 137.024L603.066 138.473L601.827 139.461L600.887 140.087L599.534 140.811L597.974 141.371L596.69 141.734L594.649 142.063L592.814 142.326L590.566 142.425H588.204L582.791 142.458H555.912V0.570312H555.889ZM579.443 76.4217L580.269 75.4665L581.278 74.709L582.401 74.3138L583.434 74.215L584.947 74.5773L585.842 75.1042L586.622 75.7959L587.241 76.5864L587.699 77.3768L588.066 78.2332L588.479 80.4069L588.502 82.6466V116.702V118.02L588.456 118.777L588.044 120.556L587.493 121.741L586.988 122.532L585.956 123.586L585.154 124.08L584.213 124.409L582.86 124.475L581.897 124.245L580.75 123.619L580.131 123.092L579.489 122.301L578.984 121.445L578.548 120.424L578.182 118.81L578.113 118.02V81.0656L578.182 79.9129L578.434 78.7272L578.87 77.5086L579.443 76.4217ZM579.879 18.6192L580.108 18.4216L580.383 18.191L580.796 17.9275L581.553 17.5652L581.874 17.4664L582.539 17.3347H583.571L584.305 17.4664L584.901 17.697L585.956 18.3228L586.851 19.1791L587.86 20.9247L588.135 21.8798L588.296 23.5925V34.2966V39.27V44.935V48.9861L588.319 54.4205V55.8697L588.227 57.0553L587.883 58.3399L587.356 59.3939L586.851 60.0855L585.819 61.0407L584.672 61.6663L583.663 61.9299L582.218 61.8969L580.934 61.4359L579.466 60.3161L578.801 59.3939L578.319 58.4057L577.952 56.8577L577.883 55.8038V41.5426V38.0843V33.9344V30.575V23.9548V23.1314L578.021 21.9457L578.273 21.0564L578.801 19.9696L579.558 18.9486L579.879 18.6192Z" fill="#000200"/>
<path d="M555.889 0.570312L586.759 0.603281L592.332 0.965527L595.016 1.36074L596.942 1.78892L599.236 2.54649L602.057 4.06151L603.502 5.14845L604.694 6.13649L605.703 7.12452L606.437 8.07969L607.171 9.49591L607.768 11.1427L608.524 13.7447L609.006 16.0502L609.579 20.4636L609.832 23.7572L609.923 25.2722L610.015 27.3802L610.107 36.1082L609.809 42.3989L609.212 47.8663L608.341 52.7408L607.24 56.7919L606.506 58.7351L605.681 60.4807L604.488 62.4239L603.593 63.4779L602.951 64.0377L602.974 64.6307L604.098 65.3881L605.359 66.7056L606.735 68.8465L607.469 70.4603L608.891 75.0384L609.946 80.5716L610.703 88.8056L610.887 95.0304L610.749 102.803L610.52 107.085L610.199 111.498L609.465 118.25L608.8 122.96L608.02 127.406L607.217 131.062L606.827 132.248L606.277 133.763L605.038 136.069L604.373 137.024L603.066 138.473L601.827 139.461L600.887 140.087L599.534 140.778L597.974 141.338L596.69 141.701L594.649 142.03L592.814 142.26L590.566 142.359H588.204L582.791 142.392H555.912V0.570312H555.889ZM579.443 76.4546L580.269 75.4995L581.278 74.7419L582.401 74.3138L583.434 74.215L584.947 74.5443L585.842 75.0713L586.622 75.763L587.241 76.5534L587.699 77.3439L588.066 78.2002L588.479 80.374L588.502 82.6136V116.669V117.987L588.456 118.777L588.044 120.556L587.493 121.741L586.988 122.532L585.956 123.586L585.154 124.08L584.213 124.409L582.86 124.475L581.897 124.245L580.75 123.619L580.131 123.092L579.489 122.301L578.984 121.445L578.548 120.424L578.182 118.81L578.113 118.02V81.0656L578.182 79.9129L578.434 78.7272L578.87 77.5086L579.443 76.4546ZM579.879 18.6192L580.108 18.4216L580.383 18.191L580.796 17.9275L581.553 17.5652L581.874 17.4664L582.539 17.3347H583.571L584.305 17.4664L584.901 17.697L585.956 18.3228L586.851 19.1791L587.86 20.9247L588.135 21.8798L588.296 23.5925V34.2966V39.27V44.935V48.9861L588.319 54.4205V55.8697L588.227 57.0553L587.883 58.3399L587.356 59.3939L586.851 60.0855L585.819 61.0407L584.672 61.6664L583.663 61.9299L582.218 61.8969L580.934 61.4359L579.466 60.3161L578.801 59.3939L578.319 58.4057L577.952 56.8577L577.883 55.8038V41.5426V38.0843V33.9344V30.575V23.9548V23.1314L578.021 21.9457L578.273 21.0894L578.801 20.0025L579.558 19.0144L579.879 18.6192Z" stroke="#000200" stroke-width="0.162"/>
<path fill-rule="evenodd" clip-rule="evenodd" d="M968.352 64.8921C968.352 57.6132 968.283 49.6099 973.627 49.6099H974.567C978.649 49.6099 979.223 58.6342 979.223 64.4639V111.628C979.223 117.26 978.489 123.946 974.567 123.946H972.709C968.627 123.946 968.352 114.197 968.352 108.236V64.8921ZM946.334 64.8921V110.344C946.334 129.249 959.063 143.444 973.007 143.444H976.723C990.117 143.444 1001.22 127.273 1001.22 107.775V63.6076C1001.22 42.331 989.383 27.938 973.925 27.938C957.274 27.938 946.334 41.8699 946.334 64.8921Z" fill="#000200"/>
<path d="M968.352 64.8921C968.352 57.6132 968.283 49.6099 973.627 49.6099H974.567C978.649 49.6099 979.223 58.6342 979.223 64.4639V111.628C979.223 117.293 978.489 123.946 974.567 123.946H972.709C968.627 123.946 968.352 114.197 968.352 108.236V64.8921ZM946.334 64.8921V110.344C946.334 129.249 959.063 143.444 973.007 143.444H976.723C990.117 143.444 1001.22 127.273 1001.22 107.775V63.6076C1001.22 42.331 989.383 27.938 973.925 27.938C957.274 27.938 946.334 41.8699 946.334 64.8921Z" stroke="#000200" stroke-width="0.162"/>
<path fill-rule="evenodd" clip-rule="evenodd" d="M913.261 61.2044C913.261 56.0006 912.55 47.3713 909.178 47.3713H906.036C903.33 47.3713 901.954 55.7041 901.954 59.9199V69.0102C901.954 79.4838 902.275 89.8916 902.275 99.7395C902.275 109.983 900.394 123.091 907.619 123.091C911.426 123.091 913.284 117.393 913.284 112.288V61.2044H913.261ZM935.576 142.523H913.261V135.178C911.036 136.002 908.513 143.841 901.334 143.841H899.752C888.353 143.841 879.959 129.645 879.959 114.429V55.5724C879.959 41.7064 888.422 26.1606 898.192 26.1606H901.334C908.467 26.1606 910.325 33.0771 912.962 34.3946V1.06348H935.576V142.523Z" fill="#000200"/>
<path d="M913.261 61.2047C913.261 56.0008 912.55 47.3716 909.178 47.3716H906.036C903.33 47.3716 901.954 55.7043 901.954 59.9201V69.0105C901.954 79.4841 902.275 89.8919 902.275 99.7397C902.275 109.983 900.394 123.091 907.619 123.091C911.426 123.091 913.284 117.393 913.284 112.255V61.2047H913.261ZM935.576 142.556H913.261V135.212C911.036 136.035 908.513 143.874 901.334 143.874H899.752C888.353 143.874 879.959 129.678 879.959 114.462V55.6055C879.959 41.7395 888.422 26.1938 898.192 26.1938H901.334C908.467 26.1938 910.325 33.1103 912.962 34.4278V1.09668H935.576V142.556Z" stroke="#000200" stroke-width="0.162"/>
<path fill-rule="evenodd" clip-rule="evenodd" d="M1031.61 143.049C1027.23 143.049 1023.1 142.193 1019.22 140.48C1015.32 138.767 1012.11 136.791 1009.57 134.486V106.358H1011.1C1012 107.577 1012.98 108.894 1014.13 110.344C1015.25 111.826 1016.81 113.341 1018.83 114.922C1020.55 116.404 1022.5 117.622 1024.66 118.709C1026.84 119.73 1029.2 120.257 1031.72 120.257C1034.34 120.257 1036.63 119.533 1038.62 118.083C1040.6 116.601 1041.61 114.296 1041.61 111.134C1041.61 108.631 1041.15 106.786 1040.23 105.535C1039.31 104.25 1037.55 103.032 1034.89 101.879C1033.49 101.253 1031.7 100.595 1029.54 99.837C1027.39 99.1454 1025.51 98.289 1023.83 97.3339C1019.18 94.7319 1015.69 90.8784 1013.35 85.7733C1011.01 80.6683 1009.82 73.9494 1009.82 65.6496C1009.82 60.9068 1010.44 56.3946 1011.65 52.1788C1012.87 47.9959 1014.63 44.2412 1017.02 40.9147C1019.38 37.687 1022.29 35.118 1025.78 33.2077C1029.24 31.2974 1033.17 30.3423 1037.52 30.3423C1041.7 30.3423 1045.5 31.0998 1048.99 32.5819C1052.48 34.064 1055.41 35.8755 1057.82 37.9505V64.925H1056.35C1055.71 64.0686 1054.72 62.85 1053.33 61.3678C1051.95 59.8857 1050.62 58.6012 1049.31 57.5473C1047.78 56.2957 1046.03 55.2088 1044.11 54.3854C1042.2 53.562 1040.23 53.1668 1038.23 53.1668C1035.57 53.1668 1033.28 53.9902 1031.45 55.637C1029.59 57.2838 1028.67 59.4576 1028.67 62.2242C1028.67 64.6285 1029.13 66.5059 1030.05 67.9221C1030.96 69.3055 1032.96 70.6887 1036.03 72.0062C1037.61 72.6978 1039.45 73.3895 1041.49 74.0482C1043.55 74.7398 1045.53 75.6292 1047.45 76.7819C1051.72 79.2521 1054.95 82.9079 1057.13 87.6507C1059.33 92.4594 1060.44 98.816 1060.44 106.721C1060.44 111.727 1059.79 116.503 1058.49 121.048C1057.16 125.56 1055.32 129.38 1052.91 132.509C1050.37 135.869 1047.39 138.471 1043.97 140.315C1040.48 142.127 1036.38 143.049 1031.61 143.049Z" fill="#000200"/>
<path d="M1031.61 143.049C1027.23 143.049 1023.1 142.193 1019.22 140.48C1015.32 138.767 1012.11 136.791 1009.57 134.486V106.358H1011.1C1012 107.577 1012.98 108.894 1014.13 110.344C1015.25 111.793 1016.81 113.341 1018.83 114.922C1020.55 116.404 1022.5 117.622 1024.66 118.709C1026.84 119.73 1029.2 120.257 1031.72 120.257C1034.34 120.257 1036.63 119.533 1038.62 118.083C1040.6 116.601 1041.61 114.296 1041.61 111.134C1041.61 108.631 1041.15 106.786 1040.23 105.535C1039.31 104.25 1037.55 103.032 1034.89 101.879C1033.49 101.253 1031.7 100.595 1029.54 99.837C1027.39 99.1124 1025.51 98.289 1023.83 97.3339C1019.18 94.7319 1015.69 90.8784 1013.35 85.7733C1011.01 80.6683 1009.82 73.9494 1009.82 65.6496C1009.82 60.9068 1010.44 56.3946 1011.65 52.1788C1012.87 47.9959 1014.63 44.2412 1017.02 40.9147C1019.38 37.687 1022.29 35.118 1025.78 33.2077C1029.24 31.2974 1033.17 30.3423 1037.52 30.3423C1041.7 30.3423 1045.5 31.0998 1048.99 32.5819C1052.48 34.064 1055.41 35.8755 1057.82 37.9505V64.925H1056.35C1055.71 64.0357 1054.72 62.85 1053.33 61.3678C1051.95 59.8857 1050.62 58.6012 1049.31 57.5473C1047.78 56.2957 1046.03 55.2088 1044.11 54.3854C1042.2 53.562 1040.23 53.1668 1038.23 53.1668C1035.57 53.1668 1033.28 53.9902 1031.45 55.637C1029.59 57.2838 1028.67 59.4576 1028.67 62.2242C1028.67 64.6285 1029.13 66.5059 1030.05 67.9221C1030.96 69.3055 1032.96 70.6887 1036.03 72.0062C1037.61 72.6978 1039.45 73.3895 1041.49 74.0482C1043.55 74.7398 1045.53 75.6292 1047.45 76.7819C1051.72 79.2521 1054.95 82.9079 1057.13 87.6507C1059.33 92.4594 1060.44 98.816 1060.44 106.721C1060.44 111.727 1059.79 116.503 1058.49 121.048C1057.16 125.56 1055.32 129.38 1052.91 132.509C1050.37 135.869 1047.39 138.471 1043.97 140.315C1040.48 142.127 1036.38 143.049 1031.61 143.049Z" stroke="#000200" stroke-width="0.162"/>
<path fill-rule="evenodd" clip-rule="evenodd" d="M843.471 123.947H841.911C838.975 123.947 837.255 121.279 837.255 117.162V106.952C837.255 97.5325 842.622 92.5592 848.104 90.8136C848.127 100.431 849.755 123.947 843.471 123.947ZM818.655 64.4649H838.517V58.1083C838.517 54.4524 840.053 50.039 842.553 50.039H844.411C849.159 50.039 848.126 61.5007 848.126 68.2855C844.709 68.6807 828.976 78.2651 826.155 80.6694C819.802 86.0709 815.261 94.7989 815.261 108.632V120.522C815.261 131.358 823.448 144.302 832.003 144.302H833.861C842.462 144.302 843.494 140.053 848.126 135.804V142.589H870.144V55.5393C870.144 40.8499 858.608 28.7954 847.828 28.7954H841.934C829.068 28.7954 818.655 45.5927 818.655 64.4649Z" fill="#000200"/>
<path d="M843.471 123.947H841.911C838.975 123.947 837.255 121.312 837.255 117.162V106.952C837.255 97.5655 842.622 92.5592 848.104 90.8136C848.127 100.431 849.755 123.947 843.471 123.947ZM818.655 64.4649H838.517V58.1083C838.517 54.4524 840.053 50.039 842.553 50.039H844.411C849.159 50.039 848.126 61.5007 848.126 68.2855C844.709 68.6807 828.976 78.2651 826.155 80.6694C819.802 86.0709 815.261 94.7989 815.261 108.632V120.522C815.261 131.358 823.448 144.302 832.003 144.302H833.861C842.462 144.302 843.494 140.053 848.126 135.804V142.589H870.144V55.5393C870.144 40.8499 858.608 28.7954 847.828 28.7954H841.934C829.068 28.7954 818.655 45.5927 818.655 64.4649Z" stroke="#000200" stroke-width="0.162"/>
<path fill-rule="evenodd" clip-rule="evenodd" d="M676.641 22.8993H654.738L654.509 0.272379L676.641 0.206543V22.8993Z" fill="#000200"/>
<path d="M676.641 22.8993H654.738L654.509 0.272379L676.641 0.206543V22.8993Z" stroke="#000200" stroke-width="0.162"/>
<path fill-rule="evenodd" clip-rule="evenodd" d="M676.801 142.458L654.669 142.293L654.577 33.2427H676.847L676.801 142.458Z" fill="#000200"/>
<path d="M676.801 142.458L654.669 142.293L654.577 33.2427H676.847L676.801 142.458Z" stroke="#000200" stroke-width="0.162"/>
<path fill-rule="evenodd" clip-rule="evenodd" d="M643.799 142.589L622.011 142.293V0.536621L643.799 0.602557V142.589Z" fill="#000200"/>
<path d="M643.799 142.589L622.011 142.293V0.536621L643.799 0.602557V142.589Z" stroke="#000200" stroke-width="0.162"/>
<path fill-rule="evenodd" clip-rule="evenodd" d="M687.283 56.0998V142.326H709.003V49.7431C710.516 49.282 711.755 47.6353 713.957 47.6353H715.814C717.741 47.6353 719.53 51.7852 719.53 55.2764V142.787H741.869V56.5279C741.869 37.2275 729.529 27.8737 715.035 27.9725C707.994 27.6432 687.604 26.688 687.559 31.3649C687.536 32.5177 687.536 32.353 687.536 33.374C687.352 54.0906 687.742 48.1623 687.283 56.0998Z" fill="#000200"/>
<path d="M687.283 56.0998V142.326H709.003V49.7431C710.516 49.282 711.755 47.6353 713.957 47.6353H715.814C717.741 47.6353 719.53 51.7852 719.53 55.2764V142.787H741.869V56.5279C741.869 37.2275 729.529 27.8737 715.035 27.9725C707.994 27.6432 687.604 26.688 687.559 31.3649C687.536 32.5177 687.536 32.353 687.536 33.374C687.352 54.0906 687.742 48.1623 687.283 56.0998Z" stroke="#000200" stroke-width="0.162"/>
<path fill-rule="evenodd" clip-rule="evenodd" d="M783.404 60.9741C783.404 55.8032 782.67 47.2069 779.344 47.2069H776.225C773.519 47.2069 772.166 55.5068 772.166 59.6897V68.747C772.166 79.1877 772.487 89.5295 772.487 99.3444C772.487 109.522 770.606 122.597 777.808 122.597C781.592 122.597 783.45 116.965 783.45 111.827V60.9741H783.404ZM805.605 141.963H783.404V134.652C781.179 135.475 778.679 143.248 771.523 143.248H769.964C758.611 143.248 750.263 129.118 750.263 113.968V55.3751C750.263 41.5749 758.703 26.095 768.404 26.095H771.523C778.633 26.095 780.491 32.9786 783.106 34.2631V1.09668H805.628V141.963H805.605Z" fill="#000200"/>
<path d="M783.404 60.9741C783.404 55.8032 782.67 47.2069 779.344 47.2069H776.225C773.519 47.2069 772.166 55.5068 772.166 59.6897V68.747C772.166 79.1877 772.487 89.5295 772.487 99.3444C772.487 109.522 770.606 122.597 777.808 122.597C781.592 122.597 783.45 116.965 783.45 111.827V60.9741H783.404ZM805.605 141.963H783.404V134.652C781.179 135.475 778.679 143.248 771.523 143.248H769.964C758.611 143.248 750.263 129.118 750.263 113.968V55.3751C750.263 41.5749 758.703 26.095 768.404 26.095H771.523C778.633 26.095 780.491 32.9786 783.106 34.2631V1.09668H805.628V141.963H805.605Z" stroke="#000200" stroke-width="0.162"/>
<path fill-rule="evenodd" clip-rule="evenodd" d="M555.889 0.570312L586.759 0.603281L592.332 0.965527L595.016 1.36074L596.942 1.78892L599.236 2.54649L602.057 4.06151L603.502 5.14845L604.694 6.13649L605.703 7.12452L606.437 8.07969L607.171 9.49591L607.768 11.1427L608.524 13.7447L609.006 16.0502L609.579 20.4636L609.832 23.7572L609.923 25.2722L610.015 27.3802L610.107 36.1082L609.809 42.3989L609.212 47.8663L608.341 52.7407L607.24 56.7919L606.506 58.7351L605.681 60.4807L604.488 62.4239L603.593 63.4779L602.951 64.0377L602.974 64.6307L604.098 65.3881L605.359 66.7056L606.735 68.8464L607.469 70.4603L608.891 75.0384L609.946 80.5716L610.703 88.8056L610.887 95.0304L610.749 102.803L610.52 107.085L610.199 111.498L609.465 118.25L608.8 122.96L608.02 127.406L607.217 131.062L606.827 132.248L606.277 133.763L605.038 136.069L604.373 137.024L603.066 138.473L601.827 139.461L600.887 140.087L599.534 140.811L597.974 141.371L596.69 141.734L594.649 142.063L592.814 142.326L590.566 142.425H588.204L582.791 142.458H555.912V0.570312H555.889ZM579.443 76.4217L580.269 75.4665L581.278 74.709L582.401 74.3138L583.434 74.215L584.947 74.5773L585.842 75.1042L586.622 75.7959L587.241 76.5864L587.699 77.3768L588.066 78.2332L588.479 80.4069L588.502 82.6466V116.702V118.02L588.456 118.777L588.044 120.556L587.493 121.741L586.988 122.532L585.956 123.586L585.154 124.08L584.213 124.409L582.86 124.475L581.897 124.245L580.75 123.619L580.131 123.092L579.489 122.301L578.984 121.445L578.548 120.424L578.182 118.81L578.113 118.02V81.0656L578.182 79.9129L578.434 78.7272L578.87 77.5086L579.443 76.4217ZM579.879 18.6192L580.108 18.4216L580.383 18.191L580.796 17.9275L581.553 17.5652L581.874 17.4664L582.539 17.3347H583.571L584.305 17.4664L584.901 17.697L585.956 18.3228L586.851 19.1791L587.86 20.9247L588.135 21.8798L588.296 23.5925V34.2966V39.27V44.935V48.9861L588.319 54.4205V55.8697L588.227 57.0553L587.883 58.3399L587.356 59.3939L586.851 60.0855L585.819 61.0407L584.672 61.6663L583.663 61.9299L582.218 61.8969L580.934 61.4359L579.466 60.3161L578.801 59.3939L578.319 58.4057L577.952 56.8577L577.883 55.8038V41.5426V38.0843V33.9344V30.575V23.9548V23.1314L578.021 21.9457L578.273 21.0564L578.801 19.9696L579.558 18.9486L579.879 18.6192Z" fill="#000200"/>
<path d="M555.889 0.570312L586.759 0.603281L592.332 0.965527L595.016 1.36074L596.942 1.78892L599.236 2.54649L602.057 4.06151L603.502 5.14845L604.694 6.13649L605.703 7.12452L606.437 8.07969L607.171 9.49591L607.768 11.1427L608.524 13.7447L609.006 16.0502L609.579 20.4636L609.832 23.7572L609.923 25.2722L610.015 27.3802L610.107 36.1082L609.809 42.3989L609.212 47.8663L608.341 52.7408L607.24 56.7919L606.506 58.7351L605.681 60.4807L604.488 62.4239L603.593 63.4779L602.951 64.0377L602.974 64.6307L604.098 65.3881L605.359 66.7056L606.735 68.8465L607.469 70.4603L608.891 75.0384L609.946 80.5716L610.703 88.8056L610.887 95.0304L610.749 102.803L610.52 107.085L610.199 111.498L609.465 118.25L608.8 122.96L608.02 127.406L607.217 131.062L606.827 132.248L606.277 133.763L605.038 136.069L604.373 137.024L603.066 138.473L601.827 139.461L600.887 140.087L599.534 140.778L597.974 141.338L596.69 141.701L594.649 142.03L592.814 142.26L590.566 142.359H588.204L582.791 142.392H555.912V0.570312H555.889ZM579.443 76.4546L580.269 75.4995L581.278 74.7419L582.401 74.3138L583.434 74.215L584.947 74.5443L585.842 75.0713L586.622 75.763L587.241 76.5534L587.699 77.3439L588.066 78.2002L588.479 80.374L588.502 82.6136V116.669V117.987L588.456 118.777L588.044 120.556L587.493 121.741L586.988 122.532L585.956 123.586L585.154 124.08L584.213 124.409L582.86 124.475L581.897 124.245L580.75 123.619L580.131 123.092L579.489 122.301L578.984 121.445L578.548 120.424L578.182 118.81L578.113 118.02V81.0656L578.182 79.9129L578.434 78.7272L578.87 77.5086L579.443 76.4546ZM579.879 18.6192L580.108 18.4216L580.383 18.191L580.796 17.9275L581.553 17.5652L581.874 17.4664L582.539 17.3347H583.571L584.305 17.4664L584.901 17.697L585.956 18.3228L586.851 19.1791L587.86 20.9247L588.135 21.8798L588.296 23.5925V34.2966V39.27V44.935V48.9861L588.319 54.4205V55.8697L588.227 57.0553L587.883 58.3399L587.356 59.3939L586.851 60.0855L585.819 61.0407L584.672 61.6664L583.663 61.9299L582.218 61.8969L580.934 61.4359L579.466 60.3161L578.801 59.3939L578.319 58.4057L577.952 56.8577L577.883 55.8038V41.5426V38.0843V33.9344V30.575V23.9548V23.1314L578.021 21.9457L578.273 21.0894L578.801 20.0025L579.558 19.0144L579.879 18.6192Z" stroke="#000200" stroke-width="0.162"/>
<path fill-rule="evenodd" clip-rule="evenodd" d="M968.352 64.8921C968.352 57.6132 968.283 49.6099 973.627 49.6099H974.567C978.649 49.6099 979.223 58.6342 979.223 64.4639V111.628C979.223 117.26 978.489 123.946 974.567 123.946H972.709C968.627 123.946 968.352 114.197 968.352 108.236V64.8921ZM946.334 64.8921V110.344C946.334 129.249 959.063 143.444 973.007 143.444H976.723C990.117 143.444 1001.22 127.273 1001.22 107.775V63.6076C1001.22 42.331 989.383 27.938 973.925 27.938C957.274 27.938 946.334 41.8699 946.334 64.8921Z" fill="#000200"/>
<path d="M968.352 64.8921C968.352 57.6132 968.283 49.6099 973.627 49.6099H974.567C978.649 49.6099 979.223 58.6342 979.223 64.4639V111.628C979.223 117.293 978.489 123.946 974.567 123.946H972.709C968.627 123.946 968.352 114.197 968.352 108.236V64.8921ZM946.334 64.8921V110.344C946.334 129.249 959.063 143.444 973.007 143.444H976.723C990.117 143.444 1001.22 127.273 1001.22 107.775V63.6076C1001.22 42.331 989.383 27.938 973.925 27.938C957.274 27.938 946.334 41.8699 946.334 64.8921Z" stroke="#000200" stroke-width="0.162"/>
<path fill-rule="evenodd" clip-rule="evenodd" d="M913.261 61.2044C913.261 56.0006 912.55 47.3713 909.178 47.3713H906.036C903.33 47.3713 901.954 55.7041 901.954 59.9199V69.0102C901.954 79.4838 902.275 89.8916 902.275 99.7395C902.275 109.983 900.394 123.091 907.619 123.091C911.426 123.091 913.284 117.393 913.284 112.288V61.2044H913.261ZM935.576 142.523H913.261V135.178C911.036 136.002 908.513 143.841 901.334 143.841H899.752C888.353 143.841 879.959 129.645 879.959 114.429V55.5724C879.959 41.7064 888.422 26.1606 898.192 26.1606H901.334C908.467 26.1606 910.325 33.0771 912.962 34.3946V1.06348H935.576V142.523Z" fill="#000200"/>
<path d="M913.261 61.2047C913.261 56.0008 912.55 47.3716 909.178 47.3716H906.036C903.33 47.3716 901.954 55.7043 901.954 59.9201V69.0105C901.954 79.4841 902.275 89.8919 902.275 99.7397C902.275 109.983 900.394 123.091 907.619 123.091C911.426 123.091 913.284 117.393 913.284 112.255V61.2047H913.261ZM935.576 142.556H913.261V135.212C911.036 136.035 908.513 143.874 901.334 143.874H899.752C888.353 143.874 879.959 129.678 879.959 114.462V55.6055C879.959 41.7395 888.422 26.1938 898.192 26.1938H901.334C908.467 26.1938 910.325 33.1103 912.962 34.4278V1.09668H935.576V142.556Z" stroke="#000200" stroke-width="0.162"/>
<path fill-rule="evenodd" clip-rule="evenodd" d="M1031.61 143.049C1027.23 143.049 1023.1 142.193 1019.22 140.48C1015.32 138.767 1012.11 136.791 1009.57 134.486V106.358H1011.1C1012 107.577 1012.98 108.894 1014.13 110.344C1015.25 111.826 1016.81 113.341 1018.83 114.922C1020.55 116.404 1022.5 117.622 1024.66 118.709C1026.84 119.73 1029.2 120.257 1031.72 120.257C1034.34 120.257 1036.63 119.533 1038.62 118.083C1040.6 116.601 1041.61 114.296 1041.61 111.134C1041.61 108.631 1041.15 106.786 1040.23 105.535C1039.31 104.25 1037.55 103.032 1034.89 101.879C1033.49 101.253 1031.7 100.595 1029.54 99.837C1027.39 99.1454 1025.51 98.289 1023.83 97.3339C1019.18 94.7319 1015.69 90.8784 1013.35 85.7733C1011.01 80.6683 1009.82 73.9494 1009.82 65.6496C1009.82 60.9068 1010.44 56.3946 1011.65 52.1788C1012.87 47.9959 1014.63 44.2412 1017.02 40.9147C1019.38 37.687 1022.29 35.118 1025.78 33.2077C1029.24 31.2974 1033.17 30.3423 1037.52 30.3423C1041.7 30.3423 1045.5 31.0998 1048.99 32.5819C1052.48 34.064 1055.41 35.8755 1057.82 37.9505V64.925H1056.35C1055.71 64.0686 1054.72 62.85 1053.33 61.3678C1051.95 59.8857 1050.62 58.6012 1049.31 57.5473C1047.78 56.2957 1046.03 55.2088 1044.11 54.3854C1042.2 53.562 1040.23 53.1668 1038.23 53.1668C1035.57 53.1668 1033.28 53.9902 1031.45 55.637C1029.59 57.2838 1028.67 59.4576 1028.67 62.2242C1028.67 64.6285 1029.13 66.5059 1030.05 67.9221C1030.96 69.3055 1032.96 70.6887 1036.03 72.0062C1037.61 72.6978 1039.45 73.3895 1041.49 74.0482C1043.55 74.7398 1045.53 75.6292 1047.45 76.7819C1051.72 79.2521 1054.95 82.9079 1057.13 87.6507C1059.33 92.4594 1060.44 98.816 1060.44 106.721C1060.44 111.727 1059.79 116.503 1058.49 121.048C1057.16 125.56 1055.32 129.38 1052.91 132.509C1050.37 135.869 1047.39 138.471 1043.97 140.315C1040.48 142.127 1036.38 143.049 1031.61 143.049Z" fill="#000200"/>
<path d="M1031.61 143.049C1027.23 143.049 1023.1 142.193 1019.22 140.48C1015.32 138.767 1012.11 136.791 1009.57 134.486V106.358H1011.1C1012 107.577 1012.98 108.894 1014.13 110.344C1015.25 111.793 1016.81 113.341 1018.83 114.922C1020.55 116.404 1022.5 117.622 1024.66 118.709C1026.84 119.73 1029.2 120.257 1031.72 120.257C1034.34 120.257 1036.63 119.533 1038.62 118.083C1040.6 116.601 1041.61 114.296 1041.61 111.134C1041.61 108.631 1041.15 106.786 1040.23 105.535C1039.31 104.25 1037.55 103.032 1034.89 101.879C1033.49 101.253 1031.7 100.595 1029.54 99.837C1027.39 99.1124 1025.51 98.289 1023.83 97.3339C1019.18 94.7319 1015.69 90.8784 1013.35 85.7733C1011.01 80.6683 1009.82 73.9494 1009.82 65.6496C1009.82 60.9068 1010.44 56.3946 1011.65 52.1788C1012.87 47.9959 1014.63 44.2412 1017.02 40.9147C1019.38 37.687 1022.29 35.118 1025.78 33.2077C1029.24 31.2974 1033.17 30.3423 1037.52 30.3423C1041.7 30.3423 1045.5 31.0998 1048.99 32.5819C1052.48 34.064 1055.41 35.8755 1057.82 37.9505V64.925H1056.35C1055.71 64.0357 1054.72 62.85 1053.33 61.3678C1051.95 59.8857 1050.62 58.6012 1049.31 57.5473C1047.78 56.2957 1046.03 55.2088 1044.11 54.3854C1042.2 53.562 1040.23 53.1668 1038.23 53.1668C1035.57 53.1668 1033.28 53.9902 1031.45 55.637C1029.59 57.2838 1028.67 59.4576 1028.67 62.2242C1028.67 64.6285 1029.13 66.5059 1030.05 67.9221C1030.96 69.3055 1032.96 70.6887 1036.03 72.0062C1037.61 72.6978 1039.45 73.3895 1041.49 74.0482C1043.55 74.7398 1045.53 75.6292 1047.45 76.7819C1051.72 79.2521 1054.95 82.9079 1057.13 87.6507C1059.33 92.4594 1060.44 98.816 1060.44 106.721C1060.44 111.727 1059.79 116.503 1058.49 121.048C1057.16 125.56 1055.32 129.38 1052.91 132.509C1050.37 135.869 1047.39 138.471 1043.97 140.315C1040.48 142.127 1036.38 143.049 1031.61 143.049Z" stroke="#000200" stroke-width="0.162"/>
</svg>
