<svg width="887" height="148" viewBox="0 0 887 148" fill="none" xmlns="http://www.w3.org/2000/svg">
<path fill-rule="evenodd" clip-rule="evenodd" d="M174.272 121.541H189.108V117.088H179.029V113.307H188.001V109.301H179.029V105.818H188.849V101.664H174.272V121.541ZM191.769 121.541H196.267V109.152H196.314L202.672 121.541H207.57V101.639H203.072V113.904H203.025L196.667 101.639H191.769V121.541ZM225.302 101.639H209.619V106.092H215.082V121.541H219.839V106.092H225.302V101.639ZM227.398 121.541H232.155V114.302H235.758C236.299 114.302 236.723 114.426 237.053 114.65C237.406 114.874 237.665 115.172 237.854 115.546C238.042 115.919 238.16 116.342 238.254 116.765C238.324 117.187 238.372 117.735 238.419 118.357C238.419 118.382 238.419 118.481 238.442 118.68C238.489 119.302 238.56 119.874 238.607 120.397C238.678 120.894 238.796 121.292 238.937 121.516H243.647C243.505 121.367 243.387 121.118 243.317 120.795C243.223 120.471 243.152 120.073 243.105 119.675C243.034 119.252 243.011 118.929 242.987 118.655C242.964 118.406 242.94 117.984 242.917 117.386L242.893 117.038C242.869 116.516 242.799 115.993 242.681 115.496C242.563 114.998 242.422 114.526 242.21 114.078C242.022 113.63 241.739 113.257 241.409 112.933C241.08 112.61 240.679 112.386 240.232 112.287V112.237C241.15 111.839 241.857 111.192 242.351 110.271C242.846 109.376 243.105 108.356 243.105 107.236C243.105 106.266 242.94 105.42 242.563 104.724C242.21 104.002 241.739 103.43 241.127 102.957C240.515 102.51 239.832 102.161 239.078 101.962C238.325 101.738 237.524 101.639 236.676 101.639H227.351V121.541H227.398ZM232.155 105.793H235.946C236.653 105.793 237.218 105.967 237.665 106.341C238.113 106.714 238.348 107.236 238.348 107.933C238.348 109.5 237.618 110.271 236.135 110.271H232.155V105.793ZM245.884 121.541H260.719V117.088H250.64V113.307H259.612V109.301H250.64V105.818H260.46V101.664H245.884V121.541ZM280.312 110.645H272.611V114.476H275.932C275.814 115.396 275.366 116.118 274.613 116.665C273.859 117.212 272.917 117.486 271.74 117.486C271.01 117.486 270.351 117.312 269.809 116.988C269.267 116.665 268.82 116.217 268.467 115.67C268.137 115.098 267.878 114.476 267.713 113.779C267.548 113.058 267.478 112.336 267.478 111.565C267.478 110.819 267.548 110.072 267.713 109.376C267.878 108.654 268.137 108.032 268.467 107.485C268.796 106.913 269.267 106.49 269.809 106.167C270.351 105.843 270.986 105.669 271.74 105.669C272.729 105.669 273.553 105.918 274.236 106.415C274.919 106.913 275.296 107.56 275.343 108.406H280.1C280.005 107.211 279.699 106.167 279.181 105.246C278.687 104.326 278.051 103.554 277.274 102.982C276.497 102.385 275.626 101.962 274.707 101.664C273.765 101.365 272.823 101.241 271.834 101.241C270.492 101.241 269.244 101.514 268.113 102.037C266.983 102.559 266.018 103.306 265.217 104.251C264.416 105.196 263.781 106.316 263.357 107.585C262.933 108.828 262.721 110.197 262.721 111.615C262.721 113.033 262.933 114.401 263.357 115.645C263.781 116.914 264.393 118.008 265.217 118.954C266.018 119.899 267.007 120.646 268.113 121.168C269.244 121.69 270.468 121.964 271.834 121.964C272.8 121.964 273.718 121.74 274.66 121.342C275.602 120.919 276.356 120.272 276.921 119.377L277.203 121.566H280.265V110.645H280.312ZM290.72 107.162H290.767L292.792 114.127H288.648L290.72 107.162ZM281.489 121.541H286.387L287.541 117.984H293.923L295.053 121.541H300.022L293.193 101.639H288.342L281.489 121.541ZM301.341 121.541H305.815V109.152H305.862L312.196 121.541H317.095V101.639H312.62V113.904H312.573L306.215 101.639H301.317V121.541H301.341ZM320.368 121.541H328.233C331.059 121.541 333.249 120.67 334.827 118.954C336.404 117.212 337.181 114.749 337.181 111.515C337.181 108.43 336.381 106.017 334.803 104.276C333.225 102.534 331.012 101.664 328.233 101.664H320.368V121.541ZM325.148 106.092H327.409C329.057 106.092 330.305 106.54 331.153 107.435C332.024 108.331 332.448 109.674 332.448 111.466C332.448 113.456 332.048 114.874 331.271 115.72C330.494 116.566 329.198 117.013 327.385 117.063H325.125V106.092H325.148ZM339.136 111.59C339.136 113.033 339.348 114.376 339.748 115.645C340.149 116.889 340.737 118.008 341.514 118.954C342.291 119.899 343.233 120.646 344.364 121.168C345.494 121.69 346.766 121.964 348.155 121.964C349.568 121.964 350.816 121.69 351.946 121.168C353.077 120.646 354.019 119.899 354.796 118.954C355.573 118.008 356.161 116.914 356.562 115.645C356.962 114.401 357.174 113.033 357.174 111.59C357.174 110.147 356.962 108.804 356.562 107.535C356.161 106.291 355.573 105.196 354.796 104.226C354.019 103.281 353.077 102.534 351.946 102.012C350.816 101.489 349.544 101.216 348.155 101.216C346.766 101.216 345.494 101.489 344.364 102.012C343.233 102.534 342.291 103.281 341.514 104.226C340.737 105.171 340.149 106.266 339.748 107.535C339.324 108.779 339.136 110.122 339.136 111.59ZM343.893 111.59C343.893 110.844 343.987 110.097 344.152 109.401C344.317 108.679 344.552 108.057 344.905 107.51C345.235 106.938 345.682 106.515 346.248 106.191C346.789 105.868 347.425 105.694 348.155 105.694C348.885 105.694 349.544 105.868 350.086 106.191C350.628 106.515 351.075 106.938 351.428 107.51C351.758 108.057 352.017 108.704 352.182 109.401C352.347 110.097 352.441 110.844 352.441 111.59C352.441 112.361 352.347 113.083 352.182 113.804C352.017 114.501 351.758 115.147 351.428 115.695C351.075 116.242 350.651 116.69 350.086 117.013C349.544 117.337 348.909 117.511 348.155 117.511C347.425 117.511 346.789 117.337 346.248 117.013C345.706 116.69 345.259 116.242 344.905 115.695C344.552 115.123 344.317 114.501 344.152 113.804C343.963 113.083 343.893 112.361 343.893 111.59ZM366.758 114.849C366.758 116.068 366.97 117.138 367.394 118.033C367.818 118.954 368.383 119.7 369.137 120.272C369.89 120.845 370.738 121.267 371.656 121.541C372.598 121.815 373.611 121.939 374.694 121.939C375.777 121.939 376.79 121.815 377.732 121.591C378.674 121.367 379.498 120.969 380.252 120.471C381.005 119.949 381.594 119.252 382.018 118.382C382.442 117.511 382.677 116.491 382.677 115.272C382.677 114.426 382.536 113.655 382.253 113.033C381.971 112.386 381.57 111.839 381.076 111.391C380.581 110.943 380.016 110.595 379.427 110.296C378.839 110.023 378.156 109.774 377.379 109.525C376.931 109.401 376.366 109.227 375.707 109.052C374.435 108.754 373.517 108.43 372.928 108.157C372.339 107.858 372.057 107.46 372.057 106.913C372.057 106.316 372.292 105.893 372.763 105.619C373.234 105.346 373.752 105.221 374.364 105.221C375.189 105.221 375.895 105.395 376.46 105.769C377.026 106.142 377.308 106.739 377.308 107.609H382.065C382.065 106.54 381.853 105.594 381.453 104.773C381.052 103.952 380.487 103.281 379.804 102.758C379.098 102.236 378.344 101.838 377.449 101.589C376.578 101.34 375.683 101.216 374.741 101.216C373.823 101.216 372.928 101.34 372.057 101.564C371.162 101.788 370.361 102.161 369.655 102.634C368.948 103.131 368.36 103.753 367.936 104.525C367.512 105.296 367.276 106.216 367.276 107.236C367.276 108.107 367.441 108.878 367.724 109.5C368.03 110.122 368.43 110.669 368.925 111.117C369.443 111.54 369.984 111.913 370.573 112.187C371.162 112.461 371.845 112.734 372.622 112.958C372.904 113.058 373.376 113.182 374.035 113.356C375.354 113.729 376.343 114.078 376.955 114.401C377.567 114.725 377.873 115.222 377.873 115.869C377.873 116.541 377.591 117.063 377.025 117.386C376.46 117.735 375.754 117.884 374.953 117.884C373.87 117.884 373.046 117.66 372.457 117.163C371.868 116.69 371.539 115.894 371.492 114.774H366.758V114.849ZM384.891 121.541H399.726V117.088H389.648V113.307H398.62V109.301H389.648V105.818H399.467V101.664H384.891V121.541ZM419.319 110.645H411.642V114.476H414.962C414.821 115.396 414.374 116.118 413.644 116.665C412.89 117.212 411.948 117.486 410.771 117.486C410.041 117.486 409.381 117.312 408.84 116.988C408.298 116.665 407.851 116.217 407.497 115.67C407.168 115.098 406.909 114.476 406.744 113.779C406.579 113.058 406.508 112.336 406.508 111.565C406.508 110.819 406.579 110.072 406.744 109.376C406.909 108.654 407.168 108.032 407.497 107.485C407.827 106.913 408.298 106.49 408.84 106.167C409.381 105.843 410.017 105.669 410.771 105.669C411.76 105.669 412.584 105.918 413.267 106.415C413.95 106.913 414.326 107.56 414.397 108.406H419.154C419.06 107.211 418.754 106.167 418.259 105.246C417.765 104.326 417.105 103.554 416.328 102.982C415.551 102.385 414.68 101.962 413.761 101.664C412.819 101.365 411.877 101.241 410.888 101.241C409.546 101.241 408.298 101.514 407.168 102.037C406.037 102.559 405.072 103.306 404.271 104.251C403.471 105.196 402.858 106.316 402.411 107.585C401.987 108.828 401.775 110.197 401.775 111.615C401.775 113.033 401.987 114.401 402.411 115.645C402.835 116.914 403.471 118.008 404.271 118.954C405.072 119.899 406.061 120.646 407.168 121.168C408.298 121.69 409.523 121.964 410.888 121.964C411.854 121.964 412.796 121.74 413.714 121.342C414.633 120.919 415.386 120.272 415.975 119.377L416.257 121.566H419.319V110.645ZM438.181 101.639H433.424V113.63C433.424 114.948 433.189 115.919 432.694 116.566C432.2 117.187 431.376 117.511 430.222 117.511C429.091 117.511 428.267 117.212 427.773 116.566C427.278 115.944 427.019 114.948 427.019 113.63V101.639H422.262V113.307C422.262 116.217 422.898 118.382 424.193 119.8C425.488 121.218 427.49 121.939 430.222 121.939C432.953 121.939 434.979 121.218 436.25 119.8C437.545 118.382 438.181 116.217 438.181 113.307V101.639ZM441.36 121.541H446.117V114.302H449.72C450.261 114.302 450.685 114.426 451.015 114.65C451.368 114.874 451.627 115.172 451.816 115.546C452.004 115.919 452.122 116.342 452.216 116.765C452.287 117.187 452.357 117.735 452.381 118.357C452.381 118.382 452.381 118.481 452.404 118.68C452.452 119.302 452.522 119.874 452.569 120.397C452.64 120.894 452.758 121.292 452.899 121.516H457.609C457.467 121.367 457.35 121.118 457.279 120.795C457.185 120.471 457.114 120.073 457.067 119.675C456.997 119.252 456.973 118.929 456.949 118.655C456.926 118.406 456.902 117.984 456.879 117.386L456.855 117.038C456.808 116.516 456.761 115.993 456.643 115.496C456.525 114.998 456.384 114.526 456.172 114.078C455.984 113.63 455.701 113.257 455.372 112.933C455.042 112.61 454.642 112.386 454.194 112.287V112.237C455.113 111.839 455.819 111.192 456.314 110.271C456.808 109.376 457.044 108.356 457.044 107.236C457.044 106.266 456.855 105.42 456.525 104.724C456.172 104.002 455.701 103.43 455.089 102.957C454.5 102.51 453.794 102.161 453.04 101.962C452.287 101.738 451.486 101.639 450.638 101.639H441.313V121.541H441.36ZM446.117 105.793H449.908C450.615 105.793 451.18 105.967 451.627 106.341C452.075 106.714 452.31 107.236 452.31 107.933C452.31 109.5 451.58 110.271 450.097 110.271H446.093V105.793H446.117ZM467.193 107.162H467.24L469.265 114.127H465.121L467.193 107.162ZM457.985 121.541H462.884L464.037 117.984H470.419L471.549 121.541H476.518L469.689 101.639H464.838L457.985 121.541ZM477.837 121.541H482.311V109.152H482.358L488.716 121.541H493.614V101.639H489.14V113.904H489.093L482.735 101.639H477.837V121.541ZM509.015 113.804C508.945 114.948 508.568 115.844 507.932 116.516C507.296 117.163 506.425 117.486 505.318 117.486C504.588 117.486 503.929 117.312 503.387 116.988C502.846 116.665 502.398 116.217 502.045 115.67C501.715 115.123 501.456 114.476 501.291 113.779C501.126 113.083 501.056 112.361 501.056 111.59C501.056 110.844 501.126 110.097 501.291 109.401C501.456 108.704 501.715 108.057 502.045 107.51C502.398 106.963 502.846 106.515 503.387 106.191C503.929 105.868 504.565 105.694 505.318 105.694C506.331 105.694 507.178 105.967 507.838 106.49C508.497 107.012 508.898 107.784 509.015 108.754H513.772C513.725 107.609 513.466 106.565 512.995 105.619C512.5 104.674 511.865 103.903 511.064 103.231C510.263 102.559 509.368 102.087 508.403 101.738C507.437 101.415 506.448 101.241 505.436 101.241C504.094 101.241 502.845 101.514 501.715 102.037C500.585 102.559 499.619 103.306 498.819 104.251C498.018 105.196 497.406 106.316 496.958 107.585C496.535 108.828 496.323 110.197 496.323 111.615C496.323 112.958 496.511 114.227 496.888 115.396C497.264 116.59 497.806 117.635 498.513 118.581C499.219 119.526 500.067 120.272 501.056 120.845C502.045 121.417 503.152 121.79 504.353 121.914L503.105 124.128L503.67 124.651C504.07 124.526 504.4 124.452 504.682 124.452C505.412 124.452 505.789 124.8 505.789 125.522C505.789 126.168 505.365 126.492 504.494 126.492C503.858 126.417 503.152 126.243 502.398 125.969L501.904 127.213C502.422 127.462 502.916 127.661 503.411 127.835C503.929 128.009 504.423 128.084 504.918 128.084C505.907 128.084 506.707 127.885 507.296 127.437C507.885 126.989 508.191 126.318 508.191 125.372C508.191 124.601 507.979 124.029 507.532 123.681C507.084 123.332 506.59 123.133 506.001 123.133C505.601 123.133 505.247 123.183 504.988 123.283L504.941 123.233L505.742 121.914C506.849 121.889 507.885 121.69 508.85 121.317C509.816 120.944 510.64 120.397 511.37 119.7C512.077 119.004 512.665 118.158 513.066 117.163C513.489 116.167 513.725 115.073 513.796 113.829H509.015V113.804ZM523.662 107.162H523.71L525.735 114.127H521.59L523.662 107.162ZM514.431 121.541H519.33L520.483 117.984H526.865L527.995 121.541H532.964L526.111 101.639H521.26L514.431 121.541ZM542.407 121.541H550.272C553.098 121.541 555.288 120.67 556.866 118.954C558.444 117.212 559.221 114.749 559.221 111.515C559.221 108.43 558.444 106.017 556.842 104.276C555.241 102.534 553.051 101.664 550.249 101.664H542.384V121.541H542.407ZM547.164 106.092H549.425C551.073 106.092 552.321 106.54 553.169 107.435C554.04 108.331 554.464 109.674 554.464 111.466C554.464 113.456 554.064 114.874 553.287 115.72C552.509 116.566 551.214 117.013 549.401 117.063H547.14V106.092H547.164ZM561.858 121.541H576.694V117.088H566.615V113.307H575.587V109.301H566.615V105.818H576.435V101.664H561.858V121.541ZM602.691 101.639H597.723L594.143 116.441H594.096L590.517 101.639H585.548L591.317 121.541H596.804L602.691 101.639ZM604.057 121.541H618.893V117.088H608.814V113.307H617.786V109.301H608.814V105.818H618.634V101.664H604.057V121.541ZM621.601 121.541H626.358V114.302H629.961C630.479 114.302 630.926 114.426 631.279 114.65C631.609 114.874 631.868 115.172 632.08 115.546C632.268 115.919 632.41 116.342 632.48 116.765C632.551 117.187 632.598 117.735 632.645 118.357C632.645 118.382 632.645 118.481 632.669 118.68C632.716 119.302 632.786 119.874 632.833 120.397C632.904 120.894 633.022 121.292 633.187 121.516H637.896C637.755 121.367 637.637 121.118 637.567 120.795C637.473 120.471 637.402 120.073 637.355 119.675C637.308 119.252 637.261 118.929 637.237 118.655C637.214 118.406 637.19 117.984 637.166 117.386L637.143 117.038C637.096 116.516 637.025 115.993 636.931 115.496C636.813 114.998 636.672 114.526 636.46 114.078C636.248 113.63 635.989 113.257 635.659 112.933C635.33 112.61 634.929 112.386 634.482 112.287V112.237C635.4 111.839 636.107 111.192 636.601 110.271C637.096 109.376 637.355 108.356 637.355 107.236C637.355 106.266 637.19 105.42 636.837 104.724C636.484 104.002 636.013 103.43 635.4 102.957C634.788 102.51 634.105 102.161 633.352 101.962C632.598 101.738 631.797 101.639 630.95 101.639H621.624V121.541H621.601ZM626.381 105.793H630.172C630.879 105.793 631.444 105.967 631.892 106.341C632.339 106.714 632.574 107.236 632.574 107.933C632.574 109.5 631.844 110.271 630.361 110.271H626.358V105.793H626.381ZM640.11 121.541H647.975C650.801 121.541 652.991 120.67 654.569 118.954C656.147 117.212 656.947 114.749 656.947 111.515C656.947 108.43 656.147 106.017 654.569 104.276C652.968 102.534 650.801 101.664 647.975 101.664H640.11V121.541ZM644.867 106.092H647.127C648.776 106.092 650.024 106.54 650.872 107.435C651.743 108.331 652.167 109.674 652.167 111.466C652.167 113.456 651.79 114.874 650.989 115.72C650.212 116.566 648.917 117.013 647.104 117.063H644.843V106.092H644.867ZM666.885 107.162H666.932L668.957 114.127H664.812L666.885 107.162ZM657.677 121.541H662.575L663.729 117.984H670.111L671.241 121.541H676.21L669.381 101.639H664.53L657.677 121.541ZM677.576 121.541H685.441C688.267 121.541 690.457 120.67 692.035 118.954C693.612 117.212 694.413 114.749 694.413 111.515C694.413 108.43 693.612 106.017 692.035 104.276C690.433 102.534 688.267 101.664 685.441 101.664H677.576V121.541ZM682.333 106.092H684.593C686.242 106.092 687.49 106.54 688.337 107.435C689.209 108.331 689.633 109.674 689.633 111.466C689.633 113.456 689.256 114.874 688.455 115.72C687.678 116.566 686.383 117.013 684.57 117.063H682.309V106.092H682.333ZM697.027 121.541H711.862V117.088H701.807V113.307H710.756V109.301H701.807V105.818H711.603V101.664H697.027V121.541Z" fill="#000200"/>
<path d="M618.635 146.892C618.87 146.917 618.965 146.693 619.035 146.569C619.247 146.046 619.506 145.549 619.742 145.051C619.906 144.653 620.118 144.305 620.307 143.907C620.33 143.857 620.377 143.807 620.377 143.758C620.377 143.235 620.754 142.862 620.919 142.389C621.06 142.016 621.272 141.668 621.437 141.295C621.626 140.872 621.838 140.474 622.026 140.051C622.049 140.001 622.073 139.976 622.073 139.926C622.096 139.379 622.45 138.956 622.662 138.484C622.826 138.11 622.991 137.737 623.156 137.389C623.345 137.016 623.533 136.642 623.698 136.269C623.816 135.996 623.957 135.722 624.051 135.423C624.145 135.075 624.216 134.627 624.663 134.478C624.687 134.478 624.71 134.453 624.734 134.453C625.181 134.503 625.629 134.304 626.029 134.18C626.406 134.055 626.783 134.08 627.112 133.956C627.418 133.856 627.725 133.881 627.984 133.732C628.266 133.558 628.596 133.657 628.831 133.508C629.114 133.334 629.467 133.433 629.703 133.284C630.056 133.085 630.433 133.209 630.739 133.06C631.092 132.886 631.516 133.01 631.846 132.712C631.916 132.637 632.058 132.662 632.152 132.662C632.646 132.687 633.047 132.413 633.541 132.413C633.565 132.413 633.635 132.413 633.635 132.388C633.871 132.065 634.177 132.189 634.483 132.189C634.624 132.189 634.742 132.189 634.836 132.065C634.883 131.99 635.001 131.965 635.072 131.965C635.496 132.04 635.872 131.791 636.273 131.766C636.814 131.742 637.285 131.393 637.827 131.493C637.874 131.493 637.945 131.493 637.968 131.468C638.157 131.219 638.416 131.294 638.651 131.269C638.84 131.269 639.004 131.294 639.169 131.12C639.334 130.946 639.57 131.07 639.781 131.045C639.946 131.045 640.088 131.045 640.205 130.896C640.37 130.722 640.606 130.821 640.818 130.821C640.982 130.821 641.147 130.846 641.265 130.672C641.312 130.597 641.43 130.597 641.548 130.597C641.783 130.597 642.019 130.597 642.254 130.597C642.372 130.597 642.442 130.572 642.537 130.498C642.749 130.299 643.031 130.398 643.29 130.373C643.408 130.373 643.526 130.398 643.62 130.249C643.691 130.149 643.832 130.149 643.95 130.149C644.256 130.125 644.538 130.199 644.821 129.975C645.009 129.826 645.315 129.95 645.551 129.925C645.716 129.925 645.904 129.975 646.022 129.776C646.069 129.702 646.187 129.702 646.257 129.702C646.469 129.702 646.705 129.702 646.917 129.702C647.034 129.702 647.152 129.727 647.246 129.577C647.317 129.478 647.435 129.453 647.529 129.478C647.788 129.503 648.047 129.428 648.306 129.478C648.33 129.478 648.353 129.478 648.353 129.478C648.706 129.105 649.13 129.304 649.531 129.254C649.601 129.254 649.648 129.254 649.719 129.179C649.813 129.055 649.978 129.005 650.119 129.03C650.378 129.055 650.614 128.98 650.873 129.03C650.896 129.03 650.967 129.03 650.967 129.005C651.179 128.682 651.509 128.831 651.768 128.806C652.074 128.781 652.356 128.806 652.663 128.632C652.875 128.507 653.228 128.582 653.51 128.582C653.628 128.582 653.746 128.607 653.84 128.458C653.911 128.358 654.028 128.358 654.123 128.358C654.382 128.358 654.641 128.358 654.9 128.358C655.064 128.358 655.229 128.383 655.347 128.209C655.371 128.159 655.465 128.134 655.488 128.159C655.771 128.284 656.03 128.109 656.289 128.134C656.501 128.159 656.713 128.184 656.878 127.96C656.925 127.885 657.019 127.91 657.113 127.91C657.349 127.91 657.584 127.91 657.82 127.91C658.008 127.91 658.22 127.96 658.385 127.761C658.456 127.686 658.55 127.686 658.644 127.686C658.974 127.686 659.28 127.686 659.609 127.686C659.798 127.686 660.01 127.736 660.127 127.512C660.175 127.438 660.269 127.463 660.363 127.463C660.645 127.463 660.928 127.463 661.211 127.463C661.352 127.463 661.517 127.512 661.611 127.313C661.658 127.214 661.776 127.239 661.846 127.239C662.153 127.239 662.459 127.239 662.765 127.239C662.977 127.239 663.212 127.313 663.354 127.065C663.401 126.99 663.518 127.015 663.613 127.015C664.06 127.015 664.507 127.015 664.955 127.015C665.073 127.015 665.167 127.015 665.214 126.89C665.261 126.791 665.379 126.791 665.473 126.791C665.756 126.791 666.038 126.791 666.321 126.791C666.556 126.791 666.792 126.816 666.956 126.617C667.027 126.542 667.121 126.567 667.216 126.567C667.592 126.567 667.969 126.567 668.346 126.567C668.558 126.567 668.77 126.617 668.911 126.393C668.958 126.318 669.076 126.343 669.17 126.343C669.688 126.343 670.206 126.343 670.724 126.343C670.819 126.343 670.936 126.368 670.983 126.219C671.054 126.094 671.172 126.119 671.289 126.119C671.808 126.119 672.302 126.119 672.82 126.119C672.938 126.119 673.056 126.144 673.126 125.995C673.173 125.87 673.315 125.895 673.409 125.895C673.998 125.895 674.61 125.895 675.198 125.895C675.316 125.895 675.41 125.895 675.458 125.771C675.505 125.646 675.646 125.671 675.74 125.671C676.329 125.671 676.918 125.671 677.506 125.671C677.624 125.671 677.742 125.696 677.812 125.547C677.86 125.423 678.001 125.447 678.095 125.447C678.825 125.447 679.555 125.447 680.285 125.447C680.403 125.447 680.497 125.472 680.568 125.323C680.615 125.199 680.756 125.224 680.874 125.224C681.674 125.224 682.475 125.224 683.299 125.224C683.393 125.224 683.511 125.248 683.558 125.099C683.605 124.975 683.747 125 683.864 125C684.877 125 685.913 125 686.926 125C687.043 125 687.138 125.025 687.208 124.875C687.255 124.751 687.42 124.776 687.514 124.776C688.668 124.776 689.799 124.776 690.952 124.776C691.094 124.776 691.212 124.776 691.306 124.626C691.376 124.502 691.541 124.527 691.659 124.527C693.708 124.527 695.733 124.527 697.782 124.527C697.923 124.527 698.064 124.527 698.182 124.378C698.253 124.278 698.394 124.303 698.512 124.303C703.127 124.303 707.766 124.303 712.382 124.303C712.688 124.303 712.923 124.527 712.923 124.85C712.923 126.244 712.923 127.637 712.923 129.005C710.192 129.005 707.484 129.005 704.752 129.005C704.611 129.005 704.469 129.005 704.375 129.105C704.257 129.229 704.14 129.229 703.975 129.229C702.562 129.229 701.149 129.229 699.736 129.229C699.618 129.229 699.477 129.204 699.406 129.304C699.312 129.453 699.171 129.453 699.03 129.453C698.182 129.453 697.334 129.453 696.486 129.453C696.369 129.453 696.251 129.428 696.18 129.527C696.086 129.677 695.945 129.677 695.803 129.677C695.097 129.677 694.391 129.677 693.684 129.677C693.566 129.677 693.449 129.652 693.378 129.751C693.284 129.901 693.166 129.901 693.025 129.901C692.46 129.901 691.871 129.901 691.306 129.901C691.188 129.901 691.07 129.901 691 130C690.929 130.125 690.811 130.124 690.693 130.124C690.105 130.124 689.54 130.124 688.951 130.124C688.833 130.124 688.715 130.125 688.645 130.224C688.574 130.348 688.48 130.348 688.362 130.348C687.915 130.348 687.467 130.348 687.02 130.348C686.926 130.348 686.832 130.324 686.761 130.398C686.643 130.622 686.431 130.572 686.266 130.572C685.937 130.572 685.631 130.572 685.301 130.572C685.207 130.572 685.089 130.547 685.042 130.622C684.901 130.821 684.712 130.796 684.547 130.796C684.241 130.796 683.911 130.796 683.605 130.796C683.511 130.796 683.417 130.771 683.346 130.846C683.181 131.07 682.97 131.02 682.758 131.02C682.451 131.02 682.169 131.02 681.863 131.02C681.769 131.02 681.651 130.995 681.604 131.07C681.462 131.269 681.251 131.244 681.062 131.244C680.827 131.244 680.568 131.244 680.332 131.244C680.238 131.244 680.12 131.244 680.05 131.319C679.932 131.493 679.79 131.443 679.649 131.468C679.225 131.518 678.778 131.294 678.401 131.667C678.378 131.692 678.283 131.692 678.213 131.692C678.001 131.692 677.765 131.692 677.53 131.692C677.436 131.692 677.318 131.667 677.271 131.742C677.129 131.966 676.941 131.916 676.729 131.916C676.494 131.916 676.235 131.916 675.999 131.916C675.929 131.916 675.811 131.891 675.764 131.965C675.599 132.189 675.363 132.14 675.151 132.14C674.845 132.165 674.516 132.04 674.28 132.364C674.233 132.413 674.162 132.413 674.092 132.388C673.809 132.364 673.503 132.264 673.244 132.438C672.891 132.662 672.538 132.563 672.161 132.587C672.067 132.587 671.949 132.563 671.902 132.637C671.69 132.911 671.407 132.811 671.125 132.811C671.007 132.811 670.842 132.786 670.771 132.886C670.654 133.06 670.489 133.035 670.347 133.035C669.971 133.035 669.594 132.961 669.288 133.259C669.241 133.309 669.17 133.259 669.123 133.259C668.84 133.259 668.558 133.185 668.322 133.433C668.299 133.458 668.252 133.483 668.205 133.483C667.922 133.483 667.616 133.483 667.333 133.483C667.239 133.483 667.145 133.483 667.074 133.558C666.957 133.707 666.815 133.707 666.674 133.707C666.509 133.707 666.344 133.657 666.226 133.806C666.109 133.931 665.991 133.956 665.826 133.931C665.285 133.881 664.79 134.279 664.225 134.18C664.201 134.18 664.131 134.204 664.107 134.254C663.989 134.403 663.848 134.403 663.707 134.403C663.471 134.403 663.212 134.354 663.024 134.503C662.883 134.627 662.741 134.627 662.576 134.627C662.388 134.627 662.153 134.553 662.035 134.677C661.776 134.926 661.493 134.851 661.211 134.851C661.093 134.851 660.952 134.826 660.857 134.951C660.763 135.075 660.645 135.075 660.528 135.075C660.386 135.075 660.198 135.001 660.08 135.125C659.845 135.374 659.562 135.274 659.303 135.299C659.185 135.299 659.021 135.274 658.95 135.374C658.832 135.548 658.667 135.523 658.526 135.523C658.385 135.523 658.197 135.473 658.102 135.598C657.985 135.747 657.843 135.747 657.702 135.747C657.184 135.672 656.736 136.045 656.218 136.045C656.195 136.045 656.148 136.095 656.124 136.12C656.054 136.195 655.983 136.195 655.912 136.195C655.653 136.195 655.394 136.145 655.206 136.394C655.182 136.419 655.088 136.419 655.017 136.419C654.688 136.444 654.405 136.419 654.075 136.593C653.816 136.742 653.44 136.692 653.133 136.842C652.898 136.941 652.639 136.916 652.38 137.041C652.097 137.165 651.721 137.165 651.414 137.289C651.179 137.389 650.92 137.389 650.661 137.488C650.378 137.613 650.025 137.638 649.719 137.712C649.389 137.787 649.06 137.886 648.73 137.936C648.589 137.961 648.4 137.911 648.353 137.986C648.118 138.284 647.741 138.16 647.435 138.359C647.199 138.508 646.823 138.483 646.493 138.608C646.257 138.707 645.951 138.558 645.739 138.832C645.716 138.857 645.645 138.857 645.621 138.857C645.362 138.857 645.103 138.807 644.891 139.056C644.868 139.081 644.774 139.081 644.703 139.081C644.326 139.155 643.997 139.379 643.596 139.329C643.573 139.329 643.526 139.354 643.502 139.379C643.408 139.528 643.267 139.553 643.125 139.504C642.749 139.429 642.466 139.827 642.089 139.777C642.089 139.777 642.089 139.802 642.066 139.802C641.948 139.976 641.76 140.001 641.571 139.976C641.194 139.926 640.888 140.3 640.511 140.225C640.488 140.225 640.464 140.25 640.464 140.275C640.37 140.399 640.229 140.424 640.088 140.424C639.876 140.424 639.664 140.374 639.499 140.598C639.475 140.623 639.428 140.648 639.381 140.648C639.004 140.698 638.651 140.897 638.251 140.922C638.063 140.922 637.827 141.121 637.568 141.121C637.521 141.121 637.474 141.17 637.474 141.195C637.403 141.32 637.309 141.344 637.191 141.32C636.767 141.22 636.461 141.568 636.061 141.618C635.896 141.643 635.684 141.792 635.472 141.792C635.401 141.792 635.354 141.842 635.307 141.917C635.213 142.041 635.072 142.116 634.93 142.091C634.507 141.966 634.177 142.29 633.8 142.389C633.706 142.414 633.635 142.489 633.541 142.464C633.376 142.464 633.235 142.464 633.141 142.613C633.094 142.688 633.023 142.688 632.952 142.688C632.764 142.688 632.599 142.663 632.481 142.862C632.458 142.887 632.387 142.912 632.34 142.912C632.081 142.912 631.799 142.862 631.587 143.111C631.563 143.136 631.492 143.136 631.422 143.136C631.233 143.111 631.069 143.136 630.951 143.335C630.904 143.409 630.857 143.409 630.762 143.409C630.409 143.384 630.127 143.608 629.773 143.683C629.656 143.708 629.514 143.832 629.349 143.807C629.255 143.807 629.161 143.807 629.114 143.907C629.043 144.056 628.902 144.056 628.784 144.031C628.384 143.957 628.078 144.33 627.677 144.305C627.654 144.305 627.607 144.33 627.583 144.38C627.513 144.504 627.419 144.504 627.301 144.504C627.136 144.504 626.995 144.504 626.9 144.653C626.853 144.728 626.783 144.728 626.712 144.728C626.524 144.728 626.359 144.728 626.241 144.902C626.194 144.952 626.123 144.952 626.076 144.952C625.723 144.927 625.464 145.275 625.111 145.225C625.087 145.225 625.064 145.25 625.04 145.275C624.969 145.4 624.852 145.4 624.734 145.4C624.404 145.4 624.145 145.723 623.792 145.673C623.769 145.673 623.745 145.698 623.721 145.723C623.651 145.847 623.557 145.847 623.439 145.847C623.086 145.822 622.85 146.121 622.497 146.146C622.356 146.146 622.191 146.295 622.002 146.295C621.908 146.295 621.837 146.32 621.79 146.395C621.72 146.519 621.626 146.519 621.508 146.519C621.155 146.494 620.896 146.743 620.566 146.842C620.378 146.892 620.142 146.892 619.977 147.017C619.789 147.141 619.6 147.241 619.365 147.216C619.318 147.216 619.271 147.241 619.247 147.265C619.177 147.464 619.012 147.564 618.847 147.639C618.8 147.639 618.776 147.639 618.729 147.639C618.682 147.564 618.611 147.539 618.564 147.639C618.329 147.688 618.258 147.589 618.282 147.365C618.658 147.29 618.635 147.091 618.635 146.892Z" fill="#F5C500"/>
<path d="M619.178 147.739C619.343 147.664 619.484 147.564 619.578 147.365C619.602 147.34 619.649 147.291 619.696 147.316C619.931 147.34 620.12 147.241 620.308 147.117C620.473 147.017 620.708 146.992 620.897 146.942C621.226 146.868 621.486 146.619 621.839 146.619C621.956 146.619 622.051 146.619 622.121 146.495C622.168 146.42 622.239 146.395 622.333 146.395C622.522 146.395 622.71 146.246 622.828 146.246C623.181 146.221 623.417 145.922 623.77 145.947C623.887 145.947 623.982 145.947 624.052 145.823C624.076 145.798 624.099 145.773 624.123 145.773C624.476 145.823 624.735 145.5 625.065 145.5C625.183 145.5 625.3 145.499 625.371 145.375C625.395 145.35 625.418 145.325 625.442 145.325C625.795 145.375 626.054 145.027 626.407 145.052C626.478 145.052 626.548 145.052 626.572 145.002C626.69 144.828 626.878 144.803 627.043 144.828C627.114 144.828 627.184 144.828 627.231 144.753C627.325 144.579 627.49 144.604 627.632 144.604C627.749 144.604 627.844 144.604 627.914 144.48C627.938 144.455 627.961 144.405 628.008 144.405C628.409 144.455 628.715 144.057 629.115 144.131C629.233 144.156 629.351 144.131 629.445 144.007C629.492 143.932 629.586 143.907 629.68 143.907C629.845 143.907 629.987 143.808 630.104 143.783C630.434 143.708 630.74 143.484 631.093 143.509C631.187 143.509 631.235 143.509 631.282 143.435C631.399 143.236 631.564 143.236 631.753 143.236C631.8 143.236 631.87 143.236 631.918 143.211C632.13 142.962 632.388 143.012 632.671 143.012C632.718 143.012 632.789 143.012 632.812 142.962C632.93 142.763 633.095 142.788 633.283 142.788C633.354 142.788 633.425 142.788 633.472 142.713C633.566 142.564 633.731 142.564 633.872 142.564C633.966 142.564 634.061 142.489 634.131 142.489C634.508 142.39 634.838 142.066 635.261 142.191C635.379 142.216 635.544 142.141 635.638 142.017C635.685 141.967 635.732 141.892 635.803 141.892C636.015 141.892 636.227 141.743 636.392 141.718C636.792 141.668 637.098 141.32 637.522 141.42C637.616 141.444 637.734 141.42 637.805 141.295C637.828 141.27 637.875 141.221 637.899 141.221C638.134 141.221 638.37 141.021 638.582 141.021C638.982 140.997 639.335 140.798 639.712 140.748C639.759 140.748 639.806 140.723 639.83 140.698C639.995 140.474 640.207 140.524 640.419 140.524C640.56 140.524 640.701 140.499 640.795 140.375C640.819 140.35 640.842 140.325 640.842 140.325C641.243 140.4 641.525 140.026 641.902 140.076C642.091 140.101 642.255 140.076 642.397 139.902L642.42 139.877C642.797 139.927 643.056 139.529 643.456 139.603C643.598 139.628 643.739 139.628 643.833 139.479C643.857 139.454 643.904 139.404 643.927 139.429C644.328 139.479 644.657 139.255 645.034 139.181C645.105 139.181 645.175 139.18 645.222 139.156C645.411 138.907 645.693 138.957 645.952 138.957C646 138.957 646.07 138.957 646.07 138.932C646.282 138.658 646.588 138.807 646.824 138.708C647.13 138.559 647.53 138.608 647.766 138.459C648.072 138.26 648.449 138.409 648.684 138.086C648.755 138.011 648.943 138.061 649.061 138.036C649.391 137.962 649.72 137.887 650.05 137.812C650.356 137.738 650.709 137.688 650.992 137.588C651.251 137.489 651.51 137.489 651.745 137.389C652.075 137.265 652.428 137.265 652.711 137.14C652.97 137.016 653.229 137.041 653.464 136.942C653.771 136.792 654.147 136.842 654.406 136.693C654.736 136.494 655.019 136.543 655.348 136.519C655.419 136.519 655.513 136.543 655.537 136.494C655.725 136.22 656.008 136.295 656.243 136.295C656.337 136.295 656.408 136.27 656.455 136.22C656.479 136.195 656.526 136.145 656.549 136.145C657.067 136.17 657.515 135.772 658.033 135.847C658.174 135.872 658.315 135.872 658.433 135.698C658.527 135.573 658.716 135.623 658.857 135.623C659.022 135.623 659.163 135.648 659.281 135.474C659.352 135.374 659.516 135.399 659.634 135.399C659.893 135.374 660.176 135.474 660.411 135.225C660.505 135.101 660.694 135.175 660.859 135.175C660.976 135.175 661.094 135.175 661.188 135.051C661.259 134.926 661.424 134.951 661.542 134.951C661.824 134.926 662.107 135.026 662.366 134.777C662.484 134.653 662.719 134.752 662.907 134.727C663.072 134.727 663.214 134.727 663.355 134.603C663.543 134.454 663.802 134.503 664.038 134.503C664.203 134.503 664.344 134.503 664.438 134.354C664.462 134.329 664.509 134.28 664.556 134.28C665.121 134.379 665.592 133.981 666.157 134.031C666.298 134.031 666.44 134.031 666.557 133.906C666.675 133.757 666.864 133.807 667.005 133.807C667.17 133.807 667.311 133.807 667.405 133.658C667.452 133.583 667.57 133.583 667.664 133.583C667.947 133.583 668.253 133.583 668.536 133.583C668.583 133.583 668.63 133.583 668.653 133.533C668.889 133.284 669.171 133.359 669.454 133.359C669.501 133.359 669.572 133.409 669.619 133.359C669.925 133.036 670.302 133.135 670.678 133.135C670.843 133.135 670.985 133.16 671.102 132.986C671.173 132.862 671.338 132.911 671.456 132.911C671.715 132.886 672.021 133.011 672.233 132.737C672.28 132.663 672.398 132.712 672.492 132.687C672.845 132.663 673.222 132.762 673.575 132.538C673.81 132.389 674.14 132.463 674.423 132.488C674.493 132.488 674.587 132.513 674.611 132.463C674.846 132.165 675.176 132.264 675.482 132.24C675.694 132.24 675.93 132.289 676.095 132.065C676.142 131.991 676.236 132.016 676.33 132.016C676.566 132.016 676.825 132.016 677.06 132.016C677.249 132.016 677.46 132.065 677.602 131.841C677.649 131.767 677.767 131.792 677.861 131.792C678.096 131.792 678.308 131.792 678.544 131.792C678.614 131.792 678.685 131.817 678.732 131.767C679.109 131.394 679.556 131.618 679.98 131.568C680.121 131.543 680.286 131.593 680.38 131.419C680.428 131.319 680.545 131.344 680.663 131.344C680.898 131.344 681.157 131.344 681.393 131.344C681.581 131.344 681.793 131.394 681.935 131.17C681.982 131.095 682.1 131.12 682.194 131.12C682.5 131.12 682.782 131.12 683.089 131.12C683.3 131.12 683.512 131.17 683.677 130.946C683.724 130.871 683.842 130.896 683.936 130.896C684.242 130.896 684.572 130.896 684.878 130.896C685.067 130.896 685.255 130.946 685.373 130.722C685.42 130.647 685.538 130.672 685.632 130.672C685.962 130.672 686.268 130.672 686.597 130.672C686.786 130.672 686.974 130.722 687.092 130.498C687.139 130.424 687.257 130.448 687.351 130.448C687.798 130.448 688.246 130.448 688.693 130.448C688.811 130.448 688.905 130.448 688.976 130.324C689.046 130.2 689.164 130.224 689.282 130.224C689.871 130.224 690.436 130.224 691.024 130.224C691.142 130.224 691.26 130.249 691.331 130.1C691.401 129.976 691.519 130.001 691.637 130.001C692.202 130.001 692.791 130.001 693.356 130.001C693.497 130.001 693.615 130.001 693.709 129.851C693.78 129.752 693.897 129.777 694.015 129.777C694.722 129.777 695.428 129.777 696.134 129.777C696.276 129.777 696.417 129.802 696.511 129.627C696.582 129.528 696.7 129.553 696.817 129.553C697.665 129.553 698.513 129.553 699.361 129.553C699.502 129.553 699.643 129.578 699.737 129.404C699.808 129.304 699.949 129.329 700.067 129.329C701.48 129.329 702.893 129.329 704.306 129.329C704.447 129.329 704.588 129.329 704.706 129.204C704.8 129.105 704.942 129.105 705.083 129.105C707.814 129.105 710.523 129.105 713.254 129.105C713.254 130.324 713.254 131.568 713.278 132.787C713.278 132.936 713.207 132.936 713.089 132.936C712.642 132.936 712.195 132.936 711.747 132.936C711.653 132.936 711.559 132.886 711.535 133.061C711.535 133.21 711.394 133.16 711.323 133.16C710.546 133.16 709.769 133.16 708.992 133.16C708.898 133.16 708.756 133.11 708.756 133.309C708.756 133.434 708.639 133.384 708.568 133.384C707.932 133.384 707.273 133.384 706.637 133.384C706.543 133.384 706.425 133.334 706.402 133.508C706.378 133.633 706.26 133.608 706.166 133.608C705.672 133.608 705.201 133.608 704.706 133.608C704.612 133.608 704.471 133.558 704.447 133.757C704.447 133.882 704.329 133.832 704.235 133.832C703.741 133.832 703.222 133.832 702.728 133.832C702.634 133.832 702.516 133.782 702.493 133.981C702.493 134.105 702.375 134.056 702.304 134.056C701.857 134.056 701.433 134.056 700.985 134.056C700.891 134.056 700.797 134.031 700.774 134.205C700.774 134.329 700.656 134.28 700.585 134.28C700.208 134.28 699.855 134.28 699.478 134.28C699.384 134.28 699.266 134.23 699.266 134.404C699.266 134.528 699.149 134.503 699.078 134.503C698.701 134.503 698.324 134.503 697.948 134.503C697.853 134.503 697.759 134.479 697.759 134.628C697.759 134.752 697.641 134.727 697.571 134.727C697.194 134.727 696.841 134.727 696.464 134.727C696.37 134.727 696.252 134.678 696.229 134.877C696.229 135.001 696.111 134.951 696.04 134.951C695.663 134.951 695.287 134.951 694.91 134.951C694.839 134.951 694.722 134.902 694.769 135.076C694.792 135.15 694.674 135.175 694.58 135.175C694.368 135.175 694.18 135.175 693.968 135.175C693.85 135.175 693.662 135.101 693.662 135.349C693.662 135.424 693.568 135.399 693.497 135.399C693.238 135.399 693.002 135.399 692.743 135.399C692.602 135.399 692.39 135.3 692.367 135.573C692.367 135.623 692.249 135.598 692.202 135.598C691.919 135.598 691.637 135.598 691.354 135.598C691.283 135.598 691.095 135.474 691.142 135.747C691.166 135.797 691.024 135.822 690.93 135.822C690.695 135.822 690.436 135.822 690.2 135.822C690.035 135.822 689.847 135.722 689.776 135.996C689.753 136.071 689.659 136.046 689.612 136.046C689.4 136.046 689.211 136.046 688.999 136.046C688.882 136.046 688.764 136.021 688.693 136.195C688.67 136.27 688.552 136.295 688.458 136.295C688.269 136.295 688.104 136.295 687.916 136.295C687.798 136.295 687.704 136.27 687.633 136.419C687.61 136.494 687.469 136.519 687.374 136.519C687.186 136.519 686.998 136.519 686.809 136.519C686.739 136.519 686.621 136.494 686.621 136.643C686.621 136.742 686.527 136.742 686.432 136.742C686.244 136.742 686.079 136.742 685.891 136.742C685.726 136.742 685.585 136.718 685.443 136.892C685.302 137.066 685.043 136.941 684.855 136.966C684.713 136.991 684.478 136.842 684.431 137.165C684.431 137.215 684.313 137.19 684.266 137.19C684.054 137.19 683.866 137.19 683.654 137.19C683.536 137.19 683.395 137.14 683.395 137.364C683.395 137.464 683.277 137.414 683.206 137.414C682.994 137.414 682.782 137.414 682.57 137.414C682.453 137.414 682.311 137.364 682.288 137.563C682.288 137.663 682.194 137.613 682.147 137.613C681.982 137.613 681.817 137.613 681.652 137.613C681.605 137.613 681.511 137.613 681.511 137.638C681.464 137.937 681.252 137.812 681.087 137.837C680.875 137.837 680.687 137.837 680.498 138.011C680.333 138.161 680.098 138.036 679.886 138.061C679.745 138.086 679.58 138.011 679.533 138.235C679.509 138.335 679.438 138.285 679.368 138.285C679.227 138.285 679.062 138.285 678.92 138.285C678.873 138.285 678.803 138.285 678.803 138.285C678.591 138.708 678.214 138.409 677.931 138.509C677.814 138.534 677.625 138.459 677.602 138.683C677.602 138.758 677.507 138.733 677.437 138.733C677.296 138.733 677.131 138.733 676.989 138.733C676.942 138.733 676.848 138.733 676.848 138.758C676.754 139.081 676.495 138.932 676.283 138.957C676.142 138.981 675.93 138.857 675.883 139.156C675.883 139.205 675.741 139.181 675.647 139.181C675.435 139.23 675.153 139.056 675.011 139.379C674.988 139.454 674.752 139.404 674.611 139.404C674.446 139.404 674.234 139.33 674.187 139.603C674.164 139.653 674.093 139.628 674.046 139.628C673.787 139.678 673.481 139.479 673.292 139.827C673.245 139.902 673.01 139.827 672.845 139.852C672.704 139.877 672.515 139.753 672.468 140.026C672.468 140.101 672.35 140.051 672.303 140.076C672.068 140.126 671.762 139.927 671.573 140.275C671.55 140.325 671.314 140.275 671.197 140.3C671.032 140.3 670.843 140.225 670.749 140.474C670.726 140.574 670.537 140.499 670.419 140.499C670.302 140.499 670.16 140.474 670.113 140.648C670.09 140.748 670.019 140.723 669.972 140.723C669.807 140.723 669.642 140.723 669.477 140.723C669.43 140.723 669.336 140.723 669.336 140.748C669.242 141.071 668.959 140.922 668.771 140.947C668.63 140.972 668.465 140.897 668.371 141.121C668.324 141.22 668.159 141.171 668.041 141.171C667.923 141.171 667.782 141.146 667.735 141.32C667.711 141.419 667.617 141.395 667.57 141.395C667.429 141.395 667.264 141.395 667.123 141.395C667.075 141.395 666.981 141.395 666.981 141.42C666.887 141.718 666.652 141.594 666.44 141.619C666.393 141.619 666.322 141.619 666.322 141.643C666.181 141.992 665.898 141.793 665.686 141.842C665.592 141.867 665.451 141.793 665.427 141.992C665.427 142.066 665.309 142.066 665.239 142.066C665.074 142.066 664.909 142.066 664.744 142.066C664.65 142.066 664.579 142.041 664.556 142.191C664.532 142.315 664.414 142.29 664.344 142.29C664.179 142.315 663.944 142.191 663.849 142.489C663.826 142.564 663.661 142.514 663.543 142.514C663.426 142.514 663.284 142.464 663.261 142.663C663.237 142.738 663.143 142.738 663.072 142.738C662.907 142.738 662.743 142.738 662.578 142.738C662.531 142.738 662.436 142.738 662.436 142.763C662.389 143.086 662.154 142.937 661.989 142.962C661.895 142.987 661.777 142.937 661.73 143.086C661.683 143.236 661.542 143.161 661.447 143.186C661.306 143.211 661.118 143.136 661.047 143.36C661.024 143.459 660.929 143.41 660.859 143.41C660.623 143.46 660.341 143.26 660.152 143.609C660.129 143.659 659.917 143.634 659.799 143.634C659.705 143.634 659.611 143.609 659.587 143.758C659.587 143.833 659.493 143.858 659.422 143.858C659.281 143.858 659.116 143.858 658.975 143.858C658.881 143.858 658.763 143.833 658.739 144.007C658.716 144.156 658.574 144.081 658.48 144.081C658.315 144.106 658.127 144.007 658.033 144.256C657.986 144.355 657.821 144.28 657.703 144.305C657.585 144.305 657.468 144.28 657.397 144.455C657.35 144.604 657.209 144.504 657.114 144.529C656.973 144.554 656.785 144.455 656.738 144.703C656.714 144.778 656.573 144.728 656.502 144.753C656.361 144.753 656.196 144.703 656.102 144.927C656.055 145.052 655.89 144.977 655.772 144.977C655.654 144.977 655.513 144.952 655.466 145.126C655.419 145.276 655.301 145.176 655.207 145.201C654.995 145.251 654.713 145.052 654.548 145.4C654.524 145.45 654.312 145.425 654.194 145.425C654.077 145.425 653.983 145.4 653.935 145.574C653.912 145.723 653.794 145.649 653.723 145.649C653.559 145.674 653.37 145.574 653.276 145.848C653.252 145.947 653.088 145.873 652.97 145.873C652.852 145.873 652.711 145.848 652.64 146.022C652.593 146.171 652.452 146.072 652.358 146.097C652.216 146.121 652.075 146.072 651.981 146.271C651.934 146.395 651.792 146.32 651.698 146.32C651.557 146.32 651.416 146.296 651.345 146.495C651.298 146.619 651.157 146.544 651.062 146.569C650.945 146.594 650.78 146.47 650.756 146.719C650.733 146.818 650.568 146.768 650.474 146.793C650.332 146.818 650.168 146.719 650.097 146.967C650.05 147.092 649.885 147.017 649.767 147.017C649.626 147.017 649.485 146.992 649.438 147.166C649.438 147.191 649.391 147.216 649.391 147.216C649.014 147.117 648.755 147.515 648.378 147.465C648.19 147.44 648.166 147.54 648.19 147.689C638.44 147.739 628.809 147.739 619.178 147.739Z" fill="#449320"/>
<path d="M618.919 147.738C618.966 147.639 619.036 147.664 619.083 147.738C619.012 147.738 618.966 147.738 618.919 147.738Z" fill="#449320"/>
<path fill-rule="evenodd" clip-rule="evenodd" d="M155.201 32.5376V89.7395H173.123V35.5838C173.123 33.772 175.743 32.2787 177.42 32.2787H181.962C183.055 32.2787 182.867 32.7964 183.979 32.7964H185.242V22.0847L173.877 21.3481C164.53 20.6512 155.201 23.9762 155.201 32.5376Z" fill="#000200"/>
<path d="M155.201 32.5376V89.7395H173.123V35.5838C173.123 33.772 175.743 32.2787 177.42 32.2787H181.962C183.055 32.2787 182.867 32.7964 183.979 32.7964H185.242V22.0847L173.877 21.3481C164.53 20.6512 155.201 23.9762 155.201 32.5376Z" stroke="#000200" stroke-width="0.162"/>
<path fill-rule="evenodd" clip-rule="evenodd" d="M319.971 36.6191V89.7593H337.894V35.8426C337.894 33.6127 340.664 32.2787 342.945 32.2787L345.734 32.199L350.012 32.7964V22.1444L339.421 21.348C326.662 20.2928 319.971 24.3345 319.971 36.6191Z" fill="#000200"/>
<path d="M319.971 36.6191V89.7593H337.894V35.8426C337.894 33.6127 340.664 32.2787 342.945 32.2787L345.734 32.199L350.012 32.7964V22.1444L339.421 21.348C326.662 20.2928 319.971 24.3345 319.971 36.6191Z" stroke="#000200" stroke-width="0.162"/>
<path fill-rule="evenodd" clip-rule="evenodd" d="M403.5 40.1629C403.5 37.7936 405.158 34.3093 407.043 34.3093H408.815C411.359 34.3093 412.603 37.6941 412.603 40.4018V47.7686H403.519V40.1629H403.5ZM430.507 70.9241V67.3601H412.339V74.2292C412.339 76.2401 410.831 78.8085 408.796 78.8085H407.778C404.216 78.8085 403.481 75.0654 403.481 71.4418V61.7853H430.488V40.9394C430.469 40.9195 428.848 34.6478 428.132 33.1346C426.85 30.4069 425.776 29.073 423.722 27.1417C420.725 24.2945 414.563 21.3677 408.777 21.3677H406.515C395.773 21.3677 385.577 30.9644 385.577 41.696V70.9241C385.577 81.576 396.395 90.4957 407.778 90.4957H409.286C415.637 90.4957 420.198 87.7482 423.816 84.8015C425.23 83.6467 427.416 80.6999 428.188 79.0474C429.018 77.3749 430.281 71.3024 430.507 70.9241Z" fill="#000200"/>
<path d="M403.5 40.1629C403.5 37.7936 405.158 34.3093 407.043 34.3093H408.815C411.359 34.3093 412.603 37.6741 412.603 40.4018V47.7686H403.519V40.1629H403.5ZM430.507 70.9241V67.3601H412.339V74.2292C412.339 76.2401 410.831 78.8085 408.796 78.8085H407.778C404.216 78.8085 403.481 75.0654 403.481 71.4418V61.7853H430.488V40.9394C430.469 40.8996 428.848 34.6478 428.132 33.1346C426.85 30.4069 425.776 29.073 423.722 27.1417C420.725 24.2945 414.563 21.3677 408.777 21.3677H406.515C395.773 21.3677 385.577 30.9644 385.577 41.696V70.9241C385.577 81.576 396.395 90.4957 407.778 90.4957H409.286C415.637 90.4957 420.198 87.7482 423.816 84.8015C425.23 83.6467 427.416 80.7198 428.188 79.0474C429.018 77.3749 430.281 71.3024 430.507 70.9241Z" stroke="#000200" stroke-width="0.162"/>
<path fill-rule="evenodd" clip-rule="evenodd" d="M239.479 17.9034V89.4805H257.194V33.4732H264.431V22.423H257.194V18.899C257.194 17.0871 259.267 15.6337 260.926 15.6337L262.17 15.574L264.413 15.8925C264.413 13.3042 264.375 10.6761 264.431 8.08775C264.507 4.4641 263.357 5.10123 259.437 5.10123H252.709C244.322 5.10123 239.479 9.42172 239.479 17.9034Z" fill="#000200"/>
<path d="M239.479 17.9035V89.4806H257.194V33.4733H264.431V22.4231H257.194V18.919C257.194 17.1071 259.267 15.6537 260.926 15.6537L262.17 15.5939L264.413 15.9125C264.413 13.3242 264.375 10.6961 264.431 8.10777C264.507 4.48412 263.357 5.12125 259.437 5.12125H252.709C244.322 5.10134 239.479 9.42181 239.479 17.9035Z" stroke="#000200" stroke-width="0.162"/>
<path fill-rule="evenodd" clip-rule="evenodd" d="M209.084 79.2073H207.821C205.428 79.2073 204.033 77.6144 204.033 75.1456V69.0531C204.033 63.4185 208.386 60.4319 212.853 59.3966C212.853 65.1307 214.191 79.2073 209.084 79.2073ZM188.881 43.6079H205.032V39.805C205.032 37.6149 206.276 34.9669 208.311 34.9669H209.819C213.682 34.9669 212.834 41.816 212.834 45.8975C210.045 46.1365 197.248 51.8706 194.968 53.3041C189.804 56.5495 186.091 61.7659 186.091 70.0486V77.1764C186.091 83.6671 192.763 91.4122 199.717 91.4122H201.225C208.217 91.4122 209.084 88.8637 212.834 86.3351V90.3967H230.757V38.272C230.757 29.4916 221.371 22.2642 212.589 22.2642H207.802C197.361 22.2443 188.881 32.2989 188.881 43.6079Z" fill="#000200"/>
<path d="M209.084 79.2073H207.821C205.428 79.2073 204.033 77.6144 204.033 75.1456V69.0531C204.033 63.4185 208.386 60.4319 212.853 59.3966C212.853 65.1307 214.191 79.2073 209.084 79.2073ZM188.881 43.6079H205.032V39.805C205.032 37.6149 206.276 34.9669 208.311 34.9669H209.819C213.682 34.9669 212.834 41.816 212.834 45.8975C210.045 46.1365 197.248 51.8706 194.968 53.3041C189.804 56.5495 186.091 61.7659 186.091 70.0486V77.1764C186.091 83.6671 192.763 91.4122 199.717 91.4122H201.225C208.217 91.4122 209.084 88.8637 212.834 86.3351V90.3967H230.757V38.272C230.757 29.4916 221.371 22.2642 212.589 22.2642H207.802C197.361 22.2443 188.881 32.3188 188.881 43.6079Z" stroke="#000200" stroke-width="0.162"/>
<path fill-rule="evenodd" clip-rule="evenodd" d="M356.573 77.0563C356.573 86.9517 360.059 89.4803 369.954 89.4803L374.759 89.54L381.563 89.2215V78.0718H379.301C376.512 78.0718 374.496 77.3152 374.496 74.5078V31.3824H381.563V19.9739H374.496V5.00146H356.573V77.0563Z" fill="#000200"/>
<path d="M356.573 77.0571C356.573 86.9525 360.059 89.4811 369.954 89.4811L374.759 89.5409L381.563 89.2223V78.0527H379.301C376.512 78.0527 374.496 77.2961 374.496 74.4888V31.3634H381.563V19.9548H374.496V4.98242H356.573V77.0571Z" stroke="#000200" stroke-width="0.162"/>
<path fill-rule="evenodd" clip-rule="evenodd" d="M286.67 43.4677C286.67 39.1074 286.613 34.309 290.967 34.309H291.721C295.056 34.309 295.509 39.7047 295.509 43.2089V71.4216C295.509 74.8063 294.925 78.7884 291.721 78.7884H290.213C286.896 78.7884 286.67 72.9547 286.67 69.3908V43.4677ZM268.747 43.4677V70.665C268.747 81.9939 279.094 90.4955 290.458 90.4955H293.473C304.385 90.4955 313.413 80.7993 313.413 69.1319V42.6913C313.413 29.9488 303.782 21.3276 291.193 21.3276C277.661 21.3475 268.747 29.6899 268.747 43.4677Z" fill="#000200"/>
<path d="M286.67 43.4677C286.67 39.1074 286.613 34.309 290.967 34.309H291.721C295.056 34.309 295.509 39.7047 295.509 43.2089V71.4216C295.509 74.8063 294.925 78.7884 291.721 78.7884H290.213C286.896 78.7884 286.67 72.9547 286.67 69.3908V43.4677ZM268.747 43.4677V70.665C268.747 81.9939 279.094 90.4955 290.458 90.4955H293.473C304.385 90.4955 313.413 80.7993 313.413 69.1319V42.6913C313.413 29.9488 303.782 21.3276 291.193 21.3276C277.661 21.3675 268.747 29.6899 268.747 43.4677Z" stroke="#000200" stroke-width="0.162"/>
<path fill-rule="evenodd" clip-rule="evenodd" d="M25.7271 22.6822L25.7459 89.7596H43.6687V33.3142C44.8937 33.2147 45.2518 32.8165 46.7029 32.8165H48.9834C50.9999 32.8165 52.7715 35.4447 52.7715 37.8936V89.5007H70.4493V34.0708C71.6743 33.7921 72.6919 32.7966 74.4823 32.7966H76.0088C77.5731 32.7966 79.0243 35.2854 79.0243 37.3759V89.7397H97.1921V38.1325C97.1921 26.5846 86.8266 21.1094 75.2362 21.1094C70.5246 21.1094 62.9862 23.5981 62.1946 23.5384C58.5573 23.2398 54.5807 21.1094 48.7384 21.1094C41.2187 21.1094 33.5294 21.9655 25.7271 22.6822Z" fill="#000200"/>
<path d="M25.7271 22.6822L25.7459 89.7596H43.6687V33.3142C44.8937 33.2147 45.2518 32.8165 46.7029 32.8165H48.9834C50.9999 32.8165 52.7715 35.4447 52.7715 37.8936V89.5007H70.4493V34.0708C71.6743 33.7722 72.6919 32.7966 74.4823 32.7966H76.0088C77.5731 32.7966 79.0243 35.2854 79.0243 37.3759V89.7397H97.1921V38.1325C97.1921 26.5846 86.8266 21.1094 75.2362 21.1094C70.5246 21.1094 62.9862 23.5981 62.1946 23.5384C58.5573 23.2398 54.5807 21.1094 48.7384 21.1094C41.2187 21.1094 33.5294 21.9655 25.7271 22.6822Z" stroke="#000200" stroke-width="0.162"/>
<path fill-rule="evenodd" clip-rule="evenodd" d="M121.636 41.019C121.636 37.913 122.22 32.7364 124.915 32.7364H127.441C129.627 32.7364 130.72 37.7139 130.72 40.2425V45.678C130.72 51.9497 130.456 58.1616 130.475 64.0749C130.475 70.1873 131.983 78.0518 126.178 78.0518C123.125 78.0518 121.636 74.6472 121.636 71.581V41.019ZM103.713 89.7391H121.636V85.339C123.427 85.8367 125.443 90.5156 131.229 90.5156H132.492C141.632 90.5156 148.398 82.014 148.398 72.8951V37.6542C148.398 29.3516 141.594 20.0337 133.773 20.0337H131.248C125.518 20.0337 124.011 24.175 121.9 24.9515V5.00146H103.732V89.7391H103.713Z" fill="#000200"/>
<path d="M121.636 41.019C121.636 37.913 122.22 32.7364 124.915 32.7364H127.441C129.627 32.7364 130.72 37.7139 130.72 40.2425V45.678C130.72 51.9497 130.456 58.1616 130.475 64.0749C130.475 70.1873 131.983 78.0518 126.178 78.0518C123.125 78.0518 121.636 74.6472 121.636 71.581V41.019ZM103.713 89.7391H121.636V85.339C123.427 85.8367 125.443 90.5156 131.229 90.5156H132.492C141.632 90.5156 148.398 82.014 148.398 72.8951V37.6542C148.398 29.3516 141.594 20.0337 133.773 20.0337H131.248C125.518 20.0337 124.011 24.175 121.9 24.9515V5.00146H103.732V89.7391H103.713Z" stroke="#000200" stroke-width="0.162"/>
<path d="M18.9228 5.02148H1V89.7591H18.9228V5.02148Z" fill="#000200"/>
<path d="M18.9228 5.02148H1V89.7392H18.9228V5.02148Z" stroke="#000200" stroke-width="0.162"/>
<path fill-rule="evenodd" clip-rule="evenodd" d="M155.201 32.5376V89.7395H173.123V35.5838C173.123 33.772 175.743 32.2787 177.42 32.2787H181.962C183.055 32.2787 182.867 32.7964 183.979 32.7964H185.242V22.0847L173.877 21.3481C164.53 20.6512 155.201 23.9762 155.201 32.5376Z" fill="#000200"/>
<path d="M155.201 32.5376V89.7395H173.123V35.5838C173.123 33.772 175.743 32.2787 177.42 32.2787H181.962C183.055 32.2787 182.867 32.7964 183.979 32.7964H185.242V22.0847L173.877 21.3481C164.53 20.6512 155.201 23.9762 155.201 32.5376Z" stroke="#000200" stroke-width="0.162"/>
<path fill-rule="evenodd" clip-rule="evenodd" d="M319.971 36.6191V89.7593H337.894V35.8426C337.894 33.6127 340.664 32.2787 342.945 32.2787L345.734 32.199L350.012 32.7964V22.1444L339.421 21.348C326.662 20.2928 319.971 24.3345 319.971 36.6191Z" fill="#000200"/>
<path d="M319.971 36.6191V89.7593H337.894V35.8426C337.894 33.6127 340.664 32.2787 342.945 32.2787L345.734 32.199L350.012 32.7964V22.1444L339.421 21.348C326.662 20.2928 319.971 24.3345 319.971 36.6191Z" stroke="#000200" stroke-width="0.162"/>
<path fill-rule="evenodd" clip-rule="evenodd" d="M403.5 40.1629C403.5 37.7936 405.158 34.3093 407.043 34.3093H408.815C411.359 34.3093 412.603 37.6941 412.603 40.4018V47.7686H403.519V40.1629H403.5ZM430.507 70.9241V67.3601H412.339V74.2292C412.339 76.2401 410.831 78.8085 408.796 78.8085H407.778C404.216 78.8085 403.481 75.0654 403.481 71.4418V61.7853H430.488V40.9394C430.469 40.9195 428.848 34.6478 428.132 33.1346C426.85 30.4069 425.776 29.073 423.722 27.1417C420.725 24.2945 414.563 21.3677 408.777 21.3677H406.515C395.773 21.3677 385.577 30.9644 385.577 41.696V70.9241C385.577 81.576 396.395 90.4957 407.778 90.4957H409.286C415.637 90.4957 420.198 87.7482 423.816 84.8015C425.23 83.6467 427.416 80.6999 428.188 79.0474C429.018 77.3749 430.281 71.3024 430.507 70.9241Z" fill="#000200"/>
<path d="M403.5 40.1629C403.5 37.7936 405.158 34.3093 407.043 34.3093H408.815C411.359 34.3093 412.603 37.6741 412.603 40.4018V47.7686H403.519V40.1629H403.5ZM430.507 70.9241V67.3601H412.339V74.2292C412.339 76.2401 410.831 78.8085 408.796 78.8085H407.778C404.216 78.8085 403.481 75.0654 403.481 71.4418V61.7853H430.488V40.9394C430.469 40.8996 428.848 34.6478 428.132 33.1346C426.85 30.4069 425.776 29.073 423.722 27.1417C420.725 24.2945 414.563 21.3677 408.777 21.3677H406.515C395.773 21.3677 385.577 30.9644 385.577 41.696V70.9241C385.577 81.576 396.395 90.4957 407.778 90.4957H409.286C415.637 90.4957 420.198 87.7482 423.816 84.8015C425.23 83.6467 427.416 80.7198 428.188 79.0474C429.018 77.3749 430.281 71.3024 430.507 70.9241Z" stroke="#000200" stroke-width="0.162"/>
<path fill-rule="evenodd" clip-rule="evenodd" d="M239.479 17.9034V89.4805H257.194V33.4732H264.431V22.423H257.194V18.899C257.194 17.0871 259.267 15.6337 260.926 15.6337L262.17 15.574L264.413 15.8925C264.413 13.3042 264.375 10.6761 264.431 8.08775C264.507 4.4641 263.357 5.10123 259.437 5.10123H252.709C244.322 5.10123 239.479 9.42172 239.479 17.9034Z" fill="#000200"/>
<path d="M239.479 17.9035V89.4806H257.194V33.4733H264.431V22.4231H257.194V18.919C257.194 17.1071 259.267 15.6537 260.926 15.6537L262.17 15.5939L264.413 15.9125C264.413 13.3242 264.375 10.6961 264.431 8.10777C264.507 4.48412 263.357 5.12125 259.437 5.12125H252.709C244.322 5.10134 239.479 9.42181 239.479 17.9035Z" stroke="#000200" stroke-width="0.162"/>
<path fill-rule="evenodd" clip-rule="evenodd" d="M209.084 79.2073H207.821C205.428 79.2073 204.033 77.6144 204.033 75.1456V69.0531C204.033 63.4185 208.386 60.4319 212.853 59.3966C212.853 65.1307 214.191 79.2073 209.084 79.2073ZM188.881 43.6079H205.032V39.805C205.032 37.6149 206.276 34.9669 208.311 34.9669H209.819C213.682 34.9669 212.834 41.816 212.834 45.8975C210.045 46.1365 197.248 51.8706 194.968 53.3041C189.804 56.5495 186.091 61.7659 186.091 70.0486V77.1764C186.091 83.6671 192.763 91.4122 199.717 91.4122H201.225C208.217 91.4122 209.084 88.8637 212.834 86.3351V90.3967H230.757V38.272C230.757 29.4916 221.371 22.2642 212.589 22.2642H207.802C197.361 22.2443 188.881 32.2989 188.881 43.6079Z" fill="#000200"/>
<path d="M209.084 79.2073H207.821C205.428 79.2073 204.033 77.6144 204.033 75.1456V69.0531C204.033 63.4185 208.386 60.4319 212.853 59.3966C212.853 65.1307 214.191 79.2073 209.084 79.2073ZM188.881 43.6079H205.032V39.805C205.032 37.6149 206.276 34.9669 208.311 34.9669H209.819C213.682 34.9669 212.834 41.816 212.834 45.8975C210.045 46.1365 197.248 51.8706 194.968 53.3041C189.804 56.5495 186.091 61.7659 186.091 70.0486V77.1764C186.091 83.6671 192.763 91.4122 199.717 91.4122H201.225C208.217 91.4122 209.084 88.8637 212.834 86.3351V90.3967H230.757V38.272C230.757 29.4916 221.371 22.2642 212.589 22.2642H207.802C197.361 22.2443 188.881 32.3188 188.881 43.6079Z" stroke="#000200" stroke-width="0.162"/>
<path fill-rule="evenodd" clip-rule="evenodd" d="M356.573 77.0563C356.573 86.9517 360.059 89.4803 369.954 89.4803L374.759 89.54L381.563 89.2215V78.0718H379.301C376.512 78.0718 374.496 77.3152 374.496 74.5078V31.3824H381.563V19.9739H374.496V5.00146H356.573V77.0563Z" fill="#000200"/>
<path d="M356.573 77.0571C356.573 86.9525 360.059 89.4811 369.954 89.4811L374.759 89.5409L381.563 89.2223V78.0527H379.301C376.512 78.0527 374.496 77.2961 374.496 74.4888V31.3634H381.563V19.9548H374.496V4.98242H356.573V77.0571Z" stroke="#000200" stroke-width="0.162"/>
<path fill-rule="evenodd" clip-rule="evenodd" d="M286.67 43.4677C286.67 39.1074 286.613 34.309 290.967 34.309H291.721C295.056 34.309 295.509 39.7047 295.509 43.2089V71.4216C295.509 74.8063 294.925 78.7884 291.721 78.7884H290.213C286.896 78.7884 286.67 72.9547 286.67 69.3908V43.4677ZM268.747 43.4677V70.665C268.747 81.9939 279.094 90.4955 290.458 90.4955H293.473C304.385 90.4955 313.413 80.7993 313.413 69.1319V42.6913C313.413 29.9488 303.782 21.3276 291.193 21.3276C277.661 21.3475 268.747 29.6899 268.747 43.4677Z" fill="#000200"/>
<path d="M286.67 43.4677C286.67 39.1074 286.613 34.309 290.967 34.309H291.721C295.056 34.309 295.509 39.7047 295.509 43.2089V71.4216C295.509 74.8063 294.925 78.7884 291.721 78.7884H290.213C286.896 78.7884 286.67 72.9547 286.67 69.3908V43.4677ZM268.747 43.4677V70.665C268.747 81.9939 279.094 90.4955 290.458 90.4955H293.473C304.385 90.4955 313.413 80.7993 313.413 69.1319V42.6913C313.413 29.9488 303.782 21.3276 291.193 21.3276C277.661 21.3675 268.747 29.6899 268.747 43.4677Z" stroke="#000200" stroke-width="0.162"/>
<path fill-rule="evenodd" clip-rule="evenodd" d="M25.7271 22.6822L25.7459 89.7596H43.6687V33.3142C44.8937 33.2147 45.2518 32.8165 46.7029 32.8165H48.9834C50.9999 32.8165 52.7715 35.4447 52.7715 37.8936V89.5007H70.4493V34.0708C71.6743 33.7921 72.6919 32.7966 74.4823 32.7966H76.0088C77.5731 32.7966 79.0243 35.2854 79.0243 37.3759V89.7397H97.1921V38.1325C97.1921 26.5846 86.8266 21.1094 75.2362 21.1094C70.5246 21.1094 62.9862 23.5981 62.1946 23.5384C58.5573 23.2398 54.5807 21.1094 48.7384 21.1094C41.2187 21.1094 33.5294 21.9655 25.7271 22.6822Z" fill="#000200"/>
<path d="M25.7271 22.6822L25.7459 89.7596H43.6687V33.3142C44.8937 33.2147 45.2518 32.8165 46.7029 32.8165H48.9834C50.9999 32.8165 52.7715 35.4447 52.7715 37.8936V89.5007H70.4493V34.0708C71.6743 33.7722 72.6919 32.7966 74.4823 32.7966H76.0088C77.5731 32.7966 79.0243 35.2854 79.0243 37.3759V89.7397H97.1921V38.1325C97.1921 26.5846 86.8266 21.1094 75.2362 21.1094C70.5246 21.1094 62.9862 23.5981 62.1946 23.5384C58.5573 23.2398 54.5807 21.1094 48.7384 21.1094C41.2187 21.1094 33.5294 21.9655 25.7271 22.6822Z" stroke="#000200" stroke-width="0.162"/>
<path fill-rule="evenodd" clip-rule="evenodd" d="M121.636 41.019C121.636 37.913 122.22 32.7364 124.915 32.7364H127.441C129.627 32.7364 130.72 37.7139 130.72 40.2425V45.678C130.72 51.9497 130.456 58.1616 130.475 64.0749C130.475 70.1873 131.983 78.0518 126.178 78.0518C123.125 78.0518 121.636 74.6472 121.636 71.581V41.019ZM103.713 89.7391H121.636V85.339C123.427 85.8367 125.443 90.5156 131.229 90.5156H132.492C141.632 90.5156 148.398 82.014 148.398 72.8951V37.6542C148.398 29.3516 141.594 20.0337 133.773 20.0337H131.248C125.518 20.0337 124.011 24.175 121.9 24.9515V5.00146H103.732V89.7391H103.713Z" fill="#000200"/>
<path d="M121.636 41.019C121.636 37.913 122.22 32.7364 124.915 32.7364H127.441C129.627 32.7364 130.72 37.7139 130.72 40.2425V45.678C130.72 51.9497 130.456 58.1616 130.475 64.0749C130.475 70.1873 131.983 78.0518 126.178 78.0518C123.125 78.0518 121.636 74.6472 121.636 71.581V41.019ZM103.713 89.7391H121.636V85.339C123.427 85.8367 125.443 90.5156 131.229 90.5156H132.492C141.632 90.5156 148.398 82.014 148.398 72.8951V37.6542C148.398 29.3516 141.594 20.0337 133.773 20.0337H131.248C125.518 20.0337 124.011 24.175 121.9 24.9515V5.00146H103.732V89.7391H103.713Z" stroke="#000200" stroke-width="0.162"/>
<path d="M18.9228 5.02148H1V89.7591H18.9228V5.02148Z" fill="#000200"/>
<path d="M18.9228 5.02148H1V89.7392H18.9228V5.02148Z" stroke="#000200" stroke-width="0.162"/>
<path fill-rule="evenodd" clip-rule="evenodd" d="M693.28 77.1366H691.999C689.587 77.1366 688.173 75.5239 688.173 73.0351V66.863C688.173 61.1687 692.583 58.1622 697.087 57.107C697.106 62.9208 698.444 77.1366 693.28 77.1366ZM672.889 41.1789H689.21V37.3362C689.21 35.1262 690.472 32.4582 692.527 32.4582H694.053C697.954 32.4582 697.106 39.387 697.106 43.4885C694.298 43.7274 681.37 49.5213 679.052 50.9747C673.831 54.24 670.1 59.5161 670.1 67.8784V75.066C670.1 81.6164 676.828 89.4411 683.857 89.4411H685.384C692.451 89.4411 693.299 86.8727 697.106 84.3043V88.4058H715.199V35.7832C715.199 26.9033 705.719 19.6162 696.861 19.6162H692.018C681.445 19.6162 672.889 29.7704 672.889 41.1789Z" fill="#000200"/>
<path d="M693.28 77.1366H691.999C689.587 77.1366 688.173 75.5438 688.173 73.0351V66.863C688.173 61.1886 692.583 58.1622 697.087 57.107C697.106 62.9208 698.444 77.1366 693.28 77.1366ZM672.889 41.1789H689.21V37.3362C689.21 35.1262 690.472 32.4582 692.527 32.4582H694.053C697.954 32.4582 697.106 39.387 697.106 43.4885C694.298 43.7274 681.37 49.5213 679.052 50.9747C673.831 54.24 670.1 59.5161 670.1 67.8784V75.066C670.1 81.6164 676.828 89.4411 683.857 89.4411H685.384C692.451 89.4411 693.299 86.8727 697.106 84.3043V88.4058H715.199V35.7832C715.199 26.9033 705.719 19.6162 696.861 19.6162H692.018C681.445 19.6162 672.889 29.7704 672.889 41.1789Z" stroke="#000200" stroke-width="0.162"/>
<path fill-rule="evenodd" clip-rule="evenodd" d="M556.193 16.052H538.194L538.006 2.37378L556.193 2.33398V16.052Z" fill="#000200"/>
<path d="M556.193 16.052H538.194L538.006 2.37378L556.193 2.33398V16.052Z" stroke="#000200" stroke-width="0.162"/>
<path fill-rule="evenodd" clip-rule="evenodd" d="M556.324 88.3268L538.137 88.2272L538.062 22.3047H556.361L556.324 88.3268Z" fill="#000200"/>
<path d="M556.324 88.3268L538.137 88.2272L538.062 22.3047H556.361L556.324 88.3268Z" stroke="#000200" stroke-width="0.162"/>
<path fill-rule="evenodd" clip-rule="evenodd" d="M529.205 88.4062L511.301 88.227V2.53369L529.205 2.57355V88.4062Z" fill="#000200"/>
<path d="M529.205 88.4062L511.301 88.227V2.53369L529.205 2.57355V88.4062Z" stroke="#000200" stroke-width="0.162"/>
<path fill-rule="evenodd" clip-rule="evenodd" d="M564.938 36.1223V88.2471H582.785V32.2796C584.029 32.0008 585.046 31.0054 586.856 31.0054H588.382C589.965 31.0054 591.435 33.5141 591.435 35.6245V88.5258H609.792V36.3811C609.792 24.7137 599.652 19.0593 587.742 19.119C581.956 18.9199 565.201 18.3425 565.164 21.1697C565.145 21.8666 565.145 21.767 565.145 22.3842C564.994 34.9077 565.314 31.3239 564.938 36.1223Z" fill="#000200"/>
<path d="M564.938 36.1223V88.2471H582.785V32.2796C584.029 32.0008 585.046 31.0054 586.856 31.0054H588.382C589.965 31.0054 591.435 33.5141 591.435 35.6245V88.5258H609.792V36.3811C609.792 24.7137 599.652 19.0593 587.742 19.119C581.956 18.9199 565.201 18.3425 565.164 21.1697C565.145 21.8666 565.145 21.767 565.145 22.3842C564.994 34.9077 565.314 31.3239 564.938 36.1223Z" stroke="#000200" stroke-width="0.162"/>
<path fill-rule="evenodd" clip-rule="evenodd" d="M643.922 39.0687C643.922 35.9428 643.319 30.7463 640.586 30.7463H638.023C635.8 30.7463 634.688 35.7637 634.688 38.2923V43.7675C634.688 50.0791 634.951 56.3308 634.951 62.264C634.951 68.4163 633.406 76.3206 639.324 76.3206C642.433 76.3206 643.96 72.916 643.96 69.81V39.0687H643.922ZM662.165 88.0278H643.922V83.6077C642.094 84.1055 640.04 88.8043 634.16 88.8043H632.878C623.55 88.8043 616.689 80.2628 616.689 71.1041V35.684C616.689 27.3417 623.625 17.9839 631.597 17.9839H634.16C640.002 17.9839 641.529 22.1451 643.677 22.9216V2.87207H662.184V88.0278H662.165Z" fill="#000200"/>
<path d="M643.922 39.0687C643.922 35.9428 643.319 30.7463 640.586 30.7463H638.023C635.8 30.7463 634.688 35.7637 634.688 38.2923V43.7675C634.688 50.0791 634.951 56.3308 634.951 62.264C634.951 68.4163 633.406 76.3206 639.324 76.3206C642.433 76.3206 643.96 72.916 643.96 69.81V39.0687H643.922ZM662.165 88.0278H643.922V83.6077C642.094 84.1055 640.04 88.8043 634.16 88.8043H632.878C623.55 88.8043 616.689 80.2628 616.689 71.1041V35.684C616.689 27.3417 623.625 17.9839 631.597 17.9839H634.16C640.002 17.9839 641.529 22.1451 643.677 22.9216V2.87207H662.184V88.0278H662.165Z" stroke="#000200" stroke-width="0.162"/>
<path fill-rule="evenodd" clip-rule="evenodd" d="M456.967 2.55371L482.334 2.57364L486.914 2.79262L489.118 3.03154L490.702 3.29038L492.586 3.74833L494.904 4.66418L496.092 5.32125L497.072 5.91853L497.901 6.51581L498.504 7.09322L499.107 7.94935L499.597 8.94485L500.219 10.5178L500.615 11.9115L501.086 14.5795L501.293 16.5705L501.369 17.4863L501.444 18.7606L501.519 24.0368L501.274 27.8396L500.784 31.1447L500.068 34.0914L499.164 36.5404L498.56 37.7151L497.882 38.7703L496.902 39.945L496.167 40.5821L495.639 40.9206L495.658 41.279L496.582 41.7369L497.618 42.5333L498.749 43.8275L499.352 44.8031L500.52 47.5706L501.387 50.9155L502.009 55.893L502.16 59.656L502.047 64.3548L501.859 66.9431L501.595 69.6111L500.992 73.6927L500.445 76.5399L499.804 79.2277L499.145 81.4377L498.824 82.1545L498.372 83.0704L497.354 84.4641L496.808 85.0415L495.734 85.9175L494.716 86.5149L493.943 86.8932L492.831 87.3312L491.55 87.6696L490.494 87.8887L488.817 88.0877L487.309 88.247L485.462 88.3068H483.521L479.073 88.3267H456.986V2.55371H456.967ZM476.322 48.4068L477 47.8294L477.83 47.3715L478.753 47.1326L479.601 47.0728L480.845 47.2918L481.58 47.6104L482.221 48.0285L482.73 48.5064L483.107 48.9842L483.408 49.5019L483.747 50.8159L483.766 52.1698V72.7569V73.5533L483.728 74.0113L483.389 75.0864L482.937 75.8032L482.522 76.281L481.674 76.9181L481.015 77.2168L480.242 77.4159L479.13 77.4557L478.338 77.3163L477.396 76.9381L476.887 76.6195L476.36 76.1416L475.945 75.624L475.587 75.0068L475.285 74.0312L475.229 73.5533V51.2141L475.285 50.5173L475.493 49.8005L475.851 49.0639L476.322 48.4068ZM476.68 13.4645L476.868 13.345L477.095 13.2057L477.434 13.0463L478.056 12.8274L478.32 12.7676L478.866 12.688H479.714L480.317 12.7676L480.807 12.907L481.674 13.2853L482.409 13.8029L483.238 14.8582L483.465 15.4356L483.597 16.4709V22.9417V25.9481V29.3727V31.8217L483.615 35.1068V35.9829L483.54 36.6996L483.257 37.4761L482.824 38.1133L482.409 38.5314L481.561 39.1088L480.619 39.487L479.79 39.6463L478.602 39.6264L477.547 39.3477L476.341 38.6708L475.794 38.1133L475.398 37.5159L475.097 36.5802L475.04 35.943V27.3219V25.2314V22.7227V20.6919V16.6899V16.1922L475.153 15.4754L475.361 14.9378L475.794 14.2808L476.416 13.6636L476.68 13.4645Z" fill="#000200"/>
<path d="M456.967 2.55371L482.334 2.57364L486.914 2.79262L489.118 3.03154L490.702 3.29038L492.586 3.74833L494.904 4.66418L496.092 5.32125L497.072 5.91853L497.901 6.51581L498.504 7.09322L499.107 7.94935L499.597 8.94485L500.219 10.5178L500.615 11.9115L501.086 14.5795L501.293 16.5705L501.369 17.4863L501.444 18.7606L501.519 24.0368L501.274 27.8396L500.784 31.1447L500.068 34.0914L499.164 36.5404L498.56 37.7151L497.882 38.7703L496.902 39.945L496.167 40.5821L495.639 40.9206L495.658 41.279L496.582 41.7369L497.618 42.5333L498.749 43.8275L499.352 44.8031L500.52 47.5706L501.387 50.9155L502.009 55.893L502.16 59.656L502.047 64.3549L501.859 66.9431L501.595 69.6111L500.992 73.6927L500.445 76.5399L499.804 79.2277L499.145 81.4377L498.824 82.1545L498.372 83.0704L497.354 84.4641L496.808 85.0415L495.734 85.9175L494.716 86.5149L493.943 86.8932L492.831 87.3113L491.55 87.6497L490.494 87.8687L488.817 88.0679L487.309 88.2072L485.462 88.2669H483.521L479.073 88.2868H456.986V2.55371H456.967ZM476.322 48.4267L477 47.8493L477.83 47.3914L478.753 47.1326L479.601 47.0729L480.845 47.2719L481.58 47.5905L482.221 48.0086L482.73 48.4865L483.107 48.9643L483.408 49.482L483.747 50.796L483.766 52.1499V72.737V73.5334L483.728 74.0113L483.389 75.0864L482.937 75.8032L482.522 76.281L481.674 76.9182L481.015 77.2168L480.242 77.4159L479.13 77.4557L478.338 77.3163L477.396 76.9381L476.887 76.6195L476.36 76.1416L475.945 75.624L475.587 75.0068L475.285 74.0312L475.229 73.5533V51.2141L475.285 50.5173L475.493 49.8005L475.851 49.0639L476.322 48.4267ZM476.68 13.4645L476.868 13.345L477.095 13.2057L477.434 13.0463L478.056 12.8274L478.32 12.7676L478.866 12.688H479.714L480.317 12.7676L480.807 12.907L481.674 13.2853L482.409 13.8029L483.238 14.8582L483.465 15.4356L483.597 16.4709V22.9417V25.9481V29.3727V31.8217L483.615 35.1068V35.9829L483.54 36.6996L483.257 37.4761L482.824 38.1133L482.409 38.5314L481.561 39.1088L480.619 39.487L479.79 39.6463L478.602 39.6264L477.547 39.3477L476.341 38.6708L475.794 38.1133L475.398 37.5159L475.097 36.5802L475.04 35.943V27.3219V25.2314V22.7227V20.6919V16.6899V16.1922L475.153 15.4754L475.361 14.9578L475.794 14.3007L476.416 13.7034L476.68 13.4645Z" stroke="#000200" stroke-width="0.162"/>
<path fill-rule="evenodd" clip-rule="evenodd" d="M795.898 41.4373C795.898 37.0372 795.842 32.1991 800.233 32.1991H801.005C804.36 32.1991 804.831 37.6544 804.831 41.1785V69.6899C804.831 73.0945 804.228 77.1362 801.005 77.1362H799.479C796.124 77.1362 795.898 71.2429 795.898 67.6391V41.4373ZM777.806 41.4373V68.9134C777.806 80.3418 788.265 88.9231 799.724 88.9231H802.777C813.783 88.9231 822.905 79.1472 822.905 67.3603V40.6609C822.905 27.7989 813.18 19.0981 800.478 19.0981C786.795 19.0981 777.806 27.5201 777.806 41.4373Z" fill="#000200"/>
<path d="M795.898 41.4373C795.898 37.0372 795.842 32.1991 800.233 32.1991H801.005C804.36 32.1991 804.831 37.6544 804.831 41.1785V69.6899C804.831 73.1144 804.228 77.1362 801.005 77.1362H799.479C796.124 77.1362 795.898 71.2429 795.898 67.6391V41.4373ZM777.806 41.4373V68.9134C777.806 80.3418 788.265 88.9231 799.724 88.9231H802.777C813.783 88.9231 822.905 79.1472 822.905 67.3603V40.6609C822.905 27.7989 813.18 19.0981 800.478 19.0981C786.795 19.0981 777.806 27.5201 777.806 41.4373Z" stroke="#000200" stroke-width="0.162"/>
<path fill-rule="evenodd" clip-rule="evenodd" d="M750.628 39.208C750.628 36.0622 750.044 30.8457 747.274 30.8457H744.692C742.468 30.8457 741.337 35.883 741.337 38.4315V43.9267C741.337 50.2581 741.601 56.5498 741.601 62.5029C741.601 68.695 740.056 76.6192 745.992 76.6192C749.121 76.6192 750.647 73.1748 750.647 70.0887V39.208H750.628ZM768.966 88.3662H750.628V83.9262C748.8 84.424 746.727 89.1626 740.828 89.1626H739.528C730.161 89.1626 723.264 80.5813 723.264 71.3828V35.8034C723.264 27.4212 730.218 18.0236 738.246 18.0236H740.828C746.69 18.0236 748.216 22.2047 750.383 23.0011V2.85205H768.966V88.3662Z" fill="#000200"/>
<path d="M750.628 39.2081C750.628 36.0623 750.044 30.8458 747.274 30.8458H744.692C742.468 30.8458 741.337 35.8831 741.337 38.4316V43.9268C741.337 50.2582 741.601 56.5499 741.601 62.503C741.601 68.6951 740.056 76.6193 745.992 76.6193C749.121 76.6193 750.647 73.1748 750.647 70.0688V39.2081H750.628ZM768.966 88.3862H750.628V83.9462C748.8 84.444 746.727 89.1826 740.828 89.1826H739.528C730.161 89.1826 723.264 80.6013 723.264 71.4028V35.8234C723.264 27.4412 730.218 18.0436 738.246 18.0436H740.828C746.69 18.0436 748.216 22.2247 750.383 23.0211V2.87207H768.966V88.3862Z" stroke="#000200" stroke-width="0.162"/>
<path fill-rule="evenodd" clip-rule="evenodd" d="M847.876 88.6838C844.276 88.6838 840.884 88.1662 837.699 87.1308C834.495 86.0955 831.857 84.9009 829.765 83.5072V66.5039H831.027C831.762 67.2406 832.573 68.037 833.515 68.9131C834.439 69.809 835.72 70.7248 837.379 71.6805C838.792 72.5765 840.394 73.3132 842.166 73.9702C843.956 74.5874 845.897 74.906 847.97 74.906C850.119 74.906 852.003 74.4679 853.643 73.5919C855.264 72.6959 856.093 71.3023 856.093 69.3909C856.093 67.8777 855.716 66.7627 854.962 66.0061C854.208 65.2296 852.757 64.493 850.571 63.7961C849.421 63.4178 847.951 63.0196 846.18 62.5617C844.408 62.1436 842.863 61.6259 841.487 61.0485C837.661 59.4756 834.797 57.1461 832.874 54.06C830.952 50.974 829.972 46.9123 829.972 41.895C829.972 39.0279 830.481 36.3002 831.48 33.7517C832.479 31.2231 833.93 28.9533 835.89 26.9424C837.831 24.9912 840.224 23.4382 843.089 22.2834C845.935 21.1287 849.157 20.5513 852.738 20.5513C856.168 20.5513 859.297 21.0092 862.161 21.9051C865.026 22.8011 867.438 23.8962 869.417 25.1505V41.4569H868.211C867.683 40.9393 866.873 40.2026 865.723 39.3066C864.593 38.4106 863.499 37.6341 862.425 36.997C861.163 36.2404 859.73 35.5834 858.147 35.0857C856.583 34.5879 854.962 34.349 853.322 34.349C851.136 34.349 849.252 34.8467 847.744 35.8423C846.218 36.8378 845.464 38.1518 845.464 39.8243C845.464 41.2777 845.84 42.4126 846.594 43.2688C847.348 44.105 848.988 44.9412 851.513 45.7376C852.814 46.1557 854.321 46.5738 855.999 46.972C857.695 47.3901 859.316 47.9277 860.899 48.6246C864.404 50.1179 867.061 52.3279 868.852 55.1949C870.661 58.1018 871.566 61.9445 871.566 66.7229C871.566 69.7493 871.038 72.6363 869.964 75.3839C868.871 78.1115 867.363 80.4211 865.384 82.3126C863.292 84.3434 860.842 85.9163 858.034 87.0312C855.169 88.1263 851.796 88.6838 847.876 88.6838Z" fill="#000200"/>
<path d="M847.876 88.6838C844.276 88.6838 840.884 88.1662 837.699 87.1308C834.495 86.0955 831.857 84.9009 829.765 83.5072V66.5039H831.027C831.762 67.2406 832.573 68.037 833.515 68.9131C834.439 69.7891 835.72 70.7248 837.379 71.6805C838.792 72.5765 840.394 73.3132 842.166 73.9702C843.956 74.5874 845.897 74.906 847.97 74.906C850.119 74.906 852.003 74.4679 853.643 73.5919C855.264 72.6959 856.093 71.3023 856.093 69.3909C856.093 67.8777 855.716 66.7627 854.962 66.0061C854.208 65.2296 852.757 64.493 850.571 63.7961C849.421 63.4178 847.951 63.0196 846.18 62.5617C844.408 62.1237 842.863 61.6259 841.487 61.0485C837.661 59.4756 834.797 57.1461 832.874 54.06C830.952 50.974 829.972 46.9123 829.972 41.895C829.972 39.0279 830.481 36.3002 831.48 33.7517C832.479 31.2231 833.93 28.9533 835.89 26.9424C837.831 24.9912 840.224 23.4382 843.089 22.2834C845.935 21.1287 849.157 20.5513 852.738 20.5513C856.168 20.5513 859.297 21.0092 862.161 21.9051C865.026 22.8011 867.438 23.8962 869.417 25.1505V41.4569H868.211C867.683 40.9194 866.873 40.2026 865.723 39.3066C864.593 38.4106 863.499 37.6341 862.425 36.997C861.163 36.2404 859.73 35.5834 858.147 35.0857C856.583 34.5879 854.962 34.349 853.322 34.349C851.136 34.349 849.252 34.8467 847.744 35.8423C846.218 36.8378 845.464 38.1518 845.464 39.8243C845.464 41.2777 845.84 42.4126 846.594 43.2688C847.348 44.105 848.988 44.9412 851.513 45.7376C852.814 46.1557 854.321 46.5738 855.999 46.972C857.695 47.3901 859.316 47.9277 860.899 48.6246C864.404 50.1179 867.061 52.3279 868.852 55.1949C870.661 58.1018 871.566 61.9445 871.566 66.7229C871.566 69.7493 871.038 72.6363 869.964 75.3839C868.871 78.1115 867.363 80.4211 865.384 82.3126C863.292 84.3434 860.842 85.9163 858.034 87.0312C855.169 88.1263 851.796 88.6838 847.876 88.6838Z" stroke="#000200" stroke-width="0.162"/>
<path fill-rule="evenodd" clip-rule="evenodd" d="M693.28 77.1366H691.999C689.587 77.1366 688.173 75.5239 688.173 73.0351V66.863C688.173 61.1687 692.583 58.1622 697.087 57.107C697.106 62.9208 698.444 77.1366 693.28 77.1366ZM672.889 41.1789H689.21V37.3362C689.21 35.1262 690.472 32.4582 692.527 32.4582H694.053C697.954 32.4582 697.106 39.387 697.106 43.4885C694.298 43.7274 681.37 49.5213 679.052 50.9747C673.831 54.24 670.1 59.5161 670.1 67.8784V75.066C670.1 81.6164 676.828 89.4411 683.857 89.4411H685.384C692.451 89.4411 693.299 86.8727 697.106 84.3043V88.4058H715.199V35.7832C715.199 26.9033 705.719 19.6162 696.861 19.6162H692.018C681.445 19.6162 672.889 29.7704 672.889 41.1789Z" fill="#000200"/>
<path d="M693.28 77.1366H691.999C689.587 77.1366 688.173 75.5438 688.173 73.0351V66.863C688.173 61.1886 692.583 58.1622 697.087 57.107C697.106 62.9208 698.444 77.1366 693.28 77.1366ZM672.889 41.1789H689.21V37.3362C689.21 35.1262 690.472 32.4582 692.527 32.4582H694.053C697.954 32.4582 697.106 39.387 697.106 43.4885C694.298 43.7274 681.37 49.5213 679.052 50.9747C673.831 54.24 670.1 59.5161 670.1 67.8784V75.066C670.1 81.6164 676.828 89.4411 683.857 89.4411H685.384C692.451 89.4411 693.299 86.8727 697.106 84.3043V88.4058H715.199V35.7832C715.199 26.9033 705.719 19.6162 696.861 19.6162H692.018C681.445 19.6162 672.889 29.7704 672.889 41.1789Z" stroke="#000200" stroke-width="0.162"/>
<path fill-rule="evenodd" clip-rule="evenodd" d="M556.193 16.052H538.194L538.006 2.37378L556.193 2.33398V16.052Z" fill="#000200"/>
<path d="M556.193 16.052H538.194L538.006 2.37378L556.193 2.33398V16.052Z" stroke="#000200" stroke-width="0.162"/>
<path fill-rule="evenodd" clip-rule="evenodd" d="M556.324 88.3268L538.137 88.2272L538.062 22.3047H556.361L556.324 88.3268Z" fill="#000200"/>
<path d="M556.324 88.3268L538.137 88.2272L538.062 22.3047H556.361L556.324 88.3268Z" stroke="#000200" stroke-width="0.162"/>
<path fill-rule="evenodd" clip-rule="evenodd" d="M529.205 88.4062L511.301 88.227V2.53369L529.205 2.57355V88.4062Z" fill="#000200"/>
<path d="M529.205 88.4062L511.301 88.227V2.53369L529.205 2.57355V88.4062Z" stroke="#000200" stroke-width="0.162"/>
<path fill-rule="evenodd" clip-rule="evenodd" d="M564.938 36.1223V88.2471H582.785V32.2796C584.029 32.0008 585.046 31.0054 586.856 31.0054H588.382C589.965 31.0054 591.435 33.5141 591.435 35.6245V88.5258H609.792V36.3811C609.792 24.7137 599.652 19.0593 587.742 19.119C581.956 18.9199 565.201 18.3425 565.164 21.1697C565.145 21.8666 565.145 21.767 565.145 22.3842C564.994 34.9077 565.314 31.3239 564.938 36.1223Z" fill="#000200"/>
<path d="M564.938 36.1223V88.2471H582.785V32.2796C584.029 32.0008 585.046 31.0054 586.856 31.0054H588.382C589.965 31.0054 591.435 33.5141 591.435 35.6245V88.5258H609.792V36.3811C609.792 24.7137 599.652 19.0593 587.742 19.119C581.956 18.9199 565.201 18.3425 565.164 21.1697C565.145 21.8666 565.145 21.767 565.145 22.3842C564.994 34.9077 565.314 31.3239 564.938 36.1223Z" stroke="#000200" stroke-width="0.162"/>
<path fill-rule="evenodd" clip-rule="evenodd" d="M643.922 39.0687C643.922 35.9428 643.319 30.7463 640.586 30.7463H638.023C635.8 30.7463 634.688 35.7637 634.688 38.2923V43.7675C634.688 50.0791 634.951 56.3308 634.951 62.264C634.951 68.4163 633.406 76.3206 639.324 76.3206C642.433 76.3206 643.96 72.916 643.96 69.81V39.0687H643.922ZM662.165 88.0278H643.922V83.6077C642.094 84.1055 640.04 88.8043 634.16 88.8043H632.878C623.55 88.8043 616.689 80.2628 616.689 71.1041V35.684C616.689 27.3417 623.625 17.9839 631.597 17.9839H634.16C640.002 17.9839 641.529 22.1451 643.677 22.9216V2.87207H662.184V88.0278H662.165Z" fill="#000200"/>
<path d="M643.922 39.0687C643.922 35.9428 643.319 30.7463 640.586 30.7463H638.023C635.8 30.7463 634.688 35.7637 634.688 38.2923V43.7675C634.688 50.0791 634.951 56.3308 634.951 62.264C634.951 68.4163 633.406 76.3206 639.324 76.3206C642.433 76.3206 643.96 72.916 643.96 69.81V39.0687H643.922ZM662.165 88.0278H643.922V83.6077C642.094 84.1055 640.04 88.8043 634.16 88.8043H632.878C623.55 88.8043 616.689 80.2628 616.689 71.1041V35.684C616.689 27.3417 623.625 17.9839 631.597 17.9839H634.16C640.002 17.9839 641.529 22.1451 643.677 22.9216V2.87207H662.184V88.0278H662.165Z" stroke="#000200" stroke-width="0.162"/>
<path fill-rule="evenodd" clip-rule="evenodd" d="M456.967 2.55371L482.334 2.57364L486.914 2.79262L489.118 3.03154L490.702 3.29038L492.586 3.74833L494.904 4.66418L496.092 5.32125L497.072 5.91853L497.901 6.51581L498.504 7.09322L499.107 7.94935L499.597 8.94485L500.219 10.5178L500.615 11.9115L501.086 14.5795L501.293 16.5705L501.369 17.4863L501.444 18.7606L501.519 24.0368L501.274 27.8396L500.784 31.1447L500.068 34.0914L499.164 36.5404L498.56 37.7151L497.882 38.7703L496.902 39.945L496.167 40.5821L495.639 40.9206L495.658 41.279L496.582 41.7369L497.618 42.5333L498.749 43.8275L499.352 44.8031L500.52 47.5706L501.387 50.9155L502.009 55.893L502.16 59.656L502.047 64.3548L501.859 66.9431L501.595 69.6111L500.992 73.6927L500.445 76.5399L499.804 79.2277L499.145 81.4377L498.824 82.1545L498.372 83.0704L497.354 84.4641L496.808 85.0415L495.734 85.9175L494.716 86.5149L493.943 86.8932L492.831 87.3312L491.55 87.6696L490.494 87.8887L488.817 88.0877L487.309 88.247L485.462 88.3068H483.521L479.073 88.3267H456.986V2.55371H456.967ZM476.322 48.4068L477 47.8294L477.83 47.3715L478.753 47.1326L479.601 47.0728L480.845 47.2918L481.58 47.6104L482.221 48.0285L482.73 48.5064L483.107 48.9842L483.408 49.5019L483.747 50.8159L483.766 52.1698V72.7569V73.5533L483.728 74.0113L483.389 75.0864L482.937 75.8032L482.522 76.281L481.674 76.9181L481.015 77.2168L480.242 77.4159L479.13 77.4557L478.338 77.3163L477.396 76.9381L476.887 76.6195L476.36 76.1416L475.945 75.624L475.587 75.0068L475.285 74.0312L475.229 73.5533V51.2141L475.285 50.5173L475.493 49.8005L475.851 49.0639L476.322 48.4068ZM476.68 13.4645L476.868 13.345L477.095 13.2057L477.434 13.0463L478.056 12.8274L478.32 12.7676L478.866 12.688H479.714L480.317 12.7676L480.807 12.907L481.674 13.2853L482.409 13.8029L483.238 14.8582L483.465 15.4356L483.597 16.4709V22.9417V25.9481V29.3727V31.8217L483.615 35.1068V35.9829L483.54 36.6996L483.257 37.4761L482.824 38.1133L482.409 38.5314L481.561 39.1088L480.619 39.487L479.79 39.6463L478.602 39.6264L477.547 39.3477L476.341 38.6708L475.794 38.1133L475.398 37.5159L475.097 36.5802L475.04 35.943V27.3219V25.2314V22.7227V20.6919V16.6899V16.1922L475.153 15.4754L475.361 14.9378L475.794 14.2808L476.416 13.6636L476.68 13.4645Z" fill="#000200"/>
<path d="M456.967 2.55371L482.334 2.57364L486.914 2.79262L489.118 3.03154L490.702 3.29038L492.586 3.74833L494.904 4.66418L496.092 5.32125L497.072 5.91853L497.901 6.51581L498.504 7.09322L499.107 7.94935L499.597 8.94485L500.219 10.5178L500.615 11.9115L501.086 14.5795L501.293 16.5705L501.369 17.4863L501.444 18.7606L501.519 24.0368L501.274 27.8396L500.784 31.1447L500.068 34.0914L499.164 36.5404L498.56 37.7151L497.882 38.7703L496.902 39.945L496.167 40.5821L495.639 40.9206L495.658 41.279L496.582 41.7369L497.618 42.5333L498.749 43.8275L499.352 44.8031L500.52 47.5706L501.387 50.9155L502.009 55.893L502.16 59.656L502.047 64.3549L501.859 66.9431L501.595 69.6111L500.992 73.6927L500.445 76.5399L499.804 79.2277L499.145 81.4377L498.824 82.1545L498.372 83.0704L497.354 84.4641L496.808 85.0415L495.734 85.9175L494.716 86.5149L493.943 86.8932L492.831 87.3113L491.55 87.6497L490.494 87.8687L488.817 88.0679L487.309 88.2072L485.462 88.2669H483.521L479.073 88.2868H456.986V2.55371H456.967ZM476.322 48.4267L477 47.8493L477.83 47.3914L478.753 47.1326L479.601 47.0729L480.845 47.2719L481.58 47.5905L482.221 48.0086L482.73 48.4865L483.107 48.9643L483.408 49.482L483.747 50.796L483.766 52.1499V72.737V73.5334L483.728 74.0113L483.389 75.0864L482.937 75.8032L482.522 76.281L481.674 76.9182L481.015 77.2168L480.242 77.4159L479.13 77.4557L478.338 77.3163L477.396 76.9381L476.887 76.6195L476.36 76.1416L475.945 75.624L475.587 75.0068L475.285 74.0312L475.229 73.5533V51.2141L475.285 50.5173L475.493 49.8005L475.851 49.0639L476.322 48.4267ZM476.68 13.4645L476.868 13.345L477.095 13.2057L477.434 13.0463L478.056 12.8274L478.32 12.7676L478.866 12.688H479.714L480.317 12.7676L480.807 12.907L481.674 13.2853L482.409 13.8029L483.238 14.8582L483.465 15.4356L483.597 16.4709V22.9417V25.9481V29.3727V31.8217L483.615 35.1068V35.9829L483.54 36.6996L483.257 37.4761L482.824 38.1133L482.409 38.5314L481.561 39.1088L480.619 39.487L479.79 39.6463L478.602 39.6264L477.547 39.3477L476.341 38.6708L475.794 38.1133L475.398 37.5159L475.097 36.5802L475.04 35.943V27.3219V25.2314V22.7227V20.6919V16.6899V16.1922L475.153 15.4754L475.361 14.9578L475.794 14.3007L476.416 13.7034L476.68 13.4645Z" stroke="#000200" stroke-width="0.162"/>
<path fill-rule="evenodd" clip-rule="evenodd" d="M795.898 41.4373C795.898 37.0372 795.842 32.1991 800.233 32.1991H801.005C804.36 32.1991 804.831 37.6544 804.831 41.1785V69.6899C804.831 73.0945 804.228 77.1362 801.005 77.1362H799.479C796.124 77.1362 795.898 71.2429 795.898 67.6391V41.4373ZM777.806 41.4373V68.9134C777.806 80.3418 788.265 88.9231 799.724 88.9231H802.777C813.783 88.9231 822.905 79.1472 822.905 67.3603V40.6609C822.905 27.7989 813.18 19.0981 800.478 19.0981C786.795 19.0981 777.806 27.5201 777.806 41.4373Z" fill="#000200"/>
<path d="M795.898 41.4373C795.898 37.0372 795.842 32.1991 800.233 32.1991H801.005C804.36 32.1991 804.831 37.6544 804.831 41.1785V69.6899C804.831 73.1144 804.228 77.1362 801.005 77.1362H799.479C796.124 77.1362 795.898 71.2429 795.898 67.6391V41.4373ZM777.806 41.4373V68.9134C777.806 80.3418 788.265 88.9231 799.724 88.9231H802.777C813.783 88.9231 822.905 79.1472 822.905 67.3603V40.6609C822.905 27.7989 813.18 19.0981 800.478 19.0981C786.795 19.0981 777.806 27.5201 777.806 41.4373Z" stroke="#000200" stroke-width="0.162"/>
<path fill-rule="evenodd" clip-rule="evenodd" d="M750.628 39.208C750.628 36.0622 750.044 30.8457 747.274 30.8457H744.692C742.468 30.8457 741.337 35.883 741.337 38.4315V43.9267C741.337 50.2581 741.601 56.5498 741.601 62.5029C741.601 68.695 740.056 76.6192 745.992 76.6192C749.121 76.6192 750.647 73.1748 750.647 70.0887V39.208H750.628ZM768.966 88.3662H750.628V83.9262C748.8 84.424 746.727 89.1626 740.828 89.1626H739.528C730.161 89.1626 723.264 80.5813 723.264 71.3828V35.8034C723.264 27.4212 730.218 18.0236 738.246 18.0236H740.828C746.69 18.0236 748.216 22.2047 750.383 23.0011V2.85205H768.966V88.3662Z" fill="#000200"/>
<path d="M750.628 39.2081C750.628 36.0623 750.044 30.8458 747.274 30.8458H744.692C742.468 30.8458 741.337 35.8831 741.337 38.4316V43.9268C741.337 50.2582 741.601 56.5499 741.601 62.503C741.601 68.6951 740.056 76.6193 745.992 76.6193C749.121 76.6193 750.647 73.1748 750.647 70.0688V39.2081H750.628ZM768.966 88.3862H750.628V83.9462C748.8 84.444 746.727 89.1826 740.828 89.1826H739.528C730.161 89.1826 723.264 80.6013 723.264 71.4028V35.8234C723.264 27.4412 730.218 18.0436 738.246 18.0436H740.828C746.69 18.0436 748.216 22.2247 750.383 23.0211V2.87207H768.966V88.3862Z" stroke="#000200" stroke-width="0.162"/>
<path fill-rule="evenodd" clip-rule="evenodd" d="M847.876 88.6838C844.276 88.6838 840.884 88.1662 837.699 87.1308C834.495 86.0955 831.857 84.9009 829.765 83.5072V66.5039H831.027C831.762 67.2406 832.573 68.037 833.515 68.9131C834.439 69.809 835.72 70.7248 837.379 71.6805C838.792 72.5765 840.394 73.3132 842.166 73.9702C843.956 74.5874 845.897 74.906 847.97 74.906C850.119 74.906 852.003 74.4679 853.643 73.5919C855.264 72.6959 856.093 71.3023 856.093 69.3909C856.093 67.8777 855.716 66.7627 854.962 66.0061C854.208 65.2296 852.757 64.493 850.571 63.7961C849.421 63.4178 847.951 63.0196 846.18 62.5617C844.408 62.1436 842.863 61.6259 841.487 61.0485C837.661 59.4756 834.797 57.1461 832.874 54.06C830.952 50.974 829.972 46.9123 829.972 41.895C829.972 39.0279 830.481 36.3002 831.48 33.7517C832.479 31.2231 833.93 28.9533 835.89 26.9424C837.831 24.9912 840.224 23.4382 843.089 22.2834C845.935 21.1287 849.157 20.5513 852.738 20.5513C856.168 20.5513 859.297 21.0092 862.161 21.9051C865.026 22.8011 867.438 23.8962 869.417 25.1505V41.4569H868.211C867.683 40.9393 866.873 40.2026 865.723 39.3066C864.593 38.4106 863.499 37.6341 862.425 36.997C861.163 36.2404 859.73 35.5834 858.147 35.0857C856.583 34.5879 854.962 34.349 853.322 34.349C851.136 34.349 849.252 34.8467 847.744 35.8423C846.218 36.8378 845.464 38.1518 845.464 39.8243C845.464 41.2777 845.84 42.4126 846.594 43.2688C847.348 44.105 848.988 44.9412 851.513 45.7376C852.814 46.1557 854.321 46.5738 855.999 46.972C857.695 47.3901 859.316 47.9277 860.899 48.6246C864.404 50.1179 867.061 52.3279 868.852 55.1949C870.661 58.1018 871.566 61.9445 871.566 66.7229C871.566 69.7493 871.038 72.6363 869.964 75.3839C868.871 78.1115 867.363 80.4211 865.384 82.3126C863.292 84.3434 860.842 85.9163 858.034 87.0312C855.169 88.1263 851.796 88.6838 847.876 88.6838Z" fill="#000200"/>
<path d="M847.876 88.6838C844.276 88.6838 840.884 88.1662 837.699 87.1308C834.495 86.0955 831.857 84.9009 829.765 83.5072V66.5039H831.027C831.762 67.2406 832.573 68.037 833.515 68.9131C834.439 69.7891 835.72 70.7248 837.379 71.6805C838.792 72.5765 840.394 73.3132 842.166 73.9702C843.956 74.5874 845.897 74.906 847.97 74.906C850.119 74.906 852.003 74.4679 853.643 73.5919C855.264 72.6959 856.093 71.3023 856.093 69.3909C856.093 67.8777 855.716 66.7627 854.962 66.0061C854.208 65.2296 852.757 64.493 850.571 63.7961C849.421 63.4178 847.951 63.0196 846.18 62.5617C844.408 62.1237 842.863 61.6259 841.487 61.0485C837.661 59.4756 834.797 57.1461 832.874 54.06C830.952 50.974 829.972 46.9123 829.972 41.895C829.972 39.0279 830.481 36.3002 831.48 33.7517C832.479 31.2231 833.93 28.9533 835.89 26.9424C837.831 24.9912 840.224 23.4382 843.089 22.2834C845.935 21.1287 849.157 20.5513 852.738 20.5513C856.168 20.5513 859.297 21.0092 862.161 21.9051C865.026 22.8011 867.438 23.8962 869.417 25.1505V41.4569H868.211C867.683 40.9194 866.873 40.2026 865.723 39.3066C864.593 38.4106 863.499 37.6341 862.425 36.997C861.163 36.2404 859.73 35.5834 858.147 35.0857C856.583 34.5879 854.962 34.349 853.322 34.349C851.136 34.349 849.252 34.8467 847.744 35.8423C846.218 36.8378 845.464 38.1518 845.464 39.8243C845.464 41.2777 845.84 42.4126 846.594 43.2688C847.348 44.105 848.988 44.9412 851.513 45.7376C852.814 46.1557 854.321 46.5738 855.999 46.972C857.695 47.3901 859.316 47.9277 860.899 48.6246C864.404 50.1179 867.061 52.3279 868.852 55.1949C870.661 58.1018 871.566 61.9445 871.566 66.7229C871.566 69.7493 871.038 72.6363 869.964 75.3839C868.871 78.1115 867.363 80.4211 865.384 82.3126C863.292 84.3434 860.842 85.9163 858.034 87.0312C855.169 88.1263 851.796 88.6838 847.876 88.6838Z" stroke="#000200" stroke-width="0.162"/>
<path fill-rule="evenodd" clip-rule="evenodd" d="M874.521 6.91332C874.521 4.26527 877.047 2.03531 879.61 2.03531C882.644 2.03531 884.962 4.34493 884.962 7.431V7.94862C884.962 9.84009 882.72 12.5678 880.891 12.5678H879.365C876.5 12.5678 874.521 10.3777 874.521 7.431V6.91332ZM873.259 6.65448V7.68984C873.259 10.9352 876.387 13.8421 879.629 13.8421H880.138C883.002 13.8421 885.999 11.0148 885.999 8.1876V6.13679C885.999 4.06614 882.946 1 880.891 1H878.592C876.368 1.01991 873.259 4.42454 873.259 6.65448Z" fill="#000200"/>
<path d="M874.521 6.91332C874.521 4.26527 877.047 2.03531 879.61 2.03531C882.644 2.03531 884.962 4.34493 884.962 7.431V7.94862C884.962 9.84009 882.72 12.5678 880.891 12.5678H879.365C876.5 12.5678 874.521 10.3777 874.521 7.431V6.91332ZM873.259 6.65448V7.68984C873.259 10.9352 876.387 13.8421 879.629 13.8421H880.138C883.002 13.8421 885.999 11.0148 885.999 8.1876V6.13679C885.999 4.06614 882.946 1 880.891 1H878.592C876.368 1.01991 873.259 4.44445 873.259 6.65448Z" stroke="#000200" stroke-width="0.162"/>
<path fill-rule="evenodd" clip-rule="evenodd" d="M876.558 11.5925V2.83203H880.12C881.024 2.83203 881.665 2.91166 882.061 3.07094C882.456 3.23022 882.796 3.50893 883.041 3.90714C883.286 4.30534 883.399 4.76328 883.399 5.28094C883.399 5.93798 883.21 6.47557 882.852 6.91359C882.475 7.3317 881.929 7.61043 881.194 7.70998C881.571 7.92899 881.872 8.18782 882.098 8.44665C882.325 8.70548 882.664 9.18337 883.06 9.86031L884.077 11.5726H882.061L880.836 9.6612C880.402 8.98425 880.101 8.56611 879.95 8.38692C879.78 8.20773 879.611 8.08828 879.441 8.02855C879.253 7.96882 878.97 7.92903 878.593 7.92903H878.254V11.5925H876.558ZM878.254 6.53529H879.498C880.308 6.53529 880.817 6.4955 881.024 6.43576C881.231 6.35612 881.382 6.23666 881.495 6.05747C881.608 5.89819 881.665 5.65923 881.665 5.4004C881.665 5.10175 881.59 4.86285 881.439 4.68366C881.288 4.50447 881.081 4.38498 880.798 4.34516C880.666 4.32525 880.251 4.30536 879.573 4.30536H878.254V6.53529Z" fill="#000200"/>
<path d="M876.558 11.5925V2.83203H880.12C881.024 2.83203 881.665 2.91166 882.061 3.07094C882.456 3.23022 882.796 3.50893 883.041 3.90714C883.286 4.30534 883.399 4.76328 883.399 5.28094C883.399 5.93798 883.21 6.47557 882.852 6.91359C882.475 7.3317 881.929 7.61043 881.194 7.70998C881.571 7.92899 881.872 8.18782 882.098 8.44665C882.325 8.70548 882.664 9.18337 883.06 9.86031L884.077 11.5726H882.061L880.836 9.6612C880.402 8.98425 880.101 8.56611 879.95 8.38692C879.78 8.20773 879.611 8.08828 879.441 8.02855C879.253 7.96882 878.97 7.92903 878.593 7.92903H878.254V11.5726H876.558V11.5925ZM878.254 6.53529H879.498C880.308 6.53529 880.817 6.51541 881.024 6.43576C881.231 6.35612 881.382 6.23666 881.495 6.05747C881.608 5.87828 881.665 5.65923 881.665 5.4004C881.665 5.10175 881.59 4.86285 881.439 4.68366C881.288 4.50447 881.081 4.38498 880.798 4.34516C880.666 4.32525 880.251 4.30536 879.573 4.30536H878.254V6.53529Z" stroke="#000200" stroke-width="0.162"/>
<path fill-rule="evenodd" clip-rule="evenodd" d="M874.521 6.91332C874.521 4.26527 877.047 2.03531 879.61 2.03531C882.644 2.03531 884.962 4.34493 884.962 7.431V7.94862C884.962 9.84009 882.72 12.5678 880.891 12.5678H879.365C876.5 12.5678 874.521 10.3777 874.521 7.431V6.91332ZM873.259 6.65448V7.68984C873.259 10.9352 876.387 13.8421 879.629 13.8421H880.138C883.002 13.8421 885.999 11.0148 885.999 8.1876V6.13679C885.999 4.06614 882.946 1 880.891 1H878.592C876.368 1.01991 873.259 4.42454 873.259 6.65448Z" fill="#000200"/>
<path fill-rule="evenodd" clip-rule="evenodd" d="M876.558 11.5925V2.83203H880.12C881.024 2.83203 881.665 2.91166 882.061 3.07094C882.456 3.23022 882.796 3.50893 883.041 3.90714C883.286 4.30534 883.399 4.76328 883.399 5.28094C883.399 5.93798 883.21 6.47557 882.852 6.91359C882.475 7.3317 881.929 7.61043 881.194 7.70998C881.571 7.92899 881.872 8.18782 882.098 8.44665C882.325 8.70548 882.664 9.18337 883.06 9.86031L884.077 11.5726H882.061L880.836 9.6612C880.402 8.98425 880.101 8.56611 879.95 8.38692C879.78 8.20773 879.611 8.08828 879.441 8.02855C879.253 7.96882 878.97 7.92903 878.593 7.92903H878.254V11.5925H876.558ZM878.254 6.53529H879.498C880.308 6.53529 880.817 6.4955 881.024 6.43576C881.231 6.35612 881.382 6.23666 881.495 6.05747C881.608 5.89819 881.665 5.65923 881.665 5.4004C881.665 5.10175 881.59 4.86285 881.439 4.68366C881.288 4.50447 881.081 4.38498 880.798 4.34516C880.666 4.32525 880.251 4.30536 879.573 4.30536H878.254V6.53529Z" fill="#000200"/>
<path d="M874.521 6.91332C874.521 4.26527 877.047 2.03531 879.61 2.03531C882.644 2.03531 884.962 4.34493 884.962 7.431V7.94862C884.962 9.84009 882.72 12.5678 880.891 12.5678H879.365C876.5 12.5678 874.521 10.3777 874.521 7.431V6.91332ZM873.259 6.65448V7.68984C873.259 10.9352 876.387 13.8421 879.629 13.8421H880.138C883.002 13.8421 885.999 11.0148 885.999 8.1876V6.13679C885.999 4.06614 882.946 1 880.891 1H878.592C876.368 1.01991 873.259 4.44445 873.259 6.65448Z" stroke="#000200" stroke-width="0.162"/>
<path d="M876.557 11.5925V2.83203H880.119C881.023 2.83203 881.664 2.91166 882.06 3.07094C882.455 3.23022 882.795 3.50893 883.04 3.90714C883.285 4.30534 883.398 4.76328 883.398 5.28094C883.398 5.93798 883.209 6.47557 882.851 6.91359C882.474 7.3317 881.928 7.61043 881.193 7.70998C881.57 7.92899 881.871 8.18782 882.097 8.44665C882.324 8.70548 882.663 9.18337 883.059 9.86031L884.076 11.5726H882.06L880.835 9.6612C880.401 8.98425 880.1 8.56611 879.949 8.38692C879.779 8.20773 879.61 8.08828 879.44 8.02855C879.252 7.96882 878.969 7.92903 878.592 7.92903H878.253V11.5726H876.557V11.5925ZM878.253 6.53529H879.497C880.307 6.53529 880.816 6.51541 881.023 6.43576C881.231 6.35612 881.381 6.23666 881.494 6.05747C881.607 5.87828 881.664 5.65923 881.664 5.4004C881.664 5.10175 881.589 4.86285 881.438 4.68366C881.287 4.50447 881.08 4.38498 880.797 4.34516C880.665 4.32525 880.25 4.30536 879.572 4.30536H878.253V6.53529Z" stroke="#000200" stroke-width="0.162"/>
</svg>
