<svg width="1172" height="195" viewBox="0 0 1172 195" fill="none" xmlns="http://www.w3.org/2000/svg">
<path fill-rule="evenodd" clip-rule="evenodd" d="M234.069 159.904H254.025V153.939H240.468V148.873H252.536V143.507H240.468V138.841H253.676V133.275H234.069V159.904ZM257.604 159.904H263.654V143.307H263.717L272.27 159.904H278.858V133.242H272.808V149.673H272.745L264.193 133.242H257.604V159.904ZM302.71 133.242H281.614V139.208H288.963V159.904H295.361V139.208H302.71V133.242ZM305.529 159.904H311.927V150.206H316.773C317.502 150.206 318.072 150.373 318.515 150.672C318.991 150.972 319.339 151.372 319.592 151.872C319.846 152.372 320.004 152.939 320.131 153.505C320.226 154.072 320.289 154.805 320.353 155.638C320.353 155.672 320.353 155.805 320.384 156.072C320.448 156.905 320.543 157.671 320.606 158.371C320.701 159.038 320.86 159.571 321.05 159.871H327.385C327.195 159.671 327.036 159.338 326.941 158.904C326.814 158.471 326.719 157.938 326.656 157.405C326.561 156.838 326.529 156.405 326.498 156.038C326.466 155.705 326.434 155.138 326.403 154.338L326.371 153.872C326.339 153.172 326.244 152.472 326.086 151.806C325.927 151.139 325.737 150.506 325.452 149.906C325.199 149.306 324.819 148.806 324.375 148.373C323.932 147.94 323.394 147.64 322.792 147.506V147.44C324.027 146.906 324.977 146.04 325.642 144.807C326.308 143.607 326.656 142.24 326.656 140.741C326.656 139.441 326.434 138.308 325.928 137.375C325.452 136.408 324.819 135.642 323.995 135.008C323.172 134.408 322.253 133.942 321.24 133.675C320.226 133.375 319.149 133.242 318.009 133.242H305.465V159.904H305.529ZM311.927 138.808H317.027C317.977 138.808 318.737 139.041 319.339 139.541C319.941 140.041 320.258 140.741 320.258 141.674C320.258 143.774 319.276 144.807 317.28 144.807H311.927V138.808ZM330.394 159.904H350.349V153.939H336.792V148.873H348.86V143.507H336.792V138.841H350.001V133.275H330.394V159.904ZM376.703 145.307H366.345V150.439H370.811C370.653 151.672 370.051 152.639 369.037 153.372C368.024 154.105 366.757 154.472 365.173 154.472C364.191 154.472 363.304 154.238 362.576 153.805C361.847 153.372 361.245 152.772 360.77 152.039C360.327 151.272 359.978 150.439 359.757 149.506C359.535 148.539 359.44 147.573 359.44 146.54C359.44 145.54 359.535 144.54 359.757 143.607C359.978 142.64 360.327 141.807 360.77 141.074C361.214 140.307 361.847 139.741 362.576 139.308C363.304 138.874 364.16 138.641 365.173 138.641C366.504 138.641 367.612 138.974 368.531 139.641C369.449 140.307 369.956 141.174 370.019 142.307H376.418C376.291 140.707 375.879 139.308 375.182 138.074C374.517 136.841 373.662 135.808 372.617 135.042C371.571 134.242 370.4 133.675 369.164 133.275C367.897 132.875 366.63 132.709 365.3 132.709C363.494 132.709 361.815 133.075 360.295 133.775C358.775 134.475 357.476 135.475 356.399 136.741C355.322 138.008 354.467 139.508 353.897 141.207C353.327 142.874 353.042 144.707 353.042 146.606C353.042 148.506 353.327 150.339 353.897 152.006C354.467 153.705 355.29 155.172 356.399 156.438C357.476 157.705 358.806 158.705 360.295 159.404C361.815 160.104 363.463 160.471 365.3 160.471C366.598 160.471 367.834 160.171 369.101 159.638C370.368 159.071 371.382 158.205 372.142 157.005L372.522 159.938H376.64V145.307H376.703ZM390.703 140.641H390.767L393.491 149.973H387.916L390.703 140.641ZM378.287 159.904H384.875L386.427 155.138H395.011L396.532 159.904H403.215L394.029 133.242H387.504L378.287 159.904ZM404.989 159.904H411.007V143.307H411.071L419.591 159.904H426.18V133.242H420.161V149.673H420.098L411.546 133.242H404.957V159.904H404.989ZM430.582 159.904H441.162C444.963 159.904 447.909 158.738 450.031 156.438C452.153 154.105 453.199 150.806 453.199 146.473C453.199 142.34 452.122 139.108 449.999 136.775C447.877 134.442 444.9 133.275 441.162 133.275H430.582V159.904ZM437.013 139.208H440.053C442.271 139.208 443.949 139.807 445.09 141.007C446.262 142.207 446.832 144.007 446.832 146.406C446.832 149.073 446.293 150.972 445.248 152.106C444.203 153.239 442.461 153.839 440.022 153.905H436.981V139.208H437.013ZM455.828 146.573C455.828 148.506 456.113 150.306 456.651 152.006C457.19 153.672 457.982 155.172 459.027 156.438C460.072 157.705 461.339 158.705 462.859 159.404C464.38 160.104 466.091 160.471 467.959 160.471C469.86 160.471 471.539 160.104 473.059 159.404C474.579 158.705 475.846 157.705 476.892 156.438C477.937 155.172 478.729 153.705 479.267 152.006C479.806 150.339 480.091 148.506 480.091 146.573C480.091 144.64 479.806 142.84 479.267 141.141C478.729 139.474 477.937 138.008 476.892 136.708C475.846 135.442 474.579 134.442 473.059 133.742C471.539 133.042 469.828 132.675 467.959 132.675C466.091 132.675 464.38 133.042 462.859 133.742C461.339 134.442 460.072 135.442 459.027 136.708C457.982 137.975 457.19 139.441 456.651 141.141C456.081 142.807 455.828 144.607 455.828 146.573ZM462.226 146.573C462.226 145.573 462.353 144.573 462.575 143.64C462.796 142.674 463.113 141.84 463.588 141.107C464.032 140.341 464.633 139.774 465.394 139.341C466.122 138.908 466.977 138.674 467.959 138.674C468.941 138.674 469.828 138.908 470.557 139.341C471.285 139.774 471.887 140.341 472.362 141.107C472.806 141.84 473.154 142.707 473.376 143.64C473.597 144.573 473.724 145.573 473.724 146.573C473.724 147.606 473.597 148.573 473.376 149.539C473.154 150.472 472.806 151.339 472.362 152.072C471.887 152.805 471.317 153.405 470.557 153.839C469.828 154.272 468.973 154.505 467.959 154.505C466.977 154.505 466.122 154.272 465.394 153.839C464.665 153.405 464.063 152.805 463.588 152.072C463.113 151.306 462.796 150.472 462.575 149.539C462.321 148.573 462.226 147.606 462.226 146.573ZM492.983 150.939C492.983 152.572 493.268 154.005 493.838 155.205C494.408 156.438 495.168 157.438 496.182 158.205C497.196 158.971 498.336 159.538 499.571 159.904C500.838 160.271 502.2 160.438 503.657 160.438C505.114 160.438 506.476 160.271 507.743 159.971C509.01 159.671 510.119 159.138 511.133 158.471C512.146 157.771 512.938 156.838 513.508 155.672C514.078 154.505 514.395 153.139 514.395 151.506C514.395 150.373 514.205 149.339 513.825 148.506C513.445 147.64 512.906 146.906 512.241 146.306C511.576 145.707 510.816 145.24 510.024 144.84C509.232 144.473 508.314 144.14 507.268 143.807C506.666 143.64 505.906 143.407 505.019 143.174C503.309 142.774 502.073 142.34 501.282 141.974C500.49 141.574 500.11 141.041 500.11 140.307C500.11 139.508 500.426 138.941 501.06 138.574C501.693 138.208 502.39 138.041 503.214 138.041C504.322 138.041 505.273 138.274 506.033 138.774C506.793 139.274 507.173 140.074 507.173 141.241H513.572C513.572 139.808 513.286 138.541 512.748 137.441C512.21 136.341 511.449 135.442 510.531 134.742C509.581 134.042 508.567 133.509 507.363 133.175C506.191 132.842 504.988 132.675 503.721 132.675C502.485 132.675 501.282 132.842 500.11 133.142C498.906 133.442 497.829 133.942 496.879 134.575C495.928 135.242 495.137 136.075 494.566 137.108C493.996 138.141 493.68 139.374 493.68 140.741C493.68 141.907 493.901 142.94 494.281 143.774C494.693 144.607 495.232 145.34 495.897 145.94C496.594 146.506 497.322 147.006 498.114 147.373C498.906 147.74 499.824 148.106 500.87 148.406C501.25 148.539 501.883 148.706 502.77 148.939C504.544 149.439 505.875 149.906 506.698 150.339C507.522 150.772 507.933 151.439 507.933 152.306C507.933 153.205 507.553 153.905 506.793 154.338C506.033 154.805 505.083 155.005 504.006 155.005C502.549 155.005 501.44 154.705 500.648 154.039C499.856 153.405 499.413 152.339 499.349 150.839H492.983V150.939ZM517.373 159.904H537.328V153.939H523.771V148.873H535.839V143.507H523.771V138.841H536.98V133.275H517.373V159.904ZM563.682 145.307H553.356V150.439H557.822C557.632 151.672 557.03 152.639 556.048 153.372C555.035 154.105 553.767 154.472 552.184 154.472C551.202 154.472 550.315 154.238 549.586 153.805C548.858 153.372 548.256 152.772 547.781 152.039C547.337 151.272 546.989 150.439 546.767 149.506C546.545 148.539 546.45 147.573 546.45 146.54C546.45 145.54 546.545 144.54 546.767 143.607C546.989 142.64 547.337 141.807 547.781 141.074C548.224 140.307 548.858 139.741 549.586 139.308C550.315 138.874 551.17 138.641 552.184 138.641C553.514 138.641 554.623 138.974 555.541 139.641C556.46 140.307 556.967 141.174 557.062 142.307H563.46C563.333 140.707 562.922 139.308 562.256 138.074C561.591 136.841 560.704 135.808 559.659 135.042C558.614 134.242 557.442 133.675 556.207 133.275C554.939 132.875 553.672 132.709 552.342 132.709C550.537 132.709 548.858 133.075 547.337 133.775C545.817 134.475 544.518 135.475 543.441 136.741C542.364 138.008 541.541 139.508 540.939 141.207C540.369 142.874 540.084 144.707 540.084 146.606C540.084 148.506 540.369 150.339 540.939 152.006C541.509 153.705 542.364 155.172 543.441 156.438C544.518 157.705 545.849 158.705 547.337 159.404C548.858 160.104 550.505 160.471 552.342 160.471C553.641 160.471 554.908 160.171 556.143 159.638C557.378 159.071 558.392 158.205 559.184 157.005L559.564 159.938H563.682V145.307ZM589.054 133.242H582.655V149.306C582.655 151.072 582.339 152.372 581.673 153.239C581.008 154.072 579.9 154.505 578.347 154.505C576.827 154.505 575.718 154.105 575.053 153.239C574.388 152.406 574.04 151.072 574.04 149.306V133.242H567.641V148.873C567.641 152.772 568.496 155.672 570.239 157.571C571.981 159.471 574.673 160.438 578.347 160.438C582.022 160.438 584.746 159.471 586.456 157.571C588.198 155.672 589.054 152.772 589.054 148.873V133.242ZM593.33 159.904H599.728V150.206H604.574C605.303 150.206 605.873 150.373 606.317 150.672C606.792 150.972 607.14 151.372 607.394 151.872C607.647 152.372 607.806 152.939 607.932 153.505C608.027 154.072 608.122 154.805 608.154 155.638C608.154 155.672 608.154 155.805 608.185 156.072C608.249 156.905 608.344 157.671 608.407 158.371C608.502 159.038 608.661 159.571 608.851 159.871H615.186C614.996 159.671 614.837 159.338 614.742 158.904C614.616 158.471 614.521 157.938 614.457 157.405C614.362 156.838 614.33 156.405 614.299 156.038C614.267 155.705 614.236 155.138 614.204 154.338L614.172 153.872C614.109 153.172 614.045 152.472 613.887 151.806C613.729 151.139 613.539 150.506 613.254 149.906C613 149.306 612.62 148.806 612.177 148.373C611.733 147.94 611.195 147.64 610.593 147.506V147.44C611.828 146.906 612.778 146.04 613.444 144.807C614.109 143.607 614.426 142.24 614.426 140.741C614.426 139.441 614.172 138.308 613.729 137.375C613.254 136.408 612.62 135.642 611.796 135.008C611.005 134.408 610.054 133.942 609.041 133.675C608.027 133.375 606.95 133.242 605.81 133.242H593.267V159.904H593.33ZM599.728 138.808H604.828C605.778 138.808 606.539 139.041 607.14 139.541C607.742 140.041 608.059 140.741 608.059 141.674C608.059 143.774 607.077 144.807 605.081 144.807H599.697V138.808H599.728ZM628.078 140.641H628.141L630.865 149.973H625.29L628.078 140.641ZM615.692 159.904H622.281L623.833 155.138H632.417L633.937 159.904H640.621L631.435 133.242H624.91L615.692 159.904ZM642.395 159.904H648.413V143.307H648.476L657.029 159.904H663.617V133.242H657.599V149.673H657.536L648.983 133.242H642.395V159.904ZM684.333 149.539C684.238 151.072 683.731 152.272 682.876 153.172C682.021 154.039 680.849 154.472 679.36 154.472C678.378 154.472 677.491 154.238 676.762 153.805C676.034 153.372 675.432 152.772 674.957 152.039C674.513 151.306 674.165 150.439 673.943 149.506C673.722 148.573 673.627 147.606 673.627 146.573C673.627 145.573 673.722 144.573 673.943 143.64C674.165 142.707 674.513 141.84 674.957 141.107C675.432 140.374 676.034 139.774 676.762 139.341C677.491 138.908 678.346 138.674 679.36 138.674C680.722 138.674 681.862 139.041 682.749 139.741C683.636 140.441 684.174 141.474 684.333 142.774H690.731C690.668 141.241 690.319 139.841 689.686 138.574C689.021 137.308 688.166 136.275 687.089 135.375C686.012 134.475 684.808 133.842 683.509 133.375C682.211 132.942 680.88 132.709 679.518 132.709C677.713 132.709 676.034 133.075 674.513 133.775C672.993 134.475 671.694 135.475 670.617 136.741C669.54 138.008 668.717 139.508 668.115 141.207C667.545 142.874 667.26 144.707 667.26 146.606C667.26 148.406 667.513 150.106 668.02 151.672C668.527 153.272 669.255 154.672 670.206 155.938C671.156 157.205 672.296 158.205 673.627 158.971C674.957 159.738 676.446 160.238 678.061 160.404L676.382 163.37L677.143 164.07C677.681 163.904 678.124 163.804 678.505 163.804C679.486 163.804 679.993 164.27 679.993 165.237C679.993 166.103 679.423 166.537 678.251 166.537C677.396 166.437 676.446 166.203 675.432 165.837L674.767 167.503C675.464 167.836 676.129 168.103 676.794 168.336C677.491 168.57 678.156 168.67 678.821 168.67C680.152 168.67 681.229 168.403 682.02 167.803C682.812 167.203 683.224 166.303 683.224 165.037C683.224 164.004 682.939 163.237 682.337 162.77C681.735 162.304 681.07 162.037 680.278 162.037C679.74 162.037 679.265 162.104 678.916 162.237L678.853 162.171L679.93 160.404C681.419 160.371 682.812 160.104 684.111 159.604C685.41 159.104 686.518 158.371 687.5 157.438C688.451 156.505 689.242 155.372 689.781 154.039C690.351 152.705 690.668 151.239 690.763 149.573H684.333V149.539ZM704.035 140.641H704.098L706.822 149.973H701.247L704.035 140.641ZM691.618 159.904H698.207L699.759 155.138H708.343L709.863 159.904H716.547L707.329 133.242H700.804L691.618 159.904ZM729.248 159.904H739.828C743.629 159.904 746.575 158.738 748.697 156.438C750.819 154.105 751.864 150.806 751.864 146.473C751.864 142.34 750.819 139.108 748.665 136.775C746.511 134.442 743.565 133.275 739.796 133.275H729.217V159.904H729.248ZM735.647 139.208H738.687C740.905 139.208 742.584 139.807 743.724 141.007C744.896 142.207 745.466 144.007 745.466 146.406C745.466 149.073 744.928 150.972 743.882 152.106C742.837 153.239 741.095 153.839 738.656 153.905H735.615V139.208H735.647ZM755.412 159.904H775.367V153.939H761.81V148.873H773.879V143.507H761.81V138.841H775.019V133.275H755.412V159.904ZM810.337 133.242H803.653L798.839 153.072H798.775L793.961 133.242H787.277L795.038 159.904H802.418L810.337 133.242ZM812.174 159.904H832.129V153.939H818.573V148.873H830.641V143.507H818.573V138.841H831.781V133.275H812.174V159.904ZM835.772 159.904H842.17V150.206H847.017C847.714 150.206 848.315 150.373 848.791 150.672C849.234 150.972 849.582 151.372 849.867 151.872C850.121 152.372 850.311 152.939 850.406 153.505C850.501 154.072 850.564 154.805 850.628 155.638C850.628 155.672 850.628 155.805 850.659 156.072C850.723 156.905 850.818 157.671 850.881 158.371C850.976 159.038 851.135 159.571 851.356 159.871H857.691C857.501 159.671 857.343 159.338 857.248 158.904C857.121 158.471 857.026 157.938 856.963 157.405C856.9 156.838 856.836 156.405 856.804 156.038C856.773 155.705 856.741 155.138 856.709 154.338L856.678 153.872C856.614 153.172 856.519 152.472 856.393 151.806C856.234 151.139 856.044 150.506 855.759 149.906C855.474 149.306 855.126 148.806 854.682 148.373C854.239 147.94 853.7 147.64 853.098 147.506V147.44C854.334 146.906 855.284 146.04 855.949 144.807C856.614 143.607 856.963 142.24 856.963 140.741C856.963 139.441 856.741 138.308 856.266 137.375C855.791 136.408 855.157 135.642 854.334 135.008C853.51 134.408 852.592 133.942 851.578 133.675C850.564 133.375 849.487 133.242 848.347 133.242H835.804V159.904H835.772ZM842.202 138.808H847.302C848.252 138.808 849.012 139.041 849.614 139.541C850.216 140.041 850.533 140.741 850.533 141.674C850.533 143.774 849.551 144.807 847.555 144.807H842.17V138.808H842.202ZM860.669 159.904H871.248C875.049 159.904 877.995 158.738 880.117 156.438C882.24 154.105 883.317 150.806 883.317 146.473C883.317 142.34 882.24 139.108 880.117 136.775C877.964 134.442 875.049 133.275 871.248 133.275H860.669V159.904ZM867.067 139.208H870.108C872.325 139.208 874.004 139.807 875.144 141.007C876.316 142.207 876.887 144.007 876.887 146.406C876.887 149.073 876.38 150.972 875.303 152.106C874.257 153.239 872.515 153.839 870.076 153.905H867.036V139.208H867.067ZM896.684 140.641H896.747L899.471 149.973H893.896L896.684 140.641ZM884.299 159.904H890.887L892.439 155.138H901.023L902.543 159.904H909.227L900.041 133.242H893.516L884.299 159.904ZM911.064 159.904H921.644C925.445 159.904 928.39 158.738 930.513 156.438C932.635 154.105 933.712 150.806 933.712 146.473C933.712 142.34 932.635 139.108 930.513 136.775C928.359 134.442 925.445 133.275 921.644 133.275H911.064V159.904ZM917.463 139.208H920.503C922.721 139.208 924.399 139.807 925.54 141.007C926.712 142.207 927.282 144.007 927.282 146.406C927.282 149.073 926.775 150.972 925.698 152.106C924.653 153.239 922.911 153.839 920.472 153.905H917.431V139.208H917.463ZM937.228 159.904H957.183V153.939H943.658V148.873H955.695V143.507H943.658V138.841H956.835V133.275H937.228V159.904Z" fill="#000200"/>
<path d="M831.782 193.866C832.099 193.899 832.225 193.6 832.32 193.433C832.605 192.733 832.954 192.066 833.27 191.4C833.492 190.867 833.777 190.4 834.031 189.867C834.062 189.8 834.126 189.733 834.126 189.667C834.126 188.967 834.632 188.467 834.854 187.834C835.044 187.334 835.329 186.867 835.551 186.367C835.805 185.801 836.09 185.268 836.343 184.701C836.375 184.634 836.406 184.601 836.406 184.534C836.438 183.801 836.913 183.235 837.198 182.601C837.42 182.101 837.642 181.601 837.863 181.135C838.117 180.635 838.37 180.135 838.592 179.635C838.75 179.268 838.94 178.902 839.067 178.502C839.194 178.035 839.289 177.435 839.891 177.235C839.922 177.235 839.954 177.202 839.986 177.202C840.587 177.269 841.189 177.002 841.728 176.836C842.235 176.669 842.741 176.702 843.185 176.536C843.597 176.402 844.008 176.436 844.357 176.236C844.737 176.002 845.18 176.136 845.497 175.936C845.877 175.702 846.352 175.836 846.669 175.636C847.144 175.369 847.651 175.536 848.063 175.336C848.538 175.103 849.108 175.269 849.552 174.869C849.647 174.769 849.837 174.803 849.963 174.803C850.628 174.836 851.167 174.469 851.832 174.469C851.864 174.469 851.959 174.469 851.959 174.436C852.276 174.003 852.687 174.169 853.099 174.169C853.289 174.169 853.448 174.169 853.574 174.003C853.638 173.903 853.796 173.869 853.891 173.869C854.461 173.969 854.968 173.636 855.506 173.603C856.235 173.569 856.868 173.103 857.597 173.236C857.66 173.236 857.755 173.236 857.787 173.203C858.04 172.869 858.389 172.97 858.706 172.936C858.959 172.936 859.181 172.97 859.402 172.736C859.624 172.503 859.941 172.67 860.226 172.636C860.448 172.636 860.638 172.636 860.796 172.436C861.018 172.203 861.335 172.336 861.62 172.336C861.841 172.336 862.063 172.37 862.222 172.136C862.285 172.036 862.443 172.036 862.602 172.036C862.918 172.036 863.235 172.036 863.552 172.036C863.71 172.036 863.805 172.003 863.932 171.903C864.217 171.636 864.597 171.77 864.946 171.736C865.104 171.736 865.262 171.77 865.389 171.57C865.484 171.436 865.674 171.436 865.833 171.436C866.244 171.403 866.624 171.503 867.005 171.203C867.258 171.003 867.67 171.17 867.987 171.136C868.208 171.136 868.462 171.203 868.62 170.936C868.683 170.837 868.842 170.837 868.937 170.837C869.222 170.837 869.539 170.837 869.824 170.837C869.982 170.837 870.14 170.87 870.267 170.67C870.362 170.537 870.52 170.503 870.647 170.537C870.996 170.57 871.344 170.47 871.692 170.537C871.724 170.537 871.756 170.537 871.756 170.537C872.231 170.037 872.801 170.303 873.34 170.237C873.435 170.237 873.498 170.237 873.593 170.137C873.72 169.97 873.941 169.903 874.132 169.937C874.48 169.97 874.797 169.87 875.145 169.937C875.177 169.937 875.272 169.937 875.272 169.903C875.557 169.47 876 169.67 876.349 169.637C876.761 169.603 877.141 169.637 877.552 169.403C877.838 169.237 878.313 169.337 878.693 169.337C878.851 169.337 879.01 169.37 879.136 169.17C879.231 169.037 879.39 169.037 879.516 169.037C879.865 169.037 880.213 169.037 880.561 169.037C880.783 169.037 881.005 169.07 881.163 168.837C881.195 168.77 881.322 168.737 881.353 168.77C881.733 168.937 882.082 168.704 882.43 168.737C882.715 168.77 883.001 168.803 883.222 168.504C883.286 168.404 883.412 168.437 883.539 168.437C883.856 168.437 884.173 168.437 884.489 168.437C884.743 168.437 885.028 168.504 885.25 168.237C885.345 168.137 885.471 168.137 885.598 168.137C886.041 168.137 886.453 168.137 886.897 168.137C887.15 168.137 887.435 168.204 887.593 167.904C887.657 167.804 887.783 167.837 887.91 167.837C888.29 167.837 888.671 167.837 889.051 167.837C889.241 167.837 889.462 167.904 889.589 167.637C889.652 167.504 889.811 167.537 889.906 167.537C890.317 167.537 890.729 167.537 891.141 167.537C891.426 167.537 891.743 167.637 891.933 167.304C891.996 167.204 892.155 167.237 892.281 167.237C892.883 167.237 893.485 167.237 894.087 167.237C894.245 167.237 894.372 167.237 894.435 167.07C894.499 166.937 894.657 166.937 894.784 166.937C895.164 166.937 895.544 166.937 895.924 166.937C896.241 166.937 896.557 166.97 896.779 166.704C896.874 166.604 897.001 166.637 897.128 166.637C897.635 166.637 898.141 166.637 898.648 166.637C898.933 166.637 899.218 166.704 899.408 166.404C899.472 166.304 899.63 166.337 899.757 166.337C900.454 166.337 901.15 166.337 901.847 166.337C901.974 166.337 902.132 166.371 902.196 166.171C902.291 166.004 902.449 166.037 902.608 166.037C903.304 166.037 903.97 166.037 904.666 166.037C904.825 166.037 904.983 166.071 905.078 165.871C905.142 165.704 905.332 165.737 905.458 165.737C906.25 165.737 907.074 165.737 907.866 165.737C908.024 165.737 908.151 165.737 908.214 165.571C908.277 165.404 908.467 165.437 908.594 165.437C909.386 165.437 910.178 165.437 910.97 165.437C911.128 165.437 911.287 165.471 911.382 165.271C911.445 165.104 911.635 165.137 911.762 165.137C912.744 165.137 913.726 165.137 914.707 165.137C914.866 165.137 914.993 165.171 915.088 164.971C915.151 164.804 915.341 164.838 915.499 164.838C916.576 164.838 917.653 164.838 918.762 164.838C918.889 164.838 919.047 164.871 919.11 164.671C919.174 164.504 919.364 164.537 919.522 164.537C920.884 164.537 922.278 164.537 923.64 164.537C923.798 164.537 923.925 164.571 924.02 164.371C924.083 164.204 924.305 164.238 924.432 164.238C925.984 164.238 927.504 164.238 929.056 164.238C929.246 164.238 929.405 164.238 929.531 164.038C929.626 163.871 929.848 163.904 930.007 163.904C932.762 163.904 935.486 163.904 938.242 163.904C938.432 163.904 938.622 163.904 938.781 163.704C938.876 163.571 939.066 163.604 939.224 163.604C945.432 163.604 951.672 163.604 957.881 163.604C958.293 163.604 958.609 163.904 958.609 164.338C958.609 166.204 958.609 168.07 958.609 169.903C954.935 169.903 951.292 169.903 947.618 169.903C947.428 169.903 947.238 169.903 947.111 170.037C946.953 170.203 946.794 170.203 946.573 170.203C944.672 170.203 942.772 170.203 940.871 170.203C940.713 170.203 940.523 170.17 940.428 170.303C940.301 170.503 940.111 170.503 939.921 170.503C938.781 170.503 937.64 170.503 936.5 170.503C936.342 170.503 936.183 170.47 936.088 170.603C935.962 170.803 935.771 170.803 935.581 170.803C934.631 170.803 933.681 170.803 932.731 170.803C932.572 170.803 932.414 170.77 932.319 170.903C932.192 171.103 932.034 171.103 931.844 171.103C931.083 171.103 930.292 171.103 929.531 171.103C929.373 171.103 929.215 171.103 929.12 171.236C929.025 171.403 928.866 171.403 928.708 171.403C927.916 171.403 927.156 171.403 926.364 171.403C926.206 171.403 926.047 171.403 925.952 171.536C925.857 171.703 925.73 171.703 925.572 171.703C924.97 171.703 924.368 171.703 923.767 171.703C923.64 171.703 923.513 171.67 923.418 171.77C923.26 172.07 922.975 172.003 922.753 172.003C922.309 172.003 921.898 172.003 921.454 172.003C921.328 172.003 921.169 171.97 921.106 172.07C920.916 172.336 920.662 172.303 920.441 172.303C920.029 172.303 919.585 172.303 919.174 172.303C919.047 172.303 918.92 172.27 918.825 172.37C918.603 172.67 918.318 172.603 918.033 172.603C917.622 172.603 917.241 172.603 916.83 172.603C916.703 172.603 916.545 172.57 916.481 172.67C916.291 172.936 916.006 172.903 915.753 172.903C915.436 172.903 915.088 172.903 914.771 172.903C914.644 172.903 914.486 172.903 914.391 173.003C914.232 173.236 914.042 173.169 913.852 173.203C913.282 173.269 912.68 172.97 912.173 173.469C912.142 173.503 912.015 173.503 911.92 173.503C911.635 173.503 911.318 173.503 911.002 173.503C910.875 173.503 910.716 173.469 910.653 173.569C910.463 173.869 910.21 173.803 909.924 173.803C909.608 173.803 909.259 173.803 908.943 173.803C908.848 173.803 908.689 173.769 908.626 173.869C908.404 174.169 908.087 174.103 907.802 174.103C907.391 174.136 906.947 173.969 906.63 174.403C906.567 174.469 906.472 174.469 906.377 174.436C905.997 174.403 905.585 174.269 905.237 174.503C904.761 174.803 904.286 174.669 903.779 174.703C903.653 174.703 903.494 174.669 903.431 174.769C903.146 175.136 902.766 175.003 902.386 175.003C902.227 175.003 902.006 174.969 901.911 175.102C901.752 175.336 901.53 175.302 901.34 175.302C900.834 175.302 900.327 175.202 899.915 175.602C899.852 175.669 899.757 175.602 899.693 175.602C899.313 175.602 898.933 175.502 898.616 175.836C898.585 175.869 898.521 175.902 898.458 175.902C898.078 175.902 897.666 175.902 897.286 175.902C897.159 175.902 897.033 175.902 896.938 176.002C896.779 176.202 896.589 176.202 896.399 176.202C896.177 176.202 895.956 176.136 895.797 176.336C895.639 176.502 895.481 176.536 895.259 176.502C894.53 176.436 893.865 176.969 893.105 176.836C893.073 176.836 892.978 176.869 892.947 176.935C892.788 177.135 892.598 177.135 892.408 177.135C892.091 177.135 891.743 177.069 891.489 177.269C891.299 177.435 891.109 177.435 890.888 177.435C890.634 177.435 890.318 177.335 890.159 177.502C889.811 177.835 889.431 177.735 889.051 177.735C888.892 177.735 888.702 177.702 888.575 177.869C888.449 178.035 888.29 178.035 888.132 178.035C887.942 178.035 887.688 177.935 887.53 178.102C887.213 178.435 886.833 178.302 886.485 178.335C886.326 178.335 886.105 178.302 886.01 178.435C885.851 178.669 885.63 178.635 885.44 178.635C885.25 178.635 884.996 178.569 884.869 178.735C884.711 178.935 884.521 178.935 884.331 178.935C883.634 178.835 883.032 179.335 882.335 179.335C882.304 179.335 882.24 179.402 882.209 179.435C882.114 179.535 882.019 179.535 881.924 179.535C881.575 179.535 881.227 179.468 880.973 179.802C880.942 179.835 880.815 179.835 880.72 179.835C880.277 179.868 879.896 179.835 879.453 180.068C879.105 180.268 878.598 180.202 878.186 180.402C877.869 180.535 877.521 180.502 877.172 180.668C876.792 180.835 876.285 180.835 875.874 181.002C875.557 181.135 875.208 181.135 874.86 181.268C874.48 181.435 874.005 181.468 873.593 181.568C873.15 181.668 872.706 181.801 872.263 181.868C872.073 181.901 871.819 181.835 871.756 181.935C871.439 182.335 870.932 182.168 870.52 182.435C870.204 182.635 869.697 182.601 869.254 182.768C868.937 182.901 868.525 182.701 868.24 183.068C868.208 183.101 868.113 183.101 868.081 183.101C867.733 183.101 867.385 183.035 867.1 183.368C867.068 183.401 866.941 183.401 866.846 183.401C866.339 183.501 865.896 183.801 865.357 183.734C865.326 183.734 865.262 183.768 865.231 183.801C865.104 184.001 864.914 184.034 864.724 183.968C864.217 183.868 863.837 184.401 863.33 184.334C863.33 184.334 863.33 184.368 863.299 184.368C863.14 184.601 862.887 184.634 862.633 184.601C862.127 184.534 861.715 185.034 861.208 184.934C861.176 184.934 861.145 184.968 861.145 185.001C861.018 185.168 860.828 185.201 860.638 185.201C860.353 185.201 860.068 185.134 859.846 185.434C859.814 185.468 859.751 185.501 859.688 185.501C859.181 185.567 858.706 185.834 858.167 185.867C857.914 185.867 857.597 186.134 857.249 186.134C857.185 186.134 857.122 186.201 857.122 186.234C857.027 186.401 856.9 186.434 856.742 186.401C856.172 186.267 855.76 186.734 855.221 186.801C855 186.834 854.715 187.034 854.429 187.034C854.334 187.034 854.271 187.101 854.208 187.201C854.081 187.367 853.891 187.467 853.701 187.434C853.131 187.267 852.687 187.7 852.181 187.834C852.054 187.867 851.959 187.967 851.832 187.934C851.61 187.934 851.42 187.934 851.294 188.134C851.23 188.234 851.135 188.234 851.04 188.234C850.787 188.234 850.565 188.2 850.407 188.467C850.375 188.5 850.28 188.534 850.217 188.534C849.868 188.534 849.488 188.467 849.203 188.8C849.171 188.834 849.076 188.834 848.981 188.834C848.728 188.8 848.506 188.834 848.348 189.1C848.284 189.2 848.221 189.2 848.094 189.2C847.619 189.167 847.239 189.467 846.764 189.567C846.606 189.6 846.416 189.767 846.194 189.733C846.067 189.733 845.941 189.733 845.877 189.867C845.782 190.067 845.592 190.067 845.434 190.033C844.895 189.933 844.483 190.433 843.945 190.4C843.913 190.4 843.85 190.433 843.818 190.5C843.723 190.667 843.597 190.667 843.438 190.667C843.216 190.667 843.026 190.667 842.9 190.867C842.836 190.967 842.741 190.967 842.646 190.967C842.393 190.967 842.171 190.967 842.013 191.2C841.949 191.267 841.854 191.267 841.791 191.267C841.316 191.233 840.968 191.7 840.492 191.633C840.461 191.633 840.429 191.667 840.397 191.7C840.302 191.867 840.144 191.866 839.986 191.866C839.542 191.866 839.194 192.3 838.719 192.233C838.687 192.233 838.655 192.266 838.624 192.3C838.528 192.466 838.402 192.466 838.243 192.466C837.768 192.433 837.452 192.833 836.977 192.866C836.786 192.866 836.565 193.066 836.311 193.066C836.185 193.066 836.089 193.1 836.026 193.2C835.931 193.366 835.804 193.366 835.646 193.366C835.171 193.333 834.823 193.666 834.379 193.799C834.126 193.866 833.809 193.866 833.587 194.033C833.334 194.199 833.08 194.333 832.764 194.299C832.7 194.299 832.637 194.333 832.605 194.366C832.51 194.633 832.288 194.766 832.067 194.866C832.003 194.866 831.972 194.866 831.908 194.866C831.845 194.766 831.75 194.733 831.687 194.866C831.37 194.933 831.275 194.799 831.307 194.499C831.813 194.399 831.782 194.133 831.782 193.866Z" fill="#F5C500"/>
<path d="M832.512 195C832.733 194.9 832.923 194.767 833.05 194.5C833.082 194.467 833.145 194.4 833.209 194.434C833.525 194.467 833.779 194.334 834.032 194.167C834.254 194.034 834.571 194 834.824 193.934C835.267 193.834 835.616 193.5 836.091 193.5C836.249 193.5 836.376 193.5 836.471 193.334C836.534 193.234 836.63 193.2 836.756 193.2C837.01 193.2 837.263 193.001 837.421 193.001C837.896 192.967 838.213 192.567 838.688 192.601C838.847 192.601 838.973 192.601 839.069 192.434C839.1 192.401 839.132 192.367 839.164 192.367C839.639 192.434 839.987 192.001 840.431 192.001C840.589 192.001 840.747 192.001 840.842 191.834C840.874 191.801 840.906 191.767 840.937 191.767C841.413 191.834 841.761 191.367 842.236 191.401C842.331 191.401 842.426 191.401 842.458 191.334C842.616 191.101 842.87 191.067 843.091 191.101C843.186 191.101 843.281 191.101 843.345 191.001C843.471 190.768 843.693 190.801 843.883 190.801C844.042 190.801 844.168 190.801 844.263 190.634C844.295 190.601 844.327 190.534 844.39 190.534C844.928 190.601 845.34 190.068 845.879 190.168C846.037 190.201 846.195 190.168 846.322 190.001C846.385 189.901 846.512 189.868 846.639 189.868C846.861 189.868 847.051 189.734 847.209 189.701C847.653 189.601 848.064 189.301 848.539 189.334C848.666 189.334 848.729 189.334 848.793 189.234C848.951 188.968 849.173 188.968 849.426 188.968C849.49 188.968 849.585 188.968 849.648 188.935C849.933 188.601 850.281 188.668 850.662 188.668C850.725 188.668 850.82 188.668 850.852 188.601C851.01 188.335 851.232 188.368 851.485 188.368C851.58 188.368 851.675 188.368 851.739 188.268C851.865 188.068 852.087 188.068 852.277 188.068C852.404 188.068 852.531 187.968 852.626 187.968C853.132 187.835 853.576 187.401 854.146 187.568C854.304 187.601 854.526 187.501 854.653 187.335C854.716 187.268 854.779 187.168 854.874 187.168C855.159 187.168 855.445 186.968 855.666 186.935C856.205 186.868 856.616 186.402 857.187 186.535C857.313 186.568 857.472 186.535 857.567 186.368C857.599 186.335 857.662 186.268 857.694 186.268C858.01 186.268 858.327 186.002 858.612 186.002C859.151 185.968 859.626 185.702 860.133 185.635C860.196 185.635 860.259 185.602 860.291 185.568C860.513 185.268 860.798 185.335 861.083 185.335C861.273 185.335 861.463 185.302 861.59 185.135C861.621 185.102 861.653 185.068 861.653 185.068C862.191 185.168 862.572 184.668 863.078 184.735C863.332 184.768 863.553 184.735 863.743 184.502L863.775 184.469C864.282 184.535 864.63 184.002 865.169 184.102C865.359 184.135 865.549 184.135 865.676 183.935C865.707 183.902 865.771 183.835 865.802 183.869C866.341 183.935 866.784 183.635 867.291 183.535C867.386 183.535 867.481 183.535 867.545 183.502C867.798 183.169 868.178 183.235 868.526 183.235C868.59 183.235 868.685 183.235 868.685 183.202C868.97 182.835 869.382 183.035 869.698 182.902C870.11 182.702 870.649 182.769 870.965 182.569C871.377 182.302 871.884 182.502 872.201 182.069C872.296 181.969 872.549 182.036 872.708 182.002C873.151 181.902 873.594 181.802 874.038 181.702C874.45 181.602 874.925 181.536 875.305 181.402C875.653 181.269 876.002 181.269 876.319 181.136C876.762 180.969 877.237 180.969 877.617 180.802C877.966 180.636 878.314 180.669 878.631 180.536C879.043 180.336 879.55 180.403 879.898 180.203C880.341 179.936 880.721 180.003 881.165 179.969C881.26 179.969 881.387 180.003 881.418 179.936C881.672 179.569 882.052 179.669 882.368 179.669C882.495 179.669 882.59 179.636 882.654 179.569C882.685 179.536 882.749 179.469 882.78 179.469C883.477 179.503 884.079 178.969 884.776 179.069C884.966 179.103 885.156 179.103 885.314 178.869C885.441 178.703 885.695 178.77 885.885 178.77C886.106 178.77 886.296 178.803 886.455 178.57C886.55 178.436 886.771 178.47 886.93 178.47C887.278 178.436 887.658 178.57 887.975 178.236C888.102 178.07 888.355 178.17 888.577 178.17C888.735 178.17 888.894 178.17 889.02 178.003C889.115 177.836 889.337 177.87 889.495 177.87C889.876 177.836 890.256 177.97 890.604 177.636C890.763 177.47 891.079 177.603 891.333 177.57C891.554 177.57 891.744 177.57 891.934 177.403C892.188 177.203 892.536 177.27 892.853 177.27C893.075 177.27 893.265 177.27 893.392 177.07C893.423 177.036 893.487 176.97 893.55 176.97C894.31 177.103 894.944 176.57 895.704 176.636C895.894 176.636 896.084 176.637 896.242 176.47C896.401 176.27 896.654 176.337 896.844 176.337C897.066 176.337 897.256 176.337 897.383 176.137C897.446 176.037 897.604 176.037 897.731 176.037C898.111 176.037 898.523 176.037 898.903 176.037C898.966 176.037 899.03 176.037 899.061 175.97C899.378 175.637 899.758 175.737 900.138 175.737C900.202 175.737 900.297 175.803 900.36 175.737C900.772 175.303 901.279 175.437 901.785 175.437C902.007 175.437 902.197 175.47 902.356 175.237C902.451 175.07 902.672 175.137 902.831 175.137C903.179 175.103 903.591 175.27 903.876 174.903C903.939 174.803 904.098 174.87 904.224 174.837C904.7 174.804 905.206 174.937 905.682 174.637C905.998 174.437 906.442 174.537 906.822 174.57C906.917 174.57 907.043 174.603 907.075 174.537C907.392 174.137 907.836 174.27 908.247 174.237C908.532 174.237 908.849 174.304 909.071 174.004C909.134 173.904 909.261 173.937 909.388 173.937C909.704 173.937 910.053 173.937 910.369 173.937C910.623 173.937 910.908 174.004 911.098 173.704C911.161 173.604 911.32 173.637 911.446 173.637C911.763 173.637 912.048 173.637 912.365 173.637C912.46 173.637 912.555 173.67 912.618 173.604C913.125 173.104 913.727 173.404 914.297 173.337C914.487 173.304 914.709 173.37 914.836 173.137C914.899 173.004 915.057 173.037 915.216 173.037C915.532 173.037 915.881 173.037 916.198 173.037C916.451 173.037 916.736 173.104 916.926 172.804C916.99 172.704 917.148 172.737 917.275 172.737C917.686 172.737 918.067 172.737 918.478 172.737C918.763 172.737 919.048 172.804 919.27 172.504C919.334 172.404 919.492 172.437 919.619 172.437C920.03 172.437 920.474 172.437 920.886 172.437C921.139 172.437 921.392 172.504 921.551 172.204C921.614 172.104 921.773 172.137 921.899 172.137C922.343 172.137 922.754 172.137 923.198 172.137C923.451 172.137 923.705 172.204 923.863 171.904C923.927 171.804 924.085 171.837 924.212 171.837C924.813 171.837 925.415 171.837 926.017 171.837C926.175 171.837 926.302 171.837 926.397 171.671C926.492 171.504 926.651 171.537 926.809 171.537C927.601 171.537 928.361 171.537 929.153 171.537C929.311 171.537 929.47 171.571 929.565 171.371C929.66 171.204 929.818 171.237 929.976 171.237C930.737 171.237 931.528 171.237 932.289 171.237C932.479 171.237 932.637 171.237 932.764 171.037C932.859 170.904 933.017 170.937 933.176 170.937C934.126 170.937 935.076 170.937 936.026 170.937C936.216 170.937 936.407 170.971 936.533 170.737C936.628 170.604 936.787 170.637 936.945 170.637C938.085 170.637 939.226 170.637 940.366 170.637C940.556 170.637 940.746 170.671 940.873 170.438C940.968 170.304 941.158 170.338 941.316 170.338C943.217 170.338 945.117 170.338 947.018 170.338C947.208 170.338 947.398 170.337 947.556 170.171C947.683 170.038 947.873 170.038 948.063 170.038C951.737 170.038 955.38 170.038 959.054 170.038C959.054 171.671 959.054 173.337 959.086 174.97C959.086 175.17 958.991 175.17 958.833 175.17C958.231 175.17 957.629 175.17 957.027 175.17C956.9 175.17 956.774 175.103 956.742 175.337C956.742 175.537 956.552 175.47 956.457 175.47C955.412 175.47 954.366 175.47 953.321 175.47C953.194 175.47 953.004 175.403 953.004 175.67C953.004 175.837 952.846 175.77 952.751 175.77C951.896 175.77 951.009 175.77 950.154 175.77C950.027 175.77 949.868 175.703 949.837 175.937C949.805 176.103 949.647 176.07 949.52 176.07C948.855 176.07 948.221 176.07 947.556 176.07C947.429 176.07 947.239 176.003 947.208 176.27C947.208 176.437 947.049 176.37 946.923 176.37C946.257 176.37 945.561 176.37 944.895 176.37C944.769 176.37 944.61 176.303 944.579 176.57C944.579 176.736 944.42 176.67 944.325 176.67C943.723 176.67 943.153 176.67 942.551 176.67C942.425 176.67 942.298 176.636 942.266 176.87C942.266 177.036 942.108 176.97 942.013 176.97C941.506 176.97 941.031 176.97 940.524 176.97C940.398 176.97 940.239 176.903 940.239 177.136C940.239 177.303 940.081 177.27 939.986 177.27C939.479 177.27 938.972 177.27 938.465 177.27C938.339 177.27 938.212 177.236 938.212 177.436C938.212 177.603 938.054 177.57 937.958 177.57C937.452 177.57 936.977 177.57 936.47 177.57C936.343 177.57 936.185 177.503 936.153 177.77C936.153 177.936 935.995 177.87 935.9 177.87C935.393 177.87 934.886 177.87 934.379 177.87C934.284 177.87 934.126 177.803 934.189 178.036C934.221 178.136 934.063 178.17 933.936 178.17C933.651 178.17 933.397 178.17 933.112 178.17C932.954 178.17 932.7 178.07 932.7 178.403C932.7 178.503 932.574 178.47 932.479 178.47C932.13 178.47 931.814 178.47 931.465 178.47C931.275 178.47 930.99 178.336 930.958 178.703C930.958 178.769 930.8 178.736 930.737 178.736C930.357 178.736 929.976 178.736 929.596 178.736C929.501 178.736 929.248 178.57 929.311 178.936C929.343 179.003 929.153 179.036 929.026 179.036C928.709 179.036 928.361 179.036 928.044 179.036C927.823 179.036 927.569 178.903 927.474 179.269C927.442 179.369 927.316 179.336 927.252 179.336C926.967 179.336 926.714 179.336 926.429 179.336C926.27 179.336 926.112 179.303 926.017 179.536C925.985 179.636 925.827 179.669 925.7 179.669C925.447 179.669 925.225 179.669 924.972 179.669C924.813 179.669 924.687 179.636 924.592 179.836C924.56 179.936 924.37 179.969 924.243 179.969C923.99 179.969 923.736 179.969 923.483 179.969C923.388 179.969 923.23 179.936 923.23 180.136C923.23 180.269 923.103 180.269 922.976 180.269C922.723 180.269 922.501 180.269 922.248 180.269C922.026 180.269 921.836 180.236 921.646 180.469C921.456 180.702 921.107 180.536 920.854 180.569C920.664 180.602 920.347 180.403 920.284 180.836C920.284 180.902 920.125 180.869 920.062 180.869C919.777 180.869 919.524 180.869 919.239 180.869C919.08 180.869 918.89 180.802 918.89 181.102C918.89 181.236 918.732 181.169 918.637 181.169C918.352 181.169 918.066 181.169 917.781 181.169C917.623 181.169 917.433 181.102 917.401 181.369C917.401 181.502 917.275 181.436 917.211 181.436C916.99 181.436 916.768 181.436 916.546 181.436C916.483 181.436 916.356 181.436 916.356 181.469C916.293 181.869 916.008 181.702 915.786 181.736C915.501 181.736 915.247 181.736 914.994 181.969C914.772 182.169 914.456 182.002 914.171 182.036C913.981 182.069 913.759 181.969 913.695 182.269C913.664 182.402 913.569 182.336 913.474 182.336C913.284 182.336 913.062 182.336 912.872 182.336C912.808 182.336 912.713 182.336 912.713 182.336C912.428 182.902 911.922 182.502 911.541 182.636C911.383 182.669 911.13 182.569 911.098 182.869C911.098 182.969 910.971 182.936 910.876 182.936C910.686 182.936 910.464 182.936 910.274 182.936C910.211 182.936 910.084 182.935 910.084 182.969C909.958 183.402 909.609 183.202 909.324 183.235C909.134 183.269 908.849 183.102 908.786 183.502C908.786 183.569 908.596 183.535 908.469 183.535C908.184 183.602 907.804 183.369 907.614 183.802C907.582 183.902 907.265 183.835 907.075 183.835C906.853 183.835 906.568 183.735 906.505 184.102C906.473 184.169 906.378 184.135 906.315 184.135C905.967 184.202 905.555 183.935 905.301 184.402C905.238 184.502 904.921 184.402 904.699 184.435C904.509 184.469 904.256 184.302 904.193 184.669C904.193 184.769 904.034 184.702 903.971 184.735C903.654 184.802 903.243 184.535 902.989 185.002C902.957 185.068 902.641 185.002 902.482 185.035C902.261 185.035 902.007 184.935 901.881 185.268C901.849 185.402 901.595 185.302 901.437 185.302C901.279 185.302 901.089 185.268 901.025 185.502C900.994 185.635 900.899 185.602 900.835 185.602C900.613 185.602 900.392 185.602 900.17 185.602C900.107 185.602 899.98 185.602 899.98 185.635C899.853 186.068 899.473 185.868 899.22 185.902C899.03 185.935 898.808 185.835 898.681 186.135C898.618 186.268 898.396 186.202 898.238 186.202C898.079 186.202 897.889 186.168 897.826 186.402C897.794 186.535 897.668 186.502 897.604 186.502C897.414 186.502 897.192 186.502 897.002 186.502C896.939 186.502 896.812 186.502 896.812 186.535C896.686 186.935 896.369 186.768 896.084 186.802C896.021 186.802 895.926 186.802 895.926 186.835C895.736 187.301 895.355 187.035 895.07 187.102C894.944 187.135 894.754 187.035 894.722 187.301C894.722 187.401 894.563 187.401 894.468 187.401C894.247 187.401 894.025 187.401 893.803 187.401C893.677 187.401 893.582 187.368 893.55 187.568C893.518 187.735 893.36 187.701 893.265 187.701C893.043 187.735 892.726 187.568 892.6 187.968C892.568 188.068 892.346 188.001 892.188 188.001C892.03 188.001 891.84 187.935 891.808 188.201C891.776 188.301 891.649 188.301 891.554 188.301C891.333 188.301 891.111 188.301 890.889 188.301C890.826 188.301 890.699 188.301 890.699 188.335C890.636 188.768 890.319 188.568 890.097 188.601C889.971 188.635 889.812 188.568 889.749 188.768C889.686 188.968 889.495 188.868 889.369 188.901C889.179 188.934 888.925 188.835 888.83 189.134C888.799 189.268 888.672 189.201 888.577 189.201C888.26 189.268 887.88 189.001 887.627 189.468C887.595 189.534 887.31 189.501 887.151 189.501C887.025 189.501 886.898 189.468 886.867 189.668C886.867 189.768 886.74 189.801 886.645 189.801C886.455 189.801 886.233 189.801 886.043 189.801C885.916 189.801 885.758 189.768 885.726 190.001C885.694 190.201 885.504 190.101 885.378 190.101C885.156 190.134 884.903 190.001 884.776 190.334C884.712 190.468 884.491 190.368 884.332 190.401C884.174 190.401 884.016 190.368 883.921 190.601C883.857 190.801 883.667 190.668 883.54 190.701C883.35 190.734 883.097 190.601 883.034 190.934C883.002 191.034 882.812 190.968 882.717 191.001C882.527 191.001 882.305 190.934 882.178 191.234C882.115 191.401 881.893 191.301 881.735 191.301C881.577 191.301 881.387 191.268 881.323 191.501C881.26 191.701 881.101 191.567 880.975 191.601C880.69 191.667 880.31 191.401 880.088 191.867C880.056 191.934 879.771 191.901 879.613 191.901C879.454 191.901 879.328 191.867 879.264 192.101C879.233 192.301 879.074 192.201 878.979 192.201C878.757 192.234 878.504 192.101 878.377 192.467C878.346 192.601 878.124 192.501 877.966 192.501C877.807 192.501 877.617 192.467 877.522 192.701C877.459 192.901 877.269 192.767 877.142 192.801C876.952 192.834 876.762 192.767 876.635 193.034C876.572 193.201 876.382 193.101 876.255 193.101C876.065 193.101 875.875 193.067 875.78 193.334C875.717 193.5 875.527 193.4 875.4 193.434C875.242 193.467 875.02 193.3 874.988 193.634C874.957 193.767 874.735 193.7 874.608 193.734C874.418 193.767 874.196 193.634 874.101 193.967C874.038 194.134 873.816 194.034 873.658 194.034C873.468 194.034 873.278 194 873.215 194.234C873.215 194.267 873.151 194.3 873.151 194.3C872.644 194.167 872.296 194.7 871.789 194.634C871.536 194.6 871.504 194.734 871.536 194.934C858.422 195 845.467 195 832.512 195Z" fill="#449320"/>
<path d="M832.165 194.999C832.228 194.867 832.321 194.9 832.384 194.999C832.29 194.999 832.228 194.999 832.165 194.999Z" fill="#449320"/>
<path fill-rule="evenodd" clip-rule="evenodd" d="M208.797 40.3505V117.467H233.197V44.4573C233.197 42.0147 236.763 40.0016 239.046 40.0016H245.229C246.718 40.0016 246.461 40.6995 247.975 40.6995H249.694V26.2587L234.223 25.2656C221.497 24.3261 208.797 28.8087 208.797 40.3505Z" fill="#000200"/>
<path d="M208.797 40.3505V117.467H233.197V44.4573C233.197 42.0147 236.763 40.0016 239.046 40.0016H245.229C246.718 40.0016 246.461 40.6995 247.975 40.6995H249.694V26.2587L234.223 25.2656C221.497 24.3261 208.797 28.8087 208.797 40.3505Z" stroke="#000200" stroke-width="0.162"/>
<path fill-rule="evenodd" clip-rule="evenodd" d="M429.858 45.9209V117.467H454.258V44.8755C454.258 41.8732 458.029 40.0772 461.134 40.0772L464.931 39.97L470.755 40.7742V26.4329L456.336 25.3606C438.966 23.9399 429.858 29.3815 429.858 45.9209Z" fill="#000200"/>
<path d="M429.858 45.9209V117.467H454.258V44.8755C454.258 41.8732 458.029 40.0772 461.134 40.0772L464.931 39.97L470.755 40.7742V26.4329L456.336 25.3606C438.966 23.9399 429.858 29.3815 429.858 45.9209Z" stroke="#000200" stroke-width="0.162"/>
<path fill-rule="evenodd" clip-rule="evenodd" d="M542.093 51.0555C542.093 47.8912 544.296 43.2379 546.8 43.2379H549.153C552.533 43.2379 554.185 47.7583 554.185 51.3746V61.2131H542.118V51.0555H542.093ZM577.97 92.1378V87.378H553.835V96.5518C553.835 99.2374 551.832 102.668 549.128 102.668H547.776C543.044 102.668 542.068 97.6686 542.068 92.8291V79.9328H577.945V52.0926C577.92 52.066 575.767 43.6899 574.815 41.6691C573.113 38.0262 571.686 36.2447 568.957 33.6654C564.976 29.863 556.789 25.9541 549.103 25.9541H546.098C531.828 25.9541 518.283 38.7708 518.283 53.103V92.1378C518.283 106.364 532.654 118.276 547.776 118.276H549.779C558.216 118.276 564.275 114.607 569.082 110.671C570.96 109.129 573.864 105.194 574.89 102.987C575.992 100.753 577.669 92.643 577.97 92.1378Z" fill="#000200"/>
<path d="M542.093 51.0555C542.093 47.8912 544.296 43.2379 546.8 43.2379H549.153C552.533 43.2379 554.185 47.7318 554.185 51.3746V61.2131H542.118V51.0555H542.093ZM577.97 92.1378V87.378H553.835V96.5518C553.835 99.2374 551.832 102.668 549.128 102.668H547.776C543.044 102.668 542.068 97.6686 542.068 92.8291V79.9328H577.945V52.0926C577.92 52.0394 575.767 43.6899 574.815 41.6691C573.113 38.0262 571.686 36.2447 568.957 33.6654C564.976 29.863 556.789 25.9541 549.103 25.9541H546.098C531.828 25.9541 518.283 38.7708 518.283 53.103V92.1378C518.283 106.364 532.654 118.276 547.776 118.276H549.779C558.216 118.276 564.275 114.607 569.082 110.671C570.96 109.129 573.864 105.22 574.89 102.987C575.992 100.753 577.669 92.643 577.97 92.1378Z" stroke="#000200" stroke-width="0.162"/>
<path fill-rule="evenodd" clip-rule="evenodd" d="M321.539 21.2162V116.656H345.077V41.9768H354.693V27.2426H345.077V22.5436C345.077 20.1278 347.832 18.1898 350.035 18.1898L351.688 18.1102L354.668 18.5349C354.668 15.0836 354.618 11.5793 354.693 8.12808C354.793 3.29634 353.266 4.14588 348.057 4.14588H339.117C327.974 4.14588 321.539 9.90678 321.539 21.2162Z" fill="#000200"/>
<path d="M321.539 21.1937V116.656H345.077V41.9592H354.693V27.2215H345.077V22.548C345.077 20.1316 347.832 18.1931 350.035 18.1931L351.688 18.1134L354.668 18.5383C354.668 15.0862 354.618 11.5811 354.693 8.12904C354.793 3.29616 353.266 4.14589 348.057 4.14589H339.117C327.974 4.11934 321.539 9.88158 321.539 21.1937Z" stroke="#000200" stroke-width="0.162"/>
<path fill-rule="evenodd" clip-rule="evenodd" d="M280.955 102.791H279.299C276.16 102.791 274.331 100.664 274.331 97.368V89.2337C274.331 81.7108 280.041 77.7234 285.899 76.3411C285.899 83.9969 287.654 102.791 280.955 102.791ZM254.458 55.2609H275.641V50.1836C275.641 47.2595 277.272 43.724 279.942 43.724H281.919C286.986 43.724 285.874 52.8685 285.874 58.3179C282.216 58.6369 265.432 66.2928 262.441 68.2067C255.669 72.5397 250.799 79.5044 250.799 90.5628V100.079C250.799 108.745 259.549 119.086 268.67 119.086H270.648C279.818 119.086 280.955 115.684 285.874 112.308V117.73H309.381V48.1368C309.381 36.4138 297.071 26.7642 285.553 26.7642H279.274C265.58 26.7376 254.458 40.1619 254.458 55.2609Z" fill="#000200"/>
<path d="M280.955 102.791H279.299C276.16 102.791 274.331 100.664 274.331 97.368V89.2337C274.331 81.7108 280.041 77.7234 285.899 76.3411C285.899 83.9969 287.654 102.791 280.955 102.791ZM254.458 55.2609H275.641V50.1836C275.641 47.2595 277.272 43.724 279.942 43.724H281.919C286.986 43.724 285.874 52.8685 285.874 58.3179C282.216 58.6369 265.432 66.2928 262.441 68.2067C255.669 72.5397 250.799 79.5044 250.799 90.5628V100.079C250.799 108.745 259.549 119.086 268.67 119.086H270.648C279.818 119.086 280.955 115.684 285.874 112.308V117.73H309.381V48.1368C309.381 36.4138 297.071 26.7642 285.553 26.7642H279.274C265.58 26.7376 254.458 40.1885 254.458 55.2609Z" stroke="#000200" stroke-width="0.162"/>
<path fill-rule="evenodd" clip-rule="evenodd" d="M479.598 100.724C479.598 113.995 484.224 117.386 497.353 117.386L503.729 117.466L512.757 117.039V102.086H509.756C506.055 102.086 503.379 101.071 503.379 97.306V39.4689H512.757V24.1685H503.379V4.08838H479.598V100.724Z" fill="#000200"/>
<path d="M479.598 100.728C479.598 113.996 484.224 117.386 497.353 117.386L503.729 117.466L512.757 117.039V102.063H509.756C506.055 102.063 503.379 101.048 503.379 97.2841V39.4606H512.757V24.1637H503.379V4.08838H479.598V100.728Z" stroke="#000200" stroke-width="0.162"/>
<path fill-rule="evenodd" clip-rule="evenodd" d="M385.28 54.9553C385.28 49.0843 385.204 42.6235 391.022 42.6235H392.029C396.487 42.6235 397.091 49.8885 397.091 54.6068V92.5941C397.091 97.1515 396.31 102.513 392.029 102.513H390.014C385.582 102.513 385.28 94.6584 385.28 89.8597V54.9553ZM361.33 54.9553V91.5754C361.33 106.829 375.156 118.276 390.342 118.276H394.371C408.953 118.276 421.016 105.221 421.016 89.5112V53.9098C421.016 36.7525 408.147 25.1445 391.324 25.1445C373.242 25.1713 361.33 36.404 361.33 54.9553Z" fill="#000200"/>
<path d="M385.28 54.9553C385.28 49.0843 385.204 42.6235 391.022 42.6235H392.029C396.487 42.6235 397.091 49.8885 397.091 54.6068V92.5941C397.091 97.1515 396.31 102.513 392.029 102.513H390.014C385.582 102.513 385.28 94.6584 385.28 89.8597V54.9553ZM361.33 54.9553V91.5754C361.33 106.829 375.156 118.276 390.342 118.276H394.371C408.953 118.276 421.016 105.221 421.016 89.5112V53.9098C421.016 36.7525 408.147 25.1445 391.324 25.1445C373.242 25.1981 361.33 36.404 361.33 54.9553Z" stroke="#000200" stroke-width="0.162"/>
<path fill-rule="evenodd" clip-rule="evenodd" d="M34.1592 27.2597L34.1846 117.467H58.301V41.5579C59.9494 41.424 60.4312 40.8885 62.3838 40.8885H65.4523C68.1657 40.8885 70.5495 44.4229 70.5495 47.7163V117.118H94.3363V42.5754C95.9846 42.2005 97.3539 40.8618 99.763 40.8618H101.817C103.922 40.8618 105.875 44.2087 105.875 47.0201V117.44H130.321V48.0376C130.321 32.5078 116.373 25.1445 100.777 25.1445C94.4377 25.1445 84.2941 28.4915 83.229 28.4112C78.3347 28.0095 72.9839 25.1445 65.1226 25.1445C55.0044 25.1445 44.6578 26.2958 34.1592 27.2597Z" fill="#000200"/>
<path d="M34.1592 27.2597L34.1846 117.467H58.301V41.5579C59.9494 41.424 60.4312 40.8885 62.3838 40.8885H65.4523C68.1657 40.8885 70.5495 44.4229 70.5495 47.7163V117.118H94.3363V42.5754C95.9846 42.1737 97.3539 40.8618 99.763 40.8618H101.817C103.922 40.8618 105.875 44.2087 105.875 47.0201V117.44H130.321V48.0376C130.321 32.5078 116.373 25.1445 100.777 25.1445C94.4377 25.1445 84.2941 28.4915 83.229 28.4112C78.3347 28.0095 72.9839 25.1445 65.1226 25.1445C55.0044 25.1445 44.6578 26.2958 34.1592 27.2597Z" stroke="#000200" stroke-width="0.162"/>
<path fill-rule="evenodd" clip-rule="evenodd" d="M163.103 52.1829C163.103 48.0354 163.884 41.123 167.483 41.123H170.857C173.777 41.123 175.237 47.7695 175.237 51.146V58.4041C175.237 66.7787 174.884 75.0736 174.91 82.9697C174.91 91.1316 176.923 101.633 169.17 101.633C165.092 101.633 163.103 97.0869 163.103 92.9927V52.1829ZM139.163 117.239H163.103V111.364C165.495 112.028 168.188 118.276 175.917 118.276H177.603C189.812 118.276 198.85 106.924 198.85 94.7473V47.6898C198.85 36.6034 189.762 24.161 179.315 24.161H175.942C168.289 24.161 166.275 29.6909 163.456 30.7278V4.08838H139.188V117.239H139.163Z" fill="#000200"/>
<path d="M163.103 52.1829C163.103 48.0354 163.884 41.123 167.483 41.123H170.857C173.777 41.123 175.237 47.7695 175.237 51.146V58.4041C175.237 66.7787 174.884 75.0736 174.91 82.9697C174.91 91.1316 176.923 101.633 169.17 101.633C165.092 101.633 163.103 97.0869 163.103 92.9927V52.1829ZM139.163 117.239H163.103V111.364C165.495 112.028 168.188 118.276 175.917 118.276H177.603C189.812 118.276 198.85 106.924 198.85 94.7473V47.6898C198.85 36.6034 189.762 24.161 179.315 24.161H175.942C168.289 24.161 166.275 29.6909 163.456 30.7278V4.08838H139.188V117.239H139.163Z" stroke="#000200" stroke-width="0.162"/>
<path d="M24.2114 4.08838H1V117.466H24.2114V4.08838Z" fill="#000200"/>
<path d="M24.2114 4.08838H1V117.466H24.2114V4.08838Z" stroke="#000200" stroke-width="0.162"/>
<path fill-rule="evenodd" clip-rule="evenodd" d="M208.797 40.3505V117.467H233.197V44.4573C233.197 42.0147 236.763 40.0016 239.046 40.0016H245.229C246.718 40.0016 246.461 40.6995 247.975 40.6995H249.694V26.2587L234.223 25.2656C221.497 24.3261 208.797 28.8087 208.797 40.3505Z" fill="#000200"/>
<path d="M208.797 40.3505V117.467H233.197V44.4573C233.197 42.0147 236.763 40.0016 239.046 40.0016H245.229C246.718 40.0016 246.461 40.6995 247.975 40.6995H249.694V26.2587L234.223 25.2656C221.497 24.3261 208.797 28.8087 208.797 40.3505Z" stroke="#000200" stroke-width="0.162"/>
<path fill-rule="evenodd" clip-rule="evenodd" d="M429.858 45.9209V117.467H454.258V44.8755C454.258 41.8732 458.029 40.0772 461.134 40.0772L464.931 39.97L470.755 40.7742V26.4329L456.336 25.3606C438.966 23.9399 429.858 29.3815 429.858 45.9209Z" fill="#000200"/>
<path d="M429.858 45.9209V117.467H454.258V44.8755C454.258 41.8732 458.029 40.0772 461.134 40.0772L464.931 39.97L470.755 40.7742V26.4329L456.336 25.3606C438.966 23.9399 429.858 29.3815 429.858 45.9209Z" stroke="#000200" stroke-width="0.162"/>
<path fill-rule="evenodd" clip-rule="evenodd" d="M542.093 51.0555C542.093 47.8912 544.296 43.2379 546.8 43.2379H549.153C552.533 43.2379 554.185 47.7583 554.185 51.3746V61.2131H542.118V51.0555H542.093ZM577.97 92.1378V87.378H553.835V96.5518C553.835 99.2374 551.832 102.668 549.128 102.668H547.776C543.044 102.668 542.068 97.6686 542.068 92.8291V79.9328H577.945V52.0926C577.92 52.066 575.767 43.6899 574.815 41.6691C573.113 38.0262 571.686 36.2447 568.957 33.6654C564.976 29.863 556.789 25.9541 549.103 25.9541H546.098C531.828 25.9541 518.283 38.7708 518.283 53.103V92.1378C518.283 106.364 532.654 118.276 547.776 118.276H549.779C558.216 118.276 564.275 114.607 569.082 110.671C570.96 109.129 573.864 105.194 574.89 102.987C575.992 100.753 577.669 92.643 577.97 92.1378Z" fill="#000200"/>
<path d="M542.093 51.0555C542.093 47.8912 544.296 43.2379 546.8 43.2379H549.153C552.533 43.2379 554.185 47.7318 554.185 51.3746V61.2131H542.118V51.0555H542.093ZM577.97 92.1378V87.378H553.835V96.5518C553.835 99.2374 551.832 102.668 549.128 102.668H547.776C543.044 102.668 542.068 97.6686 542.068 92.8291V79.9328H577.945V52.0926C577.92 52.0394 575.767 43.6899 574.815 41.6691C573.113 38.0262 571.686 36.2447 568.957 33.6654C564.976 29.863 556.789 25.9541 549.103 25.9541H546.098C531.828 25.9541 518.283 38.7708 518.283 53.103V92.1378C518.283 106.364 532.654 118.276 547.776 118.276H549.779C558.216 118.276 564.275 114.607 569.082 110.671C570.96 109.129 573.864 105.22 574.89 102.987C575.992 100.753 577.669 92.643 577.97 92.1378Z" stroke="#000200" stroke-width="0.162"/>
<path fill-rule="evenodd" clip-rule="evenodd" d="M321.539 21.2162V116.656H345.077V41.9768H354.693V27.2426H345.077V22.5436C345.077 20.1278 347.832 18.1898 350.035 18.1898L351.688 18.1102L354.668 18.5349C354.668 15.0836 354.618 11.5793 354.693 8.12808C354.793 3.29634 353.266 4.14588 348.057 4.14588H339.117C327.974 4.14588 321.539 9.90678 321.539 21.2162Z" fill="#000200"/>
<path d="M321.539 21.1937V116.656H345.077V41.9592H354.693V27.2215H345.077V22.548C345.077 20.1316 347.832 18.1931 350.035 18.1931L351.688 18.1134L354.668 18.5383C354.668 15.0862 354.618 11.5811 354.693 8.12904C354.793 3.29616 353.266 4.14589 348.057 4.14589H339.117C327.974 4.11934 321.539 9.88158 321.539 21.1937Z" stroke="#000200" stroke-width="0.162"/>
<path fill-rule="evenodd" clip-rule="evenodd" d="M280.955 102.791H279.299C276.16 102.791 274.331 100.664 274.331 97.368V89.2337C274.331 81.7108 280.041 77.7234 285.899 76.3411C285.899 83.9969 287.654 102.791 280.955 102.791ZM254.458 55.2609H275.641V50.1836C275.641 47.2595 277.272 43.724 279.942 43.724H281.919C286.986 43.724 285.874 52.8685 285.874 58.3179C282.216 58.6369 265.432 66.2928 262.441 68.2067C255.669 72.5397 250.799 79.5044 250.799 90.5628V100.079C250.799 108.745 259.549 119.086 268.67 119.086H270.648C279.818 119.086 280.955 115.684 285.874 112.308V117.73H309.381V48.1368C309.381 36.4138 297.071 26.7642 285.553 26.7642H279.274C265.58 26.7376 254.458 40.1619 254.458 55.2609Z" fill="#000200"/>
<path d="M280.955 102.791H279.299C276.16 102.791 274.331 100.664 274.331 97.368V89.2337C274.331 81.7108 280.041 77.7234 285.899 76.3411C285.899 83.9969 287.654 102.791 280.955 102.791ZM254.458 55.2609H275.641V50.1836C275.641 47.2595 277.272 43.724 279.942 43.724H281.919C286.986 43.724 285.874 52.8685 285.874 58.3179C282.216 58.6369 265.432 66.2928 262.441 68.2067C255.669 72.5397 250.799 79.5044 250.799 90.5628V100.079C250.799 108.745 259.549 119.086 268.67 119.086H270.648C279.818 119.086 280.955 115.684 285.874 112.308V117.73H309.381V48.1368C309.381 36.4138 297.071 26.7642 285.553 26.7642H279.274C265.58 26.7376 254.458 40.1885 254.458 55.2609Z" stroke="#000200" stroke-width="0.162"/>
<path fill-rule="evenodd" clip-rule="evenodd" d="M479.598 100.724C479.598 113.995 484.224 117.386 497.353 117.386L503.729 117.466L512.757 117.039V102.086H509.756C506.055 102.086 503.379 101.071 503.379 97.306V39.4689H512.757V24.1685H503.379V4.08838H479.598V100.724Z" fill="#000200"/>
<path d="M479.598 100.728C479.598 113.996 484.224 117.386 497.353 117.386L503.729 117.466L512.757 117.039V102.063H509.756C506.055 102.063 503.379 101.048 503.379 97.2841V39.4606H512.757V24.1637H503.379V4.08838H479.598V100.728Z" stroke="#000200" stroke-width="0.162"/>
<path fill-rule="evenodd" clip-rule="evenodd" d="M385.28 54.9553C385.28 49.0843 385.204 42.6235 391.022 42.6235H392.029C396.487 42.6235 397.091 49.8885 397.091 54.6068V92.5941C397.091 97.1515 396.31 102.513 392.029 102.513H390.014C385.582 102.513 385.28 94.6584 385.28 89.8597V54.9553ZM361.33 54.9553V91.5754C361.33 106.829 375.156 118.276 390.342 118.276H394.371C408.953 118.276 421.016 105.221 421.016 89.5112V53.9098C421.016 36.7525 408.147 25.1445 391.324 25.1445C373.242 25.1713 361.33 36.404 361.33 54.9553Z" fill="#000200"/>
<path d="M385.28 54.9553C385.28 49.0843 385.204 42.6235 391.022 42.6235H392.029C396.487 42.6235 397.091 49.8885 397.091 54.6068V92.5941C397.091 97.1515 396.31 102.513 392.029 102.513H390.014C385.582 102.513 385.28 94.6584 385.28 89.8597V54.9553ZM361.33 54.9553V91.5754C361.33 106.829 375.156 118.276 390.342 118.276H394.371C408.953 118.276 421.016 105.221 421.016 89.5112V53.9098C421.016 36.7525 408.147 25.1445 391.324 25.1445C373.242 25.1981 361.33 36.404 361.33 54.9553Z" stroke="#000200" stroke-width="0.162"/>
<path fill-rule="evenodd" clip-rule="evenodd" d="M34.1592 27.2597L34.1846 117.467H58.301V41.5579C59.9494 41.424 60.4312 40.8885 62.3838 40.8885H65.4523C68.1657 40.8885 70.5495 44.4229 70.5495 47.7163V117.118H94.3363V42.5754C95.9846 42.2005 97.3539 40.8618 99.763 40.8618H101.817C103.922 40.8618 105.875 44.2087 105.875 47.0201V117.44H130.321V48.0376C130.321 32.5078 116.373 25.1445 100.777 25.1445C94.4377 25.1445 84.2941 28.4915 83.229 28.4112C78.3347 28.0095 72.9839 25.1445 65.1226 25.1445C55.0044 25.1445 44.6578 26.2958 34.1592 27.2597Z" fill="#000200"/>
<path d="M34.1592 27.2597L34.1846 117.467H58.301V41.5579C59.9494 41.424 60.4312 40.8885 62.3838 40.8885H65.4523C68.1657 40.8885 70.5495 44.4229 70.5495 47.7163V117.118H94.3363V42.5754C95.9846 42.1737 97.3539 40.8618 99.763 40.8618H101.817C103.922 40.8618 105.875 44.2087 105.875 47.0201V117.44H130.321V48.0376C130.321 32.5078 116.373 25.1445 100.777 25.1445C94.4377 25.1445 84.2941 28.4915 83.229 28.4112C78.3347 28.0095 72.9839 25.1445 65.1226 25.1445C55.0044 25.1445 44.6578 26.2958 34.1592 27.2597Z" stroke="#000200" stroke-width="0.162"/>
<path fill-rule="evenodd" clip-rule="evenodd" d="M163.103 52.1829C163.103 48.0354 163.884 41.123 167.483 41.123H170.857C173.777 41.123 175.237 47.7695 175.237 51.146V58.4041C175.237 66.7787 174.884 75.0736 174.91 82.9697C174.91 91.1316 176.923 101.633 169.17 101.633C165.092 101.633 163.103 97.0869 163.103 92.9927V52.1829ZM139.163 117.239H163.103V111.364C165.495 112.028 168.188 118.276 175.917 118.276H177.603C189.812 118.276 198.85 106.924 198.85 94.7473V47.6898C198.85 36.6034 189.762 24.161 179.315 24.161H175.942C168.289 24.161 166.275 29.6909 163.456 30.7278V4.08838H139.188V117.239H139.163Z" fill="#000200"/>
<path d="M163.103 52.1829C163.103 48.0354 163.884 41.123 167.483 41.123H170.857C173.777 41.123 175.237 47.7695 175.237 51.146V58.4041C175.237 66.7787 174.884 75.0736 174.91 82.9697C174.91 91.1316 176.923 101.633 169.17 101.633C165.092 101.633 163.103 97.0869 163.103 92.9927V52.1829ZM139.163 117.239H163.103V111.364C165.495 112.028 168.188 118.276 175.917 118.276H177.603C189.812 118.276 198.85 106.924 198.85 94.7473V47.6898C198.85 36.6034 189.762 24.161 179.315 24.161H175.942C168.289 24.161 166.275 29.6909 163.456 30.7278V4.08838H139.188V117.239H139.163Z" stroke="#000200" stroke-width="0.162"/>
<path d="M24.2114 4.08838H1V117.466H24.2114V4.08838Z" fill="#000200"/>
<path d="M24.2114 4.08838H1V117.466H24.2114V4.08838Z" stroke="#000200" stroke-width="0.162"/>
<path fill-rule="evenodd" clip-rule="evenodd" d="M932.187 100.417H930.464C927.219 100.417 925.318 98.2563 925.318 94.9222V86.6536C925.318 79.0251 931.25 74.9975 937.308 73.5839C937.334 81.3724 939.133 100.417 932.187 100.417ZM904.759 52.2456H926.712V47.0977C926.712 44.137 928.41 40.5628 931.173 40.5628H933.227C938.474 40.5628 937.333 49.845 937.333 55.3396C933.556 55.6597 916.166 63.4215 913.048 65.3687C906.026 69.743 901.007 76.8113 901.007 88.0139V97.6429C901.007 106.418 910.057 116.901 919.512 116.901H921.566C931.072 116.901 932.213 113.46 937.333 110.019V115.514H961.67V45.0173C961.67 33.1211 948.918 23.3589 937.004 23.3589H930.489C916.268 23.3589 904.759 36.962 904.759 52.2456Z" fill="#000200"/>
<path d="M932.187 100.417H930.464C927.219 100.417 925.318 98.283 925.318 94.9222V86.6536C925.318 79.0518 931.25 74.9975 937.308 73.5839C937.334 81.3724 939.133 100.417 932.187 100.417ZM904.759 52.2456H926.712V47.0977C926.712 44.137 928.41 40.5628 931.173 40.5628H933.227C938.474 40.5628 937.333 49.845 937.333 55.3396C933.556 55.6597 916.166 63.4215 913.048 65.3687C906.026 69.743 901.007 76.8113 901.007 88.0139V97.6429C901.007 106.418 910.057 116.901 919.512 116.901H921.566C931.072 116.901 932.213 113.46 937.333 110.019V115.514H961.67V45.0173C961.67 33.1211 948.918 23.3589 937.004 23.3589H930.489C916.268 23.3589 904.759 36.962 904.759 52.2456Z" stroke="#000200" stroke-width="0.162"/>
<path fill-rule="evenodd" clip-rule="evenodd" d="M747.79 18.5841H723.581L723.327 0.259859L747.79 0.206543V18.5841Z" fill="#000200"/>
<path d="M747.79 18.5841H723.581L723.327 0.259859L747.79 0.206543V18.5841Z" stroke="#000200" stroke-width="0.162"/>
<path fill-rule="evenodd" clip-rule="evenodd" d="M747.968 115.408L723.505 115.274L723.403 26.9604H748.018L747.968 115.408Z" fill="#000200"/>
<path d="M747.968 115.408L723.505 115.274L723.403 26.9604H748.018L747.968 115.408Z" stroke="#000200" stroke-width="0.162"/>
<path fill-rule="evenodd" clip-rule="evenodd" d="M711.49 115.514L687.407 115.274V0.473633L711.49 0.527031V115.514Z" fill="#000200"/>
<path d="M711.49 115.514L687.407 115.274V0.473633L711.49 0.527031V115.514Z" stroke="#000200" stroke-width="0.162"/>
<path fill-rule="evenodd" clip-rule="evenodd" d="M759.553 45.471V115.301H783.559V40.3231C785.233 39.9497 786.601 38.6161 789.035 38.6161H791.088C793.218 38.6161 795.195 41.9769 795.195 44.8042V115.674H819.886V45.8177C819.886 30.1874 806.248 22.6124 790.227 22.6924C782.444 22.4257 759.908 21.6521 759.857 25.4397C759.832 26.3732 759.832 26.2398 759.832 27.0667C759.629 43.8439 760.06 39.0429 759.553 45.471Z" fill="#000200"/>
<path d="M759.553 45.471V115.301H783.559V40.3231C785.233 39.9497 786.601 38.6161 789.035 38.6161H791.088C793.218 38.6161 795.195 41.9769 795.195 44.8042V115.674H819.886V45.8177C819.886 30.1874 806.248 22.6124 790.227 22.6924C782.444 22.4257 759.908 21.6521 759.857 25.4397C759.832 26.3732 759.832 26.2398 759.832 27.0667C759.629 43.8439 760.06 39.0429 759.553 45.471Z" stroke="#000200" stroke-width="0.162"/>
<path fill-rule="evenodd" clip-rule="evenodd" d="M865.796 49.4185C865.796 45.2309 864.985 38.2693 861.309 38.2693H857.861C854.87 38.2693 853.374 44.9909 853.374 48.3783V55.7134C853.374 64.1687 853.729 72.5439 853.729 80.4924C853.729 88.7343 851.651 99.3235 859.611 99.3235C863.793 99.3235 865.847 94.7624 865.847 90.6014V49.4185H865.796ZM890.335 115.007H865.796V109.086C863.337 109.753 860.574 116.047 852.665 116.047H850.941C838.393 116.047 829.165 104.605 829.165 92.3352V44.8842C829.165 33.7082 838.494 21.172 849.217 21.172H852.665C860.523 21.172 862.577 26.7466 865.466 27.7869V0.927246H890.36V115.007H890.335Z" fill="#000200"/>
<path d="M865.796 49.4185C865.796 45.2309 864.985 38.2693 861.309 38.2693H857.861C854.87 38.2693 853.374 44.9909 853.374 48.3783V55.7134C853.374 64.1687 853.729 72.5439 853.729 80.4924C853.729 88.7343 851.651 99.3235 859.611 99.3235C863.793 99.3235 865.847 94.7624 865.847 90.6014V49.4185H865.796ZM890.335 115.007H865.796V109.086C863.337 109.753 860.574 116.047 852.665 116.047H850.941C838.393 116.047 829.165 104.605 829.165 92.3352V44.8842C829.165 33.7082 838.494 21.172 849.217 21.172H852.665C860.523 21.172 862.577 26.7466 865.466 27.7869V0.927246H890.36V115.007H890.335Z" stroke="#000200" stroke-width="0.162"/>
<path fill-rule="evenodd" clip-rule="evenodd" d="M614.322 0.500977L648.444 0.527675L654.604 0.821038L657.57 1.1411L659.699 1.48786L662.234 2.10137L665.352 3.32829L666.949 4.20855L668.267 5.0087L669.383 5.80885L670.194 6.58239L671.005 7.7293L671.664 9.06295L672.501 11.1701L673.033 13.0373L673.667 16.6114L673.946 19.2787L674.047 20.5056L674.149 22.2127L674.25 29.281L673.92 34.3756L673.261 38.8033L672.298 42.7508L671.081 46.0316L670.27 47.6053L669.357 49.0189L668.039 50.5926L667.051 51.4462L666.341 51.8996L666.366 52.3798L667.608 52.9932L669.003 54.0602L670.524 55.7939L671.335 57.1008L672.906 60.8084L674.073 65.2894L674.909 71.9576L675.112 76.9988L674.96 83.2936L674.706 86.761L674.351 90.3352L673.54 95.8032L672.805 99.6174L671.943 103.218L671.056 106.179L670.625 107.139L670.017 108.366L668.648 110.233L667.913 111.007L666.468 112.18L665.099 112.981L664.059 113.487L662.564 114.074L660.84 114.528L659.42 114.821L657.164 115.088L655.136 115.301L652.652 115.381H650.041L644.058 115.408H614.348V0.500977H614.322ZM640.357 61.9286L641.269 61.1551L642.385 60.5416L643.627 60.2216L644.768 60.1416L646.441 60.4349L647.43 60.8617L648.292 61.4218L648.976 62.062L649.483 62.7021L649.889 63.3957L650.345 65.156L650.37 66.9698V94.5496V95.6165L650.32 96.23L649.863 97.6702L649.255 98.6305L648.697 99.2706L647.556 100.124L646.669 100.524L645.63 100.791L644.134 100.844L643.069 100.658L641.802 100.151L641.117 99.7241L640.408 99.0839L639.85 98.3905L639.368 97.5636L638.963 96.2566L638.887 95.6165V65.6895L638.963 64.7559L639.242 63.7957L639.723 62.8089L640.357 61.9286ZM640.839 15.1177L641.092 14.9577L641.396 14.771L641.852 14.5576L642.689 14.2642L643.044 14.1842L643.779 14.0775H644.92L645.731 14.1842L646.39 14.3709L647.556 14.8777L648.545 15.5711L649.66 16.9848L649.965 17.7583L650.142 19.1453V27.814V31.8416V36.4293V39.7101L650.167 44.1111V45.2848L650.066 46.2449L649.686 47.2852L649.103 48.1388L648.545 48.6989L647.404 49.4724L646.137 49.9791L645.021 50.1926L643.424 50.1659L642.005 49.7925L640.382 48.8856L639.647 48.1388L639.115 47.3385L638.709 46.0849L638.633 45.2314V33.682V30.8814V27.5206V24.8V19.4387V18.7719L638.785 17.8116L639.064 17.0915L639.647 16.2113L640.484 15.3845L640.839 15.1177Z" fill="#000200"/>
<path d="M614.322 0.500977L648.444 0.527675L654.604 0.821038L657.57 1.1411L659.699 1.48786L662.234 2.10137L665.352 3.3283L666.949 4.20855L668.267 5.0087L669.383 5.80885L670.194 6.58239L671.005 7.7293L671.664 9.06295L672.501 11.1701L673.033 13.0373L673.667 16.6114L673.946 19.2787L674.047 20.5056L674.149 22.2127L674.25 29.281L673.92 34.3756L673.261 38.8033L672.298 42.7508L671.081 46.0316L670.27 47.6053L669.357 49.019L668.039 50.5926L667.051 51.4462L666.341 51.8996L666.366 52.3798L667.608 52.9932L669.003 54.0602L670.524 55.7939L671.335 57.1008L672.906 60.8084L674.073 65.2894L674.909 71.9576L675.112 76.9988L674.96 83.2936L674.706 86.7611L674.351 90.3352L673.54 95.8032L672.805 99.6174L671.943 103.218L671.056 106.179L670.625 107.139L670.017 108.366L668.648 110.233L667.913 111.007L666.468 112.18L665.099 112.981L664.059 113.487L662.564 114.047L660.84 114.501L659.42 114.794L657.164 115.061L655.136 115.248L652.652 115.328H650.041L644.058 115.354H614.348V0.500977H614.322ZM640.357 61.9553L641.269 61.1818L642.385 60.5683L643.627 60.2216L644.768 60.1416L646.441 60.4082L647.43 60.835L648.292 61.3952L648.976 62.0353L649.483 62.6755L649.889 63.369L650.345 65.1294L650.37 66.9431V94.5229V95.5898L650.32 96.23L649.863 97.6703L649.255 98.6305L648.697 99.2707L647.556 100.124L646.669 100.524L645.63 100.791L644.134 100.844L643.069 100.658L641.802 100.151L641.117 99.7241L640.408 99.0839L639.85 98.3905L639.368 97.5636L638.963 96.2566L638.887 95.6165V65.6895L638.963 64.7559L639.242 63.7958L639.723 62.8089L640.357 61.9553ZM640.839 15.1177L641.092 14.9577L641.396 14.771L641.852 14.5576L642.689 14.2642L643.044 14.1842L643.779 14.0775H644.92L645.731 14.1842L646.39 14.3709L647.556 14.8777L648.545 15.5711L649.66 16.9848L649.965 17.7583L650.142 19.1453V27.814V31.8416V36.4294V39.7101L650.167 44.1112V45.2848L650.066 46.245L649.686 47.2852L649.103 48.1388L648.545 48.6989L647.404 49.4724L646.137 49.9791L645.021 50.1926L643.424 50.1659L642.005 49.7925L640.382 48.8856L639.647 48.1388L639.115 47.3385L638.709 46.0849L638.633 45.2314V33.682V30.8814V27.5206V24.8V19.4387V18.7719L638.785 17.8117L639.064 17.1182L639.647 16.238L640.484 15.4378L640.839 15.1177Z" stroke="#000200" stroke-width="0.162"/>
<path fill-rule="evenodd" clip-rule="evenodd" d="M1070.22 52.5915C1070.22 46.6968 1070.14 40.2154 1076.05 40.2154H1077.09C1081.6 40.2154 1082.24 47.5237 1082.24 52.2448V90.4403C1082.24 95.0014 1081.42 100.416 1077.09 100.416H1075.04C1070.52 100.416 1070.22 92.5208 1070.22 87.693V52.5915ZM1045.88 52.5915V89.4001C1045.88 104.71 1059.95 116.206 1075.37 116.206H1079.47C1094.28 116.206 1106.55 103.11 1106.55 87.3196V51.5513C1106.55 34.3206 1093.47 22.6646 1076.38 22.6646C1057.98 22.6646 1045.88 33.9472 1045.88 52.5915Z" fill="#000200"/>
<path d="M1070.22 52.5915C1070.22 46.6968 1070.14 40.2154 1076.05 40.2154H1077.09C1081.6 40.2154 1082.24 47.5237 1082.24 52.2448V90.4403C1082.24 95.0281 1081.42 100.416 1077.09 100.416H1075.04C1070.52 100.416 1070.22 92.5208 1070.22 87.693V52.5915ZM1045.88 52.5915V89.4001C1045.88 104.71 1059.95 116.206 1075.37 116.206H1079.47C1094.28 116.206 1106.55 103.11 1106.55 87.3196V51.5513C1106.55 34.3206 1093.47 22.6646 1076.38 22.6646C1057.98 22.6646 1045.88 33.9472 1045.88 52.5915Z" stroke="#000200" stroke-width="0.162"/>
<path fill-rule="evenodd" clip-rule="evenodd" d="M1009.33 49.6051C1009.33 45.3908 1008.54 38.4025 1004.81 38.4025H1001.34C998.35 38.4025 996.829 45.1507 996.829 48.5648V55.9266C996.829 64.4085 997.184 72.8372 997.184 80.8124C997.184 89.1077 995.106 99.7235 1003.09 99.7235C1007.3 99.7235 1009.35 95.109 1009.35 90.9748V49.6051H1009.33ZM1033.99 115.46H1009.33V109.512C1006.87 110.179 1004.08 116.527 996.145 116.527H994.396C981.797 116.527 972.519 105.031 972.519 92.7085V45.0441C972.519 33.8148 981.873 21.2251 992.672 21.2251H996.145C1004.03 21.2251 1006.08 26.8264 1009 27.8933V0.900391H1033.99V115.46Z" fill="#000200"/>
<path d="M1009.33 49.6052C1009.33 45.3909 1008.54 38.4026 1004.81 38.4026H1001.34C998.35 38.4026 996.829 45.1508 996.829 48.565V55.9267C996.829 64.4087 997.184 72.8374 997.184 80.8125C997.184 89.1078 995.106 99.7236 1003.09 99.7236C1007.3 99.7236 1009.35 95.1092 1009.35 90.9482V49.6052H1009.33ZM1033.99 115.487H1009.33V109.539C1006.87 110.206 1004.08 116.554 996.145 116.554H994.396C981.797 116.554 972.519 105.058 972.519 92.7353V45.0708C972.519 33.8415 981.873 21.252 992.672 21.252H996.145C1004.03 21.252 1006.08 26.8533 1009 27.9202V0.927246H1033.99V115.487Z" stroke="#000200" stroke-width="0.162"/>
<path fill-rule="evenodd" clip-rule="evenodd" d="M1140.13 115.886C1135.29 115.886 1130.73 115.193 1126.45 113.806C1122.14 112.419 1118.59 110.819 1115.77 108.951V86.1728H1117.47C1118.46 87.1597 1119.55 88.2267 1120.82 89.4003C1122.06 90.6005 1123.78 91.8275 1126.01 93.1078C1127.92 94.308 1130.07 95.2949 1132.45 96.1751C1134.86 97.002 1137.47 97.4287 1140.26 97.4287C1143.15 97.4287 1145.69 96.8419 1147.89 95.6683C1150.07 94.468 1151.19 92.601 1151.19 90.0404C1151.19 88.0133 1150.68 86.5195 1149.67 85.506C1148.65 84.4657 1146.7 83.4789 1143.76 82.5453C1142.21 82.0385 1140.24 81.5051 1137.85 80.8916C1135.47 80.3315 1133.39 79.638 1131.54 78.8644C1126.4 76.7573 1122.54 73.6365 1119.96 69.5022C1117.37 65.3679 1116.05 59.9267 1116.05 53.2051C1116.05 49.3643 1116.74 45.7101 1118.08 42.2959C1119.42 38.9085 1121.38 35.8677 1124.01 33.1738C1126.62 30.5598 1129.84 28.4794 1133.7 26.9323C1137.52 25.3853 1141.86 24.6118 1146.68 24.6118C1151.29 24.6118 1155.5 25.2253 1159.35 26.4256C1163.2 27.6258 1166.45 29.0929 1169.11 30.7732V52.6183H1167.49C1166.78 51.9248 1165.69 50.9379 1164.14 49.7376C1162.62 48.5373 1161.15 47.4971 1159.71 46.6436C1158.01 45.63 1156.08 44.7498 1153.95 44.083C1151.85 43.4162 1149.67 43.0961 1147.46 43.0961C1144.52 43.0961 1141.99 43.7629 1139.96 45.0966C1137.9 46.4302 1136.89 48.1906 1136.89 50.4311C1136.89 52.3783 1137.4 53.8986 1138.41 55.0456C1139.43 56.1658 1141.63 57.2861 1145.03 58.353C1146.78 58.9131 1148.8 59.4732 1151.06 60.0067C1153.34 60.5668 1155.52 61.287 1157.65 62.2206C1162.37 64.2211 1165.94 67.1817 1168.35 71.0226C1170.78 74.9169 1172 80.0647 1172 86.4662C1172 90.5205 1171.29 94.3881 1169.85 98.069C1168.38 101.723 1166.35 104.817 1163.69 107.351C1160.87 110.072 1157.58 112.179 1153.8 113.673C1149.95 115.14 1145.41 115.886 1140.13 115.886Z" fill="#000200"/>
<path d="M1140.13 115.886C1135.29 115.886 1130.73 115.193 1126.45 113.806C1122.14 112.419 1118.59 110.819 1115.77 108.951V86.1728H1117.47C1118.46 87.1597 1119.55 88.2267 1120.82 89.4003C1122.06 90.5739 1123.78 91.8275 1126.01 93.1078C1127.92 94.308 1130.07 95.2949 1132.45 96.1751C1134.86 97.002 1137.47 97.4287 1140.26 97.4287C1143.15 97.4287 1145.69 96.8419 1147.89 95.6683C1150.07 94.468 1151.19 92.601 1151.19 90.0404C1151.19 88.0133 1150.68 86.5195 1149.67 85.506C1148.65 84.4657 1146.7 83.4789 1143.76 82.5453C1142.21 82.0385 1140.24 81.5051 1137.85 80.8916C1135.47 80.3048 1133.39 79.638 1131.54 78.8644C1126.4 76.7573 1122.54 73.6365 1119.96 69.5022C1117.37 65.3679 1116.05 59.9267 1116.05 53.2051C1116.05 49.3643 1116.74 45.7101 1118.08 42.2959C1119.42 38.9085 1121.38 35.8677 1124.01 33.1738C1126.62 30.5598 1129.84 28.4794 1133.7 26.9323C1137.52 25.3853 1141.86 24.6118 1146.68 24.6118C1151.29 24.6118 1155.5 25.2253 1159.35 26.4256C1163.2 27.6258 1166.45 29.0929 1169.11 30.7732V52.6183H1167.49C1166.78 51.8982 1165.69 50.9379 1164.14 49.7376C1162.62 48.5373 1161.15 47.4971 1159.71 46.6436C1158.01 45.63 1156.08 44.7498 1153.95 44.083C1151.85 43.4162 1149.67 43.0961 1147.46 43.0961C1144.52 43.0961 1141.99 43.7629 1139.96 45.0966C1137.9 46.4302 1136.89 48.1906 1136.89 50.4311C1136.89 52.3783 1137.4 53.8986 1138.41 55.0456C1139.43 56.1658 1141.63 57.2861 1145.03 58.353C1146.78 58.9131 1148.8 59.4732 1151.06 60.0067C1153.34 60.5668 1155.52 61.287 1157.65 62.2206C1162.37 64.2211 1165.94 67.1817 1168.35 71.0226C1170.78 74.9169 1172 80.0647 1172 86.4662C1172 90.5205 1171.29 94.3881 1169.85 98.069C1168.38 101.723 1166.35 104.817 1163.69 107.351C1160.87 110.072 1157.58 112.179 1153.8 113.673C1149.95 115.14 1145.41 115.886 1140.13 115.886Z" stroke="#000200" stroke-width="0.162"/>
<path fill-rule="evenodd" clip-rule="evenodd" d="M932.187 100.417H930.464C927.219 100.417 925.318 98.2563 925.318 94.9222V86.6536C925.318 79.0251 931.25 74.9975 937.308 73.5839C937.334 81.3724 939.133 100.417 932.187 100.417ZM904.759 52.2456H926.712V47.0977C926.712 44.137 928.41 40.5628 931.173 40.5628H933.227C938.474 40.5628 937.333 49.845 937.333 55.3396C933.556 55.6597 916.166 63.4215 913.048 65.3687C906.026 69.743 901.007 76.8113 901.007 88.0139V97.6429C901.007 106.418 910.057 116.901 919.512 116.901H921.566C931.072 116.901 932.213 113.46 937.333 110.019V115.514H961.67V45.0173C961.67 33.1211 948.918 23.3589 937.004 23.3589H930.489C916.268 23.3589 904.759 36.962 904.759 52.2456Z" fill="#000200"/>
<path d="M932.187 100.417H930.464C927.219 100.417 925.318 98.283 925.318 94.9222V86.6536C925.318 79.0518 931.25 74.9975 937.308 73.5839C937.334 81.3724 939.133 100.417 932.187 100.417ZM904.759 52.2456H926.712V47.0977C926.712 44.137 928.41 40.5628 931.173 40.5628H933.227C938.474 40.5628 937.333 49.845 937.333 55.3396C933.556 55.6597 916.166 63.4215 913.048 65.3687C906.026 69.743 901.007 76.8113 901.007 88.0139V97.6429C901.007 106.418 910.057 116.901 919.512 116.901H921.566C931.072 116.901 932.213 113.46 937.333 110.019V115.514H961.67V45.0173C961.67 33.1211 948.918 23.3589 937.004 23.3589H930.489C916.268 23.3589 904.759 36.962 904.759 52.2456Z" stroke="#000200" stroke-width="0.162"/>
<path fill-rule="evenodd" clip-rule="evenodd" d="M747.79 18.5841H723.581L723.327 0.259859L747.79 0.206543V18.5841Z" fill="#000200"/>
<path d="M747.79 18.5841H723.581L723.327 0.259859L747.79 0.206543V18.5841Z" stroke="#000200" stroke-width="0.162"/>
<path fill-rule="evenodd" clip-rule="evenodd" d="M747.968 115.408L723.505 115.274L723.403 26.9604H748.018L747.968 115.408Z" fill="#000200"/>
<path d="M747.968 115.408L723.505 115.274L723.403 26.9604H748.018L747.968 115.408Z" stroke="#000200" stroke-width="0.162"/>
<path fill-rule="evenodd" clip-rule="evenodd" d="M711.49 115.514L687.407 115.274V0.473633L711.49 0.527031V115.514Z" fill="#000200"/>
<path d="M711.49 115.514L687.407 115.274V0.473633L711.49 0.527031V115.514Z" stroke="#000200" stroke-width="0.162"/>
<path fill-rule="evenodd" clip-rule="evenodd" d="M759.553 45.471V115.301H783.559V40.3231C785.233 39.9497 786.601 38.6161 789.035 38.6161H791.088C793.218 38.6161 795.195 41.9769 795.195 44.8042V115.674H819.886V45.8177C819.886 30.1874 806.248 22.6124 790.227 22.6924C782.444 22.4257 759.908 21.6521 759.857 25.4397C759.832 26.3732 759.832 26.2398 759.832 27.0667C759.629 43.8439 760.06 39.0429 759.553 45.471Z" fill="#000200"/>
<path d="M759.553 45.471V115.301H783.559V40.3231C785.233 39.9497 786.601 38.6161 789.035 38.6161H791.088C793.218 38.6161 795.195 41.9769 795.195 44.8042V115.674H819.886V45.8177C819.886 30.1874 806.248 22.6124 790.227 22.6924C782.444 22.4257 759.908 21.6521 759.857 25.4397C759.832 26.3732 759.832 26.2398 759.832 27.0667C759.629 43.8439 760.06 39.0429 759.553 45.471Z" stroke="#000200" stroke-width="0.162"/>
<path fill-rule="evenodd" clip-rule="evenodd" d="M865.796 49.4185C865.796 45.2309 864.985 38.2693 861.309 38.2693H857.861C854.87 38.2693 853.374 44.9909 853.374 48.3783V55.7134C853.374 64.1687 853.729 72.5439 853.729 80.4924C853.729 88.7343 851.651 99.3235 859.611 99.3235C863.793 99.3235 865.847 94.7624 865.847 90.6014V49.4185H865.796ZM890.335 115.007H865.796V109.086C863.337 109.753 860.574 116.047 852.665 116.047H850.941C838.393 116.047 829.165 104.605 829.165 92.3352V44.8842C829.165 33.7082 838.494 21.172 849.217 21.172H852.665C860.523 21.172 862.577 26.7466 865.466 27.7869V0.927246H890.36V115.007H890.335Z" fill="#000200"/>
<path d="M865.796 49.4185C865.796 45.2309 864.985 38.2693 861.309 38.2693H857.861C854.87 38.2693 853.374 44.9909 853.374 48.3783V55.7134C853.374 64.1687 853.729 72.5439 853.729 80.4924C853.729 88.7343 851.651 99.3235 859.611 99.3235C863.793 99.3235 865.847 94.7624 865.847 90.6014V49.4185H865.796ZM890.335 115.007H865.796V109.086C863.337 109.753 860.574 116.047 852.665 116.047H850.941C838.393 116.047 829.165 104.605 829.165 92.3352V44.8842C829.165 33.7082 838.494 21.172 849.217 21.172H852.665C860.523 21.172 862.577 26.7466 865.466 27.7869V0.927246H890.36V115.007H890.335Z" stroke="#000200" stroke-width="0.162"/>
<path fill-rule="evenodd" clip-rule="evenodd" d="M614.322 0.500977L648.444 0.527675L654.604 0.821038L657.57 1.1411L659.699 1.48786L662.234 2.10137L665.352 3.32829L666.949 4.20855L668.267 5.0087L669.383 5.80885L670.194 6.58239L671.005 7.7293L671.664 9.06295L672.501 11.1701L673.033 13.0373L673.667 16.6114L673.946 19.2787L674.047 20.5056L674.149 22.2127L674.25 29.281L673.92 34.3756L673.261 38.8033L672.298 42.7508L671.081 46.0316L670.27 47.6053L669.357 49.0189L668.039 50.5926L667.051 51.4462L666.341 51.8996L666.366 52.3798L667.608 52.9932L669.003 54.0602L670.524 55.7939L671.335 57.1008L672.906 60.8084L674.073 65.2894L674.909 71.9576L675.112 76.9988L674.96 83.2936L674.706 86.761L674.351 90.3352L673.54 95.8032L672.805 99.6174L671.943 103.218L671.056 106.179L670.625 107.139L670.017 108.366L668.648 110.233L667.913 111.007L666.468 112.18L665.099 112.981L664.059 113.487L662.564 114.074L660.84 114.528L659.42 114.821L657.164 115.088L655.136 115.301L652.652 115.381H650.041L644.058 115.408H614.348V0.500977H614.322ZM640.357 61.9286L641.269 61.1551L642.385 60.5416L643.627 60.2216L644.768 60.1416L646.441 60.4349L647.43 60.8617L648.292 61.4218L648.976 62.062L649.483 62.7021L649.889 63.3957L650.345 65.156L650.37 66.9698V94.5496V95.6165L650.32 96.23L649.863 97.6702L649.255 98.6305L648.697 99.2706L647.556 100.124L646.669 100.524L645.63 100.791L644.134 100.844L643.069 100.658L641.802 100.151L641.117 99.7241L640.408 99.0839L639.85 98.3905L639.368 97.5636L638.963 96.2566L638.887 95.6165V65.6895L638.963 64.7559L639.242 63.7957L639.723 62.8089L640.357 61.9286ZM640.839 15.1177L641.092 14.9577L641.396 14.771L641.852 14.5576L642.689 14.2642L643.044 14.1842L643.779 14.0775H644.92L645.731 14.1842L646.39 14.3709L647.556 14.8777L648.545 15.5711L649.66 16.9848L649.965 17.7583L650.142 19.1453V27.814V31.8416V36.4293V39.7101L650.167 44.1111V45.2848L650.066 46.2449L649.686 47.2852L649.103 48.1388L648.545 48.6989L647.404 49.4724L646.137 49.9791L645.021 50.1926L643.424 50.1659L642.005 49.7925L640.382 48.8856L639.647 48.1388L639.115 47.3385L638.709 46.0849L638.633 45.2314V33.682V30.8814V27.5206V24.8V19.4387V18.7719L638.785 17.8116L639.064 17.0915L639.647 16.2113L640.484 15.3845L640.839 15.1177Z" fill="#000200"/>
<path d="M614.322 0.500977L648.444 0.527675L654.604 0.821038L657.57 1.1411L659.699 1.48786L662.234 2.10137L665.352 3.3283L666.949 4.20855L668.267 5.0087L669.383 5.80885L670.194 6.58239L671.005 7.7293L671.664 9.06295L672.501 11.1701L673.033 13.0373L673.667 16.6114L673.946 19.2787L674.047 20.5056L674.149 22.2127L674.25 29.281L673.92 34.3756L673.261 38.8033L672.298 42.7508L671.081 46.0316L670.27 47.6053L669.357 49.019L668.039 50.5926L667.051 51.4462L666.341 51.8996L666.366 52.3798L667.608 52.9932L669.003 54.0602L670.524 55.7939L671.335 57.1008L672.906 60.8084L674.073 65.2894L674.909 71.9576L675.112 76.9988L674.96 83.2936L674.706 86.7611L674.351 90.3352L673.54 95.8032L672.805 99.6174L671.943 103.218L671.056 106.179L670.625 107.139L670.017 108.366L668.648 110.233L667.913 111.007L666.468 112.18L665.099 112.981L664.059 113.487L662.564 114.047L660.84 114.501L659.42 114.794L657.164 115.061L655.136 115.248L652.652 115.328H650.041L644.058 115.354H614.348V0.500977H614.322ZM640.357 61.9553L641.269 61.1818L642.385 60.5683L643.627 60.2216L644.768 60.1416L646.441 60.4082L647.43 60.835L648.292 61.3952L648.976 62.0353L649.483 62.6755L649.889 63.369L650.345 65.1294L650.37 66.9431V94.5229V95.5898L650.32 96.23L649.863 97.6703L649.255 98.6305L648.697 99.2707L647.556 100.124L646.669 100.524L645.63 100.791L644.134 100.844L643.069 100.658L641.802 100.151L641.117 99.7241L640.408 99.0839L639.85 98.3905L639.368 97.5636L638.963 96.2566L638.887 95.6165V65.6895L638.963 64.7559L639.242 63.7958L639.723 62.8089L640.357 61.9553ZM640.839 15.1177L641.092 14.9577L641.396 14.771L641.852 14.5576L642.689 14.2642L643.044 14.1842L643.779 14.0775H644.92L645.731 14.1842L646.39 14.3709L647.556 14.8777L648.545 15.5711L649.66 16.9848L649.965 17.7583L650.142 19.1453V27.814V31.8416V36.4294V39.7101L650.167 44.1112V45.2848L650.066 46.245L649.686 47.2852L649.103 48.1388L648.545 48.6989L647.404 49.4724L646.137 49.9791L645.021 50.1926L643.424 50.1659L642.005 49.7925L640.382 48.8856L639.647 48.1388L639.115 47.3385L638.709 46.0849L638.633 45.2314V33.682V30.8814V27.5206V24.8V19.4387V18.7719L638.785 17.8117L639.064 17.1182L639.647 16.238L640.484 15.4378L640.839 15.1177Z" stroke="#000200" stroke-width="0.162"/>
<path fill-rule="evenodd" clip-rule="evenodd" d="M1070.22 52.5915C1070.22 46.6968 1070.14 40.2154 1076.05 40.2154H1077.09C1081.6 40.2154 1082.24 47.5237 1082.24 52.2448V90.4403C1082.24 95.0014 1081.42 100.416 1077.09 100.416H1075.04C1070.52 100.416 1070.22 92.5208 1070.22 87.693V52.5915ZM1045.88 52.5915V89.4001C1045.88 104.71 1059.95 116.206 1075.37 116.206H1079.47C1094.28 116.206 1106.55 103.11 1106.55 87.3196V51.5513C1106.55 34.3206 1093.47 22.6646 1076.38 22.6646C1057.98 22.6646 1045.88 33.9472 1045.88 52.5915Z" fill="#000200"/>
<path d="M1070.22 52.5915C1070.22 46.6968 1070.14 40.2154 1076.05 40.2154H1077.09C1081.6 40.2154 1082.24 47.5237 1082.24 52.2448V90.4403C1082.24 95.0281 1081.42 100.416 1077.09 100.416H1075.04C1070.52 100.416 1070.22 92.5208 1070.22 87.693V52.5915ZM1045.88 52.5915V89.4001C1045.88 104.71 1059.95 116.206 1075.37 116.206H1079.47C1094.28 116.206 1106.55 103.11 1106.55 87.3196V51.5513C1106.55 34.3206 1093.47 22.6646 1076.38 22.6646C1057.98 22.6646 1045.88 33.9472 1045.88 52.5915Z" stroke="#000200" stroke-width="0.162"/>
<path fill-rule="evenodd" clip-rule="evenodd" d="M1009.33 49.6051C1009.33 45.3908 1008.54 38.4025 1004.81 38.4025H1001.34C998.35 38.4025 996.829 45.1507 996.829 48.5648V55.9266C996.829 64.4085 997.184 72.8372 997.184 80.8124C997.184 89.1077 995.106 99.7235 1003.09 99.7235C1007.3 99.7235 1009.35 95.109 1009.35 90.9748V49.6051H1009.33ZM1033.99 115.46H1009.33V109.512C1006.87 110.179 1004.08 116.527 996.145 116.527H994.396C981.797 116.527 972.519 105.031 972.519 92.7085V45.0441C972.519 33.8148 981.873 21.2251 992.672 21.2251H996.145C1004.03 21.2251 1006.08 26.8264 1009 27.8933V0.900391H1033.99V115.46Z" fill="#000200"/>
<path d="M1009.33 49.6052C1009.33 45.3909 1008.54 38.4026 1004.81 38.4026H1001.34C998.35 38.4026 996.829 45.1508 996.829 48.565V55.9267C996.829 64.4087 997.184 72.8374 997.184 80.8125C997.184 89.1078 995.106 99.7236 1003.09 99.7236C1007.3 99.7236 1009.35 95.1092 1009.35 90.9482V49.6052H1009.33ZM1033.99 115.487H1009.33V109.539C1006.87 110.206 1004.08 116.554 996.145 116.554H994.396C981.797 116.554 972.519 105.058 972.519 92.7353V45.0708C972.519 33.8415 981.873 21.252 992.672 21.252H996.145C1004.03 21.252 1006.08 26.8533 1009 27.9202V0.927246H1033.99V115.487Z" stroke="#000200" stroke-width="0.162"/>
<path fill-rule="evenodd" clip-rule="evenodd" d="M1140.13 115.886C1135.29 115.886 1130.73 115.193 1126.45 113.806C1122.14 112.419 1118.59 110.819 1115.77 108.951V86.1728H1117.47C1118.46 87.1597 1119.55 88.2267 1120.82 89.4003C1122.06 90.6005 1123.78 91.8275 1126.01 93.1078C1127.92 94.308 1130.07 95.2949 1132.45 96.1751C1134.86 97.002 1137.47 97.4287 1140.26 97.4287C1143.15 97.4287 1145.69 96.8419 1147.89 95.6683C1150.07 94.468 1151.19 92.601 1151.19 90.0404C1151.19 88.0133 1150.68 86.5195 1149.67 85.506C1148.65 84.4657 1146.7 83.4789 1143.76 82.5453C1142.21 82.0385 1140.24 81.5051 1137.85 80.8916C1135.47 80.3315 1133.39 79.638 1131.54 78.8644C1126.4 76.7573 1122.54 73.6365 1119.96 69.5022C1117.37 65.3679 1116.05 59.9267 1116.05 53.2051C1116.05 49.3643 1116.74 45.7101 1118.08 42.2959C1119.42 38.9085 1121.38 35.8677 1124.01 33.1738C1126.62 30.5598 1129.84 28.4794 1133.7 26.9323C1137.52 25.3853 1141.86 24.6118 1146.68 24.6118C1151.29 24.6118 1155.5 25.2253 1159.35 26.4256C1163.2 27.6258 1166.45 29.0929 1169.11 30.7732V52.6183H1167.49C1166.78 51.9248 1165.69 50.9379 1164.14 49.7376C1162.62 48.5373 1161.15 47.4971 1159.71 46.6436C1158.01 45.63 1156.08 44.7498 1153.95 44.083C1151.85 43.4162 1149.67 43.0961 1147.46 43.0961C1144.52 43.0961 1141.99 43.7629 1139.96 45.0966C1137.9 46.4302 1136.89 48.1906 1136.89 50.4311C1136.89 52.3783 1137.4 53.8986 1138.41 55.0456C1139.43 56.1658 1141.63 57.2861 1145.03 58.353C1146.78 58.9131 1148.8 59.4732 1151.06 60.0067C1153.34 60.5668 1155.52 61.287 1157.65 62.2206C1162.37 64.2211 1165.94 67.1817 1168.35 71.0226C1170.78 74.9169 1172 80.0647 1172 86.4662C1172 90.5205 1171.29 94.3881 1169.85 98.069C1168.38 101.723 1166.35 104.817 1163.69 107.351C1160.87 110.072 1157.58 112.179 1153.8 113.673C1149.95 115.14 1145.41 115.886 1140.13 115.886Z" fill="#000200"/>
<path d="M1140.13 115.886C1135.29 115.886 1130.73 115.193 1126.45 113.806C1122.14 112.419 1118.59 110.819 1115.77 108.951V86.1728H1117.47C1118.46 87.1597 1119.55 88.2267 1120.82 89.4003C1122.06 90.5739 1123.78 91.8275 1126.01 93.1078C1127.92 94.308 1130.07 95.2949 1132.45 96.1751C1134.86 97.002 1137.47 97.4287 1140.26 97.4287C1143.15 97.4287 1145.69 96.8419 1147.89 95.6683C1150.07 94.468 1151.19 92.601 1151.19 90.0404C1151.19 88.0133 1150.68 86.5195 1149.67 85.506C1148.65 84.4657 1146.7 83.4789 1143.76 82.5453C1142.21 82.0385 1140.24 81.5051 1137.85 80.8916C1135.47 80.3048 1133.39 79.638 1131.54 78.8644C1126.4 76.7573 1122.54 73.6365 1119.96 69.5022C1117.37 65.3679 1116.05 59.9267 1116.05 53.2051C1116.05 49.3643 1116.74 45.7101 1118.08 42.2959C1119.42 38.9085 1121.38 35.8677 1124.01 33.1738C1126.62 30.5598 1129.84 28.4794 1133.7 26.9323C1137.52 25.3853 1141.86 24.6118 1146.68 24.6118C1151.29 24.6118 1155.5 25.2253 1159.35 26.4256C1163.2 27.6258 1166.45 29.0929 1169.11 30.7732V52.6183H1167.49C1166.78 51.8982 1165.69 50.9379 1164.14 49.7376C1162.62 48.5373 1161.15 47.4971 1159.71 46.6436C1158.01 45.63 1156.08 44.7498 1153.95 44.083C1151.85 43.4162 1149.67 43.0961 1147.46 43.0961C1144.52 43.0961 1141.99 43.7629 1139.96 45.0966C1137.9 46.4302 1136.89 48.1906 1136.89 50.4311C1136.89 52.3783 1137.4 53.8986 1138.41 55.0456C1139.43 56.1658 1141.63 57.2861 1145.03 58.353C1146.78 58.9131 1148.8 59.4732 1151.06 60.0067C1153.34 60.5668 1155.52 61.287 1157.65 62.2206C1162.37 64.2211 1165.94 67.1817 1168.35 71.0226C1170.78 74.9169 1172 80.0647 1172 86.4662C1172 90.5205 1171.29 94.3881 1169.85 98.069C1168.38 101.723 1166.35 104.817 1163.69 107.351C1160.87 110.072 1157.58 112.179 1153.8 113.673C1149.95 115.14 1145.41 115.886 1140.13 115.886Z" stroke="#000200" stroke-width="0.162"/>
</svg>
