<svg width="120" height="164" viewBox="0 0 120 164" fill="none" xmlns="http://www.w3.org/2000/svg">
<path d="M2.25482 0H117.745V120H2.25482V0Z" fill="#F7DF1E"/>
<path d="M32.62 100.28L41.4581 94.7229C43.1632 97.8641 44.7142 100.522 48.4347 100.522C52.0009 100.522 54.2493 99.0723 54.2493 93.4342V55.0913H65.1025V93.5936C65.1025 105.274 58.5133 110.59 48.8999 110.59C40.2178 110.59 35.178 105.918 32.6198 100.28" fill="#1F2626"/>
<path d="M70.9998 99.0723L79.8369 93.7559C82.1632 97.7033 85.1866 100.603 90.5355 100.603C95.0325 100.603 97.9001 98.2668 97.9001 95.0447C97.9001 91.1782 94.9544 89.8087 89.9927 87.554L87.2801 86.3449C79.4497 82.8818 74.2554 78.5321 74.2554 69.3491C74.2554 60.8912 80.4572 54.4468 90.1481 54.4468C97.0479 54.4468 102.009 56.9441 105.575 63.4689L97.1248 69.1071C95.2642 65.6437 93.2491 64.2746 90.1483 64.2746C86.9698 64.2746 84.954 66.3689 84.954 69.1071C84.954 72.4904 86.9698 73.8601 91.6207 75.9546L94.3338 77.1628C103.559 81.2711 108.754 85.4593 108.754 94.8835C108.754 105.034 101.079 110.591 90.7683 110.591C80.6902 110.591 74.178 105.597 71 99.0723" fill="#1F2626"/>
<path d="M10.055 158.096C9.42568 158.096 8.83368 157.957 8.27901 157.68C7.73501 157.403 7.29768 157.008 6.96701 156.496L7.65501 155.696C7.96434 156.144 8.32168 156.485 8.72701 156.72C9.13234 156.955 9.58034 157.072 10.071 157.072C11.4577 157.072 12.151 156.251 12.151 154.608V147.824H8.05501V146.8H13.319V154.56C13.319 155.744 13.0417 156.629 12.487 157.216C11.943 157.803 11.1323 158.096 10.055 158.096ZM17.0103 158L22.1303 146.8H23.2983L28.4183 158H27.1703L22.4663 147.488H22.9463L18.2423 158H17.0103ZM19.0263 155.008L19.3783 154.048H25.8903L26.2423 155.008H19.0263ZM35.043 158L30.083 146.8H31.363L36.003 157.344H35.299L39.971 146.8H41.171L36.211 158H35.043ZM42.8269 158L47.9469 146.8H49.1149L54.2349 158H52.9869L48.2829 147.488H48.7629L44.0589 158H42.8269ZM44.8429 155.008L45.1949 154.048H51.7069L52.0589 155.008H44.8429ZM62.9614 158.096C62.1188 158.096 61.3401 157.957 60.6254 157.68C59.9108 157.392 59.2921 156.992 58.7694 156.48C58.2468 155.968 57.8361 155.365 57.5374 154.672C57.2494 153.979 57.1054 153.221 57.1054 152.4C57.1054 151.579 57.2494 150.821 57.5374 150.128C57.8361 149.435 58.2468 148.832 58.7694 148.32C59.3028 147.808 59.9268 147.413 60.6414 147.136C61.3561 146.848 62.1348 146.704 62.9774 146.704C63.7881 146.704 64.5508 146.843 65.2654 147.12C65.9801 147.387 66.5828 147.792 67.0734 148.336L66.3214 149.088C65.8628 148.619 65.3561 148.283 64.8014 148.08C64.2468 147.867 63.6494 147.76 63.0094 147.76C62.3374 147.76 61.7134 147.877 61.1374 148.112C60.5614 148.336 60.0601 148.661 59.6334 149.088C59.2068 149.504 58.8708 149.995 58.6254 150.56C58.3908 151.115 58.2734 151.728 58.2734 152.4C58.2734 153.072 58.3908 153.691 58.6254 154.256C58.8708 154.811 59.2068 155.301 59.6334 155.728C60.0601 156.144 60.5614 156.469 61.1374 156.704C61.7134 156.928 62.3374 157.04 63.0094 157.04C63.6494 157.04 64.2468 156.933 64.8014 156.72C65.3561 156.507 65.8628 156.165 66.3214 155.696L67.0734 156.448C66.5828 156.992 65.9801 157.403 65.2654 157.68C64.5508 157.957 63.7828 158.096 62.9614 158.096ZM71.7635 158V146.8H75.9555C76.9048 146.8 77.7208 146.955 78.4035 147.264C79.0862 147.563 79.6088 148 79.9715 148.576C80.3448 149.141 80.5315 149.829 80.5315 150.64C80.5315 151.429 80.3448 152.112 79.9715 152.688C79.6088 153.253 79.0862 153.691 78.4035 154C77.7208 154.299 76.9048 154.448 75.9555 154.448H72.4195L72.9475 153.904V158H71.7635ZM79.4115 158L76.5315 153.936H77.8115L80.7075 158H79.4115ZM72.9475 154L72.4195 153.44H75.9235C77.0435 153.44 77.8915 153.195 78.4675 152.704C79.0542 152.213 79.3475 151.525 79.3475 150.64C79.3475 149.744 79.0542 149.051 78.4675 148.56C77.8915 148.069 77.0435 147.824 75.9235 147.824H72.4195L72.9475 147.264V154ZM85.4921 158V146.8H86.6761V158H85.4921ZM92.4863 158V146.8H96.6783C97.6276 146.8 98.4436 146.955 99.1263 147.264C99.809 147.563 100.332 148 100.694 148.576C101.068 149.141 101.254 149.829 101.254 150.64C101.254 151.429 101.068 152.112 100.694 152.688C100.332 153.253 99.809 153.691 99.1263 154C98.4436 154.309 97.6276 154.464 96.6783 154.464H93.1423L93.6703 153.904V158H92.4863ZM93.6703 154L93.1423 153.424H96.6463C97.7663 153.424 98.6143 153.184 99.1903 152.704C99.777 152.213 100.07 151.525 100.07 150.64C100.07 149.744 99.777 149.051 99.1903 148.56C98.6143 148.069 97.7663 147.824 96.6463 147.824H93.1423L93.6703 147.264V154ZM107.781 158V147.824H103.845V146.8H112.901V147.824H108.965V158H107.781Z" fill="#1F2626"/>
</svg>
