<svg width="23" height="22" viewBox="0 0 23 22" fill="none" xmlns="http://www.w3.org/2000/svg">
<g clip-path="url(#clip0_1_9961)">
<path fill-rule="evenodd" clip-rule="evenodd" d="M20.1709 22H3.0598C1.70977 22 0.615356 20.9056 0.615356 19.5556V2.44444C0.615356 1.09441 1.70977 0 3.0598 0H20.1709C21.5209 0 22.6154 1.09441 22.6154 2.44444V19.5556C22.6154 20.9056 21.5209 22 20.1709 22ZM16.2943 18.9445H19.5589V12.2379C19.5589 9.4003 17.9504 8.02828 15.7036 8.02828C13.4558 8.02828 12.5098 9.77872 12.5098 9.77872V8.3519H9.36356V18.9445H12.5098V13.384C12.5098 11.8941 13.1956 11.0075 14.5083 11.0075C15.715 11.0075 16.2943 11.8595 16.2943 13.384V18.9445ZM3.67004 5.01024C3.67004 6.08966 4.53845 6.96488 5.61012 6.96488C6.68179 6.96488 7.54968 6.08966 7.54968 5.01024C7.54968 3.93082 6.68179 3.0556 5.61012 3.0556C4.53845 3.0556 3.67004 3.93082 3.67004 5.01024ZM7.26625 18.9445H3.98555V8.3519H7.26625V18.9445Z" fill="#181818"/>
</g>
<defs>
<clipPath id="clip0_1_9961">
<rect width="22" height="22" fill="white" transform="translate(0.61145)"/>
</clipPath>
</defs>
</svg>
