<svg width="35" height="29" viewBox="0 0 35 29" fill="none" xmlns="http://www.w3.org/2000/svg">
<path d="M26.9809 16.3564C27.845 9.91846 22.9973 4.05995 16.1533 3.27101C9.3093 2.48207 3.06066 7.06146 2.19658 13.4994C1.33251 19.9373 6.1802 25.7958 13.0242 26.5848C19.8682 27.3737 26.1168 22.7943 26.9809 16.3564Z" fill="#3F64E9" fill-opacity="0.43"/>
<path d="M2.97756 20.8425C0.6122 20.2669 2.04891 17.3621 2.83727 16.2005C3.62564 15.039 4.55633 13.9545 5.56225 12.9595C7.79674 10.7728 10.5416 9.00865 13.4854 7.7118C16.6386 6.31787 20.0283 5.43602 23.4962 4.94697C25.0744 4.72491 34.5546 3.31294 33.0941 6.71999C32.7806 7.43125 33.9835 7.89311 34.2971 7.18185C34.7741 6.06524 34.3437 4.88443 33.3553 4.12409C32.1681 3.21964 30.5092 3.23042 29.0624 3.28583C25.4922 3.39949 21.9008 3.83388 18.4628 4.75056C12.1127 6.40216 6.10482 9.7294 2.30208 14.8258C1.34202 16.1292 0.264023 17.6613 0.412871 19.3147C0.515858 20.6598 1.44007 21.7359 2.83619 22.0584C3.64163 22.2321 3.78034 21.0361 2.97756 20.8425Z" fill="#161616"/>
<path d="M16.9084 8.68996C20.5767 7.03223 24.6431 6.47077 28.6863 7.05804C29.5212 7.17449 29.6814 5.98095 28.8465 5.8645C24.5912 5.23259 20.2591 5.82402 16.4029 7.5813C15.6381 7.91734 16.1436 9.026 16.9084 8.68996Z" fill="#161616"/>
<path d="M17.9289 1.41588C17.9289 1.41588 18.2269 1.47043 18.7611 1.55221C18.89 1.56707 19.0404 1.58439 19.2095 1.62409C19.3786 1.66379 19.5478 1.70349 19.7357 1.76556C19.9237 1.82762 20.1385 1.85238 20.3667 1.93929C20.5761 2.00383 20.8044 2.09075 21.0541 2.18014C22.0073 2.55262 23.162 3.04931 24.2874 3.92644C24.564 4.14013 24.838 4.37371 25.1308 4.62967C25.2892 4.74893 25.4021 4.88316 25.5364 5.01984C25.6707 5.15652 25.805 5.29319 25.9393 5.42988C26.0172 5.49946 26.0737 5.56656 26.1274 5.65356C26.1838 5.72066 26.2591 5.81013 26.3155 5.87724C26.4471 6.03381 26.5788 6.19041 26.7104 6.34698C26.9496 6.67755 27.1619 7.04541 27.3957 7.41576C28.2424 8.90716 28.7403 10.722 28.6988 12.6564C28.7097 12.9001 28.6562 13.1363 28.6456 13.3775C28.6296 13.4968 28.6136 13.6162 28.619 13.738L28.595 13.917L28.5897 13.9568L28.587 13.9767L28.5817 14.0165L28.571 14.0961C28.464 14.5685 28.3999 15.0459 28.2043 15.5284C27.9178 16.5256 27.4245 17.4383 26.8453 18.3411C26.6844 18.565 26.5262 18.769 26.3653 18.9928C26.2849 19.1047 26.2071 19.1968 26.1052 19.3062L25.8235 19.6172L25.5419 19.9281C25.4426 20.0176 25.3407 20.1271 25.2414 20.2167C25.0429 20.3958 24.8418 20.5948 24.6432 20.7739C23.7848 21.4829 22.8296 22.1 21.8018 22.6078C21.5469 22.7198 21.2705 22.8293 20.9941 22.9388L20.7874 23.016C20.7176 23.0484 20.6505 23.0608 20.5808 23.0932L20.1702 23.2277L19.7595 23.3621C19.6227 23.407 19.467 23.4294 19.3301 23.4742C19.0376 23.5415 18.7665 23.6113 18.4766 23.6586C17.3144 23.8681 16.1092 23.9109 14.9011 23.8121L14.0233 23.6907C13.8729 23.6734 13.7441 23.6585 13.5964 23.6213L13.1534 23.5096L12.7104 23.3979L12.4983 23.3533L12.2888 23.2888L11.435 22.9883C10.3394 22.5388 9.30552 21.9551 8.3762 21.2419C7.47103 20.5114 6.68927 19.6739 6.04705 18.7716C5.88045 18.5504 5.76215 18.2944 5.59556 18.0732C5.523 17.9638 5.45311 17.8346 5.38055 17.7252L5.18969 17.3598L5.02031 16.9969C4.97189 16.8701 4.89934 16.7607 4.85093 16.6339C4.7541 16.3804 4.65729 16.1268 4.58194 15.8757C4.26175 14.849 4.05161 13.8148 4.05624 12.8053C4.0156 12.2956 4.08236 11.7983 4.12763 11.2985L4.14097 11.1991L4.14631 11.1593L4.14898 11.1394C4.14898 11.1394 4.15699 11.0797 4.15432 11.0996L4.19982 10.9231C4.21584 10.8037 4.25335 10.6868 4.26937 10.5675C4.28538 10.4481 4.32288 10.3313 4.3389 10.2119C4.35492 10.0925 4.37094 9.97321 4.42991 9.85881C4.5049 9.62505 4.57989 9.3913 4.65488 9.15754C4.69238 9.04067 4.72988 8.92378 4.76738 8.8069C4.80488 8.69002 4.86117 8.59552 4.89867 8.47864C4.99247 8.26726 5.08894 8.03597 5.18274 7.82458C5.27654 7.6132 5.4133 7.40675 5.5259 7.21773C5.98434 6.40197 6.55828 5.70054 7.14569 5.06125C7.4488 4.75279 7.77072 4.46671 8.08996 4.20051C8.25899 4.0786 8.42803 3.95666 8.59706 3.83475C8.67217 3.76261 8.76608 3.71283 8.83852 3.66058C8.91363 3.58844 9.00755 3.53867 9.07999 3.48642C9.24635 3.38439 9.4127 3.28239 9.57906 3.18036C9.74541 3.07834 9.91177 2.9763 10.0755 2.89417C10.4243 2.73238 10.7544 2.54823 11.0791 2.40386C12.3994 1.82886 13.6528 1.58955 14.6728 1.46473C14.9385 1.43476 15.1801 1.4222 15.4029 1.38728C15.623 1.37225 15.8404 1.37712 16.0605 1.36209C16.2565 1.36448 16.4551 1.347 16.6081 1.34444C16.7826 1.34435 16.933 1.36166 17.0618 1.37652C17.6497 1.38368 17.9289 1.41588 17.9289 1.41588ZM17.9182 1.49546C17.9182 1.49546 17.6149 1.48068 17.0753 1.43868C16.9437 1.44372 16.7961 1.40648 16.6189 1.42646C16.4444 1.42655 16.2673 1.44653 16.0713 1.44414C15.8727 1.46165 15.6552 1.45678 15.4351 1.47181C15.2124 1.50673 14.9681 1.53917 14.7238 1.57162C14.5896 1.59655 14.4581 1.60159 14.3454 1.62899C14.2112 1.65392 14.0743 1.69873 13.9401 1.72366C13.8059 1.74859 13.6691 1.79343 13.5107 1.83577C13.3738 1.8806 13.2181 1.90306 13.0786 1.96777C12.7807 2.07483 12.4855 2.162 12.185 2.28895C11.8844 2.4159 11.5812 2.56274 11.2779 2.70959C10.0382 3.33428 8.7799 4.25984 7.69631 5.50853C7.176 6.13535 6.66915 6.82432 6.28316 7.58783C6.19203 7.77932 6.07942 7.96834 5.98829 8.15984C5.89716 8.35133 5.82484 8.56521 5.73104 8.7766C5.69622 8.87358 5.63725 8.98798 5.60243 9.08497C5.5676 9.18195 5.5301 9.29882 5.51675 9.39829C5.44443 9.61215 5.39358 9.8285 5.32126 10.0424C5.28643 10.1393 5.27041 10.2587 5.25439 10.378C5.23837 10.4974 5.22235 10.6168 5.18486 10.7336C5.16884 10.853 5.15283 10.9723 5.11533 11.0892L5.0913 11.2682L5.06994 11.4274C5.05149 11.8899 4.9686 12.3449 5.01191 12.8347C5.02282 13.0784 5.01492 13.2997 5.04732 13.5458C5.07971 13.7919 5.11478 14.0182 5.14717 14.2643C5.15808 14.508 5.23609 14.7391 5.28996 14.9878L5.37344 15.3408C5.40038 15.4651 5.42732 15.5894 5.4784 15.6963C5.55641 15.9275 5.63442 16.1587 5.73125 16.4122C5.75818 16.5365 5.83075 16.6459 5.88183 16.7528L6.03239 17.0933L6.18297 17.4339C6.23405 17.5408 6.30661 17.6502 6.37916 17.7595C6.5028 17.9758 6.64525 18.2144 6.76889 18.4306C7.35203 19.2857 8.07471 20.076 8.89664 20.7767C9.74272 21.4601 10.6881 22.0538 11.7165 22.5158L12.5033 22.8287L12.71 22.9131L12.9195 22.9776L13.3195 23.0844L13.7169 23.211C13.8431 23.2457 13.9934 23.2631 14.1411 23.3003L14.9921 23.459C16.1304 23.5902 17.3062 23.6045 18.4389 23.4523C19.5769 23.2603 20.688 22.944 21.7131 22.4561C21.9707 22.3242 22.2069 22.1898 22.4645 22.0579C22.5825 21.9908 22.7221 21.926 22.8186 21.8564L23.154 21.6324L23.4894 21.4085C23.5377 21.3737 23.6075 21.3413 23.6584 21.2866L23.806 21.1622C24.026 20.9856 24.2245 20.8064 24.4418 20.6497C24.6403 20.4706 24.82 20.2691 25.0186 20.09C25.1178 20.0004 25.2171 19.9108 25.2975 19.7989L25.5362 19.483L25.7749 19.1672C25.8553 19.0552 25.9331 18.9632 26.0136 18.8513C26.153 18.6249 26.2897 18.4185 26.4265 18.212C26.5069 18.1001 26.5659 17.9857 26.6222 17.8912L26.7991 17.548C26.9171 17.3192 27.0324 17.1103 27.1073 16.8765C27.2038 16.6453 27.2788 16.4115 27.3753 16.1802C27.4503 15.9465 27.5038 15.7102 27.5761 15.4964C27.7234 15.0488 27.7687 14.549 27.8542 14.074L27.8649 13.9945L27.8703 13.9547L27.8729 13.9348C27.8756 13.9149 27.8703 13.9547 27.8729 13.9348L27.8755 13.7533C27.8915 13.6339 27.886 13.5121 27.8994 13.4126C27.9073 13.1913 27.9393 12.9526 27.9257 12.7289C27.9298 10.9113 27.4588 9.22085 26.7598 7.76667C26.0393 6.31002 25.0613 5.14688 24.0272 4.23987C23.7505 4.02618 23.4954 3.81497 23.259 3.62612C22.977 3.45221 22.7165 3.28076 22.4775 3.11181C22.3593 3.01738 22.2143 2.96029 22.0934 2.88576C21.9726 2.81123 21.8491 2.75658 21.7067 2.67957C21.5832 2.62493 21.4624 2.55041 21.3388 2.49577C21.2153 2.44113 21.0891 2.40639 20.9871 2.35422C20.7589 2.26731 20.5306 2.1804 20.3239 2.09596C20.1171 2.01153 19.905 1.96688 19.7144 1.92471C19.5238 1.88253 19.3573 1.82294 19.1881 1.78324C19.019 1.74354 18.8686 1.72622 18.7425 1.69147C18.2189 1.53012 17.9182 1.49546 17.9182 1.49546Z" fill="#161616"/>
</svg>
