<svg width="120" height="164" viewBox="0 0 120 164" fill="none" xmlns="http://www.w3.org/2000/svg">
<path d="M84.7409 47.7544C78.7206 19.869 66.1565 12.4436 62.9684 7.19463C61.2356 4.33931 59.4687 0 59.4687 0C59.296 2.47333 58.9897 4.03976 56.9795 5.91949C52.9537 9.68719 35.8456 24.3238 34.4085 56.0098C33.0684 85.5523 55.087 103.772 58.0134 105.655C60.2488 106.809 62.9867 105.677 64.2954 104.619C74.9069 96.9681 89.4237 76.5686 84.7278 47.7544" fill="#10AA50"/>
<path d="M60.3807 89.9189C59.8284 97.2345 59.4305 101.491 58.0249 105.663C58.0249 105.663 58.9515 112.624 59.5954 120H61.891C62.439 114.805 63.2754 109.648 64.3959 104.556C61.4224 103.025 60.4932 96.3358 60.3807 89.9189Z" fill="#B8C4C2"/>
<path d="M64.3942 104.561C61.3893 103.104 60.5203 96.2806 60.3868 89.9187C61.1271 79.4298 61.3412 68.9073 61.0281 58.3948C60.871 52.8793 61.1066 7.30139 59.735 0.628906C60.2899 1.93427 61.6301 5.0012 62.9703 7.19146C66.1715 12.4432 78.7252 19.8686 84.7402 47.7567C89.4282 76.4968 74.9978 96.8605 64.3942 104.561Z" fill="#12924F"/>
<path d="M6.25055 158V146.8H7.22655L12.3465 155.536H11.8345L16.9065 146.8H17.8825V158H16.7465V148.576H17.0185L12.3465 156.576H11.7865L7.08255 148.576H7.38655V158H6.25055ZM28.5939 158.096C27.7512 158.096 26.9672 157.957 26.2419 157.68C25.5272 157.392 24.9032 156.992 24.3699 156.48C23.8472 155.957 23.4365 155.355 23.1379 154.672C22.8499 153.979 22.7059 153.221 22.7059 152.4C22.7059 151.579 22.8499 150.827 23.1379 150.144C23.4365 149.451 23.8472 148.848 24.3699 148.336C24.9032 147.813 25.5272 147.413 26.2419 147.136C26.9565 146.848 27.7405 146.704 28.5939 146.704C29.4365 146.704 30.2152 146.848 30.9299 147.136C31.6445 147.413 32.2632 147.808 32.7859 148.32C33.3192 148.832 33.7299 149.435 34.0179 150.128C34.3165 150.821 34.4659 151.579 34.4659 152.4C34.4659 153.221 34.3165 153.979 34.0179 154.672C33.7299 155.365 33.3192 155.968 32.7859 156.48C32.2632 156.992 31.6445 157.392 30.9299 157.68C30.2152 157.957 29.4365 158.096 28.5939 158.096ZM28.5939 157.04C29.2659 157.04 29.8845 156.928 30.4499 156.704C31.0259 156.469 31.5219 156.144 31.9379 155.728C32.3645 155.301 32.6952 154.811 32.9299 154.256C33.1645 153.691 33.2819 153.072 33.2819 152.4C33.2819 151.728 33.1645 151.115 32.9299 150.56C32.6952 149.995 32.3645 149.504 31.9379 149.088C31.5219 148.661 31.0259 148.336 30.4499 148.112C29.8845 147.877 29.2659 147.76 28.5939 147.76C27.9219 147.76 27.2979 147.877 26.7219 148.112C26.1459 148.336 25.6445 148.661 25.2179 149.088C24.8019 149.504 24.4712 149.995 24.2259 150.56C23.9912 151.115 23.8739 151.728 23.8739 152.4C23.8739 153.061 23.9912 153.675 24.2259 154.24C24.4712 154.805 24.8019 155.301 25.2179 155.728C25.6445 156.144 26.1459 156.469 26.7219 156.704C27.2979 156.928 27.9219 157.04 28.5939 157.04ZM39.2858 158V146.8H40.2618L47.9898 156.528H47.4778V146.8H48.6458V158H47.6698L39.9578 148.272H40.4698V158H39.2858ZM59.3795 158.096C58.5262 158.096 57.7369 157.957 57.0115 157.68C56.2969 157.392 55.6729 156.992 55.1395 156.48C54.6169 155.968 54.2062 155.365 53.9075 154.672C53.6195 153.979 53.4755 153.221 53.4755 152.4C53.4755 151.579 53.6195 150.821 53.9075 150.128C54.2062 149.435 54.6222 148.832 55.1555 148.32C55.6889 147.808 56.3129 147.413 57.0275 147.136C57.7529 146.848 58.5422 146.704 59.3955 146.704C60.2489 146.704 61.0275 146.837 61.7315 147.104C62.4462 147.371 63.0542 147.776 63.5555 148.32L62.8195 149.072C62.3502 148.603 61.8329 148.267 61.2675 148.064C60.7022 147.861 60.0942 147.76 59.4435 147.76C58.7502 147.76 58.1102 147.877 57.5235 148.112C56.9475 148.336 56.4409 148.661 56.0035 149.088C55.5769 149.504 55.2409 149.995 54.9955 150.56C54.7609 151.115 54.6435 151.728 54.6435 152.4C54.6435 153.061 54.7609 153.675 54.9955 154.24C55.2409 154.805 55.5769 155.301 56.0035 155.728C56.4409 156.144 56.9475 156.469 57.5235 156.704C58.1102 156.928 58.7449 157.04 59.4275 157.04C60.0675 157.04 60.6702 156.944 61.2355 156.752C61.8115 156.56 62.3395 156.235 62.8195 155.776L63.4915 156.672C62.9582 157.141 62.3342 157.499 61.6195 157.744C60.9049 157.979 60.1582 158.096 59.3795 158.096ZM62.3555 156.528V152.4H63.4915V156.672L62.3555 156.528ZM73.9046 158.096C73.0619 158.096 72.2779 157.957 71.5526 157.68C70.8379 157.392 70.2139 156.992 69.6806 156.48C69.1579 155.957 68.7473 155.355 68.4486 154.672C68.1606 153.979 68.0166 153.221 68.0166 152.4C68.0166 151.579 68.1606 150.827 68.4486 150.144C68.7473 149.451 69.1579 148.848 69.6806 148.336C70.2139 147.813 70.8379 147.413 71.5526 147.136C72.2673 146.848 73.0513 146.704 73.9046 146.704C74.7473 146.704 75.5259 146.848 76.2406 147.136C76.9553 147.413 77.5739 147.808 78.0966 148.32C78.6299 148.832 79.0406 149.435 79.3286 150.128C79.6273 150.821 79.7766 151.579 79.7766 152.4C79.7766 153.221 79.6273 153.979 79.3286 154.672C79.0406 155.365 78.6299 155.968 78.0966 156.48C77.5739 156.992 76.9553 157.392 76.2406 157.68C75.5259 157.957 74.7473 158.096 73.9046 158.096ZM73.9046 157.04C74.5766 157.04 75.1953 156.928 75.7606 156.704C76.3366 156.469 76.8326 156.144 77.2486 155.728C77.6753 155.301 78.0059 154.811 78.2406 154.256C78.4753 153.691 78.5926 153.072 78.5926 152.4C78.5926 151.728 78.4753 151.115 78.2406 150.56C78.0059 149.995 77.6753 149.504 77.2486 149.088C76.8326 148.661 76.3366 148.336 75.7606 148.112C75.1953 147.877 74.5766 147.76 73.9046 147.76C73.2326 147.76 72.6086 147.877 72.0326 148.112C71.4566 148.336 70.9553 148.661 70.5286 149.088C70.1126 149.504 69.7819 149.995 69.5366 150.56C69.3019 151.115 69.1846 151.728 69.1846 152.4C69.1846 153.061 69.3019 153.675 69.5366 154.24C69.7819 154.805 70.1126 155.301 70.5286 155.728C70.9553 156.144 71.4566 156.469 72.0326 156.704C72.6086 156.928 73.2326 157.04 73.9046 157.04ZM90.9501 158V146.8H95.5101C96.7048 146.8 97.7501 147.04 98.6461 147.52C99.5528 147.989 100.257 148.645 100.758 149.488C101.259 150.331 101.51 151.301 101.51 152.4C101.51 153.499 101.259 154.469 100.758 155.312C100.257 156.155 99.5528 156.816 98.6461 157.296C97.7501 157.765 96.7048 158 95.5101 158H90.9501ZM92.1341 156.976H95.4461C96.4381 156.976 97.2968 156.784 98.0221 156.4C98.7581 156.005 99.3288 155.467 99.7341 154.784C100.139 154.091 100.342 153.296 100.342 152.4C100.342 151.493 100.139 150.699 99.7341 150.016C99.3288 149.333 98.7581 148.8 98.0221 148.416C97.2968 148.021 96.4381 147.824 95.4461 147.824H92.1341V156.976ZM106.335 158V146.8H111.167C112.415 146.8 113.38 147.051 114.063 147.552C114.756 148.053 115.103 148.763 115.103 149.68C115.103 150.288 114.959 150.8 114.671 151.216C114.394 151.632 114.01 151.947 113.519 152.16C113.039 152.373 112.511 152.48 111.935 152.48L112.207 152.096C112.922 152.096 113.535 152.208 114.047 152.432C114.57 152.645 114.975 152.971 115.263 153.408C115.551 153.835 115.695 154.368 115.695 155.008C115.695 155.957 115.343 156.693 114.639 157.216C113.946 157.739 112.895 158 111.487 158H106.335ZM107.519 157.024H111.471C112.452 157.024 113.204 156.859 113.727 156.528C114.25 156.187 114.511 155.648 114.511 154.912C114.511 154.187 114.25 153.659 113.727 153.328C113.204 152.987 112.452 152.816 111.471 152.816H107.391V151.84H111.087C111.983 151.84 112.676 151.669 113.167 151.328C113.668 150.987 113.919 150.48 113.919 149.808C113.919 149.125 113.668 148.619 113.167 148.288C112.676 147.947 111.983 147.776 111.087 147.776H107.519V157.024Z" fill="#1F2626"/>
</svg>
