<svg width="120" height="164" viewBox="0 0 120 164" fill="none" xmlns="http://www.w3.org/2000/svg">
<path d="M23.0055 158V146.8H23.9815L31.7095 156.528H31.1975V146.8H32.3655V158H31.3895L23.6775 148.272H24.1895V158H23.0055ZM39.2432 151.808H45.1632V152.816H39.2432V151.808ZM39.3712 156.976H46.1072V158H38.1872V146.8H45.8672V147.824H39.3712V156.976ZM54.1444 158.096C53.3124 158.096 52.5124 157.963 51.7444 157.696C50.987 157.419 50.4004 157.067 49.9844 156.64L50.4484 155.728C50.843 156.112 51.371 156.437 52.0324 156.704C52.7044 156.96 53.4084 157.088 54.1444 157.088C54.8484 157.088 55.419 157.003 55.8564 156.832C56.3044 156.651 56.6297 156.411 56.8324 156.112C57.0457 155.813 57.1524 155.483 57.1524 155.12C57.1524 154.683 57.0244 154.331 56.7684 154.064C56.523 153.797 56.1977 153.589 55.7924 153.44C55.387 153.28 54.939 153.141 54.4484 153.024C53.9577 152.907 53.467 152.784 52.9764 152.656C52.4857 152.517 52.0324 152.336 51.6164 152.112C51.211 151.888 50.8804 151.595 50.6244 151.232C50.379 150.859 50.2564 150.373 50.2564 149.776C50.2564 149.221 50.4004 148.715 50.6884 148.256C50.987 147.787 51.4404 147.413 52.0484 147.136C52.6564 146.848 53.435 146.704 54.3844 146.704C55.0137 146.704 55.6377 146.795 56.2564 146.976C56.875 147.147 57.4084 147.387 57.8564 147.696L57.4564 148.64C56.9764 148.32 56.4644 148.085 55.9204 147.936C55.387 147.787 54.8697 147.712 54.3684 147.712C53.6964 147.712 53.1417 147.803 52.7044 147.984C52.267 148.165 51.9417 148.411 51.7284 148.72C51.5257 149.019 51.4244 149.36 51.4244 149.744C51.4244 150.181 51.547 150.533 51.7924 150.8C52.0484 151.067 52.379 151.275 52.7844 151.424C53.2004 151.573 53.6537 151.707 54.1444 151.824C54.635 151.941 55.1204 152.069 55.6004 152.208C56.091 152.347 56.539 152.528 56.9444 152.752C57.3604 152.965 57.691 153.253 57.9364 153.616C58.1924 153.979 58.3204 154.453 58.3204 155.04C58.3204 155.584 58.171 156.091 57.8724 156.56C57.5737 157.019 57.115 157.392 56.4964 157.68C55.8884 157.957 55.1044 158.096 54.1444 158.096ZM65.0859 158V147.824H61.1499V146.8H70.2059V147.824H66.2699V158H65.0859ZM81.8171 158.096C81.1878 158.096 80.5958 157.957 80.0411 157.68C79.4971 157.403 79.0598 157.008 78.7291 156.496L79.4171 155.696C79.7264 156.144 80.0838 156.485 80.4891 156.72C80.8944 156.955 81.3424 157.072 81.8331 157.072C83.2198 157.072 83.9131 156.251 83.9131 154.608V147.824H79.8171V146.8H85.0811V154.56C85.0811 155.744 84.8038 156.629 84.2491 157.216C83.7051 157.803 82.8944 158.096 81.8171 158.096ZM93.8868 158.096C93.0548 158.096 92.2548 157.963 91.4868 157.696C90.7295 157.419 90.1428 157.067 89.7268 156.64L90.1908 155.728C90.5855 156.112 91.1135 156.437 91.7748 156.704C92.4468 156.96 93.1508 157.088 93.8868 157.088C94.5908 157.088 95.1615 157.003 95.5988 156.832C96.0468 156.651 96.3721 156.411 96.5748 156.112C96.7881 155.813 96.8948 155.483 96.8948 155.12C96.8948 154.683 96.7668 154.331 96.5108 154.064C96.2655 153.797 95.9401 153.589 95.5348 153.44C95.1295 153.28 94.6815 153.141 94.1908 153.024C93.7001 152.907 93.2095 152.784 92.7188 152.656C92.2281 152.517 91.7748 152.336 91.3588 152.112C90.9535 151.888 90.6228 151.595 90.3668 151.232C90.1215 150.859 89.9988 150.373 89.9988 149.776C89.9988 149.221 90.1428 148.715 90.4308 148.256C90.7295 147.787 91.1828 147.413 91.7908 147.136C92.3988 146.848 93.1775 146.704 94.1268 146.704C94.7561 146.704 95.3801 146.795 95.9988 146.976C96.6175 147.147 97.1508 147.387 97.5988 147.696L97.1988 148.64C96.7188 148.32 96.2068 148.085 95.6628 147.936C95.1295 147.787 94.6121 147.712 94.1108 147.712C93.4388 147.712 92.8841 147.803 92.4468 147.984C92.0095 148.165 91.6841 148.411 91.4708 148.72C91.2681 149.019 91.1668 149.36 91.1668 149.744C91.1668 150.181 91.2895 150.533 91.5348 150.8C91.7908 151.067 92.1215 151.275 92.5268 151.424C92.9428 151.573 93.3961 151.707 93.8868 151.824C94.3775 151.941 94.8628 152.069 95.3428 152.208C95.8335 152.347 96.2815 152.528 96.6868 152.752C97.1028 152.965 97.4335 153.253 97.6788 153.616C97.9348 153.979 98.0628 154.453 98.0628 155.04C98.0628 155.584 97.9135 156.091 97.6148 156.56C97.3161 157.019 96.8575 157.392 96.2388 157.68C95.6308 157.957 94.8468 158.096 93.8868 158.096Z" fill="#1F2626"/>
<path fill-rule="evenodd" clip-rule="evenodd" d="M70.6686 0C69.8448 0.00936615 69.0282 0.154155 68.2514 0.428571C75.1557 4.96286 67.0514 11.5457 70.8229 17.1429C70.5591 15.2693 70.8563 13.3595 71.677 11.6547C72.4977 9.94995 73.8052 8.52656 75.4343 7.56429C76.6557 6.54857 77.4357 6.18429 77.1743 4.50429C76.7629 1.75286 73.0943 0 70.6686 0ZM80.5257 1.77429C79.5743 6.58714 78.3829 6.76286 74.8557 9.86143C73.4787 10.9449 72.5065 12.4606 72.096 14.164C71.6855 15.8675 71.8605 17.6596 72.5929 19.2514C58.0214 13.5943 39.3443 10.1743 25.6514 19.9629C20.7272 23.4814 17.7186 28.5343 11.6457 30.5957C7.72002 31.9371 3.86288 31.5429 1.41145 35.4343C0.511761 36.558 0.0417722 37.9654 0.0857531 39.4042C0.129734 40.843 0.684808 42.2191 1.65145 43.2857C2.38002 44.0357 3.79431 44.5157 4.37716 45.2786C4.71573 45.7071 4.70716 46.1357 5.02859 46.7057C5.59529 48.0348 6.41641 49.2403 7.44573 50.2543C8.07145 50.7729 10.24 51.2786 10.6086 51.8314C11.0672 52.5214 9.86716 55.26 10.8743 55.6886C11.5557 56.0014 13.54 52.5 13.7329 52.1914C13.3386 54.9471 12.82 59.8371 15.9186 55.7657C17.3886 53.8329 17.4786 53.1943 19.9514 52.7657C24.8319 51.9298 29.8327 52.1146 34.6381 53.3084C39.4436 54.5023 43.9495 56.6792 47.8713 59.7019C51.7932 62.7245 55.046 66.5273 57.4244 70.8702C59.8029 75.2131 61.2553 80.0019 61.69 84.9343C61.2272 82.7914 58.4286 79.3629 55.8229 80.1771C54.7129 80.52 54.3014 82.4357 53.5729 83.5457C52.653 84.9541 51.5178 86.2094 50.2086 87.2657C50.4321 85.1881 50.328 83.0882 49.9 81.0429C49.12 84.2486 47.5557 89.5671 43.6172 88.7057C42.3051 88.5054 41.0758 87.9403 40.0694 87.0749C39.0631 86.2095 38.3203 85.0787 37.9257 83.8114C37.4157 80.5543 40.8572 76.7357 35.3243 76.4657C24.2243 75.9214 26.7914 92.2457 33.3443 96.5014C31.8383 96.668 30.3693 97.0776 28.9943 97.7143C33.1536 100.131 37.8402 101.496 42.6468 101.69C47.4534 101.883 52.2347 100.901 56.575 98.8262C60.9154 96.7519 64.6835 93.6491 67.5519 89.7873C70.4204 85.9255 72.3024 81.4217 73.0343 76.6671C74.5607 83.6224 73.5801 90.8933 70.2657 97.1957C68.8785 99.8304 67.1013 102.24 64.9943 104.344C63.7086 105.63 61.1629 107.044 60.3272 108.377C65.5285 107.689 70.6113 106.294 75.4343 104.229C70.4421 111.031 63.8069 116.457 56.1486 120C64.3718 119.418 72.3209 116.798 79.279 112.377C86.2371 107.956 91.9855 101.873 96.0057 94.6757C94.7245 101.874 91.879 108.703 87.67 114.681C93.3311 110.891 98.1475 105.972 101.817 100.232C105.486 94.4917 107.929 88.0549 108.991 81.3257C110.045 86.2519 110.347 91.3092 109.887 96.3257C114.539 89.8646 117.682 82.4422 119.085 74.6051C120.487 66.7682 120.114 58.7163 117.991 51.0429C116.367 45.0782 113.932 39.3648 110.753 34.0629C109.523 31.9968 108.176 30.0021 106.72 28.0886C106.15 27.3471 103.103 24.6343 103.103 23.8029C103.077 23.8857 103.056 23.8857 103.039 23.8029C103.039 37.8 88.0386 46.5643 75.4772 42.93C80.3398 42.5484 84.9267 40.5192 88.48 37.1778C92.0333 33.8365 94.3404 29.3829 95.02 24.5529C95.5933 19.6687 94.4652 14.7362 91.8257 10.5868C89.1862 6.43752 85.1968 3.32511 80.53 1.77429H80.5257Z" fill="url(#paint0_linear_1_8843)"/>
<defs>
<linearGradient id="paint0_linear_1_8843" x1="59.9929" y1="120" x2="59.9929" y2="0" gradientUnits="userSpaceOnUse">
<stop stop-color="#FFB199"/>
<stop offset="1" stop-color="#FF0844"/>
</linearGradient>
</defs>
</svg>
