<svg width="120" height="164" viewBox="0 0 120 164" fill="none" xmlns="http://www.w3.org/2000/svg">
<path d="M21.9117 158V146.8H22.8877L30.6157 156.528H30.1037V146.8H31.2717V158H30.2957L22.5837 148.272H23.0957V158H21.9117ZM38.1494 151.808H44.0694V152.816H38.1494V151.808ZM38.2774 156.976H45.0134V158H37.0934V146.8H44.7734V147.824H38.2774V156.976ZM48.27 158L52.862 151.792V152.704L48.542 146.8H49.902L53.534 151.728L53.006 151.744L56.638 146.8H57.918L53.646 152.624V151.792L58.222 158H56.846L52.974 152.736H53.47L49.63 158H48.27ZM64.1797 158V147.824H60.2437V146.8H69.2997V147.824H65.3637V158H64.1797ZM80.9108 158.096C80.2815 158.096 79.6895 157.957 79.1348 157.68C78.5908 157.403 78.1535 157.008 77.8228 156.496L78.5108 155.696C78.8202 156.144 79.1775 156.485 79.5828 156.72C79.9882 156.955 80.4362 157.072 80.9268 157.072C82.3135 157.072 83.0068 156.251 83.0068 154.608V147.824H78.9108V146.8H84.1748V154.56C84.1748 155.744 83.8975 156.629 83.3428 157.216C82.7988 157.803 81.9882 158.096 80.9108 158.096ZM92.9805 158.096C92.1485 158.096 91.3485 157.963 90.5805 157.696C89.8232 157.419 89.2365 157.067 88.8205 156.64L89.2845 155.728C89.6792 156.112 90.2072 156.437 90.8685 156.704C91.5405 156.96 92.2445 157.088 92.9805 157.088C93.6845 157.088 94.2552 157.003 94.6925 156.832C95.1405 156.651 95.4659 156.411 95.6685 156.112C95.8819 155.813 95.9885 155.483 95.9885 155.12C95.9885 154.683 95.8605 154.331 95.6045 154.064C95.3592 153.797 95.0339 153.589 94.6285 153.44C94.2232 153.28 93.7752 153.141 93.2845 153.024C92.7939 152.907 92.3032 152.784 91.8125 152.656C91.3219 152.517 90.8685 152.336 90.4525 152.112C90.0472 151.888 89.7165 151.595 89.4605 151.232C89.2152 150.859 89.0925 150.373 89.0925 149.776C89.0925 149.221 89.2365 148.715 89.5245 148.256C89.8232 147.787 90.2765 147.413 90.8845 147.136C91.4925 146.848 92.2712 146.704 93.2205 146.704C93.8499 146.704 94.4739 146.795 95.0925 146.976C95.7112 147.147 96.2445 147.387 96.6925 147.696L96.2925 148.64C95.8125 148.32 95.3005 148.085 94.7565 147.936C94.2232 147.787 93.7059 147.712 93.2045 147.712C92.5325 147.712 91.9779 147.803 91.5405 147.984C91.1032 148.165 90.7779 148.411 90.5645 148.72C90.3619 149.019 90.2605 149.36 90.2605 149.744C90.2605 150.181 90.3832 150.533 90.6285 150.8C90.8845 151.067 91.2152 151.275 91.6205 151.424C92.0365 151.573 92.4899 151.707 92.9805 151.824C93.4712 151.941 93.9565 152.069 94.4365 152.208C94.9272 152.347 95.3752 152.528 95.7805 152.752C96.1965 152.965 96.5272 153.253 96.7725 153.616C97.0285 153.979 97.1565 154.453 97.1565 155.04C97.1565 155.584 97.0072 156.091 96.7085 156.56C96.4099 157.019 95.9512 157.392 95.3325 157.68C94.7245 157.957 93.9405 158.096 92.9805 158.096Z" fill="#1F2626"/>
<circle cx="60" cy="60" r="60" fill="white"/>
<path d="M42.0564 48.7738H58.0882V49.9908H43.526V59.1504H57.2198V60.3674H43.526V70.4237H58.2552V71.6407H42.0564V48.7738ZM59.5244 48.7738H61.2278L68.7761 58.8301L76.4913 48.7738L86.9854 36L69.7446 59.887L78.6289 71.6407H76.8587L68.7761 60.9439L60.66 71.6407H58.9232L67.8743 59.887L59.5244 48.7738ZM79.2635 49.9908V48.7738H97.5331V49.9908H89.1164V71.6407H87.6468V49.9908H79.2635ZM22 48.7738H23.837L49.1678 84.9767L38.6998 71.6407L23.5364 50.5033L23.4696 71.6407H22V48.7738Z" fill="black"/>
</svg>
