<svg width="60" height="60" viewBox="0 0 60 60" fill="none" xmlns="http://www.w3.org/2000/svg">
<g clip-path="url(#clip0_89_1091)">
<path d="M43.5019 0H6.49933V60H53.5007V9.99875L43.5019 0Z" fill="#E8E8E8"/>
<path d="M45.0493 4.99947H6.49933V0H43.5019L45.0493 4.99947Z" fill="#FB3449"/>
<path d="M43.5019 9.99875H53.5007L43.5019 0V9.99875Z" fill="#D1D3D3"/>
<path d="M29.2872 31.5071H26.8014C26.7683 31.2519 26.7003 31.0215 26.5976 30.8161C26.4948 30.6106 26.3589 30.4349 26.1899 30.2891C26.0209 30.1432 25.8203 30.0322 25.5883 29.956C25.3596 29.8764 25.1061 29.8366 24.8277 29.8366C24.3338 29.8366 23.9079 29.9576 23.55 30.1996C23.1953 30.4415 22.9219 30.7912 22.7297 31.2486C22.5407 31.706 22.4463 32.2595 22.4463 32.9091C22.4463 33.5852 22.5424 34.152 22.7346 34.6094C22.9302 35.0634 23.2036 35.4065 23.555 35.6385C23.9096 35.8672 24.3289 35.9815 24.8128 35.9815C25.0845 35.9815 25.3315 35.9467 25.5535 35.8771C25.7789 35.8075 25.9761 35.7064 26.1452 35.5739C26.3175 35.438 26.4584 35.2739 26.5677 35.0817C26.6804 34.8861 26.7583 34.6657 26.8014 34.4205L29.2872 34.4354C29.2441 34.8861 29.1132 35.3303 28.8944 35.7678C28.679 36.2053 28.3824 36.6046 28.0045 36.9659C27.6267 37.3239 27.166 37.6089 26.6224 37.821C26.0822 38.0331 25.4624 38.1392 24.7631 38.1392C23.8416 38.1392 23.0164 37.937 22.2872 37.5327C21.5613 37.125 20.988 36.5317 20.567 35.7528C20.1461 34.974 19.9356 34.026 19.9356 32.9091C19.9356 31.7888 20.1494 30.8393 20.577 30.0604C21.0045 29.2815 21.5829 28.6899 22.3121 28.2855C23.0412 27.8812 23.8582 27.679 24.7631 27.679C25.3795 27.679 25.9496 27.7652 26.4733 27.9375C26.997 28.1065 27.4577 28.3551 27.8554 28.6832C28.2531 29.008 28.5763 29.4074 28.8248 29.8814C29.0734 30.3554 29.2275 30.8973 29.2872 31.5071ZM33.0072 27.8182L35.2842 35.2756H35.3687L37.6457 27.8182H40.3999L36.9646 38H33.6883L30.2529 27.8182H33.0072Z" fill="#9B9696"/>
</g>
<defs>
<clipPath id="clip0_89_1091">
<rect width="60" height="60" fill="white"/>
</clipPath>
</defs>
</svg>
