<svg width="60" height="60" viewBox="0 0 60 60" fill="none" xmlns="http://www.w3.org/2000/svg">
<g clip-path="url(#clip0_78_1088)">
<path d="M43.5019 0H6.49933V60H53.5007V9.99875L43.5019 0Z" fill="#E8E8E8"/>
<path d="M45.5189 29.6718C44.7979 28.3869 42.3068 27.9832 41.164 27.8015C40.2631 27.6582 39.3435 27.6155 38.4324 27.6163C37.717 27.6115 37.0121 27.6467 36.3163 27.6863C36.0598 27.7035 35.8059 27.7257 35.5522 27.7477C35.2921 27.4785 35.0408 27.2005 34.7976 26.9161C33.25 25.0842 32.0005 23.0067 30.9823 20.8478C31.2527 19.8047 31.469 18.7161 31.5996 17.5855C31.8381 15.522 31.92 13.1704 31.1468 11.2031C30.8798 10.5241 30.168 9.69749 29.3467 10.1091C28.4026 10.5825 28.137 11.9236 28.06 12.8743C27.9981 13.6428 28.0414 14.4132 28.1704 15.1687C28.3018 15.9295 28.5134 16.6518 28.7437 17.3731C28.9587 18.0345 29.1955 18.6907 29.4538 19.3408C29.2899 19.8526 29.116 20.3554 28.9333 20.8454C28.5074 21.9622 28.0469 23.0231 27.604 24.0436C27.3705 24.5497 27.142 25.045 26.9183 25.5292C26.2107 27.0837 25.4424 28.6097 24.5802 30.0848C22.569 30.7943 20.7641 31.6168 19.2653 32.5833C18.4612 33.1028 17.751 33.667 17.1594 34.2858C16.601 34.87 16.0334 35.6281 15.9837 36.4674C15.9558 36.9412 16.1434 37.4009 16.5315 37.6819C17.0652 38.0807 17.7725 38.0542 18.3917 37.9243C20.4202 37.4989 21.9778 35.7552 23.3043 34.2856C24.218 33.2734 25.258 31.988 26.3458 30.4335C26.3482 30.43 26.3506 30.4264 26.3531 30.4228C28.2189 29.8444 30.2495 29.356 32.4046 28.997C33.3892 28.8337 34.3998 28.7002 35.4307 28.6063C36.1556 29.2853 36.9389 29.9036 37.7934 30.4199C38.4589 30.8293 39.1668 31.1751 39.9077 31.4329C40.6569 31.6777 41.4107 31.8776 42.1891 32.004C42.5821 32.0602 42.984 32.0858 43.3946 32.0703C44.3111 32.0357 45.6265 31.6842 45.7128 30.5723C45.7393 30.2319 45.6659 29.9334 45.5189 29.6718ZM23.5782 31.7121C23.149 32.3771 22.735 32.9751 22.3449 33.5013C21.3897 34.8011 20.2987 36.3449 18.7191 36.9222C18.4191 37.0318 18.0241 37.145 17.6077 37.1205C17.2368 37.0987 16.8711 36.935 16.8879 36.5139C16.8962 36.2935 17.0041 36.0122 17.1695 35.736C17.3506 35.433 17.5748 35.1552 17.8176 34.8997C18.3379 34.3531 18.9957 33.8233 19.7525 33.3327C20.9131 32.5797 22.2988 31.9019 23.8434 31.2972C23.7546 31.4377 23.6659 31.5774 23.5782 31.7121ZM28.9654 15.0373C28.8462 14.3419 28.8282 13.6368 28.9015 12.9588C28.9379 12.6198 29.0069 12.2889 29.1069 11.9788C29.1916 11.7156 29.3744 11.0733 29.6661 10.9907C30.147 10.8546 30.2949 11.887 30.3493 12.1791C30.6592 13.8407 30.3861 15.6884 30.0142 17.3183C29.9551 17.5775 29.8892 17.8326 29.8217 18.0867C29.7065 17.7699 29.5967 17.4521 29.4955 17.1327C29.2779 16.4351 29.0788 15.7294 28.9654 15.0373ZM32.2669 28.154C30.4601 28.4468 28.7414 28.8306 27.1257 29.2836C27.3203 29.2291 28.2092 27.5444 28.4075 27.1947C29.3418 25.5492 30.1061 23.8222 30.6552 22.0104C31.6249 23.9283 32.8018 25.763 34.2476 27.396C34.3808 27.5442 34.5162 27.6907 34.6539 27.8353C33.8437 27.9226 33.0464 28.0289 32.2669 28.154ZM44.4858 30.4682C44.4198 30.8254 43.6569 31.0296 43.3008 31.0858C42.2488 31.2512 41.1358 31.1188 40.1289 30.7806C39.4381 30.5487 38.7718 30.2329 38.1387 29.8529C37.5094 29.4727 36.9206 29.0255 36.3703 28.5323C37.0489 28.4916 37.7358 28.4649 38.426 28.4779C39.1163 28.4848 39.8119 28.5197 40.499 28.6093C41.7875 28.753 43.2314 29.1953 44.2456 30.0314C44.4453 30.1963 44.509 30.3419 44.4858 30.4682Z" fill="#FB3449"/>
<path d="M45.0493 4.99947H6.49933V0H43.5019L45.0493 4.99947Z" fill="#FB3449"/>
<path d="M25.1015 47.723C25.1015 48.784 24.7888 49.6033 24.163 50.1811C23.5373 50.7592 22.6487 51.0481 21.497 51.0481H20.776V54.198H18.2109V44.7031H21.4972C22.6964 44.7031 23.597 44.9651 24.1988 45.489C24.8006 46.0128 25.1015 46.7575 25.1015 47.723ZM20.7762 48.9569H21.2438C21.6292 48.9569 21.9355 48.8489 22.1629 48.6322C22.3903 48.4157 22.5039 48.1168 22.5039 47.7359C22.5039 47.0951 22.1488 46.7747 21.4388 46.7747H20.7762V48.9569Z" fill="#A4A9AD"/>
<path d="M34.6745 49.2492C34.6745 50.8338 34.2382 52.0548 33.3658 52.9121C32.4935 53.7694 31.2669 54.198 29.6867 54.198H26.6148V44.7031H29.9011C31.4251 44.7031 32.6016 45.0928 33.4307 45.8721C34.2597 46.6514 34.6745 47.7773 34.6745 49.2492ZM32.0118 49.3402C32.0118 48.4699 31.8397 47.825 31.4955 47.4048C31.1514 46.9849 30.6285 46.7749 29.927 46.7749H29.1803V52.0938H29.7518C30.5314 52.0938 31.1027 51.8676 31.4664 51.415C31.83 50.9628 32.0118 50.2712 32.0118 49.3402Z" fill="#A4A9AD"/>
<path d="M38.9024 54.198H36.376V44.7031H41.9874V46.7618H38.9024V48.5738H41.747V50.6325H38.9024V54.198Z" fill="#A4A9AD"/>
<path d="M43.5019 9.99875H53.5007L43.5019 0V9.99875Z" fill="#D1D3D3"/>
</g>
<defs>
<clipPath id="clip0_78_1088">
<rect width="60" height="60" fill="white"/>
</clipPath>
</defs>
</svg>
