<svg width="129" height="164" viewBox="0 0 129 164" fill="none" xmlns="http://www.w3.org/2000/svg">
<path d="M0.100093 158V146.8H4.29209C5.24143 146.8 6.05743 146.955 6.74009 147.264C7.42276 147.563 7.94543 148 8.30809 148.576C8.68143 149.141 8.86809 149.829 8.86809 150.64C8.86809 151.429 8.68143 152.112 8.30809 152.688C7.94543 153.253 7.42276 153.691 6.74009 154C6.05743 154.309 5.24143 154.464 4.29209 154.464H0.756093L1.28409 153.904V158H0.100093ZM1.28409 154L0.756093 153.424H4.26009C5.38009 153.424 6.22809 153.184 6.80409 152.704C7.39076 152.213 7.68409 151.525 7.68409 150.64C7.68409 149.744 7.39076 149.051 6.80409 148.56C6.22809 148.069 5.38009 147.824 4.26009 147.824H0.756093L1.28409 147.264V154ZM18.6465 158.096C17.8039 158.096 17.0199 157.957 16.2945 157.68C15.5799 157.392 14.9559 156.992 14.4225 156.48C13.8999 155.957 13.4892 155.355 13.1905 154.672C12.9025 153.979 12.7585 153.221 12.7585 152.4C12.7585 151.579 12.9025 150.827 13.1905 150.144C13.4892 149.451 13.8999 148.848 14.4225 148.336C14.9559 147.813 15.5799 147.413 16.2945 147.136C17.0092 146.848 17.7932 146.704 18.6465 146.704C19.4892 146.704 20.2679 146.848 20.9825 147.136C21.6972 147.413 22.3159 147.808 22.8385 148.32C23.3719 148.832 23.7825 149.435 24.0705 150.128C24.3692 150.821 24.5185 151.579 24.5185 152.4C24.5185 153.221 24.3692 153.979 24.0705 154.672C23.7825 155.365 23.3719 155.968 22.8385 156.48C22.3159 156.992 21.6972 157.392 20.9825 157.68C20.2679 157.957 19.4892 158.096 18.6465 158.096ZM18.6465 157.04C19.3185 157.04 19.9372 156.928 20.5025 156.704C21.0785 156.469 21.5745 156.144 21.9905 155.728C22.4172 155.301 22.7479 154.811 22.9825 154.256C23.2172 153.691 23.3345 153.072 23.3345 152.4C23.3345 151.728 23.2172 151.115 22.9825 150.56C22.7479 149.995 22.4172 149.504 21.9905 149.088C21.5745 148.661 21.0785 148.336 20.5025 148.112C19.9372 147.877 19.3185 147.76 18.6465 147.76C17.9745 147.76 17.3505 147.877 16.7745 148.112C16.1985 148.336 15.6972 148.661 15.2705 149.088C14.8545 149.504 14.5239 149.995 14.2785 150.56C14.0439 151.115 13.9265 151.728 13.9265 152.4C13.9265 153.061 14.0439 153.675 14.2785 154.24C14.5239 154.805 14.8545 155.301 15.2705 155.728C15.6972 156.144 16.1985 156.469 16.7745 156.704C17.3505 156.928 17.9745 157.04 18.6465 157.04ZM32.4265 158.096C31.5945 158.096 30.7945 157.963 30.0265 157.696C29.2692 157.419 28.6825 157.067 28.2665 156.64L28.7305 155.728C29.1252 156.112 29.6532 156.437 30.3145 156.704C30.9865 156.96 31.6905 157.088 32.4265 157.088C33.1305 157.088 33.7012 157.003 34.1385 156.832C34.5865 156.651 34.9118 156.411 35.1145 156.112C35.3278 155.813 35.4345 155.483 35.4345 155.12C35.4345 154.683 35.3065 154.331 35.0505 154.064C34.8052 153.797 34.4798 153.589 34.0745 153.44C33.6692 153.28 33.2212 153.141 32.7305 153.024C32.2398 152.907 31.7492 152.784 31.2585 152.656C30.7678 152.517 30.3145 152.336 29.8985 152.112C29.4932 151.888 29.1625 151.595 28.9065 151.232C28.6612 150.859 28.5385 150.373 28.5385 149.776C28.5385 149.221 28.6825 148.715 28.9705 148.256C29.2692 147.787 29.7225 147.413 30.3305 147.136C30.9385 146.848 31.7172 146.704 32.6665 146.704C33.2958 146.704 33.9198 146.795 34.5385 146.976C35.1572 147.147 35.6905 147.387 36.1385 147.696L35.7385 148.64C35.2585 148.32 34.7465 148.085 34.2025 147.936C33.6692 147.787 33.1518 147.712 32.6505 147.712C31.9785 147.712 31.4238 147.803 30.9865 147.984C30.5492 148.165 30.2238 148.411 30.0105 148.72C29.8078 149.019 29.7065 149.36 29.7065 149.744C29.7065 150.181 29.8292 150.533 30.0745 150.8C30.3305 151.067 30.6612 151.275 31.0665 151.424C31.4825 151.573 31.9358 151.707 32.4265 151.824C32.9172 151.941 33.4025 152.069 33.8825 152.208C34.3732 152.347 34.8212 152.528 35.2265 152.752C35.6425 152.965 35.9732 153.253 36.2185 153.616C36.4745 153.979 36.6025 154.453 36.6025 155.04C36.6025 155.584 36.4532 156.091 36.1545 156.56C35.8558 157.019 35.3972 157.392 34.7785 157.68C34.1705 157.957 33.3865 158.096 32.4265 158.096ZM43.3681 158V147.824H39.4321V146.8H48.4881V147.824H44.5521V158H43.3681ZM57.3014 158.096C56.4481 158.096 55.6587 157.957 54.9334 157.68C54.2187 157.392 53.5947 156.992 53.0614 156.48C52.5387 155.968 52.1281 155.365 51.8294 154.672C51.5414 153.979 51.3974 153.221 51.3974 152.4C51.3974 151.579 51.5414 150.821 51.8294 150.128C52.1281 149.435 52.5441 148.832 53.0774 148.32C53.6107 147.808 54.2347 147.413 54.9494 147.136C55.6747 146.848 56.4641 146.704 57.3174 146.704C58.1707 146.704 58.9494 146.837 59.6534 147.104C60.3681 147.371 60.9761 147.776 61.4774 148.32L60.7414 149.072C60.2721 148.603 59.7547 148.267 59.1894 148.064C58.6241 147.861 58.0161 147.76 57.3654 147.76C56.6721 147.76 56.0321 147.877 55.4454 148.112C54.8694 148.336 54.3627 148.661 53.9254 149.088C53.4987 149.504 53.1627 149.995 52.9174 150.56C52.6827 151.115 52.5654 151.728 52.5654 152.4C52.5654 153.061 52.6827 153.675 52.9174 154.24C53.1627 154.805 53.4987 155.301 53.9254 155.728C54.3627 156.144 54.8694 156.469 55.4454 156.704C56.0321 156.928 56.6667 157.04 57.3494 157.04C57.9894 157.04 58.5921 156.944 59.1574 156.752C59.7334 156.56 60.2614 156.235 60.7414 155.776L61.4134 156.672C60.8801 157.141 60.2561 157.499 59.5414 157.744C58.8267 157.979 58.0801 158.096 57.3014 158.096ZM60.2774 156.528V152.4H61.4134V156.672L60.2774 156.528ZM66.9305 158V146.8H71.1225C72.0718 146.8 72.8878 146.955 73.5705 147.264C74.2531 147.563 74.7758 148 75.1385 148.576C75.5118 149.141 75.6985 149.829 75.6985 150.64C75.6985 151.429 75.5118 152.112 75.1385 152.688C74.7758 153.253 74.2531 153.691 73.5705 154C72.8878 154.299 72.0718 154.448 71.1225 154.448H67.5865L68.1145 153.904V158H66.9305ZM74.5785 158L71.6985 153.936H72.9785L75.8745 158H74.5785ZM68.1145 154L67.5865 153.44H71.0905C72.2105 153.44 73.0585 153.195 73.6345 152.704C74.2211 152.213 74.5145 151.525 74.5145 150.64C74.5145 149.744 74.2211 149.051 73.6345 148.56C73.0585 148.069 72.2105 147.824 71.0905 147.824H67.5865L68.1145 147.264V154ZM81.715 151.808H87.635V152.816H81.715V151.808ZM81.843 156.976H88.579V158H80.659V146.8H88.339V147.824H81.843V156.976ZM96.6162 158.096C95.7842 158.096 94.9842 157.963 94.2162 157.696C93.4589 157.419 92.8722 157.067 92.4562 156.64L92.9202 155.728C93.3149 156.112 93.8429 156.437 94.5042 156.704C95.1762 156.96 95.8802 157.088 96.6162 157.088C97.3202 157.088 97.8909 157.003 98.3282 156.832C98.7762 156.651 99.1016 156.411 99.3042 156.112C99.5176 155.813 99.6242 155.483 99.6242 155.12C99.6242 154.683 99.4962 154.331 99.2402 154.064C98.9949 153.797 98.6696 153.589 98.2642 153.44C97.8589 153.28 97.4109 153.141 96.9202 153.024C96.4296 152.907 95.9389 152.784 95.4482 152.656C94.9576 152.517 94.5042 152.336 94.0882 152.112C93.6829 151.888 93.3522 151.595 93.0962 151.232C92.8509 150.859 92.7282 150.373 92.7282 149.776C92.7282 149.221 92.8722 148.715 93.1602 148.256C93.4589 147.787 93.9122 147.413 94.5202 147.136C95.1282 146.848 95.9069 146.704 96.8562 146.704C97.4856 146.704 98.1096 146.795 98.7282 146.976C99.3469 147.147 99.8802 147.387 100.328 147.696L99.9282 148.64C99.4482 148.32 98.9362 148.085 98.3922 147.936C97.8589 147.787 97.3416 147.712 96.8402 147.712C96.1682 147.712 95.6136 147.803 95.1762 147.984C94.7389 148.165 94.4136 148.411 94.2002 148.72C93.9976 149.019 93.8962 149.36 93.8962 149.744C93.8962 150.181 94.0189 150.533 94.2642 150.8C94.5202 151.067 94.8509 151.275 95.2562 151.424C95.6722 151.573 96.1256 151.707 96.6162 151.824C97.1069 151.941 97.5922 152.069 98.0722 152.208C98.5629 152.347 99.0109 152.528 99.4162 152.752C99.8322 152.965 100.163 153.253 100.408 153.616C100.664 153.979 100.792 154.453 100.792 155.04C100.792 155.584 100.643 156.091 100.344 156.56C100.046 157.019 99.5869 157.392 98.9682 157.68C98.3602 157.957 97.5762 158.096 96.6162 158.096ZM110.434 158.096C109.591 158.096 108.807 157.957 108.082 157.68C107.367 157.392 106.743 156.992 106.21 156.48C105.687 155.957 105.277 155.355 104.978 154.672C104.69 153.979 104.546 153.221 104.546 152.4C104.546 151.579 104.69 150.827 104.978 150.144C105.277 149.451 105.687 148.848 106.21 148.336C106.743 147.813 107.367 147.413 108.082 147.136C108.797 146.848 109.581 146.704 110.434 146.704C111.277 146.704 112.055 146.848 112.77 147.136C113.485 147.413 114.103 147.808 114.626 148.32C115.159 148.832 115.57 149.435 115.858 150.128C116.157 150.821 116.306 151.579 116.306 152.4C116.306 153.221 116.157 153.979 115.858 154.672C115.57 155.365 115.159 155.968 114.626 156.48C114.103 156.992 113.485 157.392 112.77 157.68C112.055 157.957 111.277 158.096 110.434 158.096ZM114.098 160.224C113.757 160.224 113.426 160.181 113.106 160.096C112.786 160.011 112.461 159.872 112.13 159.68C111.81 159.499 111.479 159.259 111.138 158.96C110.797 158.661 110.423 158.299 110.018 157.872L111.314 157.552C111.645 157.947 111.965 158.272 112.274 158.528C112.594 158.784 112.903 158.971 113.202 159.088C113.511 159.216 113.815 159.28 114.114 159.28C114.946 159.28 115.655 158.939 116.242 158.256L116.818 158.944C116.114 159.797 115.207 160.224 114.098 160.224ZM110.434 157.04C111.106 157.04 111.725 156.928 112.29 156.704C112.866 156.469 113.362 156.139 113.778 155.712C114.205 155.285 114.535 154.795 114.77 154.24C115.005 153.675 115.122 153.061 115.122 152.4C115.122 151.728 115.005 151.115 114.77 150.56C114.535 149.995 114.205 149.504 113.778 149.088C113.362 148.661 112.866 148.336 112.29 148.112C111.725 147.877 111.106 147.76 110.434 147.76C109.762 147.76 109.138 147.877 108.562 148.112C107.986 148.336 107.485 148.661 107.058 149.088C106.642 149.504 106.311 149.995 106.066 150.56C105.831 151.115 105.714 151.728 105.714 152.4C105.714 153.061 105.831 153.675 106.066 154.24C106.311 154.795 106.642 155.285 107.058 155.712C107.485 156.139 107.986 156.469 108.562 156.704C109.138 156.928 109.762 157.04 110.434 157.04ZM121.126 158V146.8H122.31V156.976H128.582V158H121.126Z" fill="#1F2626"/>
<path d="M120.889 71.8826C120.189 69.7638 118.357 68.2881 115.987 67.9339C114.869 67.7671 113.59 67.8382 112.075 68.1504C109.435 68.695 107.477 68.9024 106.048 68.9425C111.443 59.8342 115.829 49.4475 118.355 39.6702C122.438 23.8605 120.256 16.6581 117.706 13.4004C110.958 4.77748 101.112 0.145172 89.234 0.00343171C82.8976 -0.0740469 77.3351 1.177 74.4333 2.07667C71.7316 1.59995 68.8266 1.33378 65.7785 1.28456C60.0647 1.19341 55.0163 2.43899 50.7025 4.99898C48.3144 4.19138 44.4814 3.0529 40.0551 2.32642C29.6448 0.617335 21.2543 1.94906 15.1171 6.28467C7.68549 11.5341 4.24043 20.6547 4.87758 33.3931C5.07993 37.4374 7.34231 49.7429 10.9045 61.413C12.9518 68.1208 15.1348 73.691 17.3931 77.9706C20.5957 84.039 24.0225 87.6126 27.8696 88.896C30.0258 89.6143 33.9434 90.1174 38.0639 86.6856C38.5862 87.3182 39.2831 87.9467 40.2078 88.5305C41.3823 89.2711 42.8184 89.8763 44.2527 90.235C49.4214 91.5271 54.2629 91.2039 58.3934 89.3928C58.4189 90.1274 58.4385 90.8293 58.4549 91.4355C58.4823 92.4185 58.5096 93.3825 58.5456 94.284C58.7904 100.379 59.2051 105.119 60.4338 108.435C60.5013 108.617 60.592 108.895 60.6877 109.19C61.3007 111.067 62.3257 114.209 64.9335 116.669C67.6339 119.218 70.9003 120 73.8919 120C75.3922 120 76.8237 119.803 78.0794 119.534C82.5549 118.575 87.6379 117.114 91.315 111.878C94.7915 106.928 96.4814 99.4736 96.7872 87.7274C96.8269 87.3952 96.8634 87.078 96.8985 86.7758L96.9714 86.1551L97.7904 86.2271L98.0014 86.2412C102.56 86.449 108.134 85.4824 111.557 83.8922C114.262 82.6371 122.93 78.0608 120.889 71.8826Z" fill="#1F2626"/>
<path d="M113.095 73.0841C99.5412 75.8801 98.6091 71.2911 98.6091 71.2911C112.92 50.0561 118.903 23.1013 113.74 16.5042C99.6556 -1.49137 75.2749 7.01943 74.8679 7.24001L74.7371 7.26371C72.059 6.70769 69.0624 6.37681 65.6939 6.32167C59.5613 6.2214 54.9089 7.92957 51.3786 10.6067C51.3786 10.6067 7.8858 -7.31092 9.90891 33.1411C10.3391 41.7467 22.2435 98.2564 36.4421 81.1879C41.6318 74.9463 46.6465 69.6691 46.6465 69.6691C49.1368 71.3235 52.1183 72.1675 55.2439 71.8645L55.4868 71.6585C55.4112 72.4332 55.4458 73.1912 55.5839 74.0885C51.926 78.1753 53.0011 78.8927 45.689 80.398C38.2898 81.923 42.6363 84.6375 45.4743 85.3476C48.9148 86.2076 56.8742 87.4263 62.2521 79.8976L62.0379 80.7567C63.4708 81.9048 64.4771 88.2234 64.3085 93.9518C64.1398 99.6797 64.0272 103.612 65.1562 106.684C66.286 109.756 67.4112 116.668 77.0241 114.608C85.0558 112.887 89.2183 108.426 89.7975 100.985C90.2082 95.696 91.1384 96.478 91.1967 91.7487L91.9428 89.51C92.8028 82.3396 92.0795 80.0261 97.0277 81.1022L98.2309 81.2079C101.872 81.3734 106.64 80.6218 109.437 79.3215C115.462 76.5259 119.035 71.8576 113.094 73.0841H113.095Z" fill="#336791"/>
<path d="M53.9252 36.9892C52.7038 36.8192 51.5976 36.9765 51.038 37.4003C50.7235 37.6387 50.626 37.9149 50.5995 38.1049C50.5294 38.6085 50.8821 39.1654 51.099 39.4526C51.7125 40.2656 52.6085 40.8244 53.4954 40.9475C53.6239 40.9657 53.752 40.9739 53.8792 40.9739C55.3581 40.9739 56.703 39.8222 56.8215 38.9722C56.9696 37.9076 55.4242 37.1979 53.9252 36.9897" fill="white"/>
<path d="M94.3866 37.0236C94.27 36.1891 92.7851 35.9512 91.3759 36.1471C89.9685 36.3431 88.604 36.9784 88.7179 37.8148C88.8091 38.4651 89.9836 39.5753 91.3736 39.5753C91.4912 39.5753 91.6097 39.5676 91.7291 39.5507C92.6571 39.4222 93.3379 38.8329 93.6615 38.4934C94.1538 37.9756 94.4391 37.3986 94.3866 37.0236Z" fill="white"/>
<path d="M117.606 72.7667C117.089 71.2039 115.426 70.7012 112.662 71.2718C104.456 72.9654 101.517 71.7923 100.552 71.0818C106.931 61.365 112.178 49.6193 115.009 38.6606C116.349 33.4696 117.09 28.6486 117.151 24.719C117.218 20.4062 116.483 17.2369 114.968 15.3008C108.86 7.496 99.8953 3.30942 89.0437 3.19457C81.5835 3.11071 75.2803 5.01988 74.0585 5.55676C71.4853 4.91688 68.6801 4.52401 65.626 4.47388C60.0257 4.38319 55.1847 5.72402 51.1767 8.45719C49.4358 7.80911 44.9365 6.26455 39.4342 5.3781C29.9216 3.84676 22.3625 5.00712 16.9681 8.82863C10.5315 13.3889 7.55994 21.5406 8.13556 33.0566C8.32926 36.931 10.5369 48.85 14.0207 60.2644C18.6066 75.2879 23.5916 83.7928 28.8365 85.5425C29.4504 85.7471 30.1582 85.8902 30.9389 85.8902C32.8521 85.8902 35.1979 85.0279 37.6385 82.0938C40.6153 78.5227 43.6946 75.0384 46.8726 71.6451C48.9344 72.7517 51.1995 73.3697 53.5161 73.4316C53.5207 73.4923 53.5266 73.5529 53.5321 73.613C53.1333 74.0886 52.7428 74.571 52.3608 75.0601C50.7556 77.0978 50.4216 77.5221 45.2546 78.5858C43.7848 78.8893 39.8813 79.6937 39.8239 82.4301C39.7619 85.4199 44.4384 86.6755 44.9712 86.8086C46.8279 87.2734 48.6168 87.5027 50.3227 87.5027C54.4714 87.5027 58.1225 86.1391 61.0402 83.5007C60.9504 94.159 61.3948 104.661 62.6746 107.861C63.7228 110.481 66.2832 116.883 74.3711 116.883C75.5579 116.883 76.8641 116.744 78.3011 116.436C86.7422 114.627 90.4078 110.896 91.8257 102.671C92.5845 98.2754 93.8866 87.7789 94.4991 82.1485C95.7917 82.5518 97.4556 82.7364 99.2545 82.7359C103.006 82.7359 107.336 81.9388 110.05 80.6786C113.1 79.2621 118.604 75.7865 117.606 72.7667ZM97.5044 34.7202C97.4766 36.3823 97.2478 37.8913 97.0053 39.4664C96.7442 41.1604 96.4744 42.9119 96.4065 45.038C96.3395 47.1072 96.5979 49.2583 96.8476 51.3389C97.3526 55.5409 97.8708 59.867 95.865 64.1356C95.5318 63.5452 95.2351 62.935 94.9763 62.3085C94.727 61.7041 94.1856 60.7334 93.4359 59.3898C90.5195 54.1595 83.69 41.9115 87.1861 36.9137C88.2275 35.4261 90.8704 33.8966 97.5044 34.7202ZM89.463 6.56033C99.1861 6.775 106.877 10.4124 112.323 17.3709C116.499 22.7082 111.9 46.9941 98.5864 67.9457C98.4525 67.7755 98.3179 67.6058 98.1826 67.4366L98.0139 67.2261C101.454 61.5442 100.782 55.9224 100.183 50.9382C99.9368 48.8928 99.7043 46.9609 99.7636 45.146C99.8246 43.2227 100.079 41.5729 100.325 39.9778C100.627 38.0121 100.935 35.978 100.85 33.5803C100.913 33.3287 100.939 33.0316 100.906 32.6788C100.689 30.3795 98.0641 23.4981 92.7135 17.2697C89.7866 13.8629 85.5184 10.0505 79.6907 7.47914C82.1974 6.95958 85.6251 6.47511 89.463 6.56033ZM35.0557 79.9462C32.3668 83.1794 30.51 82.5595 29.8993 82.3563C25.9205 81.0291 21.3037 72.6195 17.2334 59.2841C13.7113 47.7452 11.6531 36.1421 11.4899 32.8885C10.9758 22.5984 13.4702 15.4271 18.9042 11.5732C27.7477 5.30199 42.2872 9.0556 48.1296 10.9593C48.0457 11.0422 47.9582 11.1197 47.8752 11.204C38.288 20.8861 38.5154 37.4283 38.5391 38.4396C38.5382 38.8297 38.571 39.3821 38.6156 40.1418C38.7806 42.9242 39.0878 48.1025 38.2674 53.9668C37.5054 59.4162 39.1853 64.75 42.8756 68.6006C43.2543 68.9951 43.6524 69.3705 44.0683 69.7254C42.4258 71.4847 38.8558 75.375 35.0557 79.9462ZM45.3007 66.2767C42.3264 63.173 40.9755 58.8561 41.594 54.4316C42.4599 48.237 42.1405 42.8417 41.9686 39.9431C41.9445 39.5375 41.9231 39.182 41.9108 38.9017C43.3113 37.6598 49.8017 34.1824 54.4304 35.2429C56.5424 35.7265 57.8294 37.1648 58.3645 39.6387C61.1337 52.4468 58.7309 57.7851 56.8003 62.0751C56.4025 62.9588 56.0265 63.7942 55.7056 64.6583L55.4568 65.3265C54.8269 67.0155 54.2408 68.5861 53.8776 70.0773C50.7155 70.0682 47.6396 68.7173 45.3007 66.2763V66.2767ZM45.7861 83.5499C44.8627 83.3193 44.0323 82.9187 43.5451 82.5864C43.9521 82.395 44.6763 82.1343 45.9324 81.8755C52.0108 80.6244 52.9496 79.7411 54.9996 77.1383C55.4695 76.5413 56.0023 75.8649 56.7402 75.0409L56.7411 75.04C57.8399 73.8095 58.3426 74.0182 59.2541 74.3965C59.9929 74.7018 60.7125 75.6279 61.0042 76.647C61.1423 77.1283 61.2973 78.0416 60.79 78.7526C56.5077 84.7485 50.2675 84.6715 45.7861 83.5499ZM77.5974 113.152C70.1613 114.746 67.5284 110.951 65.7933 106.614C64.6735 103.814 64.123 91.1866 64.5135 77.2418C64.5186 77.0563 64.4921 76.8772 64.4411 76.7085C64.3954 76.3755 64.326 76.0463 64.2333 75.7232C63.6526 73.6942 62.2375 71.9969 60.5398 71.2933C59.8653 71.0139 58.6275 70.5011 57.1399 70.8817C57.4571 69.5746 58.0072 68.0984 58.6038 66.5001L58.854 65.8278C59.1356 65.0699 59.4893 64.2846 59.863 63.4533C61.8834 58.965 64.6503 52.8173 61.6473 38.9291C60.5225 33.7271 56.7661 31.1867 51.0719 31.7769C47.6583 32.1301 44.535 33.5074 42.9772 34.2972C42.6423 34.4668 42.336 34.6308 42.0498 34.7903C42.4846 29.5491 44.1271 19.754 50.2716 13.5567C54.1405 9.65538 59.2929 7.72844 65.5704 7.83235C77.9397 8.03471 85.8717 14.3825 90.3481 19.6724C94.2056 24.2305 96.2944 28.8222 97.1279 31.2988C90.859 30.6612 86.5954 31.8986 84.4342 34.9886C79.7322 41.7101 87.0065 54.7557 90.5026 61.0255C91.1439 62.1745 91.6971 63.1676 91.8712 63.5896C93.0097 66.3487 94.4836 68.1909 95.5597 69.5354C95.8896 69.9474 96.2096 70.3471 96.453 70.6962C94.5543 71.2436 91.1439 72.5083 91.4547 78.8301C91.204 82.0022 89.4215 96.8534 88.516 102.101C87.3205 109.033 84.7696 111.614 77.5974 113.153V113.152ZM108.636 77.6324C106.695 78.5334 103.446 79.2093 100.359 79.3547C96.9502 79.5142 95.2147 78.9727 94.8063 78.6396C94.6149 74.7 96.0811 74.2885 97.6329 73.8528C97.8767 73.7844 98.1146 73.7174 98.3444 73.6372C98.487 73.7534 98.6433 73.8687 98.8147 73.9818C101.555 75.7902 106.442 75.9853 113.341 74.561L113.417 74.546C112.486 75.416 110.894 76.5837 108.636 77.6324Z" fill="white"/>
</svg>
