<svg width="153" height="150" viewBox="0 0 153 150" fill="none" xmlns="http://www.w3.org/2000/svg">
<g clip-path="url(#clip0_1_8859)">
<path d="M76 63.6073C81.9173 63.6073 86.7143 58.8103 86.7143 52.893C86.7143 46.9757 81.9173 42.1787 76 42.1787C70.0827 42.1787 65.2857 46.9757 65.2857 52.893C65.2857 58.8103 70.0827 63.6073 76 63.6073Z" fill="#F5DE19"/>
<path d="M76 77.4584C63.122 77.7699 50.2763 76.034 37.9429 72.3156C32.2455 70.5095 26.9317 67.6644 22.27 63.9241C20.4911 62.6464 19.0097 60.9989 17.9275 59.0948C16.8452 57.1906 16.1877 55.0749 16 52.8927C16 45.8084 23.7829 38.8656 36.82 34.3227C49.4831 30.2974 62.714 28.3465 76 28.5456C89.1087 28.3624 102.162 30.2781 114.666 34.2199C120.153 35.9691 125.286 38.6767 129.829 42.217C131.577 43.4352 133.036 45.023 134.103 46.8679C135.169 48.7128 135.817 50.7696 136 52.8927C136 60.2556 127.3 67.717 113.286 72.3541C101.191 75.9515 88.6164 77.6729 76 77.4584ZM76 33.6713C63.2891 33.5014 50.6321 35.356 38.5043 39.1656C26.5043 43.3527 21.1257 49.0784 21.1257 52.8799C21.1257 56.857 26.9071 63.1099 39.6014 67.4513C51.4003 70.9907 63.6855 72.6382 76 72.3327C88.0703 72.5486 100.103 70.9154 111.679 67.4899C124.857 63.1227 130.857 56.8613 130.857 52.8927C130.641 51.5308 130.145 50.2286 129.4 49.0682C128.655 47.9079 127.677 46.9147 126.529 46.1513C122.465 43.0105 117.879 40.6109 112.981 39.0627C101.02 35.3074 88.5356 33.4873 76 33.6713Z" fill="#F5DE19"/>
<path d="M51.6554 106.331C49.6562 106.377 47.6805 105.892 45.9297 104.925C39.7926 101.385 37.6669 91.1767 40.2426 77.6124C43.0825 64.6313 48.0032 52.1951 54.814 40.7852C61.2029 29.3385 69.3819 18.9877 79.0412 10.1252C83.2976 6.24538 88.2077 3.1504 93.544 0.983791C95.4741 0.0792446 97.5796 -0.389648 99.7112 -0.389648C101.843 -0.389648 103.948 0.0792446 105.878 0.983791C112.26 4.66093 114.373 15.9238 111.394 30.3795C108.466 42.6562 103.674 54.4114 97.1826 65.2352C91.0186 76.5468 83.097 86.8074 73.714 95.6338C69.3031 99.6657 64.184 102.846 58.6154 105.015C56.3861 105.843 54.033 106.287 51.6554 106.331ZM59.254 43.3309C52.7573 54.2566 48.0411 66.1468 45.2826 78.5552C42.9126 91.0481 45.1883 98.5609 48.4969 100.472C51.9254 102.457 60.2483 100.575 70.354 91.7467C79.3113 83.2907 86.8722 73.4689 92.7554 62.6466C98.9737 52.2989 103.571 41.0601 106.388 29.3209C109.191 15.7138 106.77 7.38236 103.333 5.40236C102.044 4.90876 100.668 4.6878 99.2897 4.75346C97.9117 4.81911 96.5623 5.16995 95.3269 5.78379C90.5769 7.74385 86.21 10.5265 82.4269 14.0038C73.1983 22.4929 65.3855 32.4021 59.284 43.3566L59.254 43.3309Z" fill="#F5DE19"/>
<path d="M100.326 106.387C94.5189 106.387 87.1432 102.872 79.4632 96.268C69.6347 87.3249 61.3174 76.8511 54.8332 65.2522C48.1077 53.9995 43.226 41.7432 40.3732 28.948C39.1359 23.3186 38.9067 17.5145 39.696 11.8051C39.8785 9.68713 40.5234 7.63499 41.5853 5.79337C42.6472 3.95176 44.1002 2.36553 45.8417 1.14653C52.2146 -2.54347 63.0275 1.24939 74.0632 11.0465C83.2371 19.713 91.0277 29.7353 97.1632 40.7637C103.884 51.7537 108.817 63.7417 111.777 76.2794C113.068 82.1153 113.267 88.1396 112.365 94.048C112.15 96.2269 111.467 98.3335 110.361 100.224C109.256 102.114 107.755 103.742 105.962 104.998C104.24 105.952 102.295 106.432 100.326 106.387ZM59.2689 62.6722C65.4893 73.757 73.4344 83.7809 82.806 92.368C92.4446 100.661 100.09 102.444 103.377 100.511C106.806 98.518 109.335 90.3837 106.729 77.2222C103.874 65.252 99.1427 53.809 92.7103 43.318C86.8553 32.7628 79.4192 23.1659 70.6603 14.8608C60.2717 5.63796 51.846 3.57653 48.4132 5.5651C47.3432 6.4346 46.4652 7.51649 45.8345 8.74248C45.2038 9.96846 44.8341 11.3119 44.7489 12.688C44.0675 17.7798 44.2895 22.9518 45.4046 27.9665C48.1488 40.2028 52.8306 51.922 59.2732 62.6808L59.2689 62.6722Z" fill="#F5DE19"/>
</g>
<path d="M0.0619228 144V132.8H4.25392C5.20326 132.8 6.01926 132.955 6.70192 133.264C7.38459 133.563 7.90726 134 8.26992 134.576C8.64326 135.141 8.82992 135.829 8.82992 136.64C8.82992 137.429 8.64326 138.112 8.26992 138.688C7.90726 139.253 7.38459 139.691 6.70192 140C6.01926 140.299 5.20326 140.448 4.25392 140.448H0.717923L1.24592 139.904V144H0.0619228ZM7.70992 144L4.82992 139.936H6.10992L9.00592 144H7.70992ZM1.24592 140L0.717923 139.44H4.22192C5.34192 139.44 6.18992 139.195 6.76592 138.704C7.35259 138.213 7.64592 137.525 7.64592 136.64C7.64592 135.744 7.35259 135.051 6.76592 134.56C6.18992 134.069 5.34192 133.824 4.22192 133.824H0.717923L1.24592 133.264V140ZM14.8465 137.808H20.7665V138.816H14.8465V137.808ZM14.9745 142.976H21.7105V144H13.7905V132.8H21.4705V133.824H14.9745V142.976ZM24.8677 144L29.9877 132.8H31.1557L36.2757 144H35.0277L30.3237 133.488H30.8037L26.0997 144H24.8677ZM26.8837 141.008L27.2357 140.048H33.7477L34.0997 141.008H26.8837ZM45.0023 144.096C44.1596 144.096 43.3809 143.957 42.6663 143.68C41.9516 143.392 41.3329 142.992 40.8103 142.48C40.2876 141.968 39.8769 141.365 39.5783 140.672C39.2903 139.979 39.1463 139.221 39.1463 138.4C39.1463 137.579 39.2903 136.821 39.5783 136.128C39.8769 135.435 40.2876 134.832 40.8103 134.32C41.3436 133.808 41.9676 133.413 42.6823 133.136C43.3969 132.848 44.1756 132.704 45.0183 132.704C45.8289 132.704 46.5916 132.843 47.3063 133.12C48.0209 133.387 48.6236 133.792 49.1143 134.336L48.3623 135.088C47.9036 134.619 47.3969 134.283 46.8423 134.08C46.2876 133.867 45.6903 133.76 45.0503 133.76C44.3783 133.76 43.7543 133.877 43.1783 134.112C42.6023 134.336 42.1009 134.661 41.6743 135.088C41.2476 135.504 40.9116 135.995 40.6663 136.56C40.4316 137.115 40.3143 137.728 40.3143 138.4C40.3143 139.072 40.4316 139.691 40.6663 140.256C40.9116 140.811 41.2476 141.301 41.6743 141.728C42.1009 142.144 42.6023 142.469 43.1783 142.704C43.7543 142.928 44.3783 143.04 45.0503 143.04C45.6903 143.04 46.2876 142.933 46.8423 142.72C47.3969 142.507 47.9036 142.165 48.3623 141.696L49.1143 142.448C48.6236 142.992 48.0209 143.403 47.3063 143.68C46.5916 143.957 45.8236 144.096 45.0023 144.096ZM55.8397 144V133.824H51.9037V132.8H60.9597V133.824H57.0237V144H55.8397ZM71.3709 144V132.8H72.3469L80.0749 142.528H79.5629V132.8H80.7309V144H79.7549L72.0429 134.272H72.5549V144H71.3709ZM84.7606 144L89.8806 132.8H91.0486L96.1686 144H94.9206L90.2166 133.488H90.6966L85.9926 144H84.7606ZM86.7766 141.008L87.1286 140.048H93.6406L93.9926 141.008H86.7766ZM104.895 144.096C104.052 144.096 103.274 143.957 102.559 143.68C101.844 143.392 101.226 142.992 100.703 142.48C100.18 141.968 99.7698 141.365 99.4712 140.672C99.1832 139.979 99.0392 139.221 99.0392 138.4C99.0392 137.579 99.1832 136.821 99.4712 136.128C99.7698 135.435 100.18 134.832 100.703 134.32C101.236 133.808 101.86 133.413 102.575 133.136C103.29 132.848 104.068 132.704 104.911 132.704C105.722 132.704 106.484 132.843 107.199 133.12C107.914 133.387 108.516 133.792 109.007 134.336L108.255 135.088C107.796 134.619 107.29 134.283 106.735 134.08C106.18 133.867 105.583 133.76 104.943 133.76C104.271 133.76 103.647 133.877 103.071 134.112C102.495 134.336 101.994 134.661 101.567 135.088C101.14 135.504 100.804 135.995 100.559 136.56C100.324 137.115 100.207 137.728 100.207 138.4C100.207 139.072 100.324 139.691 100.559 140.256C100.804 140.811 101.14 141.301 101.567 141.728C101.994 142.144 102.495 142.469 103.071 142.704C103.647 142.928 104.271 143.04 104.943 143.04C105.583 143.04 106.18 142.933 106.735 142.72C107.29 142.507 107.796 142.165 108.255 141.696L109.007 142.448C108.516 142.992 107.914 143.403 107.199 143.68C106.484 143.957 105.716 144.096 104.895 144.096ZM115.733 144V133.824H111.797V132.8H120.853V133.824H116.917V144H115.733ZM124.91 144V132.8H126.094V144H124.91ZM134.963 144L130.003 132.8H131.283L135.923 143.344H135.219L139.891 132.8H141.091L136.131 144H134.963ZM145.939 137.808H151.859V138.816H145.939V137.808ZM146.067 142.976H152.803V144H144.883V132.8H152.563V133.824H146.067V142.976Z" fill="#1F2626"/>
<defs>
<clipPath id="clip0_1_8859">
<rect width="120" height="106" fill="white" transform="translate(16)"/>
</clipPath>
</defs>
</svg>
