<svg width="120" height="164" viewBox="0 0 120 164" fill="none" xmlns="http://www.w3.org/2000/svg">
<path d="M16.1568 158V146.8H20.3488C21.2981 146.8 22.1141 146.955 22.7968 147.264C23.4795 147.563 24.0021 148 24.3648 148.576C24.7381 149.141 24.9248 149.829 24.9248 150.64C24.9248 151.429 24.7381 152.112 24.3648 152.688C24.0021 153.253 23.4795 153.691 22.7968 154C22.1141 154.299 21.2981 154.448 20.3488 154.448H16.8128L17.3408 153.904V158H16.1568ZM23.8048 158L20.9248 153.936H22.2048L25.1008 158H23.8048ZM17.3408 154L16.8128 153.44H20.3168C21.4368 153.44 22.2848 153.195 22.8608 152.704C23.4475 152.213 23.7408 151.525 23.7408 150.64C23.7408 149.744 23.4475 149.051 22.8608 148.56C22.2848 148.069 21.4368 147.824 20.3168 147.824H16.8128L17.3408 147.264V154ZM30.9414 151.808H36.8614V152.816H30.9414V151.808ZM31.0694 156.976H37.8054V158H29.8854V146.8H37.5654V147.824H31.0694V156.976ZM40.9626 158L46.0826 146.8H47.2506L52.3706 158H51.1226L46.4186 147.488H46.8986L42.1946 158H40.9626ZM42.9786 155.008L43.3306 154.048H49.8426L50.1946 155.008H42.9786ZM61.0971 158.096C60.2545 158.096 59.4758 157.957 58.7611 157.68C58.0465 157.392 57.4278 156.992 56.9051 156.48C56.3825 155.968 55.9718 155.365 55.6731 154.672C55.3851 153.979 55.2411 153.221 55.2411 152.4C55.2411 151.579 55.3851 150.821 55.6731 150.128C55.9718 149.435 56.3825 148.832 56.9051 148.32C57.4385 147.808 58.0625 147.413 58.7771 147.136C59.4918 146.848 60.2705 146.704 61.1131 146.704C61.9238 146.704 62.6865 146.843 63.4011 147.12C64.1158 147.387 64.7185 147.792 65.2091 148.336L64.4571 149.088C63.9985 148.619 63.4918 148.283 62.9372 148.08C62.3825 147.867 61.7851 147.76 61.1451 147.76C60.4731 147.76 59.8491 147.877 59.2731 148.112C58.6971 148.336 58.1958 148.661 57.7691 149.088C57.3425 149.504 57.0065 149.995 56.7611 150.56C56.5265 151.115 56.4091 151.728 56.4091 152.4C56.4091 153.072 56.5265 153.691 56.7611 154.256C57.0065 154.811 57.3425 155.301 57.7691 155.728C58.1958 156.144 58.6971 156.469 59.2731 156.704C59.8491 156.928 60.4731 157.04 61.1451 157.04C61.7851 157.04 62.3825 156.933 62.9372 156.72C63.4918 156.507 63.9985 156.165 64.4571 155.696L65.2091 156.448C64.7185 156.992 64.1158 157.403 63.4011 157.68C62.6865 157.957 61.9185 158.096 61.0971 158.096ZM71.9346 158V147.824H67.9986V146.8H77.0546V147.824H73.1186V158H71.9346ZM88.6658 158.096C88.0364 158.096 87.4444 157.957 86.8898 157.68C86.3458 157.403 85.9084 157.008 85.5778 156.496L86.2658 155.696C86.5751 156.144 86.9324 156.485 87.3378 156.72C87.7431 156.955 88.1911 157.072 88.6818 157.072C90.0684 157.072 90.7618 156.251 90.7618 154.608V147.824H86.6658V146.8H91.9298V154.56C91.9298 155.744 91.6524 156.629 91.0978 157.216C90.5538 157.803 89.7431 158.096 88.6658 158.096ZM100.735 158.096C99.9035 158.096 99.1035 157.963 98.3355 157.696C97.5781 157.419 96.9915 157.067 96.5755 156.64L97.0395 155.728C97.4341 156.112 97.9621 156.437 98.6235 156.704C99.2955 156.96 99.9995 157.088 100.735 157.088C101.439 157.088 102.01 157.003 102.447 156.832C102.895 156.651 103.221 156.411 103.423 156.112C103.637 155.813 103.743 155.483 103.743 155.12C103.743 154.683 103.615 154.331 103.359 154.064C103.114 153.797 102.789 153.589 102.383 153.44C101.978 153.28 101.53 153.141 101.039 153.024C100.549 152.907 100.058 152.784 99.5675 152.656C99.0768 152.517 98.6235 152.336 98.2075 152.112C97.8021 151.888 97.4715 151.595 97.2155 151.232C96.9701 150.859 96.8475 150.373 96.8475 149.776C96.8475 149.221 96.9915 148.715 97.2795 148.256C97.5781 147.787 98.0315 147.413 98.6395 147.136C99.2475 146.848 100.026 146.704 100.975 146.704C101.605 146.704 102.229 146.795 102.847 146.976C103.466 147.147 103.999 147.387 104.447 147.696L104.047 148.64C103.567 148.32 103.055 148.085 102.511 147.936C101.978 147.787 101.461 147.712 100.959 147.712C100.287 147.712 99.7328 147.803 99.2955 147.984C98.8581 148.165 98.5328 148.411 98.3195 148.72C98.1168 149.019 98.0155 149.36 98.0155 149.744C98.0155 150.181 98.1381 150.533 98.3835 150.8C98.6395 151.067 98.9701 151.275 99.3755 151.424C99.7915 151.573 100.245 151.707 100.735 151.824C101.226 151.941 101.711 152.069 102.191 152.208C102.682 152.347 103.13 152.528 103.535 152.752C103.951 152.965 104.282 153.253 104.527 153.616C104.783 153.979 104.911 154.453 104.911 155.04C104.911 155.584 104.762 156.091 104.463 156.56C104.165 157.019 103.706 157.392 103.087 157.68C102.479 157.957 101.695 158.096 100.735 158.096Z" fill="#1F2626"/>
<path d="M0 59.7974C0 69.273 8.84919 78.1189 22.8007 83.1049C20.0147 97.7701 22.3014 109.59 29.9391 114.196C37.79 118.93 49.4858 115.653 60.5867 105.507C71.4076 115.243 82.3439 119.075 89.9746 114.456C97.8178 109.709 100.203 97.087 97.3404 81.964C111.872 76.9405 120 69.3977 120 59.7974C120 50.5414 111.134 42.5338 97.3711 37.5796C100.453 21.8316 97.8416 10.2984 89.8877 5.50237C82.2193 0.878721 71.156 4.9087 60.176 14.9001C48.7532 4.29502 37.799 1.05714 29.8528 5.86712C22.1918 10.5039 20.0057 22.5388 22.8007 37.4756C9.32028 42.39 0 50.5784 0 59.7974Z" fill="white"/>
<path d="M94.4564 42.499C93.3509 42.1012 92.2053 41.7247 91.0258 41.3687C91.2197 40.5414 91.3976 39.7248 91.5558 38.9221C94.1527 25.7414 92.4548 15.1229 86.6567 11.6269C81.0972 8.27464 72.0049 11.7699 62.8222 20.1258C61.9392 20.9293 61.0537 21.78 60.1686 22.6716C59.5788 22.0817 58.99 21.5117 58.4027 20.9664C48.7789 12.0317 39.1326 8.26651 33.3403 11.7727C27.786 15.1346 26.1412 25.117 28.4788 37.6084C28.7045 38.815 28.9684 40.0471 29.2668 41.2998C27.9015 41.7051 26.5835 42.1371 25.3224 42.5966C14.0396 46.7097 6.83386 53.156 6.83386 59.8424C6.83386 66.7482 14.5692 73.6749 26.3212 77.8748C27.2486 78.2063 28.2109 78.5197 29.2026 78.8172C28.8807 80.1721 28.6007 81.4998 28.3657 82.7948C26.1368 95.0694 27.8774 104.816 33.4169 108.157C39.1386 111.607 48.7414 108.061 58.092 99.5142C58.831 98.8386 59.5727 98.1222 60.3158 97.3713C61.2788 98.341 62.2404 99.2587 63.1968 100.12C72.254 108.269 81.1994 111.56 86.7337 108.21C92.4498 104.75 94.3075 94.2796 91.8957 81.5411C91.7115 80.5682 91.4972 79.5743 91.2564 78.5627C91.9308 78.3542 92.5928 78.139 93.2384 77.9153C105.456 73.6828 113.405 66.8405 113.405 59.8424C113.405 53.1318 105.966 46.6421 94.4564 42.499Z" fill="#53C1DE"/>
<path d="M91.8053 73.3974C91.2226 73.5991 90.6246 73.794 90.0153 73.9831C88.6666 69.5185 86.8463 64.7711 84.6187 59.8662C86.7444 55.0781 88.4944 50.3914 89.8053 45.9558C90.8955 46.2856 91.9536 46.6335 92.9732 47.0007C102.835 50.5505 108.851 55.7989 108.851 59.843C108.851 64.1507 102.354 69.7426 91.8053 73.3974ZM87.4283 82.4661C88.4947 88.099 88.6471 93.1917 87.9407 97.1729C87.3059 100.75 86.0295 103.135 84.4512 104.091C81.0927 106.123 73.9105 103.481 66.1647 96.5116C65.2767 95.7127 64.3823 94.8596 63.485 93.9567C66.4879 90.5227 69.4891 86.5306 72.4181 82.097C77.5701 81.619 82.4374 80.8375 86.8514 79.7706C87.0688 80.6876 87.2619 81.5869 87.4283 82.4661ZM43.165 103.739C39.8836 104.951 37.2702 104.986 35.6904 104.033C32.3289 102.006 30.9314 94.1804 32.8376 83.6832C33.056 82.481 33.3158 81.2461 33.6154 79.9838C37.981 80.9932 42.8127 81.7196 47.9769 82.1573C50.9258 86.4957 54.0136 90.4835 57.1253 93.9752C56.4455 94.6614 55.7683 95.3148 55.0949 95.9304C50.9601 99.7095 46.8166 102.391 43.165 103.739ZM27.7923 73.371C22.5958 71.5139 18.3044 69.1002 15.3628 66.4664C12.7196 64.0995 11.3851 61.7497 11.3851 59.843C11.3851 55.7854 17.1706 50.61 26.8198 47.0923C27.9905 46.6655 29.2162 46.2632 30.4881 45.8854C31.8216 50.4212 33.571 55.1634 35.6821 59.9588C33.5437 64.8254 31.7695 69.6433 30.4228 74.2322C29.5161 73.9597 28.6376 73.6729 27.7923 73.371ZM32.9454 36.6948C30.9426 25.9925 32.2727 17.919 35.6199 15.8931C39.1852 13.7349 47.0691 16.812 55.3784 24.5267C55.9096 25.0198 56.4428 25.5359 56.9776 26.0698C53.8812 29.5462 50.8216 33.504 47.899 37.8169C42.8869 38.3026 38.0891 39.0829 33.678 40.1278C33.4006 38.9613 33.155 37.8153 32.9454 36.6948ZM78.9152 48.5636C77.8607 46.6591 76.7781 44.7996 75.6744 42.9909C79.0747 43.4404 82.3325 44.037 85.3919 44.7671C84.4734 47.845 83.3286 51.0632 81.981 54.3623C81.0143 52.4433 79.9919 50.5084 78.9152 48.5636ZM60.1688 29.4719C62.2687 31.8506 64.3717 34.5065 66.4401 37.388C64.3557 37.2851 62.2456 37.2315 60.118 37.2315C58.0105 37.2315 55.9159 37.2839 53.8444 37.3851C55.9149 34.5303 58.0361 31.878 60.1688 29.4719ZM41.3024 48.5966C40.249 50.5064 39.2455 52.4308 38.294 54.3587C36.9682 51.0711 35.834 47.8383 34.9076 44.7167C37.9482 44.0053 41.1906 43.4235 44.5693 42.9826C43.4501 44.808 42.3586 46.6811 41.3024 48.5962V48.5966ZM44.6666 77.043C41.1758 76.6357 37.8846 76.0839 34.8448 75.3921C35.786 72.2148 36.9453 68.9129 38.2991 65.5546C39.2531 67.4811 40.2606 69.4062 41.3204 71.3203H41.3206C42.4001 73.2702 43.5186 75.1803 44.6666 77.043ZM60.2948 90.5497C58.137 88.1154 55.9847 85.4227 53.8827 82.5262C55.9232 82.6099 58.0036 82.6528 60.118 82.6528C62.2902 82.6528 64.4375 82.6016 66.5511 82.5032C64.4758 85.4518 62.3805 88.1487 60.2948 90.5497ZM82.0245 65.3834C83.4489 68.7781 84.6496 72.0627 85.603 75.1858C82.5131 75.9229 79.1769 76.5165 75.6619 76.9577C76.7682 75.1246 77.8603 73.2331 78.9334 71.2876C80.019 69.3192 81.0498 67.3478 82.0245 65.3834ZM74.9898 68.9094C73.3239 71.9296 71.6136 74.8128 69.8774 77.5343C66.715 77.7707 63.4479 77.8925 60.118 77.8925C56.8015 77.8925 53.5756 77.7848 50.4692 77.5739C48.6629 74.8167 46.9154 71.925 45.2601 68.9354H45.2605C43.6096 65.9538 42.0902 62.9471 40.7134 59.9572C42.0898 56.9604 43.6053 53.9503 45.2467 50.9741L45.2463 50.9747C46.8921 47.9906 48.6242 45.113 50.4138 42.3731C53.5832 42.1226 56.8332 41.9918 60.1178 41.9918H60.118C63.4173 41.9918 66.6715 42.1236 69.84 42.3762C71.6023 45.0962 73.3226 47.9644 74.9748 50.949C76.6459 53.967 78.1809 56.9571 79.5691 59.8896C78.185 62.8725 76.6535 65.8927 74.9898 68.9094ZM84.3814 15.7515C87.9501 17.9033 89.3379 26.5818 87.0957 37.9619C86.9527 38.688 86.7917 39.4276 86.6168 40.1772C82.1954 39.1105 77.3942 38.3167 72.3675 37.8236C69.4392 33.4634 66.4046 29.4994 63.3587 26.0676C64.1776 25.2439 64.9954 24.4585 65.8097 23.7172C73.6775 16.5579 81.031 13.7313 84.3814 15.7515Z" fill="white"/>
<path d="M60.1182 49.8921C65.3739 49.8921 69.6346 54.3469 69.6346 59.8425C69.6346 65.3379 65.3739 69.7929 60.1182 69.7929C54.8626 69.7929 50.6018 65.3379 50.6018 59.8425C50.6018 54.3469 54.8626 49.8921 60.1182 49.8921Z" fill="#53C1DE"/>
</svg>
