<svg width="577" height="433" viewBox="0 0 577 433" fill="none" xmlns="http://www.w3.org/2000/svg">
<path d="M453.161 319.085C446.418 312.121 441.261 303.786 438.087 294.621C437.979 294.837 437.835 295.054 437.727 295.27C438.556 295.09 439.349 294.945 440.179 294.765C440.648 294.657 440.72 294.007 440.323 293.791C437.222 292.131 436.861 286.791 436.176 283.724C435.274 279.718 434.445 275.713 433.724 271.708C432.209 263.481 431.055 255.182 430.226 246.846C429.937 246.991 429.685 247.171 429.396 247.315C435.419 250.888 441.153 254.893 446.526 259.403C451.358 263.481 456.191 267.847 459.617 273.187C463.295 278.852 465.062 285.708 466.144 292.275C467.37 299.528 467.37 306.925 465.639 314.106C465.459 314.791 466.505 315.08 466.685 314.394C469.39 303.461 468.019 291.806 464.557 281.198C461.203 271.058 453.63 263.733 445.516 257.166C440.612 253.197 435.383 249.589 429.973 246.377C429.649 246.197 429.108 246.413 429.144 246.846C430.009 255.759 431.271 264.599 432.93 273.368C433.76 277.734 434.661 282.1 435.707 286.394C436.392 289.316 436.861 293.141 439.782 294.729C439.818 294.404 439.854 294.079 439.926 293.755C439.097 293.935 438.304 294.079 437.474 294.26C437.186 294.332 437.005 294.657 437.114 294.909C440.359 304.255 445.588 312.735 452.476 319.843C452.909 320.348 453.666 319.59 453.161 319.085Z" fill="#E8E8E8"/>
<path d="M430.334 247.748C443.388 266.656 452.404 288.161 456.732 310.713C456.876 311.399 457.922 311.11 457.777 310.425C453.414 287.764 444.362 266.15 431.235 247.171C430.875 246.629 429.937 247.171 430.334 247.748Z" fill="#E8E8E8"/>
<path d="M434.661 278.852C440.107 280.043 445.841 281.378 449.627 285.816C450.06 286.357 450.853 285.564 450.385 285.058C446.49 280.476 440.576 279.032 434.95 277.806C434.265 277.661 433.976 278.708 434.661 278.852Z" fill="#E8E8E8"/>
<path d="M449.014 278.925C448.618 273.873 449.411 268.857 451.43 264.203C451.719 263.553 450.781 263.012 450.493 263.661C448.401 268.497 447.5 273.656 447.932 278.925C448.004 279.61 449.086 279.61 449.014 278.925Z" fill="#E8E8E8"/>
<path d="M457.705 269.001C460.302 252.835 471.373 240.278 481.975 228.551C481.687 228.371 481.362 228.191 481.074 228.01C478.585 236.923 484.428 245.186 486.555 253.557C487.709 258.176 488.25 262.939 488.358 267.702C488.431 270.047 488.394 272.429 488.322 274.774C488.286 275.929 488.286 277.12 488.034 278.238C487.673 279.79 485.942 282.207 484.103 280.584C483.887 280.872 483.67 281.161 483.454 281.45C486.627 283.109 485.473 287.872 484.969 290.651C484.319 294.403 483.238 297.976 480.821 301.007C477.323 305.337 472.311 308.548 470.652 314.105C470.435 314.791 471.481 315.043 471.698 314.394C473.753 307.61 481.002 304.362 483.995 298.084C485.546 294.836 486.231 291.012 486.555 287.475C486.808 284.914 486.555 281.846 483.995 280.547C483.49 280.295 482.841 280.98 483.346 281.413C484.464 282.424 486.014 282.424 487.277 281.594C488.683 280.656 489.116 278.924 489.26 277.3C489.837 271.851 489.585 266.114 488.935 260.702C488.286 255.289 486.844 250.201 484.824 245.186C482.697 239.845 480.497 234.18 482.12 228.371C482.264 227.866 481.579 227.433 481.218 227.83C470.507 239.701 459.292 252.439 456.659 268.748C456.551 269.398 457.597 269.686 457.705 269.001Z" fill="#E8E8E8"/>
<path d="M479.848 231.691C472.347 250.202 467.695 269.759 466.036 289.677C465.964 290.362 467.045 290.362 467.118 289.677C468.776 269.867 473.429 250.418 480.893 231.98C481.146 231.366 480.1 231.077 479.848 231.691Z" fill="#E8E8E8"/>
<path d="M376.781 288.378C385.616 290.291 394.235 286.033 402.746 284.337C412.122 282.497 421.787 282.497 431.199 284.192C431.884 284.301 432.173 283.29 431.488 283.146C422.761 281.558 413.853 281.45 405.126 282.821C400.654 283.543 396.327 284.77 391.999 285.997C387.131 287.332 382.118 288.414 377.106 287.332C376.384 287.187 376.096 288.198 376.781 288.378Z" fill="#E8E8E8"/>
<path d="M487.204 285.059C492.325 284.084 497.374 285.311 502.315 286.538C507.147 287.693 512.015 288.739 516.956 289.605C526.476 291.265 536.141 292.239 545.806 292.636C546.491 292.672 546.491 291.59 545.806 291.554C535.528 291.157 525.322 290.038 515.189 288.198C510.284 287.296 505.452 286.177 500.62 285.023C496.112 283.94 491.532 283.146 486.916 284.048C486.267 284.157 486.555 285.203 487.204 285.059Z" fill="#E8E8E8"/>
<path d="M79.59 254.82C92.3561 251.862 105.122 248.434 118.069 246.557C130.979 244.717 144.07 244.501 157.088 245.619C182.116 247.784 206.422 254.351 230.944 259.439C244.468 262.254 258.135 264.563 271.947 265.501C272.633 265.537 272.633 264.455 271.947 264.419C246.631 262.687 222.037 256.228 197.298 250.959C172.703 245.763 147.676 242.011 122.504 244.897C107.899 246.593 93.6183 250.454 79.3015 253.774C78.6163 253.918 78.9048 254.965 79.59 254.82Z" fill="#E8E8E8"/>
<path d="M182.007 247.749C203.176 245.908 223.912 240.929 244.432 235.589C265.42 230.104 286.408 224.547 307.397 218.99C328.349 213.469 349.265 207.804 370.29 202.428C380.748 199.758 391.314 197.34 402.061 196.33C412.411 195.356 422.869 195.5 433.219 196.474C457.381 198.711 480.893 205.17 504.226 211.593C504.911 211.774 505.2 210.727 504.514 210.547C483.995 204.882 463.367 199.217 442.198 196.402C431.668 194.995 420.994 194.273 410.355 194.706C399.897 195.103 389.583 196.763 379.378 199.072C368.992 201.454 358.714 204.304 348.4 207.047C337.87 209.825 327.339 212.603 316.809 215.382C295.532 220.975 274.219 226.604 252.942 232.197C229.61 238.331 206.133 244.537 182.007 246.63C181.322 246.738 181.322 247.821 182.007 247.749Z" fill="#E8E8E8"/>
<path d="M123.911 312.626C132.71 312.951 141.545 313.275 150.345 313.6C158.927 313.925 167.546 314.43 176.129 314.502C184.496 314.574 192.574 312.951 200.796 311.471C209.379 309.92 218.07 308.801 226.761 308.187C236.462 307.466 246.199 307.358 255.9 307.755C256.585 307.791 256.585 306.708 255.9 306.672C238.878 305.95 221.82 306.925 205.015 309.667C196.432 311.074 187.922 313.239 179.231 313.42C170.72 313.636 162.101 312.987 153.59 312.662C143.709 312.301 133.828 311.94 123.947 311.579C123.226 311.507 123.226 312.59 123.911 312.626Z" fill="#E8E8E8"/>
<path d="M106.204 359.895C106.745 360.292 107.286 360.653 107.827 361.05C108.332 361.411 108.909 360.617 108.476 360.184C106.817 358.452 105.194 356.756 103.535 355.024C102.778 354.23 101.877 353.509 101.264 352.606C100.326 351.235 101.3 350.586 101.516 349.467C101.768 348.313 100.614 347.663 99.9653 346.941C98.5228 345.39 97.5851 343.441 96.8639 341.457C93.8707 333.266 92.8249 324.028 92.5364 315.368C92.3561 315.549 92.1758 315.729 91.9955 315.91C101.083 315.08 106.348 323.668 109.378 330.92C112.767 338.967 115.869 347.374 116.266 356.215C116.302 356.9 117.383 356.9 117.347 356.215C116.915 346.761 113.525 337.596 109.702 329.008C106.529 321.827 100.795 313.997 91.9594 314.791C91.6709 314.827 91.4185 315.008 91.4185 315.332C91.5988 319.987 92.0315 324.606 92.7888 329.188C93.5461 333.663 94.4116 338.281 96.0705 342.503C96.6836 344.055 97.4409 345.534 98.4506 346.833C99.1719 347.735 100.398 348.529 99.9653 349.864C99.785 350.405 99.4243 350.694 99.4604 351.344C99.5325 352.931 101.264 354.23 102.237 355.241C104.04 357.117 105.88 359.029 107.683 360.906C107.899 360.617 108.115 360.328 108.332 360.04C107.791 359.643 107.25 359.282 106.709 358.885C106.168 358.56 105.627 359.498 106.204 359.895Z" fill="#E8E8E8"/>
<path d="M112.912 335.322C116.049 327.095 121.567 319.914 128.743 314.827C128.491 314.754 128.238 314.682 127.986 314.646C130.005 319.265 131.376 324.1 132.097 329.08C132.205 328.863 132.349 328.647 132.458 328.43C131.592 328.683 130.727 328.935 129.825 329.188C129.464 329.296 129.356 329.657 129.5 329.982C130.51 332.399 131.628 335.142 130.51 337.703C129.573 339.832 127.553 341.42 126.147 343.188C123.586 346.363 121.603 349.9 120.088 353.652C119.836 354.302 120.882 354.59 121.134 353.941C123.153 348.853 126.183 344.812 129.753 340.734C131.051 339.255 132.025 337.631 132.097 335.611C132.169 333.446 131.268 331.389 130.438 329.44C130.33 329.693 130.222 329.982 130.114 330.234C130.979 329.982 131.845 329.729 132.746 329.476C133.035 329.404 133.179 329.116 133.107 328.827C132.349 323.739 130.943 318.832 128.887 314.105C128.779 313.852 128.383 313.744 128.13 313.925C120.701 319.229 115.039 326.554 111.794 335.069C111.65 335.683 112.659 335.971 112.912 335.322Z" fill="#E8E8E8"/>
<path d="M95.746 321.214C104.942 331.786 110.928 344.957 112.767 358.849C112.876 359.534 113.958 359.534 113.849 358.849C111.938 344.632 105.916 331.245 96.5033 320.42C96.0345 319.915 95.2772 320.673 95.746 321.214Z" fill="#E8E8E8"/>
<path d="M117.816 346.725C119.511 340.735 121.891 334.998 124.957 329.549C125.281 328.936 124.38 328.395 124.019 329.008C120.918 334.529 118.501 340.374 116.77 346.436C116.554 347.122 117.6 347.411 117.816 346.725Z" fill="#E8E8E8"/>
<path d="M96.1066 301.549C108.728 299.095 121.639 298.157 134.333 300.574C140.247 301.693 146.089 302.992 152.076 303.678C158.387 304.399 164.77 304.688 171.117 304.941C171.802 304.977 171.802 303.894 171.117 303.858C164.77 303.569 158.387 303.317 152.076 302.595C145.512 301.837 139.093 300.286 132.566 299.167C120.377 297.074 107.863 298.193 95.8181 300.538C95.1329 300.647 95.4214 301.693 96.1066 301.549Z" fill="#E8E8E8"/>
<path d="M143.673 344.452C150.886 343.297 158.098 342.107 165.383 341.674C172.775 341.241 179.916 341.854 187.164 343.189C193.8 344.416 200.219 344.993 206.999 344.849C214.031 344.668 221.135 344.344 227.987 346.184C228.672 346.364 228.961 345.318 228.276 345.137C221.64 343.333 214.824 343.55 208.009 343.73C204.402 343.838 200.76 343.875 197.154 343.586C193.439 343.297 189.761 342.539 186.119 341.89C179.122 340.627 172.162 340.158 165.022 340.591C157.773 341.06 150.561 342.215 143.385 343.369C142.699 343.514 142.988 344.56 143.673 344.452Z" fill="#E8E8E8"/>
<path d="M341.909 353.076C355.432 351.127 369.028 349.973 382.695 349.684C396.002 349.395 409.309 349.937 422.616 350.225C423.302 350.225 423.302 349.143 422.616 349.143C409.093 348.854 395.533 348.313 381.974 348.638C368.451 348.962 354.999 350.117 341.62 352.029C340.935 352.138 341.223 353.148 341.909 353.076Z" fill="#E8E8E8"/>
<path d="M401.844 360.833C407.001 358.632 412.555 361.302 417.856 361.05C418.974 360.977 420.128 360.833 421.21 360.472C422.689 359.967 424.059 359.173 425.646 359.101C428.386 358.957 430.947 360.003 433.688 359.57C434.373 359.462 434.084 358.415 433.399 358.524C430.334 359.029 427.341 357.513 424.311 358.199C422.941 358.488 421.715 359.209 420.381 359.606C419.01 359.967 417.604 360.039 416.197 360.003C411.185 359.787 406.172 357.874 401.267 359.967C400.69 360.147 401.231 361.086 401.844 360.833Z" fill="#E8E8E8"/>
<path d="M474.799 320.961C483.887 318.255 492.974 318.327 502.279 319.446C511.042 320.492 519.877 321.863 528.676 320.312C529.361 320.203 529.073 319.157 528.388 319.265C519.228 320.889 510.032 319.229 500.908 318.219C491.929 317.208 483.165 317.317 474.474 319.951C473.861 320.131 474.114 321.178 474.799 320.961Z" fill="#E8E8E8"/>
<path d="M438.556 114.637C431.848 111.029 427.485 104.029 428.495 96.2707C429.396 89.1623 435.094 83.0282 442.054 81.3683C449.158 79.7085 457.092 83.0642 460.951 89.2345C465.098 95.8377 464.196 104.57 459.112 110.415C453.342 117.055 443.244 118.065 435.96 113.374C435.383 112.977 434.842 113.915 435.419 114.312C442.198 118.715 451.575 118.426 457.849 113.194C464.088 107.998 466.396 98.977 463.295 91.4356C460.338 84.255 452.765 79.5642 445.011 79.8889C437.366 80.2497 430.442 85.7705 428.134 93.0232C425.249 102.008 430.081 111.245 438.051 115.539C438.628 115.9 439.169 114.962 438.556 114.637Z" fill="#E8E8E8"/>
<path d="M127.301 193.551C130.979 190.268 136.136 192.505 138.877 195.824C140.283 197.52 141.113 199.433 142.194 201.309C142.88 202.572 143.889 203.835 145.404 204.124C146.594 204.34 147.568 203.907 148.361 203.041C148.866 202.464 149.191 201.706 149.695 201.129C150.777 199.866 152.184 200.01 153.338 201.02C155.862 203.222 155.97 208.67 160.406 208.273C161.091 208.201 161.091 207.119 160.406 207.191C155.79 207.624 156.331 199.866 151.895 199.108C150.597 198.892 149.551 199.469 148.758 200.479C148.253 201.129 147.928 202.031 147.279 202.572C145.404 204.124 143.745 201.959 142.988 200.479C141.149 197.087 139.346 193.551 135.703 191.783C132.71 190.34 129.068 190.484 126.543 192.757C126.038 193.226 126.796 194.02 127.301 193.551Z" fill="#E8E8E8"/>
<path d="M370.037 144.983C369.316 143.035 368.451 140.725 369.749 138.813C370.939 137.117 372.958 137.983 374.653 137.442C376.889 136.72 378.26 134.519 378.873 132.39C379.594 129.9 378.728 126.653 380.207 124.452C382.01 121.745 385.905 125.065 388.357 123.405C388.934 123.008 388.393 122.07 387.816 122.467C385.328 124.163 381.938 120.699 379.594 123.477C377.719 125.679 378.584 129.034 377.971 131.632C377.538 133.436 376.565 135.349 374.87 136.215C373.391 136.973 371.696 136.215 370.218 136.973C367.044 138.596 368.054 142.638 369.028 145.272C369.208 145.885 370.254 145.633 370.037 144.983Z" fill="#E8E8E8"/>
<path d="M373.932 119.688C373.247 117.884 373.644 115.827 374.978 114.384C376.637 112.58 378.548 113.302 380.604 112.58C381.83 112.147 382.551 111.101 383.02 109.946C383.308 109.224 383.489 108.466 383.741 107.745C383.957 107.167 384.21 106.518 384.643 106.085C385.292 105.472 386.842 104.966 387.239 106.338C387.456 106.987 388.465 106.734 388.285 106.049C387.816 104.533 386.049 103.992 384.679 104.714C382.082 106.049 383.02 110.018 380.604 111.353C379.269 112.075 377.61 111.642 376.204 112.219C375.302 112.616 374.509 113.266 373.896 114.023C372.562 115.719 372.129 117.956 372.886 119.977C373.103 120.627 374.148 120.338 373.932 119.688Z" fill="#E8E8E8"/>
<path d="M404.297 158.225C403.215 156.674 403.539 154.473 404.946 153.174C406.569 151.658 408.913 152.344 410.031 154.076C412.591 157.937 406.929 161.328 404.225 158.117C403.756 157.576 402.998 158.37 403.467 158.875C405.018 160.715 407.903 160.932 409.886 159.633C412.122 158.189 412.303 155.266 410.752 153.21C409.237 151.189 406.424 150.503 404.405 152.163C402.494 153.715 401.917 156.674 403.359 158.73C403.756 159.344 404.693 158.803 404.297 158.225Z" fill="#E8E8E8"/>
<path d="M408.372 164.215C407.362 162.808 406.1 161.112 406.533 159.308C407.182 156.638 410.355 157.323 411.798 158.911C412.988 160.246 413.421 162.339 411.906 163.602C410.752 164.576 408.985 164.756 407.939 163.602C407.47 163.096 406.713 163.854 407.182 164.359C408.624 165.911 411.076 165.767 412.627 164.432C414.466 162.844 414.25 160.21 412.807 158.442C411.365 156.638 408.083 155.339 406.28 157.395C404.261 159.705 405.956 162.7 407.434 164.756C407.831 165.334 408.768 164.792 408.372 164.215Z" fill="#E8E8E8"/>
<path d="M165.851 239.413C169.89 240.639 174.002 241.361 178.185 241.505C178.87 241.542 178.87 240.459 178.185 240.423C174.074 240.279 170.035 239.593 166.14 238.366C165.455 238.15 165.166 239.196 165.851 239.413Z" fill="#E8E8E8"/>
<path d="M436.32 210.546C460.843 210.366 483.923 219.531 507.075 226.314C513.71 228.263 520.418 230.031 527.198 231.366C527.883 231.51 528.171 230.464 527.486 230.32C503.432 225.557 480.749 215.345 456.551 211.195C449.88 210.041 443.1 209.391 436.32 209.463C435.635 209.463 435.635 210.546 436.32 210.546Z" fill="#E8E8E8"/>
<path d="M195.242 54.0893C196.505 57.1203 198.055 63.8318 202.599 60.8369C204.114 59.8627 206.35 57.0121 207.972 59.3214C208.946 60.6926 209.018 62.4967 210.857 63.1102C211.507 63.3267 211.795 62.2802 211.146 62.0637C209.451 61.4864 209.451 58.8884 208.081 57.842C207.179 57.1564 206.061 57.1925 205.087 57.6977C203.645 58.3832 202.599 59.9348 201.085 60.44C198.38 61.3421 197.009 55.5327 196.288 53.8007C196 53.1872 194.954 53.4398 195.242 54.0893Z" fill="#E8E8E8"/>
<path d="M206.458 54.7382C208.477 53.1867 211.434 53.9083 212.444 56.2537C213.057 57.7332 213.526 58.5992 215.257 58.7074C216.087 58.7435 216.988 58.4548 217.818 58.5992C219.549 58.8878 219.549 60.4033 219.837 61.8106C220.126 63.2178 220.775 64.4447 222.289 64.6251C222.974 64.6972 222.974 63.6147 222.289 63.5426C220.306 63.3261 221.135 59.2487 219.585 58.094C217.926 56.8672 215.437 58.4909 214.139 56.9754C213.526 56.2537 213.346 55.2795 212.697 54.5578C212.192 53.9444 211.507 53.5114 210.749 53.2227C209.126 52.5732 207.323 52.7897 205.953 53.8362C205.34 54.2331 205.881 55.1712 206.458 54.7382Z" fill="#E8E8E8"/>
<path d="M238.914 88.7647C241.186 89.2338 243.602 87.7905 244.215 85.4811C244.792 83.3161 243.386 81.2594 241.33 80.5738C236.534 78.9501 233.865 85.5533 237.76 88.2596C238.337 88.6565 238.878 87.7183 238.301 87.3214C235.56 85.409 237.255 80.6099 240.753 81.512C242.268 81.9089 243.53 83.2801 243.242 84.9038C242.917 86.7441 241.042 88.0791 239.203 87.6822C238.517 87.574 238.229 88.6204 238.914 88.7647Z" fill="#E8E8E8"/>
<path d="M242.412 90.6052C241.547 89.9196 240.501 89.1619 240.14 88.0433C239.635 86.5278 241.078 84.7236 242.773 85.1566C243.963 85.4814 244.792 86.8525 244.504 88.0794C244.143 89.4505 242.592 90.1361 241.294 89.8114C240.609 89.6309 240.321 90.6774 241.006 90.8578C242.773 91.2908 244.72 90.4609 245.441 88.7289C246.127 87.0329 245.189 84.9762 243.53 84.2545C241.871 83.5689 239.96 84.471 239.239 86.0587C238.229 88.2598 240.068 90.1 241.691 91.3629C242.16 91.7959 242.953 91.0382 242.412 90.6052Z" fill="#E8E8E8"/>
<path d="M170.468 161.87C168.809 160.39 168.484 158.153 170.107 156.493C171.513 155.086 173.605 155.122 174.939 156.602C177.716 159.705 173.713 163.746 170.431 161.617C169.854 161.22 169.314 162.158 169.891 162.555C171.838 163.818 174.507 163.385 176.021 161.653C177.572 159.849 177.103 157.143 175.444 155.555C173.677 153.895 171.045 154.004 169.35 155.7C167.294 157.756 167.619 160.751 169.71 162.628C170.215 163.097 170.972 162.339 170.468 161.87Z" fill="#E8E8E8"/>
<path d="M324.202 59.8623C326.293 55.2797 329.215 51.2023 332.821 47.7022C333.326 47.2331 332.568 46.4393 332.063 46.9444C328.385 50.5167 325.428 54.6663 323.264 59.3571C322.976 59.9344 323.913 60.5118 324.202 59.8623Z" fill="#E8E8E8"/>
<path d="M328.71 59.1403C330.873 56.4701 333.29 53.9804 335.886 51.7071C336.427 51.238 335.634 50.4803 335.129 50.9494C332.532 53.2226 330.152 55.7124 327.952 58.3825C327.52 58.9238 328.277 59.6815 328.71 59.1403Z" fill="#E8E8E8"/>
<path d="M331.45 62.3882C332.424 61.5583 333.398 60.7644 334.371 59.9345C334.912 59.5015 334.119 58.7077 333.614 59.1768C332.64 60.0067 331.667 60.8005 330.693 61.6304C330.152 62.0634 330.909 62.8212 331.45 62.3882Z" fill="#E8E8E8"/>
<path d="M382.479 65.5637C385.387 65.5637 387.744 63.205 387.744 60.2955C387.744 57.386 385.387 55.0273 382.479 55.0273C379.571 55.0273 377.214 57.386 377.214 60.2955C377.214 63.205 379.571 65.5637 382.479 65.5637Z" fill="#FFB800"/>
<path d="M380.063 73.7551C381.795 73.7551 383.2 72.3496 383.2 70.6158C383.2 68.8821 381.795 67.4766 380.063 67.4766C378.33 67.4766 376.925 68.8821 376.925 70.6158C376.925 72.3496 378.33 73.7551 380.063 73.7551Z" fill="#FFB800"/>
<path d="M213.851 213.722C215.982 213.722 217.709 211.993 217.709 209.861C217.709 207.729 215.982 206 213.851 206C211.719 206 209.992 207.729 209.992 209.861C209.992 211.993 211.719 213.722 213.851 213.722Z" fill="#3F64E9" fill-opacity="0.6"/>
<path d="M220.125 224.294C221.301 224.294 222.253 223.341 222.253 222.165C222.253 220.989 221.301 220.036 220.125 220.036C218.95 220.036 217.998 220.989 217.998 222.165C217.998 223.341 218.95 224.294 220.125 224.294Z" fill="#4F4F4F"/>
<path d="M257.703 166.02C258.027 169.159 259.037 171.937 262.607 171.865C263.833 171.865 264.879 171.504 265.817 172.443C266.682 173.309 266.43 174.175 266.79 175.257C266.971 175.798 267.223 176.304 267.728 176.664C268.377 177.133 270.829 177.133 270.613 178.216C270.469 178.902 271.515 179.19 271.659 178.505C271.911 177.278 271.082 176.556 269.928 176.231C268.269 175.762 267.872 175.113 267.62 173.633C267.512 172.948 267.367 172.262 266.899 171.685C265.961 170.566 264.446 170.711 263.148 170.747C261.742 170.819 260.407 170.711 259.65 169.339C259.073 168.329 258.929 167.102 258.821 165.984C258.712 165.334 257.63 165.334 257.703 166.02Z" fill="#707070"/>
<path d="M261.381 179.298C263.256 177.314 265.492 179.334 266.069 181.319C266.322 182.113 266.358 182.87 266.935 183.484C268.233 184.927 270.613 184.133 271.803 185.649C272.236 186.19 272.993 185.432 272.56 184.891C271.767 183.881 270.649 183.736 269.459 183.484C268.341 183.231 267.728 182.834 267.295 181.716C267.007 181.03 266.971 180.308 266.574 179.623C265.348 177.422 262.463 176.556 260.624 178.504C260.119 179.046 260.876 179.803 261.381 179.298Z" fill="#707070"/>
<path d="M389.475 175.654C388.79 174.355 390.232 173.381 391.314 174.175C391.639 174.392 392.144 174.103 392.144 173.706C392.035 172.479 393.261 171.577 394.415 172.01C395.065 172.263 395.353 171.216 394.704 170.964C392.901 170.278 390.917 171.794 391.062 173.706C391.35 173.562 391.603 173.381 391.891 173.237C389.836 171.757 387.419 174.031 388.573 176.196C388.862 176.809 389.8 176.268 389.475 175.654Z" fill="#707070"/>
<path d="M395.606 175.077C395.353 174.464 397.084 174.355 397.373 174.355C398.274 174.391 399.14 174.536 400.041 174.608C400.726 174.68 400.726 173.598 400.041 173.525C398.635 173.381 397.048 172.984 395.678 173.562C394.776 173.958 394.271 174.68 394.668 175.618C394.92 176.268 395.858 175.69 395.606 175.077Z" fill="#707070"/>
<path d="M207.684 218.377C210.034 218.377 211.939 216.471 211.939 214.119C211.939 211.768 210.034 209.861 207.684 209.861C205.334 209.861 203.429 211.768 203.429 214.119C203.429 216.471 205.334 218.377 207.684 218.377Z" fill="#3F64E9"/>
<path d="M247.966 58.7802C251.132 58.7802 253.7 56.2115 253.7 53.0429C253.7 49.8743 251.132 47.3057 247.966 47.3057C244.799 47.3057 242.232 49.8743 242.232 53.0429C242.232 56.2115 244.799 58.7802 247.966 58.7802Z" fill="#3F64E9"/>
<path d="M144.034 280.585C148.037 280.585 151.282 277.337 151.282 273.332C151.282 269.326 148.037 266.079 144.034 266.079C140.03 266.079 136.785 269.326 136.785 273.332C136.785 277.337 140.03 280.585 144.034 280.585Z" fill="#FFB800"/>
<path d="M391.458 255.002C393.51 255.002 395.173 253.338 395.173 251.285C395.173 249.232 393.51 247.568 391.458 247.568C389.407 247.568 387.744 249.232 387.744 251.285C387.744 253.338 389.407 255.002 391.458 255.002Z" fill="#2D2D2D"/>
<path d="M350.131 339.545C357.776 337.705 365.457 335.828 373.103 333.988C378.007 334.349 385.292 334.457 393.947 333.014C402.169 331.643 417.928 327.782 417.82 323.524C417.748 320.709 410.716 318.689 399.104 315.333C391.422 313.132 384.967 311.833 380.676 311.075C375.916 313.421 370.795 315.73 365.277 317.931C357.812 320.926 350.708 323.271 344.108 325.112C346.092 329.947 348.111 334.746 350.131 339.545Z" fill="#161616" stroke="#161616" stroke-width="3" stroke-miterlimit="10"/>
<path d="M331.234 332.22C338.879 330.38 346.561 328.503 354.206 326.663C359.11 327.024 366.395 327.132 375.05 325.689C383.272 324.317 399.032 320.457 398.923 316.199C398.851 313.384 391.819 311.364 380.207 308.008C372.526 305.807 366.07 304.508 361.779 303.75C357.019 306.095 351.898 308.405 346.38 310.606C338.915 313.601 331.811 315.946 325.212 317.786C327.195 322.658 329.215 327.457 331.234 332.22Z" fill="#161616" stroke="#161616" stroke-width="3" stroke-miterlimit="10"/>
<path d="M291.782 265.574C284.966 269.254 279.088 273.332 278.078 274.017C274.616 276.435 266.538 282.1 258.532 290.363C246.704 302.559 236.75 312.807 237.399 325.797C237.976 337.488 246.812 345.607 247.785 346.473C263.545 360.545 297.227 355.421 331.234 333.735C330.008 327.276 328.818 320.853 327.592 314.394C330.621 313.781 337.473 311.941 343.712 306.059C351.465 298.734 353.196 289.858 353.629 286.971C353.593 283.688 353.196 279.827 352.078 275.641C348.652 262.795 340.502 254.677 336.175 250.96C324.959 252.908 308.082 256.842 291.782 265.574Z" fill="white" stroke="#161616" stroke-width="3" stroke-miterlimit="10"/>
<path d="M317.566 272.321C310.642 276.074 304.476 280.332 303.863 280.765C294.919 287.007 288.608 292.997 284.317 297.111C268.99 311.833 258.099 321.828 259.542 333.952C260.948 345.607 272.596 352.643 273.57 353.184C280.386 357.153 287.31 357.261 292.864 356.973C317.819 355.674 345.803 345.029 357.019 340.447C355.793 333.988 354.603 327.565 353.376 321.106C356.406 320.096 364.989 316.704 370.65 307.755C371.516 306.384 374.545 301.368 375.375 294.188C375.627 292.131 375.915 287.801 373.644 278.816C372.237 273.26 369.713 265.502 364.989 256.697C355.035 258.465 335.598 262.579 317.566 272.321Z" fill="white" stroke="#161616" stroke-width="3" stroke-miterlimit="10"/>
<path d="M314.285 327.998C327.664 328.323 341.007 326.302 353.665 322.008C354.314 321.792 354.026 320.745 353.376 320.962C340.791 325.256 327.592 327.277 314.285 326.916C313.6 326.88 313.6 327.962 314.285 327.998Z" fill="#161616"/>
<path d="M310.787 324.21C311.688 325.761 313.059 326.988 314.717 327.674C315.367 327.926 315.908 327.024 315.258 326.735C313.744 326.086 312.554 325.076 311.724 323.668C311.364 323.055 310.426 323.596 310.787 324.21Z" fill="#161616"/>
<path opacity="0.12" d="M333.506 297.471C320.956 304.507 314.465 303.353 301.987 313.095C298.742 315.657 279.773 330.487 282.189 345.534C282.405 346.797 283.523 353.869 288.788 356.648C291.024 357.838 293.224 357.766 296.289 357.55C306.567 356.756 314.501 354.807 315.475 354.555C328.097 351.415 325.969 352.714 334.66 350.369C340.394 348.817 348.147 346.364 357.163 342.575C355.973 336.261 354.747 329.982 353.557 323.667C356.189 322.441 359.796 320.384 363.474 317.064C366.143 314.647 373.752 307.791 375.483 296.966C376.42 291.156 375.266 286.718 373.391 279.538C371.48 272.213 368.811 266.511 366.792 262.723C355.54 282.46 342.918 292.239 333.506 297.471Z" fill="#3D3D3D"/>
<path opacity="0.11" d="M320.019 266.332C319.514 265.466 303.646 272.682 285.507 285.853C263.076 302.126 250.634 311.761 250.093 325.472C249.48 341.457 271.37 354.808 272.308 353.978C272.813 353.509 259.614 344.38 259.398 331.173C259.253 322.549 264.735 315.73 274.4 305.951C299.102 280.945 320.632 267.378 320.019 266.332Z" fill="#3D3D3D"/>
<path opacity="0.12" d="M371.011 274.161C369.352 280.728 365.926 290.435 358.425 299.997C342.45 320.312 319.766 325.003 313.131 326.121C314.249 327.204 315.331 328.43 316.448 329.729C322.435 336.946 325.392 344.668 326.943 350.73C336.752 347.338 346.561 343.91 356.334 340.518C354.819 334.529 353.34 328.503 351.826 322.513C354.927 321.25 359.976 318.688 364.736 313.817C366.72 311.76 371.516 306.744 373.752 298.806C376.997 287.043 372.454 277.012 371.011 274.161Z" fill="#3D3D3D"/>
<path d="M293.044 169.447C296.073 169.88 297.371 178.937 297.804 181.932C299.571 194.092 295.821 199.54 295.244 214.443C294.775 226.278 296.939 226.819 295.965 232.593C294.522 241.036 287.851 251.861 264.158 261.676C262.391 263.588 259.253 266.583 254.709 268.496C245.153 272.537 232.603 270.444 230.908 264.635C230.331 262.686 230.872 259.98 232.206 258.717C234.37 256.624 237.688 259.619 243.169 257.635C243.458 257.526 245.91 256.624 245.838 255.975C245.802 255.578 244.864 255.433 243.746 255.289C238.662 254.567 237.147 254.712 237.039 254.279C236.859 253.557 240.753 251.067 245.802 249.624C249.697 248.505 254.962 247.531 261.453 247.856C267.115 241.469 272.813 235.082 278.475 228.696C277.934 220.469 278.042 208.742 281.143 195.427C283.415 185.757 288.789 168.833 293.044 169.447Z" fill="white" stroke="#161616" stroke-width="3" stroke-miterlimit="10"/>
<path opacity="0.12" d="M293.188 169.267C288.752 169.339 284.749 186.984 283.92 199.505C282.874 215.345 287.021 220.289 283.92 229.995C281.864 236.418 276.671 244.681 262.715 252.186C251.716 261.388 244.396 262.362 239.563 261.207C236.606 260.522 232.928 258.609 231.269 260.233C229.862 261.604 230.511 264.996 231.99 267.305C235.524 272.682 246.163 271.383 252.221 269.254C257.847 267.269 261.561 263.805 263.689 261.46C268.63 260.125 280.17 256.264 289.762 245.367C299.102 234.758 301.302 223.464 302.42 217.33C306.712 193.984 298.597 169.159 293.188 169.267Z" fill="#3D3D3D"/>
<path d="M347.895 148.519C360.733 151.226 370.47 162.087 374.689 172.082C379.341 183.051 376.637 191.639 374.04 209.789C372.273 222.238 370.362 240.171 370.362 262.579C366.467 265.538 348.039 279.033 322.94 275.605C307 273.44 296.109 265.538 291.313 261.532C292.106 255.759 292.9 246.81 291.962 235.985C290.592 220.758 286.913 214.804 286.228 202.753C285.795 195.139 286.444 183.917 292.287 169.845C295.568 167.607 300.22 164.649 306.026 161.545C324.058 151.911 335.345 145.885 347.895 148.519Z" fill="#E93F3F"/>
<path opacity="0.14" d="M335.417 165.37C338.735 174.247 343.423 190.701 340.935 211.052C336.788 244.862 315.619 265.754 309.056 271.744C314.321 273.837 325.212 277.301 339.096 275.713C354.783 273.909 365.529 266.62 370.037 263.156C369.641 248.145 370.542 235.661 371.552 226.387C374.653 198.459 380.243 188.391 374.293 173.056C372.886 169.412 368.162 157.215 356.225 151.586C353.088 150.107 350.239 149.458 348.256 149.133C347.534 151.695 345.875 156.277 341.836 160.463C339.601 162.844 337.256 164.36 335.417 165.37Z" fill="#3D3D3D"/>
<path opacity="0.21" d="M375.555 178.252C366.07 204.015 356.55 229.743 347.066 255.506C338.807 262.254 330.513 269.002 322.254 275.749C328.421 276.29 338.23 276.326 349.518 273.007C358.894 270.228 365.998 266.115 370.65 262.903C370.542 259.079 370.47 253.45 370.65 246.666C371.155 229.635 371.372 221.119 373.716 210.799C375.879 201.273 378.801 194.02 376.781 183.195C376.384 181.03 375.916 179.334 375.555 178.252Z" fill="#3D3D3D"/>
<path d="M222.758 252.765C227.049 263.157 231.377 273.549 235.668 283.905C253.123 277.843 270.613 271.744 288.067 265.682C283.884 255.687 279.701 245.656 275.554 235.661C257.955 241.362 240.357 247.063 222.758 252.765Z" fill="white" stroke="#161616" stroke-width="3" stroke-miterlimit="10"/>
<path d="M217.132 218.413C222.974 222.671 229.971 228.625 236.858 236.635C242.448 243.13 246.631 249.445 249.769 254.857C256.621 244.213 263.437 233.568 270.288 222.96C262.319 214.083 254.349 205.243 246.379 196.366C236.606 203.727 226.869 211.052 217.132 218.413Z" fill="white" stroke="#161616" stroke-width="3" stroke-miterlimit="10"/>
<path d="M185.542 168.907C185.542 178.649 185.542 188.392 185.542 198.17C193.007 194.49 200.471 190.809 207.936 187.165C212.877 184.747 217.818 182.33 222.758 179.948C221.352 172.84 219.981 165.768 218.575 158.659C207.576 162.051 196.577 165.479 185.542 168.907Z" fill="white" stroke="#161616" stroke-width="3" stroke-miterlimit="10"/>
<path d="M163.796 106.699C167.474 115.431 171.153 124.163 174.795 132.895C187.813 125.426 200.868 117.957 213.887 110.488C208.441 100.096 202.996 89.7036 197.55 79.3477C194.124 83.3168 189.977 87.6107 185.037 91.8686C177.5 98.4357 170.107 103.199 163.796 106.699Z" fill="white" stroke="#161616" stroke-width="3" stroke-miterlimit="10"/>
<path d="M109.882 118.101C108.728 124.813 107.61 131.524 106.456 138.236C119.727 135.205 133.035 132.174 146.306 129.106C146.053 121.745 145.801 114.421 145.548 107.06C133.684 110.74 121.783 114.421 109.882 118.101Z" fill="white" stroke="#161616" stroke-width="3" stroke-miterlimit="10"/>
<path d="M223.155 253.666C235.632 255.506 248.002 257.816 260.263 260.594C260.948 260.739 261.237 259.692 260.552 259.548C248.254 256.769 235.885 254.424 223.443 252.62C222.758 252.548 222.47 253.594 223.155 253.666Z" fill="#161616"/>
<path d="M274.832 236.166C270.829 244.502 265.961 252.404 260.299 259.693C259.866 260.234 260.624 260.992 261.056 260.45C266.79 253.089 271.731 245.115 275.77 236.708C276.058 236.094 275.121 235.553 274.832 236.166Z" fill="#161616"/>
<path d="M226.076 220.578C232.134 214.155 238.878 208.418 246.235 203.511C246.812 203.114 246.271 202.176 245.694 202.572C238.265 207.552 231.449 213.325 225.318 219.82C224.814 220.289 225.607 221.083 226.076 220.578Z" fill="#161616"/>
<path d="M231.305 223.825C235.849 218.809 240.861 214.263 246.271 210.258C246.812 209.861 246.271 208.923 245.73 209.32C240.212 213.397 235.127 217.98 230.548 223.067C230.043 223.572 230.8 224.33 231.305 223.825Z" fill="#161616"/>
<path d="M235.849 229.888C241.727 223.284 248.182 217.186 255.178 211.738C255.719 211.305 254.962 210.547 254.421 210.98C247.461 216.428 240.97 222.49 235.091 229.13C234.623 229.635 235.416 230.393 235.849 229.888Z" fill="#161616"/>
<path d="M243.566 237.212C245.622 233.893 248.362 231.078 251.067 228.264C254.024 225.269 256.981 222.238 259.938 219.243C260.443 218.738 259.65 217.98 259.181 218.485C256.08 221.66 252.978 224.8 249.877 227.975C247.208 230.681 244.648 233.46 242.628 236.671C242.268 237.248 243.205 237.79 243.566 237.212Z" fill="#161616"/>
<path d="M234.226 268.605C234.875 271.563 235.957 274.342 237.435 276.94C237.76 277.553 238.698 277.012 238.373 276.399C236.931 273.837 235.885 271.166 235.272 268.316C235.127 267.63 234.082 267.919 234.226 268.605Z" fill="#161616"/>
<path d="M235.091 269.255C238.698 267.09 242.592 265.755 246.74 265.177C246.523 265.069 246.307 264.925 246.091 264.816C246.812 267.162 247.497 269.471 248.218 271.817C248.435 272.466 249.48 272.213 249.264 271.528C248.543 269.182 247.858 266.873 247.136 264.528C247.028 264.203 246.776 264.095 246.487 264.167C242.232 264.744 238.265 266.151 234.587 268.353C233.937 268.677 234.478 269.615 235.091 269.255Z" fill="#161616"/>
<path d="M238.121 277.373C241.547 275.966 244.9 274.378 248.218 272.682C248.831 272.358 248.29 271.419 247.677 271.744C244.468 273.404 241.186 274.919 237.832 276.327C237.183 276.615 237.472 277.662 238.121 277.373Z" fill="#161616"/>
<path d="M265.708 261.1C269.675 258.971 273.895 257.491 278.294 256.589C278.98 256.445 278.691 255.399 278.006 255.543C273.498 256.445 269.207 257.997 265.168 260.162C264.518 260.486 265.095 261.424 265.708 261.1Z" fill="#161616"/>
<path d="M267.007 264.202C269.423 263.156 271.839 262.109 274.219 261.063C274.868 260.774 274.291 259.836 273.678 260.125C271.262 261.171 268.846 262.218 266.466 263.264C265.817 263.553 266.394 264.455 267.007 264.202Z" fill="#161616"/>
<path d="M188.787 172.696C197.37 169.845 205.953 166.381 214.86 164.649C215.546 164.505 215.257 163.458 214.572 163.602C205.7 165.371 197.082 168.799 188.499 171.649C187.85 171.866 188.138 172.912 188.787 172.696Z" fill="#161616"/>
<path d="M188.643 177.35C196.865 173.561 205.376 170.494 214.103 168.184C214.788 168.004 214.5 166.958 213.815 167.138C204.979 169.483 196.396 172.587 188.102 176.411C187.489 176.7 188.03 177.638 188.643 177.35Z" fill="#161616"/>
<path d="M187.994 182.041C191.6 180.561 195.134 178.974 198.632 177.278C199.245 176.989 198.704 176.051 198.091 176.34C194.665 177.999 191.203 179.551 187.705 180.994C187.092 181.247 187.345 182.293 187.994 182.041Z" fill="#161616"/>
<path d="M189.977 185.938C197.586 182.077 205.376 178.541 213.31 175.402C213.959 175.149 213.67 174.103 213.021 174.355C204.979 177.531 197.118 181.103 189.436 185C188.787 185.325 189.364 186.263 189.977 185.938Z" fill="#161616"/>
<path d="M168.376 108.936C178.618 103.957 188.138 97.6785 196.793 90.3175C197.334 89.8484 196.541 89.0906 196.036 89.5597C187.453 96.8846 177.968 103.055 167.835 108.034C167.186 108.323 167.727 109.261 168.376 108.936Z" fill="#161616"/>
<path d="M170.576 113.626C174.867 111.137 178.978 108.394 182.945 105.399C183.486 105.002 182.945 104.028 182.404 104.461C178.437 107.456 174.326 110.198 170.035 112.688C169.422 113.049 169.963 113.987 170.576 113.626Z" fill="#161616"/>
<path d="M173.316 116.911C182.548 111.967 191.42 106.483 199.967 100.421C200.544 100.024 200.003 99.0857 199.426 99.4826C190.915 105.545 182.007 111.029 172.775 115.973C172.162 116.297 172.703 117.236 173.316 116.911Z" fill="#161616"/>
<path d="M175.624 122.503C185.83 117.885 195.567 112.328 204.727 105.833C205.304 105.436 204.763 104.498 204.186 104.895C195.062 111.39 185.325 116.947 175.083 121.565C174.434 121.854 174.975 122.756 175.624 122.503Z" fill="#161616"/>
<path opacity="0.13" d="M225.787 212.423C229.646 211.557 233.505 210.691 237.363 209.825C242.845 221.372 248.326 232.919 253.808 244.429C259.289 237.321 264.771 230.248 270.252 223.14C262.174 214.444 254.096 205.712 246.054 197.016C239.275 202.176 232.531 207.299 225.787 212.423Z" fill="#3D3D3D"/>
<path opacity="0.21" d="M197.442 166.38C195.423 175.654 193.403 184.963 191.384 194.237C201.698 189.293 212.011 184.314 222.361 179.37C220.847 172.803 219.368 166.2 217.854 159.633C211.038 161.906 204.222 164.143 197.442 166.38Z" fill="#3D3D3D"/>
<path opacity="0.08" d="M243.963 246.522C245.982 251.429 248.002 256.336 250.021 261.244C253.375 262.001 256.693 262.759 260.047 263.481C263.689 266.007 267.295 268.569 270.938 271.094C276.455 269.182 282.009 267.27 287.526 265.393C283.307 255.831 279.124 246.233 274.904 236.671C269.387 238.331 263.833 240.027 258.316 241.686C255.431 246.305 252.546 250.924 249.661 255.542C247.749 252.511 245.874 249.517 243.963 246.522Z" fill="#3F64E9"/>
<path opacity="0.15" d="M116.662 118.534C114.931 124.56 113.236 130.622 111.505 136.648C123.009 133.978 134.513 131.308 146.017 128.638C145.62 121.71 145.26 114.782 144.863 107.854C135.451 111.426 126.038 114.998 116.662 118.534Z" fill="#3D3D3D"/>
<path opacity="0.11" d="M180.132 97.9301C181.466 117.415 182.476 127.122 183.197 127.122C183.414 127.122 183.594 126.147 183.774 124.271C193.223 119.508 202.707 114.745 212.156 109.982C207.395 101.069 202.635 92.1929 197.875 83.2803C191.925 88.1515 186.01 93.0589 180.132 97.9301Z" fill="#3D3D3D"/>
<path d="M366.467 163.061C371.336 162.411 377.25 176.556 379.774 184.999C384.03 199.288 382.515 211.809 381.072 223.428C379.522 235.805 378.764 242.011 375.807 248.506C366.251 269.507 342.233 277.553 332.821 280.151C330.26 282.027 325.68 285.022 319.37 286.971C305.99 291.084 288.428 289.316 286.012 282.424C285.218 280.115 285.976 276.94 287.815 275.46C290.88 273.007 295.46 276.507 303.177 274.161C303.574 274.053 307 272.971 306.892 272.213C306.82 271.744 305.558 271.599 303.971 271.419C296.867 270.589 294.739 270.733 294.595 270.228C294.378 269.362 299.824 266.476 306.856 264.744C312.337 263.408 319.694 262.254 328.782 262.651C337.653 254.496 346.525 246.305 355.396 238.15C355.324 218.232 356.911 201.814 358.533 189.762C361.923 165.298 364.844 163.277 366.467 163.061Z" fill="white" stroke="#161616" stroke-width="3" stroke-miterlimit="10"/>
<path d="M285.471 282.135C286.841 283.615 289.365 284.048 291.205 284.589C293.909 285.347 296.686 285.924 299.499 286.285C300.184 286.393 300.473 285.347 299.788 285.239C297.443 284.914 295.099 284.481 292.791 283.867C290.808 283.362 287.634 282.929 286.228 281.342C285.759 280.872 285.002 281.63 285.471 282.135Z" fill="#161616"/>
<path d="M286.084 278.852C290.592 281.631 295.64 283.182 300.942 283.435C301.627 283.471 301.627 282.388 300.942 282.352C295.821 282.136 290.988 280.62 286.625 277.914C286.048 277.553 285.471 278.491 286.084 278.852Z" fill="#161616"/>
<path d="M287.995 276.326C293.044 278.888 298.525 280.223 304.187 280.223C304.872 280.223 304.872 279.14 304.187 279.14C298.706 279.14 293.404 277.877 288.536 275.388C287.923 275.063 287.382 276.001 287.995 276.326Z" fill="#161616"/>
<path opacity="0.15" d="M364.592 164.649C367.838 171.721 372.129 183.196 373.391 197.881C374.329 208.887 375.879 227.65 364.592 246.341C353.485 264.708 336.643 271.997 330.405 274.667C324.13 277.373 313.6 281.775 299.932 280.332C294.414 279.755 289.943 278.383 286.841 277.193C286.156 278.708 285.507 280.873 286.264 282.858C288.716 289.317 304.007 289.208 312.229 287.945C316.809 287.26 324.418 285.42 332.929 279.755C343.171 276.724 368.631 267.703 376.276 247.316C378.512 241.362 379.846 232.81 380.568 228.155C381.577 221.588 383.056 211.737 382.118 199.036C382.118 199.036 380.748 180.67 370.578 165.623C370.109 164.901 369.028 163.386 367.441 163.278C366.215 163.205 365.133 164.107 364.592 164.649Z" fill="#3D3D3D"/>
<path opacity="0.09" d="M381.397 212.928C380.315 212.747 378.007 224.727 375.555 232.268C371.3 245.331 360.914 262.615 333.362 279.754C339.601 278.347 348.472 275.388 357.379 269.001C361.887 265.754 369.496 260.305 374.761 250.238C378.404 243.274 379.378 237.031 380.604 228.949C381.722 221.84 382.299 213.072 381.397 212.928Z" fill="#3D3D3D"/>
<path d="M281.828 96.7755C281.648 105.111 281.468 113.41 281.288 121.745C278.763 132.281 282.694 142.962 290.88 148.375C299.788 154.256 309.741 151.297 311.183 150.828C311.255 152.849 311.183 155.375 310.642 158.225C310.174 160.859 309.416 163.061 308.731 164.793C313.131 168.906 317.206 169.952 319.442 170.277C330.044 171.829 342.161 163.313 348.508 148.591C346.597 146.57 344.036 143.539 341.656 139.534C340.286 137.261 337.112 131.524 335.345 123.333C333.542 114.961 335.309 113.843 333.975 107.709C332.46 100.709 328.097 92.7702 322.182 88.765C312.229 82.1617 295.496 85.0845 281.828 96.7755Z" fill="white" stroke="#161616" stroke-width="3" stroke-miterlimit="10"/>
<path d="M280.35 125.029C277.826 126.4 277.645 130.441 277.393 135.781C277.14 140.761 276.888 146.715 280.638 152.668C283.487 157.215 287.346 159.452 288.933 160.354C297.155 165.045 305.521 163.602 308.154 163.024C306.495 162.339 304.8 161.653 303.141 160.968C305.197 160.895 308.659 160.499 312.301 158.586C316.052 156.638 318.179 154.04 319.983 151.766C322.11 149.096 325.464 144.153 327.375 136.684C326.438 135.06 322.832 128.493 324.707 120.41C325.753 115.936 328.024 112.869 329.431 111.245C331.631 111.389 332.821 112.291 333.29 112.724C335.706 114.925 335.994 119.436 333.578 123.694C334.624 122.936 337.112 120.843 338.302 117.162C339.564 113.338 338.555 110.126 338.014 108.286C337.329 106.085 336.319 102.801 333.29 101.178C332.424 100.708 331.054 100.131 329.431 100.275C324.238 100.781 323.156 109.116 317.098 116.802C312.554 122.539 303.213 130.405 294.018 129.359C287.094 128.565 283.776 123.152 280.35 125.029Z" fill="#161616" stroke="#161616" stroke-width="3" stroke-miterlimit="10"/>
<path d="M293.044 110.631C293.477 116.332 293.549 122.069 293.224 127.77C293.188 128.276 293.837 128.456 294.162 128.167C295.965 126.58 297.768 124.992 299.535 123.404C300.04 122.935 299.283 122.178 298.778 122.647C296.975 124.234 295.172 125.822 293.405 127.41C293.729 127.554 294.018 127.662 294.342 127.807C294.667 122.105 294.595 116.368 294.162 110.667C294.09 109.945 293.008 109.945 293.044 110.631Z" fill="#161616"/>
<path d="M285.254 116.188C285.11 115.791 284.641 114.203 285.507 114.203C286.012 114.203 286.012 115.069 286.012 115.394C286.012 115.719 286.012 116.26 285.759 116.548C285.507 116.873 285.146 116.621 285.038 116.26C284.93 115.899 285.002 115.502 285.038 115.141C285.146 114.456 284.1 114.167 283.992 114.853C283.812 116.007 283.956 117.884 285.579 117.775C286.733 117.703 287.057 116.332 287.057 115.358C287.057 114.347 286.625 112.94 285.327 113.084C283.632 113.301 283.74 115.25 284.136 116.44C284.425 117.126 285.471 116.837 285.254 116.188Z" fill="#161616"/>
<path d="M286.012 115.864C285.759 115.575 285.759 115.07 286.012 114.745C285.723 114.709 285.435 114.673 285.146 114.637C285.435 115.034 285.507 115.611 285.182 116.008C285.471 116.044 285.759 116.08 286.048 116.116C285.94 115.936 285.182 114.889 285.795 114.853C285.723 114.853 285.795 114.745 285.759 114.925C285.759 115.07 285.795 115.25 285.795 115.431C285.795 115.539 285.723 116.008 285.543 115.9C284.966 115.503 284.425 116.441 285.002 116.838C285.651 117.271 286.48 116.838 286.733 116.188C286.985 115.575 286.985 114.348 286.336 113.951C285.759 113.59 284.966 113.915 284.641 114.456C284.209 115.214 284.641 116.044 285.074 116.694C285.254 116.946 285.687 117.09 285.94 116.802C286.553 116.044 286.661 114.962 286.084 114.132C285.903 113.879 285.471 113.735 285.218 114.023C284.569 114.817 284.569 115.864 285.218 116.657C285.687 117.127 286.444 116.369 286.012 115.864Z" fill="#161616"/>
<path d="M306.243 114.708C305.882 114.384 305.449 113.626 306.099 113.301C306.748 112.976 306.856 113.842 306.856 114.275C306.856 114.528 306.928 115.538 306.495 115.538C306.099 115.538 305.882 114.708 305.774 114.456C305.594 113.806 304.548 114.059 304.728 114.744C305.017 115.683 305.738 116.945 306.892 116.549C308.01 116.188 308.046 114.528 307.866 113.59C307.649 112.471 306.531 111.749 305.485 112.399C304.331 113.121 304.584 114.636 305.485 115.466C305.99 115.935 306.748 115.177 306.243 114.708Z" fill="#161616"/>
<path d="M307 114.997C306.856 114.528 306.82 114.059 306.928 113.59C306.676 113.698 306.387 113.806 306.135 113.914C306.387 114.059 306.387 114.528 306.135 114.672C306.387 114.78 306.676 114.889 306.928 114.997C306.712 114.528 306.531 114.023 306.315 113.553C306.207 113.301 305.954 113.084 305.666 113.193C305.413 113.265 305.161 113.59 305.305 113.842C305.522 114.311 305.702 114.816 305.918 115.285C306.062 115.61 306.387 115.827 306.712 115.61C307.649 115.033 307.649 113.553 306.712 112.976C306.423 112.796 305.99 112.94 305.918 113.301C305.774 113.986 305.81 114.636 305.99 115.285C306.171 115.935 307.18 115.646 307 114.997Z" fill="#161616"/>
<path d="M283.704 109.621C284.858 107.492 287.707 107.203 289.149 109.224C289.546 109.801 290.483 109.26 290.087 108.683C288.175 106.049 284.353 106.157 282.766 109.08C282.441 109.693 283.379 110.234 283.704 109.621Z" fill="#161616"/>
<path d="M302.637 109.512C304.187 106.95 307.83 107.167 308.947 109.981C309.2 110.631 310.246 110.342 309.993 109.693C308.515 106.012 303.754 105.543 301.699 108.971C301.338 109.548 302.276 110.09 302.637 109.512Z" fill="#161616"/>
<path d="M268.449 99.9865C287.202 101.069 305.918 102.584 324.599 104.533C326.69 104.749 326.654 101.502 324.599 101.285C305.918 99.3009 287.202 97.7854 268.449 96.739C266.358 96.6307 266.358 99.8782 268.449 99.9865Z" fill="#161616"/>
<path d="M280.602 97.605C280.891 94.8266 282.081 87.6821 287.815 81.8366C295.568 73.9343 309.092 71.192 319.766 77.5066C328.133 82.4861 333.001 91.976 332.424 102.043C315.15 100.6 297.876 99.0844 280.602 97.605Z" fill="#191919"/>
<path opacity="0.11" d="M333.037 123.296C333.001 123.585 332.532 126.002 330.369 127.085C329.251 127.626 328.205 127.626 327.7 127.554C329.9 130.368 338.915 142.564 336.066 157.503C335.309 161.4 333.903 164.683 332.46 167.281C334.84 165.802 337.942 163.529 340.971 160.173C344.721 156.023 346.849 151.874 348.075 148.987C345.803 146.137 343.315 142.637 340.971 138.415C337.906 132.894 335.958 127.698 334.66 123.44C334.083 123.404 333.578 123.332 333.037 123.296Z" fill="#3D3D3D"/>
<path opacity="0.12" d="M293.008 110.848C291.71 115.827 290.375 120.843 289.077 125.822C290.556 126.4 292.034 126.977 293.477 127.554C293.332 121.961 293.188 116.404 293.008 110.848Z" fill="#3D3D3D"/>
<path opacity="0.69" d="M304.295 75.5216C300.581 78.9135 302.637 89.1611 309.164 100.022C316.881 100.708 324.599 101.429 332.316 102.115C332.568 98.9397 332.604 92.7695 329.034 86.8518C322.94 76.7846 308.875 71.3721 304.295 75.5216Z" fill="#444444"/>
</svg>
