<svg width="484" height="444" viewBox="0 0 484 444" fill="none" xmlns="http://www.w3.org/2000/svg">
<path fill-rule="evenodd" clip-rule="evenodd" d="M60 208.323V222.811H82.5039L91.578 208.323H60Z" fill="#1B1918"/>
<path fill-rule="evenodd" clip-rule="evenodd" d="M109 222.811L127.148 208.324H162.356C180.22 208.324 177.176 188.041 163.752 188.041H138.763C109.44 188.042 112.064 140.596 138.4 140.595H189.215L189.578 155.445H145.659C134.829 155.445 132.422 173.916 145.659 173.916H170.704C201.423 173.916 202.358 222.811 172.156 222.811H109Z" fill="#1B1918"/>
<path fill-rule="evenodd" clip-rule="evenodd" d="M206.118 198.728C206.118 217.147 222.989 222.811 241.734 222.811C259.854 222.811 277.349 216.939 277.349 195.819V140.595H260.062V198.312L223.197 199.352V140.595H206.118C206.118 140.595 206.118 198.729 206.118 198.728V198.728Z" fill="#1B1918"/>
<path fill-rule="evenodd" clip-rule="evenodd" d="M420.037 208.324V222.811H318.992C303.736 222.811 292.244 213.568 292.244 192.932V140.595H309.481V188.041C309.481 203.403 316.118 208.324 324.638 208.324H420.037Z" fill="#1B1918"/>
<path fill-rule="evenodd" clip-rule="evenodd" d="M61.9805 311V296.513H391.072C408.936 296.513 405.892 276.23 392.468 276.23H374.999C345.676 276.231 348.3 228.785 374.636 228.784H417.931L418.294 243.634H381.895C371.065 243.634 368.658 262.105 381.895 262.105H399.42C430.139 262.105 431.074 311 400.872 311H61.9805Z" fill="#F07C00"/>
<path fill-rule="evenodd" clip-rule="evenodd" d="M93.0301 229.925C110.176 229.925 124.082 244.237 124.082 261.897C124.082 279.559 110.176 293.868 93.0301 293.868C75.8866 293.868 61.9795 279.559 61.9795 261.897C61.9795 244.237 75.8866 229.925 93.0301 229.925V229.925ZM93.0307 239.851C102.647 239.851 110.446 249.72 110.446 261.897C110.446 274.076 102.647 283.944 93.0307 283.944C83.4158 283.944 75.6162 274.076 75.6162 261.897C75.6162 249.72 83.4158 239.851 93.0307 239.851V239.851Z" fill="#F07C00"/>
<path fill-rule="evenodd" clip-rule="evenodd" d="M91.1797 222.811L99.1875 208.323H115.414L100.03 222.811H91.1797Z" fill="#F07C00"/>
<path fill-rule="evenodd" clip-rule="evenodd" d="M123.633 229.607L144.496 261.418L123.422 293.02H139.227L153.136 271.741L166.834 293.02H182.85L161.355 261.207L182.007 229.607H166.623L152.925 251.096L139.649 229.607H123.633Z" fill="#F07C00"/>
<path fill-rule="evenodd" clip-rule="evenodd" d="M204.134 229.607H190.647V293.02H204.134V229.607Z" fill="#F07C00"/>
<path fill-rule="evenodd" clip-rule="evenodd" d="M215.093 229.607V293.02H251.761C260.062 293.02 273.537 285.505 274.31 263.103C274.52 242.036 265.036 229.607 250.286 229.607H215.093ZM227.737 240.14V282.064H246.072C264.917 282.062 265.322 240.14 245.649 240.14H227.737Z" fill="#F07C00"/>
<path fill-rule="evenodd" clip-rule="evenodd" d="M314.161 229.925C331.307 229.925 345.213 244.237 345.213 261.897C345.213 279.559 331.307 293.868 314.161 293.868C297.017 293.868 283.11 279.559 283.11 261.897C283.11 244.237 297.017 229.925 314.161 229.925V229.925ZM314.162 239.851C323.778 239.851 331.577 249.72 331.577 261.897C331.577 274.076 323.778 283.944 314.162 283.944C304.547 283.944 296.747 274.076 296.747 261.897C296.747 249.72 304.547 239.851 314.162 239.851V239.851Z" fill="#F07C00"/>
<path fill-rule="evenodd" clip-rule="evenodd" d="M228.963 117.596C254.483 123.868 269.868 153.817 267.982 188.041C265.798 215.117 225.03 224.783 215.607 193.114C211.33 164.98 240.311 161.931 228.963 117.596Z" fill="#F07C00"/>
<path fill-rule="evenodd" clip-rule="evenodd" d="M230.406 67C261.998 87.0538 239.922 98.9038 251.874 121.009C220.053 96.1692 241.673 88.649 230.406 67Z" fill="#F07C00"/>
</svg>
