<svg width="363" height="244" viewBox="0 0 363 244" fill="none" xmlns="http://www.w3.org/2000/svg">
<path fill-rule="evenodd" clip-rule="evenodd" d="M0 141.323V155.811H22.5039L31.578 141.323H0Z" fill="#1B1918"/>
<path fill-rule="evenodd" clip-rule="evenodd" d="M49 155.811L67.1482 141.324H102.356C120.22 141.324 117.176 121.041 103.752 121.041H78.7631C49.4403 121.042 52.0639 73.5958 78.4002 73.5952H129.215L129.578 88.4447H85.6595C74.8289 88.4447 72.4222 106.916 85.6595 106.916H110.704C141.423 106.916 142.358 155.811 112.156 155.811H49Z" fill="#1B1918"/>
<path fill-rule="evenodd" clip-rule="evenodd" d="M146.118 131.728C146.118 150.147 162.989 155.811 181.734 155.811C199.854 155.811 217.349 149.939 217.349 128.819V73.5952H200.062V131.312L163.197 132.352V73.5952H146.118C146.118 73.5952 146.118 131.729 146.118 131.728V131.728Z" fill="#1B1918"/>
<path fill-rule="evenodd" clip-rule="evenodd" d="M360.037 141.324V155.811H258.992C243.736 155.811 232.244 146.568 232.244 125.932V73.5952H249.481V121.041C249.481 136.403 256.118 141.324 264.638 141.324H360.037Z" fill="#1B1918"/>
<path fill-rule="evenodd" clip-rule="evenodd" d="M1.98047 244V229.513H331.072C348.936 229.513 345.892 209.23 332.468 209.23H314.999C285.676 209.231 288.3 161.785 314.636 161.784H357.931L358.294 176.634H321.895C311.065 176.634 308.658 195.105 321.895 195.105H339.42C370.139 195.105 371.074 244 340.872 244H1.98047Z" fill="#F07C00"/>
<path fill-rule="evenodd" clip-rule="evenodd" d="M33.0301 162.925C50.1759 162.925 64.0818 177.237 64.0818 194.897C64.0818 212.559 50.1759 226.868 33.0301 226.868C15.8866 226.868 1.97949 212.559 1.97949 194.897C1.97949 177.237 15.8866 162.925 33.0301 162.925V162.925ZM33.0307 172.851C42.6468 172.851 50.4457 182.72 50.4457 194.897C50.4457 207.076 42.6468 216.944 33.0307 216.944C23.4158 216.944 15.6162 207.076 15.6162 194.897C15.6162 182.72 23.4158 172.851 33.0307 172.851V172.851Z" fill="#F07C00"/>
<path fill-rule="evenodd" clip-rule="evenodd" d="M31.1797 155.811L39.1875 141.323H55.4143L40.0304 155.811H31.1797Z" fill="#F07C00"/>
<path fill-rule="evenodd" clip-rule="evenodd" d="M63.6326 162.607L84.4958 194.418L63.4219 226.02H79.2273L93.1363 204.741L106.834 226.02H122.85L101.355 194.207L122.007 162.607H106.623L92.925 184.096L79.6487 162.607H63.6326Z" fill="#F07C00"/>
<path fill-rule="evenodd" clip-rule="evenodd" d="M144.134 162.607H130.647V226.02H144.134V162.607Z" fill="#F07C00"/>
<path fill-rule="evenodd" clip-rule="evenodd" d="M155.093 162.607V226.02H191.761C200.062 226.02 213.537 218.505 214.31 196.103C214.52 175.036 205.036 162.607 190.286 162.607H155.093ZM167.737 173.14V215.064H186.072C204.917 215.062 205.322 173.14 185.649 173.14H167.737Z" fill="#F07C00"/>
<path fill-rule="evenodd" clip-rule="evenodd" d="M254.161 162.925C271.307 162.925 285.213 177.237 285.213 194.897C285.213 212.559 271.307 226.868 254.161 226.868C237.017 226.868 223.11 212.559 223.11 194.897C223.11 177.237 237.017 162.925 254.161 162.925V162.925ZM254.162 172.851C263.778 172.851 271.577 182.72 271.577 194.897C271.577 207.076 263.778 216.944 254.162 216.944C244.547 216.944 236.747 207.076 236.747 194.897C236.747 182.72 244.547 172.851 254.162 172.851V172.851Z" fill="#F07C00"/>
<path fill-rule="evenodd" clip-rule="evenodd" d="M168.963 50.5962C194.483 56.8676 209.868 86.817 207.982 121.041C205.798 148.117 165.03 157.783 155.607 126.114C151.33 97.9797 180.311 94.9309 168.963 50.5962Z" fill="#F07C00"/>
<path fill-rule="evenodd" clip-rule="evenodd" d="M170.406 0C201.998 20.0538 179.922 31.9038 191.874 54.0086C160.053 29.1692 181.673 21.649 170.406 0Z" fill="#F07C00"/>
</svg>
