<svg width="120" height="164" viewBox="0 0 120 164" fill="none" xmlns="http://www.w3.org/2000/svg">
<path d="M0 60V120H60H120V60V0H60H0V60Z" fill="#007ACC"/>
<path d="M26.5374 60.3981L26.4993 65.3124H34.3088H42.1183L42.1183 87.5029V109.693H47.6421H53.166V87.5029L53.166 65.3124H60.9755H68.785V60.4934C68.785 57.8267 68.7279 55.5981 68.6517 55.541C68.5945 55.4648 59.0898 55.4267 47.566 55.4457L26.5945 55.5029L26.5374 60.3981Z" fill="white"/>
<path d="M96.8264 55.3639C99.874 56.1258 102.198 57.4781 104.331 59.6877C105.436 60.8686 107.074 63.021 107.207 63.5353C107.245 63.6877 102.026 67.1924 98.8645 69.1543C98.7502 69.2305 98.2931 68.7353 97.7788 67.9734C96.2359 65.7258 94.6169 64.7543 92.1407 64.5829C88.5026 64.3353 86.1597 66.2401 86.1788 69.421C86.1788 70.3543 86.3121 70.9067 86.6931 71.6686C87.4931 73.3258 88.9788 74.3162 93.6454 76.3353C102.236 80.0305 105.912 82.4686 108.198 85.9353C110.75 89.802 111.322 95.9734 109.588 100.564C107.684 105.554 102.96 108.945 96.3121 110.069C94.255 110.431 89.3788 110.373 87.1693 109.973C82.3502 109.116 77.7788 106.735 74.9597 103.611C73.855 102.392 71.7026 99.2115 71.8359 98.9829C71.8931 98.9067 72.3883 98.602 72.9407 98.2782C73.474 97.9734 75.4931 96.8115 77.3978 95.7067L80.8454 93.7067L81.5693 94.7734C82.5788 96.3162 84.7883 98.4305 86.1216 99.1353C89.9502 101.154 95.2073 100.869 97.7978 98.5448C98.9026 97.5353 99.3597 96.4877 99.3597 94.9448C99.3597 93.5543 99.1883 92.9448 98.4645 91.8972C97.5312 90.5639 95.6264 89.4401 90.2169 87.0972C84.0264 84.4305 81.3597 82.7734 78.9216 80.1448C77.5121 78.621 76.1788 76.1829 75.6264 74.1448C75.1693 72.4496 75.055 68.202 75.4169 66.4877C76.6931 60.5067 81.2074 56.3353 87.7216 55.0972C89.8359 54.6972 94.7502 54.8496 96.8264 55.3639Z" fill="white"/>
<path d="M5.28391 158V147.824H1.34791V146.8H10.4039V147.824H6.46791V158H5.28391ZM17.0554 158V153.84L17.3274 154.576L12.5754 146.8H13.8394L18.0154 153.632H17.3434L21.5194 146.8H22.7034L17.9514 154.576L18.2234 153.84V158H17.0554ZM26.4713 158V146.8H30.6633C31.6126 146.8 32.4286 146.955 33.1113 147.264C33.794 147.563 34.3166 148 34.6793 148.576C35.0526 149.141 35.2393 149.829 35.2393 150.64C35.2393 151.429 35.0526 152.112 34.6793 152.688C34.3166 153.253 33.794 153.691 33.1113 154C32.4286 154.309 31.6126 154.464 30.6633 154.464H27.1273L27.6553 153.904V158H26.4713ZM27.6553 154L27.1273 153.424H30.6313C31.7513 153.424 32.5993 153.184 33.1753 152.704C33.762 152.213 34.0553 151.525 34.0553 150.64C34.0553 149.744 33.762 149.051 33.1753 148.56C32.5993 148.069 31.7513 147.824 30.6313 147.824H27.1273L27.6553 147.264V154ZM41.0215 151.808H46.9415V152.816H41.0215V151.808ZM41.1495 156.976H47.8855V158H39.9655V146.8H47.6455V147.824H41.1495V156.976ZM55.9227 158.096C55.0907 158.096 54.2907 157.963 53.5227 157.696C52.7654 157.419 52.1787 157.067 51.7627 156.64L52.2267 155.728C52.6214 156.112 53.1494 156.437 53.8107 156.704C54.4827 156.96 55.1867 157.088 55.9227 157.088C56.6267 157.088 57.1974 157.003 57.6347 156.832C58.0827 156.651 58.408 156.411 58.6107 156.112C58.824 155.813 58.9307 155.483 58.9307 155.12C58.9307 154.683 58.8027 154.331 58.5467 154.064C58.3014 153.797 57.976 153.589 57.5707 153.44C57.1654 153.28 56.7174 153.141 56.2267 153.024C55.736 152.907 55.2454 152.784 54.7547 152.656C54.264 152.517 53.8107 152.336 53.3947 152.112C52.9894 151.888 52.6587 151.595 52.4027 151.232C52.1574 150.859 52.0347 150.373 52.0347 149.776C52.0347 149.221 52.1787 148.715 52.4667 148.256C52.7654 147.787 53.2187 147.413 53.8267 147.136C54.4347 146.848 55.2134 146.704 56.1627 146.704C56.792 146.704 57.416 146.795 58.0347 146.976C58.6534 147.147 59.1867 147.387 59.6347 147.696L59.2347 148.64C58.7547 148.32 58.2427 148.085 57.6987 147.936C57.1654 147.787 56.648 147.712 56.1467 147.712C55.4747 147.712 54.92 147.803 54.4827 147.984C54.0454 148.165 53.72 148.411 53.5067 148.72C53.304 149.019 53.2027 149.36 53.2027 149.744C53.2027 150.181 53.3254 150.533 53.5707 150.8C53.8267 151.067 54.1574 151.275 54.5627 151.424C54.9787 151.573 55.432 151.707 55.9227 151.824C56.4134 151.941 56.8987 152.069 57.3787 152.208C57.8694 152.347 58.3174 152.528 58.7227 152.752C59.1387 152.965 59.4694 153.253 59.7147 153.616C59.9707 153.979 60.0987 154.453 60.0987 155.04C60.0987 155.584 59.9494 156.091 59.6507 156.56C59.352 157.019 58.8934 157.392 58.2747 157.68C57.6667 157.957 56.8827 158.096 55.9227 158.096ZM69.7085 158.096C68.8659 158.096 68.0872 157.957 67.3725 157.68C66.6579 157.392 66.0392 156.992 65.5165 156.48C64.9939 155.968 64.5832 155.365 64.2845 154.672C63.9965 153.979 63.8525 153.221 63.8525 152.4C63.8525 151.579 63.9965 150.821 64.2845 150.128C64.5832 149.435 64.9939 148.832 65.5165 148.32C66.0499 147.808 66.6739 147.413 67.3885 147.136C68.1032 146.848 68.8819 146.704 69.7245 146.704C70.5352 146.704 71.2979 146.843 72.0125 147.12C72.7272 147.387 73.3299 147.792 73.8205 148.336L73.0685 149.088C72.6099 148.619 72.1032 148.283 71.5485 148.08C70.9939 147.867 70.3965 147.76 69.7565 147.76C69.0845 147.76 68.4605 147.877 67.8845 148.112C67.3085 148.336 66.8072 148.661 66.3805 149.088C65.9539 149.504 65.6179 149.995 65.3725 150.56C65.1379 151.115 65.0205 151.728 65.0205 152.4C65.0205 153.072 65.1379 153.691 65.3725 154.256C65.6179 154.811 65.9539 155.301 66.3805 155.728C66.8072 156.144 67.3085 156.469 67.8845 156.704C68.4605 156.928 69.0845 157.04 69.7565 157.04C70.3965 157.04 70.9939 156.933 71.5485 156.72C72.1032 156.507 72.6099 156.165 73.0685 155.696L73.8205 156.448C73.3299 156.992 72.7272 157.403 72.0125 157.68C71.2979 157.957 70.5299 158.096 69.7085 158.096ZM78.5106 158V146.8H82.7026C83.6519 146.8 84.4679 146.955 85.1506 147.264C85.8333 147.563 86.3559 148 86.7186 148.576C87.0919 149.141 87.2786 149.829 87.2786 150.64C87.2786 151.429 87.0919 152.112 86.7186 152.688C86.3559 153.253 85.8333 153.691 85.1506 154C84.4679 154.299 83.6519 154.448 82.7026 154.448H79.1666L79.6946 153.904V158H78.5106ZM86.1586 158L83.2786 153.936H84.5586L87.4546 158H86.1586ZM79.6946 154L79.1666 153.44H82.6706C83.7906 153.44 84.6386 153.195 85.2146 152.704C85.8013 152.213 86.0946 151.525 86.0946 150.64C86.0946 149.744 85.8013 149.051 85.2146 148.56C84.6386 148.069 83.7906 147.824 82.6706 147.824H79.1666L79.6946 147.264V154ZM92.2392 158V146.8H93.4232V158H92.2392ZM99.2334 158V146.8H103.425C104.375 146.8 105.191 146.955 105.873 147.264C106.556 147.563 107.079 148 107.441 148.576C107.815 149.141 108.001 149.829 108.001 150.64C108.001 151.429 107.815 152.112 107.441 152.688C107.079 153.253 106.556 153.691 105.873 154C105.191 154.309 104.375 154.464 103.425 154.464H99.8894L100.417 153.904V158H99.2334ZM100.417 154L99.8894 153.424H103.393C104.513 153.424 105.361 153.184 105.937 152.704C106.524 152.213 106.817 151.525 106.817 150.64C106.817 149.744 106.524 149.051 105.937 148.56C105.361 148.069 104.513 147.824 103.393 147.824H99.8894L100.417 147.264V154ZM114.529 158V147.824H110.593V146.8H119.649V147.824H115.713V158H114.529Z" fill="#1F2626"/>
</svg>
